<svg width="231" height="147" viewBox="0 0 231 147" fill="none" xmlns="http://www.w3.org/2000/svg">
<path d="M192.572 76.8916C188.459 76.8916 184.695 75.9854 181.279 74.173C177.933 72.3605 175.005 69.8162 172.496 66.5399C170.056 63.1939 168.139 59.2554 166.745 54.7244C165.421 50.1237 164.758 45.1047 164.758 39.6674C164.758 33.8817 165.421 28.5838 166.745 23.774C168.069 18.9641 169.917 14.8165 172.287 11.3311C174.727 7.84568 177.585 5.16191 180.861 3.27979C184.207 1.32796 187.867 0.352051 191.84 0.352051C195.883 0.352051 199.612 1.25826 203.028 3.07066C206.444 4.88308 209.372 7.46228 211.811 10.8083C214.321 14.0846 216.238 18.0231 217.562 22.6238C218.956 27.1548 219.653 32.139 219.653 37.5762C219.653 43.362 218.991 48.6598 217.667 53.4696C216.342 58.2795 214.46 62.4271 212.02 65.9125C209.65 69.398 206.792 72.1166 203.446 74.0684C200.17 75.9505 196.545 76.8916 192.572 76.8916ZM184.521 39.5629C184.521 45.6972 184.66 50.8556 184.939 55.0381C185.218 59.2206 185.671 62.6014 186.298 65.1806C186.925 67.7598 187.727 69.6071 188.703 70.7224C189.749 71.8377 191.038 72.3954 192.572 72.3954C193.966 72.3954 195.116 71.8029 196.022 70.6178C196.998 69.4328 197.765 67.481 198.323 64.7624C198.88 62.0437 199.264 58.4886 199.473 54.097C199.752 49.6357 199.891 44.1636 199.891 37.6808C199.891 31.5464 199.752 26.388 199.473 22.2055C199.194 17.9534 198.741 14.5725 198.114 12.063C197.486 9.48381 196.65 7.63655 195.604 6.52122C194.628 5.40589 193.373 4.84822 191.84 4.84822C190.446 4.84822 189.296 5.44074 188.389 6.62578C187.483 7.81082 186.716 9.76264 186.089 12.4813C185.531 15.1999 185.113 18.7898 184.834 23.2512C184.625 27.6428 184.521 33.08 184.521 39.5629Z" fill="#FF9EA7" fill-opacity="0.75"/>
<path d="M136.266 76.8916C132.083 76.8916 128.215 76.4733 124.66 75.6368C121.104 74.87 118.002 73.685 115.354 72.0817C114.866 71.8029 114.622 71.3846 114.622 70.827V50.4373C114.622 49.3917 114.9 48.7992 115.458 48.6598C116.016 48.4507 116.573 48.7992 117.131 49.7054C119.571 53.8182 121.697 57.3036 123.509 60.1616C125.391 63.0197 127.064 65.3549 128.528 67.1673C129.992 68.9797 131.282 70.3042 132.397 71.1407C133.582 71.9772 134.698 72.3954 135.743 72.3954C136.998 72.3954 138.078 72.012 138.985 71.2452C139.96 70.4784 140.762 69.4328 141.39 68.1083C142.017 66.7839 142.47 65.2155 142.749 63.403C143.028 61.5906 143.167 59.6388 143.167 57.5476C143.167 52.0406 141.912 47.6142 139.403 44.2682C136.963 40.9222 133.443 38.6567 128.842 37.4716C128.215 37.4019 127.901 37.0185 127.901 36.3214V35.9032C127.901 35.3455 128.215 34.997 128.842 34.8576C130.933 34.509 132.815 33.7771 134.488 32.6618C136.231 31.5464 137.695 30.1523 138.88 28.4793C140.135 26.8063 141.111 24.9242 141.808 22.8329C142.505 20.672 142.853 18.4413 142.853 16.1409C142.853 13.0041 142.191 10.3552 140.867 8.19421C139.612 5.96355 138.078 4.84822 136.266 4.84822C135.22 4.84822 134.14 5.16191 133.025 5.78928C131.979 6.41666 130.759 7.46228 129.365 8.92615C128.04 10.3203 126.542 12.1676 124.869 14.4679C123.265 16.6986 121.418 19.4521 119.327 22.7284C118.769 23.6346 118.002 23.9483 117.027 23.6694C116.12 23.3906 115.667 22.6587 115.667 21.4736V4.84822C115.667 4.29056 115.911 3.87231 116.399 3.59347C118.63 2.61756 121.662 1.85077 125.496 1.29311C129.33 0.665737 133.234 0.352051 137.207 0.352051C140.553 0.352051 143.69 0.805154 146.618 1.71136C149.615 2.54786 152.194 3.76775 154.355 5.37103C156.516 6.90461 158.224 8.71702 159.479 10.8083C160.734 12.8995 161.361 15.1302 161.361 17.5002C161.361 20.9159 159.653 24.0528 156.237 26.9108C152.891 29.7689 147.942 32.2087 141.39 34.2302C148.151 35.2061 153.344 37.4368 156.969 40.9222C160.664 44.4076 162.511 48.8689 162.511 54.3061C162.511 57.443 161.814 60.4056 160.42 63.1939C159.095 65.9125 157.248 68.3175 154.878 70.4087C152.578 72.4303 149.824 74.0335 146.618 75.2186C143.411 76.3339 139.96 76.8916 136.266 76.8916Z" fill="#FF9EA7" fill-opacity="0.75"/>
<path d="M99.0107 48.4505C96.4315 48.4505 94.2008 47.5443 92.3187 45.7319C90.5063 43.8498 89.6001 41.6191 89.6001 39.0399C89.6001 36.4607 90.5063 34.2649 92.3187 32.4525C94.2008 30.6401 96.4315 29.7339 99.0107 29.7339C101.59 29.7339 103.786 30.6401 105.598 32.4525C107.411 34.2649 108.317 36.4607 108.317 39.0399C108.317 41.6191 107.411 43.8498 105.598 45.7319C103.786 47.5443 101.59 48.4505 99.0107 48.4505ZM89.6001 67.4808C89.6001 64.9016 90.5063 62.7058 92.3187 60.8934C94.2008 59.081 96.4315 58.1748 99.0107 58.1748C101.59 58.1748 103.786 59.081 105.598 60.8934C107.411 62.7058 108.317 64.9016 108.317 67.4808C108.317 70.06 107.411 72.2907 105.598 74.1728C103.786 75.9852 101.59 76.8914 99.0107 76.8914C96.4315 76.8914 94.2008 75.9852 92.3187 74.1728C90.5063 72.2907 89.6001 70.06 89.6001 67.4808Z" fill="#FF9EA7" fill-opacity="0.75"/>
<path d="M57.1295 76.8916C52.947 76.8916 49.0782 76.4733 45.5231 75.6368C41.968 74.87 38.866 73.685 36.217 72.0817C35.7291 71.8029 35.4851 71.3846 35.4851 70.827V50.4373C35.4851 49.3917 35.7639 48.7992 36.3216 48.6598C36.8793 48.4507 37.4369 48.7992 37.9946 49.7054C40.4344 53.8182 42.5605 57.3036 44.3729 60.1616C46.255 63.0197 47.928 65.3549 49.3919 67.1673C50.8558 68.9797 52.1454 70.3042 53.2607 71.1407C54.4457 71.9772 55.561 72.3954 56.6067 72.3954C57.6523 72.3954 58.6282 71.9423 59.5344 71.0361C60.4406 70.0602 61.2074 68.7706 61.8348 67.1673C62.5319 65.4943 63.0547 63.5425 63.4032 61.3118C63.8215 59.0811 64.0306 56.7111 64.0306 54.2016C64.0306 51.4133 63.6123 48.7992 62.7758 46.3594C62.0091 43.8499 60.9286 41.7238 59.5344 39.9811C58.21 38.1687 56.6067 36.7397 54.7246 35.6941C52.9121 34.6484 50.9255 34.1256 48.7645 34.1256C46.255 34.1256 44.2335 34.5787 42.6999 35.4849C42.3514 35.6941 41.8983 35.6244 41.3406 35.2758L39.0402 33.3937C38.8311 33.1846 38.6568 33.0103 38.5174 32.8709C38.4477 32.7315 38.4128 32.4875 38.4128 32.139L39.4585 1.39767C39.4585 0.700591 39.807 0.352051 40.5041 0.352051H77.7282C78.4253 0.352051 78.7739 0.700591 78.7739 1.39767V21.5782C78.7739 23.3906 77.9025 23.7391 76.1598 22.6238C69.6072 18.3716 63.8912 14.9559 59.0116 12.3767C54.132 9.7975 49.601 7.77597 45.4185 6.31209L44.6866 28.8975C46.3596 28.2004 48.3811 27.5382 50.7512 26.9108C53.191 26.2835 55.6308 25.9698 58.0705 25.9698C61.8348 26.1092 65.2505 26.8063 68.3176 28.061C71.4545 29.3158 74.1383 30.9888 76.3689 33.08C78.5996 35.1713 80.3074 37.611 81.4925 40.3994C82.7472 43.1877 83.3746 46.1503 83.3746 49.2872C83.3746 53.1908 82.6775 56.8156 81.2833 60.1616C79.9589 63.5076 78.1116 66.4354 75.7415 68.9448C73.4412 71.3846 70.6877 73.3365 67.4811 74.8003C64.2746 76.1945 60.824 76.8916 57.1295 76.8916Z" fill="#FF9EA7" fill-opacity="0.75"/>
<path d="M6.94864 75.0094C8.20339 72.6393 9.10959 69.7116 9.66726 66.2262C10.2946 62.6711 10.6083 58.1749 10.6083 52.7377V25.3424C10.6083 22.6935 9.84153 20.7765 8.30795 19.5915C6.84408 18.4064 4.54371 17.8139 1.40685 17.8139C0.640057 17.8139 0.221808 17.5351 0.1521 16.9774C0.1521 16.35 0.465786 15.9318 1.09316 15.7227C4.29973 14.677 7.19262 13.492 9.77182 12.1675C12.351 10.8431 14.6514 9.51863 16.6729 8.19418C18.7642 6.86972 20.6114 5.61498 22.2147 4.42994C23.818 3.17519 25.2819 2.12957 26.6063 1.29307C26.9549 1.08395 27.1989 1.08395 27.3383 1.29307C27.5474 1.5022 27.652 1.78103 27.652 2.12957V52.7377C27.652 58.1749 27.9308 62.6711 28.4885 66.2262C29.1158 69.7116 30.0569 72.6393 31.3116 75.0094V75.2185H6.94864V75.0094Z" fill="#FF9EA7" fill-opacity="0.75"/>
<path d="M114.549 143.068L117.402 134.261L120.475 140.12L124.017 134.261L126.755 143.068H124.878L123.289 137.688L120.398 143.356L117.976 137.669L116.445 143.068H114.549Z" fill="#F6EBC8"/>
<path d="M110.165 134.625C111.001 134.625 111.75 134.81 112.414 135.18C113.078 135.55 113.595 136.071 113.965 136.741C114.335 137.404 114.52 138.157 114.52 139C114.52 139.829 114.335 140.573 113.965 141.23C113.595 141.888 113.075 142.398 112.405 142.762C111.735 143.119 110.975 143.298 110.126 143.298C109.297 143.298 108.556 143.11 107.905 142.733C107.254 142.37 106.747 141.856 106.383 141.192C106.026 140.522 105.847 139.766 105.847 138.923C105.847 138.1 106.029 137.363 106.393 136.712C106.757 136.055 107.267 135.544 107.924 135.18C108.582 134.81 109.329 134.625 110.165 134.625ZM110.184 136.195C109.648 136.195 109.188 136.329 108.805 136.597C108.422 136.859 108.135 137.2 107.944 137.621C107.752 138.043 107.656 138.496 107.656 138.981C107.656 139.459 107.752 139.909 107.944 140.33C108.135 140.745 108.422 141.087 108.805 141.355C109.188 141.616 109.648 141.747 110.184 141.747C110.713 141.747 111.163 141.616 111.534 141.355C111.91 141.093 112.191 140.748 112.376 140.321C112.567 139.893 112.663 139.447 112.663 138.981C112.663 138.502 112.567 138.049 112.376 137.621C112.191 137.194 111.91 136.849 111.534 136.587C111.157 136.326 110.707 136.195 110.184 136.195Z" fill="#F6EBC8"/>
<path d="M105.282 136.348H101.989L101.999 143.021H100.285V134.903H105.254L105.282 136.348Z" fill="#F6EBC8"/>
<path d="M91.1433 134.903H93.2015L95.6713 139.565L97.9114 134.903H99.8547L93.929 146.888H92.0432L94.7715 141.432L91.1433 134.903Z" fill="#F6EBC8"/>
<path d="M86.845 136.195C86.0983 136.195 85.5144 136.476 85.0932 137.037C84.6719 137.593 84.4613 138.247 84.4613 139C84.4613 139.479 84.5507 139.932 84.7294 140.359C84.9081 140.787 85.1729 141.131 85.5239 141.393C85.8749 141.655 86.2962 141.786 86.7876 141.786C87.2981 141.786 87.7321 141.652 88.0895 141.384C88.4533 141.116 88.7245 140.764 88.9032 140.331C89.0819 139.89 89.1712 139.427 89.1712 138.942C89.1712 138.477 89.0819 138.033 88.9032 137.612C88.7309 137.184 88.4692 136.843 88.1182 136.587C87.7672 136.326 87.3428 136.195 86.845 136.195ZM82.8435 146.888V134.893L84.5762 134.903V135.898C85.1697 135.075 86.0058 134.663 87.0843 134.663C87.8821 134.663 88.5681 134.871 89.1425 135.286C89.7233 135.7 90.1572 136.24 90.4444 136.903C90.738 137.567 90.8848 138.272 90.8848 139.019C90.8848 139.759 90.7444 140.452 90.4636 141.096C90.1828 141.741 89.7584 142.261 89.1904 142.657C88.6288 143.052 87.9523 143.25 87.1609 143.25C86.0824 143.25 85.2208 142.845 84.5762 142.035V146.888H82.8435Z" fill="#F6EBC8"/>
<path d="M74.5534 141.46H79.2154V136.281H76.5063C76.3723 139.223 75.7213 140.95 74.5534 141.46ZM72.7058 141.499C73.8737 140.988 74.5151 138.793 74.63 134.912H81.063V141.499H82.0012V144.705H80.1536V143.116H73.5961V144.705H71.7485V141.499H72.7058Z" fill="#F6EBC8"/>
<path d="M66.6653 136.348H63.3722L63.3818 143.021H61.6682V134.903H66.6366L66.6653 136.348Z" fill="#F6EBC8"/>
<path d="M52.5259 134.903H54.5841L57.0539 139.565L59.294 134.903H61.2373L55.3116 146.888H53.4257L56.154 141.432L52.5259 134.903Z" fill="#F6EBC8"/>
<path d="M48.2276 136.195C47.4809 136.195 46.8969 136.476 46.4757 137.037C46.0545 137.593 45.8439 138.247 45.8439 139C45.8439 139.479 45.9333 139.932 46.1119 140.359C46.2906 140.787 46.5555 141.131 46.9065 141.393C47.2575 141.655 47.6787 141.786 48.1701 141.786C48.6807 141.786 49.1147 141.652 49.4721 141.384C49.8358 141.116 50.1071 140.764 50.2858 140.331C50.4644 139.89 50.5538 139.427 50.5538 138.942C50.5538 138.477 50.4644 138.033 50.2858 137.612C50.1134 137.184 49.8518 136.843 49.5008 136.587C49.1498 136.326 48.7254 136.195 48.2276 136.195ZM44.2261 146.888V134.893L45.9588 134.903V135.898C46.5523 135.075 47.3883 134.663 48.4669 134.663C49.2646 134.663 49.9507 134.871 50.5251 135.286C51.1058 135.7 51.5398 136.24 51.827 136.903C52.1206 137.567 52.2674 138.272 52.2674 139.019C52.2674 139.759 52.127 140.452 51.8461 141.096C51.5653 141.741 51.1409 142.261 50.5729 142.657C50.0113 143.052 49.3348 143.25 48.5435 143.25C47.4649 143.25 46.6034 142.845 45.9588 142.035V146.888H44.2261Z" fill="#F6EBC8"/>
<path d="M35.936 141.46H40.598V136.281H37.8889C37.7548 139.223 37.1039 140.95 35.936 141.46ZM34.0884 141.499C35.2563 140.988 35.8977 138.793 36.0126 134.912H42.4456V141.499H43.3837V144.705H41.5362V143.116H34.9787V144.705H33.1311V141.499H34.0884Z" fill="#F6EBC8"/>
<path d="M26.1238 143.068V137.956L19.9875 143.356V134.922H21.816V140.005L27.9522 134.52V143.068H26.1238Z" fill="#F6EBC8"/>
<path d="M228.324 125.097V119.985L222.188 125.384V116.95H224.016V122.033L230.152 116.548V125.097H228.324Z" fill="#F6EBC8"/>
<path d="M209.723 125.097L212.576 116.29L215.649 122.148L219.191 116.29L221.929 125.097H220.053L218.463 119.717L215.572 125.384L213.151 119.698L211.619 125.097H209.723Z" fill="#F6EBC8"/>
<path d="M207.512 124.063C207.244 124.452 206.883 124.755 206.43 124.972C205.977 125.183 205.476 125.288 204.927 125.288C204.225 125.288 203.587 125.1 203.013 124.723C202.445 124.347 201.998 123.83 201.673 123.173C201.347 122.509 201.184 121.769 201.184 120.952C201.184 120.154 201.35 119.43 201.682 118.779C202.02 118.128 202.483 117.617 203.07 117.247C203.664 116.877 204.321 116.692 205.042 116.692C206.153 116.692 206.976 117.103 207.512 117.927V116.931H209.245V125.049H207.512V124.063ZM205.301 118.223C204.803 118.223 204.372 118.354 204.008 118.616C203.651 118.877 203.38 119.225 203.195 119.659C203.016 120.093 202.927 120.55 202.927 121.028C202.927 121.5 203.016 121.95 203.195 122.378C203.38 122.806 203.651 123.153 204.008 123.421C204.372 123.683 204.803 123.814 205.301 123.814C205.792 123.814 206.213 123.683 206.564 123.421C206.915 123.153 207.18 122.802 207.359 122.368C207.544 121.934 207.636 121.475 207.636 120.99C207.636 120.518 207.55 120.068 207.378 119.64C207.193 119.219 206.925 118.877 206.574 118.616C206.223 118.354 205.798 118.223 205.301 118.223Z" fill="#F6EBC8"/>
<path d="M198.772 121.555H195.086V125.049H193.373V116.96H195.077V120.013H198.772V116.96H200.476L200.486 125.049H198.772V121.555Z" fill="#F6EBC8"/>
<path d="M188.625 116.654C189.461 116.654 190.21 116.839 190.874 117.209C191.538 117.579 192.055 118.099 192.425 118.769C192.795 119.433 192.98 120.186 192.98 121.028C192.98 121.858 192.795 122.602 192.425 123.259C192.055 123.916 191.535 124.427 190.865 124.791C190.194 125.148 189.435 125.327 188.586 125.327C187.757 125.327 187.016 125.138 186.365 124.762C185.714 124.398 185.207 123.884 184.843 123.221C184.486 122.551 184.307 121.794 184.307 120.952C184.307 120.129 184.489 119.391 184.853 118.74C185.217 118.083 185.727 117.573 186.384 117.209C187.042 116.839 187.788 116.654 188.625 116.654ZM188.644 118.224C188.108 118.224 187.648 118.358 187.265 118.626C186.882 118.887 186.595 119.229 186.404 119.65C186.212 120.071 186.116 120.524 186.116 121.009C186.116 121.488 186.212 121.938 186.404 122.359C186.595 122.774 186.882 123.115 187.265 123.383C187.648 123.645 188.108 123.776 188.644 123.776C189.173 123.776 189.623 123.645 189.993 123.383C190.37 123.122 190.651 122.777 190.836 122.349C191.027 121.922 191.123 121.475 191.123 121.009C191.123 120.531 191.027 120.077 190.836 119.65C190.651 119.222 190.37 118.878 189.993 118.616C189.617 118.354 189.167 118.224 188.644 118.224Z" fill="#F6EBC8"/>
<path d="M178.736 120.435H180.181C181.445 120.326 182.077 119.908 182.077 119.181C182.077 118.804 181.908 118.511 181.569 118.3C181.237 118.083 180.791 117.975 180.229 117.975C179.329 117.949 178.318 118 177.195 118.128V117.161C178.528 116.931 179.54 116.832 180.229 116.864C180.918 116.89 181.521 116.992 182.038 117.171C182.555 117.349 182.951 117.608 183.225 117.946C183.506 118.278 183.647 118.667 183.647 119.114C183.647 119.599 183.5 119.982 183.206 120.263C182.913 120.543 182.447 120.741 181.809 120.856C183.283 121.028 184.02 121.689 184.02 122.838C184.02 123.342 183.835 123.779 183.465 124.149C183.095 124.526 182.61 124.816 182.01 125.02C181.41 125.218 180.778 125.324 180.114 125.336C179.451 125.355 178.803 125.308 178.171 125.193C177.546 125.084 177.179 125.027 177.07 125.02V123.967C178.57 124.178 179.623 124.283 180.229 124.283C180.88 124.283 181.407 124.156 181.809 123.9C182.211 123.645 182.412 123.3 182.412 122.866C182.412 122.005 181.7 121.517 180.277 121.402H178.736V120.435Z" fill="#F6EBC8"/>
<path d="M170.216 125.097V119.985L164.08 125.384V116.95H165.908V122.033L172.044 116.548V125.097H170.216Z" fill="#F6EBC8"/>
<path d="M151.615 125.097L154.468 116.29L157.541 122.148L161.083 116.29L163.821 125.097H161.945L160.356 119.717L157.465 125.384L155.043 119.698L153.511 125.097H151.615Z" fill="#F6EBC8"/>
<path d="M144.694 116.941V120.33H145.69C146.379 120.33 146.957 120.454 147.423 120.703C147.888 120.907 148.246 121.191 148.495 121.555C148.75 121.912 148.878 122.318 148.878 122.771C148.878 123.23 148.747 123.632 148.485 123.977C148.23 124.315 147.863 124.58 147.384 124.771C146.912 124.956 146.363 125.049 145.738 125.049H142.885V116.941H144.694ZM144.694 123.929H145.518C145.792 123.929 146.114 123.827 146.484 123.623C146.842 123.418 147.021 123.128 147.021 122.752C147.021 121.935 146.52 121.526 145.518 121.526H144.694V123.929ZM149.289 125.049H151.003L150.993 116.931H149.289V125.049Z" fill="#F6EBC8"/>
<path d="M135.782 125.049V116.941H138.635C139.484 116.941 140.147 117.123 140.626 117.486C141.105 117.85 141.344 118.348 141.344 118.98C141.344 119.42 141.203 119.797 140.923 120.109C140.648 120.416 140.275 120.607 139.803 120.684C140.53 120.728 141.101 120.955 141.516 121.363C141.931 121.772 142.138 122.247 142.138 122.79C142.138 123.039 142.091 123.281 141.995 123.517C141.905 123.753 141.762 123.977 141.564 124.187C141.366 124.392 141.133 124.558 140.865 124.685C140.387 124.928 139.701 125.049 138.807 125.049H135.782ZM137.419 124.015H138.673C139.803 124.079 140.367 123.648 140.367 122.723C140.367 121.791 139.78 121.325 138.606 121.325H137.419V124.015ZM137.419 120.119H138.185C138.657 120.119 139.03 120.02 139.305 119.822C139.566 119.631 139.697 119.363 139.697 119.018C139.697 118.724 139.56 118.482 139.286 118.29C139.011 118.099 138.686 118.003 138.309 118.003H137.419V120.119Z" fill="#F6EBC8"/>
<path d="M131.11 116.654C131.946 116.654 132.696 116.839 133.36 117.209C134.024 117.579 134.541 118.099 134.911 118.769C135.281 119.433 135.466 120.186 135.466 121.028C135.466 121.858 135.281 122.602 134.911 123.259C134.541 123.916 134.021 124.427 133.35 124.791C132.68 125.148 131.921 125.327 131.072 125.327C130.242 125.327 129.502 125.138 128.851 124.762C128.2 124.398 127.693 123.884 127.329 123.221C126.972 122.551 126.793 121.794 126.793 120.952C126.793 120.129 126.975 119.391 127.339 118.74C127.702 118.083 128.213 117.573 128.87 117.209C129.528 116.839 130.274 116.654 131.11 116.654ZM131.13 118.224C130.593 118.224 130.134 118.358 129.751 118.626C129.368 118.887 129.081 119.229 128.889 119.65C128.698 120.071 128.602 120.524 128.602 121.009C128.602 121.488 128.698 121.938 128.889 122.359C129.081 122.774 129.368 123.115 129.751 123.383C130.134 123.645 130.593 123.776 131.13 123.776C131.659 123.776 132.109 123.645 132.479 123.383C132.856 123.122 133.137 122.777 133.322 122.349C133.513 121.922 133.609 121.475 133.609 121.009C133.609 120.531 133.513 120.077 133.322 119.65C133.137 119.222 132.856 118.878 132.479 118.616C132.103 118.354 131.653 118.224 131.13 118.224Z" fill="#F6EBC8"/>
<path d="M122.418 118.223C121.671 118.223 121.087 118.504 120.666 119.066C120.245 119.621 120.034 120.275 120.034 121.028C120.034 121.507 120.124 121.96 120.302 122.388C120.481 122.815 120.746 123.16 121.097 123.421C121.448 123.683 121.869 123.814 122.361 123.814C122.871 123.814 123.305 123.68 123.662 123.412C124.026 123.144 124.297 122.793 124.476 122.359C124.655 121.918 124.744 121.456 124.744 120.971C124.744 120.505 124.655 120.061 124.476 119.64C124.304 119.213 124.042 118.871 123.691 118.616C123.34 118.354 122.916 118.223 122.418 118.223ZM118.417 128.916V116.921L120.149 116.931V117.927C120.743 117.103 121.579 116.692 122.657 116.692C123.455 116.692 124.141 116.899 124.716 117.314C125.296 117.729 125.73 118.268 126.017 118.932C126.311 119.595 126.458 120.301 126.458 121.047C126.458 121.788 126.317 122.48 126.037 123.125C125.756 123.769 125.331 124.289 124.763 124.685C124.202 125.081 123.525 125.279 122.734 125.279C121.655 125.279 120.794 124.873 120.149 124.063V128.916H118.417Z" fill="#F6EBC8"/>
<path d="M117.479 118.377H114.185L114.195 125.049H112.481V116.931H117.45L117.479 118.377Z" fill="#F6EBC8"/>
<path d="M109.677 125.097V119.985L103.54 125.384V116.95H105.369V122.033L111.505 116.548V125.097H109.677Z" fill="#F6EBC8"/>
<path d="M95.5564 127.366L97.4423 122.847L99.1367 123.46L96.82 127.873L95.5564 127.366Z" fill="#F6EBC8"/>
<path d="M94.1299 125.097V119.985L87.9937 125.384V116.95H89.8221V122.033L95.9584 116.548V125.097H94.1299Z" fill="#F6EBC8"/>
<path d="M75.5298 125.097L78.3825 116.29L81.4554 122.148L84.9974 116.29L87.7353 125.097H85.859L84.2699 119.717L81.3789 125.384L78.9569 119.698L77.4252 125.097H75.5298Z" fill="#F6EBC8"/>
<path d="M73.3184 124.063C73.0504 124.452 72.6898 124.755 72.2367 124.972C71.7836 125.183 71.2826 125.288 70.7337 125.288C70.0317 125.288 69.3935 125.1 68.8192 124.723C68.2512 124.347 67.8044 123.83 67.4789 123.173C67.1535 122.509 66.9907 121.769 66.9907 120.952C66.9907 120.154 67.1567 119.43 67.4885 118.779C67.8268 118.128 68.2895 117.617 68.8766 117.247C69.4701 116.877 70.1275 116.692 70.8486 116.692C71.9591 116.692 72.7824 117.103 73.3184 117.927V116.931H75.0512V125.049H73.3184V124.063ZM71.1071 118.223C70.6093 118.223 70.1785 118.354 69.8147 118.616C69.4574 118.877 69.1861 119.225 69.001 119.659C68.8223 120.093 68.733 120.55 68.733 121.028C68.733 121.5 68.8223 121.95 69.001 122.378C69.1861 122.806 69.4574 123.153 69.8147 123.421C70.1785 123.683 70.6093 123.814 71.1071 123.814C71.5985 123.814 72.0197 123.683 72.3707 123.421C72.7217 123.153 72.9866 122.802 73.1653 122.368C73.3504 121.934 73.4429 121.475 73.4429 120.99C73.4429 120.518 73.3567 120.068 73.1844 119.64C72.9993 119.219 72.7313 118.877 72.3803 118.616C72.0293 118.354 71.6049 118.223 71.1071 118.223Z" fill="#F6EBC8"/>
<path d="M61.3714 116.931V119.889L64.1858 116.931H66.4642L62.7595 120.54L66.7801 125.049H64.4443L61.3714 121.344V125.049H59.6387V116.931H61.3714Z" fill="#F6EBC8"/>
<path d="M59.0644 124.637C58.1262 125.097 57.22 125.327 56.3456 125.327C55.5798 125.327 54.8906 125.145 54.2779 124.781C53.6652 124.411 53.1866 123.903 52.8419 123.259C52.4909 122.608 52.3154 121.877 52.3154 121.067C52.3154 120.422 52.4367 119.828 52.6792 119.286C52.9281 118.744 53.26 118.278 53.6748 117.888C54.096 117.493 54.5715 117.193 55.1012 116.989C55.6372 116.778 56.1893 116.673 56.7573 116.673C57.5997 116.673 58.3687 116.89 59.0644 117.324V119.363C58.407 118.68 57.622 118.338 56.7094 118.338C56.001 118.338 55.3947 118.568 54.8906 119.028C54.3928 119.487 54.1439 120.128 54.1439 120.952C54.1439 121.507 54.2428 121.989 54.4406 122.397C54.6385 122.806 54.9257 123.118 55.3022 123.335C55.6723 123.546 56.1095 123.651 56.6137 123.651C57.4689 123.651 58.2858 123.294 59.0644 122.579V124.637Z" fill="#F6EBC8"/>
<path d="M43.3743 116.931H45.4325L47.9023 121.593L50.1423 116.931H52.0857L46.16 128.916H44.2741L47.0024 123.46L43.3743 116.931Z" fill="#F6EBC8"/>
<path d="M37.9942 116.931V119.889L40.8086 116.931H43.087L39.3823 120.54L43.4029 125.049H41.0671L37.9942 121.344V125.049H36.2615V116.931H37.9942Z" fill="#F6EBC8"/>
<path d="M33.629 124.063C33.3609 124.452 33.0004 124.755 32.5472 124.972C32.0941 125.183 31.5931 125.288 31.0443 125.288C30.3423 125.288 29.7041 125.1 29.1297 124.723C28.5617 124.347 28.115 123.83 27.7895 123.173C27.464 122.509 27.3013 121.769 27.3013 120.952C27.3013 120.154 27.4672 119.43 27.7991 118.779C28.1373 118.128 28.6 117.617 29.1871 117.247C29.7807 116.877 30.438 116.692 31.1592 116.692C32.2696 116.692 33.0929 117.103 33.629 117.927V116.931H35.3617V125.049H33.629V124.063ZM31.4176 118.223C30.9198 118.223 30.4891 118.354 30.1253 118.616C29.7679 118.877 29.4967 119.225 29.3116 119.659C29.1329 120.093 29.0435 120.55 29.0435 121.028C29.0435 121.5 29.1329 121.95 29.3116 122.378C29.4967 122.806 29.7679 123.153 30.1253 123.421C30.4891 123.683 30.9198 123.814 31.4176 123.814C31.9091 123.814 32.3303 123.683 32.6813 123.421C33.0323 123.153 33.2971 122.802 33.4758 122.368C33.6609 121.934 33.7534 121.475 33.7534 120.99C33.7534 120.518 33.6673 120.068 33.495 119.64C33.3099 119.219 33.0419 118.877 32.6908 118.616C32.3398 118.354 31.9154 118.223 31.4176 118.223Z" fill="#F6EBC8"/>
<path d="M21.5671 120.435H23.0126C24.2762 120.326 24.908 119.908 24.908 119.181C24.908 118.804 24.7389 118.511 24.4007 118.3C24.0688 118.083 23.6221 117.975 23.0604 117.975C22.1606 117.949 21.149 118 20.0258 118.128V117.161C21.3596 116.931 22.3712 116.832 23.0604 116.864C23.7497 116.89 24.3528 116.992 24.8697 117.171C25.3867 117.349 25.7824 117.608 26.0568 117.946C26.3376 118.278 26.478 118.667 26.478 119.114C26.478 119.599 26.3312 119.982 26.0376 120.263C25.7441 120.543 25.2782 120.741 24.64 120.856C26.1142 121.028 26.8513 121.689 26.8513 122.838C26.8513 123.342 26.6663 123.779 26.2961 124.149C25.9259 124.526 25.4409 124.816 24.841 125.02C24.2411 125.218 23.6093 125.324 22.9456 125.336C22.2818 125.355 21.6341 125.308 21.0023 125.193C20.3768 125.084 20.0099 125.027 19.9014 125.02V123.967C21.4011 124.178 22.4542 124.283 23.0604 124.283C23.7114 124.283 24.2379 124.156 24.64 123.9C25.042 123.645 25.2431 123.3 25.2431 122.866C25.2431 122.005 24.5315 121.517 23.1083 121.402H21.5671V120.435Z" fill="#F6EBC8"/>
<path d="M206.354 109.394L208.24 104.875L209.934 105.488L207.617 109.901L206.354 109.394Z" fill="#F6EBC8"/>
<path d="M204.927 107.125V102.013L198.791 107.412V98.9787H200.619V104.062L206.756 98.5767V107.125H204.927Z" fill="#F6EBC8"/>
<path d="M186.327 107.125L189.18 98.3181L192.253 104.177L195.795 98.3181L198.533 107.125H196.656L195.067 101.745L192.176 107.412L189.754 101.726L188.223 107.125H186.327Z" fill="#F6EBC8"/>
<path d="M184.116 106.091C183.848 106.481 183.487 106.784 183.034 107.001C182.581 107.211 182.08 107.317 181.531 107.317C180.829 107.317 180.191 107.128 179.617 106.752C179.049 106.375 178.602 105.858 178.276 105.201C177.951 104.537 177.788 103.797 177.788 102.98C177.788 102.182 177.954 101.458 178.286 100.807C178.624 100.156 179.087 99.6456 179.674 99.2754C180.267 98.9053 180.925 98.7202 181.646 98.7202C182.756 98.7202 183.58 99.1319 184.116 99.9551V98.9595H185.849V107.077H184.116V106.091ZM181.904 100.252C181.407 100.252 180.976 100.383 180.612 100.644C180.255 100.906 179.983 101.254 179.798 101.688C179.62 102.122 179.53 102.578 179.53 103.057C179.53 103.529 179.62 103.979 179.798 104.407C179.983 104.834 180.255 105.182 180.612 105.45C180.976 105.712 181.407 105.842 181.904 105.842C182.396 105.842 182.817 105.712 183.168 105.45C183.519 105.182 183.784 104.831 183.963 104.397C184.148 103.963 184.24 103.504 184.24 103.018C184.24 102.546 184.154 102.096 183.982 101.669C183.797 101.247 183.529 100.906 183.178 100.644C182.827 100.383 182.402 100.252 181.904 100.252Z" fill="#F6EBC8"/>
<path d="M170.857 107.077V98.969H173.71C174.559 98.969 175.222 99.1509 175.701 99.5147C176.18 99.8784 176.419 100.376 176.419 101.008C176.419 101.448 176.279 101.825 175.998 102.138C175.723 102.444 175.35 102.635 174.878 102.712C175.605 102.757 176.177 102.983 176.591 103.392C177.006 103.8 177.214 104.276 177.214 104.818C177.214 105.067 177.166 105.309 177.07 105.546C176.981 105.782 176.837 106.005 176.639 106.216C176.441 106.42 176.208 106.586 175.94 106.714C175.462 106.956 174.776 107.077 173.882 107.077H170.857ZM172.494 106.043H173.748C174.878 106.107 175.443 105.676 175.443 104.751C175.443 103.819 174.855 103.353 173.681 103.353H172.494V106.043ZM172.494 102.147H173.26C173.732 102.147 174.106 102.048 174.38 101.85C174.642 101.659 174.773 101.391 174.773 101.046C174.773 100.753 174.635 100.51 174.361 100.319C174.086 100.127 173.761 100.032 173.384 100.032H172.494V102.147Z" fill="#F6EBC8"/>
<path d="M168.129 107.125V102.013L161.993 107.412V98.9787H163.821V104.062L169.957 98.5767V107.125H168.129Z" fill="#F6EBC8"/>
<path d="M155.081 98.969H161.275L161.303 100.415H159.073V107.077H157.311V100.415H155.052L155.081 98.969Z" fill="#F6EBC8"/>
<path d="M152.219 107.125V102.013L146.083 107.412V98.9787H147.911V104.062L154.047 98.5767V107.125H152.219Z" fill="#F6EBC8"/>
<path d="M141.43 100.252C140.683 100.252 140.099 100.533 139.678 101.094C139.257 101.65 139.046 102.304 139.046 103.057C139.046 103.535 139.136 103.989 139.314 104.416C139.493 104.844 139.758 105.188 140.109 105.45C140.46 105.712 140.881 105.842 141.373 105.842C141.883 105.842 142.317 105.708 142.674 105.44C143.038 105.172 143.309 104.821 143.488 104.387C143.667 103.947 143.756 103.484 143.756 102.999C143.756 102.533 143.667 102.09 143.488 101.669C143.316 101.241 143.054 100.9 142.703 100.644C142.352 100.383 141.928 100.252 141.43 100.252ZM137.428 110.945V98.95L139.161 98.9595V99.9551C139.755 99.1319 140.591 98.7202 141.669 98.7202C142.467 98.7202 143.153 98.9276 143.727 99.3425C144.308 99.7573 144.742 100.297 145.029 100.96C145.323 101.624 145.47 102.329 145.47 103.076C145.47 103.816 145.329 104.509 145.049 105.153C144.768 105.798 144.343 106.318 143.775 106.714C143.214 107.109 142.537 107.307 141.746 107.307C140.667 107.307 139.806 106.902 139.161 106.091V110.945H137.428Z" fill="#F6EBC8"/>
<path d="M137.017 105C136.066 106.596 134.764 107.393 133.111 107.393C132.505 107.393 131.956 107.294 131.464 107.097C130.967 106.892 130.539 106.599 130.182 106.216C129.831 105.833 129.559 105.377 129.368 104.847C129.183 104.311 129.09 103.727 129.09 103.095C129.09 102.444 129.183 101.844 129.368 101.295C129.559 100.74 129.827 100.271 130.172 99.8881C130.523 99.4988 130.941 99.202 131.426 98.9978C131.911 98.7872 132.447 98.6819 133.034 98.6819C133.692 98.6819 134.288 98.8159 134.825 99.0839C135.361 99.3456 135.804 99.7221 136.155 100.214C136.436 100.577 136.634 100.986 136.749 101.439C136.864 101.892 136.94 102.524 136.978 103.334H130.861C130.88 103.832 130.989 104.272 131.187 104.655C131.391 105.038 131.662 105.332 132.001 105.536C132.345 105.74 132.741 105.842 133.188 105.842C134.177 105.842 134.987 105.259 135.619 104.091L137.017 105ZM131.014 102.004H135.14C135.038 101.423 134.815 100.979 134.47 100.673C134.126 100.367 133.685 100.214 133.149 100.214C131.981 100.214 131.27 100.81 131.014 102.004Z" fill="#F6EBC8"/>
<path d="M126.879 100.549H123.194V107.077H121.48V98.9883H128.583L128.593 107.077H126.879V100.549Z" fill="#F6EBC8"/>
<path d="M118.905 106.091C118.637 106.481 118.276 106.784 117.823 107.001C117.37 107.211 116.869 107.317 116.32 107.317C115.618 107.317 114.98 107.128 114.406 106.752C113.838 106.375 113.391 105.858 113.065 105.201C112.74 104.537 112.577 103.797 112.577 102.98C112.577 102.182 112.743 101.458 113.075 100.807C113.413 100.156 113.876 99.6456 114.463 99.2754C115.057 98.9053 115.714 98.7202 116.435 98.7202C117.546 98.7202 118.369 99.1319 118.905 99.9551V98.9595H120.638V107.077H118.905V106.091ZM116.694 100.252C116.196 100.252 115.765 100.383 115.401 100.644C115.044 100.906 114.773 101.254 114.587 101.688C114.409 102.122 114.319 102.578 114.319 103.057C114.319 103.529 114.409 103.979 114.587 104.407C114.773 104.834 115.044 105.182 115.401 105.45C115.765 105.712 116.196 105.842 116.694 105.842C117.185 105.842 117.606 105.712 117.957 105.45C118.308 105.182 118.573 104.831 118.752 104.397C118.937 103.963 119.029 103.504 119.029 103.018C119.029 102.546 118.943 102.096 118.771 101.669C118.586 101.247 118.318 100.906 117.967 100.644C117.616 100.383 117.191 100.252 116.694 100.252Z" fill="#F6EBC8"/>
<path d="M106.039 107.077V103.583L102.592 107.077H100.343L104.325 103.507C104.051 103.494 103.696 103.433 103.263 103.325C102.829 103.216 102.458 103.063 102.152 102.865C101.846 102.661 101.61 102.422 101.444 102.147C101.284 101.866 101.204 101.554 101.204 101.209C101.204 100.488 101.568 99.9359 102.296 99.5529C103.03 99.1636 103.965 98.969 105.101 98.969H107.867V107.077H106.039ZM106.039 100.051H105.474C104.619 100.051 103.996 100.156 103.607 100.367C103.224 100.577 103.033 100.89 103.033 101.305C103.033 101.694 103.234 102.016 103.636 102.272C104.044 102.521 104.619 102.645 105.359 102.645H106.039V100.051Z" fill="#F6EBC8"/>
<path d="M100.19 106.666C99.2515 107.125 98.3452 107.355 97.4709 107.355C96.7051 107.355 96.0158 107.173 95.4031 106.809C94.7905 106.439 94.3118 105.932 93.9672 105.287C93.6162 104.636 93.4407 103.905 93.4407 103.095C93.4407 102.45 93.5619 101.857 93.8044 101.314C94.0533 100.772 94.3852 100.306 94.8 99.9167C95.2212 99.521 95.6967 99.2211 96.2264 99.0168C96.7625 98.8062 97.3145 98.7009 97.8825 98.7009C98.7249 98.7009 99.494 98.9179 100.19 99.3519V101.391C99.5323 100.708 98.7473 100.367 97.8347 100.367C97.1263 100.367 96.52 100.596 96.0158 101.056C95.518 101.515 95.2691 102.157 95.2691 102.98C95.2691 103.535 95.368 104.017 95.5659 104.426C95.7637 104.834 96.0509 105.147 96.4274 105.364C96.7976 105.574 97.2348 105.68 97.7389 105.68C98.5941 105.68 99.411 105.322 100.19 104.607V106.666Z" fill="#F6EBC8"/>
<path d="M81.1394 107.125L83.9921 98.3181L87.0651 104.177L90.6071 98.3181L93.3449 107.125H91.4686L89.8795 101.745L86.9885 107.412L84.5665 101.726L83.0348 107.125H81.1394Z" fill="#F6EBC8"/>
<path d="M78.6983 107.125V102.013L72.562 107.412V98.9787H74.3904V104.062L80.5267 98.5767V107.125H78.6983Z" fill="#F6EBC8"/>
<path d="M64.3676 105.517H69.0296V100.338H66.3205C66.1865 103.28 65.5355 105.006 64.3676 105.517ZM62.52 105.555C63.6879 105.045 64.3293 102.849 64.4442 98.969H70.8772V105.555H71.8154V108.762H69.9678V107.173H63.4103V108.762H61.5627V105.555H62.52Z" fill="#F6EBC8"/>
<path d="M58.9591 106.091C58.691 106.481 58.3304 106.784 57.8773 107.001C57.4242 107.211 56.9232 107.317 56.3744 107.317C55.6724 107.317 55.0342 107.128 54.4598 106.752C53.8918 106.375 53.445 105.858 53.1196 105.201C52.7941 104.537 52.6313 103.797 52.6313 102.98C52.6313 102.182 52.7973 101.458 53.1291 100.807C53.4674 100.156 53.9301 99.6456 54.5172 99.2754C55.1107 98.9053 55.7681 98.7202 56.4892 98.7202C57.5997 98.7202 58.423 99.1319 58.9591 99.9551V98.9595H60.6918V107.077H58.9591V106.091ZM56.7477 100.252C56.2499 100.252 55.8191 100.383 55.4554 100.644C55.098 100.906 54.8267 101.254 54.6417 101.688C54.463 102.122 54.3736 102.578 54.3736 103.057C54.3736 103.529 54.463 103.979 54.6417 104.407C54.8267 104.834 55.098 105.182 55.4554 105.45C55.8191 105.712 56.2499 105.842 56.7477 105.842C57.2391 105.842 57.6603 105.712 58.0113 105.45C58.3624 105.182 58.6272 104.831 58.8059 104.397C58.991 103.963 59.0835 103.504 59.0835 103.018C59.0835 102.546 58.9974 102.096 58.825 101.669C58.64 101.247 58.3719 100.906 58.0209 100.644C57.6699 100.383 57.2455 100.252 56.7477 100.252Z" fill="#F6EBC8"/>
<path d="M49.8837 100.577H47.1841V103.545C47.1841 104.055 47.1299 104.54 47.0214 105C46.9065 105.453 46.7278 105.861 46.4853 106.225C46.2428 106.589 45.9269 106.876 45.5376 107.087C45.1483 107.291 44.692 107.393 44.1687 107.393C44.0474 107.393 43.9293 107.387 43.8145 107.374V105.66C43.891 105.673 43.9708 105.68 44.0538 105.68C44.5197 105.68 44.8483 105.526 45.0398 105.22C45.2313 104.907 45.327 104.387 45.327 103.66L45.3174 98.9785H51.7313V107.077H49.8837V100.577Z" fill="#F6EBC8"/>
<path d="M43.288 106.666C42.3498 107.125 41.4436 107.355 40.5693 107.355C39.8034 107.355 39.1142 107.173 38.5015 106.809C37.8888 106.439 37.4102 105.932 37.0656 105.287C36.7146 104.636 36.5391 103.905 36.5391 103.095C36.5391 102.45 36.6603 101.857 36.9028 101.314C37.1517 100.772 37.4836 100.306 37.8984 99.9167C38.3196 99.521 38.7951 99.2211 39.3248 99.0168C39.8609 98.8062 40.4129 98.7009 40.9809 98.7009C41.8233 98.7009 42.5924 98.9179 43.288 99.3519V101.391C42.6307 100.708 41.8457 100.367 40.933 100.367C40.2246 100.367 39.6184 100.596 39.1142 101.056C38.6164 101.515 38.3675 102.157 38.3675 102.98C38.3675 103.535 38.4664 104.017 38.6643 104.426C38.8621 104.834 39.1493 105.147 39.5258 105.364C39.896 105.574 40.3331 105.68 40.8373 105.68C41.6925 105.68 42.5094 105.322 43.288 104.607V106.666Z" fill="#F6EBC8"/>
<path d="M34.1651 106.091C33.8971 106.481 33.5365 106.784 33.0834 107.001C32.6303 107.211 32.1293 107.317 31.5804 107.317C30.8784 107.317 30.2402 107.128 29.6658 106.752C29.0978 106.375 28.6511 105.858 28.3256 105.201C28.0001 104.537 27.8374 103.797 27.8374 102.98C27.8374 102.182 28.0033 101.458 28.3352 100.807C28.6734 100.156 29.1361 99.6456 29.7233 99.2754C30.3168 98.9053 30.9741 98.7202 31.6953 98.7202C32.8058 98.7202 33.629 99.1319 34.1651 99.9551V98.9595H35.8978V107.077H34.1651V106.091ZM31.9538 100.252C31.456 100.252 31.0252 100.383 30.6614 100.644C30.304 100.906 30.0328 101.254 29.8477 101.688C29.669 102.122 29.5797 102.578 29.5797 103.057C29.5797 103.529 29.669 103.979 29.8477 104.407C30.0328 104.834 30.304 105.182 30.6614 105.45C31.0252 105.712 31.456 105.842 31.9538 105.842C32.4452 105.842 32.8664 105.712 33.2174 105.45C33.5684 105.182 33.8333 104.831 34.012 104.397C34.197 103.963 34.2896 103.504 34.2896 103.018C34.2896 102.546 34.2034 102.096 34.0311 101.669C33.846 101.247 33.578 100.906 33.227 100.644C32.876 100.383 32.4516 100.252 31.9538 100.252Z" fill="#F6EBC8"/>
<path d="M25.4248 103.583H21.7392V107.077H20.0256V98.9883H21.7296V102.042H25.4248V98.9883H27.1288L27.1383 107.077H25.4248V103.583Z" fill="#F6EBC8"/>
<path d="M145.895 61.5383H160.089L160.155 64.851H155.044V80.1198H151.007V64.851H145.83L145.895 61.5383Z" fill="#F6EBC8"/>
<path d="M144.952 75.3592C142.773 79.0156 139.789 80.8437 136.001 80.8437C134.612 80.8437 133.354 80.617 132.228 80.1636C131.087 79.6956 130.107 79.0229 129.288 78.1453C128.484 77.2678 127.862 76.2221 127.424 75.0082C126.999 73.7797 126.787 72.4415 126.787 70.9936C126.787 69.5018 126.999 68.127 127.424 66.8692C127.862 65.5968 128.477 64.5218 129.266 63.6443C130.071 62.7522 131.029 62.0721 132.14 61.6041C133.252 61.1214 134.48 60.8801 135.826 60.8801C137.332 60.8801 138.7 61.1873 139.928 61.8015C141.157 62.4012 142.173 63.2641 142.978 64.3902C143.621 65.2239 144.075 66.1599 144.338 67.1983C144.601 68.2367 144.777 69.6846 144.864 71.542H130.846C130.89 72.6828 131.138 73.6919 131.592 74.5695C132.06 75.447 132.681 76.1197 133.457 76.5877C134.246 77.0558 135.153 77.2898 136.177 77.2898C138.444 77.2898 140.301 75.9515 141.749 73.2751L144.952 75.3592ZM131.197 68.4926H140.652C140.418 67.1617 139.906 66.1453 139.117 65.4432C138.327 64.7412 137.318 64.3902 136.089 64.3902C133.413 64.3902 131.782 65.7577 131.197 68.4926Z" fill="#F6EBC8"/>
<path d="M123.532 80.1199H94.9026V61.5823H98.8295V76.544H107.254V61.5823H111.203L111.181 76.544H119.627V61.5823H123.554L123.532 80.1199Z" fill="#F6EBC8"/>
<path d="M84.153 64.4781C82.4418 64.4781 81.1036 65.1216 80.1383 66.4086C79.1731 67.6811 78.6904 69.1802 78.6904 70.9059C78.6904 72.0028 78.8952 73.0412 79.3047 74.0211C79.7142 75.001 80.3212 75.7908 81.1256 76.3904C81.9299 76.9901 82.8952 77.2899 84.0214 77.2899C85.1914 77.2899 86.1859 76.9828 87.0049 76.3685C87.8386 75.7542 88.4602 74.9498 88.8697 73.9553C89.2792 72.9462 89.4839 71.8858 89.4839 70.7743C89.4839 69.7067 89.2792 68.6902 88.8697 67.7249C88.4748 66.745 87.8752 65.9626 87.0708 65.3776C86.2664 64.7779 85.2938 64.4781 84.153 64.4781ZM74.9829 88.9829V61.4945L78.9537 61.5165V63.798C80.3138 61.9114 82.2298 60.968 84.7015 60.968C86.5296 60.968 88.1018 61.4433 89.4181 62.394C90.749 63.3446 91.7436 64.5805 92.4017 66.1015C93.0745 67.6226 93.4108 69.2387 93.4108 70.9498C93.4108 72.6464 93.0891 74.2332 92.4456 75.7104C91.8021 77.1875 90.8295 78.3795 89.5278 79.2863C88.2408 80.193 86.6905 80.6464 84.877 80.6464C82.4053 80.6464 80.4309 79.7177 78.9537 77.8603V88.9829H74.9829Z" fill="#F6EBC8"/>
<path d="M53.9004 61.5164H58.6171L64.2771 72.2002L69.4106 61.5164H73.864L60.2844 88.9828H55.9626L62.2149 76.4781L53.9004 61.5164Z" fill="#F6EBC8"/>
<path d="M44.0502 64.478C42.3391 64.478 41.0009 65.1215 40.0356 66.4085C39.0703 67.6809 38.5877 69.18 38.5877 70.9058C38.5877 72.0027 38.7924 73.0411 39.2019 74.021C39.6114 75.0009 40.2184 75.7907 41.0228 76.3903C41.8272 76.99 42.7925 77.2898 43.9186 77.2898C45.0886 77.2898 46.0832 76.9826 46.9022 76.3684C47.7358 75.7541 48.3574 74.9497 48.7669 73.9552C49.1764 72.9461 49.3812 71.8857 49.3812 70.7742C49.3812 69.7065 49.1764 68.6901 48.7669 67.7248C48.372 66.7449 47.7724 65.9624 46.968 65.3774C46.1636 64.7778 45.191 64.478 44.0502 64.478ZM38.6316 50.2402H38.8509V63.7979C40.2111 61.9112 42.127 60.9679 44.5987 60.9679C46.4269 60.9679 47.9991 61.4432 49.3154 62.3939C50.6463 63.3445 51.6408 64.5804 52.2989 66.1014C52.9717 67.6224 53.3081 69.2385 53.3081 70.9497C53.3081 72.6462 52.9863 74.2331 52.3428 75.7102C51.6993 77.1874 50.7267 78.3794 49.4251 79.2861C48.138 80.1929 46.5877 80.6463 44.7742 80.6463C42.3025 80.6463 40.3281 79.7176 38.8509 77.8602V88.9827H34.6608V77.8602C33.1836 79.7176 31.2092 80.6463 28.7375 80.6463C26.924 80.6463 25.3664 80.1929 24.0647 79.2861C22.7777 78.3794 21.8124 77.1874 21.1689 75.7102C20.5254 74.2331 20.2036 72.6462 20.2036 70.9497C20.2036 69.2385 20.5327 67.6224 21.1908 66.1014C21.8636 64.5804 22.8581 63.3445 24.1744 62.3939C25.5053 61.4432 27.0848 60.9679 28.913 60.9679C31.3847 60.9679 33.3006 61.9112 34.6608 63.7979V50.2402H34.8801V50.2183H38.6316V50.2402ZM34.8801 71.7833V70.0283C34.7485 68.6681 34.2805 67.4542 33.4761 66.3866C32.5108 65.1142 31.1726 64.478 29.4615 64.478C28.3207 64.478 27.3481 64.7778 26.5437 65.3774C25.7393 65.9624 25.1324 66.7449 24.7228 67.7248C24.328 68.6901 24.1305 69.7065 24.1305 70.7742C24.1305 71.8857 24.3353 72.9461 24.7448 73.9552C25.1543 74.9497 25.7686 75.7541 26.5876 76.3684C27.4212 76.9826 28.4231 77.2898 29.5931 77.2898C30.7192 77.2898 31.6845 76.99 32.4889 76.3903C33.2933 75.7907 33.9003 75.0009 34.3098 74.021C34.6169 73.3044 34.807 72.5585 34.8801 71.7833Z" fill="#F6EBC8"/>
</svg>
