<svg width="253" height="151" viewBox="0 0 253 151" fill="none" xmlns="http://www.w3.org/2000/svg">
<path d="M194.674 76.4756C190.584 76.4756 186.84 75.5743 183.443 73.7717C180.115 71.9692 177.203 69.4386 174.707 66.1802C172.281 62.8524 170.374 58.9353 168.988 54.4289C167.67 49.8531 167.012 44.8614 167.012 39.4537C167.012 33.6994 167.67 28.4304 168.988 23.6467C170.305 18.863 172.142 14.7379 174.499 11.2714C176.926 7.80495 179.768 5.13577 183.027 3.26388C186.355 1.32266 189.994 0.352051 193.946 0.352051C197.967 0.352051 201.676 1.25333 205.073 3.05589C208.471 4.85845 211.382 7.42363 213.809 10.7514C216.305 14.0099 218.211 17.927 219.529 22.5027C220.915 27.0091 221.609 31.9662 221.609 37.3739C221.609 43.1282 220.95 48.3972 219.633 53.1809C218.315 57.9647 216.443 62.0897 214.017 65.5562C211.66 69.0227 208.817 71.7265 205.489 73.6677C202.231 75.5396 198.626 76.4756 194.674 76.4756ZM186.667 39.3498C186.667 45.4507 186.805 50.5811 187.083 54.7408C187.36 58.9006 187.81 62.2631 188.434 64.8283C189.058 67.3934 189.856 69.2307 190.826 70.3399C191.866 71.4492 193.149 72.0038 194.674 72.0038C196.061 72.0038 197.205 71.4145 198.106 70.2359C199.076 69.0573 199.839 67.1161 200.394 64.4123C200.948 61.7084 201.33 58.1726 201.538 53.8049C201.815 49.3678 201.954 43.9255 201.954 37.4779C201.954 31.3769 201.815 26.2465 201.538 22.0868C201.26 17.8577 200.81 14.4952 200.186 11.9994C199.562 9.43418 198.73 7.59696 197.69 6.48769C196.719 5.37842 195.471 4.82379 193.946 4.82379C192.56 4.82379 191.416 5.41308 190.514 6.59168C189.613 7.77028 188.85 9.7115 188.226 12.4153C187.672 15.1192 187.256 18.6896 186.979 23.1267C186.771 27.4945 186.667 32.9021 186.667 39.3498Z" fill="#FF9EA7" fill-opacity="0.75"/>
<path d="M138.674 76.4756C134.515 76.4756 130.667 76.0596 127.131 75.2276C123.595 74.465 120.51 73.2864 117.876 71.6919C117.39 71.4145 117.148 70.9986 117.148 70.4439V50.1651C117.148 49.1252 117.425 48.5359 117.98 48.3972C118.534 48.1892 119.089 48.5359 119.644 49.4372C122.07 53.5276 124.185 56.9941 125.987 59.8365C127.859 62.679 129.523 65.0016 130.979 66.8041C132.435 68.6067 133.717 69.924 134.827 70.7559C136.005 71.5879 137.115 72.0038 138.154 72.0038C139.402 72.0038 140.477 71.6225 141.378 70.8599C142.349 70.0973 143.146 69.0573 143.77 67.7401C144.394 66.4228 144.845 64.8629 145.122 63.0604C145.399 61.2578 145.538 59.3166 145.538 57.2367C145.538 51.7597 144.29 47.3573 141.794 44.0295C139.368 40.7017 135.867 38.4485 131.291 37.2699C130.667 37.2005 130.355 36.8192 130.355 36.1259V35.71C130.355 35.1553 130.667 34.8087 131.291 34.67C133.371 34.3234 135.243 33.5954 136.907 32.4862C138.64 31.3769 140.096 29.9903 141.274 28.3264C142.522 26.6625 143.493 24.7906 144.186 22.7107C144.879 20.5615 145.226 18.343 145.226 16.0551C145.226 12.9353 144.567 10.3008 143.25 8.15159C142.002 5.93305 140.477 4.82379 138.674 4.82379C137.634 4.82379 136.56 5.13577 135.451 5.75973C134.411 6.38369 133.197 7.42363 131.811 8.87955C130.494 10.2661 129.003 12.1034 127.339 14.3912C125.745 16.6098 123.907 19.3483 121.827 22.6067C121.273 23.508 120.51 23.82 119.54 23.5427C118.638 23.2654 118.188 22.5374 118.188 21.3588V4.82379C118.188 4.26915 118.43 3.85317 118.916 3.57586C121.134 2.60525 124.15 1.84263 127.963 1.288C131.776 0.664033 135.659 0.352051 139.61 0.352051C142.938 0.352051 146.058 0.802691 148.97 1.70397C151.951 2.53592 154.516 3.74918 156.665 5.34375C158.815 6.869 160.513 8.67156 161.761 10.7514C163.009 12.8313 163.633 15.0499 163.633 17.407C163.633 20.8042 161.934 23.924 158.537 26.7665C155.209 29.609 150.287 32.0355 143.77 34.0461C150.495 35.0167 155.66 37.2352 159.265 40.7017C162.94 44.1681 164.777 48.6052 164.777 54.0129C164.777 57.1327 164.084 60.0792 162.697 62.8524C161.38 65.5562 159.543 67.9481 157.185 70.0279C154.897 72.0385 152.159 73.6331 148.97 74.8117C145.781 75.9209 142.349 76.4756 138.674 76.4756Z" fill="#FF9EA7" fill-opacity="0.75"/>
<path d="M101.622 48.1894C99.0565 48.1894 96.8379 47.2881 94.966 45.4855C93.1635 43.6136 92.2622 41.3951 92.2622 38.8299C92.2622 36.2647 93.1635 34.0809 94.966 32.2783C96.8379 30.4757 99.0565 29.5745 101.622 29.5745C104.187 29.5745 106.371 30.4757 108.173 32.2783C109.976 34.0809 110.877 36.2647 110.877 38.8299C110.877 41.3951 109.976 43.6136 108.173 45.4855C106.371 47.2881 104.187 48.1894 101.622 48.1894ZM92.2622 67.1163C92.2622 64.5511 93.1635 62.3672 94.966 60.5646C96.8379 58.7621 99.0565 57.8608 101.622 57.8608C104.187 57.8608 106.371 58.7621 108.173 60.5646C109.976 62.3672 110.877 64.5511 110.877 67.1163C110.877 69.6814 109.976 71.9 108.173 73.7719C106.371 75.5744 104.187 76.4757 101.622 76.4757C99.0565 76.4757 96.8379 75.5744 94.966 73.7719C93.1635 71.9 92.2622 69.6814 92.2622 67.1163Z" fill="#FF9EA7" fill-opacity="0.75"/>
<path d="M60.9243 76.4756C56.8339 76.4756 53.0901 75.5743 49.693 73.7717C46.3652 71.9692 43.4534 69.4386 40.9575 66.1802C38.531 62.8524 36.6244 58.9353 35.2378 54.4289C33.9206 49.8531 33.262 44.8614 33.262 39.4537C33.262 33.6994 33.9206 28.4304 35.2378 23.6467C36.5551 18.863 38.3923 14.7379 40.7495 11.2714C43.176 7.80495 46.0185 5.13577 49.277 3.26388C52.6048 1.32266 56.2446 0.352051 60.1964 0.352051C63.1082 0.352051 66.332 0.733361 69.8678 1.49598C73.4036 2.25861 76.7314 3.29855 79.8512 4.6158C80.3365 4.89312 80.5792 5.30909 80.5792 5.86372V20.3189C80.5792 21.4975 80.0939 22.2254 79.1233 22.5027C78.222 22.7801 77.494 22.4681 76.9394 21.5668C75.2062 18.5856 73.6463 16.0205 72.2597 13.8713C70.9424 11.722 69.6945 9.98881 68.5159 8.67156C67.4066 7.3543 66.3667 6.38369 65.3961 5.75973C64.4255 5.13577 63.4895 4.82379 62.5882 4.82379C59.6764 4.82379 57.4232 6.97299 55.8286 11.2714C54.3034 15.5005 53.3674 22.2254 53.0208 31.4462C54.6154 29.8516 56.4873 28.7077 58.6365 28.0144C60.7857 27.3211 63.3509 26.9745 66.332 26.9745C69.1052 26.9745 71.6704 27.5291 74.0276 28.6384C76.4541 29.7477 78.534 31.3076 80.2672 33.3181C82.0698 35.2593 83.4563 37.5472 84.427 40.1817C85.4669 42.8162 85.9869 45.6587 85.9869 48.7092C85.9869 52.5916 85.3282 56.2314 84.011 59.6286C82.763 63.0257 80.9952 65.9722 78.7073 68.468C76.4888 70.9639 73.8542 72.9398 70.8038 74.3957C67.7533 75.7823 64.4601 76.4756 60.9243 76.4756ZM53.2288 53.0769C53.5754 59.8019 54.3034 64.6549 55.4127 67.6361C56.5219 70.5479 58.1165 72.0038 60.1964 72.0038C62.2069 72.0038 63.7322 70.1319 64.7721 66.3882C65.812 62.6444 66.332 56.7861 66.332 48.8132C66.332 47.5653 66.1934 46.04 65.916 44.2375C65.7081 42.4349 65.3267 40.7017 64.7721 39.0378C64.2175 37.3739 63.4549 35.9873 62.4842 34.878C61.583 33.6994 60.4737 33.1101 59.1564 33.1101C57.7699 33.1101 56.6606 33.7341 55.8286 34.982C55.066 36.1606 54.4767 37.7205 54.0607 39.6617C53.6448 41.603 53.3674 43.7522 53.2288 46.1094C53.1595 48.4665 53.1595 50.7891 53.2288 53.0769Z" fill="#FF9EA7" fill-opacity="0.75"/>
<path d="M6.9117 74.6038C8.15963 72.2466 9.06091 69.3347 9.61554 65.8683C10.2395 62.3325 10.5515 57.8607 10.5515 52.4531V25.2067C10.5515 22.5722 9.78887 20.6656 8.26362 19.487C6.80771 18.3084 4.51984 17.7191 1.40003 17.7191C0.637404 17.7191 0.221429 17.4418 0.1521 16.8872C0.1521 16.2632 0.464081 15.8472 1.08804 15.6392C4.27719 14.5993 7.15435 13.4207 9.71954 12.1034C12.2847 10.7862 14.5726 9.46892 16.5831 8.15167C18.663 6.83441 20.5002 5.58648 22.0948 4.40789C23.6894 3.15996 25.1453 2.12002 26.4626 1.28807C26.8092 1.08008 27.0519 1.08008 27.1905 1.28807C27.3985 1.49606 27.5025 1.77337 27.5025 2.12002V52.4531C27.5025 57.8607 27.7798 62.3325 28.3344 65.8683C28.9584 69.3347 29.8943 72.2466 31.1423 74.6038V74.8117H6.9117V74.6038Z" fill="#FF9EA7" fill-opacity="0.75"/>
<path d="M207.756 146.355V141.271L201.653 146.641V138.253H203.472V143.308L209.574 137.853V146.355H207.756Z" fill="#F6EBC8"/>
<path d="M189.257 146.355L192.094 137.596L195.15 143.423L198.673 137.596L201.396 146.355H199.53L197.949 141.004L195.074 146.641L192.665 140.985L191.142 146.355H189.257Z" fill="#F6EBC8"/>
<path d="M182.373 138.243V141.614H183.363C184.049 141.614 184.623 141.737 185.087 141.985C185.55 142.188 185.905 142.47 186.153 142.832C186.407 143.188 186.534 143.591 186.534 144.041C186.534 144.498 186.404 144.898 186.143 145.241C185.89 145.577 185.525 145.841 185.049 146.031C184.579 146.215 184.033 146.307 183.411 146.307H180.574V138.243H182.373ZM182.373 145.193H183.192C183.465 145.193 183.785 145.092 184.154 144.889C184.509 144.686 184.687 144.397 184.687 144.022C184.687 143.21 184.189 142.804 183.192 142.804H182.373V145.193ZM186.943 146.307H188.647L188.638 138.234H186.943V146.307Z" fill="#F6EBC8"/>
<path d="M168.12 146.355L170.958 137.596L174.014 143.423L177.537 137.596L180.26 146.355H178.393L176.813 141.004L173.938 146.641L171.529 140.985L170.006 146.355H168.12Z" fill="#F6EBC8"/>
<path d="M165.693 146.355V141.271L159.59 146.641V138.253H161.408V143.308L167.511 137.853V146.355H165.693Z" fill="#F6EBC8"/>
<path d="M154.925 139.519C154.391 139.519 153.934 139.652 153.554 139.919C153.173 140.179 152.887 140.519 152.697 140.938C152.506 141.356 152.411 141.807 152.411 142.29C152.411 142.766 152.506 143.213 152.697 143.632C152.887 144.045 153.173 144.384 153.554 144.651C153.934 144.911 154.391 145.041 154.925 145.041C155.451 145.041 155.899 144.911 156.267 144.651C156.642 144.39 156.921 144.048 157.105 143.622C157.295 143.197 157.391 142.753 157.391 142.29C157.391 141.813 157.295 141.363 157.105 140.938C156.921 140.512 156.642 140.17 156.267 139.909C155.893 139.649 155.445 139.519 154.925 139.519ZM153.582 136.482C152.986 136.679 152.659 137.367 152.601 138.548C152.627 138.535 152.652 138.519 152.678 138.5C153.331 138.138 154.074 137.957 154.906 137.957C155.737 137.957 156.483 138.142 157.143 138.51C157.803 138.878 158.317 139.395 158.685 140.062C159.054 140.722 159.238 141.471 159.238 142.309C159.238 143.134 159.054 143.873 158.685 144.527C158.317 145.181 157.8 145.688 157.133 146.05C156.467 146.406 155.712 146.583 154.867 146.583C154.042 146.583 153.306 146.396 152.659 146.022C152.011 145.66 151.507 145.149 151.145 144.489C150.789 143.822 150.612 143.07 150.612 142.232C150.389 139.573 150.574 137.71 151.164 136.644C151.754 135.571 152.417 134.981 153.154 134.873C153.909 134.765 154.766 134.711 155.724 134.711C156.689 134.705 157.397 134.279 157.848 133.435L159.523 133.235C158.895 134.974 157.876 135.866 156.467 135.91C155.058 135.955 154.096 136.145 153.582 136.482Z" fill="#F6EBC8"/>
<path d="M146.222 139.519C145.689 139.519 145.232 139.652 144.851 139.919C144.47 140.179 144.185 140.519 143.994 140.938C143.804 141.356 143.709 141.807 143.709 142.29C143.709 142.766 143.804 143.213 143.994 143.632C144.185 144.045 144.47 144.384 144.851 144.651C145.232 144.911 145.689 145.041 146.222 145.041C146.749 145.041 147.197 144.911 147.565 144.651C147.939 144.39 148.218 144.048 148.402 143.622C148.593 143.197 148.688 142.753 148.688 142.29C148.688 141.813 148.593 141.363 148.402 140.938C148.218 140.512 147.939 140.17 147.565 139.909C147.19 139.649 146.743 139.519 146.222 139.519ZM138.406 138.281L140.1 138.253V141.299H141.995C142.084 140.842 142.236 140.417 142.452 140.024C142.814 139.376 143.321 138.872 143.975 138.51C144.629 138.142 145.372 137.958 146.203 137.958C147.035 137.958 147.78 138.142 148.441 138.51C149.101 138.878 149.615 139.395 149.983 140.062C150.351 140.722 150.535 141.471 150.535 142.309C150.535 143.134 150.351 143.873 149.983 144.527C149.615 145.181 149.098 145.689 148.431 146.05C147.765 146.406 147.009 146.583 146.165 146.583C145.34 146.583 144.604 146.396 143.956 146.022C143.309 145.66 142.807 145.146 142.452 144.479C142.179 143.984 142.008 143.435 141.938 142.832H140.11V146.307H138.406V138.281Z" fill="#F6EBC8"/>
<path d="M135.454 139.843H132.769V142.794C132.769 143.302 132.715 143.784 132.607 144.241C132.493 144.692 132.316 145.098 132.074 145.46C131.833 145.822 131.519 146.107 131.132 146.317C130.745 146.52 130.291 146.622 129.77 146.622C129.65 146.622 129.532 146.615 129.418 146.603V144.898C129.494 144.911 129.573 144.917 129.656 144.917C130.119 144.917 130.446 144.765 130.637 144.46C130.827 144.149 130.922 143.632 130.922 142.908L130.913 138.253H137.292V146.307H135.454V139.843Z" fill="#F6EBC8"/>
<path d="M122.468 146.355V141.271L116.365 146.641V138.253H118.183V143.308L124.286 137.853V146.355H122.468Z" fill="#F6EBC8"/>
<path d="M103.969 146.355L106.806 137.596L109.862 143.423L113.385 137.596L116.108 146.355H114.242L112.661 141.004L109.786 146.641L107.377 140.985L105.854 146.355H103.969Z" fill="#F6EBC8"/>
<path d="M97.0849 138.243V141.614H98.075C98.7605 141.614 99.335 141.737 99.7983 141.985C100.262 142.188 100.617 142.47 100.865 142.832C101.119 143.188 101.245 143.591 101.245 144.041C101.245 144.498 101.115 144.898 100.855 145.241C100.601 145.577 100.236 145.841 99.7602 146.031C99.2905 146.215 98.7447 146.307 98.1226 146.307H95.2854V138.243H97.0849ZM97.0849 145.193H97.9037C98.1766 145.193 98.4971 145.092 98.8653 144.889C99.2207 144.686 99.3984 144.397 99.3984 144.022C99.3984 143.21 98.9002 142.804 97.9037 142.804H97.0849V145.193ZM101.655 146.307H103.359L103.35 138.234H101.655V146.307Z" fill="#F6EBC8"/>
<path d="M82.832 146.355L85.6693 137.596L88.7255 143.423L92.2482 137.596L94.9712 146.355H93.1051L91.5246 141.004L88.6493 146.641L86.2405 140.985L84.7172 146.355H82.832Z" fill="#F6EBC8"/>
<path d="M80.6327 145.327C80.3661 145.714 80.0075 146.015 79.5568 146.231C79.1062 146.441 78.6079 146.545 78.062 146.545C77.3638 146.545 76.7291 146.358 76.1579 145.984C75.5929 145.609 75.1486 145.095 74.8249 144.441C74.5012 143.781 74.3394 143.045 74.3394 142.232C74.3394 141.439 74.5044 140.719 74.8344 140.071C75.1708 139.424 75.631 138.916 76.215 138.548C76.8053 138.18 77.459 137.996 78.1763 137.996C79.2807 137.996 80.0995 138.405 80.6327 139.224V138.234H82.356V146.307H80.6327V145.327ZM78.4334 139.519C77.9383 139.519 77.5098 139.649 77.148 139.909C76.7926 140.17 76.5228 140.515 76.3387 140.947C76.161 141.379 76.0722 141.833 76.0722 142.309C76.0722 142.778 76.161 143.226 76.3387 143.651C76.5228 144.076 76.7926 144.422 77.148 144.689C77.5098 144.949 77.9383 145.079 78.4334 145.079C78.9221 145.079 79.341 144.949 79.6901 144.689C80.0392 144.422 80.3026 144.073 80.4804 143.642C80.6644 143.21 80.7565 142.753 80.7565 142.271C80.7565 141.801 80.6708 141.353 80.4994 140.928C80.3153 140.509 80.0487 140.17 79.6996 139.909C79.3505 139.649 78.9284 139.519 78.4334 139.519Z" fill="#F6EBC8"/>
<path d="M73.9776 145.898C73.0446 146.355 72.1433 146.583 71.2737 146.583C70.512 146.583 69.8265 146.403 69.2172 146.041C68.6078 145.673 68.1318 145.168 67.789 144.527C67.4399 143.88 67.2654 143.153 67.2654 142.347C67.2654 141.706 67.386 141.115 67.6272 140.576C67.8747 140.036 68.2048 139.573 68.6174 139.186C69.0363 138.792 69.5091 138.494 70.036 138.291C70.5691 138.081 71.1182 137.977 71.6831 137.977C72.5209 137.977 73.2858 138.192 73.9776 138.624V140.652C73.3239 139.973 72.5431 139.633 71.6355 139.633C70.9309 139.633 70.3279 139.862 69.8265 140.319C69.3314 140.776 69.0839 141.414 69.0839 142.232C69.0839 142.785 69.1823 143.264 69.379 143.67C69.5758 144.076 69.8614 144.387 70.2359 144.603C70.6041 144.813 71.0388 144.917 71.5403 144.917C72.3908 144.917 73.2033 144.562 73.9776 143.851V145.898Z" fill="#F6EBC8"/>
<path d="M55.1261 144.755H59.7627V139.605H57.0683C56.935 142.531 56.2876 144.248 55.1261 144.755ZM53.2885 144.794C54.4501 144.286 55.088 142.102 55.2022 138.243H61.6003V144.794H62.5333V147.983H60.6958V146.403H54.174V147.983H52.3364V144.794H53.2885Z" fill="#F6EBC8"/>
<path d="M51.9556 144.241C51.0098 145.828 49.715 146.622 48.0711 146.622C47.4681 146.622 46.9222 146.523 46.4335 146.326C45.9384 146.123 45.5131 145.831 45.1577 145.45C44.8086 145.07 44.5388 144.616 44.3484 144.089C44.1643 143.556 44.0723 142.975 44.0723 142.347C44.0723 141.699 44.1643 141.103 44.3484 140.557C44.5388 140.005 44.8054 139.538 45.1481 139.157C45.4972 138.77 45.913 138.475 46.3954 138.272C46.8778 138.062 47.4109 137.958 47.9949 137.958C48.6487 137.958 49.2421 138.091 49.7753 138.357C50.3085 138.618 50.7496 138.992 51.0987 139.481C51.378 139.843 51.5748 140.249 51.689 140.7C51.8033 141.15 51.8794 141.779 51.9175 142.585H45.8336C45.8527 143.08 45.9606 143.518 46.1573 143.899C46.3605 144.279 46.6302 144.571 46.9666 144.775C47.3094 144.978 47.7029 145.079 48.1472 145.079C49.131 145.079 49.9372 144.498 50.5655 143.337L51.9556 144.241ZM45.986 141.261H50.0895C49.9879 140.684 49.7658 140.243 49.423 139.938C49.0803 139.633 48.6423 139.481 48.1091 139.481C46.9476 139.481 46.2399 140.074 45.986 141.261Z" fill="#F6EBC8"/>
<path d="M39.7593 139.519C39.0167 139.519 38.4359 139.798 38.017 140.357C37.598 140.909 37.3886 141.56 37.3886 142.309C37.3886 142.785 37.4774 143.235 37.6552 143.661C37.8329 144.086 38.0963 144.429 38.4454 144.689C38.7945 144.949 39.2134 145.079 39.7022 145.079C40.2099 145.079 40.6416 144.946 40.997 144.679C41.3588 144.413 41.6286 144.064 41.8063 143.632C41.984 143.194 42.0729 142.734 42.0729 142.251C42.0729 141.788 41.984 141.347 41.8063 140.928C41.6349 140.503 41.3747 140.163 41.0256 139.909C40.6765 139.649 40.2544 139.519 39.7593 139.519ZM35.7795 150.154V138.224L37.5028 138.234V139.224C38.0931 138.405 38.9246 137.996 39.9973 137.996C40.7907 137.996 41.4731 138.202 42.0443 138.614C42.6219 139.027 43.0535 139.563 43.3392 140.224C43.6311 140.884 43.7771 141.585 43.7771 142.328C43.7771 143.064 43.6375 143.753 43.3582 144.394C43.0789 145.035 42.6568 145.552 42.0919 145.946C41.5334 146.339 40.8605 146.536 40.0735 146.536C39.0008 146.536 38.1439 146.133 37.5028 145.327V150.154H35.7795Z" fill="#F6EBC8"/>
<path d="M35.3701 144.241C34.4244 145.828 33.1296 146.622 31.4856 146.622C30.8826 146.622 30.3367 146.523 29.848 146.326C29.3529 146.123 28.9276 145.831 28.5722 145.45C28.2231 145.07 27.9533 144.616 27.7629 144.089C27.5789 143.556 27.4868 142.975 27.4868 142.347C27.4868 141.699 27.5789 141.103 27.7629 140.557C27.9533 140.005 28.2199 139.538 28.5627 139.157C28.9118 138.77 29.3275 138.475 29.8099 138.272C30.2923 138.062 30.8255 137.958 31.4094 137.958C32.0632 137.958 32.6567 138.091 33.1898 138.357C33.723 138.618 34.1642 138.992 34.5133 139.481C34.7925 139.843 34.9893 140.249 35.1036 140.7C35.2178 141.15 35.294 141.779 35.3321 142.585H29.2482C29.2672 143.08 29.3751 143.518 29.5719 143.899C29.775 144.279 30.0448 144.571 30.3812 144.775C30.7239 144.978 31.1175 145.079 31.5618 145.079C32.5456 145.079 33.3517 144.498 33.9801 143.337L35.3701 144.241ZM29.4005 141.261H33.504C33.4025 140.684 33.1803 140.243 32.8376 139.938C32.4948 139.633 32.0569 139.481 31.5237 139.481C30.3621 139.481 29.6544 140.074 29.4005 141.261Z" fill="#F6EBC8"/>
<path d="M25.2875 139.814H21.622V146.307H19.9177V138.262H26.9822L26.9918 146.307H25.2875V139.814Z" fill="#F6EBC8"/>
<path d="M250.334 128.481V123.397L244.231 128.767V120.379H246.049V125.434L252.152 119.979V128.481H250.334Z" fill="#F6EBC8"/>
<path d="M237.223 128.433V120.369H240.061C240.905 120.369 241.565 120.55 242.041 120.912C242.517 121.274 242.755 121.769 242.755 122.397C242.755 122.835 242.615 123.21 242.336 123.521C242.063 123.825 241.692 124.016 241.222 124.092C241.946 124.136 242.514 124.362 242.926 124.768C243.339 125.174 243.545 125.647 243.545 126.186C243.545 126.434 243.498 126.675 243.402 126.91C243.314 127.145 243.171 127.367 242.974 127.576C242.777 127.78 242.546 127.945 242.279 128.072C241.803 128.313 241.121 128.433 240.232 128.433H237.223ZM238.851 127.405H240.099C241.222 127.469 241.784 127.04 241.784 126.12C241.784 125.193 241.2 124.73 240.032 124.73H238.851V127.405ZM238.851 123.53H239.613C240.083 123.53 240.454 123.432 240.727 123.235C240.987 123.045 241.117 122.778 241.117 122.435C241.117 122.143 240.981 121.902 240.708 121.712C240.435 121.521 240.111 121.426 239.737 121.426H238.851V123.53Z" fill="#F6EBC8"/>
<path d="M232.596 121.645C232.063 121.645 231.606 121.778 231.225 122.045C230.844 122.305 230.559 122.645 230.368 123.064C230.178 123.483 230.083 123.933 230.083 124.416C230.083 124.892 230.178 125.339 230.368 125.758C230.559 126.171 230.844 126.51 231.225 126.777C231.606 127.037 232.063 127.167 232.596 127.167C233.123 127.167 233.571 127.037 233.939 126.777C234.313 126.517 234.592 126.174 234.777 125.749C234.967 125.323 235.062 124.879 235.062 124.416C235.062 123.94 234.967 123.489 234.777 123.064C234.592 122.638 234.313 122.296 233.939 122.035C233.564 121.775 233.117 121.645 232.596 121.645ZM231.254 118.608C230.657 118.805 230.33 119.493 230.273 120.674C230.299 120.661 230.324 120.645 230.349 120.626C231.003 120.265 231.746 120.084 232.577 120.084C233.409 120.084 234.154 120.268 234.815 120.636C235.475 121.004 235.989 121.521 236.357 122.188C236.725 122.848 236.909 123.597 236.909 124.435C236.909 125.26 236.725 125.999 236.357 126.653C235.989 127.307 235.472 127.815 234.805 128.176C234.139 128.532 233.383 128.71 232.539 128.71C231.714 128.71 230.978 128.522 230.33 128.148C229.683 127.786 229.178 127.275 228.816 126.615C228.461 125.949 228.283 125.196 228.283 124.359C228.061 121.699 228.245 119.836 228.835 118.77C229.426 117.697 230.089 117.107 230.825 116.999C231.581 116.891 232.438 116.837 233.396 116.837C234.361 116.831 235.069 116.405 235.519 115.561L237.195 115.361C236.566 117.1 235.548 117.992 234.139 118.037C232.73 118.081 231.768 118.272 231.254 118.608Z" fill="#F6EBC8"/>
<path d="M223.894 121.645C223.361 121.645 222.904 121.778 222.523 122.045C222.142 122.305 221.857 122.645 221.666 123.064C221.476 123.482 221.381 123.933 221.381 124.416C221.381 124.892 221.476 125.339 221.666 125.758C221.857 126.171 222.142 126.51 222.523 126.777C222.904 127.037 223.361 127.167 223.894 127.167C224.421 127.167 224.868 127.037 225.237 126.777C225.611 126.516 225.89 126.174 226.074 125.748C226.265 125.323 226.36 124.879 226.36 124.416C226.36 123.939 226.265 123.489 226.074 123.064C225.89 122.638 225.611 122.296 225.237 122.035C224.862 121.775 224.415 121.645 223.894 121.645ZM216.077 120.407L217.772 120.379V123.425H219.667C219.756 122.968 219.908 122.543 220.124 122.15C220.486 121.502 220.993 120.998 221.647 120.636C222.301 120.268 223.044 120.083 223.875 120.083C224.707 120.083 225.452 120.268 226.112 120.636C226.773 121.004 227.287 121.521 227.655 122.188C228.023 122.848 228.207 123.597 228.207 124.435C228.207 125.26 228.023 125.999 227.655 126.653C227.287 127.307 226.769 127.814 226.103 128.176C225.436 128.532 224.681 128.709 223.837 128.709C223.012 128.709 222.276 128.522 221.628 128.148C220.981 127.786 220.479 127.272 220.124 126.605C219.851 126.11 219.679 125.561 219.61 124.958H217.782V128.433H216.077V120.407Z" fill="#F6EBC8"/>
<path d="M213.126 121.969H210.441V124.92C210.441 125.428 210.387 125.91 210.279 126.367C210.165 126.818 209.987 127.224 209.746 127.586C209.505 127.948 209.191 128.233 208.803 128.443C208.416 128.646 207.962 128.748 207.442 128.748C207.321 128.748 207.204 128.741 207.09 128.729V127.024C207.166 127.037 207.245 127.043 207.328 127.043C207.791 127.043 208.118 126.891 208.308 126.586C208.499 126.275 208.594 125.758 208.594 125.034L208.584 120.379H214.963V128.433H213.126V121.969Z" fill="#F6EBC8"/>
<path d="M200.368 127.453C200.101 127.84 199.743 128.141 199.292 128.357C198.841 128.567 198.343 128.671 197.797 128.671C197.099 128.671 196.464 128.484 195.893 128.11C195.328 127.735 194.884 127.221 194.56 126.567C194.236 125.907 194.074 125.171 194.074 124.358C194.074 123.565 194.239 122.845 194.57 122.197C194.906 121.55 195.366 121.042 195.95 120.674C196.54 120.306 197.194 120.122 197.911 120.122C199.016 120.122 199.835 120.531 200.368 121.35V120.36H202.091V128.433H200.368V127.453ZM198.168 121.645C197.673 121.645 197.245 121.775 196.883 122.035C196.528 122.296 196.258 122.641 196.074 123.073C195.896 123.505 195.807 123.959 195.807 124.435C195.807 124.904 195.896 125.352 196.074 125.777C196.258 126.202 196.528 126.548 196.883 126.815C197.245 127.075 197.673 127.205 198.168 127.205C198.657 127.205 199.076 127.075 199.425 126.815C199.774 126.548 200.038 126.199 200.215 125.767C200.4 125.336 200.492 124.879 200.492 124.396C200.492 123.927 200.406 123.479 200.235 123.054C200.05 122.635 199.784 122.296 199.435 122.035C199.086 121.775 198.664 121.645 198.168 121.645Z" fill="#F6EBC8"/>
<path d="M187.181 128.433V120.369H190.019C190.863 120.369 191.523 120.55 191.999 120.912C192.475 121.274 192.713 121.769 192.713 122.397C192.713 122.835 192.573 123.21 192.294 123.521C192.021 123.825 191.65 124.016 191.18 124.092C191.904 124.136 192.472 124.362 192.884 124.768C193.297 125.174 193.503 125.647 193.503 126.186C193.503 126.434 193.456 126.675 193.36 126.91C193.272 127.145 193.129 127.367 192.932 127.576C192.735 127.78 192.504 127.945 192.237 128.072C191.761 128.313 191.079 128.433 190.19 128.433H187.181ZM188.809 127.405H190.057C191.18 127.469 191.742 127.04 191.742 126.12C191.742 125.193 191.158 124.73 189.99 124.73H188.809V127.405ZM188.809 123.53H189.571C190.041 123.53 190.412 123.432 190.685 123.235C190.945 123.045 191.075 122.778 191.075 122.435C191.075 122.143 190.939 121.902 190.666 121.712C190.393 121.521 190.069 121.426 189.695 121.426H188.809V123.53Z" fill="#F6EBC8"/>
<path d="M182.535 120.083C183.367 120.083 184.112 120.268 184.773 120.636C185.433 121.004 185.947 121.521 186.315 122.188C186.683 122.848 186.867 123.597 186.867 124.435C186.867 125.26 186.683 125.999 186.315 126.653C185.947 127.307 185.43 127.814 184.763 128.176C184.097 128.532 183.341 128.709 182.497 128.709C181.672 128.709 180.936 128.522 180.288 128.148C179.641 127.786 179.136 127.275 178.774 126.615C178.419 125.948 178.241 125.196 178.241 124.358C178.241 123.54 178.422 122.806 178.784 122.159C179.146 121.505 179.653 120.998 180.307 120.636C180.961 120.268 181.704 120.083 182.535 120.083ZM182.554 121.645C182.021 121.645 181.564 121.778 181.183 122.045C180.802 122.305 180.517 122.645 180.326 123.064C180.136 123.482 180.041 123.933 180.041 124.416C180.041 124.892 180.136 125.339 180.326 125.758C180.517 126.171 180.802 126.51 181.183 126.777C181.564 127.037 182.021 127.167 182.554 127.167C183.081 127.167 183.528 127.037 183.897 126.777C184.271 126.516 184.55 126.174 184.734 125.748C184.925 125.323 185.02 124.879 185.02 124.416C185.02 123.939 184.925 123.489 184.734 123.064C184.55 122.638 184.271 122.296 183.897 122.035C183.522 121.775 183.075 121.645 182.554 121.645Z" fill="#F6EBC8"/>
<path d="M175.671 121.969H172.986V124.92C172.986 125.428 172.932 125.91 172.824 126.367C172.71 126.818 172.532 127.224 172.291 127.586C172.049 127.948 171.735 128.233 171.348 128.443C170.961 128.646 170.507 128.748 169.987 128.748C169.866 128.748 169.749 128.741 169.634 128.729V127.024C169.71 127.037 169.79 127.043 169.872 127.043C170.336 127.043 170.663 126.891 170.853 126.586C171.043 126.275 171.139 125.758 171.139 125.034L171.129 120.379H177.508V128.433H175.671V121.969Z" fill="#F6EBC8"/>
<path d="M169.111 128.024C168.178 128.481 167.276 128.709 166.407 128.709C165.645 128.709 164.96 128.529 164.35 128.167C163.741 127.799 163.265 127.294 162.922 126.653C162.573 126.006 162.398 125.279 162.398 124.473C162.398 123.832 162.519 123.241 162.76 122.702C163.008 122.162 163.338 121.699 163.75 121.312C164.169 120.918 164.642 120.62 165.169 120.417C165.702 120.207 166.251 120.103 166.816 120.103C167.654 120.103 168.419 120.318 169.111 120.75V122.778C168.457 122.099 167.676 121.759 166.769 121.759C166.064 121.759 165.461 121.988 164.96 122.445C164.464 122.902 164.217 123.54 164.217 124.358C164.217 124.911 164.315 125.39 164.512 125.796C164.709 126.202 164.994 126.513 165.369 126.729C165.737 126.939 166.172 127.043 166.673 127.043C167.524 127.043 168.336 126.688 169.111 125.977V128.024Z" fill="#F6EBC8"/>
<path d="M146.013 128.481L148.85 119.722L151.906 125.549L155.429 119.722L158.152 128.481H156.286L154.706 123.13L151.83 128.767L149.421 123.111L147.898 128.481H146.013Z" fill="#F6EBC8"/>
<path d="M146.022 126.367C145.077 127.954 143.782 128.748 142.138 128.748C141.535 128.748 140.989 128.649 140.5 128.452C140.005 128.249 139.58 127.957 139.225 127.576C138.875 127.196 138.606 126.742 138.415 126.215C138.231 125.682 138.139 125.101 138.139 124.473C138.139 123.825 138.231 123.229 138.415 122.683C138.606 122.13 138.872 121.664 139.215 121.283C139.564 120.896 139.98 120.601 140.462 120.398C140.945 120.188 141.478 120.083 142.062 120.083C142.716 120.083 143.309 120.217 143.842 120.483C144.375 120.744 144.817 121.118 145.166 121.607C145.445 121.969 145.642 122.375 145.756 122.826C145.87 123.276 145.946 123.905 145.984 124.711H139.901C139.92 125.206 140.027 125.644 140.224 126.025C140.427 126.405 140.697 126.697 141.034 126.9C141.376 127.104 141.77 127.205 142.214 127.205C143.198 127.205 144.004 126.624 144.632 125.463L146.022 126.367ZM140.053 123.387H144.156C144.055 122.81 143.833 122.369 143.49 122.064C143.147 121.759 142.709 121.607 142.176 121.607C141.014 121.607 140.307 122.2 140.053 123.387Z" fill="#F6EBC8"/>
<path d="M137.977 128.024C137.044 128.481 136.143 128.709 135.273 128.709C134.512 128.709 133.826 128.529 133.217 128.167C132.607 127.799 132.131 127.294 131.789 126.653C131.439 126.006 131.265 125.279 131.265 124.473C131.265 123.832 131.385 123.241 131.627 122.702C131.874 122.162 132.204 121.699 132.617 121.312C133.036 120.918 133.509 120.62 134.035 120.417C134.569 120.207 135.118 120.103 135.683 120.103C136.52 120.103 137.285 120.318 137.977 120.75V122.778C137.323 122.099 136.543 121.759 135.635 121.759C134.93 121.759 134.327 121.988 133.826 122.445C133.331 122.902 133.083 123.54 133.083 124.358C133.083 124.911 133.182 125.39 133.379 125.796C133.575 126.202 133.861 126.513 134.235 126.729C134.604 126.939 135.038 127.043 135.54 127.043C136.39 127.043 137.203 126.688 137.977 125.977V128.024Z" fill="#F6EBC8"/>
<path d="M131.113 126.367C130.167 127.954 128.872 128.748 127.228 128.748C126.625 128.748 126.079 128.649 125.59 128.452C125.095 128.249 124.67 127.957 124.315 127.576C123.966 127.196 123.696 126.742 123.505 126.215C123.321 125.682 123.229 125.101 123.229 124.473C123.229 123.825 123.321 123.229 123.505 122.683C123.696 122.13 123.962 121.664 124.305 121.283C124.654 120.896 125.07 120.601 125.552 120.398C126.035 120.188 126.568 120.083 127.152 120.083C127.806 120.083 128.399 120.217 128.932 120.483C129.465 120.744 129.907 121.118 130.256 121.607C130.535 121.969 130.732 122.375 130.846 122.826C130.96 123.276 131.036 123.905 131.074 124.711H124.991C125.01 125.206 125.118 125.644 125.314 126.025C125.517 126.405 125.787 126.697 126.124 126.9C126.466 127.104 126.86 127.205 127.304 127.205C128.288 127.205 129.094 126.624 129.723 125.463L131.113 126.367ZM125.143 123.387H129.246C129.145 122.81 128.923 122.369 128.58 122.064C128.237 121.759 127.799 121.607 127.266 121.607C126.105 121.607 125.397 122.2 125.143 123.387Z" fill="#F6EBC8"/>
<path d="M121.03 124.958H117.364V128.433H115.66V120.388H117.355V123.425H121.03V120.388H122.725L122.734 128.433H121.03V124.958Z" fill="#F6EBC8"/>
<path d="M109.805 123.844H111.242C112.499 123.737 113.128 123.321 113.128 122.597C113.128 122.223 112.959 121.931 112.623 121.721C112.293 121.505 111.849 121.398 111.29 121.398C110.395 121.372 109.389 121.423 108.272 121.55V120.588C109.599 120.36 110.605 120.261 111.29 120.293C111.976 120.319 112.575 120.42 113.09 120.598C113.604 120.776 113.997 121.033 114.27 121.369C114.549 121.699 114.689 122.086 114.689 122.531C114.689 123.013 114.543 123.394 114.251 123.673C113.959 123.952 113.496 124.149 112.861 124.263C114.327 124.435 115.06 125.092 115.06 126.234C115.06 126.736 114.876 127.17 114.508 127.539C114.14 127.913 113.658 128.202 113.061 128.405C112.464 128.602 111.836 128.706 111.176 128.719C110.516 128.738 109.871 128.691 109.243 128.576C108.621 128.468 108.256 128.411 108.148 128.405V127.358C109.64 127.567 110.687 127.672 111.29 127.672C111.938 127.672 112.461 127.545 112.861 127.291C113.261 127.037 113.461 126.694 113.461 126.263C113.461 125.406 112.753 124.92 111.338 124.806H109.805V123.844Z" fill="#F6EBC8"/>
<path d="M105.482 128.481V123.397L99.3794 128.767V120.379H101.198V125.434L107.301 119.979V128.481H105.482Z" fill="#F6EBC8"/>
<path d="M94.6951 120.083C95.5266 120.083 96.2724 120.268 96.9325 120.636C97.5926 121.004 98.1067 121.521 98.4749 122.188C98.843 122.848 99.0271 123.597 99.0271 124.435C99.0271 125.26 98.843 125.999 98.4749 126.653C98.1067 127.307 97.5894 127.814 96.923 128.176C96.2565 128.532 95.5012 128.709 94.657 128.709C93.8318 128.709 93.0955 128.522 92.4481 128.148C91.8007 127.786 91.2961 127.275 90.9343 126.615C90.5788 125.948 90.4011 125.196 90.4011 124.358C90.4011 123.54 90.582 122.806 90.9438 122.159C91.3056 121.505 91.8134 120.998 92.4672 120.636C93.1209 120.268 93.8636 120.083 94.6951 120.083ZM94.7141 121.645C94.1809 121.645 93.7239 121.778 93.3431 122.045C92.9623 122.305 92.6766 122.645 92.4862 123.064C92.2958 123.482 92.2006 123.933 92.2006 124.416C92.2006 124.892 92.2958 125.339 92.4862 125.758C92.6766 126.171 92.9623 126.51 93.3431 126.777C93.7239 127.037 94.1809 127.167 94.7141 127.167C95.2409 127.167 95.6884 127.037 96.0566 126.777C96.431 126.516 96.7103 126.174 96.8944 125.748C97.0848 125.323 97.18 124.879 97.18 124.416C97.18 123.939 97.0848 123.489 96.8944 123.064C96.7103 122.638 96.431 122.296 96.0566 122.035C95.6821 121.775 95.2346 121.645 94.7141 121.645Z" fill="#F6EBC8"/>
<path d="M86.0501 121.645C85.3074 121.645 84.7267 121.924 84.3077 122.483C83.8888 123.035 83.6793 123.686 83.6793 124.435C83.6793 124.911 83.7682 125.361 83.9459 125.787C84.1237 126.212 84.3871 126.555 84.7362 126.815C85.0853 127.075 85.5042 127.205 85.9929 127.205C86.5007 127.205 86.9323 127.072 87.2878 126.805C87.6496 126.539 87.9193 126.19 88.0971 125.758C88.2748 125.32 88.3636 124.86 88.3636 124.377C88.3636 123.914 88.2748 123.473 88.0971 123.054C87.9257 122.629 87.6654 122.289 87.3163 122.035C86.9672 121.775 86.5451 121.645 86.0501 121.645ZM82.0703 132.28V120.35L83.7936 120.36V121.35C84.3839 120.531 85.2154 120.122 86.2881 120.122C87.0815 120.122 87.7638 120.328 88.3351 120.74C88.9127 121.153 89.3443 121.689 89.6299 122.349C89.9219 123.01 90.0679 123.711 90.0679 124.454C90.0679 125.19 89.9282 125.879 89.649 126.52C89.3697 127.161 88.9476 127.678 88.3827 128.072C87.8241 128.465 87.1513 128.662 86.3642 128.662C85.2916 128.662 84.4347 128.259 83.7936 127.453V132.28H82.0703Z" fill="#F6EBC8"/>
<path d="M79.4616 121.94H75.796V128.433H74.0918V120.388H81.1563L81.1658 128.433H79.4616V121.94Z" fill="#F6EBC8"/>
<path d="M62.6952 120.369V123.74H63.6854C64.3709 123.74 64.9453 123.863 65.4087 124.111C65.872 124.314 66.2275 124.596 66.475 124.958C66.7289 125.314 66.8559 125.717 66.8559 126.167C66.8559 126.624 66.7257 127.024 66.4655 127.367C66.2116 127.703 65.8466 127.967 65.3706 128.157C64.9009 128.341 64.355 128.433 63.733 128.433H60.8958V120.369H62.6952ZM62.6952 127.319H63.514C63.7869 127.319 64.1075 127.218 64.4756 127.015C64.8311 126.812 65.0088 126.523 65.0088 126.148C65.0088 125.336 64.5105 124.93 63.514 124.93H62.6952V127.319ZM67.2652 128.433H68.9695L68.96 120.36H67.2652V128.433Z" fill="#F6EBC8"/>
<path d="M48.4424 128.481L51.2796 119.722L54.3358 125.549L57.8586 119.722L60.5816 128.481H58.7155L57.135 123.13L54.2597 128.767L51.8509 123.111L50.3275 128.481H48.4424Z" fill="#F6EBC8"/>
<path d="M44.3008 126.367C43.3551 127.954 42.0602 128.748 40.4163 128.748C39.8133 128.748 39.2674 128.649 38.7787 128.452C38.2836 128.249 37.8583 127.957 37.5029 127.576C37.1538 127.196 36.884 126.742 36.6936 126.215C36.5095 125.682 36.4175 125.101 36.4175 124.473C36.4175 123.825 36.5095 123.229 36.6936 122.683C36.884 122.13 37.1506 121.664 37.4933 121.283C37.8424 120.896 38.2582 120.601 38.7406 120.398C39.223 120.188 39.7562 120.083 40.3401 120.083C40.9939 120.083 41.5873 120.217 42.1205 120.483C42.6537 120.744 43.0948 121.118 43.4439 121.607C43.7232 121.969 43.92 122.375 44.0342 122.826C44.1485 123.276 44.2246 123.905 44.2627 124.711H38.1789C38.1979 125.206 38.3058 125.644 38.5026 126.025C38.7057 126.405 38.9754 126.697 39.3118 126.9C39.6546 127.104 40.0481 127.205 40.4924 127.205C41.4763 127.205 42.2824 126.624 42.9108 125.463L44.3008 126.367ZM38.3312 123.387H42.4347C42.3331 122.81 42.111 122.369 41.7682 122.064C41.4255 121.759 40.9875 121.607 40.4544 121.607C39.2928 121.607 38.5851 122.2 38.3312 123.387Z" fill="#F6EBC8"/>
<path d="M28.5819 126.881H33.2186V121.731H30.5241C30.3908 124.657 29.7434 126.374 28.5819 126.881ZM26.7443 126.92C27.9059 126.412 28.5438 124.228 28.658 120.369H35.0561V126.92H35.9891V130.109H34.1516V128.529H27.6298V130.109H25.7922V126.92H26.7443Z" fill="#F6EBC8"/>
<path d="M24.8876 121.797H21.6124L21.622 128.433H19.9177V120.36H24.8591L24.8876 121.797Z" fill="#F6EBC8"/>
<path d="M202.32 112.864L204.195 108.37L205.88 108.979L203.576 113.368L202.32 112.864Z" fill="#F6EBC8"/>
<path d="M198.806 102.495V105.866H199.796C200.482 105.866 201.056 105.99 201.52 106.237C201.983 106.44 202.339 106.723 202.586 107.084C202.84 107.44 202.967 107.843 202.967 108.294C202.967 108.751 202.837 109.15 202.577 109.493C202.323 109.83 201.958 110.093 201.482 110.283C201.012 110.468 200.466 110.56 199.844 110.56H197.007V102.495H198.806ZM198.806 109.446H199.625C199.898 109.446 200.219 109.344 200.587 109.141C200.942 108.938 201.12 108.649 201.12 108.275C201.12 107.462 200.622 107.056 199.625 107.056H198.806V109.446Z" fill="#F6EBC8"/>
<path d="M190.076 102.495H196.236L196.264 103.933H194.046V110.56H192.294V103.933H190.047L190.076 102.495Z" fill="#F6EBC8"/>
<path d="M189.504 110.15C188.571 110.607 187.67 110.836 186.801 110.836C186.039 110.836 185.353 110.655 184.744 110.293C184.135 109.925 183.659 109.42 183.316 108.779C182.967 108.132 182.792 107.405 182.792 106.599C182.792 105.958 182.913 105.367 183.154 104.828C183.402 104.288 183.732 103.825 184.144 103.438C184.563 103.044 185.036 102.746 185.563 102.543C186.096 102.333 186.645 102.229 187.21 102.229C188.048 102.229 188.813 102.445 189.504 102.876V104.904C188.851 104.225 188.07 103.885 187.162 103.885C186.458 103.885 185.855 104.114 185.353 104.571C184.858 105.028 184.611 105.666 184.611 106.485C184.611 107.037 184.709 107.516 184.906 107.922C185.103 108.328 185.388 108.64 185.763 108.855C186.131 109.065 186.566 109.17 187.067 109.17C187.918 109.17 188.73 108.814 189.504 108.103V110.15Z" fill="#F6EBC8"/>
<path d="M180.431 109.579C180.164 109.966 179.806 110.268 179.355 110.483C178.905 110.693 178.406 110.798 177.86 110.798C177.162 110.798 176.527 110.61 175.956 110.236C175.391 109.861 174.947 109.347 174.623 108.693C174.3 108.033 174.138 107.297 174.138 106.485C174.138 105.691 174.303 104.971 174.633 104.323C174.969 103.676 175.429 103.168 176.013 102.8C176.604 102.432 177.257 102.248 177.975 102.248C179.079 102.248 179.898 102.657 180.431 103.476V102.486H182.154V110.56H180.431V109.579ZM178.232 103.771C177.737 103.771 177.308 103.901 176.946 104.162C176.591 104.422 176.321 104.768 176.137 105.199C175.959 105.631 175.871 106.085 175.871 106.561C175.871 107.03 175.959 107.478 176.137 107.903C176.321 108.328 176.591 108.674 176.946 108.941C177.308 109.201 177.737 109.331 178.232 109.331C178.72 109.331 179.139 109.201 179.488 108.941C179.838 108.674 180.101 108.325 180.279 107.894C180.463 107.462 180.555 107.005 180.555 106.523C180.555 106.053 180.469 105.606 180.298 105.18C180.114 104.761 179.847 104.422 179.498 104.162C179.149 103.901 178.727 103.771 178.232 103.771Z" fill="#F6EBC8"/>
<path d="M171.738 107.084C169.453 107.941 167.619 107.256 166.235 105.028V102.514H167.949L167.93 104.657C168.47 106.193 169.739 106.491 171.738 105.552V102.514H173.433L173.443 110.56H171.738V107.084Z" fill="#F6EBC8"/>
<path d="M159.714 110.56V107.084L156.286 110.56H154.049L158.009 107.008C157.736 106.996 157.384 106.935 156.952 106.827C156.521 106.719 156.153 106.567 155.848 106.37C155.543 106.167 155.309 105.929 155.143 105.656C154.985 105.377 154.905 105.066 154.905 104.723C154.905 104.006 155.267 103.457 155.991 103.076C156.721 102.689 157.651 102.495 158.78 102.495H161.532V110.56H159.714ZM159.714 103.571H159.152C158.301 103.571 157.682 103.676 157.295 103.885C156.914 104.095 156.724 104.406 156.724 104.818C156.724 105.206 156.924 105.526 157.324 105.78C157.73 106.028 158.301 106.151 159.038 106.151H159.714V103.571Z" fill="#F6EBC8"/>
<path d="M151.849 109.579C151.583 109.966 151.224 110.268 150.773 110.483C150.323 110.693 149.824 110.798 149.279 110.798C148.58 110.798 147.946 110.61 147.374 110.236C146.809 109.861 146.365 109.347 146.041 108.693C145.718 108.033 145.556 107.297 145.556 106.485C145.556 105.691 145.721 104.971 146.051 104.323C146.387 103.676 146.848 103.168 147.432 102.8C148.022 102.432 148.676 102.248 149.393 102.248C150.497 102.248 151.316 102.657 151.849 103.476V102.486H153.573V110.56H151.849V109.579ZM149.65 103.771C149.155 103.771 148.726 103.901 148.365 104.162C148.009 104.422 147.739 104.768 147.555 105.199C147.378 105.631 147.289 106.085 147.289 106.561C147.289 107.03 147.378 107.478 147.555 107.903C147.739 108.328 148.009 108.674 148.365 108.941C148.726 109.201 149.155 109.331 149.65 109.331C150.139 109.331 150.558 109.201 150.907 108.941C151.256 108.674 151.519 108.325 151.697 107.894C151.881 107.462 151.973 107.005 151.973 106.523C151.973 106.053 151.887 105.606 151.716 105.18C151.532 104.761 151.265 104.422 150.916 104.162C150.567 103.901 150.145 103.771 149.65 103.771Z" fill="#F6EBC8"/>
<path d="M143.157 107.084H139.491V110.56H137.787V102.514H139.482V105.552H143.157V102.514H144.851L144.861 110.56H143.157V107.084Z" fill="#F6EBC8"/>
<path d="M132.902 102.495V105.866H133.893C134.578 105.866 135.153 105.99 135.616 106.237C136.079 106.44 136.435 106.723 136.682 107.084C136.936 107.44 137.063 107.843 137.063 108.294C137.063 108.751 136.933 109.15 136.673 109.493C136.419 109.83 136.054 110.093 135.578 110.283C135.108 110.468 134.562 110.56 133.94 110.56H131.103V102.495H132.902ZM132.902 109.446H133.721C133.994 109.446 134.315 109.344 134.683 109.141C135.038 108.938 135.216 108.649 135.216 108.275C135.216 107.462 134.718 107.056 133.721 107.056H132.902V109.446Z" fill="#F6EBC8"/>
<path d="M128.199 104.095H125.514V107.046C125.514 107.554 125.46 108.037 125.352 108.494C125.238 108.944 125.06 109.35 124.819 109.712C124.578 110.074 124.264 110.36 123.877 110.569C123.489 110.772 123.036 110.874 122.515 110.874C122.395 110.874 122.277 110.867 122.163 110.855V109.15C122.239 109.163 122.318 109.17 122.401 109.17C122.864 109.17 123.191 109.017 123.382 108.713C123.572 108.402 123.667 107.884 123.667 107.161L123.658 102.505H130.037V110.56H128.199V104.095Z" fill="#F6EBC8"/>
<path d="M121.801 108.494C120.855 110.08 119.56 110.874 117.917 110.874C117.314 110.874 116.768 110.775 116.279 110.579C115.784 110.375 115.359 110.084 115.003 109.703C114.654 109.322 114.384 108.868 114.194 108.341C114.01 107.808 113.918 107.227 113.918 106.599C113.918 105.951 114.01 105.355 114.194 104.809C114.384 104.257 114.651 103.79 114.994 103.409C115.343 103.022 115.758 102.727 116.241 102.524C116.723 102.314 117.256 102.21 117.84 102.21C118.494 102.21 119.088 102.343 119.621 102.61C120.154 102.87 120.595 103.244 120.944 103.733C121.223 104.095 121.42 104.501 121.534 104.952C121.649 105.402 121.725 106.031 121.763 106.837H115.679C115.698 107.332 115.806 107.77 116.003 108.151C116.206 108.532 116.476 108.824 116.812 109.027C117.155 109.23 117.548 109.331 117.993 109.331C118.977 109.331 119.783 108.751 120.411 107.589L121.801 108.494ZM115.831 105.513H119.935C119.833 104.936 119.611 104.495 119.268 104.19C118.926 103.885 118.488 103.733 117.955 103.733C116.793 103.733 116.085 104.327 115.831 105.513Z" fill="#F6EBC8"/>
<path d="M107.358 102.495H113.518L113.547 103.933H111.328V110.56H109.576V103.933H107.329L107.358 102.495Z" fill="#F6EBC8"/>
<path d="M104.74 109.579C104.473 109.966 104.114 110.268 103.664 110.483C103.213 110.693 102.715 110.798 102.169 110.798C101.471 110.798 100.836 110.61 100.265 110.236C99.6999 109.861 99.2556 109.347 98.9319 108.693C98.6081 108.033 98.4463 107.297 98.4463 106.485C98.4463 105.691 98.6113 104.971 98.9414 104.323C99.2778 103.676 99.738 103.168 100.322 102.8C100.912 102.432 101.566 102.248 102.283 102.248C103.388 102.248 104.206 102.657 104.74 103.476V102.486H106.463V110.56H104.74V109.579ZM102.54 103.771C102.045 103.771 101.617 103.901 101.255 104.162C100.9 104.422 100.63 104.768 100.446 105.199C100.268 105.631 100.179 106.085 100.179 106.561C100.179 107.03 100.268 107.478 100.446 107.903C100.63 108.328 100.9 108.674 101.255 108.941C101.617 109.201 102.045 109.331 102.54 109.331C103.029 109.331 103.448 109.201 103.797 108.941C104.146 108.674 104.41 108.325 104.587 107.894C104.771 107.462 104.863 107.005 104.863 106.523C104.863 106.053 104.778 105.606 104.606 105.18C104.422 104.761 104.156 104.422 103.807 104.162C103.457 103.901 103.035 103.771 102.54 103.771Z" fill="#F6EBC8"/>
<path d="M97.7226 103.923H94.4474L94.4569 110.56H92.7527V102.486H97.694L97.7226 103.923Z" fill="#F6EBC8"/>
<path d="M88.0305 102.21C88.862 102.21 89.6078 102.394 90.2679 102.762C90.928 103.13 91.4422 103.647 91.8103 104.314C92.1785 104.974 92.3625 105.723 92.3625 106.561C92.3625 107.386 92.1785 108.125 91.8103 108.779C91.4422 109.433 90.9249 109.941 90.2584 110.303C89.5919 110.658 88.8366 110.836 87.9924 110.836C87.1673 110.836 86.431 110.648 85.7836 110.274C85.1361 109.912 84.6315 109.401 84.2697 108.741C83.9143 108.075 83.7366 107.322 83.7366 106.485C83.7366 105.666 83.9175 104.933 84.2793 104.285C84.6411 103.632 85.1488 103.124 85.8026 102.762C86.4564 102.394 87.199 102.21 88.0305 102.21ZM88.0496 103.771C87.5164 103.771 87.0594 103.904 86.6785 104.171C86.2977 104.431 86.0121 104.771 85.8217 105.19C85.6312 105.609 85.536 106.059 85.536 106.542C85.536 107.018 85.6312 107.465 85.8217 107.884C86.0121 108.297 86.2977 108.636 86.6785 108.903C87.0594 109.163 87.5164 109.293 88.0496 109.293C88.5764 109.293 89.0239 109.163 89.392 108.903C89.7665 108.643 90.0458 108.3 90.2298 107.875C90.4203 107.449 90.5155 107.005 90.5155 106.542C90.5155 106.066 90.4203 105.615 90.2298 105.19C90.0458 104.764 89.7665 104.422 89.392 104.162C89.0175 103.901 88.57 103.771 88.0496 103.771Z" fill="#F6EBC8"/>
<path d="M79.3855 103.771C78.6429 103.771 78.0621 104.05 77.6432 104.609C77.2243 105.161 77.0148 105.812 77.0148 106.561C77.0148 107.037 77.1037 107.487 77.2814 107.913C77.4591 108.338 77.7225 108.681 78.0716 108.941C78.4207 109.201 78.8396 109.331 79.3284 109.331C79.8362 109.331 80.2678 109.198 80.6232 108.931C80.985 108.665 81.2548 108.316 81.4325 107.884C81.6102 107.446 81.6991 106.986 81.6991 106.504C81.6991 106.04 81.6102 105.599 81.4325 105.18C81.2611 104.755 81.0009 104.415 80.6518 104.162C80.3027 103.901 79.8806 103.771 79.3855 103.771ZM75.4058 114.406V102.476L77.129 102.486V103.476C77.7193 102.657 78.5508 102.248 79.6235 102.248C80.4169 102.248 81.0993 102.454 81.6705 102.867C82.2481 103.279 82.6797 103.816 82.9654 104.476C83.2573 105.136 83.4033 105.837 83.4033 106.58C83.4033 107.316 83.2637 108.005 82.9844 108.646C82.7051 109.287 82.283 109.804 81.7181 110.198C81.1596 110.591 80.4868 110.788 79.6997 110.788C78.627 110.788 77.7701 110.385 77.129 109.579V114.406H75.4058Z" fill="#F6EBC8"/>
<path d="M68.4363 102.495H74.5963L74.6249 103.933H72.4065V110.56H70.6547V103.933H68.4077L68.4363 102.495Z" fill="#F6EBC8"/>
<path d="M61.724 110.56V107.084L58.2965 110.56H56.0591L60.0198 107.008C59.7469 106.996 59.3946 106.935 58.963 106.827C58.5313 106.719 58.1632 106.567 57.8585 106.37C57.5539 106.167 57.319 105.929 57.154 105.656C56.9953 105.377 56.916 105.066 56.916 104.723C56.916 104.006 57.2778 103.457 58.0014 103.076C58.7313 102.689 59.6612 102.495 60.791 102.495H63.5425V110.56H61.724ZM61.724 103.571H61.1623C60.3118 103.571 59.6929 103.676 59.3057 103.885C58.9249 104.095 58.7345 104.406 58.7345 104.818C58.7345 105.206 58.9344 105.526 59.3343 105.78C59.7405 106.028 60.3118 106.151 61.048 106.151H61.724V103.571Z" fill="#F6EBC8"/>
<path d="M53.8597 109.579C53.5932 109.966 53.2345 110.268 52.7839 110.483C52.3332 110.693 51.835 110.798 51.2891 110.798C50.5909 110.798 49.9562 110.61 49.3849 110.236C48.82 109.861 48.3757 109.347 48.052 108.693C47.7283 108.033 47.5664 107.297 47.5664 106.485C47.5664 105.691 47.7314 104.971 48.0615 104.323C48.3979 103.676 48.8581 103.168 49.442 102.8C50.0323 102.432 50.6861 102.248 51.4033 102.248C52.5078 102.248 53.3266 102.657 53.8597 103.476V102.486H55.583V110.56H53.8597V109.579ZM51.6604 103.771C51.1653 103.771 50.7369 103.901 50.3751 104.162C50.0196 104.422 49.7499 104.768 49.5658 105.199C49.3881 105.631 49.2992 106.085 49.2992 106.561C49.2992 107.03 49.3881 107.478 49.5658 107.903C49.7499 108.328 50.0196 108.674 50.3751 108.941C50.7369 109.201 51.1653 109.331 51.6604 109.331C52.1491 109.331 52.5681 109.201 52.9172 108.941C53.2663 108.674 53.5297 108.325 53.7074 107.894C53.8915 107.462 53.9835 107.005 53.9835 106.523C53.9835 106.053 53.8978 105.606 53.7264 105.18C53.5424 104.761 53.2758 104.422 52.9267 104.162C52.5776 103.901 52.1555 103.771 51.6604 103.771Z" fill="#F6EBC8"/>
<path d="M35.2844 110.607L38.1217 101.848L41.1779 107.675L44.7006 101.848L47.4236 110.607H45.5575L43.977 105.256L41.1017 110.893L38.6929 105.237L37.1696 110.607H35.2844Z" fill="#F6EBC8"/>
<path d="M33.0851 109.579C32.8185 109.966 32.4599 110.268 32.0092 110.483C31.5586 110.693 31.0603 110.798 30.5144 110.798C29.8162 110.798 29.1815 110.61 28.6102 110.236C28.0453 109.861 27.601 109.347 27.2773 108.693C26.9536 108.033 26.7917 107.297 26.7917 106.485C26.7917 105.691 26.9568 104.971 27.2868 104.323C27.6232 103.676 28.0834 103.168 28.6674 102.8C29.2577 102.432 29.9114 102.248 30.6287 102.248C31.7331 102.248 32.5519 102.657 33.0851 103.476V102.486H34.8084V110.56H33.0851V109.579ZM30.8857 103.771C30.3907 103.771 29.9622 103.901 29.6004 104.162C29.245 104.422 28.9752 104.768 28.7911 105.199C28.6134 105.631 28.5246 106.085 28.5246 106.561C28.5246 107.03 28.6134 107.478 28.7911 107.903C28.9752 108.328 29.245 108.674 29.6004 108.941C29.9622 109.201 30.3907 109.331 30.8857 109.331C31.3745 109.331 31.7934 109.201 32.1425 108.941C32.4916 108.674 32.755 108.325 32.9327 107.894C33.1168 107.462 33.2089 107.005 33.2089 106.523C33.2089 106.053 33.1232 105.606 32.9518 105.18C32.7677 104.761 32.5011 104.422 32.152 104.162C31.8029 103.901 31.3808 103.771 30.8857 103.771Z" fill="#F6EBC8"/>
<path d="M26.43 110.15C25.497 110.607 24.5957 110.836 23.7261 110.836C22.9644 110.836 22.2789 110.655 21.6696 110.293C21.0602 109.925 20.5842 109.42 20.2414 108.779C19.8923 108.132 19.7178 107.405 19.7178 106.599C19.7178 105.958 19.8384 105.367 20.0796 104.828C20.3271 104.288 20.6572 103.825 21.0697 103.438C21.4887 103.044 21.9615 102.746 22.4884 102.543C23.0215 102.333 23.5706 102.229 24.1355 102.229C24.9733 102.229 25.7382 102.445 26.43 102.876V104.904C25.7763 104.225 24.9955 103.885 24.0879 103.885C23.3833 103.885 22.7803 104.114 22.2789 104.571C21.7838 105.028 21.5363 105.666 21.5363 106.485C21.5363 107.037 21.6347 107.516 21.8314 107.922C22.0282 108.328 22.3138 108.64 22.6883 108.855C23.0564 109.065 23.4912 109.17 23.9927 109.17C24.8432 109.17 25.6557 108.814 26.43 108.103V110.15Z" fill="#F6EBC8"/>
<path d="M194.208 80.4988V72.535L186.354 80.4988H181.226L190.303 72.3604C189.677 72.3313 188.87 72.1931 187.881 71.9459C186.892 71.6986 186.048 71.3495 185.35 70.8986C184.652 70.4331 184.114 69.8876 183.735 69.2621C183.372 68.6221 183.19 67.9094 183.19 67.1239C183.19 65.4802 184.019 64.222 185.677 63.3493C187.35 62.462 189.481 62.0183 192.07 62.0183H198.376V80.4988H194.208ZM194.208 64.4838H192.921C190.972 64.4838 189.554 64.7238 188.667 65.2039C187.794 65.6839 187.357 66.3966 187.357 67.3421C187.357 68.2294 187.816 68.964 188.732 69.5458C189.663 70.1131 190.972 70.3967 192.659 70.3967H194.208V64.4838Z" fill="#F6EBC8"/>
<path d="M175.663 80.608V68.9567L161.677 81.2625V62.0402H165.844V73.6259L179.83 61.1238V80.608H175.663Z" fill="#F6EBC8"/>
<path d="M155.917 72.535H147.516V80.4989H143.611V62.062H147.495V69.0222H155.917V62.062H159.8L159.822 80.4989H155.917V72.535Z" fill="#F6EBC8"/>
<path d="M132.789 61.3638C134.694 61.3638 136.403 61.7856 137.916 62.6293C139.429 63.4729 140.607 64.6584 141.451 66.1857C142.294 67.6985 142.716 69.4149 142.716 71.335C142.716 73.2259 142.294 74.9205 141.451 76.4187C140.607 77.917 139.422 79.0806 137.894 79.9097C136.367 80.7243 134.636 81.1316 132.701 81.1316C130.811 81.1316 129.123 80.7025 127.64 79.8443C126.156 79.0152 124.999 77.8442 124.17 76.3315C123.356 74.8041 122.948 73.0805 122.948 71.1604C122.948 69.284 123.363 67.6039 124.192 66.1203C125.021 64.622 126.185 63.4584 127.683 62.6293C129.181 61.7856 130.883 61.3638 132.789 61.3638ZM132.832 64.942C131.611 64.942 130.563 65.2475 129.69 65.8584C128.818 66.4548 128.163 67.233 127.727 68.193C127.29 69.1531 127.072 70.1858 127.072 71.2913C127.072 72.3823 127.29 73.4077 127.727 74.3678C128.163 75.3132 128.818 76.0914 129.69 76.7024C130.563 77.2988 131.611 77.5969 132.832 77.5969C134.04 77.5969 135.065 77.2988 135.909 76.7024C136.767 76.106 137.407 75.3205 137.829 74.3459C138.265 73.3714 138.483 72.3532 138.483 71.2913C138.483 70.2004 138.265 69.1676 137.829 68.193C137.407 67.2185 136.767 66.433 135.909 65.8366C135.051 65.2402 134.025 64.942 132.832 64.942Z" fill="#F6EBC8"/>
<path d="M95.1731 80.6079L101.675 60.5347L108.679 73.8878L116.752 60.5347L122.992 80.6079H118.716L115.094 68.3458L108.504 81.2625L102.984 68.3022L99.4932 80.6079H95.1731Z" fill="#F6EBC8"/>
<path d="M95.1949 75.7642C93.0275 79.4006 90.0602 81.2189 86.2928 81.2189C84.9109 81.2189 83.66 80.9934 82.54 80.5425C81.4054 80.077 80.4308 79.4079 79.6162 78.5352C78.8162 77.6624 78.198 76.6224 77.7617 75.4151C77.3398 74.1932 77.1289 72.8623 77.1289 71.4222C77.1289 69.9386 77.3398 68.5712 77.7617 67.3203C78.198 66.0548 78.809 64.9857 79.5944 64.1129C80.3945 63.2256 81.3472 62.5493 82.4527 62.0838C83.5582 61.6038 84.78 61.3638 86.1182 61.3638C87.6165 61.3638 88.9765 61.6692 90.1984 62.2802C91.4202 62.8765 92.4311 63.7347 93.2312 64.8548C93.8712 65.6839 94.3221 66.6148 94.5839 67.6476C94.8458 68.6803 95.0203 70.1204 95.1076 71.9677H81.1654C81.209 73.1023 81.4563 74.1059 81.9072 74.9787C82.3727 75.8514 82.9909 76.5206 83.7618 76.986C84.5473 77.4515 85.4491 77.6842 86.4673 77.6842C88.722 77.6842 90.5693 76.3533 92.0093 73.6914L95.1949 75.7642ZM81.5145 68.9349H90.9184C90.6856 67.6112 90.1765 66.6003 89.3911 65.9021C88.6056 65.2039 87.6019 64.8548 86.3801 64.8548C83.7182 64.8548 82.0963 66.2148 81.5145 68.9349Z" fill="#F6EBC8"/>
<path d="M67.245 64.9419C65.5431 64.9419 64.2122 65.582 63.2522 66.862C62.2921 68.1275 61.8121 69.6184 61.8121 71.3348C61.8121 72.4258 62.0158 73.4585 62.4231 74.4331C62.8303 75.4077 63.434 76.1932 64.234 76.7895C65.034 77.3859 65.9941 77.6841 67.1141 77.6841C68.2778 77.6841 69.2669 77.3786 70.0814 76.7677C70.9106 76.1568 71.5288 75.3568 71.936 74.3676C72.3433 73.364 72.547 72.3094 72.547 71.2039C72.547 70.1421 72.3433 69.1311 71.936 68.1711C71.5433 67.1965 70.9469 66.4183 70.1469 65.8365C69.3469 65.2401 68.3796 64.9419 67.245 64.9419ZM58.1248 89.3135V61.9746L62.074 61.9964V64.2656C63.4267 62.3891 65.3322 61.4509 67.7905 61.4509C69.6087 61.4509 71.1724 61.9237 72.4815 62.8691C73.8052 63.8146 74.7943 65.0438 75.4489 66.5565C76.118 68.0693 76.4525 69.6766 76.4525 71.3785C76.4525 73.0658 76.1325 74.644 75.4925 76.1131C74.8525 77.5823 73.8852 78.7678 72.5906 79.6696C71.3106 80.5715 69.7687 81.0224 67.965 81.0224C65.5068 81.0224 63.5431 80.0987 62.074 78.2514V89.3135H58.1248Z" fill="#F6EBC8"/>
<path d="M57.1866 75.7642C55.0192 79.4006 52.0519 81.2189 48.2845 81.2189C46.9026 81.2189 45.6517 80.9934 44.5317 80.5425C43.3971 80.077 42.4225 79.4079 41.6079 78.5352C40.8079 77.6624 40.1897 76.6224 39.7534 75.4151C39.3315 74.1932 39.1206 72.8623 39.1206 71.4222C39.1206 69.9386 39.3315 68.5712 39.7534 67.3203C40.1897 66.0548 40.8007 64.9857 41.5861 64.1129C42.3861 63.2256 43.3389 62.5493 44.4444 62.0838C45.5499 61.6038 46.7717 61.3638 48.1099 61.3638C49.6082 61.3638 50.9682 61.6692 52.1901 62.2802C53.4119 62.8765 54.4228 63.7347 55.2229 64.8548C55.8629 65.6839 56.3138 66.6148 56.5756 67.6476C56.8375 68.6803 57.012 70.1204 57.0993 71.9677H43.1571C43.2007 73.1023 43.448 74.1059 43.8989 74.9787C44.3644 75.8514 44.9826 76.5206 45.7535 76.986C46.539 77.4515 47.4408 77.6842 48.459 77.6842C50.7137 77.6842 52.561 76.3533 54.001 73.6914L57.1866 75.7642ZM43.5062 68.9349H52.9101C52.6773 67.6112 52.1682 66.6003 51.3828 65.9021C50.5973 65.2039 49.5936 64.8548 48.3718 64.8548C45.7099 64.8548 44.088 66.2148 43.5062 68.9349Z" fill="#F6EBC8"/>
<path d="M34.8877 84.1863V80.4989H20.4219V62.062H24.3274V76.9424H32.7277V62.062H36.6332L36.6114 76.9642H38.2696V84.1863H34.8877Z" fill="#F6EBC8"/>
</svg>
