<svg width="255" height="154" viewBox="0 0 255 154" fill="none" xmlns="http://www.w3.org/2000/svg">
<path d="M201.066 76.7047C196.963 76.7047 193.208 75.8007 189.801 73.9927C186.463 72.1847 183.542 69.6466 181.039 66.3783C178.605 63.0405 176.693 59.1116 175.302 54.5916C173.981 50.0021 173.32 44.9954 173.32 39.5714C173.32 33.7998 173.981 28.5149 175.302 23.7168C176.623 18.9187 178.466 14.7812 180.83 11.3043C183.264 7.82738 186.115 5.15017 189.384 3.27264C192.721 1.32558 196.372 0.352051 200.336 0.352051C204.369 0.352051 208.089 1.25604 211.497 3.06403C214.904 4.87201 217.825 7.44492 220.258 10.7827C222.762 14.051 224.674 17.9799 225.995 22.5694C227.386 27.0894 228.081 32.0614 228.081 37.4853C228.081 43.257 227.421 48.5418 226.1 53.34C224.778 58.1381 222.901 62.2756 220.467 65.7525C218.103 69.2294 215.252 71.9414 211.914 73.8884C208.646 75.7659 205.03 76.7047 201.066 76.7047ZM193.034 39.4671C193.034 45.5865 193.173 50.7323 193.452 54.9046C193.73 59.0768 194.182 62.4494 194.808 65.0223C195.433 67.5952 196.233 69.438 197.207 70.5506C198.25 71.6632 199.536 72.2195 201.066 72.2195C202.457 72.2195 203.604 71.6284 204.508 70.4463C205.482 69.2641 206.247 67.3171 206.803 64.6051C207.359 61.8931 207.742 58.3467 207.95 53.9658C208.228 49.5154 208.367 44.0566 208.367 37.5896C208.367 31.4703 208.228 26.3245 207.95 22.1522C207.672 17.9104 207.22 14.5378 206.594 12.0344C205.968 9.46152 205.134 7.61877 204.091 6.50616C203.117 5.39355 201.866 4.83725 200.336 4.83725C198.945 4.83725 197.798 5.42832 196.894 6.61047C195.99 7.79261 195.225 9.73967 194.599 12.4517C194.043 15.1636 193.625 18.7448 193.347 23.1953C193.139 27.5762 193.034 33.0001 193.034 39.4671Z" fill="#FF9EA7" fill-opacity="0.75"/>
<path d="M142.189 76.7047C138.087 76.7047 134.332 75.8007 130.924 73.9927C127.587 72.1847 124.666 69.6466 122.163 66.3783C119.729 63.0405 117.816 59.1116 116.426 54.5916C115.104 50.0021 114.444 44.9954 114.444 39.5714C114.444 33.7998 115.104 28.5149 116.426 23.7168C117.747 18.9187 119.59 14.7812 121.954 11.3043C124.388 7.82738 127.239 5.15017 130.507 3.27264C133.845 1.32558 137.496 0.352051 141.459 0.352051C145.493 0.352051 149.213 1.25604 152.62 3.06403C156.028 4.87201 158.948 7.44492 161.382 10.7827C163.885 14.051 165.798 17.9799 167.119 22.5694C168.51 27.0894 169.205 32.0614 169.205 37.4853C169.205 43.257 168.544 48.5418 167.223 53.34C165.902 58.1381 164.024 62.2756 161.591 65.7525C159.226 69.2294 156.375 71.9414 153.037 73.8884C149.769 75.7659 146.153 76.7047 142.189 76.7047ZM134.158 39.4671C134.158 45.5865 134.297 50.7323 134.575 54.9046C134.853 59.0768 135.305 62.4494 135.931 65.0223C136.557 67.5952 137.357 69.438 138.33 70.5506C139.373 71.6632 140.66 72.2195 142.189 72.2195C143.58 72.2195 144.728 71.6284 145.632 70.4463C146.605 69.2641 147.37 67.3171 147.926 64.6051C148.483 61.8931 148.865 58.3467 149.074 53.9658C149.352 49.5154 149.491 44.0566 149.491 37.5896C149.491 31.4703 149.352 26.3245 149.074 22.1522C148.796 17.9104 148.344 14.5378 147.718 12.0344C147.092 9.46152 146.257 7.61877 145.214 6.50616C144.241 5.39355 142.989 4.83725 141.459 4.83725C140.069 4.83725 138.921 5.42832 138.017 6.61047C137.113 7.79261 136.348 9.73967 135.722 12.4517C135.166 15.1636 134.749 18.7448 134.471 23.1953C134.262 27.5762 134.158 33.0001 134.158 39.4671Z" fill="#FF9EA7" fill-opacity="0.75"/>
<path d="M98.8713 48.3333C96.2984 48.3333 94.0731 47.4293 92.1956 45.6213C90.3876 43.7438 89.4836 41.5186 89.4836 38.9457C89.4836 36.3728 90.3876 34.1823 92.1956 32.3743C94.0731 30.5663 96.2984 29.6624 98.8713 29.6624C101.444 29.6624 103.635 30.5663 105.443 32.3743C107.251 34.1823 108.155 36.3728 108.155 38.9457C108.155 41.5186 107.251 43.7438 105.443 45.6213C103.635 47.4293 101.444 48.3333 98.8713 48.3333ZM89.4836 67.3172C89.4836 64.7443 90.3876 62.5538 92.1956 60.7458C94.0731 58.9378 96.2984 58.0338 98.8713 58.0338C101.444 58.0338 103.635 58.9378 105.443 60.7458C107.251 62.5538 108.155 64.7443 108.155 67.3172C108.155 69.8901 107.251 72.1153 105.443 73.9928C103.635 75.8008 101.444 76.7048 98.8713 76.7048C96.2984 76.7048 94.0731 75.8008 92.1956 73.9928C90.3876 72.1153 89.4836 69.8901 89.4836 67.3172Z" fill="#FF9EA7" fill-opacity="0.75"/>
<path d="M37.9266 75.0358C38.2743 69.6814 39.213 64.3617 40.7429 59.0768C42.3422 53.7224 44.637 48.2985 47.6271 42.805C50.6172 37.2419 54.3027 31.5746 58.6836 25.8029C63.1341 19.9617 68.3842 13.8772 74.434 7.54923C74.8512 7.20154 75.0251 6.88862 74.9555 6.61047C74.9555 6.26278 74.6774 6.15847 74.1211 6.29754C71.8958 6.71477 69.2534 7.44492 66.1937 8.48799C63.1341 9.53106 59.9353 10.7827 56.5975 12.243C53.2597 13.7033 49.8871 15.3375 46.4797 17.1455C43.0724 18.8839 39.9084 20.6919 36.9878 22.5694C35.2494 23.682 34.3801 23.3343 34.3801 21.5264V1.39512C34.3801 0.69974 34.7278 0.352051 35.4232 0.352051H82.1527C82.8481 0.352051 83.1958 0.69974 83.1958 1.39512V3.58556C83.1958 3.86371 83.0567 4.17663 82.7785 4.52432C82.5699 4.87202 82.2918 5.35878 81.9441 5.98462C75.9638 16.3458 71.4439 25.3509 68.3842 33.0001C65.3941 40.5798 63.2731 47.1163 62.0215 52.6098C60.7698 58.1033 60.1092 62.658 60.0396 66.274C59.9701 69.8205 59.9353 72.741 59.9353 75.0358H37.9266Z" fill="#FF9EA7" fill-opacity="0.75"/>
<path d="M6.93205 74.8271C8.18373 72.4628 9.08772 69.5422 9.64403 66.0653C10.2699 62.5189 10.5828 58.0337 10.5828 52.6097V25.2813C10.5828 22.6389 9.81787 20.7266 8.28804 19.5445C6.82774 18.3623 4.53299 17.7712 1.40378 17.7712C0.638865 17.7712 0.221638 17.4931 0.1521 16.9368C0.1521 16.3109 0.46502 15.8937 1.09086 15.6851C4.28961 14.642 7.17543 13.4599 9.74834 12.1387C12.3212 10.8174 14.616 9.49621 16.6326 8.17499C18.7187 6.85377 20.5615 5.60209 22.1609 4.41994C23.7602 3.16826 25.2205 2.12519 26.5417 1.29074C26.8894 1.08212 27.1328 1.08212 27.2719 1.29074C27.4805 1.49935 27.5848 1.7775 27.5848 2.12519V52.6097C27.5848 58.0337 27.863 62.5189 28.4193 66.0653C29.0451 69.5422 29.9839 72.4628 31.2356 74.8271V75.0357H6.93205V74.8271Z" fill="#FF9EA7" fill-opacity="0.75"/>
<path d="M223.632 149.192L226.859 144.866L224.061 141.094H226.086L228.043 143.634L229.858 141.094H231.93L229.094 144.866L232.284 149.192H230.269L227.958 146.136L225.704 149.192H223.632Z" fill="#F6EBC8"/>
<path d="M216.918 141.103V144.484H217.911C218.599 144.484 219.175 144.608 219.64 144.856C220.105 145.06 220.461 145.343 220.709 145.706C220.964 146.062 221.091 146.467 221.091 146.919C221.091 147.377 220.961 147.778 220.7 148.122C220.445 148.459 220.079 148.724 219.602 148.915C219.13 149.099 218.583 149.192 217.959 149.192H215.113V141.103H216.918ZM216.918 148.074H217.739C218.013 148.074 218.335 147.972 218.704 147.769C219.06 147.565 219.239 147.275 219.239 146.9C219.239 146.085 218.739 145.677 217.739 145.677H216.918V148.074ZM221.502 149.192H223.211L223.202 141.094H221.502V149.192Z" fill="#F6EBC8"/>
<path d="M212.535 145.706H208.858V149.191H207.149V141.122H208.849V144.168H212.535V141.122H214.235L214.244 149.191H212.535V145.706Z" fill="#F6EBC8"/>
<path d="M198.936 147.635H203.587V142.469H200.885C200.751 145.404 200.102 147.126 198.936 147.635ZM197.093 147.673C198.258 147.164 198.898 144.974 199.013 141.103H205.43V147.673H206.366V150.872H204.523V149.287H197.981V150.872H196.138V147.673H197.093Z" fill="#F6EBC8"/>
<path d="M191.373 140.816C192.207 140.816 192.955 141.001 193.617 141.37C194.28 141.74 194.795 142.258 195.164 142.927C195.534 143.589 195.718 144.34 195.718 145.181C195.718 146.008 195.534 146.75 195.164 147.406C194.795 148.061 194.276 148.571 193.608 148.934C192.939 149.29 192.182 149.468 191.335 149.468C190.507 149.468 189.769 149.281 189.12 148.905C188.47 148.542 187.964 148.03 187.601 147.367C187.245 146.699 187.066 145.945 187.066 145.104C187.066 144.283 187.248 143.548 187.611 142.898C187.974 142.242 188.483 141.733 189.139 141.37C189.794 141.001 190.539 140.816 191.373 140.816ZM191.392 142.383C190.858 142.383 190.399 142.516 190.017 142.784C189.635 143.045 189.349 143.385 189.158 143.805C188.967 144.226 188.871 144.678 188.871 145.161C188.871 145.639 188.967 146.088 189.158 146.508C189.349 146.922 189.635 147.262 190.017 147.53C190.399 147.791 190.858 147.921 191.392 147.921C191.921 147.921 192.37 147.791 192.739 147.53C193.114 147.269 193.395 146.925 193.579 146.498C193.77 146.072 193.866 145.626 193.866 145.161C193.866 144.684 193.77 144.232 193.579 143.805C193.395 143.379 193.114 143.035 192.739 142.774C192.363 142.513 191.914 142.383 191.392 142.383Z" fill="#F6EBC8"/>
<path d="M182.702 142.383C181.957 142.383 181.375 142.663 180.955 143.223C180.534 143.777 180.324 144.429 180.324 145.181C180.324 145.658 180.413 146.11 180.592 146.537C180.77 146.963 181.034 147.307 181.384 147.568C181.734 147.829 182.155 147.96 182.645 147.96C183.154 147.96 183.587 147.826 183.944 147.559C184.307 147.291 184.577 146.941 184.755 146.508C184.934 146.069 185.023 145.607 185.023 145.123C185.023 144.659 184.934 144.216 184.755 143.796C184.583 143.369 184.322 143.029 183.972 142.774C183.622 142.513 183.199 142.383 182.702 142.383ZM178.71 153.05V141.084L180.439 141.093V142.087C181.031 141.265 181.865 140.855 182.941 140.855C183.737 140.855 184.421 141.062 184.994 141.475C185.573 141.889 186.006 142.427 186.293 143.089C186.586 143.751 186.732 144.455 186.732 145.2C186.732 145.938 186.592 146.629 186.312 147.272C186.032 147.915 185.608 148.434 185.042 148.829C184.482 149.223 183.807 149.421 183.017 149.421C181.941 149.421 181.082 149.016 180.439 148.208V153.05H178.71Z" fill="#F6EBC8"/>
<path d="M170.651 151.503L172.532 146.995L174.222 147.606L171.911 152.009L170.651 151.503Z" fill="#F6EBC8"/>
<path d="M163.106 149.192L166.334 144.866L163.536 141.094H165.561L167.518 143.634L169.333 141.094H171.405L168.569 144.866L171.758 149.192H169.743L167.432 146.136L165.179 149.192H163.106Z" fill="#F6EBC8"/>
<path d="M156.393 141.103V144.484H157.386C158.074 144.484 158.65 144.608 159.115 144.856C159.579 145.06 159.936 145.343 160.184 145.706C160.439 146.062 160.566 146.467 160.566 146.919C160.566 147.377 160.436 147.778 160.175 148.122C159.92 148.459 159.554 148.724 159.076 148.915C158.605 149.099 158.058 149.192 157.434 149.192H154.588V141.103H156.393ZM156.393 148.074H157.214C157.488 148.074 157.81 147.972 158.179 147.769C158.535 147.565 158.714 147.275 158.714 146.9C158.714 146.085 158.214 145.677 157.214 145.677H156.393V148.074ZM160.977 149.192H162.686L162.677 141.094H160.977V149.192Z" fill="#F6EBC8"/>
<path d="M147.502 149.192V141.103H150.348C151.195 141.103 151.857 141.284 152.335 141.647C152.812 142.01 153.051 142.507 153.051 143.137C153.051 143.576 152.911 143.952 152.631 144.264C152.357 144.57 151.984 144.761 151.513 144.837C152.239 144.881 152.809 145.107 153.223 145.515C153.636 145.922 153.843 146.397 153.843 146.938C153.843 147.186 153.796 147.428 153.7 147.664C153.611 147.899 153.468 148.122 153.27 148.332C153.073 148.536 152.841 148.701 152.573 148.829C152.096 149.071 151.411 149.192 150.52 149.192H147.502ZM149.135 148.16H150.386C151.513 148.224 152.077 147.794 152.077 146.871C152.077 145.941 151.491 145.477 150.32 145.477H149.135V148.16ZM149.135 144.273H149.899C150.37 144.273 150.743 144.175 151.017 143.977C151.278 143.786 151.408 143.519 151.408 143.175C151.408 142.882 151.271 142.641 150.998 142.45C150.724 142.259 150.399 142.163 150.024 142.163H149.135V144.273Z" fill="#F6EBC8"/>
<path d="M144.781 149.239V144.14L138.659 149.526V141.113H140.483V146.183L146.605 140.711V149.239H144.781Z" fill="#F6EBC8"/>
<path d="M135.804 142.707H133.111V145.668C133.111 146.177 133.057 146.661 132.949 147.119C132.834 147.571 132.656 147.979 132.414 148.342C132.172 148.704 131.857 148.991 131.469 149.201C131.08 149.405 130.625 149.507 130.103 149.507C129.982 149.507 129.864 149.5 129.75 149.488V147.778C129.826 147.791 129.906 147.797 129.988 147.797C130.453 147.797 130.781 147.644 130.972 147.339C131.163 147.027 131.259 146.508 131.259 145.782L131.249 141.113H137.647V149.191H135.804V142.707Z" fill="#F6EBC8"/>
<path d="M122.807 141.103H128.986L129.014 142.545H126.789V149.192H125.032V142.545H122.779L122.807 141.103Z" fill="#F6EBC8"/>
<path d="M122.234 148.781C121.298 149.239 120.394 149.468 119.522 149.468C118.758 149.468 118.071 149.287 117.459 148.924C116.848 148.555 116.371 148.049 116.027 147.406C115.677 146.756 115.502 146.027 115.502 145.219C115.502 144.576 115.623 143.984 115.865 143.442C116.113 142.901 116.444 142.437 116.858 142.048C117.278 141.654 117.752 141.354 118.281 141.151C118.815 140.94 119.366 140.835 119.933 140.835C120.773 140.835 121.54 141.052 122.234 141.485V143.519C121.578 142.838 120.795 142.497 119.885 142.497C119.178 142.497 118.573 142.726 118.071 143.185C117.574 143.643 117.326 144.283 117.326 145.104C117.326 145.658 117.424 146.139 117.622 146.546C117.819 146.954 118.106 147.266 118.481 147.482C118.85 147.692 119.287 147.797 119.789 147.797C120.643 147.797 121.457 147.441 122.234 146.728V148.781Z" fill="#F6EBC8"/>
<path d="M113.133 148.208C112.866 148.596 112.506 148.899 112.054 149.115C111.602 149.325 111.102 149.43 110.555 149.43C109.855 149.43 109.218 149.242 108.645 148.867C108.078 148.491 107.633 147.976 107.308 147.32C106.983 146.658 106.821 145.919 106.821 145.104C106.821 144.309 106.987 143.586 107.318 142.937C107.655 142.287 108.117 141.778 108.702 141.409C109.294 141.039 109.95 140.855 110.67 140.855C111.777 140.855 112.599 141.265 113.133 142.087V141.093H114.862V149.192H113.133V148.208ZM110.927 142.383C110.431 142.383 110.001 142.513 109.638 142.774C109.282 143.035 109.011 143.382 108.826 143.815C108.648 144.248 108.559 144.703 108.559 145.181C108.559 145.652 108.648 146.101 108.826 146.527C109.011 146.954 109.282 147.301 109.638 147.568C110.001 147.829 110.431 147.96 110.927 147.96C111.418 147.96 111.838 147.829 112.188 147.568C112.538 147.301 112.802 146.951 112.981 146.518C113.165 146.085 113.257 145.626 113.257 145.142C113.257 144.671 113.172 144.223 113 143.796C112.815 143.376 112.548 143.035 112.197 142.774C111.847 142.513 111.424 142.383 110.927 142.383Z" fill="#F6EBC8"/>
<path d="M104.415 145.706C102.123 146.565 100.283 145.878 98.895 143.643V141.122H100.614L100.595 143.271C101.136 144.811 102.409 145.111 104.415 144.168V141.122H106.115L106.124 149.191H104.415V145.706Z" fill="#F6EBC8"/>
<path d="M98.513 148.781C97.5771 149.239 96.6731 149.468 95.8009 149.468C95.0369 149.468 94.3494 149.287 93.7382 148.924C93.127 148.555 92.6495 148.049 92.3057 147.406C91.9556 146.756 91.7805 146.027 91.7805 145.219C91.7805 144.576 91.9015 143.984 92.1434 143.442C92.3917 142.901 92.7227 142.437 93.1366 142.048C93.5567 141.654 94.031 141.354 94.5594 141.151C95.0942 140.94 95.6449 140.835 96.2115 140.835C97.0519 140.835 97.819 141.052 98.513 141.485V143.519C97.8572 142.838 97.0742 142.497 96.1638 142.497C95.4571 142.497 94.8523 142.726 94.3494 143.185C93.8528 143.643 93.6045 144.283 93.6045 145.104C93.6045 145.658 93.7032 146.139 93.9005 146.546C94.0979 146.954 94.3844 147.266 94.76 147.482C95.1292 147.692 95.5653 147.797 96.0683 147.797C96.9214 147.797 97.7363 147.441 98.513 146.728V148.781Z" fill="#F6EBC8"/>
<path d="M83.9785 151.503L85.8598 146.995L87.5501 147.606L85.2391 152.009L83.9785 151.503Z" fill="#F6EBC8"/>
<path d="M76.4343 149.192L79.6621 144.866L76.8641 141.094H78.8886L80.8462 143.634L82.6607 141.094H84.7329L81.8967 144.866L85.0862 149.192H83.0713L80.7603 146.136L78.5066 149.192H76.4343Z" fill="#F6EBC8"/>
<path d="M69.7209 141.103V144.484H70.714C71.4016 144.484 71.9778 144.608 72.4425 144.856C72.9073 145.06 73.2638 145.343 73.5121 145.706C73.7667 146.062 73.8941 146.467 73.8941 146.919C73.8941 147.377 73.7635 147.778 73.5025 148.122C73.2479 148.459 72.8818 148.724 72.4043 148.915C71.9332 149.099 71.3857 149.192 70.7618 149.192H67.916V141.103H69.7209ZM69.7209 148.074H70.5422C70.8159 148.074 71.1374 147.972 71.5067 147.769C71.8632 147.565 72.0414 147.275 72.0414 146.9C72.0414 146.085 71.5417 145.677 70.5422 145.677H69.7209V148.074ZM74.3047 149.192H76.0141L76.0045 141.094H74.3047V149.192Z" fill="#F6EBC8"/>
<path d="M60.8303 149.192V141.103H63.6761C64.5228 141.103 65.1849 141.284 65.6624 141.647C66.1399 142.01 66.3786 142.507 66.3786 143.137C66.3786 143.576 66.2386 143.952 65.9584 144.264C65.6847 144.57 65.3123 144.761 64.8411 144.837C65.5669 144.881 66.1367 145.107 66.5505 145.515C66.9643 145.922 67.1712 146.397 67.1712 146.938C67.1712 147.186 67.1235 147.428 67.028 147.664C66.9389 147.899 66.7956 148.122 66.5983 148.332C66.4009 148.536 66.1685 148.701 65.9012 148.829C65.4237 149.071 64.7393 149.192 63.848 149.192H60.8303ZM62.4633 148.16H63.7143C64.8411 148.224 65.4046 147.794 65.4046 146.871C65.4046 145.941 64.8189 145.477 63.6474 145.477H62.4633V148.16ZM62.4633 144.273H63.2273C63.6984 144.273 64.0708 144.175 64.3446 143.977C64.6056 143.786 64.7361 143.519 64.7361 143.175C64.7361 142.882 64.5992 142.641 64.3255 142.45C64.0517 142.259 63.727 142.163 63.3514 142.163H62.4633V144.273Z" fill="#F6EBC8"/>
<path d="M58.1088 149.239V144.14L51.9875 149.526V141.113H53.8115V146.183L59.9328 140.711V149.239H58.1088Z" fill="#F6EBC8"/>
<path d="M51.51 148.781C50.5742 149.239 49.6702 149.468 48.798 149.468C48.034 149.468 47.3464 149.287 46.7353 148.924C46.1241 148.555 45.6466 148.049 45.3028 147.406C44.9527 146.756 44.7776 146.027 44.7776 145.219C44.7776 144.576 44.8985 143.984 45.1405 143.442C45.3888 142.901 45.7198 142.437 46.1336 142.048C46.5538 141.654 47.0281 141.354 47.5565 141.151C48.0913 140.94 48.642 140.835 49.2086 140.835C50.049 140.835 50.8161 141.052 51.51 141.485V143.519C50.8543 142.838 50.0712 142.497 49.1608 142.497C48.4542 142.497 47.8494 142.726 47.3464 143.185C46.8498 143.643 46.6016 144.283 46.6016 145.104C46.6016 145.658 46.7002 146.139 46.8976 146.546C47.095 146.954 47.3814 147.266 47.7571 147.482C48.1263 147.692 48.5624 147.797 49.0654 147.797C49.9184 147.797 50.7333 147.441 51.51 146.728V148.781Z" fill="#F6EBC8"/>
<path d="M42.4092 148.208C42.1418 148.596 41.7821 148.899 41.3301 149.115C40.8781 149.325 40.3783 149.43 39.8308 149.43C39.1305 149.43 38.4939 149.242 37.9209 148.867C37.3543 148.491 36.9086 147.976 36.584 147.32C36.2593 146.658 36.0969 145.919 36.0969 145.104C36.0969 144.309 36.2624 143.586 36.5935 142.937C36.9309 142.287 37.3925 141.778 37.9782 141.409C38.5703 141.039 39.226 140.855 39.9454 140.855C41.0532 140.855 41.8744 141.265 42.4092 142.087V141.093H44.1377V149.192H42.4092V148.208ZM40.2032 142.383C39.7067 142.383 39.2769 142.513 38.9141 142.774C38.5575 143.035 38.287 143.382 38.1023 143.815C37.9241 144.248 37.8349 144.703 37.8349 145.181C37.8349 145.652 37.9241 146.101 38.1023 146.527C38.287 146.954 38.5575 147.301 38.9141 147.568C39.2769 147.829 39.7067 147.96 40.2032 147.96C40.6935 147.96 41.1136 147.829 41.4638 147.568C41.8139 147.301 42.0781 146.951 42.2564 146.518C42.441 146.085 42.5333 145.626 42.5333 145.142C42.5333 144.671 42.4474 144.223 42.2755 143.796C42.0909 143.376 41.8235 143.035 41.4733 142.774C41.1232 142.513 40.6998 142.383 40.2032 142.383Z" fill="#F6EBC8"/>
<path d="M31.5703 142.383C30.8255 142.383 30.2429 142.663 29.8228 143.223C29.4026 143.777 29.1925 144.429 29.1925 145.181C29.1925 145.658 29.2816 146.11 29.4599 146.537C29.6381 146.963 29.9023 147.307 30.2525 147.568C30.6026 147.829 31.0228 147.96 31.513 147.96C32.0224 147.96 32.4553 147.826 32.8118 147.559C33.1747 147.291 33.4452 146.941 33.6235 146.508C33.8018 146.069 33.8909 145.607 33.8909 145.123C33.8909 144.659 33.8018 144.216 33.6235 143.796C33.4516 143.369 33.1906 143.029 32.8404 142.774C32.4903 142.513 32.0669 142.383 31.5703 142.383ZM27.5786 153.05V141.084L29.3071 141.093V142.087C29.8992 141.265 30.7332 140.855 31.8091 140.855C32.6049 140.855 33.2893 141.062 33.8622 141.475C34.4416 141.889 34.8745 142.427 35.161 143.089C35.4538 143.751 35.6003 144.455 35.6003 145.2C35.6003 145.938 35.4602 146.629 35.1801 147.272C34.9 147.915 34.4766 148.434 33.91 148.829C33.3497 149.223 32.6749 149.421 31.8855 149.421C30.8096 149.421 29.9501 149.016 29.3071 148.208V153.05H27.5786Z" fill="#F6EBC8"/>
<path d="M21.7629 141.094V144.044L24.5705 141.094H26.8433L23.1476 144.694L27.1584 149.192H24.8283L21.7629 145.496V149.192H20.0344V141.094H21.7629Z" fill="#F6EBC8"/>
<path d="M176.008 123.175V126.556H177.001C177.688 126.556 178.265 126.68 178.729 126.928C179.194 127.132 179.551 127.415 179.799 127.778C180.054 128.135 180.181 128.539 180.181 128.991C180.181 129.449 180.05 129.85 179.789 130.194C179.535 130.532 179.169 130.796 178.691 130.987C178.22 131.171 177.673 131.264 177.049 131.264H174.203V123.175H176.008ZM176.008 130.146H176.829C177.103 130.146 177.424 130.045 177.794 129.841C178.15 129.637 178.328 129.348 178.328 128.972C178.328 128.157 177.829 127.75 176.829 127.75H176.008V130.146Z" fill="#F6EBC8"/>
<path d="M167.251 123.175H173.429L173.458 124.617H171.233V131.264H169.476V124.617H167.222L167.251 123.175Z" fill="#F6EBC8"/>
<path d="M164.682 131.264V127.778L161.244 131.264H159L162.973 127.702C162.699 127.689 162.346 127.629 161.913 127.52C161.48 127.412 161.11 127.259 160.805 127.062C160.499 126.858 160.264 126.62 160.098 126.346C159.939 126.066 159.859 125.754 159.859 125.41C159.859 124.69 160.222 124.14 160.948 123.758C161.68 123.369 162.613 123.175 163.746 123.175H166.506V131.264H164.682ZM164.682 124.254H164.119C163.265 124.254 162.645 124.359 162.256 124.57C161.874 124.78 161.683 125.092 161.683 125.505C161.683 125.894 161.884 126.215 162.285 126.47C162.693 126.718 163.265 126.842 164.004 126.842H164.682V124.254Z" fill="#F6EBC8"/>
<path d="M146.891 131.311L149.737 122.526L152.802 128.37L156.336 122.526L159.067 131.311H157.195L155.61 125.945L152.726 131.598L150.31 125.926L148.782 131.311H146.891Z" fill="#F6EBC8"/>
<path d="M144.685 130.28C144.418 130.669 144.058 130.971 143.606 131.187C143.154 131.397 142.654 131.503 142.107 131.503C141.407 131.503 140.77 131.315 140.197 130.939C139.63 130.563 139.185 130.048 138.86 129.392C138.535 128.73 138.373 127.991 138.373 127.177C138.373 126.381 138.539 125.658 138.87 125.009C139.207 124.359 139.669 123.85 140.254 123.481C140.846 123.112 141.502 122.927 142.222 122.927C143.329 122.927 144.151 123.338 144.685 124.159V123.166H146.414V131.264H144.685V130.28ZM142.479 124.455C141.983 124.455 141.553 124.585 141.19 124.846C140.834 125.107 140.563 125.454 140.378 125.887C140.2 126.32 140.111 126.775 140.111 127.253C140.111 127.724 140.2 128.173 140.378 128.599C140.563 129.026 140.834 129.373 141.19 129.64C141.553 129.901 141.983 130.032 142.479 130.032C142.97 130.032 143.39 129.901 143.74 129.64C144.09 129.373 144.354 129.023 144.533 128.59C144.717 128.157 144.809 127.699 144.809 127.215C144.809 126.744 144.724 126.295 144.552 125.868C144.367 125.448 144.1 125.107 143.749 124.846C143.399 124.585 142.976 124.455 142.479 124.455Z" fill="#F6EBC8"/>
<path d="M135.967 124.751H132.29V131.264H130.581V123.194H137.666L137.676 131.264H135.967V124.751Z" fill="#F6EBC8"/>
<path d="M123.848 130.28C123.581 130.669 123.221 130.971 122.769 131.187C122.317 131.397 121.817 131.503 121.27 131.503C120.569 131.503 119.933 131.315 119.36 130.939C118.793 130.563 118.347 130.048 118.023 129.392C117.698 128.73 117.536 127.991 117.536 127.177C117.536 126.381 117.701 125.658 118.032 125.009C118.37 124.359 118.831 123.85 119.417 123.481C120.009 123.112 120.665 122.927 121.384 122.927C122.492 122.927 123.313 123.338 123.848 124.159V123.166H125.576V131.264H123.848V130.28ZM121.642 124.455C121.145 124.455 120.716 124.585 120.353 124.846C119.996 125.107 119.726 125.454 119.541 125.887C119.363 126.32 119.274 126.775 119.274 127.253C119.274 127.724 119.363 128.173 119.541 128.599C119.726 129.026 119.996 129.373 120.353 129.64C120.716 129.901 121.145 130.032 121.642 130.032C122.132 130.032 122.552 129.901 122.903 129.64C123.253 129.373 123.517 129.023 123.695 128.59C123.88 128.157 123.972 127.699 123.972 127.215C123.972 126.744 123.886 126.295 123.714 125.868C123.53 125.448 123.262 125.107 122.912 124.846C122.562 124.585 122.139 124.455 121.642 124.455Z" fill="#F6EBC8"/>
<path d="M115.129 127.778H111.453V131.264H109.743V123.194H111.443V126.241H115.129V123.194H116.829L116.839 131.264H115.129V127.778Z" fill="#F6EBC8"/>
<path d="M93.1079 131.311L95.9537 122.526L99.0191 128.37L102.552 122.526L105.284 131.311H103.412L101.827 125.945L98.9427 131.598L96.5267 125.926L94.9987 131.311H93.1079Z" fill="#F6EBC8"/>
<path d="M90.6728 131.311V126.212L84.5515 131.598V123.185H86.3755V128.256L92.4968 122.784V131.311H90.6728Z" fill="#F6EBC8"/>
<path d="M81.6963 124.78H79.0033V127.74C79.0033 128.249 78.9492 128.733 78.841 129.192C78.7264 129.644 78.5481 130.051 78.3062 130.414C78.0643 130.777 77.7491 131.063 77.3608 131.273C76.9724 131.477 76.5172 131.579 75.9952 131.579C75.8742 131.579 75.7564 131.573 75.6418 131.56V129.85C75.7182 129.863 75.7978 129.87 75.8806 129.87C76.3453 129.87 76.6732 129.717 76.8642 129.411C77.0552 129.099 77.1507 128.58 77.1507 127.855L77.1411 123.185H83.5394V131.264H81.6963V124.78Z" fill="#F6EBC8"/>
<path d="M68.6993 123.175H74.8779L74.9065 124.617H72.6815V131.264H70.9244V124.617H68.6707L68.6993 123.175Z" fill="#F6EBC8"/>
<path d="M66.073 130.28C65.8056 130.669 65.4459 130.971 64.9939 131.187C64.5419 131.397 64.0421 131.503 63.4946 131.503C62.7943 131.503 62.1577 131.315 61.5847 130.939C61.0181 130.563 60.5725 130.048 60.2478 129.392C59.9231 128.73 59.7607 127.991 59.7607 127.177C59.7607 126.381 59.9263 125.658 60.2573 125.009C60.5947 124.359 61.0563 123.85 61.642 123.481C62.2341 123.112 62.8898 122.927 63.6092 122.927C64.717 122.927 65.5382 123.338 66.073 124.159V123.166H67.8015V131.264H66.073V130.28ZM63.8671 124.455C63.3705 124.455 62.9408 124.585 62.5779 124.846C62.2214 125.107 61.9508 125.454 61.7662 125.887C61.5879 126.32 61.4988 126.775 61.4988 127.253C61.4988 127.724 61.5879 128.173 61.7662 128.599C61.9508 129.026 62.2214 129.373 62.5779 129.64C62.9408 129.901 63.3705 130.032 63.8671 130.032C64.3573 130.032 64.7775 129.901 65.1276 129.64C65.4778 129.373 65.742 129.023 65.9202 128.59C66.1048 128.157 66.1972 127.699 66.1972 127.215C66.1972 126.744 66.1112 126.295 65.9393 125.868C65.7547 125.448 65.4873 125.107 65.1372 124.846C64.787 124.585 64.3636 124.455 63.8671 124.455Z" fill="#F6EBC8"/>
<path d="M57.3544 127.778C55.0625 128.638 53.2226 127.95 51.8347 125.715V123.194H53.5536L53.5345 125.343C54.0757 126.884 55.349 127.183 57.3544 126.241V123.194H59.0542L59.0638 131.264H57.3544V127.778Z" fill="#F6EBC8"/>
<path d="M51.6151 129.191C50.6665 130.783 49.3677 131.579 47.7188 131.579C47.114 131.579 46.5665 131.48 46.0763 131.283C45.5797 131.079 45.1532 130.786 44.7967 130.404C44.4465 130.022 44.1759 129.567 43.9849 129.039C43.8003 128.504 43.708 127.921 43.708 127.291C43.708 126.642 43.8003 126.043 43.9849 125.496C44.1759 124.942 44.4433 124.474 44.7871 124.092C45.1373 123.704 45.5543 123.408 46.0381 123.204C46.522 122.994 47.0567 122.889 47.6424 122.889C48.2982 122.889 48.8934 123.022 49.4282 123.29C49.963 123.551 50.4054 123.926 50.7556 124.417C51.0357 124.779 51.2331 125.187 51.3477 125.639C51.4623 126.091 51.5387 126.721 51.5769 127.53H45.4747C45.4938 128.026 45.602 128.466 45.7994 128.848C46.0031 129.23 46.2737 129.522 46.6111 129.726C46.9549 129.93 47.3496 130.032 47.7952 130.032C48.782 130.032 49.5906 129.449 50.2208 128.284L51.6151 129.191ZM45.6275 126.202H49.7433C49.6415 125.623 49.4187 125.181 49.0749 124.875C48.7311 124.569 48.2918 124.417 47.757 124.417C46.592 124.417 45.8821 125.012 45.6275 126.202Z" fill="#F6EBC8"/>
<path d="M41.5019 124.751H37.8253V131.264H36.116V123.194H43.2018L43.2113 131.264H41.5019V124.751Z" fill="#F6EBC8"/>
<path d="M33.5471 130.28C33.2797 130.669 32.92 130.971 32.468 131.187C32.016 131.397 31.5163 131.503 30.9688 131.503C30.2684 131.503 29.6318 131.315 29.0588 130.939C28.4922 130.563 28.0466 130.048 27.7219 129.392C27.3972 128.73 27.2349 127.991 27.2349 127.177C27.2349 126.381 27.4004 125.658 27.7314 125.009C28.0689 124.359 28.5304 123.85 29.1161 123.481C29.7082 123.112 30.3639 122.927 31.0833 122.927C32.1911 122.927 33.0124 123.338 33.5471 124.159V123.166H35.2756V131.264H33.5471V130.28ZM31.3412 124.455C30.8446 124.455 30.4149 124.585 30.052 124.846C29.6955 125.107 29.4249 125.454 29.2403 125.887C29.062 126.32 28.9729 126.775 28.9729 127.253C28.9729 127.724 29.062 128.173 29.2403 128.599C29.4249 129.026 29.6955 129.373 30.052 129.64C30.4149 129.901 30.8446 130.032 31.3412 130.032C31.8314 130.032 32.2516 129.901 32.6017 129.64C32.9519 129.373 33.2161 129.023 33.3943 128.59C33.579 128.157 33.6713 127.699 33.6713 127.215C33.6713 126.744 33.5853 126.295 33.4134 125.868C33.2288 125.448 32.9614 125.107 32.6113 124.846C32.2611 124.585 31.8378 124.455 31.3412 124.455Z" fill="#F6EBC8"/>
<path d="M21.5147 126.661H22.9566C24.2172 126.553 24.8475 126.136 24.8475 125.41C24.8475 125.034 24.6787 124.741 24.3413 124.531C24.0103 124.315 23.5646 124.207 23.0044 124.207C22.1067 124.181 21.0977 124.232 19.9772 124.359V123.395C21.3077 123.166 22.3168 123.067 23.0044 123.099C23.692 123.124 24.2936 123.226 24.8093 123.404C25.3249 123.583 25.7197 123.841 25.9934 124.178C26.2735 124.509 26.4136 124.897 26.4136 125.343C26.4136 125.827 26.2672 126.209 25.9743 126.489C25.6815 126.769 25.2167 126.966 24.5801 127.081C26.0507 127.253 26.786 127.912 26.786 129.058C26.786 129.561 26.6014 129.997 26.2321 130.366C25.8629 130.742 25.3791 131.031 24.7806 131.235C24.1822 131.432 23.5519 131.537 22.8898 131.55C22.2277 131.569 21.5815 131.522 20.9512 131.407C20.3273 131.299 19.9613 131.241 19.853 131.235V130.185C21.3491 130.395 22.3996 130.5 23.0044 130.5C23.6538 130.5 24.179 130.372 24.5801 130.118C24.9812 129.863 25.1817 129.519 25.1817 129.086C25.1817 128.227 24.4718 127.74 23.0521 127.625H21.5147V126.661Z" fill="#F6EBC8"/>
<path d="M245.5 113.336L248.728 109.01L245.93 105.238H247.954L249.912 107.778L251.727 105.238H253.799L250.963 109.01L254.152 113.336H252.137L249.826 110.28L247.573 113.336H245.5Z" fill="#F6EBC8"/>
<path d="M243.543 113.336V109.85L240.105 113.336H237.861L241.833 109.774C241.559 109.761 241.206 109.701 240.773 109.593C240.34 109.484 239.971 109.332 239.665 109.134C239.36 108.931 239.124 108.692 238.959 108.418C238.8 108.138 238.72 107.826 238.72 107.482C238.72 106.763 239.083 106.212 239.809 105.83C240.541 105.442 241.474 105.248 242.607 105.248H245.367V113.336H243.543ZM243.543 106.327H242.979C242.126 106.327 241.505 106.432 241.117 106.642C240.735 106.852 240.544 107.164 240.544 107.578C240.544 107.966 240.745 108.288 241.146 108.542C241.553 108.79 242.126 108.915 242.865 108.915H243.543V106.327Z" fill="#F6EBC8"/>
<path d="M235.425 113.384V108.284L229.304 113.67V105.257H231.128V110.328L237.249 104.856V113.384H235.425Z" fill="#F6EBC8"/>
<path d="M227.136 114.95V113.336H220.805V105.267H222.514V111.779H226.191V105.267H227.9L227.891 111.789H228.616V114.95H227.136Z" fill="#F6EBC8"/>
<path d="M218.236 112.352C217.969 112.741 217.609 113.043 217.157 113.26C216.705 113.47 216.205 113.575 215.658 113.575C214.957 113.575 214.321 113.387 213.748 113.011C213.181 112.636 212.736 112.12 212.411 111.464C212.086 110.802 211.924 110.064 211.924 109.249C211.924 108.453 212.089 107.73 212.42 107.081C212.758 106.432 213.219 105.922 213.805 105.553C214.397 105.184 215.053 104.999 215.772 104.999C216.88 104.999 217.701 105.41 218.236 106.231V105.238H219.965V113.336H218.236V112.352ZM216.03 106.527C215.534 106.527 215.104 106.658 214.741 106.919C214.384 107.18 214.114 107.527 213.929 107.96C213.751 108.393 213.662 108.848 213.662 109.325C213.662 109.796 213.751 110.245 213.929 110.672C214.114 111.098 214.384 111.445 214.741 111.713C215.104 111.974 215.534 112.104 216.03 112.104C216.52 112.104 216.941 111.974 217.291 111.713C217.641 111.445 217.905 111.095 218.083 110.662C218.268 110.229 218.36 109.771 218.36 109.287C218.36 108.816 218.274 108.367 218.102 107.941C217.918 107.52 217.65 107.18 217.3 106.919C216.95 106.658 216.527 106.527 216.03 106.527Z" fill="#F6EBC8"/>
<path d="M209.517 109.85H205.841V113.336H204.131V105.267H205.831V108.313H209.517V105.267H211.217L211.227 113.336H209.517V109.85Z" fill="#F6EBC8"/>
<path d="M201.333 113.384V108.284L195.212 113.67V105.257H197.036V110.328L203.157 104.856V113.384H201.333Z" fill="#F6EBC8"/>
<path d="M190.533 106.527C189.998 106.527 189.54 106.661 189.158 106.928C188.776 107.189 188.489 107.53 188.298 107.95C188.107 108.37 188.012 108.822 188.012 109.306C188.012 109.783 188.107 110.232 188.298 110.653C188.489 111.066 188.776 111.407 189.158 111.674C189.54 111.935 189.998 112.066 190.533 112.066C191.061 112.066 191.51 111.935 191.879 111.674C192.255 111.413 192.535 111.07 192.72 110.643C192.911 110.216 193.006 109.771 193.006 109.306C193.006 108.829 192.911 108.377 192.72 107.95C192.535 107.523 192.255 107.18 191.879 106.919C191.504 106.658 191.055 106.527 190.533 106.527ZM189.186 103.481C188.588 103.678 188.26 104.369 188.203 105.553C188.228 105.54 188.254 105.524 188.279 105.505C188.935 105.142 189.68 104.961 190.514 104.961C191.348 104.961 192.096 105.146 192.758 105.515C193.42 105.884 193.936 106.403 194.305 107.071C194.674 107.734 194.859 108.485 194.859 109.325C194.859 110.153 194.674 110.894 194.305 111.55C193.936 112.206 193.417 112.715 192.748 113.078C192.08 113.435 191.322 113.613 190.476 113.613C189.648 113.613 188.909 113.425 188.26 113.049C187.611 112.687 187.105 112.174 186.742 111.512C186.385 110.844 186.207 110.089 186.207 109.249C185.984 106.581 186.169 104.713 186.761 103.643C187.353 102.567 188.018 101.975 188.757 101.867C189.514 101.759 190.374 101.705 191.335 101.705C192.303 101.698 193.013 101.272 193.465 100.425L195.145 100.224C194.515 101.969 193.493 102.863 192.08 102.908C190.667 102.952 189.702 103.143 189.186 103.481Z" fill="#F6EBC8"/>
<path d="M174.05 113.384L176.896 104.598L179.961 110.442L183.495 104.598L186.226 113.384H184.354L182.769 108.017L179.885 113.67L177.469 107.998L175.941 113.384H174.05Z" fill="#F6EBC8"/>
<path d="M169.676 104.961C170.51 104.961 171.259 105.146 171.921 105.515C172.583 105.884 173.098 106.403 173.468 107.071C173.837 107.733 174.022 108.485 174.022 109.325C174.022 110.153 173.837 110.894 173.468 111.55C173.098 112.206 172.58 112.715 171.911 113.078C171.243 113.435 170.485 113.613 169.638 113.613C168.811 113.613 168.072 113.425 167.423 113.049C166.773 112.687 166.267 112.174 165.904 111.512C165.548 110.843 165.37 110.089 165.37 109.249C165.37 108.427 165.551 107.692 165.914 107.043C166.277 106.387 166.786 105.878 167.442 105.515C168.098 105.146 168.842 104.961 169.676 104.961ZM169.696 106.527C169.161 106.527 168.702 106.661 168.32 106.928C167.938 107.189 167.652 107.53 167.461 107.95C167.27 108.37 167.175 108.822 167.175 109.306C167.175 109.783 167.27 110.232 167.461 110.652C167.652 111.066 167.938 111.407 168.32 111.674C168.702 111.935 169.161 112.066 169.696 112.066C170.224 112.066 170.673 111.935 171.042 111.674C171.418 111.413 171.698 111.069 171.882 110.643C172.073 110.216 172.169 109.771 172.169 109.306C172.169 108.829 172.073 108.377 171.882 107.95C171.698 107.523 171.418 107.18 171.042 106.919C170.666 106.658 170.218 106.527 169.696 106.527Z" fill="#F6EBC8"/>
<path d="M159.926 105.238V108.189L162.734 105.238H165.007L161.311 108.838L165.322 113.336H162.992L159.926 109.64V113.336H158.198V105.238H159.926Z" fill="#F6EBC8"/>
<path d="M151.179 113.384V108.284L145.058 113.67V105.257H146.882V110.328L153.003 104.856V113.384H151.179Z" fill="#F6EBC8"/>
<path d="M132.013 113.336L135.241 109.01L132.443 105.238H134.467L136.425 107.778L138.239 105.238H140.312L137.475 109.01L140.665 113.336H138.65L136.339 110.28L134.085 113.336H132.013Z" fill="#F6EBC8"/>
<path d="M129.998 112.352C129.731 112.741 129.371 113.043 128.919 113.26C128.467 113.47 127.967 113.575 127.42 113.575C126.719 113.575 126.083 113.387 125.51 113.011C124.943 112.636 124.498 112.12 124.173 111.464C123.848 110.802 123.686 110.064 123.686 109.249C123.686 108.453 123.851 107.73 124.182 107.081C124.52 106.432 124.981 105.922 125.567 105.553C126.159 105.184 126.815 104.999 127.534 104.999C128.642 104.999 129.463 105.41 129.998 106.231V105.238H131.727V113.336H129.998V112.352ZM127.792 106.527C127.296 106.527 126.866 106.658 126.503 106.919C126.146 107.18 125.876 107.527 125.691 107.96C125.513 108.393 125.424 108.848 125.424 109.325C125.424 109.796 125.513 110.245 125.691 110.672C125.876 111.098 126.146 111.445 126.503 111.713C126.866 111.974 127.296 112.104 127.792 112.104C128.282 112.104 128.703 111.974 129.053 111.713C129.403 111.445 129.667 111.095 129.845 110.662C130.03 110.229 130.122 109.771 130.122 109.287C130.122 108.816 130.036 108.367 129.864 107.941C129.68 107.52 129.412 107.18 129.062 106.919C128.712 106.658 128.289 106.527 127.792 106.527Z" fill="#F6EBC8"/>
<path d="M123.323 112.925C122.387 113.384 121.483 113.613 120.611 113.613C119.847 113.613 119.159 113.431 118.548 113.068C117.937 112.699 117.459 112.193 117.116 111.55C116.765 110.901 116.59 110.172 116.59 109.363C116.59 108.72 116.711 108.128 116.953 107.587C117.202 107.046 117.533 106.581 117.946 106.193C118.367 105.798 118.841 105.499 119.369 105.295C119.904 105.085 120.455 104.98 121.021 104.98C121.862 104.98 122.629 105.196 123.323 105.629V107.663C122.667 106.982 121.884 106.642 120.974 106.642C120.267 106.642 119.662 106.871 119.159 107.329C118.663 107.788 118.414 108.427 118.414 109.249C118.414 109.803 118.513 110.283 118.71 110.691C118.908 111.098 119.194 111.41 119.57 111.626C119.939 111.837 120.375 111.942 120.878 111.942C121.731 111.942 122.546 111.585 123.323 110.872V112.925Z" fill="#F6EBC8"/>
<path d="M112.112 106.527C111.367 106.527 110.784 106.807 110.364 107.368C109.944 107.921 109.734 108.574 109.734 109.325C109.734 109.803 109.823 110.255 110.001 110.681C110.179 111.108 110.444 111.452 110.794 111.713C111.144 111.974 111.564 112.104 112.054 112.104C112.564 112.104 112.997 111.97 113.353 111.703C113.716 111.436 113.986 111.086 114.165 110.653C114.343 110.213 114.432 109.752 114.432 109.268C114.432 108.803 114.343 108.361 114.165 107.941C113.993 107.514 113.732 107.173 113.382 106.919C113.032 106.658 112.608 106.527 112.112 106.527ZM108.12 117.194V105.228L109.848 105.238V106.231C110.44 105.41 111.274 104.999 112.35 104.999C113.146 104.999 113.831 105.206 114.403 105.62C114.983 106.034 115.416 106.572 115.702 107.234C115.995 107.896 116.142 108.599 116.142 109.344C116.142 110.083 116.001 110.774 115.721 111.417C115.441 112.06 115.018 112.578 114.451 112.973C113.891 113.368 113.216 113.565 112.427 113.565C111.351 113.565 110.491 113.161 109.848 112.352V117.194H108.12Z" fill="#F6EBC8"/>
<path d="M98.9426 105.238H100.996L103.46 109.888L105.694 105.238H107.633L101.722 117.194H99.8403L102.562 111.751L98.9426 105.238Z" fill="#F6EBC8"/>
<path d="M93.5759 105.238V108.189L96.3835 105.238H98.6563L94.9606 108.838L98.9714 113.336H96.6413L93.5759 109.64V113.336H91.8474V105.238H93.5759Z" fill="#F6EBC8"/>
<path d="M89.2212 112.352C88.9538 112.741 88.5941 113.043 88.1421 113.26C87.6901 113.47 87.1903 113.575 86.6428 113.575C85.9425 113.575 85.3059 113.387 84.7329 113.011C84.1663 112.636 83.7207 112.12 83.396 111.464C83.0713 110.802 82.9089 110.064 82.9089 109.249C82.9089 108.453 83.0745 107.73 83.4055 107.081C83.7429 106.432 84.2045 105.922 84.7902 105.553C85.3823 105.184 86.038 104.999 86.7574 104.999C87.8652 104.999 88.6864 105.41 89.2212 106.231V105.238H90.9497V113.336H89.2212V112.352ZM87.0153 106.527C86.5187 106.527 86.0889 106.658 85.7261 106.919C85.3695 107.18 85.099 107.527 84.9143 107.96C84.7361 108.393 84.647 108.848 84.647 109.325C84.647 109.796 84.7361 110.245 84.9143 110.672C85.099 111.098 85.3695 111.445 85.7261 111.713C86.0889 111.974 86.5187 112.104 87.0153 112.104C87.5055 112.104 87.9256 111.974 88.2758 111.713C88.626 111.445 88.8902 111.095 89.0684 110.662C89.253 110.229 89.3454 109.771 89.3454 109.287C89.3454 108.816 89.2594 108.367 89.0875 107.941C88.9029 107.52 88.6355 107.18 88.2854 106.919C87.9352 106.658 87.5118 106.527 87.0153 106.527Z" fill="#F6EBC8"/>
<path d="M78.3826 106.527C77.6377 106.527 77.0552 106.807 76.635 107.368C76.2148 107.921 76.0047 108.574 76.0047 109.325C76.0047 109.803 76.0939 110.255 76.2721 110.681C76.4504 111.108 76.7146 111.452 77.0648 111.713C77.4149 111.974 77.8351 112.104 78.3253 112.104C78.8346 112.104 79.2675 111.97 79.624 111.703C79.9869 111.436 80.2575 111.086 80.4358 110.653C80.614 110.213 80.7031 109.752 80.7031 109.268C80.7031 108.803 80.614 108.361 80.4358 107.941C80.2639 107.514 80.0028 107.173 79.6527 106.919C79.3025 106.658 78.8792 106.527 78.3826 106.527ZM74.3909 117.194V105.228L76.1193 105.238V106.231C76.7114 105.41 77.5454 104.999 78.6213 104.999C79.4171 104.999 80.1015 105.206 80.6745 105.62C81.2538 106.034 81.6868 106.572 81.9732 107.234C82.2661 107.896 82.4125 108.599 82.4125 109.344C82.4125 110.083 82.2725 110.774 81.9923 111.417C81.7122 112.06 81.2889 112.578 80.7222 112.973C80.162 113.368 79.4872 113.565 78.6977 113.565C77.6218 113.565 76.7623 113.161 76.1193 112.352V117.194H74.3909Z" fill="#F6EBC8"/>
<path d="M61.2505 113.336L64.4782 109.01L61.6802 105.238H63.7047L65.6624 107.778L67.4768 105.238H69.5491L66.7128 109.01L69.9024 113.336H67.8874L65.5764 110.28L63.3227 113.336H61.2505Z" fill="#F6EBC8"/>
<path d="M61.451 111.264C60.5024 112.855 59.2037 113.651 57.5548 113.651C56.95 113.651 56.4025 113.552 55.9122 113.355C55.4157 113.151 54.9891 112.858 54.6326 112.476C54.2824 112.094 54.0119 111.639 53.8209 111.111C53.6363 110.576 53.5439 109.994 53.5439 109.363C53.5439 108.714 53.6363 108.115 53.8209 107.568C54.0119 107.014 54.2793 106.546 54.623 106.164C54.9732 105.776 55.3902 105.48 55.874 105.276C56.3579 105.066 56.8927 104.961 57.4784 104.961C58.1341 104.961 58.7294 105.095 59.2641 105.362C59.7989 105.623 60.2414 105.999 60.5915 106.489C60.8717 106.852 61.069 107.259 61.1836 107.711C61.2982 108.163 61.3746 108.794 61.4128 109.602H55.3106C55.3297 110.099 55.4379 110.538 55.6353 110.92C55.839 111.302 56.1096 111.595 56.447 111.798C56.7908 112.002 57.1855 112.104 57.6312 112.104C58.618 112.104 59.4265 111.522 60.0568 110.356L61.451 111.264ZM55.4634 108.275H59.5793C59.4774 107.695 59.2546 107.253 58.9108 106.947C58.567 106.642 58.1277 106.489 57.593 106.489C56.4279 106.489 55.7181 107.084 55.4634 108.275Z" fill="#F6EBC8"/>
<path d="M53.3816 112.925C52.4458 113.384 51.5417 113.613 50.6695 113.613C49.9056 113.613 49.218 113.431 48.6068 113.068C47.9957 112.699 47.5182 112.193 47.1744 111.55C46.8242 110.901 46.6492 110.172 46.6492 109.363C46.6492 108.72 46.7701 108.128 47.0121 107.587C47.2603 107.046 47.5914 106.581 48.0052 106.193C48.4254 105.798 48.8997 105.499 49.4281 105.295C49.9629 105.085 50.5136 104.98 51.0802 104.98C51.9205 104.98 52.6877 105.196 53.3816 105.629V107.663C52.7259 106.982 51.9428 106.642 51.0324 106.642C50.3258 106.642 49.721 106.871 49.218 107.329C48.7214 107.788 48.4731 108.427 48.4731 109.249C48.4731 109.803 48.5718 110.283 48.7692 110.691C48.9665 111.098 49.253 111.41 49.6286 111.626C49.9979 111.837 50.434 111.942 50.9369 111.942C51.79 111.942 52.6049 111.585 53.3816 110.872V112.925Z" fill="#F6EBC8"/>
<path d="M39.783 113.336V105.248H42.6287C43.4755 105.248 44.1376 105.429 44.615 105.792C45.0925 106.155 45.3313 106.651 45.3313 107.282C45.3313 107.721 45.1912 108.097 44.9111 108.408C44.6373 108.714 44.2649 108.905 43.7938 108.981C44.5196 109.026 45.0893 109.252 45.5032 109.659C45.917 110.067 46.1239 110.541 46.1239 111.082C46.1239 111.331 46.0761 111.573 45.9806 111.808C45.8915 112.044 45.7483 112.267 45.5509 112.477C45.3535 112.68 45.1212 112.846 44.8538 112.973C44.3763 113.215 43.6919 113.336 42.8006 113.336H39.783ZM41.4159 112.305H42.6669C43.7938 112.368 44.3572 111.939 44.3572 111.016C44.3572 110.086 43.7715 109.621 42.6001 109.621H41.4159V112.305ZM41.4159 108.418H42.1799C42.651 108.418 43.0235 108.319 43.2972 108.122C43.5582 107.931 43.6887 107.664 43.6887 107.32C43.6887 107.027 43.5519 106.785 43.2781 106.594C43.0044 106.403 42.6797 106.308 42.304 106.308H41.4159V108.418Z" fill="#F6EBC8"/>
<path d="M30.9592 104.961C31.7932 104.961 32.5413 105.146 33.2034 105.515C33.8655 105.884 34.3811 106.403 34.7504 107.071C35.1196 107.733 35.3043 108.485 35.3043 109.325C35.3043 110.153 35.1196 110.894 34.7504 111.55C34.3811 112.206 33.8623 112.715 33.1938 113.078C32.5253 113.435 31.7677 113.613 30.921 113.613C30.0934 113.613 29.3549 113.425 28.7055 113.049C28.0561 112.687 27.55 112.174 27.1871 111.512C26.8306 110.843 26.6523 110.089 26.6523 109.249C26.6523 108.427 26.8338 107.692 27.1967 107.043C27.5596 106.387 28.0689 105.878 28.7246 105.515C29.3803 105.146 30.1252 104.961 30.9592 104.961ZM30.9783 106.527C30.4435 106.527 29.9851 106.661 29.6032 106.928C29.2212 107.189 28.9347 107.53 28.7437 107.95C28.5527 108.37 28.4572 108.822 28.4572 109.306C28.4572 109.783 28.5527 110.232 28.7437 110.652C28.9347 111.066 29.2212 111.407 29.6032 111.674C29.9851 111.935 30.4435 112.066 30.9783 112.066C31.5067 112.066 31.9555 111.935 32.3248 111.674C32.7004 111.413 32.9805 111.069 33.1652 110.643C33.3562 110.216 33.4516 109.771 33.4516 109.306C33.4516 108.829 33.3562 108.377 33.1652 107.95C32.9805 107.523 32.7004 107.18 32.3248 106.919C31.9492 106.658 31.5003 106.527 30.9783 106.527Z" fill="#F6EBC8"/>
<path d="M19.9009 113.336V105.248H22.7467C23.5934 105.248 24.2555 105.429 24.733 105.792C25.2104 106.155 25.4492 106.651 25.4492 107.282C25.4492 107.721 25.3091 108.097 25.029 108.408C24.7553 108.714 24.3828 108.905 23.9117 108.981C24.6375 109.026 25.2073 109.252 25.6211 109.659C26.0349 110.067 26.2418 110.541 26.2418 111.082C26.2418 111.331 26.1941 111.573 26.0986 111.808C26.0094 112.044 25.8662 112.267 25.6688 112.477C25.4715 112.68 25.2391 112.846 24.9717 112.973C24.4942 113.215 23.8098 113.336 22.9185 113.336H19.9009ZM21.5339 112.305H22.7849C23.9117 112.368 24.4751 111.939 24.4751 111.016C24.4751 110.086 23.8894 109.621 22.718 109.621H21.5339V112.305ZM21.5339 108.418H22.2978C22.7689 108.418 23.1414 108.319 23.4151 108.122C23.6761 107.931 23.8067 107.664 23.8067 107.32C23.8067 107.027 23.6698 106.785 23.396 106.594C23.1223 106.403 22.7976 106.308 22.422 106.308H21.5339V108.418Z" fill="#F6EBC8"/>
<path d="M209.805 82.3699V74.3821L201.927 82.3699H196.784L205.888 74.207C205.261 74.1778 204.451 74.0392 203.459 73.7912C202.467 73.5431 201.621 73.193 200.92 72.7407C200.22 72.2738 199.68 71.7267 199.301 71.0994C198.936 70.4574 198.754 69.7425 198.754 68.9547C198.754 67.3061 199.585 66.0441 201.249 65.1687C202.926 64.2787 205.064 63.8337 207.661 63.8337H213.985V82.3699H209.805ZM209.805 66.3067H208.514C206.559 66.3067 205.137 66.5474 204.247 67.0289C203.371 67.5103 202.934 68.2252 202.934 69.1735C202.934 70.0635 203.393 70.8003 204.312 71.3839C205.246 71.9529 206.559 72.2374 208.252 72.2374H209.805V66.3067Z" fill="#F6EBC8"/>
<path d="M191.204 82.4793V70.793L177.176 83.1359V63.8557H181.356V75.4763L195.384 62.9365V82.4793H191.204Z" fill="#F6EBC8"/>
<path d="M176.081 81.4288C173.937 82.4793 171.865 83.0045 169.866 83.0045C168.115 83.0045 166.54 82.5887 165.139 81.7571C163.739 80.9109 162.644 79.751 161.856 78.2775C161.054 76.7893 160.653 75.1188 160.653 73.2659C160.653 71.7924 160.93 70.4355 161.484 69.1954C162.053 67.9553 162.812 66.8902 163.76 66.0003C164.723 65.0957 165.81 64.41 167.021 63.9431C168.247 63.4617 169.509 63.2209 170.807 63.2209C172.733 63.2209 174.491 63.717 176.081 64.7091V69.3705C174.579 67.8094 172.784 67.0288 170.698 67.0288C169.078 67.0288 167.692 67.5541 166.54 68.6045C165.402 69.655 164.833 71.1212 164.833 73.0033C164.833 74.2726 165.059 75.3741 165.511 76.3079C165.963 77.2416 166.62 77.9565 167.481 78.4525C168.327 78.934 169.326 79.1747 170.479 79.1747C172.434 79.1747 174.301 78.3577 176.081 76.7237V81.4288Z" fill="#F6EBC8"/>
<path d="M159.931 81.4288C157.786 82.4793 155.714 83.0045 153.716 83.0045C151.965 83.0045 150.389 82.5887 148.989 81.7571C147.588 80.9109 146.494 79.751 145.706 78.2775C144.903 76.7893 144.502 75.1188 144.502 73.2659C144.502 71.7924 144.779 70.4355 145.334 69.1954C145.903 67.9553 146.661 66.8902 147.61 66.0003C148.573 65.0957 149.66 64.41 150.871 63.9431C152.096 63.4617 153.358 63.2209 154.657 63.2209C156.582 63.2209 158.34 63.717 159.931 64.7091V69.3705C158.428 67.8094 156.633 67.0288 154.547 67.0288C152.928 67.0288 151.542 67.5541 150.389 68.6045C149.251 69.655 148.682 71.1212 148.682 73.0033C148.682 74.2726 148.908 75.3741 149.361 76.3079C149.813 77.2416 150.469 77.9565 151.33 78.4525C152.176 78.934 153.176 79.1747 154.328 79.1747C156.283 79.1747 158.151 78.3577 159.931 76.7237V81.4288Z" fill="#F6EBC8"/>
<path d="M144.152 77.621C141.978 81.2684 139.002 83.0921 135.223 83.0921C133.837 83.0921 132.582 82.866 131.459 82.4137C130.321 81.9468 129.344 81.2757 128.527 80.4003C127.724 79.5249 127.104 78.4818 126.666 77.2708C126.243 76.0453 126.032 74.7104 126.032 73.266C126.032 71.7778 126.243 70.4064 126.666 69.1517C127.104 67.8824 127.717 66.8101 128.505 65.9347C129.307 65.0447 130.263 64.3663 131.372 63.8994C132.48 63.418 133.706 63.1772 135.048 63.1772C136.551 63.1772 137.915 63.4836 139.141 64.0964C140.366 64.6946 141.38 65.5554 142.182 66.6788C142.824 67.5104 143.277 68.4441 143.539 69.48C143.802 70.5158 143.977 71.9602 144.065 73.8131H130.08C130.124 74.9511 130.372 75.9578 130.824 76.8332C131.291 77.7085 131.911 78.3797 132.685 78.8465C133.472 79.3134 134.377 79.5468 135.398 79.5468C137.66 79.5468 139.513 78.2119 140.957 75.542L144.152 77.621ZM130.431 70.7712H139.863C139.629 69.4435 139.119 68.4295 138.331 67.7292C137.543 67.0289 136.536 66.6788 135.311 66.6788C132.641 66.6788 131.014 68.0429 130.431 70.7712Z" fill="#F6EBC8"/>
<path d="M110.953 63.8337H125.113L125.178 67.1383H120.079V82.3699H116.052V67.1383H110.888L110.953 63.8337Z" fill="#F6EBC8"/>
<path d="M99.9673 63.1772C101.879 63.1772 103.593 63.6003 105.11 64.4465C106.627 65.2927 107.809 66.4818 108.655 68.0137C109.502 69.531 109.925 71.2526 109.925 73.1784C109.925 75.0751 109.502 76.7748 108.655 78.2775C107.809 79.7803 106.62 80.9474 105.088 81.779C103.556 82.5961 101.82 83.0046 99.8798 83.0046C97.9831 83.0046 96.2907 82.5742 94.8026 81.7134C93.3144 80.8818 92.1546 79.7073 91.3229 78.19C90.5059 76.6581 90.0974 74.9292 90.0974 73.0034C90.0974 71.1213 90.5132 69.4362 91.3448 67.9481C92.1764 66.4453 93.3436 65.2782 94.8463 64.4465C96.3491 63.6003 98.0561 63.1772 99.9673 63.1772ZM100.011 66.7663C98.7855 66.7663 97.7351 67.0727 96.8597 67.6854C95.9843 68.2836 95.3278 69.0642 94.8901 70.0271C94.4524 70.99 94.2336 72.0259 94.2336 73.1347C94.2336 74.2289 94.4524 75.2575 94.8901 76.2204C95.3278 77.1687 95.9843 77.9493 96.8597 78.562C97.7351 79.1602 98.7855 79.4593 100.011 79.4593C101.222 79.4593 102.251 79.1602 103.097 78.562C103.958 77.9638 104.6 77.176 105.023 76.1985C105.46 75.221 105.679 74.1997 105.679 73.1347C105.679 72.0405 105.46 71.0046 105.023 70.0271C104.6 69.0496 103.958 68.2617 103.097 67.6636C102.236 67.0654 101.207 66.7663 100.011 66.7663Z" fill="#F6EBC8"/>
<path d="M89.6378 81.4288C87.4931 82.4793 85.4214 83.0045 83.4226 83.0045C81.6718 83.0045 80.0961 82.5887 78.6955 81.7571C77.2949 80.9109 76.2007 79.751 75.4129 78.2775C74.6104 76.7893 74.2092 75.1188 74.2092 73.2659C74.2092 71.7924 74.4864 70.4355 75.0408 69.1954C75.6098 67.9553 76.3685 66.8902 77.3168 66.0003C78.2797 65.0957 79.3667 64.41 80.5776 63.9431C81.8031 63.4617 83.0651 63.2209 84.3636 63.2209C86.2895 63.2209 88.0475 63.717 89.6378 64.7091V69.3705C88.135 67.8094 86.3405 67.0288 84.2542 67.0288C82.6347 67.0288 81.2487 67.5541 80.0961 68.6045C78.9582 69.655 78.3892 71.1212 78.3892 73.0033C78.3892 74.2726 78.6153 75.3741 79.0676 76.3079C79.5199 77.2416 80.1764 77.9565 81.0372 78.4525C81.8834 78.934 82.8828 79.1747 84.0354 79.1747C85.9904 79.1747 87.8578 78.3577 89.6378 76.7237V81.4288Z" fill="#F6EBC8"/>
<path d="M63.8142 63.1772C65.7255 63.1772 67.4398 63.6003 68.9571 64.4465C70.4744 65.2927 71.6562 66.4818 72.5024 68.0137C73.3486 69.531 73.7717 71.2526 73.7717 73.1784C73.7717 75.0751 73.3486 76.7748 72.5024 78.2775C71.6562 79.7803 70.4671 80.9474 68.9352 81.779C67.4033 82.5961 65.6671 83.0046 63.7267 83.0046C61.83 83.0046 60.1376 82.5742 58.6495 81.7134C57.1614 80.8818 56.0015 79.7073 55.1699 78.19C54.3528 76.6581 53.9443 74.9292 53.9443 73.0034C53.9443 71.1213 54.3601 69.4362 55.1918 67.9481C56.0234 66.4453 57.1905 65.2782 58.6933 64.4465C60.196 63.6003 61.903 63.1772 63.8142 63.1772ZM63.858 66.7663C62.6325 66.7663 61.582 67.0727 60.7066 67.6854C59.8313 68.2836 59.1747 69.0642 58.737 70.0271C58.2993 70.99 58.0805 72.0259 58.0805 73.1347C58.0805 74.2289 58.2993 75.2575 58.737 76.2204C59.1747 77.1687 59.8313 77.9493 60.7066 78.562C61.582 79.1602 62.6325 79.4593 63.858 79.4593C65.0689 79.4593 66.0975 79.1602 66.9437 78.562C67.8045 77.9638 68.4464 77.176 68.8695 76.1985C69.3072 75.221 69.5261 74.1997 69.5261 73.1347C69.5261 72.0405 69.3072 71.0046 68.8695 70.0271C68.4464 69.0496 67.8045 68.2617 66.9437 67.6636C66.0829 67.0654 65.0543 66.7663 63.858 66.7663Z" fill="#F6EBC8"/>
<path d="M43.9432 66.7662C42.2362 66.7662 40.9013 67.4081 39.9383 68.692C38.9754 69.9613 38.494 71.4567 38.494 73.1783C38.494 74.2725 38.6982 75.3084 39.1067 76.2859C39.5152 77.2634 40.1207 78.0512 40.9231 78.6494C41.7256 79.2476 42.6885 79.5467 43.8119 79.5467C44.9791 79.5467 45.9712 79.2403 46.7882 78.6275C47.6198 78.0148 48.2398 77.2123 48.6484 76.2202C49.0569 75.2136 49.2611 74.1558 49.2611 73.047C49.2611 71.982 49.0569 70.968 48.6484 70.0051C48.2544 69.0276 47.6563 68.247 46.8538 67.6634C46.0514 67.0652 45.0812 66.7662 43.9432 66.7662ZM38.5377 52.5631H38.7566V66.0877C40.1134 64.2057 42.0247 63.2646 44.4903 63.2646C46.314 63.2646 47.8824 63.7388 49.1955 64.6871C50.5231 65.6355 51.5152 66.8683 52.1718 68.3856C52.8429 69.9029 53.1784 71.5151 53.1784 73.2221C53.1784 74.9145 52.8575 76.4974 52.2155 77.971C51.5736 79.4446 50.6034 80.6336 49.3049 81.5382C48.021 82.4427 46.4745 82.895 44.6654 82.895C42.1997 82.895 40.2301 81.9686 38.7566 80.1157V91.2111H34.5766V80.1157C33.1031 81.9686 31.1335 82.895 28.6678 82.895C26.8587 82.895 25.3049 82.4427 24.0065 81.5382C22.7226 80.6336 21.7596 79.4446 21.1177 77.971C20.4758 76.4974 20.1548 74.9145 20.1548 73.2221C20.1548 71.5151 20.4831 69.9029 21.1396 68.3856C21.8107 66.8683 22.8028 65.6355 24.1159 64.6871C25.4435 63.7388 27.0192 63.2646 28.8429 63.2646C31.3086 63.2646 33.2198 64.2057 34.5766 66.0877V52.5631H34.7955V52.5413H38.5377V52.5631ZM34.7955 74.0537V72.3029C34.6642 70.9461 34.1973 69.7352 33.3949 68.6701C32.432 67.4008 31.097 66.7662 29.39 66.7662C28.252 66.7662 27.2818 67.0652 26.4794 67.6634C25.677 68.247 25.0715 69.0276 24.663 70.0051C24.2691 70.968 24.0721 71.982 24.0721 73.047C24.0721 74.1558 24.2764 75.2136 24.6849 76.2202C25.0934 77.2123 25.7061 78.0148 26.5232 78.6275C27.3548 79.2403 28.3542 79.5467 29.5213 79.5467C30.6447 79.5467 31.6077 79.2476 32.4101 78.6494C33.2125 78.0512 33.818 77.2634 34.2265 76.2859C34.5329 75.571 34.7225 74.8269 34.7955 74.0537Z" fill="#F6EBC8"/>
</svg>
