<svg width="229" height="154" viewBox="0 0 229 154" fill="none" xmlns="http://www.w3.org/2000/svg">
<path d="M201.092 76.8309C196.982 76.8309 193.221 75.9254 189.808 74.1145C186.465 72.3035 183.539 69.7611 181.032 66.4875C178.594 63.1441 176.678 59.2087 175.285 54.6813C173.962 50.0842 173.3 45.0692 173.3 39.6363C173.3 33.8551 173.962 28.5615 175.285 23.7554C176.609 18.9494 178.455 14.805 180.823 11.3224C183.261 7.83974 186.116 5.1581 189.39 3.27747C192.733 1.32719 196.39 0.352051 200.36 0.352051C204.4 0.352051 208.127 1.25754 211.54 3.06851C214.953 4.87949 217.878 7.45664 220.316 10.8C222.823 14.0737 224.739 18.0091 226.062 22.6061C227.455 27.1336 228.152 32.1138 228.152 37.5467C228.152 43.3279 227.49 48.6215 226.167 53.4275C224.843 58.2336 222.963 62.3779 220.525 65.8606C218.157 69.3432 215.301 72.0597 211.958 74.01C208.684 75.8906 205.062 76.8309 201.092 76.8309ZM193.047 39.5318C193.047 45.6612 193.186 50.8156 193.465 54.9947C193.743 59.1739 194.196 62.5521 194.823 65.1292C195.45 67.7064 196.251 69.5522 197.226 70.6666C198.271 71.7811 199.559 72.3383 201.092 72.3383C202.485 72.3383 203.634 71.7462 204.54 70.5622C205.515 69.3781 206.281 67.4278 206.838 64.7113C207.395 61.9948 207.778 58.4426 207.987 54.0544C208.266 49.5966 208.405 44.1289 208.405 37.6512C208.405 31.5217 208.266 26.3674 207.987 22.1882C207.709 17.9394 207.256 14.5612 206.629 12.0537C206.002 9.47658 205.166 7.63078 204.122 6.51633C203.147 5.40188 201.893 4.84466 200.36 4.84466C198.967 4.84466 197.818 5.43671 196.913 6.62081C196.007 7.80491 195.241 9.75519 194.614 12.4717C194.057 15.1881 193.639 18.7752 193.36 23.233C193.151 27.6212 193.047 33.0541 193.047 39.5318Z" fill="#FF9EA7" fill-opacity="0.75"/>
<path d="M142.118 76.8309C138.009 76.8309 134.247 75.9254 130.834 74.1145C127.491 72.3035 124.566 69.7611 122.058 66.4875C119.62 63.1441 117.705 59.2087 116.312 54.6813C114.988 50.0842 114.327 45.0692 114.327 39.6363C114.327 33.8551 114.988 28.5615 116.312 23.7554C117.635 18.9494 119.481 14.805 121.849 11.3224C124.287 7.83974 127.143 5.1581 130.416 3.27747C133.76 1.32719 137.417 0.352051 141.387 0.352051C145.427 0.352051 149.153 1.25754 152.566 3.06851C155.979 4.87949 158.905 7.45664 161.342 10.8C163.85 14.0737 165.765 18.0091 167.089 22.6061C168.482 27.1336 169.178 32.1138 169.178 37.5467C169.178 43.3279 168.517 48.6215 167.193 53.4275C165.87 58.2336 163.989 62.3779 161.551 65.8606C159.183 69.3432 156.327 72.0597 152.984 74.01C149.71 75.8906 146.088 76.8309 142.118 76.8309ZM134.073 39.5318C134.073 45.6612 134.213 50.8156 134.491 54.9947C134.77 59.1739 135.223 62.5521 135.849 65.1292C136.476 67.7064 137.277 69.5522 138.252 70.6666C139.297 71.7811 140.586 72.3383 142.118 72.3383C143.511 72.3383 144.66 71.7462 145.566 70.5622C146.541 69.3781 147.307 67.4278 147.865 64.7113C148.422 61.9948 148.805 58.4426 149.014 54.0544C149.292 49.5966 149.432 44.1289 149.432 37.6512C149.432 31.5217 149.292 26.3674 149.014 22.1882C148.735 17.9394 148.282 14.5612 147.656 12.0537C147.029 9.47658 146.193 7.63078 145.148 6.51633C144.173 5.40188 142.919 4.84466 141.387 4.84466C139.994 4.84466 138.844 5.43671 137.939 6.62081C137.034 7.80491 136.267 9.75519 135.64 12.4717C135.083 15.1881 134.665 18.7752 134.387 23.233C134.178 27.6212 134.073 33.0541 134.073 39.5318Z" fill="#FF9EA7" fill-opacity="0.75"/>
<path d="M98.7283 48.4125C96.1512 48.4125 93.9223 47.507 92.0417 45.696C90.2307 43.8154 89.3252 41.5865 89.3252 39.0094C89.3252 36.4322 90.2307 34.2381 92.0417 32.4272C93.9223 30.6162 96.1512 29.7107 98.7283 29.7107C101.305 29.7107 103.5 30.6162 105.311 32.4272C107.122 34.2381 108.027 36.4322 108.027 39.0094C108.027 41.5865 107.122 43.8154 105.311 45.696C103.5 47.507 101.305 48.4125 98.7283 48.4125ZM89.3252 67.4277C89.3252 64.8506 90.2307 62.6565 92.0417 60.8455C93.9223 59.0346 96.1512 58.1291 98.7283 58.1291C101.305 58.1291 103.5 59.0346 105.311 60.8455C107.122 62.6565 108.027 64.8506 108.027 67.4277C108.027 70.0049 107.122 72.2338 105.311 74.1144C103.5 75.9254 101.305 76.8309 98.7283 76.8309C96.1512 76.8309 93.9223 75.9254 92.0417 74.1144C90.2307 72.2338 89.3252 70.0049 89.3252 67.4277Z" fill="#FF9EA7" fill-opacity="0.75"/>
<path d="M57.8647 76.8309C54.382 76.8309 51.1432 76.3433 48.1481 75.3682C45.2227 74.4627 42.6455 73.1741 40.4166 71.5025C38.2574 69.8308 36.5509 67.8805 35.2971 65.6516C34.0434 63.4227 33.4165 60.9849 33.4165 58.3381C33.4165 54.3679 34.4961 50.9549 36.6554 48.0991C38.8843 45.1737 42.4366 42.3876 47.3123 39.7408L45.7451 38.487C43.7251 36.8153 41.9838 35.2481 40.5211 33.7854C39.128 32.2531 37.9788 30.7207 37.0733 29.1883C36.2374 27.656 35.6106 26.0888 35.1927 24.4868C34.7747 22.8151 34.5658 21.039 34.5658 19.1583C34.5658 16.5115 35.123 14.0388 36.2374 11.7403C37.4215 9.44175 39.0236 7.45664 41.0435 5.78497C43.0634 4.11331 45.5013 2.7899 48.357 1.81476C51.2128 0.839621 54.3472 0.352051 57.7602 0.352051C60.9642 0.352051 63.8896 0.769967 66.5365 1.6058C69.2529 2.44164 71.5863 3.59091 73.5366 5.05362C75.4869 6.44668 76.9844 8.11835 78.0292 10.0686C79.1436 12.0189 79.7008 14.0737 79.7008 16.2329C79.7008 19.3673 78.7954 22.3275 76.9844 25.1136C75.1734 27.8301 72.3873 30.1287 68.626 32.0093C68.9743 32.2182 69.3226 32.462 69.6708 32.7406C70.0191 33.0193 70.437 33.3327 70.9246 33.681C75.1038 36.8153 78.1685 40.0542 80.1188 43.3975C82.069 46.7409 83.0442 50.2932 83.0442 54.0544C83.0442 57.2585 82.3825 60.2535 81.0591 63.0396C79.8053 65.7561 78.0292 68.1591 75.7306 70.2487C73.5017 72.2687 70.8549 73.8707 67.7902 75.0548C64.7255 76.2389 61.417 76.8309 57.8647 76.8309ZM46.5809 53.4275C46.5809 56.0744 46.8595 58.547 47.4167 60.8456C47.974 63.1441 48.7401 65.1641 49.7153 66.9054C50.7601 68.577 51.979 69.9005 53.3721 70.8756C54.7651 71.8507 56.2975 72.3383 57.9691 72.3383C60.1284 72.3383 61.9394 71.4328 63.4021 69.6218C64.8648 67.8109 65.5961 65.582 65.5961 62.9352C65.5961 60.2884 64.9344 57.6764 63.611 55.0992C62.2876 52.5221 60.407 50.2235 57.9691 48.2036L51.0735 42.6662C49.4715 43.9896 48.3222 45.5219 47.6257 47.2633C46.9292 48.9349 46.5809 50.9897 46.5809 53.4275ZM51.178 12.4717C51.178 14.7005 51.8745 16.8946 53.2676 19.0539C54.6606 21.2131 56.6457 23.233 59.2229 25.1136C60.4766 26.0888 61.4518 26.8201 62.1483 27.3077C62.9145 27.7953 63.5066 28.2132 63.9245 28.5615C64.9693 27.1684 65.6658 25.5664 66.0141 23.7554C66.3623 21.8748 66.5365 19.6459 66.5365 17.0687C66.5365 13.5164 65.8051 10.591 64.3424 8.29248C62.8797 5.99393 60.6856 4.84466 57.7602 4.84466C55.9492 4.84466 54.382 5.57602 53.0586 7.03873C51.8049 8.50144 51.178 10.3124 51.178 12.4717Z" fill="#FF9EA7" fill-opacity="0.75"/>
<path d="M6.94325 74.9501C8.19701 72.5819 9.10249 69.6565 9.65972 66.1739C10.2866 62.6216 10.6 58.129 10.6 52.696V25.3225C10.6 22.6757 9.83385 20.7602 8.30149 19.5761C6.83878 18.392 4.54023 17.8 1.40585 17.8C0.63967 17.8 0.221752 17.5213 0.1521 16.9641C0.1521 16.3372 0.465538 15.9193 1.09241 15.7104C4.29645 14.6656 7.18704 13.4815 9.7642 12.1581C12.3414 10.8347 14.6399 9.51126 16.6598 8.18785C18.7494 6.86445 20.5952 5.6107 22.1972 4.42659C23.7993 3.17284 25.262 2.12805 26.5854 1.29222C26.9336 1.08326 27.1774 1.08326 27.3167 1.29222C27.5257 1.50117 27.6302 1.77978 27.6302 2.12805V52.696C27.6302 58.129 27.9088 62.6216 28.466 66.1739C29.0929 69.6565 30.0332 72.5819 31.2869 74.9501V75.1591H6.94325V74.9501Z" fill="#FF9EA7" fill-opacity="0.75"/>
<path d="M206.525 148.452C206.257 148.841 205.897 149.144 205.444 149.361C204.991 149.571 204.491 149.677 203.942 149.677C203.241 149.677 202.603 149.488 202.029 149.112C201.462 148.736 201.015 148.219 200.69 147.563C200.365 146.899 200.202 146.16 200.202 145.344C200.202 144.546 200.368 143.823 200.7 143.172C201.038 142.522 201.5 142.012 202.087 141.642C202.68 141.272 203.337 141.087 204.057 141.087C205.167 141.087 205.989 141.498 206.525 142.321V141.326H208.256V149.437H206.525V148.452ZM204.316 142.617C203.818 142.617 203.388 142.748 203.024 143.01C202.667 143.271 202.396 143.619 202.211 144.052C202.033 144.486 201.943 144.942 201.943 145.42C201.943 145.892 202.033 146.341 202.211 146.769C202.396 147.196 202.667 147.544 203.024 147.811C203.388 148.073 203.818 148.204 204.316 148.204C204.807 148.204 205.227 148.073 205.578 147.811C205.929 147.544 206.194 147.193 206.372 146.759C206.557 146.326 206.649 145.866 206.649 145.382C206.649 144.91 206.563 144.46 206.391 144.033C206.206 143.612 205.938 143.271 205.588 143.01C205.237 142.748 204.813 142.617 204.316 142.617Z" fill="#F6EBC8"/>
<path d="M193.277 149.438V141.336H196.128C196.976 141.336 197.639 141.517 198.117 141.881C198.595 142.244 198.835 142.742 198.835 143.373C198.835 143.813 198.694 144.189 198.414 144.502C198.139 144.808 197.766 144.999 197.295 145.076C198.022 145.12 198.592 145.347 199.007 145.755C199.421 146.163 199.629 146.638 199.629 147.18C199.629 147.429 199.581 147.671 199.485 147.907C199.396 148.143 199.252 148.366 199.055 148.577C198.857 148.781 198.624 148.947 198.356 149.074C197.878 149.316 197.193 149.438 196.3 149.438H193.277ZM194.913 148.405H196.166C197.295 148.468 197.859 148.038 197.859 147.113C197.859 146.182 197.272 145.717 196.099 145.717H194.913V148.405ZM194.913 144.511H195.678C196.15 144.511 196.523 144.413 196.797 144.215C197.059 144.024 197.189 143.756 197.189 143.411C197.189 143.118 197.052 142.876 196.778 142.684C196.504 142.493 196.179 142.397 195.802 142.397H194.913V144.511Z" fill="#F6EBC8"/>
<path d="M188.609 141.049C189.445 141.049 190.194 141.234 190.857 141.603C191.52 141.973 192.037 142.493 192.407 143.163C192.776 143.826 192.961 144.578 192.961 145.42C192.961 146.249 192.776 146.992 192.407 147.649C192.037 148.306 191.517 148.816 190.847 149.179C190.178 149.536 189.419 149.715 188.571 149.715C187.742 149.715 187.002 149.527 186.352 149.15C185.701 148.787 185.194 148.274 184.831 147.61C184.474 146.941 184.295 146.185 184.295 145.343C184.295 144.521 184.477 143.784 184.84 143.134C185.204 142.477 185.714 141.967 186.371 141.603C187.028 141.234 187.774 141.049 188.609 141.049ZM188.628 142.617C188.093 142.617 187.633 142.751 187.251 143.019C186.868 143.281 186.581 143.622 186.39 144.043C186.199 144.463 186.103 144.916 186.103 145.401C186.103 145.879 186.199 146.329 186.39 146.75C186.581 147.164 186.868 147.505 187.251 147.773C187.633 148.034 188.093 148.165 188.628 148.165C189.158 148.165 189.607 148.034 189.977 147.773C190.353 147.512 190.634 147.167 190.819 146.74C191.01 146.313 191.106 145.866 191.106 145.401C191.106 144.923 191.01 144.47 190.819 144.043C190.634 143.615 190.353 143.271 189.977 143.009C189.601 142.748 189.151 142.617 188.628 142.617Z" fill="#F6EBC8"/>
<path d="M181.713 142.943H179.015V145.908C179.015 146.418 178.961 146.903 178.853 147.362C178.738 147.815 178.559 148.223 178.317 148.586C178.075 148.95 177.759 149.237 177.37 149.447C176.981 149.651 176.525 149.753 176.002 149.753C175.881 149.753 175.763 149.747 175.648 149.734V148.022C175.725 148.035 175.804 148.041 175.887 148.041C176.353 148.041 176.681 147.888 176.873 147.582C177.064 147.269 177.16 146.75 177.16 146.023L177.15 141.345H183.559V149.438H181.713V142.943Z" fill="#F6EBC8"/>
<path d="M175.122 149.026C174.185 149.485 173.279 149.715 172.405 149.715C171.64 149.715 170.952 149.533 170.339 149.17C169.727 148.8 169.249 148.293 168.905 147.649C168.554 146.998 168.378 146.268 168.378 145.458C168.378 144.814 168.5 144.221 168.742 143.679C168.991 143.137 169.322 142.672 169.737 142.283C170.158 141.887 170.633 141.588 171.162 141.384C171.698 141.173 172.249 141.068 172.817 141.068C173.659 141.068 174.427 141.285 175.122 141.718V143.756C174.465 143.073 173.681 142.732 172.769 142.732C172.061 142.732 171.455 142.962 170.952 143.421C170.454 143.88 170.205 144.521 170.205 145.344C170.205 145.898 170.304 146.38 170.502 146.788C170.7 147.196 170.987 147.509 171.363 147.725C171.733 147.936 172.169 148.041 172.673 148.041C173.528 148.041 174.344 147.684 175.122 146.97V149.026Z" fill="#F6EBC8"/>
<path d="M164.055 147.362C163.105 148.956 161.804 149.753 160.152 149.753C159.546 149.753 158.998 149.654 158.507 149.457C158.01 149.252 157.582 148.959 157.225 148.577C156.874 148.194 156.603 147.738 156.412 147.209C156.227 146.673 156.135 146.09 156.135 145.458C156.135 144.808 156.227 144.208 156.412 143.66C156.603 143.105 156.871 142.636 157.216 142.254C157.566 141.865 157.984 141.568 158.469 141.364C158.953 141.154 159.489 141.049 160.076 141.049C160.733 141.049 161.329 141.182 161.864 141.45C162.4 141.712 162.843 142.088 163.194 142.579C163.475 142.943 163.672 143.351 163.787 143.803C163.902 144.256 163.978 144.887 164.017 145.697H157.904C157.923 146.195 158.032 146.635 158.23 147.017C158.434 147.4 158.705 147.693 159.043 147.897C159.387 148.101 159.782 148.203 160.229 148.203C161.217 148.203 162.027 147.62 162.658 146.453L164.055 147.362ZM158.057 144.368H162.18C162.078 143.787 161.855 143.344 161.511 143.038C161.166 142.732 160.726 142.579 160.19 142.579C159.024 142.579 158.312 143.175 158.057 144.368Z" fill="#F6EBC8"/>
<path d="M149.209 141.335V144.722H150.204C150.893 144.722 151.47 144.846 151.936 145.095C152.401 145.299 152.758 145.583 153.007 145.946C153.262 146.303 153.39 146.708 153.39 147.161C153.39 147.62 153.259 148.022 152.997 148.366C152.742 148.704 152.376 148.969 151.897 149.16C151.425 149.345 150.877 149.437 150.252 149.437H147.402V141.335H149.209ZM149.209 148.318H150.032C150.306 148.318 150.628 148.216 150.998 148.012C151.355 147.808 151.534 147.518 151.534 147.142C151.534 146.325 151.033 145.917 150.032 145.917H149.209V148.318ZM153.801 149.437H155.513L155.503 141.326H153.801V149.437Z" fill="#F6EBC8"/>
<path d="M144.819 145.946H141.136V149.437H139.424V141.355H141.127V144.406H144.819V141.355H146.522L146.531 149.437H144.819V145.946Z" fill="#F6EBC8"/>
<path d="M132.48 141.336H138.668L138.697 142.78H136.468V149.438H134.708V142.78H132.451L132.48 141.336Z" fill="#F6EBC8"/>
<path d="M129.906 149.438V145.946L126.463 149.438H124.215L128.194 145.87C127.92 145.857 127.566 145.796 127.133 145.688C126.699 145.58 126.329 145.426 126.023 145.229C125.717 145.025 125.481 144.786 125.315 144.511C125.156 144.231 125.076 143.918 125.076 143.574C125.076 142.853 125.439 142.302 126.166 141.919C126.9 141.53 127.834 141.336 128.969 141.336H131.733V149.438H129.906ZM129.906 142.417H129.342C128.488 142.417 127.866 142.522 127.477 142.732C127.094 142.943 126.903 143.255 126.903 143.67C126.903 144.059 127.104 144.381 127.506 144.636C127.914 144.884 128.488 145.009 129.227 145.009H129.906V142.417Z" fill="#F6EBC8"/>
<path d="M121.776 149.485V144.377L115.645 149.772V141.345H117.472V146.424L123.603 140.943V149.485H121.776Z" fill="#F6EBC8"/>
<path d="M110.996 142.617C110.25 142.617 109.666 142.898 109.245 143.459C108.825 144.014 108.614 144.668 108.614 145.42C108.614 145.898 108.703 146.351 108.882 146.778C109.06 147.206 109.325 147.55 109.676 147.811C110.027 148.073 110.447 148.204 110.938 148.204C111.449 148.204 111.882 148.07 112.239 147.802C112.603 147.534 112.874 147.183 113.052 146.75C113.231 146.31 113.32 145.847 113.32 145.363C113.32 144.897 113.231 144.454 113.052 144.033C112.88 143.606 112.619 143.265 112.268 143.01C111.917 142.748 111.493 142.617 110.996 142.617ZM106.998 153.302V141.316L108.729 141.326V142.321C109.322 141.498 110.157 141.087 111.235 141.087C112.032 141.087 112.718 141.294 113.292 141.709C113.872 142.123 114.305 142.662 114.592 143.325C114.886 143.988 115.032 144.693 115.032 145.439C115.032 146.179 114.892 146.871 114.612 147.515C114.331 148.159 113.907 148.679 113.339 149.074C112.778 149.469 112.102 149.667 111.312 149.667C110.234 149.667 109.373 149.262 108.729 148.452V153.302H106.998Z" fill="#F6EBC8"/>
<path d="M104.377 142.914H100.694V149.437H98.9817V141.355H106.079L106.089 149.437H104.377V142.914Z" fill="#F6EBC8"/>
<path d="M89.904 141.336V144.722H90.8988C91.5876 144.722 92.1647 144.846 92.6302 145.095C93.0957 145.299 93.4528 145.583 93.7015 145.946C93.9566 146.303 94.0841 146.708 94.0841 147.161C94.0841 147.62 93.9534 148.022 93.6919 148.366C93.4369 148.704 93.0702 148.969 92.5919 149.16C92.12 149.345 91.5716 149.438 90.9467 149.438H88.0962V141.336H89.904ZM89.904 148.318H90.7267C91.0009 148.318 91.3229 148.216 91.6928 148.012C92.0499 147.808 92.2284 147.518 92.2284 147.142C92.2284 146.326 91.7278 145.918 90.7267 145.918H89.904V148.318Z" fill="#F6EBC8"/>
<path d="M81.1327 141.336H87.3215L87.3502 142.78H85.1215V149.438H83.3614V142.78H81.104L81.1327 141.336Z" fill="#F6EBC8"/>
<path d="M78.2728 149.485V144.377L72.1414 149.772V141.345H73.9683V146.424L80.0997 140.943V149.485H78.2728Z" fill="#F6EBC8"/>
<path d="M67.4925 142.617C66.7464 142.617 66.1629 142.898 65.742 143.459C65.3211 144.014 65.1107 144.668 65.1107 145.42C65.1107 145.898 65.2 146.351 65.3785 146.778C65.5571 147.206 65.8217 147.55 66.1724 147.811C66.5232 148.073 66.944 148.204 67.4351 148.204C67.9452 148.204 68.3789 148.07 68.736 147.802C69.0994 147.534 69.3705 147.183 69.549 146.75C69.7276 146.31 69.8168 145.847 69.8168 145.363C69.8168 144.897 69.7276 144.454 69.549 144.033C69.3768 143.606 69.1154 143.265 68.7647 143.01C68.4139 142.748 67.9899 142.617 67.4925 142.617ZM63.4941 153.302V141.316L65.2255 141.326V142.321C65.8185 141.498 66.6539 141.087 67.7316 141.087C68.5287 141.087 69.2142 141.294 69.7882 141.709C70.3685 142.123 70.8021 142.662 71.089 143.325C71.3824 143.988 71.529 144.693 71.529 145.439C71.529 146.179 71.3888 146.871 71.1082 147.515C70.8276 148.159 70.4035 148.679 69.836 149.074C69.2748 149.469 68.5989 149.667 67.8081 149.667C66.7304 149.667 65.8695 149.262 65.2255 148.452V153.302H63.4941Z" fill="#F6EBC8"/>
<path d="M58.6924 141.049C59.5278 141.049 60.2771 141.234 60.9403 141.603C61.6035 141.973 62.12 142.493 62.4898 143.163C62.8597 143.826 63.0446 144.578 63.0446 145.42C63.0446 146.249 62.8597 146.992 62.4898 147.649C62.12 148.306 61.6003 148.816 60.9307 149.179C60.2611 149.536 59.5023 149.715 58.6541 149.715C57.8251 149.715 57.0854 149.527 56.435 149.15C55.7845 148.787 55.2776 148.274 54.9141 147.61C54.557 146.941 54.3784 146.185 54.3784 145.343C54.3784 144.521 54.5602 143.784 54.9236 143.134C55.2871 142.477 55.7973 141.967 56.4541 141.603C57.1109 141.234 57.857 141.049 58.6924 141.049ZM58.7115 142.617C58.1759 142.617 57.7167 142.751 57.3341 143.019C56.9515 143.281 56.6645 143.622 56.4732 144.043C56.2819 144.463 56.1863 144.916 56.1863 145.401C56.1863 145.879 56.2819 146.329 56.4732 146.75C56.6645 147.164 56.9515 147.505 57.3341 147.773C57.7167 148.034 58.1759 148.165 58.7115 148.165C59.2408 148.165 59.6904 148.034 60.0602 147.773C60.4365 147.512 60.7171 147.167 60.902 146.74C61.0933 146.313 61.189 145.866 61.189 145.401C61.189 144.923 61.0933 144.47 60.902 144.043C60.7171 143.615 60.4365 143.271 60.0602 143.009C59.684 142.748 59.2344 142.617 58.7115 142.617Z" fill="#F6EBC8"/>
<path d="M47.6157 149.438V141.336H50.4662C51.3143 141.336 51.9775 141.517 52.4558 141.881C52.9341 142.244 53.1732 142.742 53.1732 143.373C53.1732 143.813 53.0329 144.189 52.7523 144.502C52.4781 144.808 52.1051 144.999 51.6332 145.076C52.3601 145.12 52.9309 145.347 53.3454 145.755C53.7599 146.163 53.9671 146.638 53.9671 147.18C53.9671 147.429 53.9193 147.671 53.8236 147.907C53.7344 148.143 53.5909 148.366 53.3932 148.577C53.1955 148.781 52.9628 148.947 52.6949 149.074C52.2167 149.316 51.5311 149.438 50.6384 149.438H47.6157ZM49.2514 148.405H50.5045C51.6332 148.468 52.1975 148.038 52.1975 147.113C52.1975 146.182 51.6109 145.717 50.4375 145.717H49.2514V148.405ZM49.2514 144.511H50.0166C50.4885 144.511 50.8616 144.413 51.1358 144.215C51.3972 144.024 51.528 143.756 51.528 143.411C51.528 143.118 51.3909 142.876 51.1166 142.684C50.8424 142.493 50.5172 142.397 50.141 142.397H49.2514V144.511Z" fill="#F6EBC8"/>
<path d="M42.9478 141.049C43.7831 141.049 44.5324 141.234 45.1956 141.603C45.8588 141.973 46.3754 142.493 46.7452 143.163C47.1151 143.826 47.3 144.578 47.3 145.42C47.3 146.249 47.1151 146.992 46.7452 147.649C46.3754 148.306 45.8556 148.816 45.1861 149.179C44.5165 149.536 43.7576 149.715 42.9095 149.715C42.0805 149.715 41.3408 149.527 40.6903 149.15C40.0399 148.787 39.5329 148.274 39.1694 147.61C38.8123 146.941 38.6338 146.185 38.6338 145.343C38.6338 144.521 38.8155 143.784 39.179 143.134C39.5425 142.477 40.0527 141.967 40.7095 141.603C41.3663 141.234 42.1124 141.049 42.9478 141.049ZM42.9669 142.617C42.4312 142.617 41.9721 142.751 41.5895 143.019C41.2069 143.281 40.9199 143.622 40.7286 144.043C40.5373 144.463 40.4416 144.916 40.4416 145.401C40.4416 145.879 40.5373 146.329 40.7286 146.75C40.9199 147.164 41.2069 147.505 41.5895 147.773C41.9721 148.034 42.4312 148.165 42.9669 148.165C43.4962 148.165 43.9458 148.034 44.3156 147.773C44.6919 147.512 44.9724 147.167 45.1574 146.74C45.3487 146.313 45.4443 145.866 45.4443 145.401C45.4443 144.923 45.3487 144.47 45.1574 144.043C44.9724 143.615 44.6919 143.271 44.3156 143.009C43.9394 142.748 43.4898 142.617 42.9669 142.617Z" fill="#F6EBC8"/>
<path d="M38.0693 142.77H34.7788L34.7884 149.437H33.0762V141.326H38.0406L38.0693 142.77Z" fill="#F6EBC8"/>
<path d="M26.1031 149.485V144.377L19.9717 149.772V141.345H21.7987V146.424L27.9301 140.943V149.485H26.1031Z" fill="#F6EBC8"/>
<path d="M168.627 123.378V126.764H169.622C170.311 126.764 170.888 126.889 171.353 127.137C171.819 127.341 172.176 127.625 172.425 127.989C172.68 128.346 172.807 128.751 172.807 129.203C172.807 129.663 172.677 130.064 172.415 130.409C172.16 130.747 171.793 131.011 171.315 131.203C170.843 131.388 170.295 131.48 169.67 131.48H166.819V123.378H168.627ZM168.627 130.361H169.45C169.724 130.361 170.046 130.259 170.416 130.055C170.773 129.851 170.952 129.561 170.952 129.184C170.952 128.368 170.451 127.96 169.45 127.96H168.627V130.361Z" fill="#F6EBC8"/>
<path d="M159.856 123.378H166.044L166.073 124.823H163.844V131.48H162.084V124.823H159.827L159.856 123.378Z" fill="#F6EBC8"/>
<path d="M159.444 129.404C158.494 130.999 157.193 131.796 155.542 131.796C154.936 131.796 154.387 131.697 153.896 131.499C153.399 131.295 152.972 131.002 152.615 130.619C152.264 130.237 151.993 129.781 151.802 129.251C151.617 128.716 151.524 128.132 151.524 127.501C151.524 126.85 151.617 126.251 151.802 125.703C151.993 125.148 152.261 124.679 152.605 124.297C152.956 123.908 153.373 123.611 153.858 123.407C154.343 123.197 154.878 123.091 155.465 123.091C156.122 123.091 156.718 123.225 157.254 123.493C157.789 123.755 158.233 124.131 158.583 124.622C158.864 124.985 159.062 125.393 159.176 125.846C159.291 126.299 159.368 126.93 159.406 127.74H153.294C153.313 128.237 153.421 128.677 153.619 129.06C153.823 129.443 154.094 129.736 154.432 129.94C154.776 130.144 155.172 130.246 155.618 130.246C156.607 130.246 157.416 129.663 158.048 128.496L159.444 129.404ZM153.447 126.41H157.569C157.467 125.83 157.244 125.387 156.9 125.081C156.556 124.775 156.116 124.622 155.58 124.622C154.413 124.622 153.702 125.218 153.447 126.41Z" fill="#F6EBC8"/>
<path d="M149.315 124.957H145.632V131.48H143.92V123.397H151.017L151.027 131.48H149.315V124.957Z" fill="#F6EBC8"/>
<path d="M135.904 133.795L137.788 129.28L139.482 129.892L137.167 134.302L135.904 133.795Z" fill="#F6EBC8"/>
<path d="M132.374 123.378V126.764H133.369C134.058 126.764 134.635 126.889 135.1 127.137C135.566 127.341 135.923 127.625 136.172 127.989C136.427 128.346 136.554 128.751 136.554 129.203C136.554 129.663 136.424 130.064 136.162 130.409C135.907 130.747 135.54 131.011 135.062 131.203C134.59 131.388 134.042 131.48 133.417 131.48H130.566V123.378H132.374ZM132.374 130.361H133.197C133.471 130.361 133.793 130.259 134.163 130.055C134.52 129.851 134.699 129.561 134.699 129.184C134.699 128.368 134.198 127.96 133.197 127.96H132.374V130.361Z" fill="#F6EBC8"/>
<path d="M123.603 123.378H129.792L129.82 124.823H127.592V131.48H125.832V124.823H123.574L123.603 123.378Z" fill="#F6EBC8"/>
<path d="M120.972 130.495C120.705 130.884 120.344 131.187 119.891 131.404C119.439 131.614 118.938 131.719 118.39 131.719C117.688 131.719 117.051 131.531 116.477 131.155C115.909 130.779 115.463 130.262 115.137 129.605C114.812 128.942 114.65 128.202 114.65 127.386C114.65 126.589 114.815 125.865 115.147 125.215C115.485 124.564 115.947 124.054 116.534 123.684C117.127 123.315 117.784 123.13 118.505 123.13C119.614 123.13 120.437 123.541 120.972 124.364V123.369H122.704V131.48H120.972V130.495ZM118.763 124.66C118.265 124.66 117.835 124.791 117.471 125.052C117.114 125.314 116.843 125.661 116.658 126.095C116.48 126.529 116.391 126.984 116.391 127.463C116.391 127.935 116.48 128.384 116.658 128.811C116.843 129.239 117.114 129.586 117.471 129.854C117.835 130.116 118.265 130.246 118.763 130.246C119.254 130.246 119.675 130.116 120.025 129.854C120.376 129.586 120.641 129.236 120.819 128.802C121.004 128.368 121.097 127.909 121.097 127.424C121.097 126.953 121.011 126.503 120.838 126.076C120.654 125.655 120.386 125.314 120.035 125.052C119.684 124.791 119.26 124.66 118.763 124.66Z" fill="#F6EBC8"/>
<path d="M107.724 131.48V123.378H110.575C111.423 123.378 112.086 123.56 112.564 123.923C113.043 124.287 113.282 124.784 113.282 125.416C113.282 125.856 113.142 126.232 112.861 126.544C112.587 126.85 112.214 127.042 111.742 127.118C112.469 127.163 113.04 127.389 113.454 127.797C113.869 128.205 114.076 128.681 114.076 129.223C114.076 129.471 114.028 129.714 113.932 129.95C113.843 130.186 113.7 130.409 113.502 130.619C113.304 130.823 113.071 130.989 112.804 131.117C112.325 131.359 111.64 131.48 110.747 131.48H107.724ZM109.36 130.447H110.613C111.742 130.511 112.306 130.08 112.306 129.156C112.306 128.225 111.72 127.759 110.546 127.759H109.36V130.447ZM109.36 126.554H110.125C110.597 126.554 110.97 126.455 111.244 126.257C111.506 126.066 111.637 125.798 111.637 125.454C111.637 125.161 111.499 124.918 111.225 124.727C110.951 124.536 110.626 124.44 110.25 124.44H109.36V126.554Z" fill="#F6EBC8"/>
<path d="M107.447 129.404C106.497 130.999 105.196 131.796 103.544 131.796C102.939 131.796 102.39 131.697 101.899 131.499C101.402 131.295 100.974 131.002 100.617 130.619C100.267 130.237 99.9956 129.781 99.8043 129.251C99.6193 128.716 99.5269 128.132 99.5269 127.501C99.5269 126.85 99.6193 126.251 99.8043 125.703C99.9956 125.148 100.263 124.679 100.608 124.297C100.958 123.908 101.376 123.611 101.861 123.407C102.345 123.197 102.881 123.091 103.468 123.091C104.125 123.091 104.721 123.225 105.257 123.493C105.792 123.755 106.235 124.131 106.586 124.622C106.867 124.985 107.064 125.393 107.179 125.846C107.294 126.299 107.37 126.93 107.409 127.74H101.296C101.316 128.237 101.424 128.677 101.622 129.06C101.826 129.443 102.097 129.736 102.435 129.94C102.779 130.144 103.174 130.246 103.621 130.246C104.609 130.246 105.419 129.663 106.05 128.496L107.447 129.404ZM101.449 126.41H105.572C105.47 125.83 105.247 125.387 104.903 125.081C104.558 124.775 104.118 124.622 103.583 124.622C102.416 124.622 101.705 125.218 101.449 126.41Z" fill="#F6EBC8"/>
<path d="M97.6712 133.097V131.48H91.3293V123.397H93.0415V129.921H96.7242V123.397H98.4364L98.4268 129.931H99.1538V133.097H97.6712Z" fill="#F6EBC8"/>
<path d="M88.766 127.989H85.0833V131.48H83.3711V123.397H85.0737V126.449H88.766V123.397H90.4686L90.4782 131.48H88.766V127.989Z" fill="#F6EBC8"/>
<path d="M80.7978 130.495C80.53 130.884 80.1697 131.187 79.7169 131.404C79.2642 131.614 78.7636 131.719 78.2152 131.719C77.5137 131.719 76.876 131.531 76.3021 131.155C75.7345 130.779 75.2882 130.262 74.9629 129.605C74.6377 128.942 74.4751 128.202 74.4751 127.386C74.4751 126.589 74.6409 125.865 74.9725 125.215C75.3105 124.564 75.7728 124.054 76.3595 123.684C76.9525 123.315 77.6093 123.13 78.3299 123.13C79.4395 123.13 80.2621 123.541 80.7978 124.364V123.369H82.5291V131.48H80.7978V130.495ZM78.5882 124.66C78.0908 124.66 77.6604 124.791 77.2969 125.052C76.9398 125.314 76.6688 125.661 76.4838 126.095C76.3053 126.529 76.216 126.984 76.216 127.463C76.216 127.935 76.3053 128.384 76.4838 128.811C76.6688 129.239 76.9398 129.586 77.2969 129.854C77.6604 130.116 78.0908 130.246 78.5882 130.246C79.0792 130.246 79.5001 130.116 79.8508 129.854C80.2016 129.586 80.4662 129.236 80.6448 128.802C80.8297 128.368 80.9222 127.909 80.9222 127.424C80.9222 126.953 80.8361 126.503 80.6639 126.076C80.479 125.655 80.2111 125.314 79.8604 125.052C79.5097 124.791 79.0856 124.66 78.5882 124.66Z" fill="#F6EBC8"/>
<path d="M67.6837 123.378H73.8725L73.9012 124.823H71.6725V131.48H69.9125V124.823H67.655L67.6837 123.378Z" fill="#F6EBC8"/>
<path d="M58.7114 123.091C59.5468 123.091 60.2961 123.276 60.9593 123.646C61.6225 124.016 62.139 124.536 62.5089 125.205C62.8788 125.868 63.0637 126.621 63.0637 127.463C63.0637 128.292 62.8788 129.035 62.5089 129.691C62.139 130.348 61.6193 130.858 60.9497 131.222C60.2802 131.579 59.5213 131.758 58.6732 131.758C57.8442 131.758 57.1045 131.569 56.454 131.193C55.8036 130.83 55.2966 130.316 54.9331 129.653C54.576 128.984 54.3975 128.228 54.3975 127.386C54.3975 126.564 54.5792 125.827 54.9427 125.177C55.3062 124.52 55.8163 124.01 56.4731 123.646C57.13 123.276 57.8761 123.091 58.7114 123.091ZM58.7306 124.66C58.1949 124.66 57.7358 124.794 57.3532 125.062C56.9705 125.323 56.6836 125.664 56.4923 126.085C56.301 126.506 56.2053 126.959 56.2053 127.444C56.2053 127.922 56.301 128.371 56.4923 128.792C56.6836 129.207 56.9705 129.548 57.3532 129.816C57.7358 130.077 58.1949 130.208 58.7306 130.208C59.2599 130.208 59.7094 130.077 60.0793 129.816C60.4555 129.554 60.7361 129.21 60.921 128.783C61.1123 128.355 61.208 127.909 61.208 127.444C61.208 126.965 61.1123 126.513 60.921 126.085C60.7361 125.658 60.4555 125.314 60.0793 125.052C59.7031 124.791 59.2535 124.66 58.7306 124.66Z" fill="#F6EBC8"/>
<path d="M53.8332 124.813H50.5427L50.5523 131.48H48.8401V123.369H53.8045L53.8332 124.813Z" fill="#F6EBC8"/>
<path d="M44.0957 123.091C44.9311 123.091 45.6804 123.276 46.3436 123.646C47.0068 124.016 47.5233 124.536 47.8932 125.205C48.263 125.868 48.448 126.621 48.448 127.463C48.448 128.292 48.263 129.035 47.8932 129.691C47.5233 130.348 47.0036 130.858 46.334 131.222C45.6644 131.579 44.9056 131.758 44.0575 131.758C43.2285 131.758 42.4887 131.569 41.8383 131.193C41.1878 130.83 40.6809 130.316 40.3174 129.653C39.9603 128.984 39.7817 128.228 39.7817 127.386C39.7817 126.564 39.9635 125.827 40.327 125.177C40.6904 124.52 41.2006 124.01 41.8574 123.646C42.5142 123.276 43.2603 123.091 44.0957 123.091ZM44.1148 124.66C43.5792 124.66 43.1201 124.794 42.7374 125.062C42.3548 125.323 42.0679 125.664 41.8766 126.085C41.6852 126.506 41.5896 126.959 41.5896 127.444C41.5896 127.922 41.6852 128.371 41.8766 128.792C42.0679 129.207 42.3548 129.548 42.7374 129.816C43.1201 130.077 43.5792 130.208 44.1148 130.208C44.6441 130.208 45.0937 130.077 45.4636 129.816C45.8398 129.554 46.1204 129.21 46.3053 128.783C46.4966 128.355 46.5923 127.909 46.5923 127.444C46.5923 126.965 46.4966 126.513 46.3053 126.085C46.1204 125.658 45.8398 125.314 45.4636 125.052C45.0873 124.791 44.6378 124.66 44.1148 124.66Z" fill="#F6EBC8"/>
<path d="M37.5338 127.989H33.8511V131.48H32.1389V123.397H33.8416V126.449H37.5338V123.397H39.2364L39.246 131.48H37.5338V127.989Z" fill="#F6EBC8"/>
<path d="M19.6465 131.528L22.497 122.728L25.5674 128.582L29.1066 122.728L31.8423 131.528H29.9675L28.3797 126.152L25.4909 131.815L23.0709 126.133L21.5404 131.528H19.6465Z" fill="#F6EBC8"/>
<path d="M151.343 115.838L153.227 111.323L154.92 111.935L152.605 116.345L151.343 115.838Z" fill="#F6EBC8"/>
<path d="M147.813 105.421V108.807H148.808C149.496 108.807 150.074 108.931 150.539 109.18C151.005 109.384 151.362 109.668 151.61 110.031C151.866 110.389 151.993 110.793 151.993 111.246C151.993 111.705 151.862 112.107 151.601 112.451C151.346 112.789 150.979 113.054 150.501 113.245C150.029 113.43 149.481 113.523 148.856 113.523H146.005V105.421H147.813ZM147.813 112.404H148.636C148.91 112.404 149.232 112.302 149.602 112.098C149.959 111.893 150.137 111.603 150.137 111.227C150.137 110.411 149.637 110.003 148.636 110.003H147.813V112.404Z" fill="#F6EBC8"/>
<path d="M139.041 105.421H145.23L145.259 106.865H143.03V113.523H141.27V106.865H139.013L139.041 105.421Z" fill="#F6EBC8"/>
<path d="M138.467 113.111C137.53 113.571 136.625 113.8 135.751 113.8C134.986 113.8 134.297 113.618 133.685 113.255C133.073 112.885 132.594 112.378 132.25 111.734C131.899 111.084 131.724 110.353 131.724 109.544C131.724 108.9 131.845 108.306 132.087 107.764C132.336 107.222 132.668 106.757 133.082 106.368C133.503 105.973 133.978 105.673 134.507 105.469C135.043 105.258 135.595 105.153 136.162 105.153C137.004 105.153 137.772 105.37 138.467 105.804V107.841C137.811 107.159 137.026 106.817 136.114 106.817C135.407 106.817 134.801 107.047 134.297 107.506C133.8 107.965 133.551 108.606 133.551 109.429C133.551 109.984 133.65 110.465 133.847 110.873C134.045 111.281 134.332 111.594 134.708 111.811C135.078 112.021 135.515 112.126 136.019 112.126C136.873 112.126 137.689 111.769 138.467 111.055V113.111Z" fill="#F6EBC8"/>
<path d="M131.571 111.447C130.621 113.041 129.32 113.838 127.668 113.838C127.063 113.838 126.514 113.739 126.023 113.542C125.526 113.338 125.098 113.044 124.741 112.662C124.391 112.279 124.12 111.823 123.928 111.294C123.743 110.758 123.651 110.175 123.651 109.543C123.651 108.893 123.743 108.294 123.928 107.745C124.12 107.19 124.387 106.722 124.732 106.339C125.082 105.95 125.5 105.654 125.985 105.449C126.469 105.239 127.005 105.134 127.592 105.134C128.249 105.134 128.845 105.268 129.381 105.536C129.916 105.797 130.359 106.173 130.71 106.664C130.991 107.028 131.188 107.436 131.303 107.889C131.418 108.341 131.494 108.973 131.533 109.783H125.42C125.44 110.28 125.548 110.72 125.746 111.103C125.95 111.485 126.221 111.779 126.559 111.983C126.903 112.187 127.298 112.289 127.745 112.289C128.733 112.289 129.543 111.705 130.174 110.538L131.571 111.447ZM125.574 108.453H129.696C129.594 107.873 129.371 107.429 129.027 107.123C128.682 106.817 128.242 106.664 127.707 106.664C126.54 106.664 125.829 107.26 125.574 108.453Z" fill="#F6EBC8"/>
<path d="M115.09 105.134C115.925 105.134 116.675 105.319 117.338 105.689C118.001 106.058 118.517 106.578 118.887 107.248C119.257 107.911 119.442 108.663 119.442 109.505C119.442 110.334 119.257 111.077 118.887 111.734C118.517 112.391 117.998 112.901 117.328 113.264C116.659 113.621 115.9 113.8 115.052 113.8C114.223 113.8 113.483 113.612 112.832 113.236C112.182 112.872 111.675 112.359 111.312 111.696C110.954 111.026 110.776 110.27 110.776 109.429C110.776 108.606 110.958 107.869 111.321 107.219C111.685 106.562 112.195 106.052 112.852 105.689C113.508 105.319 114.254 105.134 115.09 105.134ZM115.109 106.703C114.573 106.703 114.114 106.836 113.732 107.104C113.349 107.366 113.062 107.707 112.871 108.128C112.679 108.549 112.584 109.001 112.584 109.486C112.584 109.964 112.679 110.414 112.871 110.835C113.062 111.249 113.349 111.59 113.732 111.858C114.114 112.12 114.573 112.25 115.109 112.25C115.638 112.25 116.088 112.12 116.458 111.858C116.834 111.597 117.115 111.252 117.299 110.825C117.491 110.398 117.586 109.952 117.586 109.486C117.586 109.008 117.491 108.555 117.299 108.128C117.115 107.7 116.834 107.356 116.458 107.095C116.081 106.833 115.632 106.703 115.109 106.703Z" fill="#F6EBC8"/>
<path d="M108.528 110.031H104.845V113.523H103.133V105.44H104.836V108.491H108.528V105.44H110.231L110.24 113.523H108.528V110.031Z" fill="#F6EBC8"/>
<path d="M102.617 113.111C101.679 113.571 100.774 113.8 99.9001 113.8C99.1348 113.8 98.4461 113.618 97.8339 113.255C97.2218 112.885 96.7435 112.378 96.3991 111.734C96.0484 111.084 95.873 110.353 95.873 109.544C95.873 108.9 95.9942 108.306 96.2365 107.764C96.4852 107.222 96.8168 106.757 97.2313 106.368C97.6522 105.973 98.1273 105.673 98.6566 105.469C99.1922 105.258 99.7438 105.153 100.311 105.153C101.153 105.153 101.922 105.37 102.617 105.804V107.841C101.96 107.159 101.175 106.817 100.264 106.817C99.5557 106.817 98.9499 107.047 98.4461 107.506C97.9487 107.965 97.7 108.606 97.7 109.429C97.7 109.984 97.7989 110.465 97.9966 110.873C98.1942 111.281 98.4812 111.594 98.8574 111.811C99.2273 112.021 99.6641 112.126 100.168 112.126C101.022 112.126 101.839 111.769 102.617 111.055V113.111Z" fill="#F6EBC8"/>
<path d="M86.939 105.411H88.9955L91.4634 110.07L93.7017 105.411H95.6434L89.7225 117.387H87.8381L90.5642 111.935L86.939 105.411Z" fill="#F6EBC8"/>
<path d="M81.5631 105.411V108.367L84.3753 105.411H86.6519L82.9501 109.018L86.9676 113.523H84.6336L81.5631 109.821V113.523H79.8318V105.411H81.5631Z" fill="#F6EBC8"/>
<path d="M72.696 113.523V105.421H75.5465C76.3947 105.421 77.0579 105.603 77.5361 105.966C78.0144 106.33 78.2535 106.827 78.2535 107.458C78.2535 107.898 78.1132 108.275 77.8326 108.587C77.5584 108.893 77.1854 109.084 76.7135 109.161C77.4405 109.206 78.0112 109.432 78.4257 109.84C78.8402 110.248 79.0474 110.723 79.0474 111.265C79.0474 111.514 78.9996 111.756 78.904 111.992C78.8147 112.228 78.6712 112.451 78.4735 112.662C78.2758 112.866 78.0431 113.032 77.7753 113.159C77.297 113.402 76.6115 113.523 75.7187 113.523H72.696ZM74.3317 112.49H75.5848C76.7135 112.553 77.2779 112.123 77.2779 111.198C77.2779 110.267 76.6912 109.802 75.5178 109.802H74.3317V112.49ZM74.3317 108.597H75.097C75.5688 108.597 75.9419 108.498 76.2161 108.3C76.4776 108.109 76.6083 107.841 76.6083 107.497C76.6083 107.203 76.4712 106.961 76.197 106.77C75.9228 106.578 75.5975 106.483 75.2213 106.483H74.3317V108.597Z" fill="#F6EBC8"/>
<path d="M56.1096 113.571L58.9601 104.771L62.0306 110.625L65.5698 104.771L68.3055 113.571H66.4307L64.8428 108.195L61.9541 113.858L59.534 108.176L58.0036 113.571H56.1096Z" fill="#F6EBC8"/>
<path d="M56.1193 111.447C55.1692 113.041 53.8683 113.838 52.2167 113.838C51.6109 113.838 51.0625 113.739 50.5714 113.542C50.074 113.338 49.6468 113.044 49.2897 112.662C48.9389 112.279 48.6679 111.823 48.4766 111.294C48.2917 110.758 48.1992 110.175 48.1992 109.543C48.1992 108.893 48.2917 108.294 48.4766 107.745C48.6679 107.19 48.9358 106.722 49.2801 106.339C49.6308 105.95 50.0485 105.654 50.5332 105.449C51.0178 105.239 51.5535 105.134 52.1402 105.134C52.797 105.134 53.3932 105.268 53.9289 105.536C54.4645 105.797 54.9077 106.173 55.2585 106.664C55.539 107.028 55.7367 107.436 55.8515 107.889C55.9663 108.341 56.0428 108.973 56.0811 109.783H49.9688C49.9879 110.28 50.0963 110.72 50.294 111.103C50.4981 111.485 50.7691 111.779 51.1071 111.983C51.4514 112.187 51.8468 112.289 52.2932 112.289C53.2816 112.289 54.0915 111.705 54.7228 110.538L56.1193 111.447ZM50.1219 108.453H54.2445C54.1425 107.873 53.9193 107.429 53.575 107.123C53.2306 106.817 52.7906 106.664 52.2549 106.664C51.088 106.664 50.3769 107.26 50.1219 108.453Z" fill="#F6EBC8"/>
<path d="M40.3268 111.964H44.9852V106.789H42.2782C42.1442 109.729 41.4938 111.453 40.3268 111.964ZM38.4807 112.002C39.6477 111.492 40.2886 109.298 40.4033 105.421H46.8313V112.002H47.7687V115.206H45.9226V113.618H39.3703V115.206H37.5242V112.002H38.4807Z" fill="#F6EBC8"/>
<path d="M28.3606 105.411H30.4171L32.885 110.07L35.1233 105.411H37.0651L31.1441 117.387H29.2597L31.9859 111.935L28.3606 105.411Z" fill="#F6EBC8"/>
<path d="M24.0274 106.703C23.4918 106.703 23.0326 106.836 22.65 107.104C22.2674 107.366 21.9804 107.707 21.7891 108.128C21.5978 108.549 21.5022 109.001 21.5022 109.486C21.5022 109.964 21.5978 110.414 21.7891 110.835C21.9804 111.249 22.2674 111.59 22.65 111.858C23.0326 112.12 23.4918 112.25 24.0274 112.25C24.5567 112.25 25.0063 112.12 25.3762 111.858C25.7524 111.597 26.033 111.252 26.2179 110.825C26.4092 110.398 26.5049 109.952 26.5049 109.486C26.5049 109.008 26.4092 108.555 26.2179 108.128C26.033 107.701 25.7524 107.356 25.3762 107.095C24.9999 106.833 24.5503 106.703 24.0274 106.703ZM22.6787 103.651C22.0793 103.849 21.7509 104.541 21.6935 105.727C21.719 105.714 21.7445 105.698 21.77 105.679C22.4268 105.316 23.1729 105.134 24.0083 105.134C24.8437 105.134 25.593 105.319 26.2562 105.689C26.9194 106.058 27.4359 106.578 27.8058 107.248C28.1756 107.911 28.3605 108.663 28.3605 109.505C28.3605 110.334 28.1756 111.077 27.8058 111.734C27.4359 112.391 26.9162 112.901 26.2466 113.264C25.577 113.621 24.8182 113.8 23.97 113.8C23.141 113.8 22.4013 113.612 21.7509 113.236C21.1004 112.872 20.5935 112.359 20.23 111.696C19.8729 111.026 19.6943 110.27 19.6943 109.429C19.4711 106.757 19.6561 104.885 20.2491 103.814C20.8422 102.736 21.5086 102.143 22.2483 102.035C23.0071 101.926 23.868 101.872 24.8309 101.872C25.8002 101.866 26.5112 101.438 26.964 100.59L28.6475 100.389C28.0162 102.137 26.9927 103.033 25.577 103.077C24.1614 103.122 23.1953 103.313 22.6787 103.651Z" fill="#F6EBC8"/>
<path d="M114.425 63.9387H128.607L128.673 67.2487H123.566V82.5055H119.532V67.2487H114.359L114.425 63.9387Z" fill="#F6EBC8"/>
<path d="M113.482 77.7486C111.305 81.4021 108.323 83.2288 104.538 83.2288C103.15 83.2288 101.893 83.0023 100.768 82.5492C99.6282 82.0816 98.6491 81.4094 97.8307 80.5325C97.027 79.6557 96.4059 78.6108 95.9675 77.3979C95.5437 76.1703 95.3318 74.8332 95.3318 73.3864C95.3318 71.8958 95.5437 70.5221 95.9675 69.2653C96.4059 67.9939 97.0197 66.9198 97.8088 66.043C98.6126 65.1516 99.5698 64.472 100.68 64.0044C101.791 63.5221 103.019 63.281 104.363 63.281C105.868 63.281 107.235 63.5879 108.462 64.2017C109.69 64.8008 110.705 65.663 111.509 66.7883C112.152 67.6213 112.605 68.5566 112.868 69.5941C113.131 70.6317 113.307 72.0785 113.394 73.9344H99.3871C99.4309 75.0743 99.6794 76.0827 100.132 76.9595C100.6 77.8363 101.221 78.5085 101.996 78.9762C102.785 79.4438 103.691 79.6776 104.714 79.6776C106.979 79.6776 108.835 78.3405 110.282 75.6662L113.482 77.7486ZM99.7378 70.8875H109.186C108.952 69.5576 108.44 68.542 107.651 67.8405C106.862 67.139 105.854 66.7883 104.626 66.7883C101.952 66.7883 100.322 68.1547 99.7378 70.8875Z" fill="#F6EBC8"/>
<path d="M82.9247 63.9167V70.6902L89.3693 63.9167H94.5864L86.1032 72.1808L95.3098 82.5054H89.9612L82.9247 74.0222V82.5054H78.957V63.9167H82.9247Z" fill="#F6EBC8"/>
<path d="M72.9506 74.5043H64.5112V82.5054H60.5874V63.9824H64.4893V70.9751H72.9506V63.9824H76.8525L76.8744 82.5054H72.9506V74.5043Z" fill="#F6EBC8"/>
<path d="M54.691 80.2475C54.0772 81.139 53.2515 81.8331 52.2139 82.33C51.1763 82.8123 50.0292 83.0534 48.7724 83.0534C47.1649 83.0534 45.7035 82.6223 44.3883 81.7601C43.0876 80.8979 42.0647 79.7141 41.3194 78.2089C40.5741 76.6891 40.2014 74.9939 40.2014 73.1233C40.2014 71.2966 40.5814 69.638 41.3413 68.1474C42.1158 66.6567 43.1753 65.4876 44.5198 64.64C45.8789 63.7925 47.3841 63.3687 49.0354 63.3687C51.5782 63.3687 53.4634 64.3112 54.691 66.1964V63.9167H58.6586V82.5054H54.691V80.2475ZM49.6273 66.876C48.4874 66.876 47.501 67.1755 46.668 67.7747C45.8496 68.3739 45.2285 69.1703 44.8047 70.164C44.3956 71.1578 44.191 72.2027 44.191 73.2987C44.191 74.3801 44.3956 75.4104 44.8047 76.3895C45.2285 77.3686 45.8496 78.1651 46.668 78.7789C47.501 79.378 48.4874 79.6776 49.6273 79.6776C50.7525 79.6776 51.7171 79.378 52.5208 78.7789C53.3246 78.1651 53.931 77.3613 54.3402 76.3676C54.764 75.3739 54.9759 74.3217 54.9759 73.211C54.9759 72.1296 54.7786 71.0993 54.3841 70.1202C53.9603 69.1557 53.3465 68.3739 52.5427 67.7747C51.739 67.1755 50.7672 66.876 49.6273 66.876Z" fill="#F6EBC8"/>
<path d="M29.7231 66.8761C28.4955 66.8761 27.4433 67.183 26.5665 67.7967C25.6897 68.3959 25.0321 69.1777 24.5937 70.1422C24.1552 71.1067 23.936 72.1443 23.936 73.255C23.936 74.351 24.1552 75.3813 24.5937 76.3458C25.0321 77.2957 25.6897 78.0775 26.5665 78.6913C27.4433 79.2905 28.4955 79.59 29.7231 79.59C30.936 79.59 31.9663 79.2905 32.8139 78.6913C33.6761 78.0921 34.3191 77.303 34.7429 76.3239C35.1813 75.3447 35.4005 74.3218 35.4005 73.255C35.4005 72.1589 35.1813 71.1214 34.7429 70.1422C34.3191 69.1631 33.6761 68.374 32.8139 67.7748C31.9517 67.1756 30.9214 66.8761 29.7231 66.8761ZM26.6323 59.8834C25.2586 60.3364 24.506 61.922 24.3745 64.6402C24.4329 64.6109 24.4914 64.5744 24.5498 64.5306C26.055 63.6976 27.7648 63.2811 29.6792 63.2811C31.5936 63.2811 33.3108 63.7049 34.8306 64.5525C36.3504 65.4001 37.5341 66.5911 38.3817 68.1255C39.2293 69.6454 39.6531 71.3698 39.6531 73.2988C39.6531 75.1986 39.2293 76.9011 38.3817 78.4063C37.5341 79.9115 36.3431 81.0806 34.8087 81.9136C33.2742 82.732 31.5352 83.1412 29.5916 83.1412C27.6918 83.1412 25.9966 82.7101 24.506 81.8479C23.0154 81.0149 21.8536 79.8385 21.0206 78.3186C20.2022 76.7842 19.793 75.0525 19.793 73.1234C19.2816 67.0003 19.7054 62.7111 21.0644 60.256C22.4235 57.7863 23.9507 56.4272 25.6458 56.1788C27.3849 55.9304 29.3577 55.8061 31.5644 55.8061C33.7857 55.7915 35.4151 54.8124 36.4527 52.8688L40.3108 52.4084C38.864 56.4126 36.5185 58.4658 33.2742 58.5681C30.03 58.6704 27.816 59.1089 26.6323 59.8834Z" fill="#F6EBC8"/>
</svg>
