<svg width="276" height="115" viewBox="0 0 276 115" fill="none" xmlns="http://www.w3.org/2000/svg">
<path d="M194.559 76.662C190.459 76.662 186.706 75.7585 183.301 73.9515C179.965 72.1445 177.046 69.6078 174.544 66.3413C172.111 63.0054 170.2 59.0787 168.81 54.5613C167.49 49.9743 166.829 44.9704 166.829 39.5495C166.829 33.7811 167.49 28.4991 168.81 23.7037C170.131 18.9083 171.972 14.7731 174.335 11.2981C176.768 7.82319 179.617 5.14748 182.884 3.27101C186.22 1.32504 189.868 0.352051 193.83 0.352051C197.861 0.352051 201.579 1.25554 204.984 3.06251C208.39 4.86948 211.309 7.44095 213.741 10.7769C216.243 14.0434 218.154 17.97 219.475 22.557C220.865 27.0744 221.56 32.0436 221.56 37.4645C221.56 43.2329 220.9 48.5149 219.579 53.3103C218.259 58.1057 216.382 62.2409 213.95 65.7159C211.587 69.1908 208.737 71.9013 205.401 73.8472C202.135 75.7237 198.521 76.662 194.559 76.662ZM186.532 39.4452C186.532 45.5611 186.671 50.7041 186.949 54.874C187.227 59.044 187.679 62.4147 188.305 64.9861C188.93 67.5576 189.729 69.3993 190.702 70.5113C191.745 71.6233 193.03 72.1793 194.559 72.1793C195.949 72.1793 197.096 71.5885 198 70.407C198.973 69.2256 199.737 67.2796 200.293 64.5691C200.849 61.8587 201.231 58.3142 201.44 53.9358C201.718 49.4878 201.857 44.0322 201.857 37.5688C201.857 31.4528 201.718 26.3099 201.44 22.14C201.162 17.9005 200.71 14.5298 200.085 12.0279C199.459 9.45642 198.625 7.6147 197.583 6.50271C196.61 5.39073 195.359 4.83473 193.83 4.83473C192.44 4.83473 191.293 5.42548 190.39 6.60696C189.486 7.78844 188.722 9.73441 188.096 12.4449C187.54 15.1553 187.123 18.7345 186.845 23.1825C186.637 27.5609 186.532 32.9818 186.532 39.4452Z" fill="#FF9EA7" fill-opacity="0.75"/>
<path d="M137.608 76.662C133.438 76.662 129.581 76.245 126.036 75.411C122.492 74.6465 119.399 73.465 116.758 71.8665C116.272 71.5885 116.029 71.1715 116.029 70.6155V50.2871C116.029 49.2446 116.307 48.6539 116.863 48.5149C117.419 48.3064 117.975 48.6539 118.531 49.5573C120.963 53.6578 123.083 57.1327 124.89 59.9822C126.766 62.8316 128.434 65.1599 129.894 66.9668C131.353 68.7738 132.639 70.0943 133.751 70.9283C134.932 71.7623 136.044 72.1793 137.087 72.1793C138.129 72.1793 139.102 71.7275 140.006 70.824C140.909 69.851 141.674 68.5653 142.299 66.9668C142.994 65.2989 143.515 63.3529 143.863 61.1289C144.28 58.905 144.488 56.542 144.488 54.04C144.488 51.2601 144.071 48.6539 143.237 46.2214C142.473 43.7194 141.396 41.5997 140.006 39.8622C138.685 38.0553 137.087 36.6305 135.21 35.588C133.403 34.5456 131.423 34.0243 129.268 34.0243C126.766 34.0243 124.751 34.4761 123.222 35.3795C122.874 35.588 122.422 35.5185 121.866 35.171L119.573 33.2946C119.365 33.0861 119.191 32.9123 119.052 32.7733C118.982 32.6343 118.948 32.3911 118.948 32.0436L119.99 1.39453C119.99 0.699545 120.337 0.352051 121.032 0.352051H158.145C158.84 0.352051 159.187 0.699545 159.187 1.39453V21.5145C159.187 23.3215 158.319 23.669 156.581 22.557C150.048 18.3175 144.349 14.9121 139.484 12.3406C134.62 9.76917 130.102 7.75369 125.932 6.29421L125.202 28.8119C126.87 28.1169 128.886 27.4567 131.249 26.8312C133.681 26.2057 136.114 25.8929 138.546 25.8929C142.299 26.0319 145.705 26.7269 148.763 27.9779C151.89 29.2289 154.566 30.8969 156.79 32.9818C159.014 35.0668 160.716 37.4993 161.898 40.2792C163.149 43.0592 163.774 46.0129 163.774 49.1403C163.774 53.0323 163.079 56.6462 161.689 59.9822C160.369 63.3181 158.527 66.2371 156.164 68.7391C153.871 71.1715 151.126 73.1175 147.929 74.577C144.732 75.967 141.291 76.662 137.608 76.662Z" fill="#FF9EA7" fill-opacity="0.75"/>
<path d="M100.465 48.3065C97.8932 48.3065 95.6692 47.403 93.7927 45.596C91.9858 43.7195 91.0823 41.4956 91.0823 38.9241C91.0823 36.3527 91.9858 34.1634 93.7927 32.3565C95.6692 30.5495 97.8932 29.646 100.465 29.646C103.036 29.646 105.225 30.5495 107.032 32.3565C108.839 34.1634 109.743 36.3527 109.743 38.9241C109.743 41.4956 108.839 43.7195 107.032 45.596C105.225 47.403 103.036 48.3065 100.465 48.3065ZM91.0823 67.2797C91.0823 64.7082 91.9858 62.519 93.7927 60.712C95.6692 58.9051 97.8932 58.0016 100.465 58.0016C103.036 58.0016 105.225 58.9051 107.032 60.712C108.839 62.519 109.743 64.7082 109.743 67.2797C109.743 69.8512 108.839 72.0751 107.032 73.9516C105.225 75.7586 103.036 76.6621 100.465 76.6621C97.8932 76.6621 95.6692 75.7586 93.7927 73.9516C91.9858 72.0751 91.0823 69.8512 91.0823 67.2797Z" fill="#FF9EA7" fill-opacity="0.75"/>
<path d="M60.4976 74.7853C61.7486 72.4224 62.6521 69.5034 63.2081 66.0285C63.8335 62.484 64.1463 58.0013 64.1463 52.5804V25.2673C64.1463 22.6264 63.3818 20.7151 61.8528 19.5336C60.3933 18.3522 58.0999 17.7614 54.9724 17.7614C54.2079 17.7614 53.7909 17.4834 53.7214 16.9274C53.7214 16.3019 54.0342 15.8849 54.6597 15.6765C57.8566 14.634 60.7408 13.4525 63.3123 12.132C65.8838 10.8115 68.1772 9.49104 70.1927 8.17056C72.2777 6.85008 74.1194 5.5991 75.7179 4.41761C77.3163 3.16663 78.7758 2.12415 80.0963 1.29016C80.4438 1.08166 80.687 1.08166 80.826 1.29016C81.0345 1.49866 81.1388 1.77665 81.1388 2.12415V52.5804C81.1388 58.0013 81.4168 62.484 81.9728 66.0285C82.5983 69.5034 83.5365 72.4224 84.7875 74.7853V74.9938H60.4976V74.7853Z" fill="#FF9EA7" fill-opacity="0.75"/>
<path d="M2.04839 74.994C1.3534 74.994 1.0059 74.6465 1.0059 73.9515V71.7623C1.0059 71.3453 1.45765 70.5808 2.36113 69.4688C7.71256 62.8664 12.2995 56.9242 16.1219 51.6423C20.0139 46.2909 23.2108 41.4607 25.7128 37.1518C28.2148 32.7733 30.0565 28.8466 31.238 25.3717C32.4194 21.8967 33.0102 18.6998 33.0102 15.7808C33.0102 12.4449 32.4194 9.80391 31.238 7.85794C30.126 5.84247 28.7013 4.83473 26.9638 4.83473C25.1568 4.83473 23.7321 5.66872 22.6896 7.3367C21.6471 8.93517 20.8826 10.8464 20.3961 13.0704C19.9096 15.2248 19.6316 17.4141 19.5621 19.638C19.4926 21.7925 19.5621 23.4257 19.7706 24.5377C19.9791 26.3447 19.2841 27.1787 17.6857 27.0397C14.9752 26.8312 12.2647 26.4142 9.55428 25.7887C6.84382 25.0937 4.3766 24.2597 2.15264 23.2867C1.59664 23.0087 1.11015 22.7307 0.693158 22.4527C0.345663 22.1052 0.206665 21.6535 0.276164 21.0975C0.623659 18.1785 1.52715 15.4681 2.98662 12.9661C4.5156 10.4642 6.42682 8.27493 8.72029 6.39846C11.0138 4.52199 13.62 3.06251 16.5389 2.02002C19.5274 0.908042 22.6548 0.352051 25.9213 0.352051C29.2572 0.352051 32.35 0.873293 35.1994 1.91578C38.1184 2.95826 40.6551 4.38299 42.8095 6.18997C44.964 7.99694 46.632 10.1514 47.8135 12.6534C49.0645 15.0858 49.69 17.7268 49.69 20.5763C49.69 24.7462 48.8907 28.7076 47.2922 32.4606C45.6938 36.2135 43.2613 39.9665 39.9948 43.7194C36.7979 47.4724 32.7669 51.3296 27.902 55.291C23.0371 59.1829 17.3729 63.3529 10.9095 67.8008C10.423 68.0788 10.2145 68.3916 10.284 68.7391C10.3535 69.0866 10.6663 69.1908 11.2223 69.0518C17.2687 67.8703 23.5583 65.8548 30.0912 63.0054C36.6936 60.1559 43.0528 56.7505 49.1687 52.789C50.9062 51.6771 51.7749 52.0245 51.7749 53.8315V73.9515C51.7749 74.6465 51.4274 74.994 50.7324 74.994H2.04839Z" fill="#FF9EA7" fill-opacity="0.75"/>
<path d="M123.436 109.846C123.169 110.235 122.809 110.537 122.357 110.753C121.906 110.963 121.406 111.068 120.859 111.068C120.159 111.068 119.523 110.88 118.95 110.505C118.384 110.13 117.938 109.614 117.614 108.959C117.289 108.297 117.127 107.559 117.127 106.744C117.127 105.949 117.293 105.227 117.623 104.578C117.961 103.929 118.422 103.42 119.007 103.051C119.599 102.682 120.255 102.497 120.974 102.497C122.081 102.497 122.901 102.908 123.436 103.729V102.736H125.163V110.829H123.436V109.846ZM121.231 104.024C120.735 104.024 120.305 104.155 119.943 104.416C119.586 104.677 119.316 105.023 119.131 105.456C118.953 105.889 118.864 106.344 118.864 106.821C118.864 107.292 118.953 107.74 119.131 108.167C119.316 108.593 119.586 108.94 119.943 109.207C120.305 109.468 120.735 109.598 121.231 109.598C121.721 109.598 122.141 109.468 122.491 109.207C122.841 108.94 123.105 108.59 123.283 108.157C123.468 107.724 123.56 107.266 123.56 106.783C123.56 106.312 123.474 105.863 123.302 105.437C123.118 105.017 122.851 104.677 122.501 104.416C122.151 104.155 121.728 104.024 121.231 104.024Z" fill="#F6EBC8"/>
<path d="M110.351 102.745H116.526L116.554 104.187H114.331V110.829H112.574V104.187H110.322L110.351 102.745Z" fill="#F6EBC8"/>
<path d="M105.617 104.024C104.872 104.024 104.29 104.304 103.87 104.864C103.45 105.418 103.24 106.07 103.24 106.821C103.24 107.298 103.329 107.75 103.507 108.176C103.686 108.602 103.95 108.946 104.3 109.207C104.65 109.468 105.069 109.598 105.559 109.598C106.068 109.598 106.501 109.465 106.857 109.197C107.22 108.93 107.491 108.58 107.669 108.148C107.847 107.708 107.936 107.247 107.936 106.764C107.936 106.299 107.847 105.857 107.669 105.437C107.497 105.011 107.236 104.67 106.886 104.416C106.536 104.155 106.113 104.024 105.617 104.024ZM101.627 114.685V102.726L103.355 102.736V103.729C103.946 102.908 104.78 102.497 105.855 102.497C106.651 102.497 107.335 102.704 107.907 103.118C108.486 103.531 108.919 104.069 109.205 104.731C109.498 105.392 109.644 106.095 109.644 106.84C109.644 107.578 109.504 108.268 109.224 108.911C108.944 109.554 108.521 110.072 107.955 110.467C107.395 110.861 106.721 111.058 105.932 111.058C104.856 111.058 103.997 110.654 103.355 109.846V114.685H101.627Z" fill="#F6EBC8"/>
<path d="M101.217 108.758C100.269 110.349 98.9708 111.144 97.3228 111.144C96.7183 111.144 96.1711 111.046 95.6812 110.848C95.1849 110.645 94.7586 110.352 94.4023 109.97C94.0523 109.589 93.7819 109.134 93.591 108.605C93.4065 108.071 93.3142 107.489 93.3142 106.859C93.3142 106.21 93.4065 105.612 93.591 105.065C93.7819 104.511 94.0491 104.043 94.3927 103.662C94.7427 103.273 95.1594 102.978 95.643 102.774C96.1266 102.564 96.6611 102.459 97.2464 102.459C97.9018 102.459 98.4967 102.593 99.0312 102.86C99.5657 103.121 100.008 103.496 100.358 103.986C100.638 104.349 100.835 104.756 100.95 105.208C101.064 105.659 101.14 106.289 101.179 107.097H95.0799C95.099 107.594 95.2071 108.033 95.4044 108.415C95.608 108.796 95.8784 109.089 96.2157 109.293C96.5592 109.496 96.9537 109.598 97.3991 109.598C98.3854 109.598 99.1935 109.016 99.8234 107.851L101.217 108.758ZM95.2326 105.771H99.3462C99.2444 105.192 99.0217 104.75 98.6781 104.444C98.3345 104.139 97.8954 103.986 97.361 103.986C96.1966 103.986 95.4871 104.581 95.2326 105.771Z" fill="#F6EBC8"/>
<path d="M93.152 110.419C92.2167 110.877 91.3132 111.106 90.4415 111.106C89.6779 111.106 88.9907 110.925 88.3799 110.562C87.7691 110.193 87.2919 109.687 86.9483 109.044C86.5983 108.395 86.4233 107.667 86.4233 106.859C86.4233 106.216 86.5442 105.624 86.786 105.084C87.0342 104.543 87.365 104.078 87.7786 103.69C88.1986 103.296 88.6726 102.997 89.2007 102.793C89.7352 102.583 90.2856 102.478 90.8519 102.478C91.6918 102.478 92.4585 102.694 93.152 103.127V105.16C92.4967 104.479 91.714 104.139 90.8041 104.139C90.0979 104.139 89.4934 104.368 88.9907 104.826C88.4944 105.284 88.2463 105.923 88.2463 106.744C88.2463 107.298 88.3449 107.778 88.5422 108.185C88.7394 108.593 89.0257 108.904 89.4011 109.121C89.7702 109.331 90.206 109.436 90.7087 109.436C91.5613 109.436 92.3758 109.079 93.152 108.367V110.419Z" fill="#F6EBC8"/>
<path d="M86.2705 108.758C85.3225 110.349 84.0245 111.144 82.3765 111.144C81.772 111.144 81.2248 111.046 80.7349 110.848C80.2386 110.645 79.8123 110.352 79.456 109.97C79.106 109.589 78.8356 109.134 78.6447 108.605C78.4602 108.071 78.3679 107.489 78.3679 106.859C78.3679 106.21 78.4602 105.612 78.6447 105.065C78.8356 104.511 79.1028 104.043 79.4464 103.662C79.7964 103.273 80.2131 102.978 80.6967 102.774C81.1803 102.564 81.7148 102.459 82.3001 102.459C82.9555 102.459 83.5504 102.593 84.0849 102.86C84.6194 103.121 85.0616 103.496 85.4116 103.986C85.6915 104.349 85.8888 104.756 86.0033 105.208C86.1178 105.659 86.1942 106.289 86.2324 107.097H80.1336C80.1527 107.594 80.2609 108.033 80.4581 108.415C80.6617 108.796 80.9321 109.089 81.2694 109.293C81.613 109.496 82.0075 109.598 82.4529 109.598C83.4391 109.598 84.2472 109.016 84.8771 107.851L86.2705 108.758ZM80.2863 105.771H84.3999C84.2981 105.192 84.0754 104.75 83.7318 104.444C83.3882 104.139 82.9492 103.986 82.4147 103.986C81.2503 103.986 80.5408 104.581 80.2863 105.771Z" fill="#F6EBC8"/>
<path d="M70.513 109.274H75.1611V104.11H72.46C72.3264 107.043 71.6774 108.765 70.513 109.274ZM68.671 109.312C69.8354 108.803 70.4748 106.614 70.5894 102.745H77.0031V109.312H77.9384V112.509H76.0964V110.925H69.5586V112.509H67.7166V109.312H68.671Z" fill="#F6EBC8"/>
<path d="M61.0167 110.829V107.346L57.5808 110.829H55.3379L59.3083 107.269C59.0347 107.257 58.6816 107.196 58.2489 107.088C57.8162 106.98 57.4472 106.827 57.1418 106.63C56.8363 106.426 56.6009 106.188 56.4355 105.914C56.2764 105.634 56.1969 105.322 56.1969 104.979C56.1969 104.26 56.5596 103.709 57.2849 103.328C58.0166 102.939 58.9488 102.745 60.0814 102.745H62.8397V110.829H61.0167ZM61.0167 103.824H60.4536C59.601 103.824 58.9806 103.929 58.5925 104.139C58.2107 104.349 58.0198 104.661 58.0198 105.074C58.0198 105.462 58.2202 105.784 58.6211 106.038C59.0283 106.286 59.601 106.41 60.3391 106.41H61.0167V103.824Z" fill="#F6EBC8"/>
<path d="M43.2356 110.877L46.0798 102.096L49.1435 107.938L52.6748 102.096L55.4045 110.877H53.5338L51.9495 105.513L49.0671 111.163L46.6524 105.494L45.1254 110.877H43.2356Z" fill="#F6EBC8"/>
<path d="M43.2452 108.758C42.2971 110.349 40.9991 111.144 39.3511 111.144C38.7466 111.144 38.1994 111.046 37.7095 110.848C37.2132 110.645 36.7869 110.352 36.4306 109.97C36.0806 109.589 35.8102 109.134 35.6193 108.605C35.4348 108.071 35.3425 107.489 35.3425 106.859C35.3425 106.21 35.4348 105.612 35.6193 105.065C35.8102 104.511 36.0774 104.043 36.421 103.662C36.771 103.273 37.1877 102.978 37.6713 102.774C38.1549 102.564 38.6894 102.459 39.2748 102.459C39.9301 102.459 40.525 102.593 41.0595 102.86C41.594 103.121 42.0362 103.496 42.3862 103.986C42.6661 104.349 42.8634 104.756 42.9779 105.208C43.0924 105.659 43.1688 106.289 43.207 107.097H37.1082C37.1273 107.594 37.2355 108.033 37.4327 108.415C37.6363 108.796 37.9067 109.089 38.244 109.293C38.5876 109.496 38.9821 109.598 39.4275 109.598C40.4137 109.598 41.2218 109.016 41.8517 107.851L43.2452 108.758ZM37.2609 105.771H41.3745C41.2727 105.192 41.05 104.75 40.7064 104.444C40.3628 104.139 39.9238 103.986 39.3893 103.986C38.2249 103.986 37.5154 104.581 37.2609 105.771Z" fill="#F6EBC8"/>
<path d="M31.019 104.024C30.2746 104.024 29.6924 104.304 29.2724 104.864C28.8525 105.418 28.6425 106.07 28.6425 106.821C28.6425 107.298 28.7316 107.75 28.9098 108.176C29.0879 108.602 29.352 108.946 29.7019 109.207C30.0519 109.468 30.4718 109.598 30.9618 109.598C31.4708 109.598 31.9035 109.465 32.2598 109.197C32.6225 108.93 32.8929 108.58 33.071 108.148C33.2492 107.708 33.3383 107.247 33.3383 106.764C33.3383 106.299 33.2492 105.857 33.071 105.437C32.8992 105.011 32.6384 104.67 32.2884 104.416C31.9385 104.155 31.5153 104.024 31.019 104.024ZM27.0295 114.685V102.726L28.757 102.736V103.729C29.3488 102.908 30.1823 102.497 31.2576 102.497C32.053 102.497 32.737 102.704 33.3096 103.118C33.8887 103.531 34.3213 104.069 34.6077 104.731C34.9004 105.392 35.0467 106.095 35.0467 106.84C35.0467 107.578 34.9067 108.268 34.6268 108.911C34.3468 109.554 33.9237 110.072 33.3574 110.467C32.7974 110.861 32.123 111.058 31.334 111.058C30.2587 111.058 29.3997 110.654 28.757 109.846V114.685H27.0295Z" fill="#F6EBC8"/>
<path d="M19.9097 110.829V102.745H22.7538C23.6001 102.745 24.2618 102.927 24.7391 103.289C25.2163 103.652 25.4549 104.148 25.4549 104.778C25.4549 105.217 25.3149 105.593 25.0349 105.905C24.7613 106.21 24.3891 106.401 23.9182 106.477C24.6436 106.522 25.2131 106.748 25.6267 107.155C26.0402 107.562 26.247 108.036 26.247 108.577C26.247 108.825 26.1993 109.067 26.1039 109.302C26.0148 109.538 25.8716 109.76 25.6744 109.97C25.4771 110.174 25.2449 110.339 24.9777 110.467C24.5004 110.708 23.8164 110.829 22.9256 110.829H19.9097ZM21.5417 109.799H22.792C23.9182 109.862 24.4814 109.433 24.4814 108.51C24.4814 107.581 23.896 107.117 22.7252 107.117H21.5417V109.799ZM21.5417 105.914H22.3053C22.7761 105.914 23.1483 105.815 23.4219 105.618C23.6828 105.427 23.8133 105.16 23.8133 104.816C23.8133 104.524 23.6765 104.282 23.4029 104.091C23.1293 103.9 22.8048 103.805 22.4293 103.805H21.5417V105.914Z" fill="#F6EBC8"/>
<path d="M261.042 62.1692H275.193L275.259 65.4719H270.163V80.6949H266.138V65.4719H260.976L261.042 62.1692Z" fill="#F6EBC8"/>
<path d="M250.193 65.1001C248.487 65.1001 247.153 65.7417 246.191 67.0249C245.228 68.2935 244.747 69.7881 244.747 71.5087C244.747 72.6023 244.951 73.6376 245.36 74.6145C245.768 75.5915 246.373 76.3789 247.175 76.9767C247.977 77.5746 248.939 77.8735 250.062 77.8735C251.229 77.8735 252.22 77.5673 253.037 76.9549C253.868 76.3425 254.488 75.5405 254.896 74.5489C255.304 73.5428 255.508 72.4857 255.508 71.3775C255.508 70.313 255.304 69.2996 254.896 68.3372C254.502 67.3603 253.904 66.5802 253.102 65.9969C252.3 65.3991 251.331 65.1001 250.193 65.1001ZM241.051 89.5314V62.1255L245.01 62.1474V64.4221C246.366 62.5411 248.276 61.6006 250.74 61.6006C252.563 61.6006 254.13 62.0745 255.443 63.0223C256.77 63.9701 257.761 65.2022 258.417 66.7187C259.088 68.2352 259.423 69.8464 259.423 71.5524C259.423 73.2439 259.103 74.826 258.461 76.2987C257.819 77.7714 256.85 78.9598 255.552 79.8639C254.269 80.7679 252.723 81.22 250.915 81.22C248.451 81.22 246.482 80.294 245.01 78.4422V89.5314H241.051Z" fill="#F6EBC8"/>
<path d="M230.071 61.5132C231.981 61.5132 233.694 61.936 235.211 62.7818C236.727 63.6275 237.908 64.8159 238.754 66.3469C239.6 67.8634 240.023 69.584 240.023 71.5088C240.023 73.4044 239.6 75.1031 238.754 76.605C237.908 78.1069 236.72 79.2734 235.189 80.1046C233.658 80.9211 231.923 81.3294 229.983 81.3294C228.088 81.3294 226.396 80.8992 224.909 80.0389C223.422 79.2078 222.263 78.034 221.431 76.5175C220.615 74.9865 220.207 73.2586 220.207 71.3338C220.207 69.4528 220.622 67.7686 221.453 66.2813C222.284 64.7794 223.451 63.6129 224.953 62.7818C226.455 61.936 228.161 61.5132 230.071 61.5132ZM230.115 65.1002C228.89 65.1002 227.84 65.4064 226.965 66.0189C226.09 66.6167 225.434 67.3968 224.997 68.3592C224.559 69.3216 224.34 70.3568 224.34 71.465C224.34 72.5586 224.559 73.5866 224.997 74.549C225.434 75.4968 226.09 76.2769 226.965 76.8893C227.84 77.4872 228.89 77.7861 230.115 77.7861C231.325 77.7861 232.353 77.4872 233.199 76.8893C234.059 76.2915 234.701 75.5041 235.123 74.5271C235.561 73.5502 235.78 72.5295 235.78 71.465C235.78 70.3714 235.561 69.3361 235.123 68.3592C234.701 67.3822 234.059 66.5948 233.199 65.997C232.338 65.3991 231.31 65.1002 230.115 65.1002Z" fill="#F6EBC8"/>
<path d="M205.049 62.1692H219.2L219.266 65.4719H214.17V80.6949H210.145V65.4719H204.983L205.049 62.1692Z" fill="#F6EBC8"/>
<path d="M188.973 80.8043V69.1246L174.953 81.4605V62.1911H179.13V73.8052L193.151 61.2724V80.8043H188.973ZM178.54 56.1106C179.954 59.8872 181.981 61.8047 184.62 61.863C187.274 61.9067 189.199 59.9893 190.395 56.1106H186.983C187.085 58.0208 186.356 59.3112 184.795 59.982C183.25 59.1508 182.411 57.8604 182.28 56.1106H178.54Z" fill="#F6EBC8"/>
<path d="M158.396 62.1693V69.9121H160.67C162.245 69.9121 163.565 70.1964 164.629 70.7651C165.694 71.2317 166.51 71.8806 167.079 72.7117C167.662 73.5283 167.954 74.4542 167.954 75.4895C167.954 76.5394 167.655 77.458 167.057 78.2454C166.474 79.0182 165.635 79.6234 164.542 80.0608C163.463 80.4837 162.209 80.6951 160.78 80.6951H154.262V62.1693H158.396ZM158.396 78.136H160.277C160.904 78.136 161.64 77.9027 162.486 77.4361C163.302 76.9695 163.711 76.3061 163.711 75.4458C163.711 73.5793 162.566 72.6461 160.277 72.6461H158.396V78.136ZM168.894 80.6951H172.809L172.787 62.1475H168.894V80.6951Z" fill="#F6EBC8"/>
<path d="M148.356 72.7115H139.935V80.6949H136.02V62.2129H139.914V69.1901H148.356V62.2129H152.249L152.271 80.6949H148.356V72.7115Z" fill="#F6EBC8"/>
<path d="M125.215 65.1002C123.99 65.1002 122.941 65.4064 122.066 66.0188C121.191 66.6167 120.535 67.3968 120.097 68.3592C119.66 69.3215 119.441 70.3568 119.441 71.465C119.441 72.5586 119.66 73.5866 120.097 74.549C120.535 75.4968 121.191 76.2769 122.066 76.8893C122.941 77.4872 123.99 77.7861 125.215 77.7861C126.426 77.7861 127.454 77.4872 128.299 76.8893C129.16 76.2915 129.801 75.5041 130.224 74.5271C130.662 73.5502 130.88 72.5295 130.88 71.465C130.88 70.3714 130.662 69.3361 130.224 68.3592C129.801 67.3822 129.16 66.5948 128.299 65.997C127.439 65.3991 126.411 65.1002 125.215 65.1002ZM122.131 58.123C120.761 58.575 120.01 60.1571 119.879 62.8692C119.937 62.8401 119.995 62.8036 120.053 62.7599C121.555 61.9287 123.261 61.5132 125.172 61.5132C127.082 61.5132 128.795 61.936 130.312 62.7818C131.828 63.6275 133.009 64.8159 133.855 66.3469C134.701 67.8634 135.123 69.584 135.123 71.5088C135.123 73.4043 134.701 75.1031 133.855 76.605C133.009 78.1069 131.821 79.2734 130.29 80.1045C128.759 80.9211 127.023 81.3294 125.084 81.3294C123.189 81.3294 121.497 80.8992 120.01 80.0389C118.522 79.2078 117.363 78.034 116.532 76.5175C115.716 74.9864 115.307 73.2585 115.307 71.3338C114.797 65.2241 115.22 60.9445 116.576 58.4948C117.932 56.0305 119.456 54.6745 121.147 54.4266C122.882 54.1787 124.851 54.0547 127.053 54.0547C129.269 54.0402 130.895 53.0632 131.93 51.1239L135.78 50.6646C134.336 54.6599 131.996 56.7086 128.759 56.8106C125.522 56.9127 123.312 57.3502 122.131 58.123Z" fill="#F6EBC8"/>
<path d="M115.22 75.9488C113.047 79.5942 110.073 81.4169 106.296 81.4169C104.911 81.4169 103.657 81.1909 102.534 80.7388C101.397 80.2722 100.42 79.6015 99.6031 78.7266C98.8011 77.8517 98.1814 76.8091 97.7439 75.5989C97.3211 74.374 97.1096 73.0398 97.1096 71.5963C97.1096 70.109 97.3211 68.7383 97.7439 67.4843C98.1814 66.2157 98.7938 65.144 99.5812 64.2691C100.383 63.3796 101.338 62.7016 102.446 62.235C103.555 61.7538 104.779 61.5132 106.121 61.5132C107.623 61.5132 108.986 61.8194 110.211 62.4318C111.436 63.0297 112.449 63.89 113.251 65.0127C113.893 65.8439 114.345 66.7771 114.607 67.8124C114.87 68.8477 115.045 70.2912 115.132 72.1431H101.156C101.2 73.2804 101.448 74.2865 101.9 75.1614C102.366 76.0363 102.986 76.7071 103.759 77.1737C104.546 77.6403 105.45 77.8736 106.471 77.8736C108.731 77.8736 110.583 76.5394 112.026 73.871L115.22 75.9488ZM101.506 69.1028H110.933C110.7 67.7759 110.189 66.7625 109.402 66.0626C108.614 65.3627 107.608 65.0127 106.383 65.0127C103.715 65.0127 102.089 66.3761 101.506 69.1028Z" fill="#F6EBC8"/>
<path d="M79.109 77.1298H89.7608V65.2969H83.5709C83.2647 72.019 81.7774 75.9633 79.109 77.1298ZM74.8877 77.2173C77.5561 76.0507 79.0215 71.0347 79.284 62.1692H93.9821V77.2173H96.1256V84.5445H91.9042V80.9137H76.9218V84.5445H72.7004V77.2173H74.8877Z" fill="#F6EBC8"/>
<path d="M66.751 78.4422C66.1386 79.3317 65.3147 80.0243 64.2794 80.52C63.2441 81.0012 62.0995 81.2418 60.8455 81.2418C59.2415 81.2418 57.7834 80.8117 56.471 79.9514C55.1733 79.0911 54.1526 77.91 53.4089 76.4081C52.6653 74.8916 52.2935 73.2001 52.2935 71.3337C52.2935 69.511 52.6726 67.856 53.4308 66.3687C54.2036 64.8814 55.2608 63.7149 56.6023 62.8692C57.9584 62.0234 59.4602 61.6006 61.108 61.6006C63.6451 61.6006 65.5261 62.5411 66.751 64.4221V62.1474H70.7099V80.695H66.751V78.4422ZM61.6985 65.1001C60.5611 65.1001 59.5769 65.3991 58.7458 65.9969C57.9292 66.5947 57.3095 67.3894 56.8866 68.381C56.4783 69.3725 56.2742 70.4151 56.2742 71.5087C56.2742 72.5877 56.4783 73.6157 56.8866 74.5927C57.3095 75.5696 57.9292 76.3643 58.7458 76.9767C59.5769 77.5746 60.5611 77.8735 61.6985 77.8735C62.8213 77.8735 63.7837 77.5746 64.5856 76.9767C65.3876 76.3643 65.9927 75.5623 66.401 74.5708C66.8239 73.5793 67.0353 72.5294 67.0353 71.4212C67.0353 70.3422 66.8385 69.3142 66.4448 68.3372C66.0219 67.3748 65.4095 66.5947 64.6075 65.9969C63.8055 65.3991 62.8359 65.1001 61.6985 65.1001Z" fill="#F6EBC8"/>
<path d="M36.458 80.6949V62.1692H42.9759C44.9153 62.1692 46.4317 62.5848 47.5253 63.4159C48.619 64.247 49.1658 65.3844 49.1658 66.828C49.1658 67.8341 48.845 68.6944 48.2034 69.4089C47.5764 70.1088 46.7234 70.5462 45.6443 70.7212C47.3066 70.8233 48.6117 71.3409 49.5595 72.2741C50.5073 73.2074 50.9812 74.2937 50.9812 75.5331C50.9812 76.1018 50.8718 76.6559 50.6531 77.1954C50.4489 77.7349 50.1208 78.2453 49.6688 78.7264C49.2168 79.1931 48.6846 79.5722 48.0721 79.8638C46.9785 80.4179 45.411 80.6949 43.3696 80.6949H36.458ZM40.1982 78.3327H43.0634C45.6443 78.4786 46.9348 77.4943 46.9348 75.38C46.9348 73.2511 45.5933 72.1867 42.9103 72.1867H40.1982V78.3327ZM40.1982 69.4308H41.9479C43.027 69.4308 43.88 69.2047 44.507 68.7527C45.1048 68.3153 45.4037 67.7029 45.4037 66.9155C45.4037 66.2447 45.0902 65.6906 44.4632 65.2532C43.8362 64.8157 43.0926 64.597 42.2323 64.597H40.1982V69.4308Z" fill="#F6EBC8"/>
<path d="M35.4519 79.7546C33.3084 80.8044 31.2378 81.3294 29.2402 81.3294C27.4904 81.3294 25.9156 80.9138 24.5158 80.0826C23.116 79.2369 22.0224 78.0777 21.235 76.605C20.433 75.1176 20.032 73.4481 20.032 71.5962C20.032 70.1235 20.309 68.7674 20.8631 67.528C21.4318 66.2886 22.19 65.2241 23.1378 64.3347C24.1002 63.4306 25.1865 62.7453 26.3968 62.2787C27.6216 61.7975 28.8829 61.5569 30.1807 61.5569C32.1054 61.5569 33.8625 62.0527 35.4519 63.0442V67.703C33.95 66.1428 32.1565 65.3626 30.0713 65.3626C28.4528 65.3626 27.0675 65.8876 25.9156 66.9374C24.7783 67.9873 24.2096 69.4527 24.2096 71.3338C24.2096 72.6023 24.4356 73.7032 24.8876 74.6365C25.3396 75.5697 25.9958 76.2842 26.8561 76.7799C27.7018 77.2611 28.7007 77.5017 29.8526 77.5017C31.8065 77.5017 33.6729 76.6852 35.4519 75.052V79.7546Z" fill="#F6EBC8"/>
</svg>
