<svg width="480" height="714" viewBox="0 0 480 714" fill="none" xmlns="http://www.w3.org/2000/svg">
<path d="M0 0H480V714H0V0Z" fill="#5A6B47"/>
<path d="M112.16 278C113.627 287.067 115.093 294.2 116.56 299.4C118.16 304.467 119.96 308.467 121.96 311.4V312H67.9602V311.4C69.6935 309.4 71.1602 307.2 72.3602 304.8C73.6935 302.4 74.6268 299.733 75.1602 296.8C75.8268 293.733 76.1602 290.267 76.1602 286.4C76.1602 282.533 75.8268 278 75.1602 272.8L68.7602 230C67.4268 220.8 64.4268 213.267 59.7602 207.4C55.2268 201.4 49.5602 198.4 42.7602 198.4C38.8935 198.4 35.6935 199.733 33.1602 202.4C30.7602 204.933 29.3602 208.133 28.9602 212C28.6935 215.733 29.2935 219.333 30.7602 222.8C32.2268 226.267 34.0935 229.733 36.3602 233.2C38.7602 236.533 41.2935 239.733 43.9602 242.8C46.7602 245.867 49.2935 249.4 51.5602 253.4C53.8268 257.267 55.6268 261.533 56.9602 266.2C58.2935 270.867 58.7602 275.933 58.3602 281.4C58.0935 285 56.9602 288.867 54.9602 293C52.9602 297 49.8935 300.667 45.7602 304C41.7602 307.2 36.5602 309.667 30.1602 311.4C23.7602 313 15.9602 313.267 6.76016 312.2C3.42682 311.667 2.69349 309.933 4.56016 307C6.96016 303.8 9.16016 300.133 11.1602 296C13.2935 291.733 15.1602 287.333 16.7602 282.8C18.3602 278.133 19.6935 273.4 20.7602 268.6C21.8268 263.667 22.5602 258.933 22.9602 254.4C23.3602 248.933 23.2268 244 22.5602 239.6C22.0268 235.067 21.3602 230.533 20.5602 226C19.7602 221.467 19.0268 217.067 18.3602 212.8C17.6935 208.4 17.5602 204 17.9602 199.6C18.2268 195.467 19.6268 191.733 22.1602 188.4C24.8268 184.933 28.2935 182 32.5602 179.6C36.9602 177.2 42.0935 175.333 47.9602 174C53.8268 172.667 60.2268 172.067 67.1602 172.2H96.9602L112.16 278Z" fill="#FF9EA7" fill-opacity="0.5"/>
<path d="M157.985 313.2C154.118 313.333 150.518 312.667 147.185 311.2C143.852 309.733 140.985 307.733 138.585 305.2C136.185 302.533 134.252 299.467 132.785 296C131.452 292.4 130.785 288.6 130.785 284.6C130.918 279.8 131.185 275.2 131.585 270.8C132.118 266.4 132.652 262 133.185 257.6C133.718 253.2 134.185 248.667 134.585 244C135.118 239.2 135.452 234.067 135.585 228.6C135.718 223.533 135.518 218.333 134.985 213C134.585 207.533 133.852 202.333 132.785 197.4C131.852 192.333 130.452 187.667 128.585 183.4C126.852 179.133 124.718 175.6 122.185 172.8V172.4L160.585 172.2C164.185 172.2 166.985 173.333 168.985 175.6C171.118 177.867 172.652 180.667 173.585 184C174.652 187.333 175.252 190.933 175.385 194.8C175.652 198.533 175.785 202 175.785 205.2C175.518 212.933 174.785 220.533 173.585 228C172.385 235.467 171.052 242.667 169.585 249.6C168.118 256.4 166.718 262.867 165.385 269C164.052 275 163.385 280.4 163.385 285.2C163.252 289.2 163.452 292.133 163.985 294C164.518 295.733 165.518 296.6 166.985 296.6C168.985 296.6 170.918 294.6 172.785 290.6C174.652 286.6 176.185 281.4 177.385 275C177.652 273.533 177.985 271.333 178.385 268.4C178.918 265.333 179.518 261.933 180.185 258.2C180.852 254.333 181.518 250.333 182.185 246.2C182.985 241.933 183.718 237.8 184.385 233.8C185.052 229.667 185.585 225.933 185.985 222.6C186.518 219.133 186.985 216.4 187.385 214.4C189.918 199.467 193.985 188.467 199.585 181.4C205.318 174.333 211.985 170.733 219.585 170.6C223.185 170.6 226.585 171.333 229.785 172.8C232.985 174.133 235.785 176 238.185 178.4C240.585 180.8 242.385 183.667 243.585 187C244.918 190.333 245.518 193.867 245.385 197.6C245.385 202.4 244.918 207.133 243.985 211.8C243.185 216.333 242.252 220.933 241.185 225.6C240.252 230.267 239.318 235.067 238.385 240C237.585 244.933 237.119 250.133 236.985 255.6C236.852 260.667 237.185 265.933 237.985 271.4C238.785 276.733 239.918 281.933 241.385 287C242.852 291.933 244.585 296.533 246.585 300.8C248.718 305.067 251.118 308.533 253.785 311.2V311.6L215.385 312C208.985 312 204.385 309.6 201.585 304.8C198.785 300 197.518 292.6 197.785 282.6C197.918 273.667 199.252 265.933 201.785 259.4C204.318 252.733 207.118 246.733 210.185 241.4C213.385 236.067 216.252 231.067 218.785 226.4C221.318 221.733 222.585 216.867 222.585 211.8C222.718 207.8 221.852 204.467 219.985 201.8C218.118 199.133 215.852 197.8 213.185 197.8C205.585 197.8 199.318 213.467 194.385 244.8L187.785 285.6C186.452 294.267 183.052 301.067 177.585 306C172.118 310.8 165.585 313.2 157.985 313.2Z" fill="#FF9EA7" fill-opacity="0.5"/>
<path d="M256.551 312V270C256.551 268.133 256.951 267.133 257.751 267C258.551 266.733 259.817 267.067 261.551 268C266.751 270.667 272.351 272.733 278.351 274.2C284.351 275.533 290.551 276.2 296.951 276.2C302.017 276.2 306.284 275.6 309.751 274.4C313.351 273.2 315.151 271.267 315.151 268.6C315.151 267.267 314.751 265.933 313.951 264.6C313.284 263.267 312.017 261.933 310.151 260.6C308.417 259.133 305.951 257.6 302.751 256C299.551 254.267 295.551 252.4 290.751 250.4C286.217 248.4 283.017 246.467 281.151 244.6C279.284 242.733 278.351 240.467 278.351 237.8C278.351 234.867 279.551 232.533 281.951 230.8C284.351 229.067 287.484 228.2 291.351 228.2C307.084 228.2 314.951 225.733 314.951 220.8C314.951 219.467 314.417 218.133 313.351 216.8C312.284 215.467 310.817 214.267 308.951 213.2C307.217 212 305.084 211.067 302.551 210.4C300.017 209.733 297.284 209.4 294.351 209.4C291.551 209.4 288.951 209.467 286.551 209.6C284.284 209.733 281.951 209.933 279.551 210.2C277.151 210.467 274.617 210.8 271.951 211.2C269.417 211.6 266.551 212.133 263.351 212.8C260.151 213.467 258.551 212.4 258.551 209.6V172H294.351C302.351 172 309.684 172.933 316.351 174.8C323.017 176.667 328.684 179.333 333.351 182.8C338.151 186.267 341.884 190.467 344.551 195.4C347.217 200.333 348.551 205.867 348.551 212C348.551 220.4 346.417 226.933 342.151 231.6C338.017 236.267 332.551 238.8 325.751 239.2C320.551 239.467 315.551 239.267 310.751 238.6C306.084 237.933 302.417 237.467 299.751 237.2C298.017 237.067 296.617 237.2 295.551 237.6C294.617 238 294.017 238.533 293.751 239.2C293.617 239.867 293.817 240.6 294.351 241.4C294.884 242.067 295.751 242.6 296.951 243C314.284 248.733 327.217 254.933 335.751 261.6C344.284 268.133 348.551 276.067 348.551 285.4C348.551 289.267 347.817 292.867 346.351 296.2C344.884 299.4 342.817 302.2 340.151 304.6C337.484 306.867 334.284 308.667 330.551 310C326.817 311.333 322.617 312 317.951 312H256.551Z" fill="#FF9EA7" fill-opacity="0.5"/>
<path d="M382.645 213.2C382.645 215.6 383.311 218.067 384.645 220.6C386.111 223.133 388.111 225.533 390.645 227.8C393.178 229.933 396.045 232 399.245 234C402.578 235.867 406.178 237.4 410.045 238.6C412.578 239.533 414.311 240.667 415.245 242C416.311 243.333 416.711 244.733 416.445 246.2C416.311 247.667 415.578 249.2 414.245 250.8C413.045 252.4 411.578 253.867 409.845 255.2C407.311 257.067 404.711 259.067 402.045 261.2C399.511 263.333 397.378 265.667 395.645 268.2C394.045 270.6 393.111 273.133 392.845 275.8C392.578 278.467 393.511 281.267 395.645 284.2C398.445 288.067 401.378 289.8 404.445 289.4C407.511 289 410.378 287.6 413.045 285.2C415.845 282.667 418.111 279.6 419.845 276C421.711 272.4 422.778 269.4 423.045 267V218.6C423.045 213.533 422.045 209.333 420.045 206C418.045 202.533 415.511 199.933 412.445 198.2C409.511 196.467 406.311 195.533 402.845 195.4C399.378 195.133 396.111 195.667 393.045 197C390.111 198.333 387.645 200.4 385.645 203.2C383.645 205.867 382.645 209.2 382.645 213.2ZM459.845 280.2C459.578 292.733 463.911 301.533 472.845 306.6C473.778 307.533 474.245 308.667 474.245 310C474.245 311.333 473.445 312 471.845 312H411.645C410.045 312 409.311 311.4 409.445 310.2C409.711 309 410.311 307.933 411.245 307C415.511 304.467 418.645 300.933 420.645 296.4C422.645 291.733 423.578 286.333 423.445 280.2C421.578 285 419.111 289.533 416.045 293.8C412.978 298.067 409.578 301.8 405.845 305C402.245 308.067 398.311 310.533 394.045 312.4C389.911 314.267 385.845 315.2 381.845 315.2C377.578 315.2 373.578 314.467 369.845 313C366.245 311.667 363.111 309.8 360.445 307.4C357.778 304.867 355.645 301.933 354.045 298.6C352.445 295.133 351.645 291.467 351.645 287.6C351.645 283.2 352.778 279.2 355.045 275.6C357.311 272 360.245 268.8 363.845 266C367.578 263.2 371.778 260.8 376.445 258.8C381.245 256.8 386.111 255.133 391.045 253.8C395.578 252.6 399.445 251.533 402.645 250.6C405.978 249.533 407.645 248.267 407.645 246.8C407.645 246.267 406.645 245.667 404.645 245C402.645 244.2 400.111 243.333 397.045 242.4C394.111 241.333 390.845 240.067 387.245 238.6C383.645 237 380.178 235.067 376.845 232.8C373.645 230.533 370.778 227.8 368.245 224.6C365.711 221.267 364.111 217.4 363.445 213C362.645 207.933 362.845 202.933 364.045 198C365.378 193.067 367.845 188.667 371.445 184.8C375.045 180.8 379.778 177.6 385.645 175.2C391.645 172.8 398.845 171.6 407.245 171.6C424.711 171.6 437.845 176.733 446.645 187C455.578 197.133 459.978 211.733 459.845 230.8V280.2Z" fill="#FF9EA7" fill-opacity="0.5"/>
<path d="M112.16 560C113.627 569.067 115.093 576.2 116.56 581.4C118.16 586.467 119.96 590.467 121.96 593.4V594H67.9602V593.4C69.6935 591.4 71.1602 589.2 72.3602 586.8C73.6935 584.4 74.6268 581.733 75.1602 578.8C75.8268 575.733 76.1602 572.267 76.1602 568.4C76.1602 564.533 75.8268 560 75.1602 554.8L68.7602 512C67.4268 502.8 64.4268 495.267 59.7602 489.4C55.2268 483.4 49.5602 480.4 42.7602 480.4C38.8935 480.4 35.6935 481.733 33.1602 484.4C30.7602 486.933 29.3602 490.133 28.9602 494C28.6935 497.733 29.2935 501.333 30.7602 504.8C32.2268 508.267 34.0935 511.733 36.3602 515.2C38.7602 518.533 41.2935 521.733 43.9602 524.8C46.7602 527.867 49.2935 531.4 51.5602 535.4C53.8268 539.267 55.6268 543.533 56.9602 548.2C58.2935 552.867 58.7602 557.933 58.3602 563.4C58.0935 567 56.9602 570.867 54.9602 575C52.9602 579 49.8935 582.667 45.7602 586C41.7602 589.2 36.5602 591.667 30.1602 593.4C23.7602 595 15.9602 595.267 6.76016 594.2C3.42682 593.667 2.69349 591.933 4.56016 589C6.96016 585.8 9.16016 582.133 11.1602 578C13.2935 573.733 15.1602 569.333 16.7602 564.8C18.3602 560.133 19.6935 555.4 20.7602 550.6C21.8268 545.667 22.5602 540.933 22.9602 536.4C23.3602 530.933 23.2268 526 22.5602 521.6C22.0268 517.067 21.3602 512.533 20.5602 508C19.7602 503.467 19.0268 499.067 18.3602 494.8C17.6935 490.4 17.5602 486 17.9602 481.6C18.2268 477.467 19.6268 473.733 22.1602 470.4C24.8268 466.933 28.2935 464 32.5602 461.6C36.9602 459.2 42.0935 457.333 47.9602 456C53.8268 454.667 60.2268 454.067 67.1602 454.2H96.9602L112.16 560Z" fill="#9C794F" fill-opacity="0.8"/>
<path d="M157.985 595.2C154.118 595.333 150.518 594.667 147.185 593.2C143.852 591.733 140.985 589.733 138.585 587.2C136.185 584.533 134.252 581.467 132.785 578C131.452 574.4 130.785 570.6 130.785 566.6C130.918 561.8 131.185 557.2 131.585 552.8C132.118 548.4 132.652 544 133.185 539.6C133.718 535.2 134.185 530.667 134.585 526C135.118 521.2 135.452 516.067 135.585 510.6C135.718 505.533 135.518 500.333 134.985 495C134.585 489.533 133.852 484.333 132.785 479.4C131.852 474.333 130.452 469.667 128.585 465.4C126.852 461.133 124.718 457.6 122.185 454.8V454.4L160.585 454.2C164.185 454.2 166.985 455.333 168.985 457.6C171.118 459.867 172.652 462.667 173.585 466C174.652 469.333 175.252 472.933 175.385 476.8C175.652 480.533 175.785 484 175.785 487.2C175.518 494.933 174.785 502.533 173.585 510C172.385 517.467 171.052 524.667 169.585 531.6C168.118 538.4 166.718 544.867 165.385 551C164.052 557 163.385 562.4 163.385 567.2C163.252 571.2 163.452 574.133 163.985 576C164.518 577.733 165.518 578.6 166.985 578.6C168.985 578.6 170.918 576.6 172.785 572.6C174.652 568.6 176.185 563.4 177.385 557C177.652 555.533 177.985 553.333 178.385 550.4C178.918 547.333 179.518 543.933 180.185 540.2C180.852 536.333 181.518 532.333 182.185 528.2C182.985 523.933 183.718 519.8 184.385 515.8C185.052 511.667 185.585 507.933 185.985 504.6C186.518 501.133 186.985 498.4 187.385 496.4C189.918 481.467 193.985 470.467 199.585 463.4C205.318 456.333 211.985 452.733 219.585 452.6C223.185 452.6 226.585 453.333 229.785 454.8C232.985 456.133 235.785 458 238.185 460.4C240.585 462.8 242.385 465.667 243.585 469C244.918 472.333 245.518 475.867 245.385 479.6C245.385 484.4 244.918 489.133 243.985 493.8C243.185 498.333 242.252 502.933 241.185 507.6C240.252 512.267 239.318 517.067 238.385 522C237.585 526.933 237.119 532.133 236.985 537.6C236.852 542.667 237.185 547.933 237.985 553.4C238.785 558.733 239.918 563.933 241.385 569C242.852 573.933 244.585 578.533 246.585 582.8C248.718 587.067 251.118 590.533 253.785 593.2V593.6L215.385 594C208.985 594 204.385 591.6 201.585 586.8C198.785 582 197.518 574.6 197.785 564.6C197.918 555.667 199.252 547.933 201.785 541.4C204.318 534.733 207.118 528.733 210.185 523.4C213.385 518.067 216.252 513.067 218.785 508.4C221.318 503.733 222.585 498.867 222.585 493.8C222.718 489.8 221.852 486.467 219.985 483.8C218.118 481.133 215.852 479.8 213.185 479.8C205.585 479.8 199.318 495.467 194.385 526.8L187.785 567.6C186.452 576.267 183.052 583.067 177.585 588C172.118 592.8 165.585 595.2 157.985 595.2Z" fill="#9C794F" fill-opacity="0.8"/>
<path d="M256.551 594V552C256.551 550.133 256.951 549.133 257.751 549C258.551 548.733 259.817 549.067 261.551 550C266.751 552.667 272.351 554.733 278.351 556.2C284.351 557.533 290.551 558.2 296.951 558.2C302.017 558.2 306.284 557.6 309.751 556.4C313.351 555.2 315.151 553.267 315.151 550.6C315.151 549.267 314.751 547.933 313.951 546.6C313.284 545.267 312.017 543.933 310.151 542.6C308.417 541.133 305.951 539.6 302.751 538C299.551 536.267 295.551 534.4 290.751 532.4C286.217 530.4 283.017 528.467 281.151 526.6C279.284 524.733 278.351 522.467 278.351 519.8C278.351 516.867 279.551 514.533 281.951 512.8C284.351 511.067 287.484 510.2 291.351 510.2C307.084 510.2 314.951 507.733 314.951 502.8C314.951 501.467 314.417 500.133 313.351 498.8C312.284 497.467 310.817 496.267 308.951 495.2C307.217 494 305.084 493.067 302.551 492.4C300.017 491.733 297.284 491.4 294.351 491.4C291.551 491.4 288.951 491.467 286.551 491.6C284.284 491.733 281.951 491.933 279.551 492.2C277.151 492.467 274.617 492.8 271.951 493.2C269.417 493.6 266.551 494.133 263.351 494.8C260.151 495.467 258.551 494.4 258.551 491.6V454H294.351C302.351 454 309.684 454.933 316.351 456.8C323.017 458.667 328.684 461.333 333.351 464.8C338.151 468.267 341.884 472.467 344.551 477.4C347.217 482.333 348.551 487.867 348.551 494C348.551 502.4 346.417 508.933 342.151 513.6C338.017 518.267 332.551 520.8 325.751 521.2C320.551 521.467 315.551 521.267 310.751 520.6C306.084 519.933 302.417 519.467 299.751 519.2C298.017 519.067 296.617 519.2 295.551 519.6C294.617 520 294.017 520.533 293.751 521.2C293.617 521.867 293.817 522.6 294.351 523.4C294.884 524.067 295.751 524.6 296.951 525C314.284 530.733 327.217 536.933 335.751 543.6C344.284 550.133 348.551 558.067 348.551 567.4C348.551 571.267 347.817 574.867 346.351 578.2C344.884 581.4 342.817 584.2 340.151 586.6C337.484 588.867 334.284 590.667 330.551 592C326.817 593.333 322.617 594 317.951 594H256.551Z" fill="#9C794F" fill-opacity="0.8"/>
<path d="M382.645 495.2C382.645 497.6 383.311 500.067 384.645 502.6C386.111 505.133 388.111 507.533 390.645 509.8C393.178 511.933 396.045 514 399.245 516C402.578 517.867 406.178 519.4 410.045 520.6C412.578 521.533 414.311 522.667 415.245 524C416.311 525.333 416.711 526.733 416.445 528.2C416.311 529.667 415.578 531.2 414.245 532.8C413.045 534.4 411.578 535.867 409.845 537.2C407.311 539.067 404.711 541.067 402.045 543.2C399.511 545.333 397.378 547.667 395.645 550.2C394.045 552.6 393.111 555.133 392.845 557.8C392.578 560.467 393.511 563.267 395.645 566.2C398.445 570.067 401.378 571.8 404.445 571.4C407.511 571 410.378 569.6 413.045 567.2C415.845 564.667 418.111 561.6 419.845 558C421.711 554.4 422.778 551.4 423.045 549V500.6C423.045 495.533 422.045 491.333 420.045 488C418.045 484.533 415.511 481.933 412.445 480.2C409.511 478.467 406.311 477.533 402.845 477.4C399.378 477.133 396.111 477.667 393.045 479C390.111 480.333 387.645 482.4 385.645 485.2C383.645 487.867 382.645 491.2 382.645 495.2ZM459.845 562.2C459.578 574.733 463.911 583.533 472.845 588.6C473.778 589.533 474.245 590.667 474.245 592C474.245 593.333 473.445 594 471.845 594H411.645C410.045 594 409.311 593.4 409.445 592.2C409.711 591 410.311 589.933 411.245 589C415.511 586.467 418.645 582.933 420.645 578.4C422.645 573.733 423.578 568.333 423.445 562.2C421.578 567 419.111 571.533 416.045 575.8C412.978 580.067 409.578 583.8 405.845 587C402.245 590.067 398.311 592.533 394.045 594.4C389.911 596.267 385.845 597.2 381.845 597.2C377.578 597.2 373.578 596.467 369.845 595C366.245 593.667 363.111 591.8 360.445 589.4C357.778 586.867 355.645 583.933 354.045 580.6C352.445 577.133 351.645 573.467 351.645 569.6C351.645 565.2 352.778 561.2 355.045 557.6C357.311 554 360.245 550.8 363.845 548C367.578 545.2 371.778 542.8 376.445 540.8C381.245 538.8 386.111 537.133 391.045 535.8C395.578 534.6 399.445 533.533 402.645 532.6C405.978 531.533 407.645 530.267 407.645 528.8C407.645 528.267 406.645 527.667 404.645 527C402.645 526.2 400.111 525.333 397.045 524.4C394.111 523.333 390.845 522.067 387.245 520.6C383.645 519 380.178 517.067 376.845 514.8C373.645 512.533 370.778 509.8 368.245 506.6C365.711 503.267 364.111 499.4 363.445 495C362.645 489.933 362.845 484.933 364.045 480C365.378 475.067 367.845 470.667 371.445 466.8C375.045 462.8 379.778 459.6 385.645 457.2C391.645 454.8 398.845 453.6 407.245 453.6C424.711 453.6 437.845 458.733 446.645 469C455.578 479.133 459.978 493.733 459.845 512.8V562.2Z" fill="#9C794F" fill-opacity="0.8"/>
<path d="M17.327 146.768C8.02567 146.768 3.631 145.915 4.143 144.208L10.287 120.016C10.7137 118.565 11.567 118.181 12.847 118.864C15.7483 120.144 18.6497 121.168 21.551 121.936C24.5377 122.704 27.3537 123.088 29.999 123.088C31.279 123.088 32.2177 122.917 32.815 122.576C33.4977 122.149 33.839 121.68 33.839 121.168C33.9243 120.656 33.6683 120.144 33.071 119.632C32.559 119.035 31.7483 118.565 30.639 118.224L19.503 114.64C14.639 113.104 12.9323 109.52 14.383 103.888L19.631 83.152C21.2523 76.752 22.4043 71.4613 23.087 67.28C23.7697 63.0987 23.343 59.5573 21.807 56.656V56.4L62.895 56.528V56.784C61.359 59.6853 60.847 63.2693 61.359 67.536C61.9563 71.7173 62.9803 77.008 64.431 83.408L72.623 119.12C74.0737 125.52 75.7803 130.853 77.743 135.12C79.791 139.301 81.583 142.843 83.119 145.744V146H50.991V145.744C52.527 142.843 52.9963 139.301 52.399 135.12C51.8017 130.853 50.7777 125.52 49.327 119.12L42.543 89.296C41.4337 84.3467 40.111 80.7627 38.575 78.544C37.039 76.24 35.503 75.0027 33.967 74.832C32.431 74.6613 31.023 75.344 29.743 76.88C28.463 78.416 27.4817 80.464 26.799 83.024L22.319 100.688C21.6363 103.163 21.5937 105.04 22.191 106.32C22.7883 107.6 24.111 108.624 26.159 109.392L32.047 111.696C34.2657 112.549 36.1857 113.445 37.807 114.384C39.5137 115.237 40.9217 116.261 42.031 117.456C43.2257 118.565 44.079 119.888 44.591 121.424C45.1883 122.96 45.487 124.752 45.487 126.8C45.487 129.787 44.7617 132.517 43.311 134.992C41.8603 137.381 39.855 139.472 37.295 141.264C34.735 142.971 31.7483 144.336 28.335 145.36C24.9217 146.299 21.2523 146.768 17.327 146.768Z" fill="#F6EBC8" fill-opacity="0.5"/>
<path d="M91.189 126.672C91.189 123.429 91.9997 120.528 93.621 117.968C95.3277 115.408 97.461 113.147 100.021 111.184C102.581 109.221 105.397 107.557 108.469 106.192C111.541 104.741 114.528 103.547 117.429 102.608C120.33 101.584 122.933 100.773 125.237 100.176C127.541 99.5787 129.205 99.152 130.229 98.896C130.997 98.64 131.552 98.2987 131.893 97.872C132.234 97.36 132.32 96.8907 132.149 96.464C132.064 96.0373 131.722 95.696 131.125 95.44C130.528 95.184 129.632 95.0987 128.437 95.184C124.085 95.5253 119.434 96.464 114.485 98C109.621 99.4507 104.885 101.285 100.277 103.504C96.693 105.04 94.261 105.467 92.981 104.784C91.701 104.101 91.061 101.968 91.061 98.384V75.728C91.061 71.12 90.5063 67.408 89.397 64.592C88.373 61.6907 86.581 59.088 84.021 56.784V56.4H116.405V56.784C113.845 59.088 112.01 61.6907 110.901 64.592C109.877 67.408 109.365 71.12 109.365 75.728V88.4C109.365 90.448 110.005 91.6 111.285 91.856C112.565 92.0267 114.101 91.8987 115.893 91.472C125.28 89.424 132.106 88.9973 136.373 90.192V75.728C136.373 71.12 135.818 67.408 134.709 64.592C133.685 61.6907 131.893 59.088 129.333 56.784V56.4H162.997V56.784C160.437 59.088 158.602 61.6907 157.493 64.592C156.469 67.408 155.957 71.12 155.957 75.728V126.672C155.957 131.28 156.469 135.035 157.493 137.936C158.602 140.752 160.437 143.312 162.997 145.616V146H129.461V145.616C132.021 143.312 133.813 140.752 134.837 137.936C135.946 135.035 136.501 131.28 136.501 126.672V102.864C135.562 103.291 134.538 103.675 133.429 104.016C129.845 105.125 126.56 106.363 123.573 107.728C120.672 109.093 118.154 110.629 116.021 112.336C113.888 114.043 112.224 116.005 111.029 118.224C109.92 120.443 109.365 122.96 109.365 125.776V126.672C109.365 131.28 109.877 135.035 110.901 137.936C112.01 140.752 113.845 143.312 116.405 145.616V146H84.149V145.616C86.709 143.312 88.501 140.752 89.525 137.936C90.6343 135.035 91.189 131.28 91.189 126.672Z" fill="#F6EBC8" fill-opacity="0.5"/>
<path d="M172.835 140.24C175.139 139.899 177.443 138.832 179.747 137.04C182.136 135.248 184.312 132.987 186.275 130.256C188.238 127.44 189.944 124.325 191.395 120.912C192.931 117.499 193.998 114 194.595 110.416C195.278 106.832 195.448 103.333 195.107 99.92C194.851 96.5067 193.912 93.4347 192.291 90.704C191.096 88.5707 189.518 86.8213 187.555 85.456C185.678 84.0053 183.886 82.5547 182.179 81.104C180.558 79.568 179.278 77.8187 178.339 75.856C177.4 73.808 177.315 71.0773 178.083 67.664C178.424 66.0427 179.064 64.5067 180.003 63.056C180.942 61.6053 182.094 60.368 183.459 59.344C184.91 58.2347 186.574 57.3813 188.451 56.784C190.328 56.1867 192.376 55.9307 194.595 56.016L252.707 56.144C250.915 58.2773 249.464 60.1973 248.355 61.904C247.331 63.5253 246.52 65.1467 245.923 66.768C245.411 68.304 245.07 69.9253 244.899 71.632C244.728 73.3387 244.643 75.2587 244.643 77.392V140.24H251.939C254.158 140.24 255.267 141.691 255.267 144.592L255.139 167.888C255.139 168.997 255.054 169.68 254.883 169.936C254.712 170.277 254.456 170.448 254.115 170.448C253.176 170.448 252.366 170.277 251.683 169.936C251.086 169.595 250.488 169.04 249.891 168.272C249.294 167.504 248.654 166.523 247.971 165.328C247.374 164.219 246.648 162.811 245.795 161.104C244.43 158.971 243.235 156.965 242.211 155.088C241.272 153.296 240.206 151.717 239.011 150.352C237.816 149.072 236.366 148.048 234.659 147.28C233.038 146.512 230.947 146.085 228.387 146H192.291C189.731 146.085 187.683 146.512 186.147 147.28C184.611 148.048 183.288 149.115 182.179 150.48C181.07 151.845 180.003 153.424 178.979 155.216C178.04 157.008 176.931 158.971 175.651 161.104C173.774 164.432 172.11 166.821 170.659 168.272C169.294 169.723 167.672 170.448 165.795 170.448C165.454 170.448 165.198 170.277 165.027 169.936C164.856 169.68 164.771 168.997 164.771 167.888V144.592C164.771 141.691 165.88 140.24 168.099 140.24H172.835ZM215.715 79.056C214.52 78.8 213.027 78.672 211.235 78.672C209.443 78.5867 207.608 78.7147 205.731 79.056C203.939 79.312 202.19 79.7387 200.483 80.336C198.862 80.9333 197.582 81.744 196.643 82.768C195.79 83.792 195.448 85.0293 195.619 86.48C195.79 87.9307 196.771 89.6373 198.563 91.6C201.891 95.2693 204.664 99.28 206.883 103.632C209.187 107.899 210.467 112.208 210.723 116.56C210.979 120.912 209.955 125.136 207.651 129.232C205.432 133.328 201.464 136.997 195.747 140.24H223.779L224.035 93.52C224.035 89.0827 223.438 85.6267 222.243 83.152C221.048 80.592 218.872 79.2267 215.715 79.056Z" fill="#F6EBC8" fill-opacity="0.5"/>
<path d="M256.646 145.744C258.182 142.843 259.291 139.259 259.974 134.992C260.742 130.64 261.126 125.136 261.126 118.48V83.92C261.126 77.264 260.742 71.8027 259.974 67.536C259.291 63.184 258.182 59.5573 256.646 56.656V56.4H295.686C300.038 56.4 304.006 57.04 307.59 58.32C311.259 59.6 314.417 61.392 317.062 63.696C319.793 66 321.883 68.816 323.334 72.144C324.87 75.3867 325.638 79.0133 325.638 83.024C325.638 88.0587 324.785 92.7947 323.078 97.232C321.457 101.584 319.195 105.381 316.294 108.624C313.478 111.867 310.107 114.427 306.182 116.304C302.342 118.181 298.203 119.12 293.766 119.12C291.121 119.12 288.475 118.608 285.83 117.584C283.27 116.475 280.966 114.896 278.918 112.848C276.955 110.8 275.419 108.283 274.31 105.296C273.201 102.309 272.817 98.896 273.158 95.056C273.414 92.5813 274.267 91.5573 275.718 91.984C280.241 93.4347 285.019 94.544 290.054 95.312C295.174 96.08 299.867 96.2507 304.134 95.824C308.401 95.3973 311.899 94.288 314.63 92.496C317.446 90.704 318.854 88.016 318.854 84.432C318.854 81.5307 317.446 79.2693 314.63 77.648C311.899 75.9413 308.358 75.088 304.006 75.088C298.459 75.088 293.425 75.6427 288.902 76.752C284.465 77.8613 280.625 79.44 277.382 81.488C274.225 83.4507 271.75 85.7973 269.958 88.528C268.251 91.2587 267.398 94.2453 267.398 97.488C267.398 104.741 269.19 111.952 272.774 119.12C276.358 126.203 281.862 133.627 289.286 141.392C290.054 142.245 290.438 143.227 290.438 144.336C290.523 145.445 289.841 146 288.39 146H256.646V145.744Z" fill="#F6EBC8" fill-opacity="0.5"/>
<path d="M350.439 146C347.452 146 344.764 145.573 342.375 144.72C339.986 143.867 337.938 142.715 336.231 141.264C334.524 139.728 333.202 137.936 332.263 135.888C331.324 133.755 330.855 131.451 330.855 128.976C330.855 123.003 333.586 117.712 339.047 113.104C344.508 108.411 352.786 104.229 363.879 100.56C364.647 100.304 365.202 99.9627 365.543 99.536C365.884 99.024 365.97 98.5547 365.799 98.128C365.714 97.7013 365.33 97.36 364.647 97.104C364.05 96.848 363.196 96.7627 362.087 96.848C359.783 97.0187 356.754 97.9147 352.999 99.536C349.33 101.072 345.447 102.992 341.351 105.296C338.023 107.259 335.634 107.813 334.183 106.96C332.818 106.021 332.135 103.76 332.135 100.176V83.92C332.135 77.264 331.751 71.8027 330.983 67.536C330.3 63.184 329.191 59.5573 327.655 56.656V56.4H389.735V78.8C389.735 80.848 388.711 81.5307 386.663 80.848C384.444 80.08 382.183 79.3547 379.879 78.672C377.575 77.9893 375.314 77.392 373.095 76.88C370.962 76.2827 368.914 75.856 366.951 75.6C365.074 75.2587 363.495 75.088 362.215 75.088C359.484 75.088 357.266 75.728 355.559 77.008C353.852 78.2027 352.999 79.8667 352.999 82V86.352C352.999 88.4 353.468 89.808 354.407 90.576C355.346 91.2587 356.498 91.6427 357.863 91.728C359.314 91.8133 360.892 91.728 362.599 91.472C364.306 91.216 365.927 91.088 367.463 91.088C369.938 91.088 371.943 91.6427 373.479 92.752C375.015 93.8613 375.783 95.3547 375.783 97.232C375.783 98.9387 375.186 100.389 373.991 101.584C372.796 102.779 370.748 104.016 367.847 105.296C361.618 107.941 357.223 110.117 354.663 111.824C352.188 113.531 350.951 115.237 350.951 116.944C350.951 117.883 351.292 118.736 351.975 119.504C352.743 120.187 353.724 120.827 354.919 121.424C356.199 121.936 357.607 122.363 359.143 122.704C360.679 122.96 362.258 123.088 363.879 123.088C367.975 123.088 371.943 122.661 375.783 121.808C379.623 120.869 383.207 119.547 386.535 117.84C387.644 117.243 388.455 117.029 388.967 117.2C389.479 117.285 389.735 117.925 389.735 119.12V146H350.439Z" fill="#F6EBC8" fill-opacity="0.5"/>
<path d="M415.064 146.768C412.589 146.853 410.285 146.427 408.152 145.488C406.019 144.549 404.184 143.269 402.648 141.648C401.112 139.941 399.875 137.979 398.936 135.76C398.083 133.456 397.656 131.024 397.656 128.464C397.741 125.392 397.912 122.448 398.168 119.632C398.509 116.816 398.851 114 399.192 111.184C399.533 108.368 399.832 105.467 400.088 102.48C400.429 99.408 400.643 96.1227 400.728 92.624C400.813 89.3813 400.685 86.0533 400.344 82.64C400.088 79.1413 399.619 75.8133 398.936 72.656C398.339 69.4133 397.443 66.4267 396.248 63.696C395.139 60.9653 393.773 58.704 392.152 56.912V56.656L416.728 56.528C419.032 56.528 420.824 57.2533 422.104 58.704C423.469 60.1547 424.451 61.9467 425.048 64.08C425.731 66.2133 426.115 68.5173 426.2 70.992C426.371 73.3813 426.456 75.6 426.456 77.648C426.285 82.5973 425.816 87.4613 425.048 92.24C424.28 97.0187 423.427 101.627 422.488 106.064C421.549 110.416 420.653 114.555 419.8 118.48C418.947 122.32 418.52 125.776 418.52 128.848C418.435 131.408 418.563 133.285 418.904 134.48C419.245 135.589 419.885 136.144 420.824 136.144C422.104 136.144 423.341 134.864 424.536 132.304C425.731 129.744 426.712 126.416 427.48 122.32C427.651 121.381 427.864 119.973 428.12 118.096C428.461 116.133 428.845 113.957 429.272 111.568C429.699 109.093 430.125 106.533 430.552 103.888C431.064 101.157 431.533 98.512 431.96 95.952C432.387 93.3067 432.728 90.9173 432.984 88.784C433.325 86.5653 433.624 84.816 433.88 83.536C435.501 73.9787 438.104 66.9387 441.688 62.416C445.357 57.8933 449.624 55.5893 454.488 55.504C456.792 55.504 458.968 55.9733 461.016 56.912C463.064 57.7653 464.856 58.96 466.392 60.496C467.928 62.032 469.08 63.8667 469.848 66C470.701 68.1333 471.085 70.3947 471 72.784C471 75.856 470.701 78.8853 470.104 81.872C469.592 84.7733 468.995 87.7173 468.312 90.704C467.715 93.6907 467.117 96.7627 466.52 99.92C466.008 103.077 465.709 106.405 465.624 109.904C465.539 113.147 465.752 116.517 466.264 120.016C466.776 123.429 467.501 126.757 468.44 130C469.379 133.157 470.488 136.101 471.768 138.832C473.133 141.563 474.669 143.781 476.376 145.488V145.744L451.8 146C447.704 146 444.76 144.464 442.968 141.392C441.176 138.32 440.365 133.584 440.536 127.184C440.621 121.467 441.475 116.517 443.096 112.336C444.717 108.069 446.509 104.229 448.472 100.816C450.52 97.4027 452.355 94.2027 453.976 91.216C455.597 88.2293 456.408 85.1147 456.408 81.872C456.493 79.312 455.939 77.1787 454.744 75.472C453.549 73.7653 452.099 72.912 450.392 72.912C445.528 72.912 441.517 82.9387 438.36 102.992L434.136 129.104C433.283 134.651 431.107 139.003 427.608 142.16C424.109 145.232 419.928 146.768 415.064 146.768ZM432.6 53.328C435.245 53.328 437.635 52.8587 439.768 51.92C441.987 50.9813 443.907 49.7013 445.528 48.08C447.235 46.4587 448.515 44.496 449.368 42.192C450.307 39.888 450.776 37.328 450.776 34.512V32.848C450.605 32.1653 450.307 31.824 449.88 31.824C449.283 31.824 448.941 32.1653 448.856 32.848C448.429 35.3227 446.723 37.3707 443.736 38.992C440.835 40.6133 437.123 41.424 432.6 41.424C427.907 41.424 424.109 40.6133 421.208 38.992C418.307 37.3707 416.685 35.3227 416.344 32.848C416.173 32.1653 415.875 31.824 415.448 31.824C414.851 31.824 414.509 32.1653 414.424 32.848V34.512C414.424 37.2427 414.851 39.76 415.704 42.064C416.557 44.368 417.795 46.3733 419.416 48.08C421.037 49.7013 422.957 50.9813 425.176 51.92C427.395 52.8587 429.869 53.328 432.6 53.328Z" fill="#F6EBC8" fill-opacity="0.5"/>
<path d="M17.327 429.768C8.02567 429.768 3.631 428.915 4.143 427.208L10.287 403.016C10.7137 401.565 11.567 401.181 12.847 401.864C15.7483 403.144 18.6497 404.168 21.551 404.936C24.5377 405.704 27.3537 406.088 29.999 406.088C31.279 406.088 32.2177 405.917 32.815 405.576C33.4977 405.149 33.839 404.68 33.839 404.168C33.9243 403.656 33.6683 403.144 33.071 402.632C32.559 402.035 31.7483 401.565 30.639 401.224L19.503 397.64C14.639 396.104 12.9323 392.52 14.383 386.888L19.631 366.152C21.2523 359.752 22.4043 354.461 23.087 350.28C23.7697 346.099 23.343 342.557 21.807 339.656V339.4L62.895 339.528V339.784C61.359 342.685 60.847 346.269 61.359 350.536C61.9563 354.717 62.9803 360.008 64.431 366.408L72.623 402.12C74.0737 408.52 75.7803 413.853 77.743 418.12C79.791 422.301 81.583 425.843 83.119 428.744V429H50.991V428.744C52.527 425.843 52.9963 422.301 52.399 418.12C51.8017 413.853 50.7777 408.52 49.327 402.12L42.543 372.296C41.4337 367.347 40.111 363.763 38.575 361.544C37.039 359.24 35.503 358.003 33.967 357.832C32.431 357.661 31.023 358.344 29.743 359.88C28.463 361.416 27.4817 363.464 26.799 366.024L22.319 383.688C21.6363 386.163 21.5937 388.04 22.191 389.32C22.7883 390.6 24.111 391.624 26.159 392.392L32.047 394.696C34.2657 395.549 36.1857 396.445 37.807 397.384C39.5137 398.237 40.9217 399.261 42.031 400.456C43.2257 401.565 44.079 402.888 44.591 404.424C45.1883 405.96 45.487 407.752 45.487 409.8C45.487 412.787 44.7617 415.517 43.311 417.992C41.8603 420.381 39.855 422.472 37.295 424.264C34.735 425.971 31.7483 427.336 28.335 428.36C24.9217 429.299 21.2523 429.768 17.327 429.768Z" fill="#F3B216" fill-opacity="0.5"/>
<path d="M91.189 409.672C91.189 406.429 91.9997 403.528 93.621 400.968C95.3277 398.408 97.461 396.147 100.021 394.184C102.581 392.221 105.397 390.557 108.469 389.192C111.541 387.741 114.528 386.547 117.429 385.608C120.33 384.584 122.933 383.773 125.237 383.176C127.541 382.579 129.205 382.152 130.229 381.896C130.997 381.64 131.552 381.299 131.893 380.872C132.234 380.36 132.32 379.891 132.149 379.464C132.064 379.037 131.722 378.696 131.125 378.44C130.528 378.184 129.632 378.099 128.437 378.184C124.085 378.525 119.434 379.464 114.485 381C109.621 382.451 104.885 384.285 100.277 386.504C96.693 388.04 94.261 388.467 92.981 387.784C91.701 387.101 91.061 384.968 91.061 381.384V358.728C91.061 354.12 90.5063 350.408 89.397 347.592C88.373 344.691 86.581 342.088 84.021 339.784V339.4H116.405V339.784C113.845 342.088 112.01 344.691 110.901 347.592C109.877 350.408 109.365 354.12 109.365 358.728V371.4C109.365 373.448 110.005 374.6 111.285 374.856C112.565 375.027 114.101 374.899 115.893 374.472C125.28 372.424 132.106 371.997 136.373 373.192V358.728C136.373 354.12 135.818 350.408 134.709 347.592C133.685 344.691 131.893 342.088 129.333 339.784V339.4H162.997V339.784C160.437 342.088 158.602 344.691 157.493 347.592C156.469 350.408 155.957 354.12 155.957 358.728V409.672C155.957 414.28 156.469 418.035 157.493 420.936C158.602 423.752 160.437 426.312 162.997 428.616V429H129.461V428.616C132.021 426.312 133.813 423.752 134.837 420.936C135.946 418.035 136.501 414.28 136.501 409.672V385.864C135.562 386.291 134.538 386.675 133.429 387.016C129.845 388.125 126.56 389.363 123.573 390.728C120.672 392.093 118.154 393.629 116.021 395.336C113.888 397.043 112.224 399.005 111.029 401.224C109.92 403.443 109.365 405.96 109.365 408.776V409.672C109.365 414.28 109.877 418.035 110.901 420.936C112.01 423.752 113.845 426.312 116.405 428.616V429H84.149V428.616C86.709 426.312 88.501 423.752 89.525 420.936C90.6343 418.035 91.189 414.28 91.189 409.672Z" fill="#F3B216" fill-opacity="0.5"/>
<path d="M172.835 423.24C175.139 422.899 177.443 421.832 179.747 420.04C182.136 418.248 184.312 415.987 186.275 413.256C188.238 410.44 189.944 407.325 191.395 403.912C192.931 400.499 193.998 397 194.595 393.416C195.278 389.832 195.448 386.333 195.107 382.92C194.851 379.507 193.912 376.435 192.291 373.704C191.096 371.571 189.518 369.821 187.555 368.456C185.678 367.005 183.886 365.555 182.179 364.104C180.558 362.568 179.278 360.819 178.339 358.856C177.4 356.808 177.315 354.077 178.083 350.664C178.424 349.043 179.064 347.507 180.003 346.056C180.942 344.605 182.094 343.368 183.459 342.344C184.91 341.235 186.574 340.381 188.451 339.784C190.328 339.187 192.376 338.931 194.595 339.016L252.707 339.144C250.915 341.277 249.464 343.197 248.355 344.904C247.331 346.525 246.52 348.147 245.923 349.768C245.411 351.304 245.07 352.925 244.899 354.632C244.728 356.339 244.643 358.259 244.643 360.392V423.24H251.939C254.158 423.24 255.267 424.691 255.267 427.592L255.139 450.888C255.139 451.997 255.054 452.68 254.883 452.936C254.712 453.277 254.456 453.448 254.115 453.448C253.176 453.448 252.366 453.277 251.683 452.936C251.086 452.595 250.488 452.04 249.891 451.272C249.294 450.504 248.654 449.523 247.971 448.328C247.374 447.219 246.648 445.811 245.795 444.104C244.43 441.971 243.235 439.965 242.211 438.088C241.272 436.296 240.206 434.717 239.011 433.352C237.816 432.072 236.366 431.048 234.659 430.28C233.038 429.512 230.947 429.085 228.387 429H192.291C189.731 429.085 187.683 429.512 186.147 430.28C184.611 431.048 183.288 432.115 182.179 433.48C181.07 434.845 180.003 436.424 178.979 438.216C178.04 440.008 176.931 441.971 175.651 444.104C173.774 447.432 172.11 449.821 170.659 451.272C169.294 452.723 167.672 453.448 165.795 453.448C165.454 453.448 165.198 453.277 165.027 452.936C164.856 452.68 164.771 451.997 164.771 450.888V427.592C164.771 424.691 165.88 423.24 168.099 423.24H172.835ZM215.715 362.056C214.52 361.8 213.027 361.672 211.235 361.672C209.443 361.587 207.608 361.715 205.731 362.056C203.939 362.312 202.19 362.739 200.483 363.336C198.862 363.933 197.582 364.744 196.643 365.768C195.79 366.792 195.448 368.029 195.619 369.48C195.79 370.931 196.771 372.637 198.563 374.6C201.891 378.269 204.664 382.28 206.883 386.632C209.187 390.899 210.467 395.208 210.723 399.56C210.979 403.912 209.955 408.136 207.651 412.232C205.432 416.328 201.464 419.997 195.747 423.24H223.779L224.035 376.52C224.035 372.083 223.438 368.627 222.243 366.152C221.048 363.592 218.872 362.227 215.715 362.056Z" fill="#F3B216" fill-opacity="0.5"/>
<path d="M256.646 428.744C258.182 425.843 259.291 422.259 259.974 417.992C260.742 413.64 261.126 408.136 261.126 401.48V366.92C261.126 360.264 260.742 354.803 259.974 350.536C259.291 346.184 258.182 342.557 256.646 339.656V339.4H295.686C300.038 339.4 304.006 340.04 307.59 341.32C311.259 342.6 314.417 344.392 317.062 346.696C319.793 349 321.883 351.816 323.334 355.144C324.87 358.387 325.638 362.013 325.638 366.024C325.638 371.059 324.785 375.795 323.078 380.232C321.457 384.584 319.195 388.381 316.294 391.624C313.478 394.867 310.107 397.427 306.182 399.304C302.342 401.181 298.203 402.12 293.766 402.12C291.121 402.12 288.475 401.608 285.83 400.584C283.27 399.475 280.966 397.896 278.918 395.848C276.955 393.8 275.419 391.283 274.31 388.296C273.201 385.309 272.817 381.896 273.158 378.056C273.414 375.581 274.267 374.557 275.718 374.984C280.241 376.435 285.019 377.544 290.054 378.312C295.174 379.08 299.867 379.251 304.134 378.824C308.401 378.397 311.899 377.288 314.63 375.496C317.446 373.704 318.854 371.016 318.854 367.432C318.854 364.531 317.446 362.269 314.63 360.648C311.899 358.941 308.358 358.088 304.006 358.088C298.459 358.088 293.425 358.643 288.902 359.752C284.465 360.861 280.625 362.44 277.382 364.488C274.225 366.451 271.75 368.797 269.958 371.528C268.251 374.259 267.398 377.245 267.398 380.488C267.398 387.741 269.19 394.952 272.774 402.12C276.358 409.203 281.862 416.627 289.286 424.392C290.054 425.245 290.438 426.227 290.438 427.336C290.523 428.445 289.841 429 288.39 429H256.646V428.744Z" fill="#F3B216" fill-opacity="0.5"/>
<path d="M350.439 429C347.452 429 344.764 428.573 342.375 427.72C339.986 426.867 337.938 425.715 336.231 424.264C334.524 422.728 333.202 420.936 332.263 418.888C331.324 416.755 330.855 414.451 330.855 411.976C330.855 406.003 333.586 400.712 339.047 396.104C344.508 391.411 352.786 387.229 363.879 383.56C364.647 383.304 365.202 382.963 365.543 382.536C365.884 382.024 365.97 381.555 365.799 381.128C365.714 380.701 365.33 380.36 364.647 380.104C364.05 379.848 363.196 379.763 362.087 379.848C359.783 380.019 356.754 380.915 352.999 382.536C349.33 384.072 345.447 385.992 341.351 388.296C338.023 390.259 335.634 390.813 334.183 389.96C332.818 389.021 332.135 386.76 332.135 383.176V366.92C332.135 360.264 331.751 354.803 330.983 350.536C330.3 346.184 329.191 342.557 327.655 339.656V339.4H389.735V361.8C389.735 363.848 388.711 364.531 386.663 363.848C384.444 363.08 382.183 362.355 379.879 361.672C377.575 360.989 375.314 360.392 373.095 359.88C370.962 359.283 368.914 358.856 366.951 358.6C365.074 358.259 363.495 358.088 362.215 358.088C359.484 358.088 357.266 358.728 355.559 360.008C353.852 361.203 352.999 362.867 352.999 365V369.352C352.999 371.4 353.468 372.808 354.407 373.576C355.346 374.259 356.498 374.643 357.863 374.728C359.314 374.813 360.892 374.728 362.599 374.472C364.306 374.216 365.927 374.088 367.463 374.088C369.938 374.088 371.943 374.643 373.479 375.752C375.015 376.861 375.783 378.355 375.783 380.232C375.783 381.939 375.186 383.389 373.991 384.584C372.796 385.779 370.748 387.016 367.847 388.296C361.618 390.941 357.223 393.117 354.663 394.824C352.188 396.531 350.951 398.237 350.951 399.944C350.951 400.883 351.292 401.736 351.975 402.504C352.743 403.187 353.724 403.827 354.919 404.424C356.199 404.936 357.607 405.363 359.143 405.704C360.679 405.96 362.258 406.088 363.879 406.088C367.975 406.088 371.943 405.661 375.783 404.808C379.623 403.869 383.207 402.547 386.535 400.84C387.644 400.243 388.455 400.029 388.967 400.2C389.479 400.285 389.735 400.925 389.735 402.12V429H350.439Z" fill="#F3B216" fill-opacity="0.5"/>
<path d="M415.064 429.768C412.589 429.853 410.285 429.427 408.152 428.488C406.019 427.549 404.184 426.269 402.648 424.648C401.112 422.941 399.875 420.979 398.936 418.76C398.083 416.456 397.656 414.024 397.656 411.464C397.741 408.392 397.912 405.448 398.168 402.632C398.509 399.816 398.851 397 399.192 394.184C399.533 391.368 399.832 388.467 400.088 385.48C400.429 382.408 400.643 379.123 400.728 375.624C400.813 372.381 400.685 369.053 400.344 365.64C400.088 362.141 399.619 358.813 398.936 355.656C398.339 352.413 397.443 349.427 396.248 346.696C395.139 343.965 393.773 341.704 392.152 339.912V339.656L416.728 339.528C419.032 339.528 420.824 340.253 422.104 341.704C423.469 343.155 424.451 344.947 425.048 347.08C425.731 349.213 426.115 351.517 426.2 353.992C426.371 356.381 426.456 358.6 426.456 360.648C426.285 365.597 425.816 370.461 425.048 375.24C424.28 380.019 423.427 384.627 422.488 389.064C421.549 393.416 420.653 397.555 419.8 401.48C418.947 405.32 418.52 408.776 418.52 411.848C418.435 414.408 418.563 416.285 418.904 417.48C419.245 418.589 419.885 419.144 420.824 419.144C422.104 419.144 423.341 417.864 424.536 415.304C425.731 412.744 426.712 409.416 427.48 405.32C427.651 404.381 427.864 402.973 428.12 401.096C428.461 399.133 428.845 396.957 429.272 394.568C429.699 392.093 430.125 389.533 430.552 386.888C431.064 384.157 431.533 381.512 431.96 378.952C432.387 376.307 432.728 373.917 432.984 371.784C433.325 369.565 433.624 367.816 433.88 366.536C435.501 356.979 438.104 349.939 441.688 345.416C445.357 340.893 449.624 338.589 454.488 338.504C456.792 338.504 458.968 338.973 461.016 339.912C463.064 340.765 464.856 341.96 466.392 343.496C467.928 345.032 469.08 346.867 469.848 349C470.701 351.133 471.085 353.395 471 355.784C471 358.856 470.701 361.885 470.104 364.872C469.592 367.773 468.995 370.717 468.312 373.704C467.715 376.691 467.117 379.763 466.52 382.92C466.008 386.077 465.709 389.405 465.624 392.904C465.539 396.147 465.752 399.517 466.264 403.016C466.776 406.429 467.501 409.757 468.44 413C469.379 416.157 470.488 419.101 471.768 421.832C473.133 424.563 474.669 426.781 476.376 428.488V428.744L451.8 429C447.704 429 444.76 427.464 442.968 424.392C441.176 421.32 440.365 416.584 440.536 410.184C440.621 404.467 441.475 399.517 443.096 395.336C444.717 391.069 446.509 387.229 448.472 383.816C450.52 380.403 452.355 377.203 453.976 374.216C455.597 371.229 456.408 368.115 456.408 364.872C456.493 362.312 455.939 360.179 454.744 358.472C453.549 356.765 452.099 355.912 450.392 355.912C445.528 355.912 441.517 365.939 438.36 385.992L434.136 412.104C433.283 417.651 431.107 422.003 427.608 425.16C424.109 428.232 419.928 429.768 415.064 429.768ZM432.6 336.328C435.245 336.328 437.635 335.859 439.768 334.92C441.987 333.981 443.907 332.701 445.528 331.08C447.235 329.459 448.515 327.496 449.368 325.192C450.307 322.888 450.776 320.328 450.776 317.512V315.848C450.605 315.165 450.307 314.824 449.88 314.824C449.283 314.824 448.941 315.165 448.856 315.848C448.429 318.323 446.723 320.371 443.736 321.992C440.835 323.613 437.123 324.424 432.6 324.424C427.907 324.424 424.109 323.613 421.208 321.992C418.307 320.371 416.685 318.323 416.344 315.848C416.173 315.165 415.875 314.824 415.448 314.824C414.851 314.824 414.509 315.165 414.424 315.848V317.512C414.424 320.243 414.851 322.76 415.704 325.064C416.557 327.368 417.795 329.373 419.416 331.08C421.037 332.701 422.957 333.981 425.176 334.92C427.395 335.859 429.869 336.328 432.6 336.328Z" fill="#F3B216" fill-opacity="0.5"/>
</svg>
