<svg width="158" height="59" viewBox="0 0 158 59" fill="none" xmlns="http://www.w3.org/2000/svg">
<path d="M0 17.9194C7.10549 16.8773 9.35169 14.6473 9.98438 7.99997C10.6845 14.0282 12.4546 15.9755 18.4202 16.491C11.8929 17.2658 9.84334 19.5431 8.43578 26.4104C8.66216 18.9907 6.76474 17.1771 0 17.9194Z" fill="#FF9EA7"/>
<path d="M155.54 27.9212C154.149 32.4136 150.468 36.5266 144.919 40.177C139.381 43.8202 132.079 46.9376 123.626 49.4728C106.725 54.542 85.3871 57.2353 64.7939 57.2353C44.1278 57.2353 27.4592 55.4264 17.8322 51.2395C13.0178 49.1457 10.1897 46.5558 9.30726 43.5192C8.42973 40.4997 9.37109 36.6658 13.0007 31.8182C20.2189 22.1778 34.7405 14.4504 52.7783 9.13924C70.7712 3.84126 92.0832 1 112.668 1C122.964 1 131.137 1.67348 137.518 2.94139C143.906 4.21073 148.436 6.06388 151.503 8.37785C154.541 10.6707 156.172 13.4355 156.752 16.6413C157.339 19.8831 156.864 23.6483 155.54 27.9212Z" stroke="#FF9EA7" stroke-width="2"/>
<path d="M129.835 33.457C128.671 35.4102 127.077 36.3867 125.054 36.3867C124.312 36.3867 123.64 36.2656 123.038 36.0234C122.429 35.7734 121.906 35.4141 121.468 34.9453C121.038 34.4766 120.706 33.918 120.472 33.2695C120.245 32.6133 120.132 31.8984 120.132 31.125C120.132 30.3281 120.245 29.5938 120.472 28.9219C120.706 28.2422 121.034 27.668 121.456 27.1992C121.886 26.7227 122.398 26.3594 122.991 26.1094C123.585 25.8516 124.241 25.7227 124.96 25.7227C125.765 25.7227 126.495 25.8867 127.152 26.2148C127.808 26.5352 128.351 26.9961 128.781 27.5977C129.124 28.043 129.366 28.543 129.507 29.0977C129.648 29.6523 129.741 30.4258 129.788 31.418H122.3C122.323 32.0273 122.456 32.5664 122.698 33.0352C122.948 33.5039 123.281 33.8633 123.695 34.1133C124.116 34.3633 124.601 34.4883 125.148 34.4883C126.359 34.4883 127.351 33.7734 128.124 32.3438L129.835 33.457ZM122.488 29.7891H127.538C127.413 29.0781 127.14 28.5352 126.718 28.1602C126.296 27.7852 125.757 27.5977 125.101 27.5977C123.671 27.5977 122.8 28.3281 122.488 29.7891Z" fill="#F6EBC8"/>
<path d="M112.299 26.0625V29.6836L115.745 26.0625H118.534L113.999 30.4805L118.92 36H116.061L112.299 31.4648V36H110.178V26.0625H112.299Z" fill="#F6EBC8"/>
<path d="M105.357 28.043H102.052V31.6758C102.052 32.3008 101.986 32.8945 101.853 33.457C101.712 34.0117 101.494 34.5117 101.197 34.957C100.9 35.4023 100.513 35.7539 100.037 36.0117C99.5601 36.2617 99.0015 36.3867 98.3608 36.3867C98.2124 36.3867 98.0679 36.3789 97.9272 36.3633V34.2656C98.021 34.2812 98.1187 34.2891 98.2202 34.2891C98.7905 34.2891 99.1929 34.1016 99.4272 33.7266C99.6616 33.3438 99.7788 32.707 99.7788 31.8164L99.7671 26.0859H107.619V36H105.357V28.043Z" fill="#F6EBC8"/>
<path d="M87.7976 26.0742V30.2227H89.0164C89.8601 30.2227 90.5671 30.375 91.1375 30.6797C91.7078 30.9297 92.1453 31.2773 92.45 31.7227C92.7625 32.1602 92.9187 32.6562 92.9187 33.2109C92.9187 33.7734 92.7585 34.2656 92.4382 34.6875C92.1257 35.1016 91.6765 35.4258 91.0906 35.6602C90.5125 35.8867 89.8406 36 89.075 36H85.5828V26.0742H87.7976ZM87.7976 34.6289H88.8054C89.1414 34.6289 89.5359 34.5039 89.989 34.2539C90.4265 34.0039 90.6453 33.6484 90.6453 33.1875C90.6453 32.1875 90.032 31.6875 88.8054 31.6875H87.7976V34.6289ZM93.4226 36H95.5203L95.5085 26.0625H93.4226V36Z" fill="#F6EBC8"/>
<path d="M83.7266 35.4961C82.5781 36.0586 81.4688 36.3398 80.3984 36.3398C79.4609 36.3398 78.6172 36.1172 77.8672 35.6719C77.1172 35.2188 76.5312 34.5977 76.1094 33.8086C75.6797 33.0117 75.4648 32.1172 75.4648 31.125C75.4648 30.3359 75.6133 29.6094 75.9102 28.9453C76.2148 28.2812 76.6211 27.7109 77.1289 27.2344C77.6445 26.75 78.2266 26.3828 78.875 26.1328C79.5312 25.875 80.207 25.7461 80.9023 25.7461C81.9336 25.7461 82.875 26.0117 83.7266 26.543V29.0391C82.9219 28.2031 81.9609 27.7852 80.8438 27.7852C79.9766 27.7852 79.2344 28.0664 78.6172 28.6289C78.0078 29.1914 77.7031 29.9766 77.7031 30.9844C77.7031 31.6641 77.8242 32.2539 78.0664 32.7539C78.3086 33.2539 78.6602 33.6367 79.1211 33.9023C79.5742 34.1602 80.1094 34.2891 80.7266 34.2891C81.7734 34.2891 82.7734 33.8516 83.7266 32.9766V35.4961Z" fill="#F6EBC8"/>
<path d="M73.8782 35.4961C72.7297 36.0586 71.6204 36.3398 70.55 36.3398C69.6125 36.3398 68.7688 36.1172 68.0188 35.6719C67.2688 35.2188 66.6829 34.5977 66.261 33.8086C65.8313 33.0117 65.6165 32.1172 65.6165 31.125C65.6165 30.3359 65.7649 29.6094 66.0618 28.9453C66.3665 28.2812 66.7727 27.7109 67.2805 27.2344C67.7961 26.75 68.3782 26.3828 69.0266 26.1328C69.6829 25.875 70.3586 25.7461 71.054 25.7461C72.0852 25.7461 73.0266 26.0117 73.8782 26.543V29.0391C73.0735 28.2031 72.1125 27.7852 70.9954 27.7852C70.1282 27.7852 69.386 28.0664 68.7688 28.6289C68.1594 29.1914 67.8547 29.9766 67.8547 30.9844C67.8547 31.6641 67.9758 32.2539 68.218 32.7539C68.4602 33.2539 68.8118 33.6367 69.2727 33.9023C69.7258 34.1602 70.261 34.2891 70.8782 34.2891C71.925 34.2891 72.925 33.8516 73.8782 32.9766V35.4961Z" fill="#F6EBC8"/>
<path d="M52.5405 25.7227C53.564 25.7227 54.4819 25.9492 55.2944 26.4023C56.1069 26.8555 56.7397 27.4922 57.1929 28.3125C57.646 29.125 57.8726 30.0469 57.8726 31.0781C57.8726 32.0938 57.646 33.0039 57.1929 33.8086C56.7397 34.6133 56.103 35.2383 55.2827 35.6836C54.4624 36.1211 53.5327 36.3398 52.4937 36.3398C51.478 36.3398 50.5718 36.1094 49.7749 35.6484C48.978 35.2031 48.3569 34.5742 47.9116 33.7617C47.4741 32.9414 47.2554 32.0156 47.2554 30.9844C47.2554 29.9766 47.478 29.0742 47.9233 28.2773C48.3687 27.4727 48.9937 26.8477 49.7983 26.4023C50.603 25.9492 51.5171 25.7227 52.5405 25.7227ZM52.564 27.6445C51.9077 27.6445 51.3452 27.8086 50.8765 28.1367C50.4077 28.457 50.0562 28.875 49.8218 29.3906C49.5874 29.9062 49.4702 30.4609 49.4702 31.0547C49.4702 31.6406 49.5874 32.1914 49.8218 32.707C50.0562 33.2148 50.4077 33.6328 50.8765 33.9609C51.3452 34.2812 51.9077 34.4414 52.564 34.4414C53.2124 34.4414 53.7632 34.2812 54.2163 33.9609C54.6772 33.6406 55.021 33.2188 55.2476 32.6953C55.4819 32.1719 55.5991 31.625 55.5991 31.0547C55.5991 30.4688 55.4819 29.9141 55.2476 29.3906C55.021 28.8672 54.6772 28.4453 54.2163 28.125C53.7554 27.8047 53.2046 27.6445 52.564 27.6445Z" fill="#F6EBC8"/>
<path d="M43.3015 28.0078H38.7898V36H36.6921V26.0977H45.3875L45.3992 36H43.3015V28.0078Z" fill="#F6EBC8"/>
<path d="M149.213 45.1696C149.811 44.3789 150.309 43.4963 150.64 42.6178C150.98 43.5015 151.447 44.4024 151.985 45.2067C152.545 46.0436 153.201 46.8073 153.905 47.3575C154.101 47.5107 154.305 47.6504 154.515 47.771C153.339 48.3601 152.33 49.318 151.569 50.3679C151.133 50.97 150.764 51.6207 150.488 52.274C150.142 51.4659 149.636 50.6698 149.035 49.9641C148.256 49.0513 147.275 48.2429 146.226 47.7789C147.381 47.1885 148.412 46.2284 149.213 45.1696Z" stroke="#FF9EA7"/>
</svg>
