<svg width="480" height="1337" viewBox="0 0 480 1337" fill="none" xmlns="http://www.w3.org/2000/svg">
<rect width="480" height="1337" fill="#5A6B47"/>
<path d="M49.6395 153.615C49.9789 154.5 50.4469 155.402 50.9852 156.207C51.5448 157.044 52.2005 157.808 52.9048 158.358C53.1017 158.512 53.3077 158.65 53.5187 158.771C52.3414 159.36 51.331 160.317 50.5692 161.368C50.1318 161.971 49.764 162.624 49.4871 163.279C49.1418 162.469 48.6369 161.671 48.0342 160.964C47.2548 160.05 46.2707 159.243 45.2205 158.779C46.3768 158.189 47.4109 157.23 48.2128 156.17C48.8113 155.378 49.3078 154.494 49.6395 153.615Z" stroke="#F6EBC8"/>
<path d="M96.3094 1240.01H91.7977V1248H89.7V1238.1H98.3953L98.407 1248H96.3094V1240.01ZM105.619 1239.64C104.705 1239.64 103.99 1239.99 103.474 1240.68C102.959 1241.36 102.701 1242.16 102.701 1243.08C102.701 1243.66 102.81 1244.22 103.029 1244.74C103.248 1245.27 103.572 1245.69 104.002 1246.01C104.431 1246.33 104.947 1246.49 105.548 1246.49C106.173 1246.49 106.705 1246.32 107.142 1246C107.587 1245.67 107.92 1245.24 108.138 1244.71C108.357 1244.17 108.466 1243.6 108.466 1243.01C108.466 1242.44 108.357 1241.89 108.138 1241.38C107.927 1240.86 107.607 1240.44 107.177 1240.12C106.748 1239.8 106.228 1239.64 105.619 1239.64ZM100.72 1252.73V1238.05L102.841 1238.06V1239.28C103.568 1238.27 104.591 1237.77 105.912 1237.77C106.888 1237.77 107.728 1238.02 108.431 1238.53C109.142 1239.04 109.673 1239.7 110.025 1240.51C110.384 1241.32 110.564 1242.19 110.564 1243.1C110.564 1244.01 110.392 1244.86 110.048 1245.64C109.705 1246.43 109.185 1247.07 108.49 1247.55C107.802 1248.04 106.974 1248.28 106.005 1248.28C104.685 1248.28 103.63 1247.79 102.841 1246.79V1252.73H100.72ZM120.026 1248.06V1241.8L112.514 1248.41V1238.09H114.752V1244.31L122.264 1237.59V1248.06H120.026ZM137.578 1240.01H133.066V1248H130.969V1238.1H139.664L139.676 1248H137.578V1240.01ZM146.817 1237.72C147.841 1237.72 148.759 1237.95 149.571 1238.4C150.384 1238.86 151.016 1239.49 151.47 1240.31C151.923 1241.12 152.149 1242.05 152.149 1243.08C152.149 1244.09 151.923 1245 151.47 1245.81C151.016 1246.61 150.38 1247.24 149.559 1247.68C148.739 1248.12 147.809 1248.34 146.77 1248.34C145.755 1248.34 144.848 1248.11 144.052 1247.65C143.255 1247.2 142.634 1246.57 142.188 1245.76C141.751 1244.94 141.532 1244.02 141.532 1242.98C141.532 1241.98 141.755 1241.07 142.2 1240.28C142.645 1239.47 143.27 1238.85 144.075 1238.4C144.88 1237.95 145.794 1237.72 146.817 1237.72ZM146.841 1239.64C146.184 1239.64 145.622 1239.81 145.153 1240.14C144.684 1240.46 144.333 1240.88 144.098 1241.39C143.864 1241.91 143.747 1242.46 143.747 1243.05C143.747 1243.64 143.864 1244.19 144.098 1244.71C144.333 1245.21 144.684 1245.63 145.153 1245.96C145.622 1246.28 146.184 1246.44 146.841 1246.44C147.489 1246.44 148.04 1246.28 148.493 1245.96C148.954 1245.64 149.298 1245.22 149.524 1244.7C149.759 1244.17 149.876 1243.62 149.876 1243.05C149.876 1242.47 149.759 1241.91 149.524 1241.39C149.298 1240.87 148.954 1240.45 148.493 1240.12C148.032 1239.8 147.481 1239.64 146.841 1239.64ZM157.298 1246.09H163.005V1239.75H159.689C159.525 1243.35 158.728 1245.46 157.298 1246.09ZM155.037 1246.14C156.466 1245.51 157.252 1242.82 157.392 1238.07H165.267V1246.14H166.416V1250.06H164.154V1248.12H156.127V1250.06H153.865V1246.14H155.037ZM174.694 1239.83H170.663L170.674 1248H168.577V1238.06H174.659L174.694 1239.83ZM181.87 1237.72C182.894 1237.72 183.812 1237.95 184.624 1238.4C185.437 1238.86 186.07 1239.49 186.523 1240.31C186.976 1241.12 187.202 1242.05 187.202 1243.08C187.202 1244.09 186.976 1245 186.523 1245.81C186.07 1246.61 185.433 1247.24 184.612 1247.68C183.792 1248.12 182.862 1248.34 181.823 1248.34C180.808 1248.34 179.902 1248.11 179.105 1247.65C178.308 1247.2 177.687 1246.57 177.241 1245.76C176.804 1244.94 176.585 1244.02 176.585 1242.98C176.585 1241.98 176.808 1241.07 177.253 1240.28C177.698 1239.47 178.323 1238.85 179.128 1238.4C179.933 1237.95 180.847 1237.72 181.87 1237.72ZM181.894 1239.64C181.237 1239.64 180.675 1239.81 180.206 1240.14C179.737 1240.46 179.386 1240.88 179.152 1241.39C178.917 1241.91 178.8 1242.46 178.8 1243.05C178.8 1243.64 178.917 1244.19 179.152 1244.71C179.386 1245.21 179.737 1245.63 180.206 1245.96C180.675 1246.28 181.237 1246.44 181.894 1246.44C182.542 1246.44 183.093 1246.28 183.546 1245.96C184.007 1245.64 184.351 1245.22 184.577 1244.7C184.812 1244.17 184.929 1243.62 184.929 1243.05C184.929 1242.47 184.812 1241.91 184.577 1241.39C184.351 1240.87 184.007 1240.45 183.546 1240.12C183.085 1239.8 182.534 1239.64 181.894 1239.64ZM188.953 1238.07H196.535L196.57 1239.84H193.84V1248H191.684V1239.84H188.918L188.953 1238.07ZM203.559 1237.72C204.583 1237.72 205.501 1237.95 206.313 1238.4C207.126 1238.86 207.759 1239.49 208.212 1240.31C208.665 1241.12 208.891 1242.05 208.891 1243.08C208.891 1244.09 208.665 1245 208.212 1245.81C207.759 1246.61 207.122 1247.24 206.302 1247.68C205.481 1248.12 204.552 1248.34 203.512 1248.34C202.497 1248.34 201.591 1248.11 200.794 1247.65C199.997 1247.2 199.376 1246.57 198.93 1245.76C198.493 1244.94 198.274 1244.02 198.274 1242.98C198.274 1241.98 198.497 1241.07 198.942 1240.28C199.387 1239.47 200.012 1238.85 200.817 1238.4C201.622 1237.95 202.536 1237.72 203.559 1237.72ZM203.583 1239.64C202.927 1239.64 202.364 1239.81 201.895 1240.14C201.427 1240.46 201.075 1240.88 200.841 1241.39C200.606 1241.91 200.489 1242.46 200.489 1243.05C200.489 1243.64 200.606 1244.19 200.841 1244.71C201.075 1245.21 201.427 1245.63 201.895 1245.96C202.364 1246.28 202.927 1246.44 203.583 1246.44C204.231 1246.44 204.782 1246.28 205.235 1245.96C205.696 1245.64 206.04 1245.22 206.266 1244.7C206.501 1244.17 206.618 1243.62 206.618 1243.05C206.618 1242.47 206.501 1241.91 206.266 1241.39C206.04 1240.87 205.696 1240.45 205.235 1240.12C204.774 1239.8 204.223 1239.64 203.583 1239.64ZM210.478 1248V1238.07H213.97C215.009 1238.07 215.822 1238.3 216.408 1238.74C216.994 1239.19 217.287 1239.8 217.287 1240.57C217.287 1241.11 217.115 1241.57 216.771 1241.95C216.435 1242.33 215.978 1242.56 215.4 1242.66C216.291 1242.71 216.99 1242.99 217.498 1243.49C218.005 1243.99 218.259 1244.57 218.259 1245.23C218.259 1245.54 218.201 1245.84 218.084 1246.12C217.974 1246.41 217.798 1246.69 217.556 1246.95C217.314 1247.2 217.029 1247.4 216.701 1247.55C216.115 1247.85 215.275 1248 214.181 1248H210.478ZM212.482 1246.73H214.017C215.4 1246.81 216.091 1246.29 216.091 1245.15C216.091 1244.01 215.373 1243.44 213.935 1243.44H212.482V1246.73ZM212.482 1241.96H213.42C213.998 1241.96 214.455 1241.84 214.791 1241.6C215.111 1241.37 215.271 1241.04 215.271 1240.62C215.271 1240.26 215.103 1239.96 214.767 1239.73C214.431 1239.49 214.033 1239.38 213.572 1239.38H212.482V1241.96ZM222.541 1238.06V1241.68L225.987 1238.06H228.776L224.241 1242.48L229.162 1248H226.303L222.541 1243.46V1248H220.42V1238.06H222.541ZM240.077 1245.46C238.913 1247.41 237.32 1248.39 235.296 1248.39C234.554 1248.39 233.882 1248.27 233.28 1248.02C232.671 1247.77 232.148 1247.41 231.71 1246.95C231.28 1246.48 230.948 1245.92 230.714 1245.27C230.488 1244.61 230.374 1243.9 230.374 1243.12C230.374 1242.33 230.488 1241.59 230.714 1240.92C230.948 1240.24 231.277 1239.67 231.698 1239.2C232.128 1238.72 232.64 1238.36 233.234 1238.11C233.827 1237.85 234.484 1237.72 235.202 1237.72C236.007 1237.72 236.738 1237.89 237.394 1238.21C238.05 1238.54 238.593 1239 239.023 1239.6C239.366 1240.04 239.609 1240.54 239.749 1241.1C239.89 1241.65 239.984 1242.43 240.03 1243.42H232.542C232.566 1244.03 232.698 1244.57 232.941 1245.04C233.191 1245.5 233.523 1245.86 233.937 1246.11C234.359 1246.36 234.843 1246.49 235.39 1246.49C236.601 1246.49 237.593 1245.77 238.366 1244.34L240.077 1245.46ZM232.73 1241.79H237.78C237.655 1241.08 237.382 1240.54 236.96 1240.16C236.538 1239.79 235.999 1239.6 235.343 1239.6C233.913 1239.6 233.042 1240.33 232.73 1241.79ZM254.63 1240.01H250.118V1248H248.02V1238.1H256.716L256.727 1248H254.63V1240.01ZM263.869 1237.72C264.892 1237.72 265.81 1237.95 266.623 1238.4C267.435 1238.86 268.068 1239.49 268.521 1240.31C268.974 1241.12 269.201 1242.05 269.201 1243.08C269.201 1244.09 268.974 1245 268.521 1245.81C268.068 1246.61 267.431 1247.24 266.611 1247.68C265.791 1248.12 264.861 1248.34 263.822 1248.34C262.806 1248.34 261.9 1248.11 261.103 1247.65C260.306 1247.2 259.685 1246.57 259.24 1245.76C258.802 1244.94 258.584 1244.02 258.584 1242.98C258.584 1241.98 258.806 1241.07 259.252 1240.28C259.697 1239.47 260.322 1238.85 261.127 1238.4C261.931 1237.95 262.845 1237.72 263.869 1237.72ZM263.892 1239.64C263.236 1239.64 262.673 1239.81 262.205 1240.14C261.736 1240.46 261.384 1240.88 261.15 1241.39C260.916 1241.91 260.798 1242.46 260.798 1243.05C260.798 1243.64 260.916 1244.19 261.15 1244.71C261.384 1245.21 261.736 1245.63 262.205 1245.96C262.673 1246.28 263.236 1246.44 263.892 1246.44C264.541 1246.44 265.091 1246.28 265.545 1245.96C266.005 1245.64 266.349 1245.22 266.576 1244.7C266.81 1244.17 266.927 1243.62 266.927 1243.05C266.927 1242.47 266.81 1241.91 266.576 1241.39C266.349 1240.87 266.005 1240.45 265.545 1240.12C265.084 1239.8 264.533 1239.64 263.892 1239.64ZM272.768 1242.35H274.537C276.084 1242.22 276.858 1241.71 276.858 1240.82C276.858 1240.36 276.651 1240 276.237 1239.74C275.83 1239.47 275.284 1239.34 274.596 1239.34C273.495 1239.31 272.256 1239.37 270.881 1239.53V1238.34C272.514 1238.06 273.752 1237.94 274.596 1237.98C275.44 1238.01 276.178 1238.14 276.811 1238.36C277.444 1238.57 277.928 1238.89 278.264 1239.3C278.608 1239.71 278.78 1240.19 278.78 1240.73C278.78 1241.33 278.6 1241.8 278.241 1242.14C277.881 1242.48 277.311 1242.73 276.53 1242.87C278.334 1243.08 279.237 1243.89 279.237 1245.29C279.237 1245.91 279.01 1246.45 278.557 1246.9C278.104 1247.36 277.51 1247.71 276.776 1247.96C276.041 1248.21 275.268 1248.34 274.455 1248.35C273.643 1248.38 272.85 1248.32 272.077 1248.18C271.311 1248.04 270.862 1247.97 270.729 1247.96V1246.68C272.565 1246.93 273.854 1247.06 274.596 1247.06C275.393 1247.06 276.037 1246.91 276.53 1246.59C277.022 1246.28 277.268 1245.86 277.268 1245.33C277.268 1244.27 276.397 1243.68 274.655 1243.54H272.768V1242.35ZM284.644 1246.09H290.351V1239.75H287.034C286.87 1243.35 286.073 1245.46 284.644 1246.09ZM282.382 1246.14C283.812 1245.51 284.597 1242.82 284.738 1238.07H292.613V1246.14H293.761V1250.06H291.499V1248.12H283.472V1250.06H281.21V1246.14H282.382ZM300.891 1239.64C299.977 1239.64 299.262 1239.99 298.746 1240.68C298.23 1241.36 297.973 1242.16 297.973 1243.08C297.973 1243.66 298.082 1244.22 298.301 1244.74C298.52 1245.27 298.844 1245.69 299.273 1246.01C299.703 1246.33 300.219 1246.49 300.82 1246.49C301.445 1246.49 301.977 1246.32 302.414 1246C302.859 1245.67 303.191 1245.24 303.41 1244.71C303.629 1244.17 303.738 1243.6 303.738 1243.01C303.738 1242.44 303.629 1241.89 303.41 1241.38C303.199 1240.86 302.879 1240.44 302.449 1240.12C302.02 1239.8 301.5 1239.64 300.891 1239.64ZM295.992 1252.73V1238.05L298.113 1238.06V1239.28C298.84 1238.27 299.863 1237.77 301.184 1237.77C302.16 1237.77 303 1238.02 303.703 1238.53C304.414 1239.04 304.945 1239.7 305.297 1240.51C305.656 1241.32 305.836 1242.19 305.836 1243.1C305.836 1244.01 305.664 1244.86 305.32 1245.64C304.977 1246.43 304.457 1247.07 303.762 1247.55C303.074 1248.04 302.246 1248.28 301.277 1248.28C299.957 1248.28 298.902 1247.79 298.113 1246.79V1252.73H295.992ZM315.391 1246.79C315.063 1247.27 314.622 1247.64 314.067 1247.91C313.513 1248.16 312.899 1248.29 312.227 1248.29C311.368 1248.29 310.587 1248.06 309.884 1247.6C309.188 1247.14 308.641 1246.51 308.243 1245.7C307.845 1244.89 307.645 1243.98 307.645 1242.98C307.645 1242.01 307.848 1241.12 308.255 1240.32C308.669 1239.53 309.235 1238.9 309.954 1238.45C310.68 1238 311.485 1237.77 312.368 1237.77C313.727 1237.77 314.735 1238.27 315.391 1239.28V1238.06H317.513V1248H315.391V1246.79ZM312.684 1239.64C312.075 1239.64 311.548 1239.8 311.102 1240.12C310.665 1240.45 310.333 1240.87 310.106 1241.4C309.888 1241.93 309.778 1242.49 309.778 1243.08C309.778 1243.66 309.888 1244.21 310.106 1244.73C310.333 1245.25 310.665 1245.68 311.102 1246.01C311.548 1246.33 312.075 1246.49 312.684 1246.49C313.286 1246.49 313.802 1246.33 314.231 1246.01C314.661 1245.68 314.985 1245.25 315.204 1244.72C315.43 1244.19 315.544 1243.62 315.544 1243.03C315.544 1242.45 315.438 1241.9 315.227 1241.38C315.001 1240.86 314.673 1240.45 314.243 1240.12C313.813 1239.8 313.294 1239.64 312.684 1239.64ZM319.65 1248V1238.07H323.142C324.181 1238.07 324.994 1238.3 325.58 1238.74C326.166 1239.19 326.459 1239.8 326.459 1240.57C326.459 1241.11 326.287 1241.57 325.943 1241.95C325.607 1242.33 325.15 1242.56 324.572 1242.66C325.462 1242.71 326.162 1242.99 326.67 1243.49C327.177 1243.99 327.431 1244.57 327.431 1245.23C327.431 1245.54 327.373 1245.84 327.255 1246.12C327.146 1246.41 326.97 1246.69 326.728 1246.95C326.486 1247.2 326.201 1247.4 325.873 1247.55C325.287 1247.85 324.447 1248 323.353 1248H319.65ZM321.654 1246.73H323.189C324.572 1246.81 325.263 1246.29 325.263 1245.15C325.263 1244.01 324.545 1243.44 323.107 1243.44H321.654V1246.73ZM321.654 1241.96H322.591C323.17 1241.96 323.627 1241.84 323.962 1241.6C324.283 1241.37 324.443 1241.04 324.443 1240.62C324.443 1240.26 324.275 1239.96 323.939 1239.73C323.603 1239.49 323.205 1239.38 322.744 1239.38H321.654V1241.96ZM336.963 1240.04H333.659V1243.68C333.659 1244.3 333.592 1244.89 333.459 1245.46C333.319 1246.01 333.1 1246.51 332.803 1246.96C332.506 1247.4 332.12 1247.75 331.643 1248.01C331.166 1248.26 330.608 1248.39 329.967 1248.39C329.819 1248.39 329.674 1248.38 329.534 1248.36V1246.27C329.627 1246.28 329.725 1246.29 329.827 1246.29C330.397 1246.29 330.799 1246.1 331.034 1245.73C331.268 1245.34 331.385 1244.71 331.385 1243.82L331.373 1238.09H339.225V1248H336.963V1240.04ZM350.984 1245.46C349.82 1247.41 348.226 1248.39 346.202 1248.39C345.46 1248.39 344.788 1248.27 344.187 1248.02C343.577 1247.77 343.054 1247.41 342.616 1246.95C342.187 1246.48 341.855 1245.92 341.62 1245.27C341.394 1244.61 341.28 1243.9 341.28 1243.12C341.28 1242.33 341.394 1241.59 341.62 1240.92C341.855 1240.24 342.183 1239.67 342.605 1239.2C343.034 1238.72 343.546 1238.36 344.14 1238.11C344.734 1237.85 345.39 1237.72 346.109 1237.72C346.913 1237.72 347.644 1237.89 348.3 1238.21C348.956 1238.54 349.499 1239 349.929 1239.6C350.273 1240.04 350.515 1240.54 350.655 1241.1C350.796 1241.65 350.89 1242.43 350.937 1243.42H343.448C343.472 1244.03 343.605 1244.57 343.847 1245.04C344.097 1245.5 344.429 1245.86 344.843 1246.11C345.265 1246.36 345.749 1246.49 346.296 1246.49C347.507 1246.49 348.499 1245.77 349.273 1244.34L350.984 1245.46ZM343.636 1241.79H348.687C348.562 1241.08 348.288 1240.54 347.866 1240.16C347.445 1239.79 346.905 1239.6 346.249 1239.6C344.82 1239.6 343.948 1240.33 343.636 1241.79ZM359.227 1243.72H354.715V1248H352.617V1238.1H354.703V1241.84H359.227V1238.1H361.312L361.324 1248H359.227V1243.72ZM371.032 1248.06V1241.8L363.52 1248.41V1238.09H365.759V1244.31L373.27 1237.59V1248.06H371.032ZM382.193 1248V1243.72L377.974 1248H375.22L380.095 1243.63C379.759 1243.61 379.326 1243.54 378.795 1243.41C378.263 1243.27 377.81 1243.09 377.435 1242.84C377.06 1242.59 376.771 1242.3 376.568 1241.96C376.373 1241.62 376.275 1241.24 376.275 1240.82C376.275 1239.93 376.72 1239.26 377.611 1238.79C378.509 1238.31 379.654 1238.07 381.045 1238.07H384.431V1248H382.193ZM382.193 1239.4H381.502C380.455 1239.4 379.693 1239.53 379.216 1239.79C378.748 1240.04 378.513 1240.43 378.513 1240.93C378.513 1241.41 378.759 1241.8 379.252 1242.12C379.752 1242.42 380.455 1242.57 381.361 1242.57H382.193V1239.4ZM40.2375 1273V1263.07H43.7297C44.7688 1263.07 45.5813 1263.3 46.1672 1263.74C46.7531 1264.19 47.0461 1264.8 47.0461 1265.57C47.0461 1266.11 46.8742 1266.57 46.5305 1266.95C46.1945 1267.33 45.7375 1267.56 45.1594 1267.66C46.05 1267.71 46.7492 1267.99 47.257 1268.49C47.7648 1268.99 48.0188 1269.57 48.0188 1270.23C48.0188 1270.54 47.9602 1270.84 47.843 1271.12C47.7336 1271.41 47.5578 1271.69 47.3156 1271.95C47.0734 1272.2 46.7883 1272.4 46.4602 1272.55C45.8742 1272.85 45.0344 1273 43.9406 1273H40.2375ZM42.2414 1271.73H43.7766C45.1594 1271.81 45.8508 1271.29 45.8508 1270.15C45.8508 1269.01 45.132 1268.44 43.6945 1268.44H42.2414V1271.73ZM42.2414 1266.96H43.1789C43.757 1266.96 44.2141 1266.84 44.55 1266.6C44.8703 1266.37 45.0305 1266.04 45.0305 1265.62C45.0305 1265.26 44.8625 1264.96 44.5266 1264.73C44.1906 1264.49 43.7922 1264.38 43.3313 1264.38H42.2414V1266.96ZM58.125 1272.5C56.9766 1273.06 55.8672 1273.34 54.7969 1273.34C53.8594 1273.34 53.0156 1273.12 52.2656 1272.67C51.5156 1272.22 50.9297 1271.6 50.5078 1270.81C50.0781 1270.01 49.8633 1269.12 49.8633 1268.12C49.8633 1267.34 50.0117 1266.61 50.3086 1265.95C50.6133 1265.28 51.0195 1264.71 51.5273 1264.23C52.043 1263.75 52.625 1263.38 53.2734 1263.13C53.9297 1262.88 54.6055 1262.75 55.3008 1262.75C56.332 1262.75 57.2734 1263.01 58.125 1263.54V1266.04C57.3203 1265.2 56.3594 1264.79 55.2422 1264.79C54.375 1264.79 53.6328 1265.07 53.0156 1265.63C52.4063 1266.19 52.1016 1266.98 52.1016 1267.98C52.1016 1268.66 52.2227 1269.25 52.4648 1269.75C52.707 1270.25 53.0586 1270.64 53.5195 1270.9C53.9727 1271.16 54.5078 1271.29 55.125 1271.29C56.1719 1271.29 57.1719 1270.85 58.125 1269.98V1272.5ZM66.5672 1265.01H62.0555V1273H59.9578V1263.1H68.6531L68.6648 1273H66.5672V1265.01ZM75.8063 1262.72C76.8297 1262.72 77.7477 1262.95 78.5602 1263.4C79.3727 1263.86 80.0055 1264.49 80.4586 1265.31C80.9117 1266.12 81.1383 1267.05 81.1383 1268.08C81.1383 1269.09 80.9117 1270 80.4586 1270.81C80.0055 1271.61 79.3688 1272.24 78.5484 1272.68C77.7281 1273.12 76.7984 1273.34 75.7594 1273.34C74.7438 1273.34 73.8375 1273.11 73.0406 1272.65C72.2438 1272.2 71.6227 1271.57 71.1773 1270.76C70.7398 1269.94 70.5211 1269.02 70.5211 1267.98C70.5211 1266.98 70.7438 1266.07 71.1891 1265.28C71.6344 1264.47 72.2594 1263.85 73.0641 1263.4C73.8688 1262.95 74.7828 1262.72 75.8063 1262.72ZM75.8297 1264.64C75.1734 1264.64 74.6109 1264.81 74.1422 1265.14C73.6734 1265.46 73.3219 1265.88 73.0875 1266.39C72.8531 1266.91 72.7359 1267.46 72.7359 1268.05C72.7359 1268.64 72.8531 1269.19 73.0875 1269.71C73.3219 1270.21 73.6734 1270.63 74.1422 1270.96C74.6109 1271.28 75.1734 1271.44 75.8297 1271.44C76.4781 1271.44 77.0289 1271.28 77.482 1270.96C77.943 1270.64 78.2867 1270.22 78.5133 1269.7C78.7477 1269.17 78.8648 1268.62 78.8648 1268.05C78.8648 1267.47 78.7477 1266.91 78.5133 1266.39C78.2867 1265.87 77.943 1265.45 77.482 1265.12C77.0211 1264.8 76.4703 1264.64 75.8297 1264.64ZM82.3734 1273.06L85.8656 1262.28L89.6273 1269.45L93.9633 1262.28L97.3148 1273.06H95.018L93.0727 1266.47L89.5336 1273.41L86.5688 1266.45L84.6938 1273.06H82.3734ZM105.488 1268.72H100.976V1273H98.8781V1263.1H100.964V1266.84H105.488V1263.1H107.573L107.585 1273H105.488V1268.72ZM117.293 1273.06V1266.8L109.781 1273.41V1263.09H112.02V1269.31L119.531 1262.59V1273.06H117.293ZM121.997 1263.07H129.579L129.614 1264.84H126.884V1273H124.727V1264.84H121.962L121.997 1263.07ZM140.974 1270.46C139.81 1272.41 138.216 1273.39 136.193 1273.39C135.451 1273.39 134.779 1273.27 134.177 1273.02C133.568 1272.77 133.045 1272.41 132.607 1271.95C132.177 1271.48 131.845 1270.92 131.611 1270.27C131.384 1269.61 131.271 1268.9 131.271 1268.12C131.271 1267.33 131.384 1266.59 131.611 1265.92C131.845 1265.24 132.173 1264.67 132.595 1264.2C133.025 1263.72 133.537 1263.36 134.13 1263.11C134.724 1262.85 135.38 1262.72 136.099 1262.72C136.904 1262.72 137.634 1262.89 138.291 1263.21C138.947 1263.54 139.49 1264 139.92 1264.6C140.263 1265.04 140.505 1265.54 140.646 1266.1C140.787 1266.65 140.88 1267.43 140.927 1268.42H133.439C133.463 1269.03 133.595 1269.57 133.838 1270.04C134.088 1270.5 134.42 1270.86 134.834 1271.11C135.255 1271.36 135.74 1271.49 136.287 1271.49C137.498 1271.49 138.49 1270.77 139.263 1269.34L140.974 1270.46ZM133.627 1266.79H138.677C138.552 1266.08 138.279 1265.54 137.857 1265.16C137.435 1264.79 136.896 1264.6 136.24 1264.6C134.81 1264.6 133.939 1265.33 133.627 1266.79ZM156.382 1273.06V1266.8L148.87 1273.41V1263.09H151.109V1269.31L158.62 1262.59V1273.06H156.382ZM169.031 1272.5C167.883 1273.06 166.773 1273.34 165.703 1273.34C164.766 1273.34 163.922 1273.12 163.172 1272.67C162.422 1272.22 161.836 1271.6 161.414 1270.81C160.984 1270.01 160.77 1269.12 160.77 1268.12C160.77 1267.34 160.918 1266.61 161.215 1265.95C161.52 1265.28 161.926 1264.71 162.434 1264.23C162.949 1263.75 163.531 1263.38 164.18 1263.13C164.836 1262.88 165.512 1262.75 166.207 1262.75C167.238 1262.75 168.18 1263.01 169.031 1263.54V1266.04C168.227 1265.2 167.266 1264.79 166.148 1264.79C165.281 1264.79 164.539 1265.07 163.922 1265.63C163.312 1266.19 163.008 1266.98 163.008 1267.98C163.008 1268.66 163.129 1269.25 163.371 1269.75C163.613 1270.25 163.965 1270.64 164.426 1270.9C164.879 1271.16 165.414 1271.29 166.031 1271.29C167.078 1271.29 168.078 1270.85 169.031 1269.98V1272.5ZM170.934 1263.07H178.516L178.552 1264.84H175.821V1273H173.665V1264.84H170.899L170.934 1263.07ZM185.541 1262.72C186.564 1262.72 187.482 1262.95 188.295 1263.4C189.107 1263.86 189.74 1264.49 190.193 1265.31C190.646 1266.12 190.873 1267.05 190.873 1268.08C190.873 1269.09 190.646 1270 190.193 1270.81C189.74 1271.61 189.103 1272.24 188.283 1272.68C187.463 1273.12 186.533 1273.34 185.494 1273.34C184.478 1273.34 183.572 1273.11 182.775 1272.65C181.978 1272.2 181.357 1271.57 180.912 1270.76C180.474 1269.94 180.255 1269.02 180.255 1267.98C180.255 1266.98 180.478 1266.07 180.923 1265.28C181.369 1264.47 181.994 1263.85 182.798 1263.4C183.603 1262.95 184.517 1262.72 185.541 1262.72ZM185.564 1264.64C184.908 1264.64 184.345 1264.81 183.877 1265.14C183.408 1265.46 183.056 1265.88 182.822 1266.39C182.588 1266.91 182.47 1267.46 182.47 1268.05C182.47 1268.64 182.588 1269.19 182.822 1269.71C183.056 1270.21 183.408 1270.63 183.877 1270.96C184.345 1271.28 184.908 1271.44 185.564 1271.44C186.213 1271.44 186.763 1271.28 187.216 1270.96C187.677 1270.64 188.021 1270.22 188.248 1269.7C188.482 1269.17 188.599 1268.62 188.599 1268.05C188.599 1267.47 188.482 1266.91 188.248 1266.39C188.021 1265.87 187.677 1265.45 187.216 1265.12C186.755 1264.8 186.205 1264.64 185.564 1264.64ZM197.522 1264.64C196.608 1264.64 195.893 1264.99 195.377 1265.68C194.862 1266.36 194.604 1267.16 194.604 1268.08C194.604 1268.66 194.713 1269.22 194.932 1269.74C195.151 1270.27 195.475 1270.69 195.905 1271.01C196.334 1271.33 196.85 1271.49 197.452 1271.49C198.077 1271.49 198.608 1271.32 199.045 1271C199.491 1270.67 199.823 1270.24 200.041 1269.71C200.26 1269.17 200.37 1268.6 200.37 1268.01C200.37 1267.44 200.26 1266.89 200.041 1266.38C199.83 1265.86 199.51 1265.44 199.08 1265.12C198.651 1264.8 198.131 1264.64 197.522 1264.64ZM192.623 1277.73V1263.05L194.745 1263.06V1264.28C195.471 1263.27 196.495 1262.77 197.815 1262.77C198.791 1262.77 199.631 1263.02 200.334 1263.53C201.045 1264.04 201.577 1264.7 201.928 1265.51C202.288 1266.32 202.467 1267.19 202.467 1268.1C202.467 1269.01 202.295 1269.86 201.952 1270.64C201.608 1271.43 201.088 1272.07 200.393 1272.55C199.705 1273.04 198.877 1273.28 197.909 1273.28C196.588 1273.28 195.534 1272.79 194.745 1271.79V1277.73H192.623ZM211.929 1273.06V1266.8L204.417 1273.41V1263.09H206.655V1269.31L214.167 1262.59V1273.06H211.929ZM226.266 1264.64C225.609 1264.64 225.047 1264.81 224.578 1265.14C224.109 1265.46 223.758 1265.88 223.523 1266.39C223.289 1266.91 223.172 1267.46 223.172 1268.05C223.172 1268.64 223.289 1269.19 223.523 1269.71C223.758 1270.21 224.109 1270.63 224.578 1270.96C225.047 1271.28 225.609 1271.44 226.266 1271.44C226.914 1271.44 227.465 1271.28 227.918 1270.96C228.379 1270.64 228.723 1270.22 228.949 1269.7C229.184 1269.17 229.301 1268.62 229.301 1268.05C229.301 1267.47 229.184 1266.91 228.949 1266.39C228.723 1265.87 228.379 1265.45 227.918 1265.12C227.457 1264.8 226.906 1264.64 226.266 1264.64ZM216.645 1263.12L218.73 1263.09V1266.84H221.062C221.172 1266.27 221.359 1265.75 221.625 1265.27C222.07 1264.47 222.695 1263.85 223.5 1263.4C224.305 1262.95 225.219 1262.72 226.242 1262.72C227.266 1262.72 228.184 1262.95 228.996 1263.4C229.809 1263.86 230.441 1264.49 230.895 1265.31C231.348 1266.12 231.574 1267.05 231.574 1268.08C231.574 1269.09 231.348 1270 230.895 1270.81C230.441 1271.61 229.805 1272.24 228.984 1272.68C228.164 1273.12 227.234 1273.34 226.195 1273.34C225.18 1273.34 224.273 1273.11 223.477 1272.65C222.68 1272.2 222.062 1271.57 221.625 1270.75C221.289 1270.14 221.078 1269.46 220.992 1268.72H218.742V1273H216.645V1263.12ZM244.463 1262.72C245.486 1262.72 246.404 1262.95 247.216 1263.4C248.029 1263.86 248.662 1264.49 249.115 1265.31C249.568 1266.12 249.795 1267.05 249.795 1268.08C249.795 1269.09 249.568 1270 249.115 1270.81C248.662 1271.61 248.025 1272.24 247.205 1272.68C246.384 1273.12 245.455 1273.34 244.416 1273.34C243.4 1273.34 242.494 1273.11 241.697 1272.65C240.9 1272.2 240.279 1271.57 239.834 1270.76C239.396 1269.94 239.177 1269.02 239.177 1267.98C239.177 1266.98 239.4 1266.07 239.845 1265.28C240.291 1264.47 240.916 1263.85 241.72 1263.4C242.525 1262.95 243.439 1262.72 244.463 1262.72ZM244.486 1264.64C243.83 1264.64 243.267 1264.81 242.798 1265.14C242.33 1265.46 241.978 1265.88 241.744 1266.39C241.509 1266.91 241.392 1267.46 241.392 1268.05C241.392 1268.64 241.509 1269.19 241.744 1269.71C241.978 1270.21 242.33 1270.63 242.798 1270.96C243.267 1271.28 243.83 1271.44 244.486 1271.44C245.134 1271.44 245.685 1271.28 246.138 1270.96C246.599 1270.64 246.943 1270.22 247.17 1269.7C247.404 1269.17 247.521 1268.62 247.521 1268.05C247.521 1267.47 247.404 1266.91 247.17 1266.39C246.943 1265.87 246.599 1265.45 246.138 1265.12C245.677 1264.8 245.127 1264.64 244.486 1264.64ZM264.394 1268.72H259.882V1273H257.784V1263.1H259.87V1266.84H264.394V1263.1H266.48L266.491 1273H264.394V1268.72ZM276.293 1271.79C275.965 1272.27 275.523 1272.64 274.969 1272.91C274.414 1273.16 273.801 1273.29 273.129 1273.29C272.27 1273.29 271.488 1273.06 270.785 1272.6C270.09 1272.14 269.543 1271.51 269.145 1270.7C268.746 1269.89 268.547 1268.98 268.547 1267.98C268.547 1267.01 268.75 1266.12 269.156 1265.32C269.57 1264.53 270.137 1263.9 270.855 1263.45C271.582 1263 272.387 1262.77 273.27 1262.77C274.629 1262.77 275.637 1263.27 276.293 1264.28V1263.06H278.414V1273H276.293V1271.79ZM273.586 1264.64C272.977 1264.64 272.449 1264.8 272.004 1265.12C271.566 1265.45 271.234 1265.87 271.008 1266.4C270.789 1266.93 270.68 1267.49 270.68 1268.08C270.68 1268.66 270.789 1269.21 271.008 1269.73C271.234 1270.25 271.566 1270.68 272.004 1271.01C272.449 1271.33 272.977 1271.49 273.586 1271.49C274.188 1271.49 274.703 1271.33 275.133 1271.01C275.562 1270.68 275.887 1270.25 276.105 1269.72C276.332 1269.19 276.445 1268.62 276.445 1268.03C276.445 1267.45 276.34 1266.9 276.129 1266.38C275.902 1265.86 275.574 1265.45 275.145 1265.12C274.715 1264.8 274.195 1264.64 273.586 1264.64ZM288.661 1272.5C287.512 1273.06 286.403 1273.34 285.333 1273.34C284.395 1273.34 283.552 1273.12 282.802 1272.67C282.052 1272.22 281.466 1271.6 281.044 1270.81C280.614 1270.01 280.399 1269.12 280.399 1268.12C280.399 1267.34 280.548 1266.61 280.845 1265.95C281.149 1265.28 281.555 1264.71 282.063 1264.23C282.579 1263.75 283.161 1263.38 283.809 1263.13C284.466 1262.88 285.141 1262.75 285.837 1262.75C286.868 1262.75 287.809 1263.01 288.661 1263.54V1266.04C287.856 1265.2 286.895 1264.79 285.778 1264.79C284.911 1264.79 284.169 1265.07 283.552 1265.63C282.942 1266.19 282.637 1266.98 282.637 1267.98C282.637 1268.66 282.759 1269.25 283.001 1269.75C283.243 1270.25 283.595 1270.64 284.055 1270.9C284.509 1271.16 285.044 1271.29 285.661 1271.29C286.708 1271.29 287.708 1270.85 288.661 1269.98V1272.5ZM288.806 1275.84L291.115 1270.3L293.189 1271.05L290.353 1276.46L288.806 1275.84ZM307.636 1268.72H303.124V1273H301.027V1263.1H303.112V1266.84H307.636V1263.1H309.722L309.734 1273H307.636V1268.72ZM319.535 1271.79C319.207 1272.27 318.766 1272.64 318.211 1272.91C317.656 1273.16 317.043 1273.29 316.371 1273.29C315.512 1273.29 314.73 1273.06 314.027 1272.6C313.332 1272.14 312.785 1271.51 312.387 1270.7C311.988 1269.89 311.789 1268.98 311.789 1267.98C311.789 1267.01 311.992 1266.12 312.398 1265.32C312.812 1264.53 313.379 1263.9 314.098 1263.45C314.824 1263 315.629 1262.77 316.512 1262.77C317.871 1262.77 318.879 1263.27 319.535 1264.28V1263.06H321.656V1273H319.535V1271.79ZM316.828 1264.64C316.219 1264.64 315.691 1264.8 315.246 1265.12C314.809 1265.45 314.477 1265.87 314.25 1266.4C314.031 1266.93 313.922 1267.49 313.922 1268.08C313.922 1268.66 314.031 1269.21 314.25 1269.73C314.477 1270.25 314.809 1270.68 315.246 1271.01C315.691 1271.33 316.219 1271.49 316.828 1271.49C317.43 1271.49 317.945 1271.33 318.375 1271.01C318.805 1270.68 319.129 1270.25 319.348 1269.72C319.574 1269.19 319.688 1268.62 319.688 1268.03C319.688 1267.45 319.582 1266.9 319.371 1266.38C319.145 1265.86 318.816 1265.45 318.387 1265.12C317.957 1264.8 317.438 1264.64 316.828 1264.64ZM339.18 1273H323.888V1263.1H325.985V1271.09H330.485V1263.1H332.595L332.583 1271.09H337.095V1263.1H339.192L339.18 1273ZM350.623 1270.46C349.459 1272.41 347.865 1273.39 345.841 1273.39C345.099 1273.39 344.427 1273.27 343.826 1273.02C343.216 1272.77 342.693 1272.41 342.255 1271.95C341.826 1271.48 341.494 1270.92 341.259 1270.27C341.033 1269.61 340.92 1268.9 340.92 1268.12C340.92 1267.33 341.033 1266.59 341.259 1265.92C341.494 1265.24 341.822 1264.67 342.244 1264.2C342.673 1263.72 343.185 1263.36 343.779 1263.11C344.373 1262.85 345.029 1262.72 345.748 1262.72C346.552 1262.72 347.283 1262.89 347.939 1263.21C348.595 1263.54 349.138 1264 349.568 1264.6C349.912 1265.04 350.154 1265.54 350.295 1266.1C350.435 1266.65 350.529 1267.43 350.576 1268.42H343.088C343.111 1269.03 343.244 1269.57 343.486 1270.04C343.736 1270.5 344.068 1270.86 344.482 1271.11C344.904 1271.36 345.388 1271.49 345.935 1271.49C347.146 1271.49 348.138 1270.77 348.912 1269.34L350.623 1270.46ZM343.275 1266.79H348.326C348.201 1266.08 347.927 1265.54 347.505 1265.16C347.084 1264.79 346.545 1264.6 345.888 1264.6C344.459 1264.6 343.588 1265.33 343.275 1266.79ZM351.811 1273.06L355.303 1262.28L359.065 1269.45L363.401 1262.28L366.752 1273.06H364.455L362.51 1266.47L358.971 1273.41L356.006 1266.45L354.131 1273.06H351.811ZM382.641 1272.5C381.492 1273.06 380.383 1273.34 379.312 1273.34C378.375 1273.34 377.531 1273.12 376.781 1272.67C376.031 1272.22 375.445 1271.6 375.023 1270.81C374.594 1270.01 374.379 1269.12 374.379 1268.12C374.379 1267.34 374.527 1266.61 374.824 1265.95C375.129 1265.28 375.535 1264.71 376.043 1264.23C376.559 1263.75 377.141 1263.38 377.789 1263.13C378.445 1262.88 379.121 1262.75 379.816 1262.75C380.848 1262.75 381.789 1263.01 382.641 1263.54V1266.04C381.836 1265.2 380.875 1264.79 379.758 1264.79C378.891 1264.79 378.148 1265.07 377.531 1265.63C376.922 1266.19 376.617 1266.98 376.617 1267.98C376.617 1268.66 376.738 1269.25 376.98 1269.75C377.223 1270.25 377.574 1270.64 378.035 1270.9C378.488 1271.16 379.023 1271.29 379.641 1271.29C380.688 1271.29 381.688 1270.85 382.641 1269.98V1272.5ZM390.689 1273V1263.07H394.181C395.22 1263.07 396.033 1263.3 396.619 1263.74C397.205 1264.19 397.498 1264.8 397.498 1265.57C397.498 1266.11 397.326 1266.57 396.982 1266.95C396.646 1267.33 396.189 1267.56 395.611 1267.66C396.502 1267.71 397.201 1267.99 397.709 1268.49C398.216 1268.99 398.47 1269.57 398.47 1270.23C398.47 1270.54 398.412 1270.84 398.295 1271.12C398.185 1271.41 398.009 1271.69 397.767 1271.95C397.525 1272.2 397.24 1272.4 396.912 1272.55C396.326 1272.85 395.486 1273 394.392 1273H390.689ZM392.693 1271.73H394.228C395.611 1271.81 396.302 1271.29 396.302 1270.15C396.302 1269.01 395.584 1268.44 394.146 1268.44H392.693V1271.73ZM392.693 1266.96H393.63C394.209 1266.96 394.666 1266.84 395.002 1266.6C395.322 1266.37 395.482 1266.04 395.482 1265.62C395.482 1265.26 395.314 1264.96 394.978 1264.73C394.642 1264.49 394.244 1264.38 393.783 1264.38H392.693V1266.96ZM408.12 1271.79C407.791 1272.27 407.35 1272.64 406.795 1272.91C406.241 1273.16 405.627 1273.29 404.955 1273.29C404.096 1273.29 403.315 1273.06 402.612 1272.6C401.916 1272.14 401.37 1271.51 400.971 1270.7C400.573 1269.89 400.373 1268.98 400.373 1267.98C400.373 1267.01 400.577 1266.12 400.983 1265.32C401.397 1264.53 401.963 1263.9 402.682 1263.45C403.409 1263 404.213 1262.77 405.096 1262.77C406.455 1262.77 407.463 1263.27 408.12 1264.28V1263.06H410.241V1273H408.12V1271.79ZM405.412 1264.64C404.803 1264.64 404.276 1264.8 403.83 1265.12C403.393 1265.45 403.061 1265.87 402.834 1266.4C402.616 1266.93 402.506 1267.49 402.506 1268.08C402.506 1268.66 402.616 1269.21 402.834 1269.73C403.061 1270.25 403.393 1270.68 403.83 1271.01C404.276 1271.33 404.803 1271.49 405.412 1271.49C406.014 1271.49 406.53 1271.33 406.959 1271.01C407.389 1270.68 407.713 1270.25 407.932 1269.72C408.159 1269.19 408.272 1268.62 408.272 1268.03C408.272 1267.45 408.166 1266.9 407.955 1266.38C407.729 1265.86 407.401 1265.45 406.971 1265.12C406.541 1264.8 406.022 1264.64 405.412 1264.64ZM412.027 1273.06L415.519 1262.28L419.28 1269.45L423.616 1262.28L426.968 1273.06H424.671L422.726 1266.47L419.187 1273.41L416.222 1266.45L414.347 1273.06H412.027ZM435.996 1273.06V1266.8L428.484 1273.41V1263.09H430.723V1269.31L438.234 1262.59V1273.06H435.996ZM72.7383 1292.35H74.5078C76.0547 1292.22 76.8281 1291.71 76.8281 1290.82C76.8281 1290.36 76.6211 1290 76.207 1289.74C75.8008 1289.47 75.2539 1289.34 74.5664 1289.34C73.4648 1289.31 72.2266 1289.37 70.8516 1289.53V1288.34C72.4844 1288.06 73.7227 1287.94 74.5664 1287.98C75.4102 1288.01 76.1484 1288.14 76.7812 1288.36C77.4141 1288.57 77.8984 1288.89 78.2344 1289.3C78.5781 1289.71 78.75 1290.19 78.75 1290.73C78.75 1291.33 78.5703 1291.8 78.2109 1292.14C77.8516 1292.48 77.2812 1292.73 76.5 1292.87C78.3047 1293.08 79.207 1293.89 79.207 1295.29C79.207 1295.91 78.9805 1296.45 78.5273 1296.9C78.0742 1297.36 77.4805 1297.71 76.7461 1297.96C76.0117 1298.21 75.2383 1298.34 74.4258 1298.35C73.6133 1298.38 72.8203 1298.32 72.0469 1298.18C71.2812 1298.04 70.832 1297.97 70.6992 1297.96V1296.68C72.5352 1296.93 73.8242 1297.06 74.5664 1297.06C75.3633 1297.06 76.0078 1296.91 76.5 1296.59C76.9922 1296.28 77.2383 1295.86 77.2383 1295.33C77.2383 1294.27 76.3672 1293.68 74.625 1293.54H72.7383V1292.35ZM87.7547 1293.72H83.243V1298H81.1453V1288.1H83.2313V1291.84H87.7547V1288.1H89.8406L89.8523 1298H87.7547V1293.72ZM99.6539 1296.79C99.3258 1297.27 98.8844 1297.64 98.3297 1297.91C97.775 1298.16 97.1617 1298.29 96.4898 1298.29C95.6305 1298.29 94.8492 1298.06 94.1461 1297.6C93.4508 1297.14 92.9039 1296.51 92.5055 1295.7C92.107 1294.89 91.9078 1293.98 91.9078 1292.98C91.9078 1292.01 92.1109 1291.12 92.5172 1290.32C92.9313 1289.53 93.4977 1288.9 94.2164 1288.45C94.943 1288 95.7477 1287.77 96.6305 1287.77C97.9898 1287.77 98.9977 1288.27 99.6539 1289.28V1288.06H101.775V1298H99.6539V1296.79ZM96.9469 1289.64C96.3375 1289.64 95.8102 1289.8 95.3648 1290.12C94.9273 1290.45 94.5953 1290.87 94.3688 1291.4C94.15 1291.93 94.0406 1292.49 94.0406 1293.08C94.0406 1293.66 94.15 1294.21 94.3688 1294.73C94.5953 1295.25 94.9273 1295.68 95.3648 1296.01C95.8102 1296.33 96.3375 1296.49 96.9469 1296.49C97.5484 1296.49 98.0641 1296.33 98.4938 1296.01C98.9234 1295.68 99.2477 1295.25 99.4664 1294.72C99.693 1294.19 99.8063 1293.62 99.8063 1293.03C99.8063 1292.45 99.7008 1291.9 99.4898 1291.38C99.2633 1290.86 98.9352 1290.45 98.5055 1290.12C98.0758 1289.8 97.5563 1289.64 96.9469 1289.64ZM106.198 1288.06V1291.68L109.643 1288.06H112.432L107.897 1292.48L112.819 1298H109.959L106.198 1293.46V1298H104.077V1288.06H106.198ZM119.363 1287.72C120.386 1287.72 121.304 1287.95 122.116 1288.4C122.929 1288.86 123.562 1289.49 124.015 1290.31C124.468 1291.12 124.695 1292.05 124.695 1293.08C124.695 1294.09 124.468 1295 124.015 1295.81C123.562 1296.61 122.925 1297.24 122.105 1297.68C121.284 1298.12 120.355 1298.34 119.316 1298.34C118.3 1298.34 117.394 1298.11 116.597 1297.65C115.8 1297.2 115.179 1296.57 114.734 1295.76C114.296 1294.94 114.077 1294.02 114.077 1292.98C114.077 1291.98 114.3 1291.07 114.745 1290.28C115.191 1289.47 115.816 1288.85 116.62 1288.4C117.425 1287.95 118.339 1287.72 119.363 1287.72ZM119.386 1289.64C118.73 1289.64 118.167 1289.81 117.698 1290.14C117.23 1290.46 116.878 1290.88 116.644 1291.39C116.409 1291.91 116.292 1292.46 116.292 1293.05C116.292 1293.64 116.409 1294.19 116.644 1294.71C116.878 1295.21 117.23 1295.63 117.698 1295.96C118.167 1296.28 118.73 1296.44 119.386 1296.44C120.034 1296.44 120.585 1296.28 121.038 1295.96C121.499 1295.64 121.843 1295.22 122.07 1294.7C122.304 1294.17 122.421 1293.62 122.421 1293.05C122.421 1292.47 122.304 1291.91 122.07 1291.39C121.843 1290.87 121.499 1290.45 121.038 1290.12C120.577 1289.8 120.027 1289.64 119.386 1289.64ZM125.93 1298.06L129.422 1287.28L133.184 1294.45L137.52 1287.28L140.871 1298.06H138.574L136.629 1291.47L133.09 1298.41L130.125 1291.45L128.25 1298.06H125.93ZM150.45 1297.5C149.302 1298.06 148.192 1298.34 147.122 1298.34C146.184 1298.34 145.341 1298.12 144.591 1297.67C143.841 1297.22 143.255 1296.6 142.833 1295.81C142.403 1295.01 142.188 1294.12 142.188 1293.12C142.188 1292.34 142.337 1291.61 142.634 1290.95C142.938 1290.28 143.345 1289.71 143.852 1289.23C144.368 1288.75 144.95 1288.38 145.598 1288.13C146.255 1287.88 146.93 1287.75 147.626 1287.75C148.657 1287.75 149.598 1288.01 150.45 1288.54V1291.04C149.645 1290.2 148.684 1289.79 147.567 1289.79C146.7 1289.79 145.958 1290.07 145.341 1290.63C144.731 1291.19 144.427 1291.98 144.427 1292.98C144.427 1293.66 144.548 1294.25 144.79 1294.75C145.032 1295.25 145.384 1295.64 145.845 1295.9C146.298 1296.16 146.833 1296.29 147.45 1296.29C148.497 1296.29 149.497 1295.85 150.45 1294.98V1297.5ZM152.353 1288.07H159.935L159.97 1289.84H157.24V1298H155.084V1289.84H152.318L152.353 1288.07ZM161.967 1298V1288.07H165.459C166.498 1288.07 167.311 1288.3 167.897 1288.74C168.483 1289.19 168.776 1289.8 168.776 1290.57C168.776 1291.11 168.604 1291.57 168.26 1291.95C167.924 1292.33 167.467 1292.56 166.889 1292.66C167.78 1292.71 168.479 1292.99 168.987 1293.49C169.495 1293.99 169.748 1294.57 169.748 1295.23C169.748 1295.54 169.69 1295.84 169.573 1296.12C169.463 1296.41 169.287 1296.69 169.045 1296.95C168.803 1297.2 168.518 1297.4 168.19 1297.55C167.604 1297.85 166.764 1298 165.67 1298H161.967ZM163.971 1296.73H165.506C166.889 1296.81 167.58 1296.29 167.58 1295.15C167.58 1294.01 166.862 1293.44 165.424 1293.44H163.971V1296.73ZM163.971 1291.96H164.909C165.487 1291.96 165.944 1291.84 166.28 1291.6C166.6 1291.37 166.76 1291.04 166.76 1290.62C166.76 1290.26 166.592 1289.96 166.256 1289.73C165.92 1289.49 165.522 1289.38 165.061 1289.38H163.971V1291.96ZM181.109 1295.46C179.945 1297.41 178.351 1298.39 176.327 1298.39C175.585 1298.39 174.913 1298.27 174.312 1298.02C173.702 1297.77 173.179 1297.41 172.741 1296.95C172.312 1296.48 171.98 1295.92 171.745 1295.27C171.519 1294.61 171.405 1293.9 171.405 1293.12C171.405 1292.33 171.519 1291.59 171.745 1290.92C171.98 1290.24 172.308 1289.67 172.73 1289.2C173.159 1288.72 173.671 1288.36 174.265 1288.11C174.859 1287.85 175.515 1287.72 176.234 1287.72C177.038 1287.72 177.769 1287.89 178.425 1288.21C179.081 1288.54 179.624 1289 180.054 1289.6C180.398 1290.04 180.64 1290.54 180.78 1291.1C180.921 1291.65 181.015 1292.43 181.062 1293.42H173.573C173.597 1294.03 173.73 1294.57 173.972 1295.04C174.222 1295.5 174.554 1295.86 174.968 1296.11C175.39 1296.36 175.874 1296.49 176.421 1296.49C177.632 1296.49 178.624 1295.77 179.398 1294.34L181.109 1295.46ZM173.761 1291.79H178.812C178.687 1291.08 178.413 1290.54 177.991 1290.16C177.57 1289.79 177.03 1289.6 176.374 1289.6C174.945 1289.6 174.073 1290.33 173.761 1291.79ZM196.516 1298.06V1291.8L189.005 1298.41V1288.09H191.243V1294.31L198.755 1287.59V1298.06H196.516ZM214.069 1290.01H209.557V1298H207.459V1288.1H216.155L216.166 1298H214.069V1290.01ZM225.968 1296.79C225.64 1297.27 225.198 1297.64 224.644 1297.91C224.089 1298.16 223.476 1298.29 222.804 1298.29C221.945 1298.29 221.163 1298.06 220.46 1297.6C219.765 1297.14 219.218 1296.51 218.82 1295.7C218.421 1294.89 218.222 1293.98 218.222 1292.98C218.222 1292.01 218.425 1291.12 218.831 1290.32C219.245 1289.53 219.812 1288.9 220.53 1288.45C221.257 1288 222.062 1287.77 222.945 1287.77C224.304 1287.77 225.312 1288.27 225.968 1289.28V1288.06H228.089V1298H225.968V1296.79ZM223.261 1289.64C222.652 1289.64 222.124 1289.8 221.679 1290.12C221.241 1290.45 220.909 1290.87 220.683 1291.4C220.464 1291.93 220.355 1292.49 220.355 1293.08C220.355 1293.66 220.464 1294.21 220.683 1294.73C220.909 1295.25 221.241 1295.68 221.679 1296.01C222.124 1296.33 222.652 1296.49 223.261 1296.49C223.863 1296.49 224.378 1296.33 224.808 1296.01C225.238 1295.68 225.562 1295.25 225.78 1294.72C226.007 1294.19 226.12 1293.62 226.12 1293.03C226.12 1292.45 226.015 1291.9 225.804 1291.38C225.577 1290.86 225.249 1290.45 224.82 1290.12C224.39 1289.8 223.87 1289.64 223.261 1289.64ZM229.875 1298.06L233.367 1287.28L237.129 1294.45L241.465 1287.28L244.816 1298.06H242.52L240.574 1291.47L237.035 1298.41L234.07 1291.45L232.195 1298.06H229.875ZM252.907 1298V1293.72L248.688 1298H245.934L250.809 1293.63C250.473 1293.61 250.04 1293.54 249.509 1293.41C248.977 1293.27 248.524 1293.09 248.149 1292.84C247.774 1292.59 247.485 1292.3 247.282 1291.96C247.087 1291.62 246.989 1291.24 246.989 1290.82C246.989 1289.93 247.434 1289.26 248.325 1288.79C249.223 1288.31 250.368 1288.07 251.759 1288.07H255.145V1298H252.907ZM252.907 1289.4H252.216C251.169 1289.4 250.407 1289.53 249.93 1289.79C249.462 1290.04 249.227 1290.43 249.227 1290.93C249.227 1291.41 249.473 1291.8 249.966 1292.12C250.466 1292.42 251.169 1292.57 252.075 1292.57H252.907V1289.4ZM257.259 1288.07H264.841L264.877 1289.84H262.146V1298H259.99V1289.84H257.224L257.259 1288.07ZM273.577 1293.72H269.065V1298H266.967V1288.1H269.053V1291.84H273.577V1288.1H275.663L275.674 1298H273.577V1293.72ZM280.155 1288.07V1292.22H281.374C282.218 1292.22 282.925 1292.38 283.495 1292.68C284.066 1292.93 284.503 1293.28 284.808 1293.72C285.12 1294.16 285.277 1294.66 285.277 1295.21C285.277 1295.77 285.116 1296.27 284.796 1296.69C284.484 1297.1 284.034 1297.43 283.448 1297.66C282.87 1297.89 282.198 1298 281.433 1298H277.941V1288.07H280.155ZM280.155 1296.63H281.163C281.499 1296.63 281.894 1296.5 282.347 1296.25C282.784 1296 283.003 1295.65 283.003 1295.19C283.003 1294.19 282.39 1293.69 281.163 1293.69H280.155V1296.63ZM285.78 1298H287.878L287.866 1288.06H285.78V1298ZM289.594 1298L293.555 1292.69L290.121 1288.06H292.605L295.008 1291.18L297.234 1288.06H299.777L296.297 1292.69L300.211 1298H297.738L294.902 1294.25L292.137 1298H289.594ZM307.603 1298.06L311.095 1287.28L314.857 1294.45L319.193 1287.28L322.545 1298.06H320.248L318.302 1291.47L314.763 1298.41L311.798 1291.45L309.923 1298.06H307.603ZM329.006 1287.72C330.03 1287.72 330.948 1287.95 331.76 1288.4C332.573 1288.86 333.205 1289.49 333.659 1290.31C334.112 1291.12 334.338 1292.05 334.338 1293.08C334.338 1294.09 334.112 1295 333.659 1295.81C333.205 1296.61 332.569 1297.24 331.748 1297.68C330.928 1298.12 329.998 1298.34 328.959 1298.34C327.944 1298.34 327.038 1298.11 326.241 1297.65C325.444 1297.2 324.823 1296.57 324.377 1295.76C323.94 1294.94 323.721 1294.02 323.721 1292.98C323.721 1291.98 323.944 1291.07 324.389 1290.28C324.834 1289.47 325.459 1288.85 326.264 1288.4C327.069 1287.95 327.983 1287.72 329.006 1287.72ZM329.03 1289.64C328.373 1289.64 327.811 1289.81 327.342 1290.14C326.873 1290.46 326.522 1290.88 326.288 1291.39C326.053 1291.91 325.936 1292.46 325.936 1293.05C325.936 1293.64 326.053 1294.19 326.288 1294.71C326.522 1295.21 326.873 1295.63 327.342 1295.96C327.811 1296.28 328.373 1296.44 329.03 1296.44C329.678 1296.44 330.229 1296.28 330.682 1295.96C331.143 1295.64 331.487 1295.22 331.713 1294.7C331.948 1294.17 332.065 1293.62 332.065 1293.05C332.065 1292.47 331.948 1291.91 331.713 1291.39C331.487 1290.87 331.143 1290.45 330.682 1290.12C330.221 1289.8 329.67 1289.64 329.03 1289.64ZM335.573 1298.06L339.066 1287.28L342.827 1294.45L347.163 1287.28L350.515 1298.06H348.218L346.273 1291.47L342.734 1298.41L339.769 1291.45L337.894 1298.06H335.573ZM361.348 1295.46C360.184 1297.41 358.59 1298.39 356.566 1298.39C355.824 1298.39 355.152 1298.27 354.551 1298.02C353.941 1297.77 353.418 1297.41 352.98 1296.95C352.551 1296.48 352.219 1295.92 351.984 1295.27C351.758 1294.61 351.645 1293.9 351.645 1293.12C351.645 1292.33 351.758 1291.59 351.984 1290.92C352.219 1290.24 352.547 1289.67 352.969 1289.2C353.398 1288.72 353.91 1288.36 354.504 1288.11C355.098 1287.85 355.754 1287.72 356.473 1287.72C357.277 1287.72 358.008 1287.89 358.664 1288.21C359.32 1288.54 359.863 1289 360.293 1289.6C360.637 1290.04 360.879 1290.54 361.02 1291.1C361.16 1291.65 361.254 1292.43 361.301 1293.42H353.812C353.836 1294.03 353.969 1294.57 354.211 1295.04C354.461 1295.5 354.793 1295.86 355.207 1296.11C355.629 1296.36 356.113 1296.49 356.66 1296.49C357.871 1296.49 358.863 1295.77 359.637 1294.34L361.348 1295.46ZM354 1291.79H359.051C358.926 1291.08 358.652 1290.54 358.23 1290.16C357.809 1289.79 357.27 1289.6 356.613 1289.6C355.184 1289.6 354.312 1290.33 354 1291.79ZM369.591 1293.72H365.079V1298H362.981V1288.1H365.067V1291.84H369.591V1288.1H371.677L371.688 1298H369.591V1293.72ZM374.002 1288.07H381.584L381.619 1289.84H378.888V1298H376.732V1289.84H373.966L374.002 1288.07ZM391.268 1296.79C390.94 1297.27 390.498 1297.64 389.944 1297.91C389.389 1298.16 388.776 1298.29 388.104 1298.29C387.245 1298.29 386.463 1298.06 385.76 1297.6C385.065 1297.14 384.518 1296.51 384.12 1295.7C383.721 1294.89 383.522 1293.98 383.522 1292.98C383.522 1292.01 383.725 1291.12 384.131 1290.32C384.545 1289.53 385.112 1288.9 385.83 1288.45C386.557 1288 387.362 1287.77 388.245 1287.77C389.604 1287.77 390.612 1288.27 391.268 1289.28V1288.06H393.389V1298H391.268V1296.79ZM388.561 1289.64C387.952 1289.64 387.424 1289.8 386.979 1290.12C386.541 1290.45 386.209 1290.87 385.983 1291.4C385.764 1291.93 385.655 1292.49 385.655 1293.08C385.655 1293.66 385.764 1294.21 385.983 1294.73C386.209 1295.25 386.541 1295.68 386.979 1296.01C387.424 1296.33 387.952 1296.49 388.561 1296.49C389.163 1296.49 389.678 1296.33 390.108 1296.01C390.538 1295.68 390.862 1295.25 391.08 1294.72C391.307 1294.19 391.42 1293.62 391.42 1293.03C391.42 1292.45 391.315 1291.9 391.104 1291.38C390.877 1290.86 390.549 1290.45 390.12 1290.12C389.69 1289.8 389.17 1289.64 388.561 1289.64ZM394.941 1298L398.902 1292.69L395.468 1288.06H397.952L400.355 1291.18L402.581 1288.06H405.124L401.644 1292.69L405.558 1298H403.085L400.249 1294.25L397.484 1298H394.941ZM405.398 1300.84L407.707 1295.3L409.781 1296.05L406.945 1301.46L405.398 1300.84ZM68.5266 1321.79C68.1984 1322.27 67.757 1322.64 67.2023 1322.91C66.6477 1323.16 66.0344 1323.29 65.3625 1323.29C64.5031 1323.29 63.7219 1323.06 63.0188 1322.6C62.3234 1322.14 61.7766 1321.51 61.3781 1320.7C60.9797 1319.89 60.7805 1318.98 60.7805 1317.98C60.7805 1317.01 60.9836 1316.12 61.3898 1315.32C61.8039 1314.53 62.3703 1313.9 63.0891 1313.45C63.8156 1313 64.6203 1312.77 65.5031 1312.77C66.8625 1312.77 67.8703 1313.27 68.5266 1314.28V1313.06H70.6477V1323H68.5266V1321.79ZM65.8195 1314.64C65.2102 1314.64 64.6828 1314.8 64.2375 1315.12C63.8 1315.45 63.468 1315.87 63.2414 1316.4C63.0227 1316.93 62.9133 1317.49 62.9133 1318.08C62.9133 1318.66 63.0227 1319.21 63.2414 1319.73C63.468 1320.25 63.8 1320.68 64.2375 1321.01C64.6828 1321.33 65.2102 1321.49 65.8195 1321.49C66.4211 1321.49 66.9367 1321.33 67.3664 1321.01C67.7961 1320.68 68.1203 1320.25 68.3391 1319.72C68.5656 1319.19 68.6789 1318.62 68.6789 1318.03C68.6789 1317.45 68.5734 1316.9 68.3625 1316.38C68.1359 1315.86 67.8078 1315.45 67.3781 1315.12C66.9484 1314.8 66.4289 1314.64 65.8195 1314.64ZM79.2586 1313.07H86.8406L86.8758 1314.84H84.1453V1323H81.9891V1314.84H79.2234L79.2586 1313.07ZM96.525 1321.79C96.1969 1322.27 95.7555 1322.64 95.2008 1322.91C94.6461 1323.16 94.0328 1323.29 93.3609 1323.29C92.5016 1323.29 91.7203 1323.06 91.0172 1322.6C90.3219 1322.14 89.775 1321.51 89.3766 1320.7C88.9781 1319.89 88.7789 1318.98 88.7789 1317.98C88.7789 1317.01 88.982 1316.12 89.3883 1315.32C89.8023 1314.53 90.3688 1313.9 91.0875 1313.45C91.8141 1313 92.6188 1312.77 93.5016 1312.77C94.8609 1312.77 95.8688 1313.27 96.525 1314.28V1313.06H98.6461V1323H96.525V1321.79ZM93.818 1314.64C93.2086 1314.64 92.6813 1314.8 92.2359 1315.12C91.7984 1315.45 91.4664 1315.87 91.2398 1316.4C91.0211 1316.93 90.9117 1317.49 90.9117 1318.08C90.9117 1318.66 91.0211 1319.21 91.2398 1319.73C91.4664 1320.25 91.7984 1320.68 92.2359 1321.01C92.6813 1321.33 93.2086 1321.49 93.818 1321.49C94.4195 1321.49 94.9352 1321.33 95.3648 1321.01C95.7945 1320.68 96.1188 1320.25 96.3375 1319.72C96.5641 1319.19 96.6773 1318.62 96.6773 1318.03C96.6773 1317.45 96.5719 1316.9 96.3609 1316.38C96.1344 1315.86 95.8063 1315.45 95.3766 1315.12C94.9469 1314.8 94.4273 1314.64 93.818 1314.64ZM103.069 1313.06V1316.68L106.514 1313.06H109.303L104.768 1317.48L109.69 1323H106.83L103.069 1318.46V1323H100.948V1313.06H103.069ZM119.878 1313.06V1316.68L123.323 1313.06H126.113L121.577 1317.48L126.499 1323H123.64L119.878 1318.46V1323H117.698V1318.46L113.937 1323H111.077L115.999 1317.48L111.464 1313.06H114.253L117.698 1316.68V1313.06H119.878ZM137.414 1320.46C136.25 1322.41 134.656 1323.39 132.633 1323.39C131.891 1323.39 131.219 1323.27 130.617 1323.02C130.008 1322.77 129.484 1322.41 129.047 1321.95C128.617 1321.48 128.285 1320.92 128.051 1320.27C127.824 1319.61 127.711 1318.9 127.711 1318.12C127.711 1317.33 127.824 1316.59 128.051 1315.92C128.285 1315.24 128.613 1314.67 129.035 1314.2C129.465 1313.72 129.977 1313.36 130.57 1313.11C131.164 1312.85 131.82 1312.72 132.539 1312.72C133.344 1312.72 134.074 1312.89 134.73 1313.21C135.387 1313.54 135.93 1314 136.359 1314.6C136.703 1315.04 136.945 1315.54 137.086 1316.1C137.227 1316.65 137.32 1317.43 137.367 1318.42H129.879C129.902 1319.03 130.035 1319.57 130.277 1320.04C130.527 1320.5 130.859 1320.86 131.273 1321.11C131.695 1321.36 132.18 1321.49 132.727 1321.49C133.938 1321.49 134.93 1320.77 135.703 1319.34L137.414 1320.46ZM130.066 1316.79H135.117C134.992 1316.08 134.719 1315.54 134.297 1315.16C133.875 1314.79 133.336 1314.6 132.68 1314.6C131.25 1314.6 130.379 1315.33 130.066 1316.79ZM145.263 1323V1313.07H148.755C149.795 1313.07 150.607 1313.3 151.193 1313.74C151.779 1314.19 152.072 1314.8 152.072 1315.57C152.072 1316.11 151.9 1316.57 151.556 1316.95C151.22 1317.33 150.763 1317.56 150.185 1317.66C151.076 1317.71 151.775 1317.99 152.283 1318.49C152.791 1318.99 153.045 1319.57 153.045 1320.23C153.045 1320.54 152.986 1320.84 152.869 1321.12C152.759 1321.41 152.584 1321.69 152.341 1321.95C152.099 1322.2 151.814 1322.4 151.486 1322.55C150.9 1322.85 150.06 1323 148.966 1323H145.263ZM147.267 1321.73H148.802C150.185 1321.81 150.877 1321.29 150.877 1320.15C150.877 1319.01 150.158 1318.44 148.72 1318.44H147.267V1321.73ZM147.267 1316.96H148.205C148.783 1316.96 149.24 1316.84 149.576 1316.6C149.896 1316.37 150.056 1316.04 150.056 1315.62C150.056 1315.26 149.888 1314.96 149.552 1314.73C149.216 1314.49 148.818 1314.38 148.357 1314.38H147.267V1316.96ZM160.034 1312.72C161.057 1312.72 161.975 1312.95 162.788 1313.4C163.6 1313.86 164.233 1314.49 164.686 1315.31C165.139 1316.12 165.366 1317.05 165.366 1318.08C165.366 1319.09 165.139 1320 164.686 1320.81C164.233 1321.61 163.596 1322.24 162.776 1322.68C161.955 1323.12 161.026 1323.34 159.987 1323.34C158.971 1323.34 158.065 1323.11 157.268 1322.65C156.471 1322.2 155.85 1321.57 155.405 1320.76C154.967 1319.94 154.748 1319.02 154.748 1317.98C154.748 1316.98 154.971 1316.07 155.416 1315.28C155.862 1314.47 156.487 1313.85 157.291 1313.4C158.096 1312.95 159.01 1312.72 160.034 1312.72ZM160.057 1314.64C159.401 1314.64 158.838 1314.81 158.37 1315.14C157.901 1315.46 157.549 1315.88 157.315 1316.39C157.08 1316.91 156.963 1317.46 156.963 1318.05C156.963 1318.64 157.08 1319.19 157.315 1319.71C157.549 1320.21 157.901 1320.63 158.37 1320.96C158.838 1321.28 159.401 1321.44 160.057 1321.44C160.705 1321.44 161.256 1321.28 161.709 1320.96C162.17 1320.64 162.514 1320.22 162.741 1319.7C162.975 1319.17 163.092 1318.62 163.092 1318.05C163.092 1317.47 162.975 1316.91 162.741 1316.39C162.514 1315.87 162.17 1315.45 161.709 1315.12C161.248 1314.8 160.698 1314.64 160.057 1314.64ZM175.062 1322.5C173.913 1323.06 172.804 1323.34 171.734 1323.34C170.796 1323.34 169.952 1323.12 169.202 1322.67C168.452 1322.22 167.866 1321.6 167.445 1320.81C167.015 1320.01 166.8 1319.12 166.8 1318.12C166.8 1317.34 166.948 1316.61 167.245 1315.95C167.55 1315.28 167.956 1314.71 168.464 1314.23C168.98 1313.75 169.562 1313.38 170.21 1313.13C170.866 1312.88 171.542 1312.75 172.238 1312.75C173.269 1312.75 174.21 1313.01 175.062 1313.54V1316.04C174.257 1315.2 173.296 1314.79 172.179 1314.79C171.312 1314.79 170.57 1315.07 169.952 1315.63C169.343 1316.19 169.038 1316.98 169.038 1317.98C169.038 1318.66 169.159 1319.25 169.402 1319.75C169.644 1320.25 169.995 1320.64 170.456 1320.9C170.909 1321.16 171.445 1321.29 172.062 1321.29C173.109 1321.29 174.109 1320.85 175.062 1319.98V1322.5ZM183.504 1315.01H178.992V1323H176.895V1313.1H185.59L185.602 1323H183.504V1315.01ZM192.743 1312.72C193.766 1312.72 194.684 1312.95 195.497 1313.4C196.309 1313.86 196.942 1314.49 197.395 1315.31C197.848 1316.12 198.075 1317.05 198.075 1318.08C198.075 1319.09 197.848 1320 197.395 1320.81C196.942 1321.61 196.305 1322.24 195.485 1322.68C194.665 1323.12 193.735 1323.34 192.696 1323.34C191.68 1323.34 190.774 1323.11 189.977 1322.65C189.18 1322.2 188.559 1321.57 188.114 1320.76C187.677 1319.94 187.458 1319.02 187.458 1317.98C187.458 1316.98 187.68 1316.07 188.126 1315.28C188.571 1314.47 189.196 1313.85 190.001 1313.4C190.805 1312.95 191.72 1312.72 192.743 1312.72ZM192.766 1314.64C192.11 1314.64 191.548 1314.81 191.079 1315.14C190.61 1315.46 190.259 1315.88 190.024 1316.39C189.79 1316.91 189.673 1317.46 189.673 1318.05C189.673 1318.64 189.79 1319.19 190.024 1319.71C190.259 1320.21 190.61 1320.63 191.079 1320.96C191.548 1321.28 192.11 1321.44 192.766 1321.44C193.415 1321.44 193.966 1321.28 194.419 1320.96C194.88 1320.64 195.223 1320.22 195.45 1319.7C195.684 1319.17 195.802 1318.62 195.802 1318.05C195.802 1317.47 195.684 1316.91 195.45 1316.39C195.223 1315.87 194.88 1315.45 194.419 1315.12C193.958 1314.8 193.407 1314.64 192.766 1314.64ZM207.197 1315.04H203.892V1318.68C203.892 1319.3 203.826 1319.89 203.693 1320.46C203.552 1321.01 203.334 1321.51 203.037 1321.96C202.74 1322.4 202.353 1322.75 201.877 1323.01C201.4 1323.26 200.841 1323.39 200.201 1323.39C200.052 1323.39 199.908 1323.38 199.767 1323.36V1321.27C199.861 1321.28 199.959 1321.29 200.06 1321.29C200.63 1321.29 201.033 1321.1 201.267 1320.73C201.502 1320.34 201.619 1319.71 201.619 1318.82L201.607 1313.09H209.459V1323H207.197V1315.04ZM214.186 1313.07V1317.22H215.405C216.248 1317.22 216.955 1317.38 217.526 1317.68C218.096 1317.93 218.534 1318.28 218.838 1318.72C219.151 1319.16 219.307 1319.66 219.307 1320.21C219.307 1320.77 219.147 1321.27 218.827 1321.69C218.514 1322.1 218.065 1322.43 217.479 1322.66C216.901 1322.89 216.229 1323 215.463 1323H211.971V1313.07H214.186ZM214.186 1321.63H215.194C215.53 1321.63 215.924 1321.5 216.377 1321.25C216.815 1321 217.034 1320.65 217.034 1320.19C217.034 1319.19 216.42 1318.69 215.194 1318.69H214.186V1321.63ZM223.284 1317.35H225.054C226.601 1317.22 227.374 1316.71 227.374 1315.82C227.374 1315.36 227.167 1315 226.753 1314.74C226.347 1314.47 225.8 1314.34 225.113 1314.34C224.011 1314.31 222.773 1314.37 221.398 1314.53V1313.34C223.03 1313.06 224.269 1312.94 225.113 1312.98C225.956 1313.01 226.695 1313.14 227.327 1313.36C227.96 1313.57 228.445 1313.89 228.78 1314.3C229.124 1314.71 229.296 1315.19 229.296 1315.73C229.296 1316.33 229.116 1316.8 228.757 1317.14C228.398 1317.48 227.827 1317.73 227.046 1317.87C228.851 1318.08 229.753 1318.89 229.753 1320.29C229.753 1320.91 229.527 1321.45 229.073 1321.9C228.62 1322.36 228.027 1322.71 227.292 1322.96C226.558 1323.21 225.784 1323.34 224.972 1323.35C224.159 1323.38 223.366 1323.32 222.593 1323.18C221.827 1323.04 221.378 1322.97 221.245 1322.96V1321.68C223.081 1321.93 224.37 1322.06 225.113 1322.06C225.909 1322.06 226.554 1321.91 227.046 1321.59C227.538 1321.28 227.784 1320.86 227.784 1320.33C227.784 1319.27 226.913 1318.68 225.171 1318.54H223.284V1317.35ZM231.211 1313.06H233.73L236.754 1318.77L239.496 1313.06H241.875L234.621 1327.73H232.312L235.652 1321.05L231.211 1313.06ZM251.067 1323.06V1316.8L243.555 1323.41V1313.09H245.794V1319.31L253.305 1312.59V1323.06H251.067ZM245.477 1309.83C246.235 1311.85 247.321 1312.88 248.735 1312.91C250.157 1312.93 251.188 1311.91 251.829 1309.83H250.001C250.055 1310.85 249.665 1311.54 248.829 1311.9C248.001 1311.46 247.552 1310.77 247.481 1309.83H245.477ZM255.771 1313.07H263.353L263.388 1314.84H260.658V1323H258.502V1314.84H255.736L255.771 1313.07ZM274.748 1320.46C273.584 1322.41 271.991 1323.39 269.967 1323.39C269.225 1323.39 268.553 1323.27 267.952 1323.02C267.342 1322.77 266.819 1322.41 266.381 1321.95C265.952 1321.48 265.62 1320.92 265.385 1320.27C265.159 1319.61 265.045 1318.9 265.045 1318.12C265.045 1317.33 265.159 1316.59 265.385 1315.92C265.62 1315.24 265.948 1314.67 266.37 1314.2C266.799 1313.72 267.311 1313.36 267.905 1313.11C268.498 1312.85 269.155 1312.72 269.873 1312.72C270.678 1312.72 271.409 1312.89 272.065 1313.21C272.721 1313.54 273.264 1314 273.694 1314.6C274.038 1315.04 274.28 1315.54 274.42 1316.1C274.561 1316.65 274.655 1317.43 274.702 1318.42H267.213C267.237 1319.03 267.37 1319.57 267.612 1320.04C267.862 1320.5 268.194 1320.86 268.608 1321.11C269.03 1321.36 269.514 1321.49 270.061 1321.49C271.272 1321.49 272.264 1320.77 273.038 1319.34L274.748 1320.46ZM267.401 1316.79H272.452C272.327 1316.08 272.053 1315.54 271.631 1315.16C271.209 1314.79 270.67 1314.6 270.014 1314.6C268.584 1314.6 267.713 1315.33 267.401 1316.79ZM284.398 1322.5C283.249 1323.06 282.14 1323.34 281.07 1323.34C280.132 1323.34 279.288 1323.12 278.538 1322.67C277.788 1322.22 277.202 1321.6 276.78 1320.81C276.351 1320.01 276.136 1319.12 276.136 1318.12C276.136 1317.34 276.284 1316.61 276.581 1315.95C276.886 1315.28 277.292 1314.71 277.8 1314.23C278.316 1313.75 278.898 1313.38 279.546 1313.13C280.202 1312.88 280.878 1312.75 281.573 1312.75C282.605 1312.75 283.546 1313.01 284.398 1313.54V1316.04C283.593 1315.2 282.632 1314.79 281.515 1314.79C280.648 1314.79 279.905 1315.07 279.288 1315.63C278.679 1316.19 278.374 1316.98 278.374 1317.98C278.374 1318.66 278.495 1319.25 278.738 1319.75C278.98 1320.25 279.331 1320.64 279.792 1320.9C280.245 1321.16 280.78 1321.29 281.398 1321.29C282.445 1321.29 283.445 1320.85 284.398 1319.98V1322.5ZM288.469 1313.07V1317.22H289.688C290.531 1317.22 291.238 1317.38 291.809 1317.68C292.379 1317.93 292.816 1318.28 293.121 1318.72C293.434 1319.16 293.59 1319.66 293.59 1320.21C293.59 1320.77 293.43 1321.27 293.109 1321.69C292.797 1322.1 292.348 1322.43 291.762 1322.66C291.184 1322.89 290.512 1323 289.746 1323H286.254V1313.07H288.469ZM288.469 1321.63H289.477C289.812 1321.63 290.207 1321.5 290.66 1321.25C291.098 1321 291.316 1320.65 291.316 1320.19C291.316 1319.19 290.703 1318.69 289.477 1318.69H288.469V1321.63ZM317.283 1323H301.99V1313.1H304.088V1321.09H308.588V1313.1H310.697L310.685 1321.09H315.197V1313.1H317.295L317.283 1323ZM326.065 1315.01H321.553V1323H319.455V1313.1H328.151L328.162 1323H326.065V1315.01ZM337.964 1321.79C337.636 1322.27 337.195 1322.64 336.64 1322.91C336.085 1323.16 335.472 1323.29 334.8 1323.29C333.941 1323.29 333.159 1323.06 332.456 1322.6C331.761 1322.14 331.214 1321.51 330.816 1320.7C330.417 1319.89 330.218 1318.98 330.218 1317.98C330.218 1317.01 330.421 1316.12 330.827 1315.32C331.241 1314.53 331.808 1313.9 332.527 1313.45C333.253 1313 334.058 1312.77 334.941 1312.77C336.3 1312.77 337.308 1313.27 337.964 1314.28V1313.06H340.085V1323H337.964V1321.79ZM335.257 1314.64C334.648 1314.64 334.12 1314.8 333.675 1315.12C333.237 1315.45 332.905 1315.87 332.679 1316.4C332.46 1316.93 332.351 1317.49 332.351 1318.08C332.351 1318.66 332.46 1319.21 332.679 1319.73C332.905 1320.25 333.237 1320.68 333.675 1321.01C334.12 1321.33 334.648 1321.49 335.257 1321.49C335.859 1321.49 336.374 1321.33 336.804 1321.01C337.234 1320.68 337.558 1320.25 337.777 1319.72C338.003 1319.19 338.116 1318.62 338.116 1318.03C338.116 1317.45 338.011 1316.9 337.8 1316.38C337.573 1315.86 337.245 1315.45 336.816 1315.12C336.386 1314.8 335.866 1314.64 335.257 1314.64ZM347.285 1314.64C346.371 1314.64 345.656 1314.99 345.141 1315.68C344.625 1316.36 344.367 1317.16 344.367 1318.08C344.367 1318.66 344.477 1319.22 344.695 1319.74C344.914 1320.27 345.238 1320.69 345.668 1321.01C346.098 1321.33 346.613 1321.49 347.215 1321.49C347.84 1321.49 348.371 1321.32 348.809 1321C349.254 1320.67 349.586 1320.24 349.805 1319.71C350.023 1319.17 350.133 1318.6 350.133 1318.01C350.133 1317.44 350.023 1316.89 349.805 1316.38C349.594 1315.86 349.273 1315.44 348.844 1315.12C348.414 1314.8 347.895 1314.64 347.285 1314.64ZM342.387 1327.73V1313.05L344.508 1313.06V1314.28C345.234 1313.27 346.258 1312.77 347.578 1312.77C348.555 1312.77 349.395 1313.02 350.098 1313.53C350.809 1314.04 351.34 1314.7 351.691 1315.51C352.051 1316.32 352.23 1317.19 352.23 1318.1C352.23 1319.01 352.059 1319.86 351.715 1320.64C351.371 1321.43 350.852 1322.07 350.156 1322.55C349.469 1323.04 348.641 1323.28 347.672 1323.28C346.352 1323.28 345.297 1322.79 344.508 1321.79V1327.73H342.387ZM360.345 1314.83H356.313L356.325 1323H354.227V1313.06H360.309L360.345 1314.83ZM370.181 1321.79C369.853 1322.27 369.412 1322.64 368.857 1322.91C368.302 1323.16 367.689 1323.29 367.017 1323.29C366.158 1323.29 365.377 1323.06 364.673 1322.6C363.978 1322.14 363.431 1321.51 363.033 1320.7C362.634 1319.89 362.435 1318.98 362.435 1317.98C362.435 1317.01 362.638 1316.12 363.045 1315.32C363.459 1314.53 364.025 1313.9 364.744 1313.45C365.47 1313 366.275 1312.77 367.158 1312.77C368.517 1312.77 369.525 1313.27 370.181 1314.28V1313.06H372.302V1323H370.181V1321.79ZM367.474 1314.64C366.865 1314.64 366.338 1314.8 365.892 1315.12C365.455 1315.45 365.123 1315.87 364.896 1316.4C364.677 1316.93 364.568 1317.49 364.568 1318.08C364.568 1318.66 364.677 1319.21 364.896 1319.73C365.123 1320.25 365.455 1320.68 365.892 1321.01C366.338 1321.33 366.865 1321.49 367.474 1321.49C368.076 1321.49 368.591 1321.33 369.021 1321.01C369.451 1320.68 369.775 1320.25 369.994 1319.72C370.22 1319.19 370.334 1318.62 370.334 1318.03C370.334 1317.45 370.228 1316.9 370.017 1316.38C369.791 1315.86 369.463 1315.45 369.033 1315.12C368.603 1314.8 368.084 1314.64 367.474 1314.64ZM381.975 1315.04H378.67V1318.68C378.67 1319.3 378.604 1319.89 378.471 1320.46C378.33 1321.01 378.112 1321.51 377.815 1321.96C377.518 1322.4 377.131 1322.75 376.655 1323.01C376.178 1323.26 375.62 1323.39 374.979 1323.39C374.83 1323.39 374.686 1323.38 374.545 1323.36V1321.27C374.639 1321.28 374.737 1321.29 374.838 1321.29C375.409 1321.29 375.811 1321.1 376.045 1320.73C376.28 1320.34 376.397 1319.71 376.397 1318.82L376.385 1313.09H384.237V1323H381.975V1315.04ZM388.917 1313.06V1316.68L392.362 1313.06H395.152L390.616 1317.48L395.538 1323H392.679L388.917 1318.46V1323H386.796V1313.06H388.917ZM402.082 1312.72C403.105 1312.72 404.023 1312.95 404.836 1313.4C405.648 1313.86 406.281 1314.49 406.734 1315.31C407.188 1316.12 407.414 1317.05 407.414 1318.08C407.414 1319.09 407.188 1320 406.734 1320.81C406.281 1321.61 405.645 1322.24 404.824 1322.68C404.004 1323.12 403.074 1323.34 402.035 1323.34C401.02 1323.34 400.113 1323.11 399.316 1322.65C398.52 1322.2 397.898 1321.57 397.453 1320.76C397.016 1319.94 396.797 1319.02 396.797 1317.98C396.797 1316.98 397.02 1316.07 397.465 1315.28C397.91 1314.47 398.535 1313.85 399.34 1313.4C400.145 1312.95 401.059 1312.72 402.082 1312.72ZM402.105 1314.64C401.449 1314.64 400.887 1314.81 400.418 1315.14C399.949 1315.46 399.598 1315.88 399.363 1316.39C399.129 1316.91 399.012 1317.46 399.012 1318.05C399.012 1318.64 399.129 1319.19 399.363 1319.71C399.598 1320.21 399.949 1320.63 400.418 1320.96C400.887 1321.28 401.449 1321.44 402.105 1321.44C402.754 1321.44 403.305 1321.28 403.758 1320.96C404.219 1320.64 404.562 1320.22 404.789 1319.7C405.023 1319.17 405.141 1318.62 405.141 1318.05C405.141 1317.47 405.023 1316.91 404.789 1316.39C404.562 1315.87 404.219 1315.45 403.758 1315.12C403.297 1314.8 402.746 1314.64 402.105 1314.64ZM416.559 1323.06V1316.8L409.048 1323.41V1313.09H411.286V1319.31L418.798 1312.59V1323.06H416.559ZM410.97 1309.83C411.727 1311.85 412.813 1312.88 414.227 1312.91C415.649 1312.93 416.68 1311.91 417.321 1309.83H415.493C415.548 1310.85 415.157 1311.54 414.321 1311.9C413.493 1311.46 413.044 1310.77 412.973 1309.83H410.97Z" fill="#F6EBC8"/>
<path d="M60.1738 197.225H74.4414V181.375H66.1504C65.7402 190.379 63.748 195.662 60.1738 197.225ZM54.5195 197.342C58.0938 195.779 60.0566 189.061 60.4082 177.186H80.0957V197.342H82.9668V207.156H77.3125V202.293H57.2441V207.156H51.5898V197.342H54.5195ZM103.973 182.107H95.7109V191.189C95.7109 192.752 95.5449 194.236 95.2129 195.643C94.8613 197.029 94.3145 198.279 93.5723 199.393C92.8301 200.506 91.8633 201.385 90.6719 202.029C89.4805 202.654 88.084 202.967 86.4824 202.967C86.1113 202.967 85.75 202.947 85.3984 202.908V197.664C85.6328 197.703 85.877 197.723 86.1309 197.723C87.5566 197.723 88.5625 197.254 89.1484 196.316C89.7344 195.359 90.0273 193.768 90.0273 191.541L89.998 177.215H109.627V202H103.973V182.107ZM129.168 202V191.307L118.621 202H111.736L123.924 191.072C123.084 191.033 122 190.848 120.672 190.516C119.344 190.184 118.211 189.715 117.273 189.109C116.336 188.484 115.613 187.752 115.105 186.912C114.617 186.053 114.373 185.096 114.373 184.041C114.373 181.834 115.486 180.145 117.713 178.973C119.959 177.781 122.82 177.186 126.297 177.186H134.764V202H129.168ZM129.168 180.496H127.439C124.822 180.496 122.918 180.818 121.727 181.463C120.555 182.107 119.969 183.064 119.969 184.334C119.969 185.525 120.584 186.512 121.814 187.293C123.064 188.055 124.822 188.436 127.088 188.436H129.168V180.496ZM149.412 202V177.186H158.143C160.74 177.186 162.771 177.742 164.236 178.855C165.701 179.969 166.434 181.492 166.434 183.426C166.434 184.773 166.004 185.926 165.145 186.883C164.305 187.82 163.162 188.406 161.717 188.641C163.943 188.777 165.691 189.471 166.961 190.721C168.23 191.971 168.865 193.426 168.865 195.086C168.865 195.848 168.719 196.59 168.426 197.312C168.152 198.035 167.713 198.719 167.107 199.363C166.502 199.988 165.789 200.496 164.969 200.887C163.504 201.629 161.404 202 158.67 202H149.412ZM154.422 198.836H158.26C161.717 199.031 163.445 197.713 163.445 194.881C163.445 192.029 161.648 190.604 158.055 190.604H154.422V198.836ZM154.422 186.912H156.766C158.211 186.912 159.354 186.609 160.193 186.004C160.994 185.418 161.395 184.598 161.395 183.543C161.395 182.645 160.975 181.902 160.135 181.316C159.295 180.73 158.299 180.438 157.146 180.438H154.422V186.912ZM179.764 197.225H194.031V181.375H185.74C185.33 190.379 183.338 195.662 179.764 197.225ZM174.109 197.342C177.684 195.779 179.646 189.061 179.998 177.186H199.686V197.342H202.557V207.156H196.902V202.293H176.834V207.156H171.18V197.342H174.109ZM217.205 176.307C219.764 176.307 222.059 176.873 224.09 178.006C226.121 179.139 227.703 180.73 228.836 182.781C229.969 184.812 230.535 187.117 230.535 189.695C230.535 192.234 229.969 194.51 228.836 196.521C227.703 198.533 226.111 200.096 224.061 201.209C222.01 202.303 219.686 202.85 217.088 202.85C214.549 202.85 212.283 202.273 210.291 201.121C208.299 200.008 206.746 198.436 205.633 196.404C204.539 194.354 203.992 192.039 203.992 189.461C203.992 186.941 204.549 184.686 205.662 182.693C206.775 180.682 208.338 179.119 210.35 178.006C212.361 176.873 214.646 176.307 217.205 176.307ZM217.264 181.111C215.623 181.111 214.217 181.521 213.045 182.342C211.873 183.143 210.994 184.188 210.408 185.477C209.822 186.766 209.529 188.152 209.529 189.637C209.529 191.102 209.822 192.479 210.408 193.768C210.994 195.037 211.873 196.082 213.045 196.902C214.217 197.703 215.623 198.104 217.264 198.104C218.885 198.104 220.262 197.703 221.395 196.902C222.547 196.102 223.406 195.047 223.973 193.738C224.559 192.43 224.852 191.062 224.852 189.637C224.852 188.172 224.559 186.785 223.973 185.477C223.406 184.168 222.547 183.113 221.395 182.312C220.242 181.512 218.865 181.111 217.264 181.111ZM230.037 202L239.939 188.729L231.355 177.156H237.566L243.572 184.949L249.139 177.156H255.496L246.795 188.729L256.58 202H250.398L243.309 192.625L236.395 202H230.037ZM273.924 191.307H262.645V202H257.4V177.244H262.615V186.59H273.924V177.244H279.139L279.168 202H273.924V191.307ZM294.021 176.307C296.58 176.307 298.875 176.873 300.906 178.006C302.938 179.139 304.52 180.73 305.652 182.781C306.785 184.812 307.352 187.117 307.352 189.695C307.352 192.234 306.785 194.51 305.652 196.521C304.52 198.533 302.928 200.096 300.877 201.209C298.826 202.303 296.502 202.85 293.904 202.85C291.365 202.85 289.1 202.273 287.107 201.121C285.115 200.008 283.562 198.436 282.449 196.404C281.355 194.354 280.809 192.039 280.809 189.461C280.809 186.941 281.365 184.686 282.479 182.693C283.592 180.682 285.154 179.119 287.166 178.006C289.178 176.873 291.463 176.307 294.021 176.307ZM294.08 181.111C292.439 181.111 291.033 181.521 289.861 182.342C288.689 183.143 287.811 184.188 287.225 185.477C286.639 186.766 286.346 188.152 286.346 189.637C286.346 191.102 286.639 192.479 287.225 193.768C287.811 195.037 288.689 196.082 289.861 196.902C291.033 197.703 292.439 198.104 294.08 198.104C295.701 198.104 297.078 197.703 298.211 196.902C299.363 196.102 300.223 195.047 300.789 193.738C301.375 192.43 301.668 191.062 301.668 189.637C301.668 188.172 301.375 186.785 300.789 185.477C300.223 184.168 299.363 183.113 298.211 182.312C297.059 181.512 295.682 181.111 294.08 181.111ZM308.318 202V177.186H317.049C319.646 177.186 321.678 177.742 323.143 178.855C324.607 179.969 325.34 181.492 325.34 183.426C325.34 184.773 324.91 185.926 324.051 186.883C323.211 187.82 322.068 188.406 320.623 188.641C322.85 188.777 324.598 189.471 325.867 190.721C327.137 191.971 327.771 193.426 327.771 195.086C327.771 195.848 327.625 196.59 327.332 197.312C327.059 198.035 326.619 198.719 326.014 199.363C325.408 199.988 324.695 200.496 323.875 200.887C322.41 201.629 320.311 202 317.576 202H308.318ZM313.328 198.836H317.166C320.623 199.031 322.352 197.713 322.352 194.881C322.352 192.029 320.555 190.604 316.961 190.604H313.328V198.836ZM313.328 186.912H315.672C317.117 186.912 318.26 186.609 319.1 186.004C319.9 185.418 320.301 184.598 320.301 183.543C320.301 182.645 319.881 181.902 319.041 181.316C318.201 180.73 317.205 180.438 316.053 180.438H313.328V186.912ZM353.172 195.643C350.262 200.525 346.277 202.967 341.219 202.967C339.363 202.967 337.684 202.664 336.18 202.059C334.656 201.434 333.348 200.535 332.254 199.363C331.18 198.191 330.35 196.795 329.764 195.174C329.197 193.533 328.914 191.746 328.914 189.812C328.914 187.82 329.197 185.984 329.764 184.305C330.35 182.605 331.17 181.17 332.225 179.998C333.299 178.807 334.578 177.898 336.062 177.273C337.547 176.629 339.188 176.307 340.984 176.307C342.996 176.307 344.822 176.717 346.463 177.537C348.104 178.338 349.461 179.49 350.535 180.994C351.395 182.107 352 183.357 352.352 184.744C352.703 186.131 352.938 188.064 353.055 190.545H334.334C334.393 192.068 334.725 193.416 335.33 194.588C335.955 195.76 336.785 196.658 337.82 197.283C338.875 197.908 340.086 198.221 341.453 198.221C344.48 198.221 346.961 196.434 348.895 192.859L353.172 195.643ZM334.803 186.473H347.43C347.117 184.695 346.434 183.338 345.379 182.4C344.324 181.463 342.977 180.994 341.336 180.994C337.762 180.994 335.584 182.82 334.803 186.473ZM370.779 191.307H359.5V202H354.256V177.244H359.471V186.59H370.779V177.244H375.994L376.023 202H370.779V191.307ZM397.293 202.146V186.502L378.514 203.025V177.215H384.109V192.771L402.889 175.984V202.146H397.293ZM422.195 202V191.307L411.648 202H404.764L416.951 191.072C416.111 191.033 415.027 190.848 413.699 190.516C412.371 190.184 411.238 189.715 410.301 189.109C409.363 188.484 408.641 187.752 408.133 186.912C407.645 186.053 407.4 185.096 407.4 184.041C407.4 181.834 408.514 180.145 410.74 178.973C412.986 177.781 415.848 177.186 419.324 177.186H427.791V202H422.195ZM422.195 180.496H420.467C417.85 180.496 415.945 180.818 414.754 181.463C413.582 182.107 412.996 183.064 412.996 184.334C412.996 185.525 413.611 186.512 414.842 187.293C416.092 188.055 417.85 188.436 420.115 188.436H422.195V180.496Z" fill="#F6EBC8"/>
<mask id="mask0_68_102" style="mask-type:alpha" maskUnits="userSpaceOnUse" x="0" y="0" width="131" height="131">
<rect width="131" height="131" fill="#D9D9D9"/>
</mask>
<g mask="url(#mask0_68_102)">
<path d="M-37.7024 -43.3919C-11.045 -53.6888 17.8752 -53.7841 45.2397 -47.0881C71.7533 -39.2878 88.06 -24.7899 95.5672 -8.3253C102.961 7.89064 101.879 26.1387 93.4329 42.0477L93.0247 42.8032C78.5567 69.1967 54.2763 87.4672 28.2234 98.4056C2.16335 109.347 -25.5816 112.913 -46.8693 109.982C-75.5544 105.586 -97.8684 96.8079 -109.396 82.5878C-120.64 68.7174 -121.837 49.3626 -107.925 22.9963L-107.251 21.7353L-107.249 21.7325C-88.824 -12.5744 -64.3541 -33.0972 -37.7024 -43.3919Z" stroke="#FF9EA7" stroke-width="2"/>
</g>
<mask id="mask1_68_102" style="mask-type:alpha" maskUnits="userSpaceOnUse" x="360" y="0" width="120" height="184">
<rect x="360" width="120" height="184" fill="#D9D9D9"/>
</mask>
<g mask="url(#mask1_68_102)">
<path d="M519.929 92.9903C499.752 114.221 473.425 132.24 445.811 146.207L445.81 146.206C418.456 159.183 397.775 162.73 384.419 159.952C377.758 158.567 372.975 155.622 370.045 151.557C367.213 147.627 366.038 142.547 366.678 136.557L366.747 135.974C369.342 115.255 384.046 91.9968 403.422 70.8436C422.766 49.7256 446.613 30.8723 467.219 18.954C495.08 3.14406 518.987 -6.78216 535.231 -7.50589C543.332 -7.86682 549.344 -5.93191 553.053 -1.5145C556.652 2.77103 558.268 9.61126 557.232 19.6374L557.123 20.6175L557.123 20.622C554.088 47.3581 540.112 71.7529 519.929 92.9903Z" stroke="#FF9EA7" stroke-width="2"/>
</g>
<path d="M342 105.919C349.105 104.877 351.352 102.647 351.984 96C352.684 102.028 354.455 103.975 360.42 104.491C353.893 105.266 351.843 107.543 350.436 114.41C350.662 106.991 348.765 105.177 342 105.919Z" fill="#FF9EA7"/>
</svg>
