<svg width="480" height="288" viewBox="0 0 480 288" fill="none" xmlns="http://www.w3.org/2000/svg">
<path d="M339 156.919C346.105 155.877 348.352 153.647 348.984 147C349.684 153.028 351.455 154.975 357.42 155.491C350.893 156.266 348.843 158.543 347.436 165.41C347.662 157.991 345.765 156.177 339 156.919Z" fill="#FF9EA7"/>
<path d="M114.304 250.568C114.633 250.137 114.923 249.663 115.148 249.18C115.35 249.651 115.6 250.117 115.879 250.54C116.25 251.102 116.691 251.621 117.175 251.996C117.231 252.039 117.288 252.08 117.346 252.12C116.632 252.541 116.019 253.147 115.544 253.795C115.314 254.109 115.108 254.444 114.936 254.786C114.716 254.345 114.434 253.926 114.12 253.556C113.674 253.031 113.118 252.55 112.508 252.227C113.2 251.806 113.815 251.208 114.304 250.568Z" stroke="#FF9EA7"/>
<path d="M366.477 201.491C364.025 210.524 357.588 218.654 348.097 225.781C338.608 232.906 326.129 238.98 311.729 243.91C282.93 253.769 246.599 259 211.55 259C176.42 259 147.974 255.496 131.481 247.309C123.255 243.226 118.168 238.061 116.559 231.74C114.947 225.409 116.746 217.623 122.977 208.126C135.403 189.182 160.278 174.133 190.961 163.82C221.61 153.52 257.895 148 292.935 148C328.052 148 348.635 153.257 359.326 162.465C369.876 171.551 371.026 184.735 366.477 201.491Z" stroke="#FF9EA7" stroke-width="2"/>
<path d="M181.934 185.496C180.785 186.059 179.676 186.34 178.605 186.34C177.668 186.34 176.824 186.117 176.074 185.672C175.324 185.219 174.738 184.598 174.316 183.809C173.887 183.012 173.672 182.117 173.672 181.125C173.672 180.336 173.82 179.609 174.117 178.945C174.422 178.281 174.828 177.711 175.336 177.234C175.852 176.75 176.434 176.383 177.082 176.133C177.738 175.875 178.414 175.746 179.109 175.746C180.141 175.746 181.082 176.012 181.934 176.543V179.039C181.129 178.203 180.168 177.785 179.051 177.785C178.184 177.785 177.441 178.066 176.824 178.629C176.215 179.191 175.91 179.977 175.91 180.984C175.91 181.664 176.031 182.254 176.273 182.754C176.516 183.254 176.867 183.637 177.328 183.902C177.781 184.16 178.316 184.289 178.934 184.289C179.98 184.289 180.98 183.852 181.934 182.977V185.496ZM191.836 183.457C190.672 185.41 189.078 186.387 187.055 186.387C186.312 186.387 185.641 186.266 185.039 186.023C184.43 185.773 183.906 185.414 183.469 184.945C183.039 184.477 182.707 183.918 182.473 183.27C182.246 182.613 182.133 181.898 182.133 181.125C182.133 180.328 182.246 179.594 182.473 178.922C182.707 178.242 183.035 177.668 183.457 177.199C183.887 176.723 184.398 176.359 184.992 176.109C185.586 175.852 186.242 175.723 186.961 175.723C187.766 175.723 188.496 175.887 189.152 176.215C189.809 176.535 190.352 176.996 190.781 177.598C191.125 178.043 191.367 178.543 191.508 179.098C191.648 179.652 191.742 180.426 191.789 181.418H184.301C184.324 182.027 184.457 182.566 184.699 183.035C184.949 183.504 185.281 183.863 185.695 184.113C186.117 184.363 186.602 184.488 187.148 184.488C188.359 184.488 189.352 183.773 190.125 182.344L191.836 183.457ZM184.488 179.789H189.539C189.414 179.078 189.141 178.535 188.719 178.16C188.297 177.785 187.758 177.598 187.102 177.598C185.672 177.598 184.801 178.328 184.488 179.789ZM199.711 178.043H196.406V181.676C196.406 182.301 196.34 182.895 196.207 183.457C196.066 184.012 195.848 184.512 195.551 184.957C195.254 185.402 194.867 185.754 194.391 186.012C193.914 186.262 193.355 186.387 192.715 186.387C192.566 186.387 192.422 186.379 192.281 186.363V184.266C192.375 184.281 192.473 184.289 192.574 184.289C193.145 184.289 193.547 184.102 193.781 183.727C194.016 183.344 194.133 182.707 194.133 181.816L194.121 176.086H201.973V186H199.711V178.043ZM208.16 175.723C209.184 175.723 210.102 175.949 210.914 176.402C211.727 176.855 212.359 177.492 212.812 178.312C213.266 179.125 213.492 180.047 213.492 181.078C213.492 182.094 213.266 183.004 212.812 183.809C212.359 184.613 211.723 185.238 210.902 185.684C210.082 186.121 209.152 186.34 208.113 186.34C207.098 186.34 206.191 186.109 205.395 185.648C204.598 185.203 203.977 184.574 203.531 183.762C203.094 182.941 202.875 182.016 202.875 180.984C202.875 179.977 203.098 179.074 203.543 178.277C203.988 177.473 204.613 176.848 205.418 176.402C206.223 175.949 207.137 175.723 208.16 175.723ZM208.184 177.645C207.527 177.645 206.965 177.809 206.496 178.137C206.027 178.457 205.676 178.875 205.441 179.391C205.207 179.906 205.09 180.461 205.09 181.055C205.09 181.641 205.207 182.191 205.441 182.707C205.676 183.215 206.027 183.633 206.496 183.961C206.965 184.281 207.527 184.441 208.184 184.441C208.832 184.441 209.383 184.281 209.836 183.961C210.297 183.641 210.641 183.219 210.867 182.695C211.102 182.172 211.219 181.625 211.219 181.055C211.219 180.469 211.102 179.914 210.867 179.391C210.641 178.867 210.297 178.445 209.836 178.125C209.375 177.805 208.824 177.645 208.184 177.645ZM225.609 186V181.723L221.391 186H218.637L223.512 181.629C223.176 181.613 222.742 181.539 222.211 181.406C221.68 181.273 221.227 181.086 220.852 180.844C220.477 180.594 220.188 180.301 219.984 179.965C219.789 179.621 219.691 179.238 219.691 178.816C219.691 177.934 220.137 177.258 221.027 176.789C221.926 176.312 223.07 176.074 224.461 176.074H227.848V186H225.609ZM225.609 177.398H224.918C223.871 177.398 223.109 177.527 222.633 177.785C222.164 178.043 221.93 178.426 221.93 178.934C221.93 179.41 222.176 179.805 222.668 180.117C223.168 180.422 223.871 180.574 224.777 180.574H225.609V177.398ZM236.707 185.496C235.559 186.059 234.449 186.34 233.379 186.34C232.441 186.34 231.598 186.117 230.848 185.672C230.098 185.219 229.512 184.598 229.09 183.809C228.66 183.012 228.445 182.117 228.445 181.125C228.445 180.336 228.594 179.609 228.891 178.945C229.195 178.281 229.602 177.711 230.109 177.234C230.625 176.75 231.207 176.383 231.855 176.133C232.512 175.875 233.188 175.746 233.883 175.746C234.914 175.746 235.855 176.012 236.707 176.543V179.039C235.902 178.203 234.941 177.785 233.824 177.785C232.957 177.785 232.215 178.066 231.598 178.629C230.988 179.191 230.684 179.977 230.684 180.984C230.684 181.664 230.805 182.254 231.047 182.754C231.289 183.254 231.641 183.637 232.102 183.902C232.555 184.16 233.09 184.289 233.707 184.289C234.754 184.289 235.754 183.852 236.707 182.977V185.496ZM237.41 176.074H244.992L245.027 177.844H242.297V186H240.141V177.844H237.375L237.41 176.074ZM250.887 177.645C249.973 177.645 249.258 177.988 248.742 178.676C248.227 179.355 247.969 180.156 247.969 181.078C247.969 181.664 248.078 182.219 248.297 182.742C248.516 183.266 248.84 183.688 249.27 184.008C249.699 184.328 250.215 184.488 250.816 184.488C251.441 184.488 251.973 184.324 252.41 183.996C252.855 183.668 253.188 183.238 253.406 182.707C253.625 182.168 253.734 181.602 253.734 181.008C253.734 180.438 253.625 179.895 253.406 179.379C253.195 178.855 252.875 178.438 252.445 178.125C252.016 177.805 251.496 177.645 250.887 177.645ZM245.988 190.734V176.051L248.109 176.062V177.281C248.836 176.273 249.859 175.77 251.18 175.77C252.156 175.77 252.996 176.023 253.699 176.531C254.41 177.039 254.941 177.699 255.293 178.512C255.652 179.324 255.832 180.188 255.832 181.102C255.832 182.008 255.66 182.855 255.316 183.645C254.973 184.434 254.453 185.07 253.758 185.555C253.07 186.039 252.242 186.281 251.273 186.281C249.953 186.281 248.898 185.785 248.109 184.793V190.734H245.988ZM265.898 183.457C264.734 185.41 263.141 186.387 261.117 186.387C260.375 186.387 259.703 186.266 259.102 186.023C258.492 185.773 257.969 185.414 257.531 184.945C257.102 184.477 256.77 183.918 256.535 183.27C256.309 182.613 256.195 181.898 256.195 181.125C256.195 180.328 256.309 179.594 256.535 178.922C256.77 178.242 257.098 177.668 257.52 177.199C257.949 176.723 258.461 176.359 259.055 176.109C259.648 175.852 260.305 175.723 261.023 175.723C261.828 175.723 262.559 175.887 263.215 176.215C263.871 176.535 264.414 176.996 264.844 177.598C265.188 178.043 265.43 178.543 265.57 179.098C265.711 179.652 265.805 180.426 265.852 181.418H258.363C258.387 182.027 258.52 182.566 258.762 183.035C259.012 183.504 259.344 183.863 259.758 184.113C260.18 184.363 260.664 184.488 261.211 184.488C262.422 184.488 263.414 183.773 264.188 182.344L265.898 183.457ZM258.551 179.789H263.602C263.477 179.078 263.203 178.535 262.781 178.16C262.359 177.785 261.82 177.598 261.164 177.598C259.734 177.598 258.863 178.328 258.551 179.789ZM271.254 177.645C270.598 177.645 270.035 177.809 269.566 178.137C269.098 178.457 268.746 178.875 268.512 179.391C268.277 179.906 268.16 180.461 268.16 181.055C268.16 181.641 268.277 182.191 268.512 182.707C268.746 183.215 269.098 183.633 269.566 183.961C270.035 184.281 270.598 184.441 271.254 184.441C271.902 184.441 272.453 184.281 272.906 183.961C273.367 183.641 273.711 183.219 273.938 182.695C274.172 182.172 274.289 181.625 274.289 181.055C274.289 180.469 274.172 179.914 273.938 179.391C273.711 178.867 273.367 178.445 272.906 178.125C272.445 177.805 271.895 177.645 271.254 177.645ZM269.602 173.906C268.867 174.148 268.465 174.996 268.395 176.449C268.426 176.434 268.457 176.414 268.488 176.391C269.293 175.945 270.207 175.723 271.23 175.723C272.254 175.723 273.172 175.949 273.984 176.402C274.797 176.855 275.43 177.492 275.883 178.312C276.336 179.125 276.562 180.047 276.562 181.078C276.562 182.094 276.336 183.004 275.883 183.809C275.43 184.613 274.793 185.238 273.973 185.684C273.152 186.121 272.223 186.34 271.184 186.34C270.168 186.34 269.262 186.109 268.465 185.648C267.668 185.203 267.047 184.574 266.602 183.762C266.164 182.941 265.945 182.016 265.945 180.984C265.672 177.711 265.898 175.418 266.625 174.105C267.352 172.785 268.168 172.059 269.074 171.926C270.004 171.793 271.059 171.727 272.238 171.727C273.426 171.719 274.297 171.195 274.852 170.156L276.914 169.91C276.141 172.051 274.887 173.148 273.152 173.203C271.418 173.258 270.234 173.492 269.602 173.906ZM281.941 175.723C282.965 175.723 283.883 175.949 284.695 176.402C285.508 176.855 286.141 177.492 286.594 178.312C287.047 179.125 287.273 180.047 287.273 181.078C287.273 182.094 287.047 183.004 286.594 183.809C286.141 184.613 285.504 185.238 284.684 185.684C283.863 186.121 282.934 186.34 281.895 186.34C280.879 186.34 279.973 186.109 279.176 185.648C278.379 185.203 277.758 184.574 277.312 183.762C276.875 182.941 276.656 182.016 276.656 180.984C276.656 179.977 276.879 179.074 277.324 178.277C277.77 177.473 278.395 176.848 279.199 176.402C280.004 175.949 280.918 175.723 281.941 175.723ZM281.965 177.645C281.309 177.645 280.746 177.809 280.277 178.137C279.809 178.457 279.457 178.875 279.223 179.391C278.988 179.906 278.871 180.461 278.871 181.055C278.871 181.641 278.988 182.191 279.223 182.707C279.457 183.215 279.809 183.633 280.277 183.961C280.746 184.281 281.309 184.441 281.965 184.441C282.613 184.441 283.164 184.281 283.617 183.961C284.078 183.641 284.422 183.219 284.648 182.695C284.883 182.172 285 181.625 285 181.055C285 180.469 284.883 179.914 284.648 179.391C284.422 178.867 284.078 178.445 283.617 178.125C283.156 177.805 282.605 177.645 281.965 177.645ZM287.66 186V176.074H291.152C292.191 176.074 293.004 176.297 293.59 176.742C294.176 177.188 294.469 177.797 294.469 178.57C294.469 179.109 294.297 179.57 293.953 179.953C293.617 180.328 293.16 180.562 292.582 180.656C293.473 180.711 294.172 180.988 294.68 181.488C295.188 181.988 295.441 182.57 295.441 183.234C295.441 183.539 295.383 183.836 295.266 184.125C295.156 184.414 294.98 184.688 294.738 184.945C294.496 185.195 294.211 185.398 293.883 185.555C293.297 185.852 292.457 186 291.363 186H287.66ZM289.664 184.734H291.199C292.582 184.812 293.273 184.285 293.273 183.152C293.273 182.012 292.555 181.441 291.117 181.441H289.664V184.734ZM289.664 179.965H290.602C291.18 179.965 291.637 179.844 291.973 179.602C292.293 179.367 292.453 179.039 292.453 178.617C292.453 178.258 292.285 177.961 291.949 177.727C291.613 177.492 291.215 177.375 290.754 177.375H289.664V179.965ZM301.23 175.723C302.254 175.723 303.172 175.949 303.984 176.402C304.797 176.855 305.43 177.492 305.883 178.312C306.336 179.125 306.562 180.047 306.562 181.078C306.562 182.094 306.336 183.004 305.883 183.809C305.43 184.613 304.793 185.238 303.973 185.684C303.152 186.121 302.223 186.34 301.184 186.34C300.168 186.34 299.262 186.109 298.465 185.648C297.668 185.203 297.047 184.574 296.602 183.762C296.164 182.941 295.945 182.016 295.945 180.984C295.945 179.977 296.168 179.074 296.613 178.277C297.059 177.473 297.684 176.848 298.488 176.402C299.293 175.949 300.207 175.723 301.23 175.723ZM301.254 177.645C300.598 177.645 300.035 177.809 299.566 178.137C299.098 178.457 298.746 178.875 298.512 179.391C298.277 179.906 298.16 180.461 298.16 181.055C298.16 181.641 298.277 182.191 298.512 182.707C298.746 183.215 299.098 183.633 299.566 183.961C300.035 184.281 300.598 184.441 301.254 184.441C301.902 184.441 302.453 184.281 302.906 183.961C303.367 183.641 303.711 183.219 303.938 182.695C304.172 182.172 304.289 181.625 304.289 181.055C304.289 180.469 304.172 179.914 303.938 179.391C303.711 178.867 303.367 178.445 302.906 178.125C302.445 177.805 301.895 177.645 301.254 177.645ZM158.871 198.062H161.391L164.414 203.77L167.156 198.062H169.535L162.281 212.734H159.973L163.312 206.055L158.871 198.062ZM177.504 200.043H174.199V203.676C174.199 204.301 174.133 204.895 174 205.457C173.859 206.012 173.641 206.512 173.344 206.957C173.047 207.402 172.66 207.754 172.184 208.012C171.707 208.262 171.148 208.387 170.508 208.387C170.359 208.387 170.215 208.379 170.074 208.363V206.266C170.168 206.281 170.266 206.289 170.367 206.289C170.938 206.289 171.34 206.102 171.574 205.727C171.809 205.344 171.926 204.707 171.926 203.816L171.914 198.086H179.766V208H177.504V200.043ZM188.52 208.059V201.801L181.008 208.41V198.086H183.246V204.309L190.758 197.594V208.059H188.52ZM199.723 209.98V208H191.953V198.098H194.051V206.09H198.562V198.098H200.66L200.648 206.102H201.539V209.98H199.723ZM209.988 206.793C209.66 207.27 209.219 207.641 208.664 207.906C208.109 208.164 207.496 208.293 206.824 208.293C205.965 208.293 205.184 208.062 204.48 207.602C203.785 207.141 203.238 206.508 202.84 205.703C202.441 204.891 202.242 203.984 202.242 202.984C202.242 202.008 202.445 201.121 202.852 200.324C203.266 199.527 203.832 198.902 204.551 198.449C205.277 197.996 206.082 197.77 206.965 197.77C208.324 197.77 209.332 198.273 209.988 199.281V198.062H212.109V208H209.988V206.793ZM207.281 199.645C206.672 199.645 206.145 199.805 205.699 200.125C205.262 200.445 204.93 200.871 204.703 201.402C204.484 201.934 204.375 202.492 204.375 203.078C204.375 203.656 204.484 204.207 204.703 204.73C204.93 205.254 205.262 205.68 205.699 206.008C206.145 206.328 206.672 206.488 207.281 206.488C207.883 206.488 208.398 206.328 208.828 206.008C209.258 205.68 209.582 205.25 209.801 204.719C210.027 204.188 210.141 203.625 210.141 203.031C210.141 202.453 210.035 201.902 209.824 201.379C209.598 200.863 209.27 200.445 208.84 200.125C208.41 199.805 207.891 199.645 207.281 199.645ZM220.441 198.062V201.684L223.887 198.062H226.676L222.141 202.48L227.062 208H224.203L220.441 203.465V208H218.32V198.062H220.441ZM234.973 208.059V201.801L227.461 208.41V198.086H229.699V204.309L237.211 197.594V208.059H234.973ZM241.875 206.09H247.582V199.75H244.266C244.102 203.352 243.305 205.465 241.875 206.09ZM239.613 206.137C241.043 205.512 241.828 202.824 241.969 198.074H249.844V206.137H250.992V210.062H248.73V208.117H240.703V210.062H238.441V206.137H239.613ZM259.512 206.793C259.184 207.27 258.742 207.641 258.188 207.906C257.633 208.164 257.02 208.293 256.348 208.293C255.488 208.293 254.707 208.062 254.004 207.602C253.309 207.141 252.762 206.508 252.363 205.703C251.965 204.891 251.766 203.984 251.766 202.984C251.766 202.008 251.969 201.121 252.375 200.324C252.789 199.527 253.355 198.902 254.074 198.449C254.801 197.996 255.605 197.77 256.488 197.77C257.848 197.77 258.855 198.273 259.512 199.281V198.062H261.633V208H259.512V206.793ZM256.805 199.645C256.195 199.645 255.668 199.805 255.223 200.125C254.785 200.445 254.453 200.871 254.227 201.402C254.008 201.934 253.898 202.492 253.898 203.078C253.898 203.656 254.008 204.207 254.227 204.73C254.453 205.254 254.785 205.68 255.223 206.008C255.668 206.328 256.195 206.488 256.805 206.488C257.406 206.488 257.922 206.328 258.352 206.008C258.781 205.68 259.105 205.25 259.324 204.719C259.551 204.188 259.664 203.625 259.664 203.031C259.664 202.453 259.559 201.902 259.348 201.379C259.121 200.863 258.793 200.445 258.363 200.125C257.934 199.805 257.414 199.645 256.805 199.645ZM270.105 200.043H266.801V203.676C266.801 204.301 266.734 204.895 266.602 205.457C266.461 206.012 266.242 206.512 265.945 206.957C265.648 207.402 265.262 207.754 264.785 208.012C264.309 208.262 263.75 208.387 263.109 208.387C262.961 208.387 262.816 208.379 262.676 208.363V206.266C262.77 206.281 262.867 206.289 262.969 206.289C263.539 206.289 263.941 206.102 264.176 205.727C264.41 205.344 264.527 204.707 264.527 203.816L264.516 198.086H272.367V208H270.105V200.043ZM278.555 197.723C279.578 197.723 280.496 197.949 281.309 198.402C282.121 198.855 282.754 199.492 283.207 200.312C283.66 201.125 283.887 202.047 283.887 203.078C283.887 204.094 283.66 205.004 283.207 205.809C282.754 206.613 282.117 207.238 281.297 207.684C280.477 208.121 279.547 208.34 278.508 208.34C277.492 208.34 276.586 208.109 275.789 207.648C274.992 207.203 274.371 206.574 273.926 205.762C273.488 204.941 273.27 204.016 273.27 202.984C273.27 201.977 273.492 201.074 273.938 200.277C274.383 199.473 275.008 198.848 275.812 198.402C276.617 197.949 277.531 197.723 278.555 197.723ZM278.578 199.645C277.922 199.645 277.359 199.809 276.891 200.137C276.422 200.457 276.07 200.875 275.836 201.391C275.602 201.906 275.484 202.461 275.484 203.055C275.484 203.641 275.602 204.191 275.836 204.707C276.07 205.215 276.422 205.633 276.891 205.961C277.359 206.281 277.922 206.441 278.578 206.441C279.227 206.441 279.777 206.281 280.23 205.961C280.691 205.641 281.035 205.219 281.262 204.695C281.496 204.172 281.613 203.625 281.613 203.055C281.613 202.469 281.496 201.914 281.262 201.391C281.035 200.867 280.691 200.445 280.23 200.125C279.77 199.805 279.219 199.645 278.578 199.645ZM284.273 208V198.074H287.766C288.805 198.074 289.617 198.297 290.203 198.742C290.789 199.188 291.082 199.797 291.082 200.57C291.082 201.109 290.91 201.57 290.566 201.953C290.23 202.328 289.773 202.562 289.195 202.656C290.086 202.711 290.785 202.988 291.293 203.488C291.801 203.988 292.055 204.57 292.055 205.234C292.055 205.539 291.996 205.836 291.879 206.125C291.77 206.414 291.594 206.688 291.352 206.945C291.109 207.195 290.824 207.398 290.496 207.555C289.91 207.852 289.07 208 287.977 208H284.273ZM286.277 206.734H287.812C289.195 206.812 289.887 206.285 289.887 205.152C289.887 204.012 289.168 203.441 287.73 203.441H286.277V206.734ZM286.277 201.965H287.215C287.793 201.965 288.25 201.844 288.586 201.602C288.906 201.367 289.066 201.039 289.066 200.617C289.066 200.258 288.898 199.961 288.562 199.727C288.227 199.492 287.828 199.375 287.367 199.375H286.277V201.965ZM300.504 206.793C300.176 207.27 299.734 207.641 299.18 207.906C298.625 208.164 298.012 208.293 297.34 208.293C296.48 208.293 295.699 208.062 294.996 207.602C294.301 207.141 293.754 206.508 293.355 205.703C292.957 204.891 292.758 203.984 292.758 202.984C292.758 202.008 292.961 201.121 293.367 200.324C293.781 199.527 294.348 198.902 295.066 198.449C295.793 197.996 296.598 197.77 297.48 197.77C298.84 197.77 299.848 198.273 300.504 199.281V198.062H302.625V208H300.504V206.793ZM297.797 199.645C297.188 199.645 296.66 199.805 296.215 200.125C295.777 200.445 295.445 200.871 295.219 201.402C295 201.934 294.891 202.492 294.891 203.078C294.891 203.656 295 204.207 295.219 204.73C295.445 205.254 295.777 205.68 296.215 206.008C296.66 206.328 297.188 206.488 297.797 206.488C298.398 206.488 298.914 206.328 299.344 206.008C299.773 205.68 300.098 205.25 300.316 204.719C300.543 204.188 300.656 203.625 300.656 203.031C300.656 202.453 300.551 201.902 300.34 201.379C300.113 200.863 299.785 200.445 299.355 200.125C298.926 199.805 298.406 199.645 297.797 199.645ZM308.039 194.172L309.059 192.18H313.395V208H311.309V194.172H308.039ZM320.531 199.832H316.5L316.512 208H314.414V198.062H320.496L320.531 199.832ZM154.805 220.062V223.684L158.25 220.062H161.039L156.504 224.48L161.426 230H158.566L154.805 225.465V230H152.684V220.062H154.805ZM166.77 219.723C167.793 219.723 168.711 219.949 169.523 220.402C170.336 220.855 170.969 221.492 171.422 222.312C171.875 223.125 172.102 224.047 172.102 225.078C172.102 226.094 171.875 227.004 171.422 227.809C170.969 228.613 170.332 229.238 169.512 229.684C168.691 230.121 167.762 230.34 166.723 230.34C165.707 230.34 164.801 230.109 164.004 229.648C163.207 229.203 162.586 228.574 162.141 227.762C161.703 226.941 161.484 226.016 161.484 224.984C161.484 223.977 161.707 223.074 162.152 222.277C162.598 221.473 163.223 220.848 164.027 220.402C164.832 219.949 165.746 219.723 166.77 219.723ZM166.793 221.645C166.137 221.645 165.574 221.809 165.105 222.137C164.637 222.457 164.285 222.875 164.051 223.391C163.816 223.906 163.699 224.461 163.699 225.055C163.699 225.641 163.816 226.191 164.051 226.707C164.285 227.215 164.637 227.633 165.105 227.961C165.574 228.281 166.137 228.441 166.793 228.441C167.441 228.441 167.992 228.281 168.445 227.961C168.906 227.641 169.25 227.219 169.477 226.695C169.711 226.172 169.828 225.625 169.828 225.055C169.828 224.469 169.711 223.914 169.477 223.391C169.25 222.867 168.906 222.445 168.445 222.125C167.984 221.805 167.434 221.645 166.793 221.645ZM172.137 230.059L175.629 219.277L179.391 226.449L183.727 219.277L187.078 230.059H184.781L182.836 223.473L179.297 230.41L176.332 223.449L174.457 230.059H172.137ZM194.051 222.008H189.539V230H187.441V220.098H196.137L196.148 230H194.051V222.008ZM204.633 222.043H201.328V225.676C201.328 226.301 201.262 226.895 201.129 227.457C200.988 228.012 200.77 228.512 200.473 228.957C200.176 229.402 199.789 229.754 199.312 230.012C198.836 230.262 198.277 230.387 197.637 230.387C197.488 230.387 197.344 230.379 197.203 230.363V228.266C197.297 228.281 197.395 228.289 197.496 228.289C198.066 228.289 198.469 228.102 198.703 227.727C198.938 227.344 199.055 226.707 199.055 225.816L199.043 220.086H206.895V230H204.633V222.043ZM217.453 227.457C216.289 229.41 214.695 230.387 212.672 230.387C211.93 230.387 211.258 230.266 210.656 230.023C210.047 229.773 209.523 229.414 209.086 228.945C208.656 228.477 208.324 227.918 208.09 227.27C207.863 226.613 207.75 225.898 207.75 225.125C207.75 224.328 207.863 223.594 208.09 222.922C208.324 222.242 208.652 221.668 209.074 221.199C209.504 220.723 210.016 220.359 210.609 220.109C211.203 219.852 211.859 219.723 212.578 219.723C213.383 219.723 214.113 219.887 214.77 220.215C215.426 220.535 215.969 220.996 216.398 221.598C216.742 222.043 216.984 222.543 217.125 223.098C217.266 223.652 217.359 224.426 217.406 225.418H209.918C209.941 226.027 210.074 226.566 210.316 227.035C210.566 227.504 210.898 227.863 211.312 228.113C211.734 228.363 212.219 228.488 212.766 228.488C213.977 228.488 214.969 227.773 215.742 226.344L217.453 227.457ZM210.105 223.789H215.156C215.031 223.078 214.758 222.535 214.336 222.16C213.914 221.785 213.375 221.598 212.719 221.598C211.289 221.598 210.418 222.328 210.105 223.789ZM220.078 220.062V223.684L223.523 220.062H226.312L221.777 224.48L226.699 230H223.84L220.078 225.465V230H217.957V220.062H220.078ZM235.16 229.496C234.012 230.059 232.902 230.34 231.832 230.34C230.895 230.34 230.051 230.117 229.301 229.672C228.551 229.219 227.965 228.598 227.543 227.809C227.113 227.012 226.898 226.117 226.898 225.125C226.898 224.336 227.047 223.609 227.344 222.945C227.648 222.281 228.055 221.711 228.562 221.234C229.078 220.75 229.66 220.383 230.309 220.133C230.965 219.875 231.641 219.746 232.336 219.746C233.367 219.746 234.309 220.012 235.16 220.543V223.039C234.355 222.203 233.395 221.785 232.277 221.785C231.41 221.785 230.668 222.066 230.051 222.629C229.441 223.191 229.137 223.977 229.137 224.984C229.137 225.664 229.258 226.254 229.5 226.754C229.742 227.254 230.094 227.637 230.555 227.902C231.008 228.16 231.543 228.289 232.16 228.289C233.207 228.289 234.207 227.852 235.16 226.977V229.496ZM240.223 224.48L243.188 220.062L244.523 220.906L242.121 224.48L244.523 228.148L243.141 228.863L240.223 224.48ZM245.391 224.48L247.793 228.148L246.398 228.863L243.539 224.48L246.492 220.062L247.816 220.906L245.391 224.48ZM247.617 220.062H250.137L253.16 225.77L255.902 220.062H258.281L251.027 234.734H248.719L252.059 228.055L247.617 220.062ZM265.43 228.793C265.102 229.27 264.66 229.641 264.105 229.906C263.551 230.164 262.938 230.293 262.266 230.293C261.406 230.293 260.625 230.062 259.922 229.602C259.227 229.141 258.68 228.508 258.281 227.703C257.883 226.891 257.684 225.984 257.684 224.984C257.684 224.008 257.887 223.121 258.293 222.324C258.707 221.527 259.273 220.902 259.992 220.449C260.719 219.996 261.523 219.77 262.406 219.77C263.766 219.77 264.773 220.273 265.43 221.281V220.062H267.551V230H265.43V228.793ZM262.723 221.645C262.113 221.645 261.586 221.805 261.141 222.125C260.703 222.445 260.371 222.871 260.145 223.402C259.926 223.934 259.816 224.492 259.816 225.078C259.816 225.656 259.926 226.207 260.145 226.73C260.371 227.254 260.703 227.68 261.141 228.008C261.586 228.328 262.113 228.488 262.723 228.488C263.324 228.488 263.84 228.328 264.27 228.008C264.699 227.68 265.023 227.25 265.242 226.719C265.469 226.188 265.582 225.625 265.582 225.031C265.582 224.453 265.477 223.902 265.266 223.379C265.039 222.863 264.711 222.445 264.281 222.125C263.852 221.805 263.332 221.645 262.723 221.645ZM269.59 227.574C269.996 227.574 270.316 227.715 270.551 227.996C270.793 228.27 270.914 228.594 270.914 228.969C270.914 229.336 270.797 229.656 270.562 229.93C270.328 230.203 270.004 230.34 269.59 230.34C269.176 230.34 268.844 230.199 268.594 229.918C268.344 229.637 268.219 229.312 268.219 228.945C268.219 228.586 268.344 228.27 268.594 227.996C268.844 227.715 269.176 227.574 269.59 227.574ZM279.176 228.793C278.77 229.34 278.336 229.727 277.875 229.953C277.414 230.18 276.836 230.293 276.141 230.293C275.234 230.293 274.422 230.07 273.703 229.625C272.984 229.172 272.426 228.551 272.027 227.762C271.621 226.965 271.418 226.07 271.418 225.078C271.418 224.07 271.617 223.164 272.016 222.359C272.422 221.547 272.988 220.914 273.715 220.461C274.449 220 275.273 219.77 276.188 219.77C277.523 219.77 278.516 220.289 279.164 221.328V220.062H281.332V230.152C281.332 231.496 281.113 232.504 280.676 233.176C280.254 233.816 279.664 234.312 278.906 234.664C278.148 235.016 277.348 235.191 276.504 235.191C275.715 235.191 274.969 235.039 274.266 234.734C273.562 234.438 272.988 234 272.543 233.422C272.09 232.836 271.844 232.145 271.805 231.348H274.031C274.172 232.02 274.43 232.508 274.805 232.812C275.188 233.117 275.738 233.27 276.457 233.27C278.27 233.27 279.176 232.246 279.176 230.199V228.793ZM276.504 221.645C275.582 221.645 274.859 221.988 274.336 222.676C273.812 223.363 273.551 224.172 273.551 225.102C273.551 225.664 273.66 226.203 273.879 226.719C274.098 227.234 274.426 227.652 274.863 227.973C275.301 228.285 275.824 228.441 276.434 228.441C277.043 228.441 277.566 228.281 278.004 227.961C278.449 227.633 278.781 227.207 279 226.684C279.227 226.152 279.34 225.594 279.34 225.008C279.34 224.438 279.23 223.895 279.012 223.379C278.801 222.855 278.48 222.438 278.051 222.125C277.621 221.805 277.105 221.645 276.504 221.645ZM282.316 230V213.242H284.402V230H282.316ZM292.898 228.793C292.57 229.27 292.129 229.641 291.574 229.906C291.02 230.164 290.406 230.293 289.734 230.293C288.875 230.293 288.094 230.062 287.391 229.602C286.695 229.141 286.148 228.508 285.75 227.703C285.352 226.891 285.152 225.984 285.152 224.984C285.152 224.008 285.355 223.121 285.762 222.324C286.176 221.527 286.742 220.902 287.461 220.449C288.188 219.996 288.992 219.77 289.875 219.77C291.234 219.77 292.242 220.273 292.898 221.281V220.062H295.02V230H292.898V228.793ZM290.191 221.645C289.582 221.645 289.055 221.805 288.609 222.125C288.172 222.445 287.84 222.871 287.613 223.402C287.395 223.934 287.285 224.492 287.285 225.078C287.285 225.656 287.395 226.207 287.613 226.73C287.84 227.254 288.172 227.68 288.609 228.008C289.055 228.328 289.582 228.488 290.191 228.488C290.793 228.488 291.309 228.328 291.738 228.008C292.168 227.68 292.492 227.25 292.711 226.719C292.938 226.188 293.051 225.625 293.051 225.031C293.051 224.453 292.945 223.902 292.734 223.379C292.508 222.863 292.18 222.445 291.75 222.125C291.32 221.805 290.801 221.645 290.191 221.645ZM296.121 230V220.062H298.23V221.281C298.559 220.82 298.953 220.469 299.414 220.227C299.883 219.984 300.371 219.863 300.879 219.863C301.941 219.863 302.789 220.336 303.422 221.281C304.172 220.305 305.109 219.816 306.234 219.816C308.375 219.816 309.445 220.969 309.445 223.273V230H307.336V224.281C307.336 222.703 306.816 221.914 305.777 221.914C304.488 221.914 303.844 222.922 303.844 224.938V230H301.746V224.281C301.746 222.703 301.215 221.914 300.152 221.914C299.559 221.914 299.094 222.176 298.758 222.699C298.406 223.23 298.23 223.977 298.23 224.938V230H296.121ZM315.41 221.645C314.496 221.645 313.781 221.988 313.266 222.676C312.75 223.355 312.492 224.156 312.492 225.078C312.492 225.664 312.602 226.219 312.82 226.742C313.039 227.266 313.363 227.688 313.793 228.008C314.223 228.328 314.738 228.488 315.34 228.488C315.965 228.488 316.496 228.324 316.934 227.996C317.379 227.668 317.711 227.238 317.93 226.707C318.148 226.168 318.258 225.602 318.258 225.008C318.258 224.438 318.148 223.895 317.93 223.379C317.719 222.855 317.398 222.438 316.969 222.125C316.539 221.805 316.02 221.645 315.41 221.645ZM310.512 234.734V220.051L312.633 220.062V221.281C313.359 220.273 314.383 219.77 315.703 219.77C316.68 219.77 317.52 220.023 318.223 220.531C318.934 221.039 319.465 221.699 319.816 222.512C320.176 223.324 320.355 224.188 320.355 225.102C320.355 226.008 320.184 226.855 319.84 227.645C319.496 228.434 318.977 229.07 318.281 229.555C317.594 230.039 316.766 230.281 315.797 230.281C314.477 230.281 313.422 229.785 312.633 228.793V234.734H310.512ZM320.473 220.906L321.832 220.062L324.773 224.48L321.879 228.863L320.52 228.148L322.875 224.48L320.473 220.906ZM323.789 228.148L326.168 224.48L323.789 220.906L325.09 220.062L328.066 224.48L325.113 228.863L323.789 228.148Z" fill="#F6EBC8"/>
<path d="M366.541 127.88C364.341 127.88 362.269 127.227 360.326 125.922C358.382 124.616 356.677 122.851 355.211 120.626C353.744 118.353 352.552 115.694 351.636 112.647C350.756 109.601 350.261 106.312 350.151 102.782C350.041 99.0584 350.352 95.5524 351.086 92.264C351.819 88.9273 352.864 86.0258 354.221 83.5595C355.577 81.0932 357.191 79.1347 359.061 77.6839C360.931 76.2332 362.947 75.5078 365.111 75.5078C366.321 75.5078 367.421 75.6045 368.411 75.798C369.437 75.943 370.446 76.0881 371.436 76.2332C372.426 76.3783 373.452 76.4266 374.516 76.3783C375.579 76.3299 376.771 76.0881 378.091 75.6529C378.641 75.5078 379.026 75.7738 379.246 76.4508C379.686 78.1917 379.887 79.8117 379.851 81.3108C379.814 82.7616 379.576 84.0431 379.136 85.1553C378.696 86.2192 378.054 87.0655 377.211 87.6942C376.367 88.3228 375.341 88.6371 374.131 88.6371C372.847 88.6371 371.601 88.4437 370.391 88.0568C369.217 87.67 368.081 87.1622 366.981 86.5336C365.917 85.9049 364.872 85.2037 363.846 84.43C362.856 83.6079 361.902 82.8099 360.986 82.0362C360.362 81.5043 359.739 81.4559 359.116 81.8911C358.492 82.278 357.924 83.0034 357.411 84.0673C356.934 85.1312 356.531 86.461 356.201 88.0568C355.871 89.6527 355.706 91.3694 355.706 93.207C355.706 96.5438 356.036 99.5178 356.696 102.129C357.392 104.741 358.346 106.965 359.556 108.803C360.802 110.64 362.269 112.043 363.956 113.01C365.642 113.977 367.494 114.461 369.511 114.461C372.957 114.461 375.836 112.841 378.146 109.601C378.366 109.262 378.641 109.214 378.971 109.455C379.301 109.697 379.466 110.374 379.466 111.487C379.466 113.808 379.136 115.96 378.476 117.942C377.816 119.925 376.899 121.666 375.726 123.165C374.552 124.616 373.177 125.776 371.601 126.647C370.024 127.469 368.337 127.88 366.541 127.88Z" fill="#F6EBC8"/>
<path d="M325.953 126.719C325.33 126.042 324.835 125.245 324.468 124.326C324.101 123.359 323.918 122.343 323.918 121.279C323.918 119.877 324.193 118.74 324.743 117.87C325.293 116.951 325.898 116.201 326.558 115.621C327.218 115.041 327.823 114.581 328.373 114.243C328.923 113.856 329.198 113.469 329.198 113.082C329.198 112.405 328.648 112.139 327.548 112.284C326.485 112.43 325.403 112.333 324.303 111.994C323.24 111.656 322.268 111.124 321.388 110.398C320.508 109.625 319.793 108.706 319.243 107.642C318.693 106.53 318.418 105.272 318.418 103.87C318.418 101.694 319.096 99.5178 320.453 97.3417C321.846 95.1655 323.753 93.2796 326.173 91.6837C326.906 91.2001 327.163 90.6924 326.943 90.1604C326.76 89.5801 326.21 89.29 325.293 89.29C324.78 89.29 324.156 89.3867 323.423 89.5801C322.726 89.7736 321.993 90.0154 321.223 90.3055C320.453 90.5957 319.665 90.9342 318.858 91.321C318.051 91.6596 317.281 92.0222 316.548 92.4091C316.145 92.6509 315.815 92.6509 315.558 92.4091C315.338 92.1673 315.228 91.7805 315.228 91.2485V77.4663C315.228 77.1278 315.411 76.8377 315.778 76.5959C316.181 76.3057 316.658 76.0881 317.208 75.943C317.758 75.798 318.345 75.7012 318.968 75.6529C319.628 75.5562 320.215 75.5078 320.728 75.5078C321.938 75.5078 323.093 75.7496 324.193 76.2332C325.33 76.7168 326.301 77.418 327.108 78.3368C327.951 79.2072 328.611 80.2711 329.088 81.5284C329.601 82.7858 329.858 84.1882 329.858 85.7356C329.858 87.7183 329.711 89.5318 329.418 91.176C329.161 92.7718 328.868 94.2709 328.538 95.6733C328.208 97.0274 327.896 98.3089 327.603 99.5178C327.346 100.727 327.218 101.912 327.218 103.072C327.218 104.958 327.658 106.554 328.538 107.86C329.455 109.165 330.555 109.818 331.838 109.818C332.571 109.818 333.25 109.552 333.873 109.02C334.496 108.44 335.046 107.666 335.523 106.699C336 105.732 336.366 104.595 336.623 103.29C336.88 101.936 337.008 100.485 337.008 98.9375C337.008 93.9566 336.678 89.5318 336.018 85.6631C335.358 81.7461 334.478 78.4819 333.378 75.8705L342.068 75.943C343.645 75.943 344.818 76.8618 345.588 78.6995C346.395 80.4887 346.798 83.1243 346.798 86.6061C346.798 88.8789 346.523 90.9584 345.973 92.8443C345.423 94.682 344.726 96.4229 343.883 98.0671C343.04 99.7112 342.123 101.307 341.133 102.855C340.18 104.402 339.281 105.998 338.438 107.642C337.595 109.286 336.898 111.027 336.348 112.865C335.798 114.654 335.523 116.661 335.523 118.885C335.523 120.723 335.596 122.27 335.743 123.528C335.926 124.785 336.348 125.825 337.008 126.647V126.719H325.953Z" fill="#F6EBC8"/>
<path d="M286.574 90.8857C286.574 91.7562 286.758 92.6508 287.124 93.5696C287.528 94.4884 288.078 95.3589 288.774 96.181C289.471 96.9547 290.259 97.7043 291.139 98.4296C292.056 99.1067 293.046 99.6628 294.109 100.098C294.806 100.437 295.283 100.848 295.539 101.331C295.833 101.815 295.943 102.322 295.869 102.854C295.833 103.386 295.631 103.943 295.264 104.523C294.934 105.103 294.531 105.635 294.054 106.119C293.358 106.796 292.643 107.521 291.909 108.295C291.213 109.069 290.626 109.915 290.149 110.834C289.709 111.704 289.453 112.623 289.379 113.59C289.306 114.557 289.563 115.573 290.149 116.637C290.919 118.039 291.726 118.668 292.569 118.523C293.413 118.378 294.201 117.87 294.934 116.999C295.704 116.08 296.328 114.968 296.804 113.663C297.318 112.357 297.611 111.269 297.684 110.398V92.8442C297.684 91.0066 297.409 89.4833 296.859 88.2743C296.309 87.017 295.613 86.074 294.769 85.4454C293.963 84.8167 293.083 84.4782 292.129 84.4298C291.176 84.3331 290.278 84.5266 289.434 85.0101C288.628 85.4937 287.949 86.2433 287.399 87.2588C286.849 88.226 286.574 89.435 286.574 90.8857ZM307.804 115.186C307.731 119.732 308.923 122.923 311.379 124.761C311.636 125.099 311.764 125.51 311.764 125.994C311.764 126.478 311.544 126.719 311.104 126.719H294.549C294.109 126.719 293.908 126.502 293.944 126.067C294.018 125.631 294.183 125.244 294.439 124.906C295.613 123.987 296.474 122.706 297.024 121.061C297.574 119.369 297.831 117.41 297.794 115.186C297.281 116.927 296.603 118.571 295.759 120.118C294.916 121.666 293.981 123.02 292.954 124.181C291.964 125.293 290.883 126.187 289.709 126.864C288.573 127.541 287.454 127.88 286.354 127.88C285.181 127.88 284.081 127.614 283.054 127.082C282.064 126.598 281.203 125.921 280.469 125.051C279.736 124.132 279.149 123.068 278.709 121.859C278.269 120.602 278.049 119.272 278.049 117.87C278.049 116.274 278.361 114.823 278.984 113.517C279.608 112.212 280.414 111.051 281.404 110.036C282.431 109.02 283.586 108.15 284.869 107.424C286.189 106.699 287.528 106.094 288.884 105.611C290.131 105.176 291.194 104.789 292.074 104.45C292.991 104.063 293.449 103.604 293.449 103.072C293.449 102.879 293.174 102.661 292.624 102.419C292.074 102.129 291.378 101.815 290.534 101.476C289.728 101.089 288.829 100.63 287.839 100.098C286.849 99.5177 285.896 98.8165 284.979 97.9944C284.099 97.1723 283.311 96.181 282.614 95.0204C281.918 93.8114 281.478 92.409 281.294 90.8132C281.074 88.9755 281.129 87.1621 281.459 85.3728C281.826 83.5836 282.504 81.9877 283.494 80.5853C284.484 79.1346 285.786 77.974 287.399 77.1035C289.049 76.2331 291.029 75.7979 293.339 75.7979C298.143 75.7979 301.754 77.6597 304.174 81.3833C306.631 85.0585 307.841 90.3538 307.804 97.269V115.186Z" fill="#F6EBC8"/>
<path d="M260.111 126.574C260.441 125.801 260.57 124.954 260.496 124.035C260.423 123.068 260.221 122.029 259.891 120.916C259.561 119.804 259.121 118.571 258.571 117.217C258.058 115.863 257.49 114.364 256.866 112.72L253.236 102.927C252.466 104.039 251.99 105.417 251.806 107.062C251.623 108.657 251.568 110.35 251.641 112.139C251.751 113.88 251.898 115.621 252.081 117.362C252.265 119.103 252.301 120.675 252.191 122.077C252.118 123.431 251.806 124.543 251.256 125.414C250.743 126.284 249.845 126.719 248.561 126.719H242.181C241.778 126.719 241.503 126.55 241.356 126.212C241.21 125.873 241.246 125.438 241.466 124.906C241.76 124.035 242.016 123.213 242.236 122.44C242.456 121.666 242.676 120.795 242.896 119.828C243.153 118.813 243.446 117.628 243.776 116.274C244.106 114.92 244.528 113.227 245.041 111.196C245.848 107.956 246.801 105.417 247.901 103.58C249.038 101.742 250.45 100.509 252.136 99.8804L248.451 89.8702C247.828 88.226 247.168 86.7268 246.471 85.3728C245.775 84.0188 245.096 82.7856 244.436 81.6734C243.813 80.5611 243.226 79.5456 242.676 78.6268C242.126 77.708 241.686 76.8375 241.356 76.0154V75.8704L255.766 75.9429V76.088C255.436 76.9101 255.308 77.7805 255.381 78.6993C255.455 79.6181 255.656 80.6337 255.986 81.7459C256.316 82.8582 256.756 84.0913 257.306 85.4453C257.856 86.751 258.443 88.2501 259.066 89.9427L262.091 98.1395C263.081 97.2206 263.705 96.0359 263.961 94.5851C264.255 93.1343 264.365 91.5869 264.291 89.9427C264.255 88.2985 264.145 86.6543 263.961 85.0101C263.778 83.3176 263.705 81.8185 263.741 80.5128C263.815 79.1587 264.09 78.0707 264.566 77.2486C265.043 76.3781 265.941 75.9429 267.261 75.9429H273.366C274.246 75.9429 274.485 76.499 274.081 77.6113C273.788 78.385 273.531 79.1346 273.311 79.8599C273.091 80.537 272.853 81.3349 272.596 82.2537C272.376 83.1241 272.101 84.1638 271.771 85.3728C271.478 86.5818 271.093 88.1051 270.616 89.9427C269.773 93.1343 268.746 95.5765 267.536 97.269C266.363 98.9615 264.841 100.001 262.971 100.388L267.536 112.72C268.16 114.364 268.82 115.863 269.516 117.217C270.213 118.571 270.891 119.804 271.551 120.916C272.211 122.029 272.816 123.044 273.366 123.963C273.916 124.882 274.356 125.752 274.686 126.574V126.719H260.111V126.574Z" fill="#F6EBC8"/>
<path d="M206.989 115.766C206.989 113.929 207.338 112.284 208.034 110.834C208.768 109.383 209.684 108.101 210.784 106.989C211.884 105.877 213.094 104.934 214.414 104.16C215.734 103.338 217.018 102.661 218.264 102.129C219.511 101.549 220.629 101.089 221.619 100.751C222.609 100.412 223.324 100.171 223.764 100.026C224.094 99.8805 224.333 99.687 224.479 99.4452C224.626 99.1551 224.663 98.8891 224.589 98.6473C224.553 98.4055 224.406 98.2121 224.149 98.067C223.893 97.9219 223.508 97.8736 222.994 97.9219C221.124 98.1154 219.126 98.6473 216.999 99.5178C214.909 100.34 212.874 101.38 210.894 102.637C209.354 103.507 208.309 103.749 207.759 103.362C207.209 102.975 206.934 101.766 206.934 99.7354V86.8962C206.934 84.2848 206.696 82.1812 206.219 80.5854C205.779 78.9412 205.009 77.4663 203.909 76.1606V75.943H217.824V76.1606C216.724 77.4663 215.936 78.9412 215.459 80.5854C215.019 82.1812 214.799 84.2848 214.799 86.8962V94.0774C214.799 95.238 215.074 95.8909 215.624 96.036C216.174 96.1327 216.834 96.0601 217.604 95.8183C221.638 94.6577 224.571 94.4159 226.404 95.093V86.8962C226.404 84.2848 226.166 82.1812 225.689 80.5854C225.249 78.9412 224.479 77.4663 223.379 76.1606V75.943H237.844V76.1606C236.744 77.4663 235.956 78.9412 235.479 80.5854C235.039 82.1812 234.819 84.2848 234.819 86.8962V115.766C234.819 118.378 235.039 120.505 235.479 122.15C235.956 123.745 236.744 125.196 237.844 126.502V126.719H223.434V126.502C224.534 125.196 225.304 123.745 225.744 122.15C226.221 120.505 226.459 118.378 226.459 115.766V102.274C226.056 102.516 225.616 102.734 225.139 102.927C223.599 103.556 222.188 104.257 220.904 105.031C219.658 105.804 218.576 106.675 217.659 107.642C216.743 108.609 216.028 109.721 215.514 110.979C215.038 112.236 214.799 113.663 214.799 115.258V115.766C214.799 118.378 215.019 120.505 215.459 122.15C215.936 123.745 216.724 125.196 217.824 126.502V126.719H203.964V126.502C205.064 125.196 205.834 123.745 206.274 122.15C206.751 120.505 206.989 118.378 206.989 115.766Z" fill="#F6EBC8"/>
<path d="M170.812 126.574C171.473 124.93 171.949 122.899 172.243 120.481C172.573 118.015 172.738 114.896 172.738 111.124V91.5386C172.738 87.7667 172.573 84.6717 172.243 82.2538C171.949 79.7875 171.473 77.7323 170.812 76.0881V75.943H187.588C189.458 75.943 191.163 76.3057 192.703 77.0311C194.279 77.7564 195.636 78.772 196.773 80.0776C197.946 81.3833 198.844 82.9792 199.467 84.8651C200.127 86.7028 200.458 88.758 200.458 91.0308C200.458 93.884 200.091 96.5679 199.358 99.0825C198.661 101.549 197.689 103.701 196.443 105.538C195.233 107.376 193.784 108.827 192.098 109.891C190.448 110.955 188.669 111.487 186.763 111.487C185.626 111.487 184.489 111.196 183.353 110.616C182.253 109.987 181.263 109.093 180.383 107.932C179.539 106.772 178.879 105.345 178.403 103.652C177.926 101.96 177.761 100.026 177.908 97.8494C178.018 96.447 178.384 95.8667 179.008 96.1085C180.951 96.9306 183.004 97.5592 185.168 97.9945C187.368 98.4297 189.384 98.5264 191.218 98.2846C193.051 98.0428 194.554 97.4142 195.728 96.3986C196.938 95.3831 197.543 93.8598 197.543 91.8288C197.543 90.1846 196.938 88.9031 195.728 87.9843C194.554 87.0171 193.033 86.5335 191.163 86.5335C188.779 86.5335 186.616 86.8478 184.673 87.4765C182.766 88.1052 181.116 88.9998 179.723 90.1604C178.366 91.2726 177.303 92.6025 176.533 94.15C175.799 95.6974 175.433 97.39 175.433 99.2276C175.433 103.338 176.203 107.424 177.743 111.487C179.283 115.5 181.648 119.707 184.838 124.108C185.168 124.592 185.333 125.148 185.333 125.776C185.369 126.405 185.076 126.719 184.452 126.719H170.812V126.574Z" fill="#F6EBC8"/>
<path d="M142.049 90.8857C142.049 91.7562 142.232 92.6508 142.599 93.5696C143.002 94.4884 143.552 95.3589 144.249 96.181C144.945 96.9547 145.734 97.7043 146.614 98.4296C147.53 99.1067 148.52 99.6628 149.584 100.098C150.28 100.437 150.757 100.848 151.014 101.331C151.307 101.815 151.417 102.322 151.344 102.854C151.307 103.386 151.105 103.943 150.739 104.523C150.409 105.103 150.005 105.635 149.529 106.119C148.832 106.796 148.117 107.521 147.384 108.295C146.687 109.069 146.1 109.915 145.624 110.834C145.184 111.704 144.927 112.623 144.854 113.59C144.78 114.557 145.037 115.573 145.624 116.637C146.394 118.039 147.2 118.668 148.044 118.523C148.887 118.378 149.675 117.87 150.409 116.999C151.179 116.08 151.802 114.968 152.279 113.663C152.792 112.357 153.085 111.269 153.159 110.398V92.8442C153.159 91.0066 152.884 89.4833 152.334 88.2743C151.784 87.017 151.087 86.074 150.244 85.4454C149.437 84.8167 148.557 84.4782 147.604 84.4298C146.65 84.3331 145.752 84.5266 144.909 85.0101C144.102 85.4937 143.424 86.2433 142.874 87.2588C142.324 88.226 142.049 89.435 142.049 90.8857ZM163.279 115.186C163.205 119.732 164.397 122.923 166.854 124.761C167.11 125.099 167.239 125.51 167.239 125.994C167.239 126.478 167.019 126.719 166.579 126.719H150.024C149.584 126.719 149.382 126.502 149.419 126.067C149.492 125.631 149.657 125.244 149.914 124.906C151.087 123.987 151.949 122.706 152.499 121.061C153.049 119.369 153.305 117.41 153.269 115.186C152.755 116.927 152.077 118.571 151.234 120.118C150.39 121.666 149.455 123.02 148.429 124.181C147.439 125.293 146.357 126.187 145.184 126.864C144.047 127.541 142.929 127.88 141.829 127.88C140.655 127.88 139.555 127.614 138.529 127.082C137.539 126.598 136.677 125.921 135.944 125.051C135.21 124.132 134.624 123.068 134.184 121.859C133.744 120.602 133.524 119.272 133.524 117.87C133.524 116.274 133.835 114.823 134.459 113.517C135.082 112.212 135.889 111.051 136.879 110.036C137.905 109.02 139.06 108.15 140.344 107.424C141.664 106.699 143.002 106.094 144.359 105.611C145.605 105.176 146.669 104.789 147.549 104.45C148.465 104.063 148.924 103.604 148.924 103.072C148.924 102.879 148.649 102.661 148.099 102.419C147.549 102.129 146.852 101.815 146.009 101.476C145.202 101.089 144.304 100.63 143.314 100.098C142.324 99.5177 141.37 98.8165 140.454 97.9944C139.574 97.1723 138.785 96.181 138.089 95.0204C137.392 93.8114 136.952 92.409 136.769 90.8132C136.549 88.9755 136.604 87.1621 136.934 85.3728C137.3 83.5836 137.979 81.9877 138.969 80.5853C139.959 79.1346 141.26 77.974 142.874 77.1035C144.524 76.2331 146.504 75.7979 148.814 75.7979C153.617 75.7979 157.229 77.6597 159.649 81.3833C162.105 85.0585 163.315 90.3538 163.279 97.269V115.186Z" fill="#F6EBC8"/>
<path d="M100 126.719V126.574C101.137 123.479 101.778 120.118 101.925 116.492C102.072 112.816 101.998 109.117 101.705 105.393C101.448 101.621 101.137 97.8978 100.77 94.2225C100.403 90.5473 100.293 87.1138 100.44 83.9221C100.587 81.2624 101.21 79.1105 102.31 77.4663C103.447 75.8221 104.95 75 106.82 75C107.847 75 109.093 75.1209 110.56 75.3627C112.063 75.6045 113.603 75.8463 115.18 76.0881C116.793 76.2815 118.37 76.4266 119.91 76.5233C121.487 76.5717 122.862 76.4508 124.035 76.1606C124.768 75.9672 125.337 75.7496 125.74 75.5078C126.18 75.266 126.455 75.3869 126.565 75.8705C127.188 77.7081 127.427 79.4248 127.28 81.0206C127.133 82.5681 126.675 83.9221 125.905 85.0828C125.172 86.2434 124.163 87.1622 122.88 87.8392C121.633 88.4678 120.185 88.7822 118.535 88.7822C117.582 88.7822 116.72 88.7096 115.95 88.5646C115.217 88.4195 114.282 88.2502 113.145 88.0568C111.825 87.8634 110.615 87.6699 109.515 87.4765C108.415 87.2347 107.48 87.3314 106.71 87.7667C105.94 88.2019 105.353 89.1207 104.95 90.5231C104.547 91.8771 104.382 94.0533 104.455 97.0515C104.492 98.8407 104.693 100.606 105.06 102.347C105.463 104.039 106.013 105.659 106.71 107.207C107.92 109.866 109.387 112.091 111.11 113.88C112.833 115.621 114.648 116.492 116.555 116.492C116.995 116.492 117.453 116.395 117.93 116.201C118.407 115.96 118.847 115.621 119.25 115.186C119.653 114.702 119.983 114.122 120.24 113.445C120.497 112.72 120.625 111.898 120.625 110.979C120.588 109.383 120.368 108.101 119.965 107.134C119.562 106.119 119.048 105.321 118.425 104.74C117.802 104.16 117.105 103.701 116.335 103.362C115.602 103.024 114.887 102.661 114.19 102.274C112.943 101.646 111.733 101.041 110.56 100.461C109.387 99.8805 108.525 99.0342 107.975 97.9219C107.425 96.713 107.26 95.5282 107.48 94.3676C107.737 93.207 108.323 92.2882 109.24 91.6112C109.643 91.321 110.193 91.1276 110.89 91.0308C111.623 90.9341 112.412 91.1276 113.255 91.6112C113.548 91.8529 113.567 92.0947 113.31 92.3365C112.65 93.3037 112.228 94.1742 112.045 94.9479C111.862 95.7216 111.862 96.4228 112.045 97.0515C112.228 97.6801 112.54 98.2121 112.98 98.6473C113.457 99.0825 114.007 99.4694 114.63 99.8079C115.803 100.437 117.013 100.993 118.26 101.476C119.543 101.96 120.772 102.468 121.945 103C123.118 103.483 124.2 104.063 125.19 104.74C126.217 105.369 127.078 106.191 127.775 107.207C128.472 108.174 128.985 109.383 129.315 110.834C129.645 112.236 129.718 113.977 129.535 116.056C129.352 117.701 128.948 119.2 128.325 120.554C127.738 121.859 126.95 122.972 125.96 123.89C124.97 124.809 123.76 125.535 122.33 126.067C120.937 126.55 119.36 126.768 117.6 126.719H100Z" fill="#F6EBC8"/>
<path d="M168.463 42.1465L177.193 15.1934L186.598 33.123L197.438 15.1934L205.816 42.1465H200.074L195.211 25.6816L186.363 43.0254L178.951 25.623L174.264 42.1465H168.463ZM232.898 35.6426C229.988 40.5254 226.004 42.9668 220.945 42.9668C219.09 42.9668 217.41 42.6641 215.906 42.0586C214.383 41.4336 213.074 40.5352 211.98 39.3633C210.906 38.1914 210.076 36.7949 209.49 35.1738C208.924 33.5332 208.641 31.7461 208.641 29.8125C208.641 27.8203 208.924 25.9844 209.49 24.3047C210.076 22.6055 210.896 21.1699 211.951 19.998C213.025 18.8066 214.305 17.8984 215.789 17.2734C217.273 16.6289 218.914 16.3066 220.711 16.3066C222.723 16.3066 224.549 16.7168 226.189 17.5371C227.83 18.3379 229.188 19.4902 230.262 20.9941C231.121 22.1074 231.727 23.3574 232.078 24.7441C232.43 26.1309 232.664 28.0645 232.781 30.5449H214.061C214.119 32.0684 214.451 33.416 215.057 34.5879C215.682 35.7598 216.512 36.6582 217.547 37.2832C218.602 37.9082 219.812 38.2207 221.18 38.2207C224.207 38.2207 226.688 36.4336 228.621 32.8594L232.898 35.6426ZM214.529 26.4727H227.156C226.844 24.6953 226.16 23.3379 225.105 22.4004C224.051 21.4629 222.703 20.9941 221.062 20.9941C217.488 20.9941 215.311 22.8203 214.529 26.4727ZM257.021 40.7402C254.15 42.1465 251.377 42.8496 248.701 42.8496C246.357 42.8496 244.248 42.293 242.373 41.1797C240.498 40.0469 239.033 38.4941 237.979 36.5215C236.904 34.5293 236.367 32.293 236.367 29.8125C236.367 27.8398 236.738 26.0234 237.48 24.3633C238.242 22.7031 239.258 21.2773 240.527 20.0859C241.816 18.875 243.271 17.957 244.893 17.332C246.533 16.6875 248.223 16.3652 249.961 16.3652C252.539 16.3652 254.893 17.0293 257.021 18.3574V24.5977C255.01 22.5078 252.607 21.4629 249.814 21.4629C247.646 21.4629 245.791 22.166 244.248 23.5723C242.725 24.9785 241.963 26.9414 241.963 29.4609C241.963 31.1602 242.266 32.6348 242.871 33.8848C243.477 35.1348 244.355 36.0918 245.508 36.7559C246.641 37.4004 247.979 37.7227 249.521 37.7227C252.139 37.7227 254.639 36.6289 257.021 34.4414V40.7402ZM261.779 17.1855H280.734L280.822 21.6094H273.996V42H268.605V21.6094H261.691L261.779 17.1855ZM298.295 16.3066C300.854 16.3066 303.148 16.873 305.18 18.0059C307.211 19.1387 308.793 20.7305 309.926 22.7812C311.059 24.8125 311.625 27.1172 311.625 29.6953C311.625 32.2344 311.059 34.5098 309.926 36.5215C308.793 38.5332 307.201 40.0957 305.15 41.209C303.1 42.3027 300.775 42.8496 298.178 42.8496C295.639 42.8496 293.373 42.2734 291.381 41.1211C289.389 40.0078 287.836 38.4355 286.723 36.4043C285.629 34.3535 285.082 32.0391 285.082 29.4609C285.082 26.9414 285.639 24.6855 286.752 22.6934C287.865 20.6816 289.428 19.1191 291.439 18.0059C293.451 16.873 295.736 16.3066 298.295 16.3066ZM298.354 21.1113C296.713 21.1113 295.307 21.5215 294.135 22.3418C292.963 23.1426 292.084 24.1875 291.498 25.4766C290.912 26.7656 290.619 28.1523 290.619 29.6367C290.619 31.1016 290.912 32.4785 291.498 33.7676C292.084 35.0371 292.963 36.082 294.135 36.9023C295.307 37.7031 296.713 38.1035 298.354 38.1035C299.975 38.1035 301.352 37.7031 302.484 36.9023C303.637 36.1016 304.496 35.0469 305.062 33.7383C305.648 32.4297 305.941 31.0625 305.941 29.6367C305.941 28.1719 305.648 26.7852 305.062 25.4766C304.496 24.168 303.637 23.1133 302.484 22.3125C301.332 21.5117 299.955 21.1113 298.354 21.1113Z" fill="#F6EBC8"/>
</svg>
