<svg width="435" height="161" viewBox="0 0 435 161" fill="none" xmlns="http://www.w3.org/2000/svg">
<path d="M62.7812 61.0585L66.2734 50.2772L70.0352 57.4491L74.3711 50.2772L77.7227 61.0585H75.4258L73.4805 54.4725L69.9414 61.41L66.9766 54.4491L65.1016 61.0585H62.7812ZM80.3242 51.0741V55.2225H81.543C82.3867 55.2225 83.0938 55.3749 83.6641 55.6796C84.2344 55.9296 84.6719 56.2772 84.9766 56.7225C85.2891 57.16 85.4453 57.6561 85.4453 58.2108C85.4453 58.7733 85.2852 59.2655 84.9648 59.6874C84.6523 60.1014 84.2031 60.4257 83.6172 60.66C83.0391 60.8866 82.3672 60.9999 81.6016 60.9999H78.1094V51.0741H80.3242ZM80.3242 59.6288H81.332C81.668 59.6288 82.0625 59.5038 82.5156 59.2538C82.9531 59.0038 83.1719 58.6483 83.1719 58.1874C83.1719 57.1874 82.5586 56.6874 81.332 56.6874H80.3242V59.6288ZM85.9492 60.9999H88.0469L88.0352 51.0624H85.9492V60.9999ZM99.2734 52.6444C98.6172 52.6444 98.0547 52.8085 97.5859 53.1366C97.1172 53.4569 96.7656 53.8749 96.5312 54.3905C96.2969 54.9061 96.1797 55.4608 96.1797 56.0546C96.1797 56.6405 96.2969 57.1913 96.5312 57.7069C96.7656 58.2147 97.1172 58.6327 97.5859 58.9608C98.0547 59.2811 98.6172 59.4413 99.2734 59.4413C99.9219 59.4413 100.473 59.2811 100.926 58.9608C101.387 58.6405 101.73 58.2186 101.957 57.6952C102.191 57.1718 102.309 56.6249 102.309 56.0546C102.309 55.4686 102.191 54.9139 101.957 54.3905C101.73 53.8671 101.387 53.4452 100.926 53.1249C100.465 52.8046 99.9141 52.6444 99.2734 52.6444ZM97.6211 48.9061C96.8867 49.1483 96.4844 49.996 96.4141 51.4491C96.4453 51.4335 96.4766 51.4139 96.5078 51.3905C97.3125 50.9452 98.2266 50.7225 99.25 50.7225C100.273 50.7225 101.191 50.9491 102.004 51.4022C102.816 51.8553 103.449 52.4921 103.902 53.3124C104.355 54.1249 104.582 55.0468 104.582 56.078C104.582 57.0936 104.355 58.0038 103.902 58.8085C103.449 59.6132 102.812 60.2382 101.992 60.6835C101.172 61.121 100.242 61.3397 99.2031 61.3397C98.1875 61.3397 97.2812 61.1093 96.4844 60.6483C95.6875 60.203 95.0664 59.5741 94.6211 58.7616C94.1836 57.9413 93.9648 57.0155 93.9648 55.9843C93.6914 52.7108 93.918 50.4178 94.6445 49.1053C95.3711 47.785 96.1875 47.0585 97.0938 46.9257C98.0234 46.7928 99.0781 46.7264 100.258 46.7264C101.445 46.7186 102.316 46.1952 102.871 45.1561L104.934 44.91C104.16 47.0507 102.906 48.1483 101.172 48.203C99.4375 48.2577 98.2539 48.4921 97.6211 48.9061ZM104.582 51.0624H107.102L110.125 56.7694L112.867 51.0624H115.246L107.992 65.7343H105.684L109.023 59.0546L104.582 51.0624ZM119.242 59.0897H124.949V52.7499H121.633C121.469 56.3514 120.672 58.4647 119.242 59.0897ZM116.98 59.1366C118.41 58.5116 119.195 55.8241 119.336 51.0741H127.211V59.1366H128.359V63.0624H126.098V61.1171H118.07V63.0624H115.809V59.1366H116.98ZM138.59 58.4569C137.426 60.41 135.832 61.3866 133.809 61.3866C133.066 61.3866 132.395 61.2655 131.793 61.0233C131.184 60.7733 130.66 60.4139 130.223 59.9452C129.793 59.4764 129.461 58.9178 129.227 58.2694C129 57.6132 128.887 56.8983 128.887 56.1249C128.887 55.328 129 54.5936 129.227 53.9218C129.461 53.2421 129.789 52.6678 130.211 52.1991C130.641 51.7225 131.152 51.3593 131.746 51.1093C132.34 50.8514 132.996 50.7225 133.715 50.7225C134.52 50.7225 135.25 50.8866 135.906 51.2147C136.562 51.535 137.105 51.996 137.535 52.5975C137.879 53.0428 138.121 53.5428 138.262 54.0975C138.402 54.6522 138.496 55.4257 138.543 56.4178H131.055C131.078 57.0272 131.211 57.5663 131.453 58.035C131.703 58.5038 132.035 58.8632 132.449 59.1132C132.871 59.3632 133.355 59.4882 133.902 59.4882C135.113 59.4882 136.105 58.7733 136.879 57.3436L138.59 58.4569ZM131.242 54.7889H136.293C136.168 54.078 135.895 53.535 135.473 53.16C135.051 52.785 134.512 52.5975 133.855 52.5975C132.426 52.5975 131.555 53.328 131.242 54.7889ZM138.578 61.0585L142.07 50.2772L145.832 57.4491L150.168 50.2772L153.52 61.0585H151.223L149.277 54.4725L145.738 61.41L142.773 54.4491L140.898 61.0585H138.578ZM163.961 52.6444C163.047 52.6444 162.332 52.9882 161.816 53.6757C161.301 54.3553 161.043 55.1561 161.043 56.078C161.043 56.6639 161.152 57.2186 161.371 57.7421C161.59 58.2655 161.914 58.6874 162.344 59.0077C162.773 59.328 163.289 59.4882 163.891 59.4882C164.516 59.4882 165.047 59.3241 165.484 58.996C165.93 58.6678 166.262 58.2382 166.48 57.7069C166.699 57.1678 166.809 56.6014 166.809 56.0077C166.809 55.4374 166.699 54.8944 166.48 54.3788C166.27 53.8553 165.949 53.4374 165.52 53.1249C165.09 52.8046 164.57 52.6444 163.961 52.6444ZM159.062 65.7343V51.0507L161.184 51.0624V52.2811C161.91 51.2733 162.934 50.7694 164.254 50.7694C165.23 50.7694 166.07 51.0233 166.773 51.5311C167.484 52.0389 168.016 52.6991 168.367 53.5116C168.727 54.3241 168.906 55.1874 168.906 56.1014C168.906 57.0077 168.734 57.8553 168.391 58.6444C168.047 59.4335 167.527 60.0702 166.832 60.5546C166.145 61.0389 165.316 61.2811 164.348 61.2811C163.027 61.2811 161.973 60.785 161.184 59.7928V65.7343H159.062ZM177.262 59.7928C176.934 60.2694 176.492 60.6405 175.938 60.9061C175.383 61.1639 174.77 61.2928 174.098 61.2928C173.238 61.2928 172.457 61.0624 171.754 60.6014C171.059 60.1405 170.512 59.5077 170.113 58.703C169.715 57.8905 169.516 56.9843 169.516 55.9843C169.516 55.0077 169.719 54.121 170.125 53.3241C170.539 52.5272 171.105 51.9022 171.824 51.4491C172.551 50.996 173.355 50.7694 174.238 50.7694C175.598 50.7694 176.605 51.2733 177.262 52.2811V51.0624H179.383V60.9999H177.262V59.7928ZM174.555 52.6444C173.945 52.6444 173.418 52.8046 172.973 53.1249C172.535 53.4452 172.203 53.871 171.977 54.4022C171.758 54.9335 171.648 55.4921 171.648 56.078C171.648 56.6561 171.758 57.2069 171.977 57.7303C172.203 58.2538 172.535 58.6796 172.973 59.0077C173.418 59.328 173.945 59.4882 174.555 59.4882C175.156 59.4882 175.672 59.328 176.102 59.0077C176.531 58.6796 176.855 58.2499 177.074 57.7186C177.301 57.1874 177.414 56.6249 177.414 56.0311C177.414 55.453 177.309 54.9022 177.098 54.3788C176.871 53.8632 176.543 53.4452 176.113 53.1249C175.684 52.8046 175.164 52.6444 174.555 52.6444ZM183.883 59.0897H189.59V52.7499H186.273C186.109 56.3514 185.312 58.4647 183.883 59.0897ZM181.621 59.1366C183.051 58.5116 183.836 55.8241 183.977 51.0741H191.852V59.1366H193V63.0624H190.738V61.1171H182.711V63.0624H180.449V59.1366H181.621ZM196.199 51.0741V55.2225H197.418C198.262 55.2225 198.969 55.3749 199.539 55.6796C200.109 55.9296 200.547 56.2772 200.852 56.7225C201.164 57.16 201.32 57.6561 201.32 58.2108C201.32 58.7733 201.16 59.2655 200.84 59.6874C200.527 60.1014 200.078 60.4257 199.492 60.66C198.914 60.8866 198.242 60.9999 197.477 60.9999H193.984V51.0741H196.199ZM196.199 59.6288H197.207C197.543 59.6288 197.938 59.5038 198.391 59.2538C198.828 59.0038 199.047 58.6483 199.047 58.1874C199.047 57.1874 198.434 56.6874 197.207 56.6874H196.199V59.6288ZM201.824 60.9999H203.922L203.91 51.0624H201.824V60.9999ZM215.195 52.6444C214.281 52.6444 213.566 52.9882 213.051 53.6757C212.535 54.3553 212.277 55.1561 212.277 56.078C212.277 56.6639 212.387 57.2186 212.605 57.7421C212.824 58.2655 213.148 58.6874 213.578 59.0077C214.008 59.328 214.523 59.4882 215.125 59.4882C215.75 59.4882 216.281 59.3241 216.719 58.996C217.164 58.6678 217.496 58.2382 217.715 57.7069C217.934 57.1678 218.043 56.6014 218.043 56.0077C218.043 55.4374 217.934 54.8944 217.715 54.3788C217.504 53.8553 217.184 53.4374 216.754 53.1249C216.324 52.8046 215.805 52.6444 215.195 52.6444ZM210.297 65.7343V51.0507L212.418 51.0624V52.2811C213.145 51.2733 214.168 50.7694 215.488 50.7694C216.465 50.7694 217.305 51.0233 218.008 51.5311C218.719 52.0389 219.25 52.6991 219.602 53.5116C219.961 54.3241 220.141 55.1874 220.141 56.1014C220.141 57.0077 219.969 57.8553 219.625 58.6444C219.281 59.4335 218.762 60.0702 218.066 60.5546C217.379 61.0389 216.551 61.2811 215.582 61.2811C214.262 61.2811 213.207 60.785 212.418 59.7928V65.7343H210.297ZM228.496 59.7928C228.168 60.2694 227.727 60.6405 227.172 60.9061C226.617 61.1639 226.004 61.2928 225.332 61.2928C224.473 61.2928 223.691 61.0624 222.988 60.6014C222.293 60.1405 221.746 59.5077 221.348 58.703C220.949 57.8905 220.75 56.9843 220.75 55.9843C220.75 55.0077 220.953 54.121 221.359 53.3241C221.773 52.5272 222.34 51.9022 223.059 51.4491C223.785 50.996 224.59 50.7694 225.473 50.7694C226.832 50.7694 227.84 51.2733 228.496 52.2811V51.0624H230.617V60.9999H228.496V59.7928ZM225.789 52.6444C225.18 52.6444 224.652 52.8046 224.207 53.1249C223.77 53.4452 223.438 53.871 223.211 54.4022C222.992 54.9335 222.883 55.4921 222.883 56.078C222.883 56.6561 222.992 57.2069 223.211 57.7303C223.438 58.2538 223.77 58.6796 224.207 59.0077C224.652 59.328 225.18 59.4882 225.789 59.4882C226.391 59.4882 226.906 59.328 227.336 59.0077C227.766 58.6796 228.09 58.2499 228.309 57.7186C228.535 57.1874 228.648 56.6249 228.648 56.0311C228.648 55.453 228.543 54.9022 228.332 54.3788C228.105 53.8632 227.777 53.4452 227.348 53.1249C226.918 52.8046 226.398 52.6444 225.789 52.6444ZM233.535 55.3514H235.305C236.852 55.2186 237.625 54.7069 237.625 53.8163C237.625 53.3553 237.418 52.996 237.004 52.7382C236.598 52.4725 236.051 52.3397 235.363 52.3397C234.262 52.3085 233.023 52.371 231.648 52.5272V51.3436C233.281 51.0624 234.52 50.9413 235.363 50.9803C236.207 51.0116 236.945 51.1366 237.578 51.3553C238.211 51.5741 238.695 51.8905 239.031 52.3046C239.375 52.7108 239.547 53.1874 239.547 53.7343C239.547 54.328 239.367 54.7968 239.008 55.1405C238.648 55.4843 238.078 55.7264 237.297 55.8671C239.102 56.078 240.004 56.8866 240.004 58.2928C240.004 58.91 239.777 59.4452 239.324 59.8983C238.871 60.3593 238.277 60.7147 237.543 60.9647C236.809 61.2069 236.035 61.3358 235.223 61.3514C234.41 61.3749 233.617 61.3163 232.844 61.1757C232.078 61.0428 231.629 60.9725 231.496 60.9647V59.6757C233.332 59.9335 234.621 60.0624 235.363 60.0624C236.16 60.0624 236.805 59.9061 237.297 59.5936C237.789 59.2811 238.035 58.8593 238.035 58.328C238.035 57.2733 237.164 56.6757 235.422 56.535H233.535V55.3514ZM244.211 59.0897H249.918V52.7499H246.602C246.438 56.3514 245.641 58.4647 244.211 59.0897ZM241.949 59.1366C243.379 58.5116 244.164 55.8241 244.305 51.0741H252.18V59.1366H253.328V63.0624H251.066V61.1171H243.039V63.0624H240.777V59.1366H241.949ZM263.559 58.4569C262.395 60.41 260.801 61.3866 258.777 61.3866C258.035 61.3866 257.363 61.2655 256.762 61.0233C256.152 60.7733 255.629 60.4139 255.191 59.9452C254.762 59.4764 254.43 58.9178 254.195 58.2694C253.969 57.6132 253.855 56.8983 253.855 56.1249C253.855 55.328 253.969 54.5936 254.195 53.9218C254.43 53.2421 254.758 52.6678 255.18 52.1991C255.609 51.7225 256.121 51.3593 256.715 51.1093C257.309 50.8514 257.965 50.7225 258.684 50.7225C259.488 50.7225 260.219 50.8866 260.875 51.2147C261.531 51.535 262.074 51.996 262.504 52.5975C262.848 53.0428 263.09 53.5428 263.23 54.0975C263.371 54.6522 263.465 55.4257 263.512 56.4178H256.023C256.047 57.0272 256.18 57.5663 256.422 58.035C256.672 58.5038 257.004 58.8632 257.418 59.1132C257.84 59.3632 258.324 59.4882 258.871 59.4882C260.082 59.4882 261.074 58.7733 261.848 57.3436L263.559 58.4569ZM256.211 54.7889H261.262C261.137 54.078 260.863 53.535 260.441 53.16C260.02 52.785 259.48 52.5975 258.824 52.5975C257.395 52.5975 256.523 53.328 256.211 54.7889ZM271.434 53.0428H268.129V56.6757C268.129 57.3007 268.062 57.8944 267.93 58.4569C267.789 59.0116 267.57 59.5116 267.273 59.9569C266.977 60.4022 266.59 60.7538 266.113 61.0116C265.637 61.2616 265.078 61.3866 264.438 61.3866C264.289 61.3866 264.145 61.3788 264.004 61.3632V59.2655C264.098 59.2811 264.195 59.2889 264.297 59.2889C264.867 59.2889 265.27 59.1014 265.504 58.7264C265.738 58.3436 265.855 57.7069 265.855 56.8163L265.844 51.0858H273.695V60.9999H271.434V53.0428ZM282.449 61.0585V54.8007L274.938 61.41V51.0858H277.176V57.3085L284.688 50.5936V61.0585H282.449ZM285.953 51.0741H293.535L293.57 52.8436H290.84V60.9999H288.684V52.8436H285.918L285.953 51.0741ZM296.699 51.0741V55.2225H297.918C298.762 55.2225 299.469 55.3749 300.039 55.6796C300.609 55.9296 301.047 56.2772 301.352 56.7225C301.664 57.16 301.82 57.6561 301.82 58.2108C301.82 58.7733 301.66 59.2655 301.34 59.6874C301.027 60.1014 300.578 60.4257 299.992 60.66C299.414 60.8866 298.742 60.9999 297.977 60.9999H294.484V51.0741H296.699ZM296.699 59.6288H297.707C298.043 59.6288 298.438 59.5038 298.891 59.2538C299.328 59.0038 299.547 58.6483 299.547 58.1874C299.547 57.1874 298.934 56.6874 297.707 56.6874H296.699V59.6288ZM315.836 60.496C314.688 61.0585 313.578 61.3397 312.508 61.3397C311.57 61.3397 310.727 61.1171 309.977 60.6718C309.227 60.2186 308.641 59.5975 308.219 58.8085C307.789 58.0116 307.574 57.1171 307.574 56.1249C307.574 55.3358 307.723 54.6093 308.02 53.9452C308.324 53.2811 308.73 52.7108 309.238 52.2343C309.754 51.7499 310.336 51.3827 310.984 51.1327C311.641 50.8749 312.316 50.746 313.012 50.746C314.043 50.746 314.984 51.0116 315.836 51.5428V54.0389C315.031 53.203 314.07 52.785 312.953 52.785C312.086 52.785 311.344 53.0663 310.727 53.6288C310.117 54.1913 309.812 54.9764 309.812 55.9843C309.812 56.6639 309.934 57.2538 310.176 57.7538C310.418 58.2538 310.77 58.6366 311.23 58.9022C311.684 59.16 312.219 59.2889 312.836 59.2889C313.883 59.2889 314.883 58.8514 315.836 57.9764V60.496ZM321.484 60.9999V51.0741H324.977C326.016 51.0741 326.828 51.2968 327.414 51.7421C328 52.1874 328.293 52.7968 328.293 53.5702C328.293 54.1093 328.121 54.5702 327.777 54.953C327.441 55.328 326.984 55.5624 326.406 55.6561C327.297 55.7108 327.996 55.9882 328.504 56.4882C329.012 56.9882 329.266 57.5702 329.266 58.2343C329.266 58.5389 329.207 58.8358 329.09 59.1249C328.98 59.4139 328.805 59.6874 328.562 59.9452C328.32 60.1952 328.035 60.3983 327.707 60.5546C327.121 60.8514 326.281 60.9999 325.188 60.9999H321.484ZM323.488 59.7343H325.023C326.406 59.8124 327.098 59.285 327.098 58.1522C327.098 57.0116 326.379 56.4413 324.941 56.4413H323.488V59.7343ZM323.488 54.9647H324.426C325.004 54.9647 325.461 54.8436 325.797 54.6014C326.117 54.3671 326.277 54.0389 326.277 53.6171C326.277 53.2577 326.109 52.9608 325.773 52.7264C325.438 52.4921 325.039 52.3749 324.578 52.3749H323.488V54.9647ZM337.715 59.7928C337.387 60.2694 336.945 60.6405 336.391 60.9061C335.836 61.1639 335.223 61.2928 334.551 61.2928C333.691 61.2928 332.91 61.0624 332.207 60.6014C331.512 60.1405 330.965 59.5077 330.566 58.703C330.168 57.8905 329.969 56.9843 329.969 55.9843C329.969 55.0077 330.172 54.121 330.578 53.3241C330.992 52.5272 331.559 51.9022 332.277 51.4491C333.004 50.996 333.809 50.7694 334.691 50.7694C336.051 50.7694 337.059 51.2733 337.715 52.2811V51.0624H339.836V60.9999H337.715V59.7928ZM335.008 52.6444C334.398 52.6444 333.871 52.8046 333.426 53.1249C332.988 53.4452 332.656 53.871 332.43 54.4022C332.211 54.9335 332.102 55.4921 332.102 56.078C332.102 56.6561 332.211 57.2069 332.43 57.7303C332.656 58.2538 332.988 58.6796 333.426 59.0077C333.871 59.328 334.398 59.4882 335.008 59.4882C335.609 59.4882 336.125 59.328 336.555 59.0077C336.984 58.6796 337.309 58.2499 337.527 57.7186C337.754 57.1874 337.867 56.6249 337.867 56.0311C337.867 55.453 337.762 54.9022 337.551 54.3788C337.324 53.8632 336.996 53.4452 336.566 53.1249C336.137 52.8046 335.617 52.6444 335.008 52.6444ZM340.422 61.0585L343.914 50.2772L347.676 57.4491L352.012 50.2772L355.363 61.0585H353.066L351.121 54.4725L347.582 61.41L344.617 54.4491L342.742 61.0585H340.422ZM363.191 61.0585V54.8007L355.68 61.41V51.0858H357.918V57.3085L365.43 50.5936V61.0585H363.191ZM57.4727 78.8749H53.2656V77.0585H57.4492C57.3164 76.4803 57.0469 76.0038 56.6406 75.6288C56.0234 75.0663 55.2812 74.785 54.4141 74.785C53.2969 74.785 52.3359 75.203 51.5312 76.0389V73.5428C52.3828 73.0116 53.3242 72.746 54.3555 72.746C55.0508 72.746 55.7266 72.8749 56.3828 73.1327C57.0312 73.3827 57.6133 73.7499 58.1289 74.2343C58.6367 74.7108 59.043 75.2811 59.3477 75.9452C59.6445 76.6093 59.793 77.3358 59.793 78.1249C59.793 79.1171 59.5781 80.0116 59.1484 80.8085C58.7266 81.5975 58.1406 82.2186 57.3906 82.6718C56.6406 83.1171 55.7969 83.3397 54.8594 83.3397C53.7891 83.3397 52.6797 83.0585 51.5312 82.496V79.9764C52.4844 80.8514 53.4844 81.2889 54.5312 81.2889C55.1484 81.2889 55.6836 81.16 56.1367 80.9022C56.5977 80.6366 56.9492 80.2538 57.1914 79.7538C57.3242 79.4882 57.418 79.1952 57.4727 78.8749ZM60.4961 73.0741H68.0781L68.1133 74.8436H65.3828V82.9999H63.2266V74.8436H60.4609L60.4961 73.0741ZM73.9023 72.7225C74.9258 72.7225 75.8438 72.9491 76.6562 73.4022C77.4688 73.8553 78.1016 74.4921 78.5547 75.3124C79.0078 76.1249 79.2344 77.0468 79.2344 78.078C79.2344 79.0936 79.0078 80.0038 78.5547 80.8085C78.1016 81.6132 77.4648 82.2382 76.6445 82.6835C75.8242 83.121 74.8945 83.3397 73.8555 83.3397C72.8398 83.3397 71.9336 83.1093 71.1367 82.6483C70.3398 82.203 69.7188 81.5741 69.2734 80.7616C68.8359 79.9413 68.6172 79.0155 68.6172 77.9843C68.6172 76.9764 68.8398 76.0741 69.2852 75.2772C69.7305 74.4725 70.3555 73.8475 71.1602 73.4022C71.9648 72.9491 72.8789 72.7225 73.9023 72.7225ZM73.9258 74.6444C73.2695 74.6444 72.707 74.8085 72.2383 75.1366C71.7695 75.4569 71.418 75.8749 71.1836 76.3905C70.9492 76.9061 70.832 77.4608 70.832 78.0546C70.832 78.6405 70.9492 79.1913 71.1836 79.7069C71.418 80.2147 71.7695 80.6327 72.2383 80.9608C72.707 81.2811 73.2695 81.4413 73.9258 81.4413C74.5742 81.4413 75.125 81.2811 75.5781 80.9608C76.0391 80.6405 76.3828 80.2186 76.6094 79.6952C76.8438 79.1718 76.9609 78.6249 76.9609 78.0546C76.9609 77.4686 76.8438 76.9139 76.6094 76.3905C76.3828 75.8671 76.0391 75.4452 75.5781 75.1249C75.1172 74.8046 74.5664 74.6444 73.9258 74.6444ZM79.7852 73.0741H87.3672L87.4023 74.8436H84.6719V82.9999H82.5156V74.8436H79.75L79.7852 73.0741ZM93.3086 82.9999V73.0741H96.8008C97.8398 73.0741 98.6523 73.2968 99.2383 73.7421C99.8242 74.1874 100.117 74.7968 100.117 75.5702C100.117 76.1093 99.9453 76.5702 99.6016 76.953C99.2656 77.328 98.8086 77.5624 98.2305 77.6561C99.1211 77.7108 99.8203 77.9882 100.328 78.4882C100.836 78.9882 101.09 79.5702 101.09 80.2343C101.09 80.5389 101.031 80.8358 100.914 81.1249C100.805 81.4139 100.629 81.6874 100.387 81.9452C100.145 82.1952 99.8594 82.3983 99.5312 82.5546C98.9453 82.8514 98.1055 82.9999 97.0117 82.9999H93.3086ZM95.3125 81.7343H96.8477C98.2305 81.8124 98.9219 81.285 98.9219 80.1522C98.9219 79.0116 98.2031 78.4413 96.7656 78.4413H95.3125V81.7343ZM95.3125 76.9647H96.25C96.8281 76.9647 97.2852 76.8436 97.6211 76.6014C97.9414 76.3671 98.1016 76.0389 98.1016 75.6171C98.1016 75.2577 97.9336 74.9608 97.5977 74.7264C97.2617 74.4921 96.8633 74.3749 96.4023 74.3749H95.3125V76.9647ZM109.539 81.7928C109.211 82.2694 108.77 82.6405 108.215 82.9061C107.66 83.1639 107.047 83.2928 106.375 83.2928C105.516 83.2928 104.734 83.0624 104.031 82.6014C103.336 82.1405 102.789 81.5077 102.391 80.703C101.992 79.8905 101.793 78.9843 101.793 77.9843C101.793 77.0077 101.996 76.121 102.402 75.3241C102.816 74.5272 103.383 73.9022 104.102 73.4491C104.828 72.996 105.633 72.7694 106.516 72.7694C107.875 72.7694 108.883 73.2733 109.539 74.2811V73.0624H111.66V82.9999H109.539V81.7928ZM106.832 74.6444C106.223 74.6444 105.695 74.8046 105.25 75.1249C104.812 75.4452 104.48 75.871 104.254 76.4022C104.035 76.9335 103.926 77.4921 103.926 78.078C103.926 78.6561 104.035 79.2069 104.254 79.7303C104.48 80.2538 104.812 80.6796 105.25 81.0077C105.695 81.328 106.223 81.4882 106.832 81.4882C107.434 81.4882 107.949 81.328 108.379 81.0077C108.809 80.6796 109.133 80.2499 109.352 79.7186C109.578 79.1874 109.691 78.6249 109.691 78.0311C109.691 77.453 109.586 76.9022 109.375 76.3788C109.148 75.8632 108.82 75.4452 108.391 75.1249C107.961 74.8046 107.441 74.6444 106.832 74.6444ZM121.234 73.0624V76.6835L124.68 73.0624H127.469L122.934 77.4803L127.855 82.9999H124.996L121.234 78.4647V82.9999H119.055V78.4647L115.293 82.9999H112.434L117.355 77.4803L112.82 73.0624H115.609L119.055 76.6835V73.0624H121.234ZM134.91 78.7225H130.398V82.9999H128.301V73.0975H130.387V76.8358H134.91V73.0975H136.996L137.008 82.9999H134.91V78.7225ZM140.289 73.0741V77.2225H141.508C142.352 77.2225 143.059 77.3749 143.629 77.6796C144.199 77.9296 144.637 78.2772 144.941 78.7225C145.254 79.16 145.41 79.6561 145.41 80.2108C145.41 80.7733 145.25 81.2655 144.93 81.6874C144.617 82.1014 144.168 82.4257 143.582 82.66C143.004 82.8866 142.332 82.9999 141.566 82.9999H138.074V73.0741H140.289ZM140.289 81.6288H141.297C141.633 81.6288 142.027 81.5038 142.48 81.2538C142.918 81.0038 143.137 80.6483 143.137 80.1874C143.137 79.1874 142.523 78.6874 141.297 78.6874H140.289V81.6288ZM145.914 82.9999H148.012L148 73.0624H145.914V82.9999ZM156.672 83.0585V76.8007L149.16 83.41V73.0858H151.398V79.3085L158.91 72.5936V83.0585H156.672ZM151.082 69.828C151.84 71.8514 152.926 72.8788 154.34 72.91C155.762 72.9335 156.793 71.9061 157.434 69.828H155.605C155.66 70.8514 155.27 71.5428 154.434 71.9022C153.605 71.4569 153.156 70.7655 153.086 69.828H151.082ZM172.68 83.0585V76.8007L165.168 83.41V73.0858H167.406V79.3085L174.918 72.5936V83.0585H172.68ZM181.129 82.9999V73.0741H184.621C185.66 73.0741 186.473 73.2968 187.059 73.7421C187.645 74.1874 187.938 74.7968 187.938 75.5702C187.938 76.1093 187.766 76.5702 187.422 76.953C187.086 77.328 186.629 77.5624 186.051 77.6561C186.941 77.7108 187.641 77.9882 188.148 78.4882C188.656 78.9882 188.91 79.5702 188.91 80.2343C188.91 80.5389 188.852 80.8358 188.734 81.1249C188.625 81.4139 188.449 81.6874 188.207 81.9452C187.965 82.1952 187.68 82.3983 187.352 82.5546C186.766 82.8514 185.926 82.9999 184.832 82.9999H181.129ZM183.133 81.7343H184.668C186.051 81.8124 186.742 81.285 186.742 80.1522C186.742 79.0116 186.023 78.4413 184.586 78.4413H183.133V81.7343ZM183.133 76.9647H184.07C184.648 76.9647 185.105 76.8436 185.441 76.6014C185.762 76.3671 185.922 76.0389 185.922 75.6171C185.922 75.2577 185.754 74.9608 185.418 74.7264C185.082 74.4921 184.684 74.3749 184.223 74.3749H183.133V76.9647ZM194.699 72.7225C195.723 72.7225 196.641 72.9491 197.453 73.4022C198.266 73.8553 198.898 74.4921 199.352 75.3124C199.805 76.1249 200.031 77.0468 200.031 78.078C200.031 79.0936 199.805 80.0038 199.352 80.8085C198.898 81.6132 198.262 82.2382 197.441 82.6835C196.621 83.121 195.691 83.3397 194.652 83.3397C193.637 83.3397 192.73 83.1093 191.934 82.6483C191.137 82.203 190.516 81.5741 190.07 80.7616C189.633 79.9413 189.414 79.0155 189.414 77.9843C189.414 76.9764 189.637 76.0741 190.082 75.2772C190.527 74.4725 191.152 73.8475 191.957 73.4022C192.762 72.9491 193.676 72.7225 194.699 72.7225ZM194.723 74.6444C194.066 74.6444 193.504 74.8085 193.035 75.1366C192.566 75.4569 192.215 75.8749 191.98 76.3905C191.746 76.9061 191.629 77.4608 191.629 78.0546C191.629 78.6405 191.746 79.1913 191.98 79.7069C192.215 80.2147 192.566 80.6327 193.035 80.9608C193.504 81.2811 194.066 81.4413 194.723 81.4413C195.371 81.4413 195.922 81.2811 196.375 80.9608C196.836 80.6405 197.18 80.2186 197.406 79.6952C197.641 79.1718 197.758 78.6249 197.758 78.0546C197.758 77.4686 197.641 76.9139 197.406 76.3905C197.18 75.8671 196.836 75.4452 196.375 75.1249C195.914 74.8046 195.363 74.6444 194.723 74.6444ZM207.953 75.0428H204.648V78.6757C204.648 79.3007 204.582 79.8944 204.449 80.4569C204.309 81.0116 204.09 81.5116 203.793 81.9569C203.496 82.4022 203.109 82.7538 202.633 83.0116C202.156 83.2616 201.598 83.3866 200.957 83.3866C200.809 83.3866 200.664 83.3788 200.523 83.3632V81.2655C200.617 81.2811 200.715 81.2889 200.816 81.2889C201.387 81.2889 201.789 81.1014 202.023 80.7264C202.258 80.3436 202.375 79.7069 202.375 78.8163L202.363 73.0858H210.215V82.9999H207.953V75.0428ZM218.113 78.7225H213.602V82.9999H211.504V73.0975H213.59V76.8358H218.113V73.0975H220.199L220.211 82.9999H218.113V78.7225ZM228.719 83.0585V76.8007L221.207 83.41V73.0858H223.445V79.3085L230.957 72.5936V83.0585H228.719ZM232.223 73.0741H239.805L239.84 74.8436H237.109V82.9999H234.953V74.8436H232.188L232.223 73.0741ZM250 80.4569C248.836 82.41 247.242 83.3866 245.219 83.3866C244.477 83.3866 243.805 83.2655 243.203 83.0233C242.594 82.7733 242.07 82.4139 241.633 81.9452C241.203 81.4764 240.871 80.9178 240.637 80.2694C240.41 79.6132 240.297 78.8983 240.297 78.1249C240.297 77.328 240.41 76.5936 240.637 75.9218C240.871 75.2421 241.199 74.6678 241.621 74.1991C242.051 73.7225 242.562 73.3593 243.156 73.1093C243.75 72.8514 244.406 72.7225 245.125 72.7225C245.93 72.7225 246.66 72.8866 247.316 73.2147C247.973 73.535 248.516 73.996 248.945 74.5975C249.289 75.0428 249.531 75.5428 249.672 76.0975C249.812 76.6522 249.906 77.4257 249.953 78.4178H242.465C242.488 79.0272 242.621 79.5663 242.863 80.035C243.113 80.5038 243.445 80.8632 243.859 81.1132C244.281 81.3632 244.766 81.4882 245.312 81.4882C246.523 81.4882 247.516 80.7733 248.289 79.3436L250 80.4569ZM242.652 76.7889H247.703C247.578 76.078 247.305 75.535 246.883 75.16C246.461 74.785 245.922 74.5975 245.266 74.5975C243.836 74.5975 242.965 75.328 242.652 76.7889ZM257.875 75.0428H254.57V78.6757C254.57 79.3007 254.504 79.8944 254.371 80.4569C254.23 81.0116 254.012 81.5116 253.715 81.9569C253.418 82.4022 253.031 82.7538 252.555 83.0116C252.078 83.2616 251.52 83.3866 250.879 83.3866C250.73 83.3866 250.586 83.3788 250.445 83.3632V81.2655C250.539 81.2811 250.637 81.2889 250.738 81.2889C251.309 81.2889 251.711 81.1014 251.945 80.7264C252.18 80.3436 252.297 79.7069 252.297 78.8163L252.285 73.0858H260.137V82.9999H257.875V75.0428ZM263.664 73.0741V77.2225H264.883C265.727 77.2225 266.434 77.3749 267.004 77.6796C267.574 77.9296 268.012 78.2772 268.316 78.7225C268.629 79.16 268.785 79.6561 268.785 80.2108C268.785 80.7733 268.625 81.2655 268.305 81.6874C267.992 82.1014 267.543 82.4257 266.957 82.66C266.379 82.8866 265.707 82.9999 264.941 82.9999H261.449V73.0741H263.664ZM263.664 81.6288H264.672C265.008 81.6288 265.402 81.5038 265.855 81.2538C266.293 81.0038 266.512 80.6483 266.512 80.1874C266.512 79.1874 265.898 78.6874 264.672 78.6874H263.664V81.6288ZM276.285 78.7225H271.773V82.9999H269.676V73.0975H271.762V76.8358H276.285V73.0975H278.371L278.383 82.9999H276.285V78.7225ZM281.664 73.0741V77.2225H282.883C283.727 77.2225 284.434 77.3749 285.004 77.6796C285.574 77.9296 286.012 78.2772 286.316 78.7225C286.629 79.16 286.785 79.6561 286.785 80.2108C286.785 80.7733 286.625 81.2655 286.305 81.6874C285.992 82.1014 285.543 82.4257 284.957 82.66C284.379 82.8866 283.707 82.9999 282.941 82.9999H279.449V73.0741H281.664ZM281.664 81.6288H282.672C283.008 81.6288 283.402 81.5038 283.855 81.2538C284.293 81.0038 284.512 80.6483 284.512 80.1874C284.512 79.1874 283.898 78.6874 282.672 78.6874H281.664V81.6288ZM287.289 82.9999H289.387L289.375 73.0624H287.289V82.9999ZM298.047 83.0585V76.8007L290.535 83.41V73.0858H292.773V79.3085L300.285 72.5936V83.0585H298.047ZM292.457 69.828C293.215 71.8514 294.301 72.8788 295.715 72.91C297.137 72.9335 298.168 71.9061 298.809 69.828H296.98C297.035 70.8514 296.645 71.5428 295.809 71.9022C294.98 71.4569 294.531 70.7655 294.461 69.828H292.457ZM306.145 83.0585L309.637 72.2772L313.398 79.4491L317.734 72.2772L321.086 83.0585H318.789L316.844 76.4725L313.305 83.41L310.34 76.4491L308.465 83.0585H306.145ZM326.348 72.7225C327.371 72.7225 328.289 72.9491 329.102 73.4022C329.914 73.8553 330.547 74.4921 331 75.3124C331.453 76.1249 331.68 77.0468 331.68 78.078C331.68 79.0936 331.453 80.0038 331 80.8085C330.547 81.6132 329.91 82.2382 329.09 82.6835C328.27 83.121 327.34 83.3397 326.301 83.3397C325.285 83.3397 324.379 83.1093 323.582 82.6483C322.785 82.203 322.164 81.5741 321.719 80.7616C321.281 79.9413 321.062 79.0155 321.062 77.9843C321.062 76.9764 321.285 76.0741 321.73 75.2772C322.176 74.4725 322.801 73.8475 323.605 73.4022C324.41 72.9491 325.324 72.7225 326.348 72.7225ZM326.371 74.6444C325.715 74.6444 325.152 74.8085 324.684 75.1366C324.215 75.4569 323.863 75.8749 323.629 76.3905C323.395 76.9061 323.277 77.4608 323.277 78.0546C323.277 78.6405 323.395 79.1913 323.629 79.7069C323.863 80.2147 324.215 80.6327 324.684 80.9608C325.152 81.2811 325.715 81.4413 326.371 81.4413C327.02 81.4413 327.57 81.2811 328.023 80.9608C328.484 80.6405 328.828 80.2186 329.055 79.6952C329.289 79.1718 329.406 78.6249 329.406 78.0546C329.406 77.4686 329.289 76.9139 329.055 76.3905C328.828 75.8671 328.484 75.4452 328.023 75.1249C327.562 74.8046 327.012 74.6444 326.371 74.6444ZM331.715 83.0585L335.207 72.2772L338.969 79.4491L343.305 72.2772L346.656 83.0585H344.359L342.414 76.4725L338.875 83.41L335.91 76.4491L334.035 83.0585H331.715ZM356.289 80.4569C355.125 82.41 353.531 83.3866 351.508 83.3866C350.766 83.3866 350.094 83.2655 349.492 83.0233C348.883 82.7733 348.359 82.4139 347.922 81.9452C347.492 81.4764 347.16 80.9178 346.926 80.2694C346.699 79.6132 346.586 78.8983 346.586 78.1249C346.586 77.328 346.699 76.5936 346.926 75.9218C347.16 75.2421 347.488 74.6678 347.91 74.1991C348.34 73.7225 348.852 73.3593 349.445 73.1093C350.039 72.8514 350.695 72.7225 351.414 72.7225C352.219 72.7225 352.949 72.8866 353.605 73.2147C354.262 73.535 354.805 73.996 355.234 74.5975C355.578 75.0428 355.82 75.5428 355.961 76.0975C356.102 76.6522 356.195 77.4257 356.242 78.4178H348.754C348.777 79.0272 348.91 79.5663 349.152 80.035C349.402 80.5038 349.734 80.8632 350.148 81.1132C350.57 81.3632 351.055 81.4882 351.602 81.4882C352.812 81.4882 353.805 80.7733 354.578 79.3436L356.289 80.4569ZM348.941 76.7889H353.992C353.867 76.078 353.594 75.535 353.172 75.16C352.75 74.785 352.211 74.5975 351.555 74.5975C350.125 74.5975 349.254 75.328 348.941 76.7889ZM363.332 78.7225H358.82V82.9999H356.723V73.0975H358.809V76.8358H363.332V73.0975H365.418L365.43 82.9999H363.332V78.7225ZM366.543 73.0741H374.125L374.16 74.8436H371.43V82.9999H369.273V74.8436H366.508L366.543 73.0741ZM373.363 85.8358L375.672 80.3046L377.746 81.0546L374.91 86.4569L373.363 85.8358ZM32.2773 103.793C31.9492 104.269 31.5078 104.641 30.9531 104.906C30.3984 105.164 29.7852 105.293 29.1133 105.293C28.2539 105.293 27.4727 105.062 26.7695 104.601C26.0742 104.141 25.5273 103.508 25.1289 102.703C24.7305 101.891 24.5312 100.984 24.5312 99.9843C24.5312 99.0077 24.7344 98.121 25.1406 97.3241C25.5547 96.5272 26.1211 95.9022 26.8398 95.4491C27.5664 94.996 28.3711 94.7694 29.2539 94.7694C30.6133 94.7694 31.6211 95.2733 32.2773 96.2811V95.0624H34.3984V105H32.2773V103.793ZM29.5703 96.6444C28.9609 96.6444 28.4336 96.8046 27.9883 97.1249C27.5508 97.4452 27.2188 97.871 26.9922 98.4022C26.7734 98.9335 26.6641 99.4921 26.6641 100.078C26.6641 100.656 26.7734 101.207 26.9922 101.73C27.2188 102.254 27.5508 102.68 27.9883 103.008C28.4336 103.328 28.9609 103.488 29.5703 103.488C30.1719 103.488 30.6875 103.328 31.1172 103.008C31.5469 102.68 31.8711 102.25 32.0898 101.719C32.3164 101.187 32.4297 100.625 32.4297 100.031C32.4297 99.453 32.3242 98.9022 32.1133 98.3788C31.8867 97.8632 31.5586 97.4452 31.1289 97.1249C30.6992 96.8046 30.1797 96.6444 29.5703 96.6444ZM47.1484 97.0077H42.6367V105H40.5391V95.0975H49.2344L49.2461 105H47.1484V97.0077ZM55.1875 94.7225C56.2109 94.7225 57.1289 94.9491 57.9414 95.4022C58.7539 95.8553 59.3867 96.4921 59.8398 97.3124C60.293 98.1249 60.5195 99.0468 60.5195 100.078C60.5195 101.094 60.293 102.004 59.8398 102.808C59.3867 103.613 58.75 104.238 57.9297 104.683C57.1094 105.121 56.1797 105.34 55.1406 105.34C54.125 105.34 53.2188 105.109 52.4219 104.648C51.625 104.203 51.0039 103.574 50.5586 102.762C50.1211 101.941 49.9023 101.016 49.9023 99.9843C49.9023 98.9764 50.125 98.0741 50.5703 97.2772C51.0156 96.4725 51.6406 95.8475 52.4453 95.4022C53.25 94.9491 54.1641 94.7225 55.1875 94.7225ZM55.2109 96.6444C54.5547 96.6444 53.9922 96.8085 53.5234 97.1366C53.0547 97.4569 52.7031 97.8749 52.4688 98.3905C52.2344 98.9061 52.1172 99.4608 52.1172 100.055C52.1172 100.641 52.2344 101.191 52.4688 101.707C52.7031 102.215 53.0547 102.633 53.5234 102.961C53.9922 103.281 54.5547 103.441 55.2109 103.441C55.8594 103.441 56.4102 103.281 56.8633 102.961C57.3242 102.641 57.668 102.219 57.8945 101.695C58.1289 101.172 58.2461 100.625 58.2461 100.055C58.2461 99.4686 58.1289 98.9139 57.8945 98.3905C57.668 97.8671 57.3242 97.4452 56.8633 97.1249C56.4023 96.8046 55.8516 96.6444 55.2109 96.6444ZM61.0703 95.0741H68.6523L68.6875 96.8436H65.957V105H63.8008V96.8436H61.0352L61.0703 95.0741ZM74.4766 94.7225C75.5 94.7225 76.418 94.9491 77.2305 95.4022C78.043 95.8553 78.6758 96.4921 79.1289 97.3124C79.582 98.1249 79.8086 99.0468 79.8086 100.078C79.8086 101.094 79.582 102.004 79.1289 102.808C78.6758 103.613 78.0391 104.238 77.2188 104.683C76.3984 105.121 75.4688 105.34 74.4297 105.34C73.4141 105.34 72.5078 105.109 71.7109 104.648C70.9141 104.203 70.293 103.574 69.8477 102.762C69.4102 101.941 69.1914 101.016 69.1914 99.9843C69.1914 98.9764 69.4141 98.0741 69.8594 97.2772C70.3047 96.4725 70.9297 95.8475 71.7344 95.4022C72.5391 94.9491 73.4531 94.7225 74.4766 94.7225ZM74.5 96.6444C73.8438 96.6444 73.2812 96.8085 72.8125 97.1366C72.3438 97.4569 71.9922 97.8749 71.7578 98.3905C71.5234 98.9061 71.4062 99.4608 71.4062 100.055C71.4062 100.641 71.5234 101.191 71.7578 101.707C71.9922 102.215 72.3438 102.633 72.8125 102.961C73.2812 103.281 73.8438 103.441 74.5 103.441C75.1484 103.441 75.6992 103.281 76.1523 102.961C76.6133 102.641 76.957 102.219 77.1836 101.695C77.418 101.172 77.5352 100.625 77.5352 100.055C77.5352 99.4686 77.418 98.9139 77.1836 98.3905C76.957 97.8671 76.6133 97.4452 76.1523 97.1249C75.6914 96.8046 75.1406 96.6444 74.5 96.6444ZM79.8438 105.058L83.3359 94.2772L87.0977 101.449L91.4336 94.2772L94.7852 105.058H92.4883L90.543 98.4725L87.0039 105.41L84.0391 98.4491L82.1641 105.058H79.8438ZM105.156 94.7225C106.18 94.7225 107.098 94.9491 107.91 95.4022C108.723 95.8553 109.355 96.4921 109.809 97.3124C110.262 98.1249 110.488 99.0468 110.488 100.078C110.488 101.094 110.262 102.004 109.809 102.808C109.355 103.613 108.719 104.238 107.898 104.683C107.078 105.121 106.148 105.34 105.109 105.34C104.094 105.34 103.188 105.109 102.391 104.648C101.594 104.203 100.973 103.574 100.527 102.762C100.09 101.941 99.8711 101.016 99.8711 99.9843C99.8711 98.9764 100.094 98.0741 100.539 97.2772C100.984 96.4725 101.609 95.8475 102.414 95.4022C103.219 94.9491 104.133 94.7225 105.156 94.7225ZM105.18 96.6444C104.523 96.6444 103.961 96.8085 103.492 97.1366C103.023 97.4569 102.672 97.8749 102.438 98.3905C102.203 98.9061 102.086 99.4608 102.086 100.055C102.086 100.641 102.203 101.191 102.438 101.707C102.672 102.215 103.023 102.633 103.492 102.961C103.961 103.281 104.523 103.441 105.18 103.441C105.828 103.441 106.379 103.281 106.832 102.961C107.293 102.641 107.637 102.219 107.863 101.695C108.098 101.172 108.215 100.625 108.215 100.055C108.215 99.4686 108.098 98.9139 107.863 98.3905C107.637 97.8671 107.293 97.4452 106.832 97.1249C106.371 96.8046 105.82 96.6444 105.18 96.6444ZM111.039 95.0741H118.621L118.656 96.8436H115.926V105H113.77V96.8436H111.004L111.039 95.0741ZM119.102 105.058L122.594 94.2772L126.355 101.449L130.691 94.2772L134.043 105.058H131.746L129.801 98.4725L126.262 105.41L123.297 98.4491L121.422 105.058H119.102ZM143.676 102.457C142.512 104.41 140.918 105.387 138.895 105.387C138.152 105.387 137.48 105.266 136.879 105.023C136.27 104.773 135.746 104.414 135.309 103.945C134.879 103.476 134.547 102.918 134.312 102.269C134.086 101.613 133.973 100.898 133.973 100.125C133.973 99.328 134.086 98.5936 134.312 97.9218C134.547 97.2421 134.875 96.6678 135.297 96.1991C135.727 95.7225 136.238 95.3593 136.832 95.1093C137.426 94.8514 138.082 94.7225 138.801 94.7225C139.605 94.7225 140.336 94.8866 140.992 95.2147C141.648 95.535 142.191 95.996 142.621 96.5975C142.965 97.0428 143.207 97.5428 143.348 98.0975C143.488 98.6522 143.582 99.4257 143.629 100.418H136.141C136.164 101.027 136.297 101.566 136.539 102.035C136.789 102.504 137.121 102.863 137.535 103.113C137.957 103.363 138.441 103.488 138.988 103.488C140.199 103.488 141.191 102.773 141.965 101.344L143.676 102.457ZM136.328 98.7889H141.379C141.254 98.078 140.98 97.535 140.559 97.16C140.137 96.785 139.598 96.5975 138.941 96.5975C137.512 96.5975 136.641 97.328 136.328 98.7889ZM144.18 95.0741H151.762L151.797 96.8436H149.066V105H146.91V96.8436H144.145L144.18 95.0741ZM160.152 105.058V98.8007L152.641 105.41V95.0858H154.879V101.308L162.391 94.5936V105.058H160.152ZM163.656 95.0741H171.238L171.273 96.8436H168.543V105H166.387V96.8436H163.621L163.656 95.0741ZM174.402 95.0741V99.2225H175.621C176.465 99.2225 177.172 99.3749 177.742 99.6796C178.312 99.9296 178.75 100.277 179.055 100.723C179.367 101.16 179.523 101.656 179.523 102.211C179.523 102.773 179.363 103.266 179.043 103.687C178.73 104.101 178.281 104.426 177.695 104.66C177.117 104.887 176.445 105 175.68 105H172.188V95.0741H174.402ZM174.402 103.629H175.41C175.746 103.629 176.141 103.504 176.594 103.254C177.031 103.004 177.25 102.648 177.25 102.187C177.25 101.187 176.637 100.687 175.41 100.687H174.402V103.629ZM194.793 102.457C193.629 104.41 192.035 105.387 190.012 105.387C189.27 105.387 188.598 105.266 187.996 105.023C187.387 104.773 186.863 104.414 186.426 103.945C185.996 103.476 185.664 102.918 185.43 102.269C185.203 101.613 185.09 100.898 185.09 100.125C185.09 99.328 185.203 98.5936 185.43 97.9218C185.664 97.2421 185.992 96.6678 186.414 96.1991C186.844 95.7225 187.355 95.3593 187.949 95.1093C188.543 94.8514 189.199 94.7225 189.918 94.7225C190.723 94.7225 191.453 94.8866 192.109 95.2147C192.766 95.535 193.309 95.996 193.738 96.5975C194.082 97.0428 194.324 97.5428 194.465 98.0975C194.605 98.6522 194.699 99.4257 194.746 100.418H187.258C187.281 101.027 187.414 101.566 187.656 102.035C187.906 102.504 188.238 102.863 188.652 103.113C189.074 103.363 189.559 103.488 190.105 103.488C191.316 103.488 192.309 102.773 193.082 101.344L194.793 102.457ZM187.445 98.7889H192.496C192.371 98.078 192.098 97.535 191.676 97.16C191.254 96.785 190.715 96.5975 190.059 96.5975C188.629 96.5975 187.758 97.328 187.445 98.7889ZM201.344 96.8319H197.312L197.324 105H195.227V95.0624H201.309L201.344 96.8319ZM207.32 94.7225C208.344 94.7225 209.262 94.9491 210.074 95.4022C210.887 95.8553 211.52 96.4921 211.973 97.3124C212.426 98.1249 212.652 99.0468 212.652 100.078C212.652 101.094 212.426 102.004 211.973 102.808C211.52 103.613 210.883 104.238 210.062 104.683C209.242 105.121 208.312 105.34 207.273 105.34C206.258 105.34 205.352 105.109 204.555 104.648C203.758 104.203 203.137 103.574 202.691 102.762C202.254 101.941 202.035 101.016 202.035 99.9843C202.035 98.9764 202.258 98.0741 202.703 97.2772C203.148 96.4725 203.773 95.8475 204.578 95.4022C205.383 94.9491 206.297 94.7225 207.32 94.7225ZM207.344 96.6444C206.688 96.6444 206.125 96.8085 205.656 97.1366C205.188 97.4569 204.836 97.8749 204.602 98.3905C204.367 98.9061 204.25 99.4608 204.25 100.055C204.25 100.641 204.367 101.191 204.602 101.707C204.836 102.215 205.188 102.633 205.656 102.961C206.125 103.281 206.688 103.441 207.344 103.441C207.992 103.441 208.543 103.281 208.996 102.961C209.457 102.641 209.801 102.219 210.027 101.695C210.262 101.172 210.379 100.625 210.379 100.055C210.379 99.4686 210.262 98.9139 210.027 98.3905C209.801 97.8671 209.457 97.4452 208.996 97.1249C208.535 96.8046 207.984 96.6444 207.344 96.6444ZM233.535 105H218.242V95.0975H220.34V103.09H224.84V95.0975H226.949L226.938 103.09H231.449V95.0975H233.547L233.535 105ZM234.027 95.0624H236.547L239.57 100.769L242.312 95.0624H244.691L237.438 109.734H235.129L238.469 103.055L234.027 95.0624ZM244.773 105.058L248.266 94.2772L252.027 101.449L256.363 94.2772L259.715 105.058H257.418L255.473 98.4725L251.934 105.41L248.969 98.4491L247.094 105.058H244.773ZM266.688 100.723H262.176V105H260.078V95.0975H262.164V98.8358H266.688V95.0975H268.773L268.785 105H266.688V100.723ZM272.066 95.0741V99.2225H273.285C274.129 99.2225 274.836 99.3749 275.406 99.6796C275.977 99.9296 276.414 100.277 276.719 100.723C277.031 101.16 277.188 101.656 277.188 102.211C277.188 102.773 277.027 103.266 276.707 103.687C276.395 104.101 275.945 104.426 275.359 104.66C274.781 104.887 274.109 105 273.344 105H269.852V95.0741H272.066ZM272.066 103.629H273.074C273.41 103.629 273.805 103.504 274.258 103.254C274.695 103.004 274.914 102.648 274.914 102.187C274.914 101.187 274.301 100.687 273.074 100.687H272.066V103.629ZM277.691 105H279.789L279.777 95.0624H277.691V105ZM280.539 105.058L284.031 94.2772L287.793 101.449L292.129 94.2772L295.48 105.058H293.184L291.238 98.4725L287.699 105.41L284.734 98.4491L282.859 105.058H280.539ZM307.562 97.0077H303.051V105H300.953V95.0975H309.648L309.66 105H307.562V97.0077ZM315.672 96.6444C314.758 96.6444 314.043 96.9882 313.527 97.6757C313.012 98.3553 312.754 99.1561 312.754 100.078C312.754 100.664 312.863 101.219 313.082 101.742C313.301 102.266 313.625 102.687 314.055 103.008C314.484 103.328 315 103.488 315.602 103.488C316.227 103.488 316.758 103.324 317.195 102.996C317.641 102.668 317.973 102.238 318.191 101.707C318.41 101.168 318.52 100.601 318.52 100.008C318.52 99.4374 318.41 98.8944 318.191 98.3788C317.98 97.8553 317.66 97.4374 317.23 97.1249C316.801 96.8046 316.281 96.6444 315.672 96.6444ZM310.773 109.734V95.0507L312.895 95.0624V96.2811C313.621 95.2733 314.645 94.7694 315.965 94.7694C316.941 94.7694 317.781 95.0233 318.484 95.5311C319.195 96.0389 319.727 96.6991 320.078 97.5116C320.438 98.3241 320.617 99.1874 320.617 100.101C320.617 101.008 320.445 101.855 320.102 102.644C319.758 103.433 319.238 104.07 318.543 104.555C317.855 105.039 317.027 105.281 316.059 105.281C314.738 105.281 313.684 104.785 312.895 103.793V109.734H310.773ZM328.973 103.793C328.645 104.269 328.203 104.641 327.648 104.906C327.094 105.164 326.48 105.293 325.809 105.293C324.949 105.293 324.168 105.062 323.465 104.601C322.77 104.141 322.223 103.508 321.824 102.703C321.426 101.891 321.227 100.984 321.227 99.9843C321.227 99.0077 321.43 98.121 321.836 97.3241C322.25 96.5272 322.816 95.9022 323.535 95.4491C324.262 94.996 325.066 94.7694 325.949 94.7694C327.309 94.7694 328.316 95.2733 328.973 96.2811V95.0624H331.094V105H328.973V103.793ZM326.266 96.6444C325.656 96.6444 325.129 96.8046 324.684 97.1249C324.246 97.4452 323.914 97.871 323.688 98.4022C323.469 98.9335 323.359 99.4921 323.359 100.078C323.359 100.656 323.469 101.207 323.688 101.73C323.914 102.254 324.246 102.68 324.684 103.008C325.129 103.328 325.656 103.488 326.266 103.488C326.867 103.488 327.383 103.328 327.812 103.008C328.242 102.68 328.566 102.25 328.785 101.719C329.012 101.187 329.125 100.625 329.125 100.031C329.125 99.453 329.02 98.9022 328.809 98.3788C328.582 97.8632 328.254 97.4452 327.824 97.1249C327.395 96.8046 326.875 96.6444 326.266 96.6444ZM334.012 99.3514H335.781C337.328 99.2186 338.102 98.7069 338.102 97.8163C338.102 97.3553 337.895 96.996 337.48 96.7382C337.074 96.4725 336.527 96.3397 335.84 96.3397C334.738 96.3085 333.5 96.371 332.125 96.5272V95.3436C333.758 95.0624 334.996 94.9413 335.84 94.9803C336.684 95.0116 337.422 95.1366 338.055 95.3553C338.688 95.5741 339.172 95.8905 339.508 96.3046C339.852 96.7108 340.023 97.1874 340.023 97.7343C340.023 98.328 339.844 98.7968 339.484 99.1405C339.125 99.4843 338.555 99.7264 337.773 99.8671C339.578 100.078 340.48 100.887 340.48 102.293C340.48 102.91 340.254 103.445 339.801 103.898C339.348 104.359 338.754 104.715 338.02 104.965C337.285 105.207 336.512 105.336 335.699 105.351C334.887 105.375 334.094 105.316 333.32 105.176C332.555 105.043 332.105 104.973 331.973 104.965V103.676C333.809 103.933 335.098 104.062 335.84 104.062C336.637 104.062 337.281 103.906 337.773 103.594C338.266 103.281 338.512 102.859 338.512 102.328C338.512 101.273 337.641 100.676 335.898 100.535H334.012V99.3514ZM344.688 103.09H350.395V96.7499H347.078C346.914 100.351 346.117 102.465 344.688 103.09ZM342.426 103.137C343.855 102.512 344.641 99.8241 344.781 95.0741H352.656V103.137H353.805V107.062H351.543V105.117H343.516V107.062H341.254V103.137H342.426ZM361.375 100.723H356.863V105H354.766V95.0975H356.852V98.8358H361.375V95.0975H363.461L363.473 105H361.375V100.723ZM371.98 105.058V98.8007L364.469 105.41V95.0858H366.707V101.308L374.219 94.5936V105.058H371.98ZM377.605 95.0624V98.6835L381.051 95.0624H383.84L379.305 99.4803L384.227 105H381.367L377.605 100.465V105H375.484V95.0624H377.605ZM389.57 94.7225C390.594 94.7225 391.512 94.9491 392.324 95.4022C393.137 95.8553 393.77 96.4921 394.223 97.3124C394.676 98.1249 394.902 99.0468 394.902 100.078C394.902 101.094 394.676 102.004 394.223 102.808C393.77 103.613 393.133 104.238 392.312 104.683C391.492 105.121 390.562 105.34 389.523 105.34C388.508 105.34 387.602 105.109 386.805 104.648C386.008 104.203 385.387 103.574 384.941 102.762C384.504 101.941 384.285 101.016 384.285 99.9843C384.285 98.9764 384.508 98.0741 384.953 97.2772C385.398 96.4725 386.023 95.8475 386.828 95.4022C387.633 94.9491 388.547 94.7225 389.57 94.7225ZM389.594 96.6444C388.938 96.6444 388.375 96.8085 387.906 97.1366C387.438 97.4569 387.086 97.8749 386.852 98.3905C386.617 98.9061 386.5 99.4608 386.5 100.055C386.5 100.641 386.617 101.191 386.852 101.707C387.086 102.215 387.438 102.633 387.906 102.961C388.375 103.281 388.938 103.441 389.594 103.441C390.242 103.441 390.793 103.281 391.246 102.961C391.707 102.641 392.051 102.219 392.277 101.695C392.512 101.172 392.629 100.625 392.629 100.055C392.629 99.4686 392.512 98.9139 392.277 98.3905C392.051 97.8671 391.707 97.4452 391.246 97.1249C390.785 96.8046 390.234 96.6444 389.594 96.6444ZM394.938 105.058L398.43 94.2772L402.191 101.449L406.527 94.2772L409.879 105.058H407.582L405.637 98.4725L402.098 105.41L399.133 98.4491L397.258 105.058H394.938Z" fill="#F6EBC8"/>
<path d="M417.992 133.902C412.252 139.217 406.122 140.926 399.611 140.671C393.04 140.413 386.081 138.157 378.729 135.48C377.543 135.049 376.347 134.606 375.142 134.16C368.926 131.86 362.467 129.471 355.899 128.02C348.033 126.282 339.923 125.867 331.716 128.557C321.703 131.839 315.41 137.254 309.282 142.526L309.025 142.748C302.817 148.088 296.723 153.256 286.922 156.25C264.897 162.978 248.338 153.859 231.128 143.023C229.931 142.269 228.73 141.507 227.525 140.742C211.475 130.55 194.52 119.784 172.142 120.732C153.593 121.519 140.369 128.067 127.317 134.587L127.044 134.723C114.081 141.199 101.255 147.606 83.3098 148.621C76.191 149.024 68.3292 150.039 60.4189 151.06C59.3069 151.204 58.1939 151.347 57.0819 151.49C48.035 152.646 39.0452 153.7 31.0284 153.782C22.9887 153.864 16.0754 152.963 11.1061 150.321C6.2306 147.728 3.14845 143.421 2.782 136.377C2.4606 130.199 3.46482 125.487 4.76581 120.713C5.00805 119.824 5.26156 118.93 5.51892 118.023C6.64219 114.062 7.83884 109.843 8.49218 104.646C9.06984 100.052 8.66509 96.7391 7.77343 94.0814C6.96373 91.6678 5.76268 89.8401 4.67477 88.1846C4.57383 88.031 4.47387 87.8789 4.37529 87.7279C3.20414 85.9345 2.21276 84.2867 1.78419 82.0775C1.35593 79.8702 1.47357 77.0004 2.74095 72.7881C5.48442 63.6698 11.3155 59.7641 17.1416 56.8428C18.1022 56.3612 19.082 55.8981 20.0538 55.4389C21.9876 54.525 23.8894 53.6263 25.5433 52.6264C28.077 51.0945 30.2465 49.2106 31.4232 46.3844C31.5832 45.9999 31.7408 45.6211 31.8961 45.248C34.0715 40.0189 35.7898 35.8885 37.5063 32.5753C39.3393 29.0372 41.1308 26.5122 43.3916 24.6396C47.9191 20.8893 54.5611 19.5506 68.0421 18.6545C86.705 17.414 99.2349 22.8463 111.211 28.0385C112.369 28.5406 113.522 29.0406 114.675 29.532C121.208 32.3162 127.758 34.8339 135.172 35.8469C142.602 36.8622 150.851 36.361 160.804 33.1834C164.982 31.8496 169.097 30.496 173.184 29.1512C185.509 25.0966 197.588 21.1226 210.416 18.0171C225.18 14.4429 235.47 19.002 246.109 24.1554C246.554 24.3709 247 24.5875 247.447 24.8047C257.68 29.7788 268.429 35.0036 283.616 33.224C298.664 31.4608 308.635 23.949 318.192 16.7496C318.653 16.4021 319.113 16.0553 319.573 15.71C329.579 8.19565 339.397 1.32046 354.631 1.34346C368.749 1.36476 383.19 2.97328 394.718 7.68821C406.217 12.391 414.721 20.1347 417.251 32.4323C418.563 38.8106 416.066 43.6644 413.227 48.8497C413.137 49.0142 413.047 49.1791 412.956 49.3444C410.221 54.3299 407.288 59.678 408.121 66.6652C409.168 75.4422 415.61 80.761 421.561 85.674C421.801 85.8726 422.041 86.0706 422.28 86.2682C428.551 91.4594 434.015 96.3289 433.755 104.49C433.551 110.877 432.085 115.915 429.462 120.492C426.826 125.089 422.997 129.267 417.992 133.902Z" stroke="#FF9EA7" stroke-width="2"/>
</svg>
