<svg width="308" height="150" viewBox="0 0 308 150" fill="none" xmlns="http://www.w3.org/2000/svg">
<path d="M231.387 76.585C227.291 76.585 223.542 75.6824 220.14 73.8773C216.807 72.0721 213.891 69.538 211.392 66.2748C208.962 62.9422 207.052 59.0195 205.664 54.5066C204.345 49.9243 203.685 44.9254 203.685 39.51C203.685 33.7474 204.345 28.4708 205.664 23.6802C206.983 18.8896 208.823 14.7586 211.183 11.2871C213.613 7.81566 216.46 5.14265 219.723 3.26807C223.056 1.32406 226.701 0.352051 230.658 0.352051C234.685 0.352051 238.4 1.25463 241.802 3.05978C245.204 4.86493 248.12 7.4338 250.55 10.7664C253.049 14.0295 254.958 17.9523 256.277 22.5346C257.666 27.0475 258.36 32.0116 258.36 37.4271C258.36 43.1897 257.701 48.4663 256.382 53.2569C255.062 58.0475 253.188 62.1785 250.758 65.65C248.397 69.1214 245.551 71.8291 242.218 73.7731C238.955 75.6477 235.345 76.585 231.387 76.585ZM223.368 39.4058C223.368 45.5156 223.507 50.6533 223.785 54.819C224.062 58.9848 224.514 62.3521 225.139 64.921C225.763 67.4898 226.562 69.3297 227.534 70.4406C228.575 71.5514 229.86 72.1068 231.387 72.1068C232.776 72.1068 233.921 71.5167 234.824 70.3364C235.796 69.1561 236.56 67.2121 237.115 64.5044C237.671 61.7966 238.052 58.2558 238.261 53.8818C238.538 49.4383 238.677 43.9881 238.677 37.5312C238.677 31.4215 238.538 26.2838 238.261 22.118C237.983 17.8829 237.532 14.5156 236.907 12.0161C236.282 9.44724 235.449 7.60737 234.407 6.49651C233.435 5.38565 232.186 4.83021 230.658 4.83021C229.27 4.83021 228.124 5.42036 227.221 6.60065C226.319 7.78094 225.555 9.72495 224.93 12.4327C224.375 15.1404 223.958 18.716 223.681 23.1595C223.472 27.5335 223.368 32.9489 223.368 39.4058Z" fill="#FF9EA7" fill-opacity="0.75"/>
<path d="M172.603 76.585C168.507 76.585 164.758 75.6824 161.356 73.8773C158.023 72.0721 155.107 69.538 152.608 66.2748C150.178 62.9422 148.268 59.0195 146.88 54.5066C145.561 49.9243 144.901 44.9254 144.901 39.51C144.901 33.7474 145.561 28.4708 146.88 23.6802C148.199 18.8896 150.039 14.7586 152.399 11.2871C154.829 7.81566 157.676 5.14265 160.939 3.26807C164.272 1.32406 167.917 0.352051 171.874 0.352051C175.901 0.352051 179.616 1.25463 183.018 3.05978C186.42 4.86493 189.336 7.4338 191.766 10.7664C194.265 14.0295 196.174 17.9523 197.494 22.5346C198.882 27.0475 199.576 32.0116 199.576 37.4271C199.576 43.1897 198.917 48.4663 197.598 53.2569C196.279 58.0475 194.404 62.1785 191.974 65.65C189.613 69.1214 186.767 71.8291 183.434 73.7731C180.171 75.6477 176.561 76.585 172.603 76.585ZM164.584 39.4058C164.584 45.5156 164.723 50.6533 165.001 54.819C165.279 58.9848 165.73 62.3521 166.355 64.921C166.98 67.4898 167.778 69.3297 168.75 70.4406C169.791 71.5514 171.076 72.1068 172.603 72.1068C173.992 72.1068 175.137 71.5167 176.04 70.3364C177.012 69.1561 177.776 67.2121 178.331 64.5044C178.887 61.7966 179.268 58.2558 179.477 53.8818C179.754 49.4383 179.893 43.9881 179.893 37.5312C179.893 31.4215 179.754 26.2838 179.477 22.118C179.199 17.8829 178.748 14.5156 178.123 12.0161C177.498 9.44724 176.665 7.60737 175.623 6.49651C174.651 5.38565 173.402 4.83021 171.874 4.83021C170.486 4.83021 169.34 5.42036 168.438 6.60065C167.535 7.78094 166.771 9.72495 166.146 12.4327C165.591 15.1404 165.174 18.716 164.897 23.1595C164.688 27.5335 164.584 32.9489 164.584 39.4058Z" fill="#FF9EA7" fill-opacity="0.75"/>
<path d="M129.353 48.2581C126.784 48.2581 124.562 47.3556 122.687 45.5504C120.882 43.6758 119.98 41.4541 119.98 38.8852C119.98 36.3164 120.882 34.1293 122.687 32.3242C124.562 30.519 126.784 29.6165 129.353 29.6165C131.922 29.6165 134.109 30.519 135.914 32.3242C137.719 34.1293 138.621 36.3164 138.621 38.8852C138.621 41.4541 137.719 43.6758 135.914 45.5504C134.109 47.3556 131.922 48.2581 129.353 48.2581ZM119.98 67.2122C119.98 64.6434 120.882 62.4563 122.687 60.6512C124.562 58.846 126.784 57.9435 129.353 57.9435C131.922 57.9435 134.109 58.846 135.914 60.6512C137.719 62.4563 138.621 64.6434 138.621 67.2122C138.621 69.7811 137.719 72.0028 135.914 73.8774C134.109 75.6826 131.922 76.5851 129.353 76.5851C126.784 76.5851 124.562 75.6826 122.687 73.8774C120.882 72.0028 119.98 69.7811 119.98 67.2122Z" fill="#FF9EA7" fill-opacity="0.75"/>
<path d="M86.7664 76.585C82.67 76.585 78.9209 75.6824 75.5189 73.8773C72.1863 72.0721 69.2703 69.538 66.7708 66.2748C64.3408 62.9422 62.4315 59.0195 61.0429 54.5066C59.7238 49.9243 59.0642 44.9254 59.0642 39.51C59.0642 33.7474 59.7238 28.4708 61.0429 23.6802C62.3621 18.8896 64.202 14.7586 66.5625 11.2871C68.9925 7.81566 71.8391 5.14265 75.1023 3.26807C78.4349 1.32406 82.0799 0.352051 86.0374 0.352051C90.0642 0.352051 93.7787 1.25463 97.1807 3.05978C100.583 4.86493 103.499 7.4338 105.929 10.7664C108.428 14.0295 110.337 17.9523 111.657 22.5346C113.045 27.0475 113.739 32.0116 113.739 37.4271C113.739 43.1897 113.08 48.4663 111.761 53.2569C110.442 58.0475 108.567 62.1785 106.137 65.65C103.776 69.1214 100.93 71.8291 97.5973 73.7731C94.3341 75.6477 90.7238 76.585 86.7664 76.585ZM78.7473 39.4058C78.7473 45.5156 78.8862 50.6533 79.1639 54.819C79.4416 58.9848 79.8929 62.3521 80.5177 64.921C81.1426 67.4898 81.941 69.3297 82.913 70.4406C83.9545 71.5514 85.2389 72.1068 86.7664 72.1068C88.1549 72.1068 89.3005 71.5167 90.2031 70.3364C91.1751 69.1561 91.9388 67.2121 92.4942 64.5044C93.0497 61.7966 93.4315 58.2558 93.6398 53.8818C93.9175 49.4383 94.0564 43.9881 94.0564 37.5312C94.0564 31.4215 93.9175 26.2838 93.6398 22.118C93.3621 17.8829 92.9108 14.5156 92.2859 12.0161C91.6611 9.44724 90.8279 7.60737 89.7865 6.49651C88.8145 5.38565 87.5648 4.83021 86.0374 4.83021C84.6488 4.83021 83.5032 5.42036 82.6006 6.60065C81.698 7.78094 80.9343 9.72495 80.3095 12.4327C79.754 15.1404 79.3375 18.716 79.0597 23.1595C78.8515 27.5335 78.7473 32.9489 78.7473 39.4058Z" fill="#FF9EA7" fill-opacity="0.75"/>
<path d="M27.9822 76.585C23.8859 76.585 20.1367 75.6824 16.7347 73.8773C13.4021 72.0721 10.4861 69.538 7.98664 66.2748C5.55663 62.9422 3.64733 59.0195 2.25875 54.5066C0.939604 49.9243 0.280029 44.9254 0.280029 39.51C0.280029 33.7474 0.939604 28.4708 2.25875 23.6802C3.5779 18.8896 5.41777 14.7586 7.77835 11.2871C10.2084 7.81566 13.055 5.14265 16.3181 3.26807C19.6507 1.32406 23.2957 0.352051 27.2532 0.352051C31.28 0.352051 34.9945 1.25463 38.3965 3.05978C41.7985 4.86493 44.7145 7.4338 47.1446 10.7664C49.644 14.0295 51.5533 17.9523 52.8724 22.5346C54.261 27.0475 54.9553 32.0116 54.9553 37.4271C54.9553 43.1897 54.2957 48.4663 52.9766 53.2569C51.6574 58.0475 49.7829 62.1785 47.3528 65.65C44.9923 69.1214 42.1457 71.8291 38.8131 73.7731C35.5499 75.6477 31.9396 76.585 27.9822 76.585ZM19.9631 39.4058C19.9631 45.5156 20.102 50.6533 20.3797 54.819C20.6574 58.9848 21.1087 62.3521 21.7336 64.921C22.3584 67.4898 23.1569 69.3297 24.1289 70.4406C25.1703 71.5514 26.4547 72.1068 27.9822 72.1068C29.3708 72.1068 30.5163 71.5167 31.4189 70.3364C32.3909 69.1561 33.1546 67.2121 33.7101 64.5044C34.2655 61.7966 34.6473 58.2558 34.8556 53.8818C35.1334 49.4383 35.2722 43.9881 35.2722 37.5312C35.2722 31.4215 35.1334 26.2838 34.8556 22.118C34.5779 17.8829 34.1266 14.5156 33.5018 12.0161C32.8769 9.44724 32.0438 7.60737 31.0023 6.49651C30.0303 5.38565 28.7806 4.83021 27.2532 4.83021C25.8646 4.83021 24.719 5.42036 23.8164 6.60065C22.9139 7.78094 22.1501 9.72495 21.5253 12.4327C20.9698 15.1404 20.5533 18.716 20.2756 23.1595C20.0673 27.5335 19.9631 32.9489 19.9631 39.4058Z" fill="#FF9EA7" fill-opacity="0.75"/>
<path d="M94.4639 148.958V145.478L91.0314 148.958H88.7908L92.7572 145.402C92.4838 145.389 92.1311 145.329 91.6988 145.221C91.2666 145.113 90.8979 144.96 90.5928 144.763C90.2877 144.56 90.0525 144.321 89.8873 144.048C89.7283 143.768 89.6489 143.457 89.6489 143.113C89.6489 142.395 90.0112 141.845 90.7358 141.464C91.4668 141.076 92.398 140.882 93.5295 140.882H96.285V148.958H94.4639ZM94.4639 141.96H93.9013C93.0496 141.96 92.4298 142.065 92.0421 142.274C91.6607 142.484 91.47 142.796 91.47 143.209C91.47 143.597 91.6702 143.918 92.0707 144.172C92.4775 144.42 93.0496 144.544 93.7869 144.544H94.4639V141.96Z" fill="#F6EBC8"/>
<path d="M88.6382 148.548C87.7038 149.006 86.8012 149.235 85.9303 149.235C85.1676 149.235 84.4811 149.053 83.8709 148.691C83.2606 148.322 82.7839 147.817 82.4407 147.175C82.0911 146.527 81.9163 145.799 81.9163 144.992C81.9163 144.35 82.037 143.758 82.2786 143.218C82.5265 142.678 82.857 142.214 83.2702 141.826C83.6897 141.432 84.1632 141.133 84.6908 140.93C85.2248 140.72 85.7746 140.615 86.3403 140.615C87.1794 140.615 87.9453 140.831 88.6382 141.264V143.294C87.9835 142.614 87.2016 142.274 86.2926 142.274C85.5871 142.274 84.9832 142.503 84.4811 142.961C83.9853 143.418 83.7374 144.057 83.7374 144.877C83.7374 145.43 83.8359 145.91 84.0329 146.317C84.23 146.724 84.516 147.035 84.8911 147.251C85.2597 147.461 85.6951 147.566 86.1973 147.566C87.0491 147.566 87.8627 147.21 88.6382 146.498V148.548Z" fill="#F6EBC8"/>
<path d="M77.2254 140.882V144.258H78.217C78.9035 144.258 79.4787 144.382 79.9427 144.629C80.4068 144.833 80.7627 145.116 81.0106 145.478C81.2649 145.834 81.392 146.238 81.392 146.689C81.392 147.147 81.2617 147.547 81.0011 147.89C80.7468 148.227 80.3813 148.491 79.9046 148.682C79.4342 148.866 78.8876 148.958 78.2647 148.958H75.4233V140.882H77.2254ZM77.2254 147.843H78.0454C78.3187 147.843 78.6397 147.741 79.0084 147.537C79.3643 147.334 79.5423 147.045 79.5423 146.67C79.5423 145.856 79.0433 145.449 78.0454 145.449H77.2254V147.843Z" fill="#F6EBC8"/>
<path d="M68.4822 140.882H74.6511L74.6797 142.322H72.4582V148.958H70.7038V142.322H68.4536L68.4822 140.882Z" fill="#F6EBC8"/>
<path d="M65.86 147.976C65.593 148.364 65.2339 148.666 64.7826 148.882C64.3313 149.091 63.8323 149.196 63.2857 149.196C62.5864 149.196 61.9508 149.009 61.3787 148.634C60.813 148.259 60.3681 147.744 60.0439 147.089C59.7197 146.428 59.5576 145.691 59.5576 144.877C59.5576 144.083 59.7229 143.361 60.0534 142.713C60.3903 142.064 60.8511 141.556 61.4359 141.187C62.0271 140.819 62.6818 140.634 63.4001 140.634C64.5061 140.634 65.3261 141.044 65.86 141.864V140.873H67.5858V148.958H65.86V147.976ZM63.6575 142.16C63.1617 142.16 62.7326 142.29 62.3703 142.551C62.0144 142.811 61.7442 143.158 61.5599 143.59C61.3819 144.022 61.2929 144.477 61.2929 144.953C61.2929 145.424 61.3819 145.872 61.5599 146.298C61.7442 146.724 62.0144 147.07 62.3703 147.337C62.7326 147.598 63.1617 147.728 63.6575 147.728C64.1469 147.728 64.5665 147.598 64.9161 147.337C65.2657 147.07 65.5295 146.721 65.7074 146.288C65.8918 145.856 65.9839 145.398 65.9839 144.915C65.9839 144.445 65.8981 143.997 65.7265 143.571C65.5422 143.151 65.2752 142.811 64.9256 142.551C64.576 142.29 64.1533 142.16 63.6575 142.16Z" fill="#F6EBC8"/>
<path d="M57.1549 142.456H53.484V148.958H51.7773V140.901H58.852L58.8616 148.958H57.1549V142.456Z" fill="#F6EBC8"/>
<path d="M44.5215 140.882V144.258H45.5131C46.1996 144.258 46.7749 144.382 47.2389 144.629C47.7029 144.833 48.0589 145.116 48.3068 145.478C48.561 145.834 48.6881 146.238 48.6881 146.689C48.6881 147.147 48.5578 147.547 48.2972 147.89C48.043 148.227 47.6775 148.491 47.2007 148.682C46.7304 148.866 46.1837 148.958 45.5608 148.958H42.7195V140.882H44.5215ZM44.5215 147.843H45.3415C45.6148 147.843 45.9358 147.741 46.3045 147.537C46.6605 147.334 46.8384 147.045 46.8384 146.67C46.8384 145.856 46.3395 145.449 45.3415 145.449H44.5215V147.843ZM49.0981 148.958H50.8048L50.7953 140.873H49.0981V148.958Z" fill="#F6EBC8"/>
<path d="M42.1855 148.548C41.2511 149.006 40.3485 149.235 39.4777 149.235C38.7149 149.235 38.0284 149.053 37.4182 148.691C36.808 148.322 36.3313 147.817 35.988 147.175C35.6384 146.527 35.4636 145.799 35.4636 144.992C35.4636 144.35 35.5844 143.758 35.8259 143.218C36.0738 142.678 36.4044 142.214 36.8175 141.826C37.2371 141.432 37.7106 141.133 38.2382 140.93C38.7721 140.72 39.322 140.615 39.8877 140.615C40.7267 140.615 41.4927 140.831 42.1855 141.264V143.294C41.5308 142.614 40.749 142.274 39.84 142.274C39.1344 142.274 38.5306 142.503 38.0284 142.961C37.5326 143.418 37.2847 144.057 37.2847 144.877C37.2847 145.43 37.3833 145.91 37.5803 146.317C37.7774 146.724 38.0634 147.035 38.4384 147.251C38.8071 147.461 39.2425 147.566 39.7447 147.566C40.5964 147.566 41.41 147.21 42.1855 146.498V148.548Z" fill="#F6EBC8"/>
<path d="M28.7417 140.882H34.9106L34.9392 142.322H32.7177V148.958H30.9633V142.322H28.7131L28.7417 140.882Z" fill="#F6EBC8"/>
<path d="M23.9554 140.596C24.7881 140.596 25.535 140.781 26.196 141.149C26.8571 141.518 27.372 142.036 27.7406 142.703C28.1093 143.364 28.2936 144.114 28.2936 144.954C28.2936 145.78 28.1093 146.52 27.7406 147.175C27.372 147.83 26.8539 148.338 26.1865 148.701C25.5191 149.057 24.7626 149.235 23.9172 149.235C23.0909 149.235 22.3536 149.047 21.7052 148.672C21.0569 148.31 20.5515 147.798 20.1892 147.137C19.8333 146.47 19.6553 145.716 19.6553 144.877C19.6553 144.057 19.8364 143.323 20.1987 142.675C20.5611 142.02 21.0696 141.512 21.7243 141.149C22.379 140.781 23.1227 140.596 23.9554 140.596ZM23.9745 142.16C23.4405 142.16 22.9829 142.293 22.6015 142.56C22.2201 142.821 21.934 143.161 21.7434 143.581C21.5527 144 21.4573 144.451 21.4573 144.934C21.4573 145.411 21.5527 145.859 21.7434 146.279C21.934 146.692 22.2201 147.032 22.6015 147.299C22.9829 147.56 23.4405 147.69 23.9745 147.69C24.502 147.69 24.9502 147.56 25.3188 147.299C25.6939 147.038 25.9735 146.695 26.1579 146.269C26.3486 145.843 26.4439 145.398 26.4439 144.934C26.4439 144.458 26.3486 144.006 26.1579 143.581C25.9735 143.155 25.6939 142.811 25.3188 142.551C24.9438 142.29 24.4957 142.16 23.9745 142.16Z" fill="#F6EBC8"/>
<path d="M214.448 131.058V127.578L211.015 131.058H208.774L212.741 127.502C212.467 127.489 212.115 127.429 211.682 127.321C211.25 127.213 210.882 127.06 210.576 126.863C210.271 126.66 210.036 126.421 209.871 126.148C209.712 125.868 209.633 125.557 209.633 125.214C209.633 124.495 209.995 123.946 210.719 123.564C211.45 123.177 212.382 122.983 213.513 122.983H216.269V131.058H214.448ZM214.448 124.06H213.885C213.033 124.06 212.413 124.165 212.026 124.375C211.644 124.584 211.454 124.896 211.454 125.309C211.454 125.697 211.654 126.018 212.054 126.272C212.461 126.52 213.033 126.644 213.771 126.644H214.448V124.06Z" fill="#F6EBC8"/>
<path d="M208.622 130.648C207.687 131.106 206.785 131.335 205.914 131.335C205.151 131.335 204.465 131.154 203.854 130.791C203.244 130.423 202.768 129.917 202.424 129.275C202.075 128.627 201.9 127.899 201.9 127.092C201.9 126.45 202.021 125.859 202.262 125.319C202.51 124.778 202.841 124.314 203.254 123.926C203.673 123.532 204.147 123.234 204.674 123.03C205.208 122.82 205.758 122.716 206.324 122.716C207.163 122.716 207.929 122.932 208.622 123.364V125.395C207.967 124.715 207.185 124.375 206.276 124.375C205.571 124.375 204.967 124.603 204.465 125.061C203.969 125.519 203.721 126.158 203.721 126.978C203.721 127.531 203.82 128.01 204.017 128.417C204.214 128.824 204.5 129.136 204.875 129.352C205.243 129.561 205.679 129.666 206.181 129.666C207.033 129.666 207.846 129.31 208.622 128.598V130.648Z" fill="#F6EBC8"/>
<path d="M189.648 131.106L192.489 122.334L195.55 128.169L199.078 122.334L201.805 131.106H199.936L198.353 125.748L195.474 131.392L193.061 125.729L191.536 131.106H189.648Z" fill="#F6EBC8"/>
<path d="M189.657 128.989C188.71 130.578 187.414 131.373 185.767 131.373C185.163 131.373 184.617 131.275 184.127 131.077C183.631 130.874 183.206 130.582 182.85 130.2C182.5 129.819 182.23 129.364 182.039 128.837C181.855 128.303 181.763 127.721 181.763 127.092C181.763 126.444 181.855 125.846 182.039 125.299C182.23 124.746 182.497 124.279 182.84 123.898C183.19 123.51 183.606 123.215 184.089 123.011C184.572 122.801 185.106 122.697 185.691 122.697C186.346 122.697 186.94 122.83 187.474 123.097C188.008 123.358 188.45 123.733 188.799 124.222C189.079 124.584 189.276 124.991 189.39 125.443C189.505 125.894 189.581 126.523 189.619 127.33H183.527C183.546 127.826 183.654 128.265 183.851 128.646C184.054 129.028 184.324 129.32 184.661 129.523C185.004 129.727 185.399 129.828 185.844 129.828C186.829 129.828 187.636 129.247 188.265 128.084L189.657 128.989ZM183.679 126.005H187.789C187.687 125.427 187.464 124.985 187.121 124.68C186.778 124.375 186.339 124.222 185.805 124.222C184.642 124.222 183.933 124.816 183.679 126.005Z" fill="#F6EBC8"/>
<path d="M179.608 131.058V127.578L176.175 131.058H173.935L177.901 127.502C177.628 127.489 177.275 127.429 176.843 127.321C176.411 127.213 176.042 127.06 175.737 126.863C175.432 126.66 175.197 126.421 175.031 126.148C174.872 125.868 174.793 125.557 174.793 125.214C174.793 124.495 175.155 123.946 175.88 123.564C176.611 123.177 177.542 122.983 178.674 122.983H181.429V131.058H179.608ZM179.608 124.06H179.045C178.194 124.06 177.574 124.165 177.186 124.375C176.805 124.584 176.614 124.896 176.614 125.309C176.614 125.697 176.814 126.018 177.215 126.272C177.622 126.52 178.194 126.644 178.931 126.644H179.608V124.06Z" fill="#F6EBC8"/>
<path d="M171.408 124.584H168.719V127.54C168.719 128.049 168.665 128.532 168.557 128.989C168.443 129.441 168.265 129.848 168.023 130.21C167.782 130.572 167.467 130.858 167.08 131.068C166.692 131.271 166.237 131.373 165.716 131.373C165.595 131.373 165.478 131.367 165.363 131.354V129.647C165.44 129.66 165.519 129.666 165.602 129.666C166.066 129.666 166.393 129.514 166.584 129.209C166.774 128.897 166.87 128.379 166.87 127.655L166.86 122.992H173.248V131.058H171.408V124.584Z" fill="#F6EBC8"/>
<path d="M158.298 131.058V122.983H161.139C161.985 122.983 162.646 123.164 163.123 123.526C163.599 123.888 163.838 124.384 163.838 125.014C163.838 125.452 163.698 125.827 163.418 126.139C163.145 126.444 162.773 126.634 162.303 126.711C163.027 126.755 163.596 126.981 164.009 127.388C164.422 127.794 164.629 128.268 164.629 128.808C164.629 129.056 164.581 129.298 164.486 129.533C164.397 129.768 164.254 129.991 164.057 130.2C163.86 130.404 163.628 130.569 163.361 130.696C162.884 130.938 162.201 131.058 161.311 131.058H158.298ZM159.929 130.029H161.178C162.303 130.092 162.865 129.663 162.865 128.742C162.865 127.814 162.28 127.35 161.111 127.35H159.929V130.029ZM159.929 126.148H160.691C161.162 126.148 161.534 126.05 161.807 125.853C162.067 125.662 162.198 125.395 162.198 125.052C162.198 124.759 162.061 124.518 161.788 124.327C161.514 124.136 161.19 124.041 160.815 124.041H159.929V126.148Z" fill="#F6EBC8"/>
<path d="M155.81 130.077C155.543 130.464 155.184 130.766 154.732 130.982C154.281 131.192 153.782 131.297 153.235 131.297C152.536 131.297 151.901 131.109 151.328 130.734C150.763 130.359 150.318 129.845 149.994 129.19C149.669 128.529 149.507 127.791 149.507 126.978C149.507 126.183 149.673 125.462 150.003 124.813C150.34 124.165 150.801 123.657 151.386 123.288C151.977 122.919 152.631 122.735 153.35 122.735C154.456 122.735 155.276 123.145 155.81 123.965V122.973H157.535V131.059H155.81V130.077ZM153.607 124.26C153.111 124.26 152.682 124.391 152.32 124.651C151.964 124.912 151.694 125.258 151.51 125.691C151.332 126.123 151.243 126.577 151.243 127.054C151.243 127.524 151.332 127.973 151.51 128.398C151.694 128.824 151.964 129.171 152.32 129.438C152.682 129.698 153.111 129.829 153.607 129.829C154.097 129.829 154.516 129.698 154.866 129.438C155.215 129.171 155.479 128.821 155.657 128.389C155.841 127.957 155.934 127.499 155.934 127.016C155.934 126.546 155.848 126.097 155.676 125.672C155.492 125.252 155.225 124.912 154.875 124.651C154.526 124.391 154.103 124.26 153.607 124.26Z" fill="#F6EBC8"/>
<path d="M144.988 124.26C144.244 124.26 143.663 124.54 143.243 125.099C142.824 125.652 142.614 126.304 142.614 127.054C142.614 127.531 142.703 127.982 142.881 128.408C143.059 128.834 143.323 129.177 143.672 129.438C144.022 129.698 144.441 129.829 144.931 129.829C145.439 129.829 145.871 129.695 146.227 129.428C146.59 129.161 146.86 128.812 147.038 128.379C147.216 127.941 147.305 127.48 147.305 126.997C147.305 126.533 147.216 126.091 147.038 125.672C146.866 125.246 146.606 124.906 146.256 124.651C145.906 124.391 145.484 124.26 144.988 124.26ZM141.002 134.911V122.964L142.728 122.973V123.965C143.319 123.145 144.152 122.735 145.226 122.735C146.021 122.735 146.704 122.941 147.276 123.355C147.855 123.768 148.287 124.305 148.573 124.966C148.865 125.627 149.012 126.329 149.012 127.073C149.012 127.81 148.872 128.5 148.592 129.142C148.312 129.784 147.89 130.302 147.324 130.696C146.765 131.09 146.091 131.287 145.303 131.287C144.228 131.287 143.37 130.884 142.728 130.077V134.911H141.002Z" fill="#F6EBC8"/>
<path d="M138.39 124.556H134.719V131.058H133.012V123.002H140.087L140.097 131.058H138.39V124.556Z" fill="#F6EBC8"/>
<path d="M126.09 122.983H132.259L132.288 124.422H130.066V131.058H128.312V124.422H126.062L126.09 122.983Z" fill="#F6EBC8"/>
<path d="M121.304 122.697C122.136 122.697 122.883 122.881 123.544 123.25C124.205 123.618 124.72 124.136 125.089 124.804C125.458 125.465 125.642 126.215 125.642 127.054C125.642 127.88 125.458 128.621 125.089 129.275C124.72 129.93 124.202 130.439 123.535 130.801C122.867 131.157 122.111 131.335 121.266 131.335C120.439 131.335 119.702 131.147 119.054 130.772C118.405 130.41 117.9 129.898 117.538 129.237C117.182 128.57 117.004 127.817 117.004 126.978C117.004 126.158 117.185 125.423 117.547 124.775C117.909 124.12 118.418 123.612 119.073 123.25C119.727 122.881 120.471 122.697 121.304 122.697ZM121.323 124.26C120.789 124.26 120.331 124.394 119.95 124.661C119.568 124.921 119.282 125.261 119.092 125.681C118.901 126.1 118.806 126.552 118.806 127.035C118.806 127.512 118.901 127.96 119.092 128.379C119.282 128.792 119.568 129.132 119.95 129.399C120.331 129.66 120.789 129.79 121.323 129.79C121.85 129.79 122.299 129.66 122.667 129.399C123.042 129.139 123.322 128.796 123.506 128.37C123.697 127.944 123.792 127.499 123.792 127.035C123.792 126.558 123.697 126.107 123.506 125.681C123.322 125.255 123.042 124.912 122.667 124.651C122.292 124.391 121.844 124.26 121.323 124.26Z" fill="#F6EBC8"/>
<path d="M110.368 131.106V126.015L104.256 131.392V122.992H106.077V128.055L112.189 122.592V131.106H110.368Z" fill="#F6EBC8"/>
<path d="M94.3876 122.973V125.919L97.1908 122.973H99.46L95.7701 126.568L99.7747 131.058H97.4482L94.3876 127.369V131.058H92.6619V122.973H94.3876Z" fill="#F6EBC8"/>
<path d="M87.8755 122.697C88.7082 122.697 89.4551 122.881 90.1162 123.25C90.7772 123.618 91.2921 124.136 91.6608 124.804C92.0295 125.465 92.2138 126.215 92.2138 127.054C92.2138 127.88 92.0295 128.621 91.6608 129.275C91.2921 129.93 90.7741 130.439 90.1066 130.801C89.4392 131.157 88.6828 131.335 87.8374 131.335C87.0111 131.335 86.2737 131.147 85.6254 130.772C84.977 130.41 84.4717 129.898 84.1094 129.237C83.7534 128.57 83.5754 127.817 83.5754 126.978C83.5754 126.158 83.7566 125.423 84.1189 124.775C84.4812 124.12 84.9897 123.612 85.6445 123.25C86.2992 122.881 87.0429 122.697 87.8755 122.697ZM87.8946 124.26C87.3607 124.26 86.903 124.394 86.5216 124.661C86.1403 124.921 85.8542 125.261 85.6635 125.681C85.4728 126.1 85.3775 126.552 85.3775 127.035C85.3775 127.512 85.4728 127.96 85.6635 128.379C85.8542 128.792 86.1403 129.132 86.5216 129.399C86.903 129.66 87.3607 129.79 87.8946 129.79C88.4222 129.79 88.8703 129.66 89.239 129.399C89.614 129.139 89.8937 128.796 90.078 128.37C90.2687 127.944 90.3641 127.499 90.3641 127.035C90.3641 126.558 90.2687 126.107 90.078 125.681C89.8937 125.255 89.614 124.912 89.239 124.651C88.864 124.391 88.4158 124.26 87.8946 124.26Z" fill="#F6EBC8"/>
<path d="M76.9678 122.983H83.1367L83.1653 124.422H80.9437V131.058H79.1894V124.422H76.9392L76.9678 122.983Z" fill="#F6EBC8"/>
<path d="M76.558 128.989C75.6109 130.578 74.3142 131.373 72.6679 131.373C72.064 131.373 71.5174 131.275 71.0279 131.077C70.5321 130.874 70.1062 130.582 69.7503 130.2C69.4007 129.819 69.1305 129.364 68.9398 128.837C68.7555 128.303 68.6633 127.721 68.6633 127.092C68.6633 126.444 68.7555 125.846 68.9398 125.299C69.1305 124.746 69.3975 124.279 69.7407 123.898C70.0903 123.51 70.5067 123.215 70.9898 123.011C71.4729 122.801 72.0068 122.697 72.5916 122.697C73.2463 122.697 73.8406 122.83 74.3746 123.097C74.9085 123.358 75.3503 123.733 75.6999 124.222C75.9796 124.584 76.1766 124.991 76.291 125.443C76.4054 125.894 76.4817 126.523 76.5199 127.33H70.4272C70.4463 127.826 70.5544 128.265 70.7514 128.646C70.9548 129.028 71.225 129.32 71.5619 129.523C71.9051 129.727 72.2992 129.828 72.7441 129.828C73.7294 129.828 74.5367 129.247 75.1659 128.084L76.558 128.989ZM70.5798 126.005H74.6892C74.5875 125.427 74.365 124.985 74.0218 124.68C73.6785 124.375 73.2399 124.222 72.706 124.222C71.5428 124.222 70.834 124.816 70.5798 126.005Z" fill="#F6EBC8"/>
<path d="M66.127 124.584H63.4382V127.54C63.4382 128.049 63.3842 128.532 63.2761 128.989C63.1617 129.441 62.9837 129.848 62.7422 130.21C62.5006 130.572 62.186 130.858 61.7983 131.068C61.4105 131.271 60.956 131.373 60.4348 131.373C60.314 131.373 60.1964 131.367 60.082 131.354V129.647C60.1583 129.66 60.2378 129.666 60.3204 129.666C60.7844 129.666 61.1118 129.514 61.3025 129.209C61.4932 128.897 61.5885 128.379 61.5885 127.655L61.579 122.992H67.9672V131.058H66.127V124.584Z" fill="#F6EBC8"/>
<path d="M57.5077 130.077C57.2407 130.464 56.8816 130.766 56.4303 130.982C55.979 131.192 55.48 131.297 54.9334 131.297C54.2342 131.297 53.5985 131.109 53.0264 130.734C52.4607 130.359 52.0158 129.845 51.6916 129.19C51.3674 128.529 51.2053 127.791 51.2053 126.978C51.2053 126.183 51.3706 125.462 51.7011 124.813C52.038 124.165 52.4989 123.657 53.0836 123.288C53.6748 122.919 54.3295 122.735 55.0478 122.735C56.1538 122.735 56.9738 123.145 57.5077 123.965V122.973H59.2335V131.059H57.5077V130.077ZM55.3052 124.26C54.8094 124.26 54.3803 124.391 54.018 124.651C53.6621 124.912 53.3919 125.258 53.2076 125.691C53.0296 126.123 52.9406 126.577 52.9406 127.054C52.9406 127.524 53.0296 127.973 53.2076 128.398C53.3919 128.824 53.6621 129.171 54.018 129.438C54.3803 129.698 54.8094 129.829 55.3052 129.829C55.7946 129.829 56.2142 129.698 56.5638 129.438C56.9134 129.171 57.1772 128.821 57.3551 128.389C57.5395 127.957 57.6317 127.499 57.6317 127.016C57.6317 126.546 57.5458 126.097 57.3742 125.672C57.1899 125.252 56.9229 124.912 56.5733 124.651C56.2237 124.391 55.801 124.26 55.3052 124.26Z" fill="#F6EBC8"/>
<path d="M44.4358 122.983H50.6047L50.6333 124.422H48.4118V131.058H46.6574V124.422H44.4072L44.4358 122.983Z" fill="#F6EBC8"/>
<path d="M39.7067 124.26C38.963 124.26 38.3813 124.54 37.9618 125.099C37.5423 125.652 37.3325 126.304 37.3325 127.054C37.3325 127.531 37.4215 127.982 37.5995 128.408C37.7775 128.834 38.0413 129.177 38.3909 129.438C38.7405 129.698 39.16 129.829 39.6495 129.829C40.158 129.829 40.5902 129.695 40.9462 129.428C41.3085 129.161 41.5786 128.812 41.7566 128.379C41.9346 127.941 42.0236 127.48 42.0236 126.997C42.0236 126.533 41.9346 126.091 41.7566 125.672C41.585 125.246 41.3244 124.906 40.9748 124.651C40.6252 124.391 40.2025 124.26 39.7067 124.26ZM35.7212 134.911V122.964L37.447 122.973V123.965C38.0381 123.145 38.8708 122.735 39.945 122.735C40.7396 122.735 41.4229 122.941 41.995 123.355C42.5734 123.768 43.0056 124.305 43.2917 124.966C43.5841 125.627 43.7303 126.329 43.7303 127.073C43.7303 127.81 43.5904 128.5 43.3107 129.142C43.0311 129.784 42.6084 130.302 42.0426 130.696C41.4833 131.09 40.8095 131.287 40.0213 131.287C38.9471 131.287 38.089 130.884 37.447 130.077V134.911H35.7212Z" fill="#F6EBC8"/>
<path d="M33.0993 130.077C32.8323 130.464 32.4731 130.766 32.0218 130.982C31.5705 131.192 31.0716 131.297 30.5249 131.297C29.8257 131.297 29.1901 131.109 28.618 130.734C28.0523 130.359 27.6073 129.845 27.2831 129.19C26.959 128.529 26.7969 127.791 26.7969 126.978C26.7969 126.183 26.9621 125.462 27.2927 124.813C27.6296 124.165 28.0904 123.657 28.6752 123.288C29.2663 122.919 29.921 122.735 30.6393 122.735C31.7453 122.735 32.5653 123.145 33.0993 123.965V122.973H34.825V131.059H33.0993V130.077ZM30.8968 124.26C30.401 124.26 29.9719 124.391 29.6096 124.651C29.2536 124.912 28.9835 125.258 28.7991 125.691C28.6212 126.123 28.5322 126.577 28.5322 127.054C28.5322 127.524 28.6212 127.973 28.7991 128.398C28.9835 128.824 29.2536 129.171 29.6096 129.438C29.9719 129.698 30.401 129.829 30.8968 129.829C31.3862 129.829 31.8057 129.698 32.1553 129.438C32.5049 129.171 32.7687 128.821 32.9467 128.389C33.131 127.957 33.2232 127.499 33.2232 127.016C33.2232 126.546 33.1374 126.097 32.9658 125.672C32.7814 125.252 32.5145 124.912 32.1649 124.651C31.8153 124.391 31.3926 124.26 30.8968 124.26Z" fill="#F6EBC8"/>
<path d="M20.0271 122.983H26.196L26.2246 124.422H24.0031V131.058H22.2487V124.422H19.9985L20.0271 122.983Z" fill="#F6EBC8"/>
<path d="M204.15 113.207V108.115L198.038 113.493V105.093H199.859V110.155L205.971 104.692V113.207H204.15Z" fill="#F6EBC8"/>
<path d="M192.327 105.073V108.02L195.13 105.073H197.399L193.71 108.668L197.714 113.159H195.388L192.327 109.469V113.159H190.601V105.073H192.327Z" fill="#F6EBC8"/>
<path d="M183.622 105.083H189.791L189.82 106.523H187.598V113.159H185.844V106.523H183.594L183.622 105.083Z" fill="#F6EBC8"/>
<path d="M181 112.177C180.733 112.565 180.374 112.867 179.923 113.083C179.471 113.292 178.972 113.397 178.426 113.397C177.727 113.397 177.091 113.21 176.519 112.835C175.953 112.46 175.508 111.945 175.184 111.29C174.86 110.629 174.698 109.892 174.698 109.078C174.698 108.284 174.863 107.562 175.194 106.914C175.53 106.265 175.991 105.757 176.576 105.388C177.167 105.02 177.822 104.835 178.54 104.835C179.646 104.835 180.466 105.245 181 106.065V105.074H182.726V113.159H181V112.177ZM178.798 106.361C178.302 106.361 177.873 106.491 177.51 106.752C177.155 107.012 176.884 107.359 176.7 107.791C176.522 108.223 176.433 108.678 176.433 109.154C176.433 109.625 176.522 110.073 176.7 110.499C176.884 110.925 177.155 111.271 177.51 111.538C177.873 111.799 178.302 111.929 178.798 111.929C179.287 111.929 179.707 111.799 180.056 111.538C180.406 111.271 180.67 110.921 180.848 110.489C181.032 110.057 181.124 109.599 181.124 109.116C181.124 108.646 181.038 108.198 180.867 107.772C180.682 107.352 180.415 107.012 180.066 106.752C179.716 106.491 179.293 106.361 178.798 106.361Z" fill="#F6EBC8"/>
<path d="M167.928 105.083H174.097L174.126 106.523H171.904V113.159H170.15V106.523H167.899L167.928 105.083Z" fill="#F6EBC8"/>
<path d="M167.356 112.749C166.422 113.206 165.519 113.435 164.648 113.435C163.885 113.435 163.199 113.254 162.589 112.892C161.978 112.523 161.502 112.018 161.158 111.376C160.809 110.727 160.634 110 160.634 109.192C160.634 108.55 160.755 107.959 160.996 107.419C161.244 106.879 161.575 106.415 161.988 106.027C162.407 105.633 162.881 105.334 163.409 105.131C163.943 104.921 164.492 104.816 165.058 104.816C165.897 104.816 166.663 105.032 167.356 105.464V107.495C166.701 106.815 165.919 106.475 165.01 106.475C164.305 106.475 163.701 106.704 163.199 107.161C162.703 107.619 162.455 108.258 162.455 109.078C162.455 109.631 162.554 110.111 162.751 110.518C162.948 110.924 163.234 111.236 163.609 111.452C163.978 111.662 164.413 111.767 164.915 111.767C165.767 111.767 166.58 111.411 167.356 110.699V112.749Z" fill="#F6EBC8"/>
<path d="M156.105 104.797C156.938 104.797 157.685 104.981 158.346 105.35C159.007 105.719 159.522 106.237 159.891 106.904C160.259 107.565 160.444 108.315 160.444 109.154C160.444 109.981 160.259 110.721 159.891 111.376C159.522 112.03 159.004 112.539 158.336 112.901C157.669 113.257 156.913 113.435 156.067 113.435C155.241 113.435 154.503 113.248 153.855 112.873C153.207 112.51 152.701 111.999 152.339 111.338C151.983 110.67 151.805 109.917 151.805 109.078C151.805 108.258 151.986 107.524 152.349 106.875C152.711 106.221 153.219 105.712 153.874 105.35C154.529 104.981 155.273 104.797 156.105 104.797ZM156.124 106.361C155.59 106.361 155.133 106.494 154.751 106.761C154.37 107.022 154.084 107.362 153.893 107.781C153.703 108.201 153.607 108.652 153.607 109.135C153.607 109.612 153.703 110.06 153.893 110.48C154.084 110.893 154.37 111.233 154.751 111.5C155.133 111.76 155.59 111.891 156.124 111.891C156.652 111.891 157.1 111.76 157.469 111.5C157.844 111.239 158.123 110.896 158.308 110.47C158.498 110.044 158.594 109.599 158.594 109.135C158.594 108.658 158.498 108.207 158.308 107.781C158.123 107.355 157.844 107.012 157.469 106.751C157.094 106.491 156.646 106.361 156.124 106.361Z" fill="#F6EBC8"/>
<path d="M141.041 105.083H147.209L147.238 106.523H145.016V113.159H143.262V106.523H141.012L141.041 105.083Z" fill="#F6EBC8"/>
<path d="M136.254 104.797C137.087 104.797 137.834 104.981 138.495 105.35C139.156 105.719 139.671 106.237 140.039 106.904C140.408 107.565 140.592 108.315 140.592 109.154C140.592 109.981 140.408 110.721 140.039 111.376C139.671 112.03 139.153 112.539 138.485 112.901C137.818 113.257 137.061 113.435 136.216 113.435C135.39 113.435 134.652 113.248 134.004 112.873C133.356 112.51 132.85 111.999 132.488 111.338C132.132 110.67 131.954 109.917 131.954 109.078C131.954 108.258 132.135 107.524 132.498 106.875C132.86 106.221 133.368 105.712 134.023 105.35C134.678 104.981 135.422 104.797 136.254 104.797ZM136.273 106.361C135.739 106.361 135.282 106.494 134.9 106.761C134.519 107.022 134.233 107.362 134.042 107.781C133.851 108.201 133.756 108.652 133.756 109.135C133.756 109.612 133.851 110.06 134.042 110.48C134.233 110.893 134.519 111.233 134.9 111.5C135.282 111.76 135.739 111.891 136.273 111.891C136.801 111.891 137.249 111.76 137.618 111.5C137.993 111.239 138.272 110.896 138.457 110.47C138.647 110.044 138.743 109.599 138.743 109.135C138.743 108.658 138.647 108.207 138.457 107.781C138.272 107.355 137.993 107.012 137.618 106.751C137.243 106.491 136.795 106.361 136.273 106.361Z" fill="#F6EBC8"/>
<path d="M127.597 106.361C126.853 106.361 126.271 106.64 125.852 107.2C125.432 107.753 125.223 108.404 125.223 109.154C125.223 109.631 125.312 110.082 125.49 110.508C125.668 110.934 125.931 111.277 126.281 111.538C126.631 111.799 127.05 111.929 127.54 111.929C128.048 111.929 128.48 111.795 128.836 111.529C129.199 111.262 129.469 110.912 129.647 110.48C129.825 110.041 129.914 109.58 129.914 109.097C129.914 108.633 129.825 108.191 129.647 107.772C129.475 107.346 129.215 107.006 128.865 106.752C128.515 106.491 128.093 106.361 127.597 106.361ZM123.611 117.011V105.064L125.337 105.074V106.065C125.928 105.245 126.761 104.835 127.835 104.835C128.63 104.835 129.313 105.042 129.885 105.455C130.464 105.868 130.896 106.405 131.182 107.066C131.474 107.727 131.62 108.43 131.62 109.173C131.62 109.911 131.481 110.6 131.201 111.242C130.921 111.884 130.498 112.403 129.933 112.797C129.373 113.191 128.7 113.388 127.911 113.388C126.837 113.388 125.979 112.984 125.337 112.177V117.011H123.611Z" fill="#F6EBC8"/>
<path d="M112.341 113.159V105.083H115.183C116.028 105.083 116.689 105.264 117.166 105.626C117.643 105.989 117.881 106.485 117.881 107.114C117.881 107.552 117.741 107.928 117.461 108.239C117.188 108.544 116.816 108.735 116.346 108.811C117.07 108.856 117.639 109.081 118.053 109.488C118.466 109.895 118.672 110.368 118.672 110.909C118.672 111.157 118.625 111.398 118.529 111.633C118.44 111.868 118.297 112.091 118.1 112.301C117.903 112.504 117.671 112.669 117.404 112.797C116.927 113.038 116.244 113.159 115.354 113.159H112.341ZM113.972 112.129H115.221C116.346 112.193 116.908 111.764 116.908 110.842C116.908 109.914 116.324 109.45 115.154 109.45H113.972V112.129ZM113.972 108.248H114.734C115.205 108.248 115.577 108.15 115.85 107.953C116.111 107.762 116.241 107.495 116.241 107.152C116.241 106.86 116.104 106.618 115.831 106.427C115.558 106.237 115.233 106.141 114.858 106.141H113.972V108.248Z" fill="#F6EBC8"/>
<path d="M95.8083 113.206L98.6497 104.435L101.71 110.27L105.238 104.435L107.965 113.206H106.096L104.513 107.848L101.634 113.492L99.2217 107.829L97.6962 113.206H95.8083Z" fill="#F6EBC8"/>
<path d="M95.8178 111.09C94.8706 112.679 93.5739 113.473 91.9276 113.473C91.3238 113.473 90.7771 113.375 90.2877 113.178C89.7919 112.974 89.366 112.682 89.01 112.301C88.6604 111.919 88.3903 111.465 88.1996 110.937C88.0153 110.403 87.9231 109.822 87.9231 109.192C87.9231 108.544 88.0153 107.946 88.1996 107.4C88.3903 106.847 88.6573 106.38 89.0005 105.998C89.3501 105.61 89.7665 105.315 90.2495 105.112C90.7326 104.902 91.2666 104.797 91.8514 104.797C92.5061 104.797 93.1004 104.93 93.6343 105.197C94.1683 105.458 94.61 105.833 94.9596 106.322C95.2393 106.685 95.4364 107.092 95.5508 107.543C95.6652 107.994 95.7415 108.623 95.7796 109.431H89.687C89.7061 109.926 89.8141 110.365 90.0112 110.746C90.2146 111.128 90.4847 111.42 90.8216 111.624C91.1649 111.827 91.559 111.929 92.0039 111.929C92.9892 111.929 93.7964 111.347 94.4257 110.184L95.8178 111.09ZM89.8396 108.105H93.949C93.8473 107.527 93.6248 107.085 93.2815 106.78C92.9383 106.475 92.4997 106.322 91.9658 106.322C90.8025 106.322 90.0938 106.917 89.8396 108.105Z" fill="#F6EBC8"/>
<path d="M85.7111 112.177C85.4441 112.565 85.085 112.867 84.6337 113.083C84.1824 113.292 83.6834 113.397 83.1367 113.397C82.4375 113.397 81.8019 113.21 81.2298 112.835C80.6641 112.46 80.2191 111.945 79.895 111.29C79.5708 110.629 79.4087 109.892 79.4087 109.078C79.4087 108.284 79.574 107.562 79.9045 106.914C80.2414 106.265 80.7022 105.757 81.287 105.388C81.8782 105.02 82.5329 104.835 83.2511 104.835C84.3572 104.835 85.1771 105.245 85.7111 106.065V105.074H87.4368V113.159H85.7111V112.177ZM83.5086 106.361C83.0128 106.361 82.5837 106.491 82.2214 106.752C81.8654 107.012 81.5953 107.359 81.411 107.791C81.233 108.223 81.144 108.678 81.144 109.154C81.144 109.625 81.233 110.073 81.411 110.499C81.5953 110.925 81.8654 111.271 82.2214 111.538C82.5837 111.799 83.0128 111.929 83.5086 111.929C83.998 111.929 84.4175 111.799 84.7671 111.538C85.1167 111.271 85.3805 110.921 85.5585 110.489C85.7429 110.057 85.835 109.599 85.835 109.116C85.835 108.646 85.7492 108.198 85.5776 107.772C85.3932 107.352 85.1263 107.012 84.7767 106.752C84.4271 106.491 84.0044 106.361 83.5086 106.361Z" fill="#F6EBC8"/>
<path d="M72.5056 113.159V105.083H75.3469C76.1923 105.083 76.8534 105.264 77.3301 105.626C77.8069 105.989 78.0452 106.485 78.0452 107.114C78.0452 107.552 77.9054 107.928 77.6257 108.239C77.3524 108.544 76.9805 108.735 76.5102 108.811C77.2348 108.856 77.8037 109.081 78.2168 109.488C78.63 109.895 78.8366 110.368 78.8366 110.909C78.8366 111.157 78.7889 111.398 78.6936 111.633C78.6046 111.868 78.4616 112.091 78.2645 112.301C78.0675 112.504 77.8355 112.669 77.5685 112.797C77.0918 113.038 76.4084 113.159 75.5186 113.159H72.5056ZM74.136 112.129H75.3851C76.5102 112.193 77.0727 111.764 77.0727 110.842C77.0727 109.914 76.4879 109.45 75.3183 109.45H74.136V112.129ZM74.136 108.248H74.8988C75.3692 108.248 75.741 108.15 76.0144 107.953C76.275 107.762 76.4053 107.495 76.4053 107.152C76.4053 106.86 76.2686 106.618 75.9953 106.427C75.722 106.237 75.3978 106.141 75.0228 106.141H74.136V108.248Z" fill="#F6EBC8"/>
<path d="M65.3262 105.083V108.458H66.3178C67.0043 108.458 67.5796 108.582 68.0436 108.83C68.5076 109.034 68.8636 109.316 69.1115 109.679C69.3657 110.035 69.4928 110.438 69.4928 110.89C69.4928 111.347 69.3625 111.748 69.1019 112.091C68.8477 112.428 68.4822 112.692 68.0054 112.882C67.5351 113.067 66.9884 113.159 66.3655 113.159H63.5242V105.083H65.3262ZM65.3262 112.043H66.1462C66.4195 112.043 66.7405 111.942 67.1092 111.738C67.4651 111.535 67.6431 111.246 67.6431 110.871C67.6431 110.057 67.1441 109.65 66.1462 109.65H65.3262V112.043ZM69.9028 113.159H71.6095L71.6 105.073H69.9028V113.159Z" fill="#F6EBC8"/>
<path d="M55.3054 111.605H59.9487V106.446H57.2504C57.1169 109.377 56.4686 111.096 55.3054 111.605ZM53.4652 111.643C54.6284 111.134 55.2672 108.948 55.3816 105.083H61.7889V111.643H62.7233V114.837H60.8831V113.254H54.3519V114.837H52.5117V111.643H53.4652Z" fill="#F6EBC8"/>
<path d="M49.6893 113.207V108.115L43.5776 113.493V105.093H45.3987V110.155L51.5104 104.692V113.207H49.6893Z" fill="#F6EBC8"/>
<path d="M37.8664 105.073V108.02L40.6696 105.073H42.9388L39.2489 108.668L43.2534 113.159H40.927L37.8664 109.469V113.159H36.1406V105.073H37.8664Z" fill="#F6EBC8"/>
<path d="M33.5187 112.177C33.2517 112.565 32.8926 112.867 32.4413 113.083C31.99 113.292 31.491 113.397 30.9443 113.397C30.2451 113.397 29.6095 113.21 29.0374 112.835C28.4717 112.46 28.0268 111.945 27.7026 111.29C27.3784 110.629 27.2163 109.892 27.2163 109.078C27.2163 108.284 27.3816 107.562 27.7121 106.914C28.049 106.265 28.5098 105.757 29.0946 105.388C29.6858 105.02 30.3405 104.835 31.0588 104.835C32.1648 104.835 32.9847 105.245 33.5187 106.065V105.074H35.2445V113.159H33.5187V112.177ZM31.3162 106.361C30.8204 106.361 30.3913 106.491 30.029 106.752C29.6731 107.012 29.4029 107.359 29.2186 107.791C29.0406 108.223 28.9516 108.678 28.9516 109.154C28.9516 109.625 29.0406 110.073 29.2186 110.499C29.4029 110.925 29.6731 111.271 30.029 111.538C30.3913 111.799 30.8204 111.929 31.3162 111.929C31.8056 111.929 32.2252 111.799 32.5748 111.538C32.9244 111.271 33.1882 110.921 33.3661 110.489C33.5505 110.057 33.6426 109.599 33.6426 109.116C33.6426 108.646 33.5568 108.198 33.3852 107.772C33.2009 107.352 32.9339 107.012 32.5843 106.752C32.2347 106.491 31.812 106.361 31.3162 106.361Z" fill="#F6EBC8"/>
<path d="M21.505 108.563H22.9447C24.2033 108.455 24.8325 108.039 24.8325 107.314C24.8325 106.939 24.6641 106.647 24.3272 106.437C23.9967 106.221 23.5517 106.113 22.9924 106.113C22.0961 106.087 21.0886 106.138 19.9699 106.265V105.302C21.2984 105.074 22.3059 104.975 22.9924 105.007C23.6789 105.032 24.2795 105.134 24.7944 105.312C25.3093 105.49 25.7034 105.747 25.9767 106.084C26.2564 106.415 26.3962 106.802 26.3962 107.247C26.3962 107.731 26.25 108.112 25.9576 108.392C25.6652 108.671 25.2012 108.868 24.5656 108.983C26.0339 109.154 26.7681 109.812 26.7681 110.956C26.7681 111.459 26.5837 111.894 26.2151 112.263C25.8464 112.638 25.3633 112.927 24.7658 113.13C24.1683 113.327 23.539 113.432 22.878 113.445C22.2169 113.464 21.5717 113.416 20.9424 113.302C20.3195 113.194 19.954 113.137 19.8459 113.13V112.081C21.3397 112.291 22.3885 112.396 22.9924 112.396C23.6407 112.396 24.1651 112.269 24.5656 112.015C24.966 111.76 25.1663 111.417 25.1663 110.985C25.1663 110.127 24.4575 109.641 23.04 109.526H21.505V108.563Z" fill="#F6EBC8"/>
<path d="M303.107 82.3506V70.6826L289.101 83.0061V63.7561H293.274V75.3585L307.28 62.8384V82.3506H303.107Z" fill="#F6EBC8"/>
<path d="M276.012 63.7124V70.4641L282.436 63.7124H287.637L279.181 71.9499L288.358 82.2413H283.026L276.012 73.7853V82.2413H272.058V63.7124H276.012Z" fill="#F6EBC8"/>
<path d="M266.071 74.2659H257.658V82.2412H253.747V63.7778H257.636V70.748H266.071V63.7778H269.96L269.982 82.2412H266.071V74.2659Z" fill="#F6EBC8"/>
<path d="M247.345 82.3506V70.6826L233.339 83.0061V63.7561H237.512V75.3585L251.518 62.8384V82.3506H247.345Z" fill="#F6EBC8"/>
<path d="M222.72 66.662C221.016 66.662 219.683 67.303 218.721 68.5849C217.76 69.8522 217.279 71.3453 217.279 73.0641C217.279 74.1566 217.483 75.1909 217.891 76.1669C218.299 77.1428 218.904 77.9294 219.705 78.5267C220.506 79.1239 221.467 79.4225 222.589 79.4225C223.754 79.4225 224.745 79.1166 225.561 78.5048C226.391 77.893 227.01 77.0918 227.418 76.1013C227.826 75.0962 228.03 74.0401 228.03 72.933C228.03 71.8697 227.826 70.8573 227.418 69.8959C227.025 68.9199 226.427 68.1406 225.626 67.5579C224.825 66.9607 223.856 66.662 222.72 66.662ZM213.587 91.0687V63.6904L217.542 63.7123V65.9847C218.896 64.1056 220.805 63.166 223.266 63.166C225.087 63.166 226.653 63.6394 227.964 64.5863C229.29 65.5331 230.28 66.764 230.936 68.279C231.606 69.7939 231.941 71.4035 231.941 73.1078C231.941 74.7976 231.62 76.3781 230.979 77.8493C230.338 79.3206 229.37 80.5078 228.073 81.4109C226.791 82.314 225.247 82.7656 223.441 82.7656C220.979 82.7656 219.013 81.8406 217.542 79.9906V91.0687H213.587Z" fill="#F6EBC8"/>
<path d="M212.647 77.4997C210.477 81.1414 207.505 82.9623 203.732 82.9623C202.348 82.9623 201.096 82.7365 199.974 82.2849C198.838 81.8188 197.862 81.1487 197.046 80.2747C196.245 79.4007 195.626 78.3592 195.189 77.1501C194.766 75.9265 194.555 74.5936 194.555 73.1515C194.555 71.6657 194.766 70.2964 195.189 69.0437C195.626 67.7764 196.238 66.7057 197.024 65.8317C197.825 64.9432 198.78 64.2658 199.887 63.7997C200.994 63.319 202.217 63.0786 203.557 63.0786C205.058 63.0786 206.42 63.3845 207.643 63.9963C208.867 64.5936 209.879 65.453 210.681 66.5746C211.322 67.4049 211.773 68.3372 212.035 69.3715C212.297 70.4057 212.472 71.8478 212.56 73.6978H198.597C198.641 74.834 198.889 75.8391 199.34 76.7131C199.806 77.5871 200.426 78.2572 201.198 78.7233C201.984 79.1895 202.887 79.4225 203.907 79.4225C206.165 79.4225 208.015 78.0897 209.457 75.4239L212.647 77.4997ZM198.947 70.6606H208.364C208.131 69.335 207.622 68.3226 206.835 67.6234C206.048 66.9242 205.043 66.5746 203.82 66.5746C201.154 66.5746 199.53 67.9366 198.947 70.6606Z" fill="#F6EBC8"/>
<path d="M189.508 74.2659C184.264 76.2324 180.054 74.6592 176.878 69.5463V63.7778H180.811L180.768 68.6941C182.006 72.2193 184.919 72.9039 189.508 70.748V63.7778H193.397L193.419 82.2412H189.508V74.2659Z" fill="#F6EBC8"/>
<path d="M176.376 77.4997C174.205 81.1414 171.234 82.9623 167.461 82.9623C166.077 82.9623 164.824 82.7365 163.703 82.2849C162.567 81.8188 161.591 81.1487 160.775 80.2747C159.974 79.4007 159.355 78.3592 158.918 77.1501C158.495 75.9265 158.284 74.5936 158.284 73.1515C158.284 71.6657 158.495 70.2964 158.918 69.0437C159.355 67.7764 159.966 66.7057 160.753 65.8317C161.554 64.9432 162.508 64.2658 163.615 63.7997C164.722 63.319 165.946 63.0786 167.286 63.0786C168.787 63.0786 170.149 63.3845 171.372 63.9963C172.596 64.5936 173.608 65.453 174.409 66.5746C175.05 67.4049 175.502 68.3372 175.764 69.3715C176.026 70.4057 176.201 71.8478 176.288 73.6978H162.326C162.37 74.834 162.618 75.8391 163.069 76.7131C163.535 77.5871 164.154 78.2572 164.926 78.7233C165.713 79.1895 166.616 79.4225 167.636 79.4225C169.894 79.4225 171.744 78.0897 173.186 75.4239L176.376 77.4997ZM162.676 70.6606H172.093C171.86 69.335 171.35 68.3226 170.564 67.6234C169.777 66.9242 168.772 66.5746 167.548 66.5746C164.883 66.5746 163.258 67.9366 162.676 70.6606Z" fill="#F6EBC8"/>
<path d="M142.923 82.2412V63.7341H149.434C151.372 63.7341 152.887 64.1493 153.979 64.9796C155.072 65.8099 155.618 66.9461 155.618 68.3882C155.618 69.3933 155.298 70.2528 154.657 70.9665C154.03 71.6657 153.178 72.1027 152.1 72.2775C153.761 72.3795 155.064 72.8966 156.011 73.8289C156.958 74.7612 157.432 75.8464 157.432 77.0846C157.432 77.6527 157.322 78.2062 157.104 78.7452C156.9 79.2842 156.572 79.794 156.121 80.2747C155.669 80.7408 155.137 81.1196 154.526 81.4109C153.433 81.9644 151.867 82.2412 149.828 82.2412H142.923ZM146.659 79.8814H149.522C152.1 80.0271 153.389 79.0438 153.389 76.9316C153.389 74.8049 152.049 73.7415 149.369 73.7415H146.659V79.8814ZM146.659 70.9884H148.407C149.485 70.9884 150.338 70.7626 150.964 70.311C151.561 69.874 151.86 69.2622 151.86 68.4756C151.86 67.8055 151.547 67.252 150.92 66.815C150.294 66.378 149.551 66.1595 148.692 66.1595H146.659V70.9884Z" fill="#F6EBC8"/>
<path d="M126.951 67.4051H120.789V74.1786C120.789 75.344 120.665 76.451 120.417 77.4998C120.155 78.5341 119.747 79.4664 119.194 80.2967C118.64 81.127 117.919 81.7825 117.031 82.2632C116.142 82.7293 115.101 82.9624 113.906 82.9624C113.629 82.9624 113.36 82.9478 113.098 82.9187V79.0075C113.272 79.0366 113.455 79.0512 113.644 79.0512C114.707 79.0512 115.457 78.7016 115.894 78.0024C116.331 77.2886 116.55 76.1014 116.55 74.4408L116.528 63.7561H131.168V82.2413H126.951V67.4051Z" fill="#F6EBC8"/>
<path d="M107.198 79.9906C106.586 80.8792 105.763 81.5711 104.729 82.0664C103.695 82.5471 102.551 82.7875 101.299 82.7875C99.6962 82.7875 98.2395 82.3577 96.9285 81.4983C95.6321 80.6389 94.6124 79.4589 93.8695 77.9586C93.1266 76.4436 92.7551 74.7539 92.7551 72.8893C92.7551 71.0685 93.1339 69.4152 93.8913 67.9293C94.6634 66.4435 95.7195 65.2782 97.0596 64.4333C98.4143 63.5885 99.9147 63.166 101.561 63.166C104.095 63.166 105.974 64.1056 107.198 65.9847V63.7123H111.153V82.2412H107.198V79.9906ZM102.151 66.662C101.014 66.662 100.031 66.9607 99.2009 67.5579C98.3852 68.1551 97.7661 68.949 97.3437 69.9396C96.9358 70.9301 96.7319 71.9716 96.7319 73.0641C96.7319 74.1421 96.9358 75.169 97.3437 76.145C97.7661 77.121 98.3852 77.9149 99.2009 78.5267C100.031 79.1239 101.014 79.4225 102.151 79.4225C103.272 79.4225 104.234 79.1239 105.035 78.5267C105.836 77.9149 106.441 77.1137 106.848 76.1232C107.271 75.1326 107.482 74.0838 107.482 72.9767C107.482 71.8988 107.285 70.8718 106.892 69.8959C106.47 68.9345 105.858 68.1551 105.057 67.5579C104.256 66.9607 103.287 66.662 102.151 66.662Z" fill="#F6EBC8"/>
<path d="M87.249 74.2659H78.8367V82.2412H74.9255V63.7778H78.8149V70.748H87.249V63.7778H91.1383L91.1602 82.2412H87.249V74.2659Z" fill="#F6EBC8"/>
<path d="M68.5235 82.3506V70.6826L54.5176 83.0061V63.7561H58.691V75.3585L72.6969 62.8384V82.3506H68.5235Z" fill="#F6EBC8"/>
<path d="M43.8983 66.6621C42.194 66.6621 40.8612 67.303 39.8998 68.5849C38.9383 69.8522 38.4576 71.3453 38.4576 73.0642C38.4576 74.1567 38.6616 75.1909 39.0694 76.1669C39.4773 77.1429 40.0818 77.9295 40.883 78.5267C41.6842 79.1239 42.6456 79.4226 43.7672 79.4226C44.9326 79.4226 45.9231 79.1167 46.7388 78.5049C47.5692 77.893 48.1882 77.0919 48.5961 76.1013C49.004 75.0962 49.2079 74.0401 49.2079 72.9331C49.2079 71.8697 49.004 70.8573 48.5961 69.8959C48.2028 68.9199 47.6056 68.1406 46.8044 67.5579C46.0032 66.9607 45.0345 66.6621 43.8983 66.6621ZM38.5013 52.4813H38.7198V65.9847C40.0746 64.1056 41.9828 63.166 44.4446 63.166C46.2654 63.166 47.8314 63.6395 49.1424 64.5863C50.4679 65.5331 51.4585 66.764 52.114 68.279C52.7841 69.7939 53.1191 71.4036 53.1191 73.1079C53.1191 74.7976 52.7986 76.3781 52.1577 77.8493C51.5167 79.3206 50.5481 80.5078 49.2516 81.4109C47.9697 82.3141 46.4257 82.7656 44.6194 82.7656C42.1576 82.7656 40.1911 81.8406 38.7198 79.9907V91.0687H34.5465V79.9907C33.0752 81.8406 31.1087 82.7656 28.6469 82.7656C26.8406 82.7656 25.2893 82.3141 23.9928 81.4109C22.711 80.5078 21.7496 79.3206 21.1086 77.8493C20.4677 76.3781 20.1472 74.7976 20.1472 73.1079C20.1472 71.4036 20.475 69.7939 21.1305 68.279C21.8005 66.764 22.7911 65.5331 24.1021 64.5863C25.4277 63.6395 27.0009 63.166 28.8217 63.166C31.2835 63.166 33.1918 64.1056 34.5465 65.9847V52.4813H34.765V52.4595H38.5013V52.4813ZM34.765 73.9382V72.1902C34.6339 70.8355 34.1677 69.6264 33.3666 68.563C32.4052 67.2957 31.0723 66.6621 29.368 66.6621C28.2318 66.6621 27.2631 66.9607 26.4619 67.5579C25.6607 68.1406 25.0562 68.9199 24.6483 69.8959C24.255 70.8573 24.0584 71.8697 24.0584 72.9331C24.0584 74.0401 24.2623 75.0962 24.6702 76.1013C25.0781 77.0919 25.6899 77.893 26.5056 78.5049C27.3359 79.1167 28.3337 79.4226 29.4991 79.4226C30.6207 79.4226 31.5821 79.1239 32.3833 78.5267C33.1845 77.9295 33.789 77.1429 34.1969 76.1669C34.5028 75.4531 34.6921 74.7102 34.765 73.9382Z" fill="#F6EBC8"/>
</svg>
