<svg width="313" height="135" viewBox="0 0 313 135" fill="none" xmlns="http://www.w3.org/2000/svg">
<path d="M222.747 76.5532C218.653 76.5532 214.905 75.651 211.505 73.8466C208.173 72.0422 205.259 69.5091 202.76 66.2473C200.331 62.9161 198.423 58.995 197.035 54.484C195.716 49.9036 195.057 44.9068 195.057 39.4936C195.057 33.7334 195.716 28.459 197.035 23.6704C198.353 18.8818 200.192 14.7525 202.552 11.2825C204.981 7.81255 207.826 5.14065 211.088 3.26685C214.419 1.32365 218.063 0.352051 222.019 0.352051C226.044 0.352051 229.757 1.25425 233.157 3.05865C236.558 4.86305 239.473 7.43084 241.902 10.762C244.4 14.0238 246.309 17.9449 247.627 22.5253C249.015 27.0363 249.709 31.9984 249.709 37.4116C249.709 43.1718 249.05 48.4462 247.731 53.2348C246.413 58.0234 244.539 62.1527 242.11 65.6227C239.75 69.0927 236.905 71.7993 233.574 73.7425C230.312 75.6163 226.703 76.5532 222.747 76.5532ZM214.732 39.3895C214.732 45.4967 214.871 50.6323 215.148 54.7963C215.426 58.9603 215.877 62.3262 216.501 64.894C217.126 67.4618 217.924 69.3009 218.896 70.4113C219.937 71.5217 221.221 72.0769 222.747 72.0769C224.135 72.0769 225.281 71.487 226.183 70.3072C227.154 69.1274 227.918 67.1842 228.473 64.4776C229.028 61.771 229.41 58.2316 229.618 53.8594C229.896 49.4178 230.034 43.9699 230.034 37.5157C230.034 31.4085 229.896 26.2729 229.618 22.1089C229.34 17.8755 228.889 14.5096 228.265 12.0112C227.64 9.44344 226.807 7.60435 225.766 6.49395C224.795 5.38355 223.546 4.82835 222.019 4.82835C220.631 4.82835 219.486 5.41825 218.583 6.59805C217.681 7.77784 216.918 9.72104 216.293 12.4276C215.738 15.1342 215.322 18.7083 215.044 23.1499C214.836 27.5221 214.732 32.9353 214.732 39.3895Z" fill="#FF9EA7" fill-opacity="0.75"/>
<path d="M163.988 76.5532C159.893 76.5532 156.146 75.651 152.745 73.8466C149.414 72.0422 146.499 69.5091 144.001 66.2473C141.572 62.9161 139.663 58.995 138.275 54.484C136.957 49.9036 136.297 44.9068 136.297 39.4936C136.297 33.7334 136.957 28.459 138.275 23.6704C139.594 18.8818 141.433 14.7525 143.793 11.2825C146.222 7.81255 149.067 5.14065 152.329 3.26685C155.66 1.32365 159.303 0.352051 163.259 0.352051C167.284 0.352051 170.997 1.25425 174.398 3.05865C177.799 4.86305 180.713 7.43084 183.142 10.762C185.641 14.0238 187.549 17.9449 188.868 22.5253C190.256 27.0363 190.95 31.9984 190.95 37.4116C190.95 43.1718 190.291 48.4462 188.972 53.2348C187.653 58.0234 185.78 62.1527 183.351 65.6227C180.991 69.0927 178.146 71.7993 174.814 73.7425C171.553 75.6163 167.944 76.5532 163.988 76.5532ZM155.972 39.3895C155.972 45.4967 156.111 50.6323 156.389 54.7963C156.666 58.9603 157.117 62.3262 157.742 64.894C158.367 67.4618 159.165 69.3009 160.136 70.4113C161.177 71.5217 162.461 72.0769 163.988 72.0769C165.376 72.0769 166.521 71.487 167.423 70.3072C168.395 69.1274 169.158 67.1842 169.713 64.4776C170.269 61.771 170.65 58.2316 170.859 53.8594C171.136 49.4178 171.275 43.9699 171.275 37.5157C171.275 31.4085 171.136 26.2729 170.859 22.1089C170.581 17.8755 170.13 14.5096 169.505 12.0112C168.881 9.44344 168.048 7.60435 167.007 6.49395C166.035 5.38355 164.786 4.82835 163.259 4.82835C161.871 4.82835 160.726 5.41825 159.824 6.59805C158.922 7.77784 158.158 9.72104 157.534 12.4276C156.979 15.1342 156.562 18.7083 156.285 23.1499C156.076 27.5221 155.972 32.9353 155.972 39.3895Z" fill="#FF9EA7" fill-opacity="0.75"/>
<path d="M120.755 48.2381C118.188 48.2381 115.967 47.3359 114.093 45.5315C112.289 43.6577 111.386 41.4369 111.386 38.8691C111.386 36.3013 112.289 34.1152 114.093 32.3108C115.967 30.5064 118.188 29.6042 120.755 29.6042C123.323 29.6042 125.509 30.5064 127.314 32.3108C129.118 34.1152 130.02 36.3013 130.02 38.8691C130.02 41.4369 129.118 43.6577 127.314 45.5315C125.509 47.3359 123.323 48.2381 120.755 48.2381ZM111.386 67.1843C111.386 64.6165 112.289 62.4304 114.093 60.626C115.967 58.8216 118.188 57.9194 120.755 57.9194C123.323 57.9194 125.509 58.8216 127.314 60.626C129.118 62.4304 130.02 64.6165 130.02 67.1843C130.02 69.7521 129.118 71.9729 127.314 73.8467C125.509 75.6511 123.323 76.5533 120.755 76.5533C118.188 76.5533 115.967 75.6511 114.093 73.8467C112.289 71.9729 111.386 69.7521 111.386 67.1843Z" fill="#FF9EA7" fill-opacity="0.75"/>
<path d="M55.519 74.8876C54.825 74.8876 54.478 74.5406 54.478 73.8466V71.6605C54.478 71.2441 54.9291 70.4807 55.8313 69.3703C61.1751 62.7773 65.7555 56.8436 69.5725 51.5692C73.4589 46.2254 76.6513 41.4021 79.1497 37.0993C81.6481 32.7271 83.4872 28.806 84.667 25.336C85.8468 21.866 86.4367 18.6736 86.4367 15.7588C86.4367 12.4276 85.8468 9.79044 84.667 7.84724C83.5566 5.83465 82.1339 4.82835 80.3989 4.82835C78.5945 4.82835 77.1718 5.66115 76.1308 7.32674C75.0898 8.92294 74.3264 10.8314 73.8406 13.0522C73.3548 15.2036 73.0772 17.3897 73.0078 19.6105C72.9384 21.7619 73.0078 23.3928 73.216 24.5032C73.4242 26.3076 72.7302 27.1404 71.134 27.0016C68.4274 26.7934 65.7208 26.377 63.0142 25.7524C60.3076 25.0584 57.8439 24.2256 55.6231 23.254C55.0679 22.9764 54.5821 22.6988 54.1657 22.4212C53.8187 22.0742 53.6799 21.6231 53.7493 21.0679C54.0963 18.1531 54.9985 15.4465 56.4559 12.9481C57.9827 10.4497 59.8912 8.26364 62.1814 6.38984C64.4716 4.51604 67.0741 3.05865 69.9889 2.01765C72.9731 0.90725 76.0961 0.352051 79.3579 0.352051C82.6891 0.352051 85.7774 0.87255 88.6228 1.91355C91.5376 2.95455 94.0707 4.37725 96.2221 6.18165C98.3735 7.98605 100.039 10.1374 101.219 12.6358C102.468 15.0648 103.093 17.702 103.093 20.5474C103.093 24.7114 102.295 28.6672 100.698 32.4148C99.1022 36.1624 96.6732 39.91 93.4114 43.6576C90.219 47.4052 86.1938 51.2569 81.3358 55.2127C76.4778 59.0991 70.8217 63.2631 64.3675 67.7047C63.8817 67.9823 63.6735 68.2946 63.7429 68.6416C63.8123 68.9886 64.1246 69.0927 64.6798 68.9539C70.7176 67.7741 76.9983 65.7615 83.5219 62.9161C90.1149 60.0707 96.465 56.6701 102.572 52.7143C104.307 51.6039 105.175 51.9509 105.175 53.7553V73.8466C105.175 74.5406 104.828 74.8876 104.134 74.8876H55.519Z" fill="#FF9EA7" fill-opacity="0.75"/>
<path d="M2.04584 74.8876C1.35184 74.8876 1.00484 74.5406 1.00484 73.8466V71.6605C1.00484 71.2441 1.45594 70.4807 2.35814 69.3703C7.70194 62.7773 12.2823 56.8436 16.0993 51.5692C19.9857 46.2254 23.1781 41.4021 25.6765 37.0993C28.1749 32.7271 30.014 28.806 31.1938 25.336C32.3736 21.866 32.9635 18.6736 32.9635 15.7588C32.9635 12.4276 32.3736 9.79044 31.1938 7.84724C30.0834 5.83465 28.6607 4.82835 26.9257 4.82835C25.1213 4.82835 23.6986 5.66115 22.6576 7.32674C21.6166 8.92294 20.8532 10.8314 20.3674 13.0522C19.8816 15.2036 19.604 17.3897 19.5346 19.6105C19.4652 21.7619 19.5346 23.3928 19.7428 24.5032C19.951 26.3076 19.257 27.1404 17.6608 27.0016C14.9542 26.7934 12.2476 26.377 9.54103 25.7524C6.83444 25.0584 4.37074 24.2256 2.14994 23.254C1.59474 22.9764 1.10894 22.6988 0.692539 22.4212C0.345539 22.0742 0.206739 21.6231 0.276139 21.0679C0.623139 18.1531 1.52534 15.4465 2.98274 12.9481C4.50954 10.4497 6.41804 8.26364 8.70823 6.38984C10.9984 4.51604 13.6009 3.05865 16.5157 2.01765C19.4999 0.90725 22.6229 0.352051 25.8847 0.352051C29.2159 0.352051 32.3042 0.87255 35.1496 1.91355C38.0644 2.95455 40.5975 4.37725 42.7489 6.18165C44.9003 7.98605 46.5659 10.1374 47.7457 12.6358C48.9949 15.0648 49.6195 17.702 49.6195 20.5474C49.6195 24.7114 48.8214 28.6672 47.2252 32.4148C45.629 36.1624 43.2 39.91 39.9382 43.6576C36.7458 47.4052 32.7206 51.2569 27.8626 55.2127C23.0046 59.0991 17.3485 63.2631 10.8943 67.7047C10.4085 67.9823 10.2003 68.2946 10.2697 68.6416C10.3391 68.9886 10.6514 69.0927 11.2066 68.9539C17.2444 67.7741 23.5251 65.7615 30.0487 62.9161C36.6417 60.0707 42.9918 56.6701 49.099 52.7143C50.834 51.6039 51.7015 51.9509 51.7015 53.7553V73.8466C51.7015 74.5406 51.3545 74.8876 50.6605 74.8876H2.04584Z" fill="#FF9EA7" fill-opacity="0.75"/>
<path d="M176.375 131.004V122.931H179.215C180.06 122.931 180.72 123.112 181.197 123.475C181.674 123.837 181.912 124.332 181.912 124.961C181.912 125.4 181.772 125.775 181.492 126.086C181.219 126.391 180.848 126.582 180.377 126.658C181.102 126.702 181.67 126.928 182.083 127.335C182.496 127.741 182.703 128.215 182.703 128.755C182.703 129.002 182.655 129.244 182.56 129.479C182.471 129.714 182.328 129.936 182.131 130.146C181.934 130.349 181.702 130.515 181.435 130.642C180.959 130.883 180.276 131.004 179.386 131.004H176.375ZM178.004 129.975H179.253C180.377 130.038 180.94 129.609 180.94 128.688C180.94 127.76 180.355 127.296 179.186 127.296H178.004V129.975ZM178.004 126.096H178.767C179.237 126.096 179.609 125.997 179.882 125.8C180.142 125.61 180.273 125.343 180.273 125C180.273 124.707 180.136 124.466 179.863 124.275C179.59 124.085 179.265 123.989 178.891 123.989H178.004V126.096Z" fill="#F6EBC8"/>
<path d="M176.098 128.936C175.151 130.524 173.855 131.318 172.21 131.318C171.606 131.318 171.06 131.22 170.57 131.023C170.075 130.82 169.649 130.527 169.293 130.146C168.944 129.765 168.674 129.311 168.483 128.783C168.299 128.25 168.207 127.668 168.207 127.039C168.207 126.391 168.299 125.794 168.483 125.247C168.674 124.695 168.941 124.228 169.284 123.846C169.633 123.459 170.049 123.163 170.532 122.96C171.015 122.75 171.549 122.646 172.133 122.646C172.788 122.646 173.382 122.779 173.916 123.046C174.449 123.306 174.891 123.681 175.24 124.17C175.52 124.533 175.717 124.939 175.831 125.39C175.946 125.841 176.022 126.47 176.06 127.277H169.97C169.989 127.773 170.097 128.211 170.294 128.593C170.497 128.974 170.767 129.266 171.104 129.469C171.447 129.673 171.841 129.774 172.286 129.774C173.271 129.774 174.078 129.193 174.707 128.03L176.098 128.936ZM170.122 125.953H174.23C174.128 125.374 173.906 124.933 173.563 124.628C173.22 124.323 172.781 124.17 172.248 124.17C171.085 124.17 170.377 124.764 170.122 125.953Z" fill="#F6EBC8"/>
<path d="M166.358 132.615V131.004H160.039V122.95H161.745V129.45H165.414V122.95H167.12L167.111 129.46H167.835V132.615H166.358Z" fill="#F6EBC8"/>
<path d="M157.485 127.525H153.816V131.004H152.11V122.95H153.806V125.991H157.485V122.95H159.181L159.191 131.004H157.485V127.525Z" fill="#F6EBC8"/>
<path d="M149.546 130.022C149.279 130.41 148.92 130.712 148.469 130.928C148.018 131.137 147.519 131.242 146.973 131.242C146.274 131.242 145.638 131.055 145.066 130.68C144.501 130.305 144.056 129.79 143.732 129.136C143.408 128.475 143.246 127.738 143.246 126.925C143.246 126.131 143.411 125.409 143.742 124.761C144.078 124.113 144.539 123.605 145.124 123.236C145.715 122.868 146.369 122.684 147.087 122.684C148.192 122.684 149.012 123.093 149.546 123.913V122.922H151.271V131.004H149.546V130.022ZM147.344 124.208C146.849 124.208 146.42 124.339 146.058 124.599C145.702 124.86 145.432 125.206 145.248 125.638C145.07 126.07 144.981 126.524 144.981 127.001C144.981 127.471 145.07 127.919 145.248 128.345C145.432 128.77 145.702 129.117 146.058 129.384C146.42 129.644 146.849 129.774 147.344 129.774C147.834 129.774 148.253 129.644 148.602 129.384C148.952 129.117 149.215 128.767 149.393 128.335C149.578 127.903 149.67 127.446 149.67 126.963C149.67 126.493 149.584 126.045 149.412 125.619C149.228 125.2 148.961 124.86 148.612 124.599C148.262 124.339 147.84 124.208 147.344 124.208Z" fill="#F6EBC8"/>
<path d="M136.479 122.931H142.646L142.674 124.371H140.454V131.004H138.7V124.371H136.451L136.479 122.931Z" fill="#F6EBC8"/>
<path d="M131.914 128.936C130.967 130.524 129.671 131.318 128.026 131.318C127.422 131.318 126.876 131.22 126.386 131.023C125.891 130.82 125.465 130.527 125.109 130.146C124.76 129.765 124.49 129.311 124.299 128.783C124.115 128.25 124.023 127.668 124.023 127.039C124.023 126.391 124.115 125.794 124.299 125.247C124.49 124.695 124.757 124.228 125.1 123.846C125.449 123.459 125.865 123.163 126.348 122.96C126.831 122.75 127.365 122.646 127.949 122.646C128.604 122.646 129.198 122.779 129.732 123.046C130.265 123.306 130.707 123.681 131.056 124.17C131.336 124.533 131.533 124.939 131.647 125.39C131.762 125.841 131.838 126.47 131.876 127.277H125.786C125.805 127.773 125.913 128.211 126.11 128.593C126.313 128.974 126.583 129.266 126.92 129.469C127.263 129.673 127.657 129.774 128.102 129.774C129.087 129.774 129.894 129.193 130.523 128.03L131.914 128.936ZM125.938 125.953H130.046C129.944 125.374 129.722 124.933 129.379 124.628C129.036 124.323 128.597 124.17 128.064 124.17C126.901 124.17 126.193 124.764 125.938 125.953Z" fill="#F6EBC8"/>
<path d="M121.583 131.052V125.962L115.474 131.338V122.941H117.294V128.002L123.403 122.541V131.052H121.583Z" fill="#F6EBC8"/>
<path d="M112.958 127.525H109.289V131.004H107.583V122.95H109.279V125.991H112.958V122.95H114.654L114.664 131.004H112.958V127.525Z" fill="#F6EBC8"/>
<path d="M107.23 128.936C106.283 130.524 104.987 131.318 103.341 131.318C102.738 131.318 102.191 131.22 101.702 131.023C101.206 130.82 100.781 130.527 100.425 130.146C100.075 129.765 99.8054 129.311 99.6148 128.783C99.4305 128.25 99.3384 127.668 99.3384 127.039C99.3384 126.391 99.4305 125.794 99.6148 125.247C99.8054 124.695 100.072 124.228 100.415 123.846C100.765 123.459 101.181 123.163 101.664 122.96C102.147 122.75 102.68 122.646 103.265 122.646C103.919 122.646 104.514 122.779 105.047 123.046C105.581 123.306 106.023 123.681 106.372 124.17C106.652 124.533 106.849 124.939 106.963 125.39C107.077 125.841 107.153 126.47 107.192 127.277H101.102C101.121 127.773 101.229 128.211 101.426 128.593C101.629 128.974 101.899 129.266 102.236 129.469C102.579 129.673 102.973 129.774 103.417 129.774C104.402 129.774 105.209 129.193 105.838 128.03L107.23 128.936ZM101.254 125.953H105.362C105.26 125.374 105.038 124.933 104.695 124.628C104.351 124.323 103.913 124.17 103.379 124.17C102.217 124.17 101.508 124.764 101.254 125.953Z" fill="#F6EBC8"/>
<path d="M93.9441 122.922V125.867L96.7461 122.922H99.0144L95.3261 126.515L99.3289 131.004H97.0035L93.9441 127.315V131.004H92.1714V127.315L89.1121 131.004H86.7866L90.7895 126.515L87.1011 122.922H89.3694L92.1714 125.867V122.922H93.9441Z" fill="#F6EBC8"/>
<path d="M84.1086 124.533H81.4209V127.487C81.4209 127.995 81.3669 128.478 81.2589 128.936C81.1446 129.387 80.9667 129.793 80.7252 130.156C80.4838 130.518 80.1693 130.804 79.7817 131.013C79.3941 131.217 78.9398 131.318 78.4188 131.318C78.2981 131.318 78.1805 131.312 78.0662 131.299V129.593C78.1424 129.606 78.2218 129.612 78.3044 129.612C78.7683 129.612 79.0955 129.46 79.2861 129.155C79.4767 128.844 79.572 128.326 79.572 127.601L79.5625 122.941H85.948V131.004H84.1086V124.533Z" fill="#F6EBC8"/>
<path d="M73.3293 122.646C74.1617 122.646 74.9082 122.83 75.569 123.198C76.2298 123.567 76.7445 124.085 77.113 124.752C77.4815 125.413 77.6658 126.162 77.6658 127.001C77.6658 127.827 77.4815 128.567 77.113 129.222C76.7445 129.876 76.2266 130.384 75.5595 130.747C74.8923 131.102 74.1362 131.28 73.2912 131.28C72.4652 131.28 71.7282 131.093 71.0801 130.718C70.432 130.356 69.9269 129.844 69.5647 129.184C69.2089 128.516 69.031 127.763 69.031 126.925C69.031 126.105 69.2121 125.371 69.5743 124.723C69.9364 124.069 70.4447 123.56 71.0992 123.198C71.7536 122.83 72.497 122.646 73.3293 122.646ZM73.3484 124.209C72.8147 124.209 72.3572 124.342 71.976 124.609C71.5947 124.869 71.3088 125.209 71.1182 125.629C70.9276 126.048 70.8323 126.499 70.8323 126.982C70.8323 127.458 70.9276 127.906 71.1182 128.326C71.3088 128.739 71.5947 129.079 71.976 129.346C72.3572 129.606 72.8147 129.736 73.3484 129.736C73.8757 129.736 74.3237 129.606 74.6922 129.346C75.0671 129.085 75.3466 128.742 75.5309 128.316C75.7215 127.891 75.8168 127.446 75.8168 126.982C75.8168 126.505 75.7215 126.054 75.5309 125.629C75.3466 125.203 75.0671 124.86 74.6922 124.599C74.3173 124.339 73.8694 124.209 73.3484 124.209Z" fill="#F6EBC8"/>
<path d="M61.1492 129.45H65.7906V124.294H63.0934C62.96 127.223 62.3119 128.942 61.1492 129.45ZM59.3098 129.488C60.4725 128.98 61.111 126.794 61.2254 122.931H67.63V129.488H68.564V132.681H66.7246V131.099H60.1961V132.681H58.3567V129.488H59.3098Z" fill="#F6EBC8"/>
<path d="M53.6011 122.646C54.4334 122.646 55.18 122.83 55.8407 123.198C56.5015 123.567 57.0162 124.085 57.3847 124.752C57.7532 125.413 57.9375 126.162 57.9375 127.001C57.9375 127.827 57.7532 128.567 57.3847 129.222C57.0162 129.876 56.4984 130.384 55.8312 130.747C55.1641 131.102 54.408 131.28 53.5629 131.28C52.7369 131.28 51.9999 131.093 51.3518 130.718C50.7037 130.356 50.1986 129.844 49.8364 129.184C49.4806 128.516 49.3027 127.763 49.3027 126.925C49.3027 126.105 49.4838 125.371 49.846 124.723C50.2081 124.069 50.7164 123.56 51.3709 123.198C52.0253 122.83 52.7687 122.646 53.6011 122.646ZM53.6201 124.209C53.0864 124.209 52.6289 124.342 52.2477 124.609C51.8665 124.869 51.5806 125.209 51.3899 125.629C51.1993 126.048 51.104 126.499 51.104 126.982C51.104 127.458 51.1993 127.906 51.3899 128.326C51.5806 128.739 51.8665 129.079 52.2477 129.346C52.6289 129.606 53.0864 129.736 53.6201 129.736C54.1475 129.736 54.5954 129.606 54.9639 129.346C55.3388 129.085 55.6184 128.742 55.8026 128.316C55.9932 127.891 56.0885 127.446 56.0885 126.982C56.0885 126.505 55.9932 126.054 55.8026 125.629C55.6184 125.203 55.3388 124.86 54.9639 124.599C54.5891 124.339 54.1411 124.209 53.6201 124.209Z" fill="#F6EBC8"/>
<path d="M44.9472 124.208C44.2038 124.208 43.6224 124.488 43.2031 125.047C42.7837 125.6 42.5741 126.251 42.5741 127.001C42.5741 127.478 42.663 127.929 42.8409 128.354C43.0188 128.78 43.2825 129.123 43.632 129.384C43.9814 129.644 44.4008 129.774 44.89 129.774C45.3983 129.774 45.8304 129.641 46.1862 129.374C46.5483 129.107 46.8184 128.758 46.9963 128.326C47.1742 127.887 47.2631 127.427 47.2631 126.944C47.2631 126.48 47.1742 126.038 46.9963 125.619C46.8247 125.193 46.5642 124.853 46.2148 124.599C45.8653 124.339 45.4428 124.208 44.9472 124.208ZM40.9634 134.854V122.912L42.6884 122.922V123.913C43.2793 123.093 44.1117 122.684 45.1854 122.684C45.9797 122.684 46.6627 122.89 47.2345 123.303C47.8127 123.716 48.2448 124.253 48.5307 124.914C48.823 125.575 48.9691 126.277 48.9691 127.02C48.9691 127.757 48.8293 128.446 48.5498 129.088C48.2702 129.73 47.8477 130.248 47.2822 130.642C46.7231 131.036 46.0496 131.233 45.2617 131.233C44.1879 131.233 43.3302 130.829 42.6884 130.022V134.854H40.9634Z" fill="#F6EBC8"/>
<path d="M38.3518 124.504H34.6825V131.004H32.9766V122.95H40.0483L40.0578 131.004H38.3518V124.504Z" fill="#F6EBC8"/>
<path d="M26.0288 131.052V125.962L19.9197 131.338V122.941H21.74V128.002L27.8492 122.541V131.052H26.0288Z" fill="#F6EBC8"/>
<path d="M163.499 112.13C163.232 112.518 162.873 112.819 162.422 113.036C161.971 113.245 161.472 113.35 160.925 113.35C160.227 113.35 159.591 113.163 159.019 112.788C158.454 112.413 158.009 111.898 157.685 111.244C157.361 110.583 157.199 109.846 157.199 109.033C157.199 108.238 157.364 107.517 157.695 106.869C158.031 106.221 158.492 105.713 159.077 105.344C159.667 104.976 160.322 104.792 161.04 104.792C162.145 104.792 162.965 105.201 163.499 106.021V105.03H165.224V113.112H163.499V112.13ZM161.297 106.316C160.802 106.316 160.373 106.447 160.011 106.707C159.655 106.968 159.385 107.314 159.2 107.746C159.023 108.178 158.934 108.632 158.934 109.109C158.934 109.579 159.023 110.027 159.2 110.453C159.385 110.878 159.655 111.225 160.011 111.492C160.373 111.752 160.802 111.882 161.297 111.882C161.786 111.882 162.206 111.752 162.555 111.492C162.905 111.225 163.168 110.875 163.346 110.443C163.53 110.011 163.623 109.554 163.623 109.071C163.623 108.601 163.537 108.153 163.365 107.727C163.181 107.308 162.914 106.968 162.565 106.707C162.215 106.447 161.793 106.316 161.297 106.316Z" fill="#F6EBC8"/>
<path d="M150.432 105.039H156.598L156.627 106.478H154.406V113.112H152.653V106.478H150.404L150.432 105.039Z" fill="#F6EBC8"/>
<path d="M150.022 111.044C149.076 112.632 147.78 113.426 146.134 113.426C145.53 113.426 144.984 113.328 144.495 113.131C143.999 112.928 143.573 112.635 143.218 112.254C142.868 111.873 142.598 111.419 142.407 110.891C142.223 110.357 142.131 109.776 142.131 109.147C142.131 108.499 142.223 107.902 142.407 107.355C142.598 106.803 142.865 106.336 143.208 105.954C143.558 105.567 143.974 105.271 144.457 105.068C144.939 104.858 145.473 104.753 146.058 104.753C146.712 104.753 147.306 104.887 147.84 105.154C148.374 105.414 148.815 105.789 149.165 106.278C149.444 106.64 149.641 107.047 149.756 107.498C149.87 107.949 149.946 108.578 149.984 109.385H143.894C143.913 109.881 144.021 110.319 144.218 110.701C144.422 111.082 144.692 111.374 145.028 111.577C145.372 111.781 145.765 111.882 146.21 111.882C147.195 111.882 148.002 111.301 148.631 110.138L150.022 111.044ZM144.047 108.061H148.154C148.053 107.482 147.83 107.041 147.487 106.736C147.144 106.431 146.706 106.278 146.172 106.278C145.009 106.278 144.301 106.872 144.047 108.061Z" fill="#F6EBC8"/>
<path d="M136.737 105.03V107.975L139.539 105.03H141.807L138.119 108.623L142.122 113.112H139.796L136.737 109.423V113.112H135.012V105.03H136.737Z" fill="#F6EBC8"/>
<path d="M132.4 109.633H128.731V113.112H127.025V105.058H128.721V108.099H132.4V105.058H134.097L134.106 113.112H132.4V109.633Z" fill="#F6EBC8"/>
<path d="M124.461 112.13C124.194 112.518 123.835 112.819 123.384 113.036C122.933 113.245 122.434 113.35 121.888 113.35C121.189 113.35 120.554 113.163 119.982 112.788C119.416 112.413 118.971 111.898 118.647 111.244C118.323 110.583 118.161 109.846 118.161 109.033C118.161 108.238 118.327 107.517 118.657 106.869C118.994 106.221 119.454 105.713 120.039 105.344C120.63 104.976 121.284 104.792 122.002 104.792C123.108 104.792 123.927 105.201 124.461 106.021V105.03H126.186V113.112H124.461V112.13ZM122.26 106.316C121.764 106.316 121.335 106.447 120.973 106.707C120.617 106.968 120.347 107.314 120.163 107.746C119.985 108.178 119.896 108.632 119.896 109.109C119.896 109.579 119.985 110.027 120.163 110.453C120.347 110.878 120.617 111.225 120.973 111.492C121.335 111.752 121.764 111.882 122.26 111.882C122.749 111.882 123.168 111.752 123.518 111.492C123.867 111.225 124.131 110.875 124.309 110.443C124.493 110.011 124.585 109.554 124.585 109.071C124.585 108.601 124.499 108.153 124.328 107.727C124.143 107.308 123.877 106.968 123.527 106.707C123.178 106.447 122.755 106.316 122.26 106.316Z" fill="#F6EBC8"/>
<path d="M113.606 106.316C113.072 106.316 112.615 106.45 112.233 106.717C111.852 106.977 111.566 107.317 111.376 107.736C111.185 108.156 111.09 108.607 111.09 109.09C111.09 109.566 111.185 110.014 111.376 110.434C111.566 110.847 111.852 111.186 112.233 111.453C112.615 111.714 113.072 111.844 113.606 111.844C114.133 111.844 114.581 111.714 114.95 111.453C115.325 111.193 115.604 110.85 115.788 110.424C115.979 109.998 116.074 109.554 116.074 109.09C116.074 108.613 115.979 108.162 115.788 107.736C115.604 107.311 115.325 106.968 114.95 106.707C114.575 106.447 114.127 106.316 113.606 106.316ZM112.262 103.276C111.665 103.473 111.338 104.162 111.28 105.344C111.306 105.332 111.331 105.316 111.357 105.297C112.011 104.934 112.754 104.753 113.587 104.753C114.419 104.753 115.166 104.938 115.826 105.306C116.487 105.675 117.002 106.192 117.37 106.86C117.739 107.52 117.923 108.27 117.923 109.109C117.923 109.935 117.739 110.675 117.37 111.329C117.002 111.984 116.484 112.492 115.817 112.854C115.15 113.21 114.394 113.388 113.549 113.388C112.723 113.388 111.986 113.201 111.338 112.826C110.689 112.464 110.184 111.952 109.822 111.291C109.466 110.624 109.288 109.871 109.288 109.033C109.066 106.37 109.25 104.506 109.841 103.438C110.432 102.364 111.096 101.773 111.833 101.665C112.589 101.557 113.447 101.503 114.406 101.503C115.372 101.497 116.081 101.071 116.532 100.226L118.209 100.026C117.58 101.767 116.56 102.66 115.15 102.704C113.739 102.749 112.777 102.939 112.262 103.276Z" fill="#F6EBC8"/>
<path d="M105.095 111.044C104.148 112.632 102.852 113.426 101.206 113.426C100.603 113.426 100.056 113.328 99.5672 113.131C99.0716 112.928 98.6459 112.635 98.2901 112.254C97.9406 111.873 97.6706 111.419 97.48 110.891C97.2957 110.357 97.2036 109.776 97.2036 109.147C97.2036 108.499 97.2957 107.902 97.48 107.355C97.6706 106.803 97.9375 106.336 98.2806 105.954C98.63 105.567 99.0462 105.271 99.5291 105.068C100.012 104.858 100.546 104.753 101.13 104.753C101.785 104.753 102.379 104.887 102.912 105.154C103.446 105.414 103.888 105.789 104.237 106.278C104.517 106.64 104.714 107.047 104.828 107.498C104.942 107.949 105.019 108.578 105.057 109.385H98.9668C98.9858 109.881 99.0939 110.319 99.2908 110.701C99.4941 111.082 99.7642 111.374 100.101 111.577C100.444 111.781 100.838 111.882 101.283 111.882C102.268 111.882 103.074 111.301 103.704 110.138L105.095 111.044ZM99.1193 108.061H103.227C103.125 107.482 102.903 107.041 102.56 106.736C102.217 106.431 101.778 106.278 101.245 106.278C100.082 106.278 99.3734 106.872 99.1193 108.061Z" fill="#F6EBC8"/>
<path d="M94.7637 113.159V108.07L88.6545 113.445V105.049H90.4749V110.109L96.584 104.648V113.159H94.7637Z" fill="#F6EBC8"/>
<path d="M86.1385 109.633H82.4692V113.112H80.7632V105.058H82.4596V108.099H86.1385V105.058H87.8349L87.8444 113.112H86.1385V109.633Z" fill="#F6EBC8"/>
<path d="M80.4107 111.044C79.4639 112.632 78.1678 113.426 76.5222 113.426C75.9185 113.426 75.3721 113.328 74.8829 113.131C74.3873 112.928 73.9616 112.635 73.6058 112.254C73.2563 111.873 72.9863 111.419 72.7957 110.891C72.6114 110.357 72.5193 109.776 72.5193 109.147C72.5193 108.499 72.6114 107.902 72.7957 107.355C72.9863 106.803 73.2531 106.336 73.5962 105.954C73.9457 105.567 74.3619 105.271 74.8448 105.068C75.3276 104.858 75.8614 104.753 76.4459 104.753C77.1003 104.753 77.6944 104.887 78.2281 105.154C78.7619 105.414 79.2034 105.789 79.5529 106.278C79.8325 106.64 80.0294 107.047 80.1438 107.498C80.2582 107.949 80.3344 108.578 80.3725 109.385H74.2825C74.3015 109.881 74.4095 110.319 74.6065 110.701C74.8098 111.082 75.0799 111.374 75.4166 111.577C75.7597 111.781 76.1536 111.882 76.5984 111.882C77.5832 111.882 78.3902 111.301 79.0192 110.138L80.4107 111.044ZM74.4349 108.061H78.5426C78.441 107.482 78.2186 107.041 77.8755 106.736C77.5324 106.431 77.094 106.278 76.5603 106.278C75.3975 106.278 74.6891 106.872 74.4349 108.061Z" fill="#F6EBC8"/>
<path d="M72.0808 113.112H59.6433V105.058H61.3493V111.558H65.0091V105.058H66.7246L66.715 111.558H70.3843V105.058H72.0903L72.0808 113.112Z" fill="#F6EBC8"/>
<path d="M54.9733 106.316C54.2299 106.316 53.6485 106.596 53.2292 107.155C52.8099 107.708 52.6002 108.359 52.6002 109.109C52.6002 109.585 52.6891 110.037 52.867 110.462C53.0449 110.888 53.3086 111.231 53.6581 111.492C54.0075 111.752 54.4269 111.882 54.9161 111.882C55.4244 111.882 55.8565 111.749 56.2123 111.482C56.5745 111.215 56.8445 110.866 57.0224 110.434C57.2003 109.995 57.2893 109.535 57.2893 109.052C57.2893 108.588 57.2003 108.146 57.0224 107.727C56.8508 107.301 56.5903 106.961 56.2409 106.707C55.8914 106.447 55.4689 106.316 54.9733 106.316ZM50.9895 116.962V105.02L52.7145 105.03V106.021C53.3054 105.201 54.1378 104.792 55.2116 104.792C56.0058 104.792 56.6888 104.998 57.2607 105.411C57.8389 105.824 58.2709 106.361 58.5568 107.022C58.8491 107.682 58.9952 108.385 58.9952 109.128C58.9952 109.865 58.8555 110.554 58.5759 111.196C58.2963 111.838 57.8738 112.356 57.3083 112.75C56.7492 113.144 56.0757 113.34 55.2878 113.34C54.214 113.34 53.3563 112.937 52.7145 112.13V116.962H50.9895Z" fill="#F6EBC8"/>
<path d="M50.5798 111.044C49.6331 112.632 48.337 113.426 46.6913 113.426C46.0877 113.426 45.5413 113.328 45.0521 113.131C44.5565 112.928 44.1308 112.635 43.775 112.254C43.4255 111.873 43.1555 111.419 42.9649 110.891C42.7806 110.357 42.6885 109.776 42.6885 109.147C42.6885 108.499 42.7806 107.902 42.9649 107.355C43.1555 106.803 43.4223 106.336 43.7654 105.954C44.1149 105.567 44.5311 105.271 45.014 105.068C45.4968 104.858 46.0306 104.753 46.6151 104.753C47.2695 104.753 47.8636 104.887 48.3973 105.154C48.931 105.414 49.3726 105.789 49.7221 106.278C50.0016 106.64 50.1986 107.047 50.313 107.498C50.4274 107.949 50.5036 108.578 50.5417 109.385H44.4516C44.4707 109.881 44.5787 110.319 44.7757 110.701C44.979 111.082 45.249 111.374 45.5858 111.577C45.9289 111.781 46.3228 111.882 46.7676 111.882C47.7524 111.882 48.5593 111.301 49.1884 110.138L50.5798 111.044ZM44.6041 108.061H48.7118C48.6102 107.482 48.3878 107.041 48.0447 106.736C47.7016 106.431 47.2632 106.278 46.7295 106.278C45.5667 106.278 44.8583 106.872 44.6041 108.061Z" fill="#F6EBC8"/>
<path d="M35.9883 113.112V105.039H38.8284C39.6735 105.039 40.3343 105.22 40.8108 105.583C41.2873 105.945 41.5256 106.44 41.5256 107.069C41.5256 107.508 41.3858 107.883 41.1062 108.194C40.833 108.499 40.4613 108.69 39.9911 108.766C40.7155 108.81 41.2841 109.036 41.6971 109.442C42.1101 109.849 42.3166 110.322 42.3166 110.863C42.3166 111.11 42.269 111.352 42.1737 111.587C42.0847 111.822 41.9418 112.044 41.7448 112.254C41.5478 112.457 41.3159 112.623 41.049 112.75C40.5725 112.991 39.8895 113.112 39 113.112H35.9883ZM37.618 112.082H38.8665C39.9911 112.146 40.5535 111.717 40.5535 110.796C40.5535 109.868 39.9689 109.404 38.7998 109.404H37.618V112.082ZM37.618 108.203H38.3805C38.8506 108.203 39.2223 108.105 39.4956 107.908C39.7561 107.717 39.8863 107.451 39.8863 107.107C39.8863 106.815 39.7497 106.574 39.4765 106.383C39.2033 106.193 38.8792 106.097 38.5044 106.097H37.618V108.203Z" fill="#F6EBC8"/>
<path d="M33.5009 112.13C33.2341 112.518 32.8751 112.819 32.424 113.036C31.9728 113.245 31.4741 113.35 30.9276 113.35C30.2287 113.35 29.5934 113.163 29.0215 112.788C28.456 112.413 28.0113 111.898 27.6872 111.244C27.3632 110.583 27.2012 109.846 27.2012 109.033C27.2012 108.238 27.3664 107.517 27.6968 106.869C28.0335 106.221 28.4942 105.713 29.0787 105.344C29.6696 104.976 30.324 104.792 31.042 104.792C32.1476 104.792 32.9672 105.201 33.5009 106.021V105.03H35.226V113.112H33.5009V112.13ZM31.2993 106.316C30.8038 106.316 30.3749 106.447 30.0127 106.707C29.6569 106.968 29.3869 107.314 29.2026 107.746C29.0247 108.178 28.9357 108.632 28.9357 109.109C28.9357 109.579 29.0247 110.027 29.2026 110.453C29.3869 110.878 29.6569 111.225 30.0127 111.492C30.3749 111.752 30.8038 111.882 31.2993 111.882C31.7886 111.882 32.2079 111.752 32.5574 111.492C32.9068 111.225 33.1705 110.875 33.3484 110.443C33.5327 110.011 33.6248 109.554 33.6248 109.071C33.6248 108.601 33.539 108.153 33.3675 107.727C33.1832 107.308 32.9164 106.968 32.5669 106.707C32.2175 106.447 31.7949 106.316 31.2993 106.316Z" fill="#F6EBC8"/>
<path d="M21.4923 108.518H22.9314C24.1895 108.41 24.8185 107.994 24.8185 107.27C24.8185 106.895 24.6501 106.602 24.3134 106.393C23.983 106.177 23.5382 106.069 22.9791 106.069C22.0832 106.043 21.0761 106.094 19.9579 106.221V105.259C21.2858 105.03 22.2929 104.931 22.9791 104.963C23.6653 104.989 24.2657 105.09 24.7804 105.268C25.295 105.446 25.689 105.703 25.9622 106.04C26.2417 106.37 26.3815 106.758 26.3815 107.203C26.3815 107.686 26.2354 108.067 25.9431 108.346C25.6508 108.626 25.187 108.823 24.5516 108.937C26.0194 109.109 26.7532 109.767 26.7532 110.91C26.7532 111.412 26.569 111.847 26.2004 112.216C25.8319 112.591 25.349 112.88 24.7518 113.083C24.1545 113.28 23.5255 113.385 22.8647 113.398C22.2039 113.417 21.559 113.369 20.93 113.255C20.3073 113.147 19.942 113.09 19.834 113.083V112.035C21.3271 112.244 22.3755 112.349 22.9791 112.349C23.6272 112.349 24.1514 112.222 24.5516 111.968C24.9519 111.714 25.1521 111.371 25.1521 110.939C25.1521 110.081 24.4436 109.595 23.0267 109.481H21.4923V108.518Z" fill="#F6EBC8"/>
<path d="M308.306 79.9575C307.694 80.8457 306.871 81.5373 305.838 82.0324C304.804 82.5129 303.661 82.7531 302.408 82.7531C300.807 82.7531 299.351 82.3236 298.04 81.4645C296.744 80.6054 295.725 79.426 294.983 77.9263C294.24 76.412 293.869 74.7229 293.869 72.8592C293.869 71.0391 294.247 69.3864 295.004 67.9012C295.776 66.416 296.832 65.2512 298.171 64.4067C299.525 63.5622 301.025 63.1399 302.671 63.1399C305.204 63.1399 307.082 64.0791 308.306 65.9574V63.6859H312.259V82.2071H308.306V79.9575ZM303.26 66.6345C302.125 66.6345 301.142 66.933 300.312 67.5299C299.496 68.1269 298.878 68.9205 298.455 69.9106C298.048 70.9007 297.844 71.9418 297.844 73.0339C297.844 74.1114 298.048 75.1379 298.455 76.1135C298.878 77.089 299.496 77.8826 300.312 78.4941C301.142 79.0911 302.125 79.3896 303.26 79.3896C304.381 79.3896 305.342 79.0911 306.143 78.4941C306.944 77.8826 307.548 77.0818 307.956 76.0916C308.378 75.1015 308.59 74.0531 308.59 72.9465C308.59 71.869 308.393 70.8425 308 69.8669C307.578 68.9059 306.966 68.1269 306.165 67.5299C305.364 66.933 304.396 66.6345 303.26 66.6345Z" fill="#F6EBC8"/>
<path d="M278.056 82.2071V63.7078H284.564C286.501 63.7078 288.015 64.1227 289.107 64.9527C290.199 65.7827 290.745 66.9184 290.745 68.3599C290.745 69.3646 290.425 70.2237 289.784 70.9371C289.158 71.6361 288.306 72.0729 287.229 72.2476C288.889 72.3495 290.192 72.8664 291.138 73.7983C292.085 74.7302 292.558 75.815 292.558 77.0526C292.558 77.6205 292.449 78.1738 292.23 78.7126C292.027 79.2513 291.699 79.7609 291.248 80.2414C290.796 80.7074 290.265 81.0859 289.653 81.3772C288.561 81.9305 286.996 82.2071 284.957 82.2071H278.056ZM281.79 79.8483H284.652C287.229 79.9939 288.518 79.011 288.518 76.8997C288.518 74.7739 287.178 73.711 284.499 73.711H281.79V79.8483ZM281.79 70.959H283.538C284.615 70.959 285.467 70.7333 286.093 70.2819C286.69 69.8451 286.989 69.2335 286.989 68.4473C286.989 67.7775 286.676 67.2242 286.049 66.7873C285.423 66.3505 284.681 66.1321 283.822 66.1321H281.79V70.959Z" fill="#F6EBC8"/>
<path d="M262.374 63.7078H276.505L276.571 67.0058H271.482V82.2071H267.463V67.0058H262.308L262.374 63.7078Z" fill="#F6EBC8"/>
<path d="M261.063 81.2679C258.923 82.3163 256.855 82.8405 254.861 82.8405C253.113 82.8405 251.541 82.4255 250.143 81.5955C248.745 80.751 247.653 79.5935 246.867 78.1228C246.066 76.6376 245.666 74.9704 245.666 73.1212C245.666 71.6506 245.942 70.2965 246.495 69.0588C247.063 67.8211 247.821 66.7582 248.767 65.87C249.728 64.9672 250.813 64.2829 252.021 63.8169C253.244 63.3364 254.504 63.0962 255.8 63.0962C257.722 63.0962 259.476 63.5913 261.063 64.5814V69.2335C259.564 67.6755 257.773 66.8965 255.691 66.8965C254.074 66.8965 252.691 67.4207 251.541 68.4691C250.405 69.5175 249.837 70.9808 249.837 72.8591C249.837 74.1259 250.063 75.2252 250.514 76.1571C250.966 77.089 251.621 77.8025 252.48 78.2976C253.324 78.7781 254.322 79.0183 255.472 79.0183C257.423 79.0183 259.287 78.2029 261.063 76.5721V81.2679Z" fill="#F6EBC8"/>
<path d="M245.316 77.4676C243.147 81.1077 240.176 82.9278 236.405 82.9278C235.022 82.9278 233.769 82.7021 232.648 82.2508C231.513 81.7848 230.537 81.115 229.722 80.2414C228.921 79.3677 228.302 78.3267 227.865 77.1181C227.443 75.895 227.232 74.5627 227.232 73.1212C227.232 71.636 227.443 70.2673 227.865 69.0151C228.302 67.7483 228.913 66.6781 229.7 65.8045C230.501 64.9163 231.454 64.2392 232.561 63.7732C233.668 63.2927 234.891 63.0525 236.23 63.0525C237.73 63.0525 239.091 63.3583 240.314 63.9698C241.538 64.5668 242.55 65.4259 243.35 66.5471C243.991 67.377 244.442 68.3089 244.705 69.3427C244.967 70.3765 245.141 71.818 245.229 73.6672H231.272C231.316 74.803 231.563 75.8077 232.015 76.6813C232.481 77.5549 233.1 78.2247 233.871 78.6907C234.658 79.1566 235.56 79.3896 236.58 79.3896C238.837 79.3896 240.686 78.0573 242.127 75.3927L245.316 77.4676ZM231.622 70.6313H241.035C240.802 69.3063 240.293 68.2943 239.506 67.5954C238.72 66.8965 237.715 66.5471 236.492 66.5471C233.828 66.5471 232.204 67.9085 231.622 70.6313Z" fill="#F6EBC8"/>
<path d="M214.87 63.6858V70.4347L221.291 63.6858H226.489L218.037 71.9199L227.21 82.207H221.881L214.87 73.7545V82.207H210.807V73.7545L203.796 82.207H198.467L207.64 71.9199L199.188 63.6858H204.386L210.807 70.4347V63.6858H214.87Z" fill="#F6EBC8"/>
<path d="M188.245 66.6345C186.542 66.6345 185.209 67.2751 184.248 68.5565C183.287 69.8232 182.807 71.3157 182.807 73.0339C182.807 74.1259 183.011 75.1597 183.418 76.1353C183.826 77.1109 184.43 77.8972 185.231 78.4941C186.032 79.0911 186.993 79.3896 188.114 79.3896C189.279 79.3896 190.269 79.0838 191.085 78.4723C191.915 77.8608 192.533 77.0599 192.941 76.0698C193.349 75.0651 193.553 74.0094 193.553 72.9028C193.553 71.8399 193.349 70.8279 192.941 69.8669C192.548 68.8914 191.951 68.1124 191.15 67.5299C190.349 66.933 189.381 66.6345 188.245 66.6345ZM179.116 91.0309V63.6641L183.069 63.6859V65.9574C184.423 64.0791 186.331 63.1399 188.791 63.1399C190.611 63.1399 192.177 63.6131 193.487 64.5596C194.812 65.506 195.802 66.7364 196.458 68.2507C197.127 69.765 197.462 71.374 197.462 73.0776C197.462 74.7666 197.142 76.3464 196.501 77.8171C195.861 79.2877 194.892 80.4744 193.596 81.3772C192.315 82.2799 190.772 82.7313 188.966 82.7313C186.505 82.7313 184.54 81.8067 183.069 79.9575V91.0309H179.116Z" fill="#F6EBC8"/>
<path d="M168.152 63.0525C170.059 63.0525 171.77 63.4748 173.284 64.3193C174.799 65.1638 175.978 66.3505 176.822 67.8794C177.667 69.3937 178.089 71.1118 178.089 73.0338C178.089 74.9267 177.667 76.6231 176.822 78.1228C175.978 79.6226 174.791 80.7874 173.262 81.6174C171.734 82.4328 170.001 82.8405 168.064 82.8405C166.171 82.8405 164.482 82.4109 162.997 81.5518C161.512 80.7219 160.354 79.5498 159.524 78.0354C158.709 76.5066 158.301 74.7811 158.301 72.8591C158.301 70.9808 158.716 69.299 159.546 67.8138C160.376 66.3141 161.541 65.1492 163.041 64.3193C164.541 63.4748 166.244 63.0525 168.152 63.0525ZM168.195 66.6344C166.972 66.6344 165.924 66.9402 165.05 67.5517C164.177 68.1487 163.521 68.9277 163.084 69.8887C162.648 70.8497 162.429 71.8835 162.429 72.9902C162.429 74.0822 162.648 75.1087 163.084 76.0697C163.521 77.0162 164.177 77.7952 165.05 78.4067C165.924 79.0037 166.972 79.3022 168.195 79.3022C169.404 79.3022 170.43 79.0037 171.275 78.4067C172.134 77.8098 172.775 77.0235 173.197 76.0479C173.634 75.0723 173.852 74.0531 173.852 72.9902C173.852 71.8981 173.634 70.8643 173.197 69.8887C172.775 68.9132 172.134 68.1269 171.275 67.5299C170.416 66.9329 169.389 66.6344 168.195 66.6344Z" fill="#F6EBC8"/>
<path d="M143.165 63.7078H157.297L157.362 67.0058H152.273V82.2071H148.254V67.0058H143.1L143.165 63.7078Z" fill="#F6EBC8"/>
<path d="M126.894 67.3769H120.735V74.1477C120.735 75.3125 120.611 76.4191 120.363 77.4675C120.101 78.5013 119.694 79.4332 119.14 80.2632C118.587 81.0931 117.866 81.7483 116.978 82.2288C116.09 82.6948 115.049 82.9278 113.855 82.9278C113.578 82.9278 113.309 82.9132 113.047 82.8841V78.9745C113.221 79.0037 113.403 79.0182 113.593 79.0182C114.656 79.0182 115.405 78.6688 115.842 77.9698C116.279 77.2564 116.498 76.0697 116.498 74.4098L116.476 63.7295H131.109V82.207H126.894V67.3769Z" fill="#F6EBC8"/>
<path d="M107.15 79.9575C106.538 80.8457 105.715 81.5373 104.682 82.0324C103.648 82.5129 102.505 82.7531 101.252 82.7531C99.6508 82.7531 98.1947 82.3236 96.8843 81.4645C95.5884 80.6054 94.5691 79.426 93.8265 77.9263C93.0839 76.412 92.7126 74.7229 92.7126 72.8592C92.7126 71.0391 93.0912 69.3864 93.8484 67.9012C94.6201 66.416 95.6757 65.2512 97.0153 64.4067C98.3695 63.5622 99.8692 63.1399 101.515 63.1399C104.048 63.1399 105.926 64.0791 107.15 65.9574V63.6859H111.103V82.2071H107.15V79.9575ZM102.104 66.6345C100.969 66.6345 99.9857 66.933 99.1558 67.5299C98.3404 68.1269 97.7215 68.9205 97.2993 69.9106C96.8916 70.9007 96.6877 71.9418 96.6877 73.0339C96.6877 74.1114 96.8916 75.1379 97.2993 76.1135C97.7215 77.089 98.3404 77.8826 99.1558 78.4941C99.9857 79.0911 100.969 79.3896 102.104 79.3896C103.225 79.3896 104.186 79.0911 104.987 78.4941C105.788 77.8826 106.392 77.0818 106.8 76.0916C107.222 75.1015 107.434 74.0531 107.434 72.9465C107.434 71.869 107.237 70.8425 106.844 69.8669C106.422 68.9059 105.81 68.1269 105.009 67.5299C104.208 66.933 103.24 66.6345 102.104 66.6345Z" fill="#F6EBC8"/>
<path d="M87.2087 74.2352H78.7999V82.2071H74.8904V63.7515H78.7781V70.7188H87.2087V63.7515H91.0964L91.1183 82.2071H87.2087V74.2352Z" fill="#F6EBC8"/>
<path d="M68.4911 82.3163V70.6532L54.491 82.9715V63.7296H58.6626V75.3272L72.6627 62.8123V82.3163H68.4911Z" fill="#F6EBC8"/>
<path d="M43.8762 66.6344C42.1726 66.6344 40.8403 67.2751 39.8793 68.5564C38.9183 69.8232 38.4378 71.3157 38.4378 73.0338C38.4378 74.1259 38.6416 75.1597 39.0493 76.1353C39.457 77.1108 40.0613 77.8971 40.8622 78.4941C41.663 79.0911 42.624 79.3896 43.7452 79.3896C44.91 79.3896 45.9002 79.0838 46.7156 78.4723C47.5455 77.8607 48.1643 77.0599 48.572 76.0697C48.9797 75.0651 49.1836 74.0094 49.1836 72.9028C49.1836 71.8399 48.9797 70.8279 48.572 69.8669C48.1789 68.8913 47.5819 68.1123 46.7811 67.5299C45.9802 66.9329 45.0119 66.6344 43.8762 66.6344ZM38.4815 52.4596H38.6999V65.9573C40.054 64.079 41.9615 63.1399 44.4222 63.1399C46.2423 63.1399 47.8076 63.6131 49.1181 64.5595C50.4431 65.506 51.4332 66.7363 52.0884 68.2507C52.7582 69.765 53.0931 71.3739 53.0931 73.0775C53.0931 74.7666 52.7728 76.3464 52.1321 77.817C51.4915 79.2877 50.5232 80.4744 49.2273 81.3771C47.9459 82.2799 46.4025 82.7313 44.597 82.7313C42.1362 82.7313 40.1705 81.8067 38.6999 79.9575V91.0309H34.5283V79.9575C33.0576 81.8067 31.0919 82.7313 28.6312 82.7313C26.8256 82.7313 25.2749 82.2799 23.979 81.3771C22.6977 80.4744 21.7367 79.2877 21.096 77.817C20.4553 76.3464 20.135 74.7666 20.135 73.0775C20.135 71.3739 20.4626 69.765 21.1179 68.2507C21.7876 66.7363 22.7778 65.506 24.0882 64.5595C25.4133 63.6131 26.9858 63.1399 28.8059 63.1399C31.2667 63.1399 33.1741 64.079 34.5283 65.9573V52.4596H34.7467V52.4377H38.4815V52.4596ZM34.7467 73.9075V72.1602C34.6156 70.8061 34.1497 69.5975 33.3488 68.5346C32.3878 67.2678 31.0555 66.6344 29.3519 66.6344C28.2162 66.6344 27.2479 66.9329 26.4471 67.5299C25.6462 68.1123 25.042 68.8913 24.6343 69.8669C24.2411 70.8279 24.0446 71.8399 24.0446 72.9028C24.0446 74.0094 24.2484 75.0651 24.6561 76.0697C25.0638 77.0599 25.6754 77.8607 26.4908 78.4723C27.3207 79.0838 28.3181 79.3896 29.483 79.3896C30.6041 79.3896 31.5652 79.0911 32.366 78.4941C33.1668 77.8971 33.7711 77.1108 34.1788 76.1353C34.4846 75.4218 34.6739 74.6792 34.7467 73.9075Z" fill="#F6EBC8"/>
</svg>
