<svg width="260" height="113" viewBox="0 0 260 113" fill="none" xmlns="http://www.w3.org/2000/svg">
<path d="M229 9.91943C236.105 8.87726 238.352 6.64735 238.984 -2.75961e-05C239.684 6.02817 241.455 7.97546 247.42 8.49097C240.893 9.26579 238.843 11.5431 237.436 18.4104C237.662 10.9907 235.765 9.17708 229 9.91943Z" fill="#FF9EA7"/>
<path d="M4.30362 103.568C4.63296 103.137 4.92281 102.663 5.14757 102.18C5.34986 102.651 5.60022 103.117 5.87893 103.54C6.24987 104.102 6.69148 104.621 7.17543 104.996C7.23104 105.039 7.28788 105.08 7.34586 105.12C6.63231 105.541 6.01866 106.147 5.54416 106.795C5.31357 107.109 5.10801 107.444 4.93579 107.786C4.71584 107.345 4.43359 106.926 4.11958 106.556C3.67418 106.031 3.11813 105.55 2.50832 105.227C3.19976 104.806 3.81504 104.208 4.30362 103.568Z" stroke="#FF9EA7"/>
<path d="M256.477 54.4908C254.025 63.5239 247.588 71.6539 238.097 78.781C228.608 85.9062 216.129 91.9799 201.729 96.9097C172.93 106.769 136.599 112 101.55 112C66.4195 112 37.9739 108.496 21.4814 100.309C13.2553 96.2255 8.16839 91.0609 6.55897 84.7397C4.94723 78.4095 6.74637 70.6231 12.9765 61.1257C25.403 42.1824 50.278 27.1327 80.9614 16.8203C111.61 6.51968 147.895 1 182.935 1C218.052 1 238.635 6.25701 249.326 15.4652C259.876 24.5515 261.026 37.7347 256.477 54.4908Z" stroke="#FF9EA7" stroke-width="2"/>
</svg>
