<svg width="480" height="2782" viewBox="0 0 480 2782" fill="none" xmlns="http://www.w3.org/2000/svg">
<rect width="480" height="2782" fill="#5A6B47"/>
<path d="M335.014 2463.02C335.765 2462.03 336.344 2460.9 336.633 2459.83C336.961 2460.9 337.517 2462.06 338.193 2463.07C338.743 2463.89 339.382 2464.63 340.059 2465.16C340.394 2465.42 340.745 2465.64 341.104 2465.78C339.772 2466.31 338.621 2467.34 337.772 2468.51C337.204 2469.3 336.761 2470.16 336.486 2470.99C336.442 2470.84 336.392 2470.7 336.337 2470.56C336.004 2469.72 335.48 2468.87 334.844 2468.13C333.937 2467.06 332.771 2466.17 331.572 2465.8C332.895 2465.28 334.099 2464.23 335.014 2463.02Z" stroke="#FF9EA7" stroke-width="0.5"/>
<rect y="2616" width="80" height="166" fill="#F6EBC8"/>
<rect x="400" y="2616" width="80" height="166" fill="#5A6B47"/>
<rect x="320" y="2616" width="80" height="166" fill="#9C794F"/>
<rect x="240" y="2616" width="80" height="166" fill="#FF9EA7"/>
<rect x="160" y="2616" width="80" height="166" fill="#FFD403"/>
<rect x="80" y="2616" width="80" height="166" fill="#F3B216"/>
<line y1="2781" x2="480" y2="2781" stroke="#F6EBC8" stroke-width="2"/>
<line y1="2615" x2="480" y2="2615" stroke="#F6EBC8" stroke-width="2"/>
<path d="M437.384 2492L441.345 2486.69L437.911 2482.06H440.396L442.798 2485.18L445.024 2482.06H447.567L444.087 2486.69L448.001 2492H445.528L442.692 2488.25L439.927 2492H437.384Z" fill="#F6EBC8"/>
<path d="M433.711 2490.79C433.383 2491.27 432.941 2491.64 432.387 2491.91C431.832 2492.16 431.219 2492.29 430.547 2492.29C429.688 2492.29 428.906 2492.06 428.203 2491.6C427.508 2491.14 426.961 2490.51 426.562 2489.7C426.164 2488.89 425.965 2487.98 425.965 2486.98C425.965 2486.01 426.168 2485.12 426.574 2484.32C426.988 2483.53 427.555 2482.9 428.273 2482.45C429 2482 429.805 2481.77 430.688 2481.77C432.047 2481.77 433.055 2482.27 433.711 2483.28V2482.06H435.832V2492H433.711V2490.79ZM431.004 2483.64C430.395 2483.64 429.867 2483.8 429.422 2484.12C428.984 2484.45 428.652 2484.87 428.426 2485.4C428.207 2485.93 428.098 2486.49 428.098 2487.08C428.098 2487.66 428.207 2488.21 428.426 2488.73C428.652 2489.25 428.984 2489.68 429.422 2490.01C429.867 2490.33 430.395 2490.49 431.004 2490.49C431.605 2490.49 432.121 2490.33 432.551 2490.01C432.98 2489.68 433.305 2489.25 433.523 2488.72C433.75 2488.19 433.863 2487.62 433.863 2487.03C433.863 2486.45 433.758 2485.9 433.547 2485.38C433.32 2484.86 432.992 2484.45 432.562 2484.12C432.133 2483.8 431.613 2483.64 431.004 2483.64Z" fill="#F6EBC8"/>
<path d="M414.874 2490.09H420.581V2483.75H417.265C417.101 2487.35 416.304 2489.46 414.874 2490.09ZM412.613 2490.14C414.042 2489.51 414.827 2486.82 414.968 2482.07H422.843V2490.14H423.991V2494.06H421.73V2492.12H413.702V2494.06H411.441V2490.14H412.613Z" fill="#F6EBC8"/>
<path d="M407.124 2492V2487.72L402.905 2492H400.151L405.026 2487.63C404.69 2487.61 404.256 2487.54 403.725 2487.41C403.194 2487.27 402.741 2487.09 402.366 2486.84C401.991 2486.59 401.702 2486.3 401.499 2485.96C401.303 2485.62 401.206 2485.24 401.206 2484.82C401.206 2483.93 401.651 2483.26 402.542 2482.79C403.44 2482.31 404.584 2482.07 405.975 2482.07H409.362V2492H407.124ZM407.124 2483.4H406.432C405.385 2483.4 404.624 2483.53 404.147 2483.79C403.678 2484.04 403.444 2484.43 403.444 2484.93C403.444 2485.41 403.69 2485.8 404.182 2486.12C404.682 2486.42 405.385 2486.57 406.292 2486.57H407.124V2483.4Z" fill="#F6EBC8"/>
<path d="M393.654 2483.64C392.74 2483.64 392.025 2483.99 391.51 2484.68C390.994 2485.36 390.736 2486.16 390.736 2487.08C390.736 2487.66 390.845 2488.22 391.064 2488.74C391.283 2489.27 391.607 2489.69 392.037 2490.01C392.467 2490.33 392.982 2490.49 393.584 2490.49C394.209 2490.49 394.74 2490.32 395.177 2490C395.623 2489.67 395.955 2489.24 396.174 2488.71C396.392 2488.17 396.502 2487.6 396.502 2487.01C396.502 2486.44 396.392 2485.89 396.174 2485.38C395.963 2484.86 395.642 2484.44 395.213 2484.12C394.783 2483.8 394.263 2483.64 393.654 2483.64ZM388.756 2496.73V2482.05L390.877 2482.06V2483.28C391.603 2482.27 392.627 2481.77 393.947 2481.77C394.924 2481.77 395.763 2482.02 396.467 2482.53C397.177 2483.04 397.709 2483.7 398.06 2484.51C398.42 2485.32 398.599 2486.19 398.599 2487.1C398.599 2488.01 398.427 2488.86 398.084 2489.64C397.74 2490.43 397.22 2491.07 396.525 2491.55C395.838 2492.04 395.01 2492.28 394.041 2492.28C392.72 2492.28 391.666 2491.79 390.877 2490.79V2496.73H388.756Z" fill="#F6EBC8"/>
<path d="M384.333 2490.79C384.005 2491.27 383.563 2491.64 383.009 2491.91C382.454 2492.16 381.841 2492.29 381.169 2492.29C380.31 2492.29 379.528 2492.06 378.825 2491.6C378.13 2491.14 377.583 2490.51 377.185 2489.7C376.786 2488.89 376.587 2487.98 376.587 2486.98C376.587 2486.01 376.79 2485.12 377.196 2484.32C377.61 2483.53 378.177 2482.9 378.896 2482.45C379.622 2482 380.427 2481.77 381.31 2481.77C382.669 2481.77 383.677 2482.27 384.333 2483.28V2482.06H386.454V2492H384.333V2490.79ZM381.626 2483.64C381.017 2483.64 380.489 2483.8 380.044 2484.12C379.606 2484.45 379.274 2484.87 379.048 2485.4C378.829 2485.93 378.72 2486.49 378.72 2487.08C378.72 2487.66 378.829 2488.21 379.048 2488.73C379.274 2489.25 379.606 2489.68 380.044 2490.01C380.489 2490.33 381.017 2490.49 381.626 2490.49C382.228 2490.49 382.743 2490.33 383.173 2490.01C383.603 2489.68 383.927 2489.25 384.146 2488.72C384.372 2488.19 384.485 2487.62 384.485 2487.03C384.485 2486.45 384.38 2485.9 384.169 2485.38C383.942 2484.86 383.614 2484.45 383.185 2484.12C382.755 2483.8 382.235 2483.64 381.626 2483.64Z" fill="#F6EBC8"/>
<path d="M372.434 2487.72H367.922V2492H365.824V2482.1H367.91V2485.84H372.434V2482.1H374.52L374.531 2492H372.434V2487.72Z" fill="#F6EBC8"/>
<path d="M347.37 2492L351.331 2486.69L347.897 2482.06H350.381L352.784 2485.18L355.01 2482.06H357.553L354.073 2486.69L357.987 2492H355.514L352.678 2488.25L349.913 2492H347.37Z" fill="#F6EBC8"/>
<path d="M343.416 2492.06V2485.8L335.904 2492.41V2482.09H338.142V2488.31L345.654 2481.59V2492.06H343.416Z" fill="#F6EBC8"/>
<path d="M328.938 2481.72C329.962 2481.72 330.88 2481.95 331.692 2482.4C332.505 2482.86 333.138 2483.49 333.591 2484.31C334.044 2485.12 334.271 2486.05 334.271 2487.08C334.271 2488.09 334.044 2489 333.591 2489.81C333.138 2490.61 332.501 2491.24 331.681 2491.68C330.86 2492.12 329.931 2492.34 328.892 2492.34C327.876 2492.34 326.97 2492.11 326.173 2491.65C325.376 2491.2 324.755 2490.57 324.31 2489.76C323.872 2488.94 323.653 2488.02 323.653 2486.98C323.653 2485.98 323.876 2485.07 324.321 2484.28C324.767 2483.47 325.392 2482.85 326.196 2482.4C327.001 2481.95 327.915 2481.72 328.938 2481.72ZM328.962 2483.64C328.306 2483.64 327.743 2483.81 327.274 2484.14C326.806 2484.46 326.454 2484.88 326.22 2485.39C325.985 2485.91 325.868 2486.46 325.868 2487.05C325.868 2487.64 325.985 2488.19 326.22 2488.71C326.454 2489.21 326.806 2489.63 327.274 2489.96C327.743 2490.28 328.306 2490.44 328.962 2490.44C329.61 2490.44 330.161 2490.28 330.614 2489.96C331.075 2489.64 331.419 2489.22 331.646 2488.7C331.88 2488.17 331.997 2487.62 331.997 2487.05C331.997 2486.47 331.88 2485.91 331.646 2485.39C331.419 2484.87 331.075 2484.45 330.614 2484.12C330.153 2483.8 329.603 2483.64 328.962 2483.64Z" fill="#F6EBC8"/>
<path d="M314.168 2492V2482.07H317.66C318.699 2482.07 319.512 2482.3 320.098 2482.74C320.684 2483.19 320.977 2483.8 320.977 2484.57C320.977 2485.11 320.805 2485.57 320.461 2485.95C320.125 2486.33 319.668 2486.56 319.09 2486.66C319.98 2486.71 320.68 2486.99 321.188 2487.49C321.695 2487.99 321.949 2488.57 321.949 2489.23C321.949 2489.54 321.891 2489.84 321.773 2490.12C321.664 2490.41 321.488 2490.69 321.246 2490.95C321.004 2491.2 320.719 2491.4 320.391 2491.55C319.805 2491.85 318.965 2492 317.871 2492H314.168ZM316.172 2490.73H317.707C319.09 2490.81 319.781 2490.29 319.781 2489.15C319.781 2488.01 319.062 2487.44 317.625 2487.44H316.172V2490.73ZM316.172 2485.96H317.109C317.688 2485.96 318.145 2485.84 318.48 2485.6C318.801 2485.37 318.961 2485.04 318.961 2484.62C318.961 2484.26 318.793 2483.96 318.457 2483.73C318.121 2483.49 317.723 2483.38 317.262 2483.38H316.172V2485.96Z" fill="#F6EBC8"/>
<path d="M312.429 2491.5C311.281 2492.06 310.171 2492.34 309.101 2492.34C308.163 2492.34 307.32 2492.12 306.57 2491.67C305.82 2491.22 305.234 2490.6 304.812 2489.81C304.382 2489.01 304.167 2488.12 304.167 2487.12C304.167 2486.34 304.316 2485.61 304.613 2484.95C304.917 2484.28 305.323 2483.71 305.831 2483.23C306.347 2482.75 306.929 2482.38 307.577 2482.13C308.234 2481.88 308.909 2481.75 309.605 2481.75C310.636 2481.75 311.577 2482.01 312.429 2482.54V2485.04C311.624 2484.2 310.663 2483.79 309.546 2483.79C308.679 2483.79 307.937 2484.07 307.32 2484.63C306.71 2485.19 306.406 2485.98 306.406 2486.98C306.406 2487.66 306.527 2488.25 306.769 2488.75C307.011 2489.25 307.363 2489.64 307.823 2489.9C308.277 2490.16 308.812 2490.29 309.429 2490.29C310.476 2490.29 311.476 2489.85 312.429 2488.98V2491.5Z" fill="#F6EBC8"/>
<path d="M288.232 2492V2482.07H291.724C292.763 2482.07 293.576 2482.3 294.162 2482.74C294.748 2483.19 295.041 2483.8 295.041 2484.57C295.041 2485.11 294.869 2485.57 294.525 2485.95C294.189 2486.33 293.732 2486.56 293.154 2486.66C294.045 2486.71 294.744 2486.99 295.252 2487.49C295.76 2487.99 296.013 2488.57 296.013 2489.23C296.013 2489.54 295.955 2489.84 295.838 2490.12C295.728 2490.41 295.552 2490.69 295.31 2490.95C295.068 2491.2 294.783 2491.4 294.455 2491.55C293.869 2491.85 293.029 2492 291.935 2492H288.232ZM290.236 2490.73H291.771C293.154 2490.81 293.845 2490.29 293.845 2489.15C293.845 2488.01 293.127 2487.44 291.689 2487.44H290.236V2490.73ZM290.236 2485.96H291.174C291.752 2485.96 292.209 2485.84 292.545 2485.6C292.865 2485.37 293.025 2485.04 293.025 2484.62C293.025 2484.26 292.857 2483.96 292.521 2483.73C292.185 2483.49 291.787 2483.38 291.326 2483.38H290.236V2485.96Z" fill="#F6EBC8"/>
<path d="M271.898 2482.07V2486.22H273.117C273.961 2486.22 274.668 2486.38 275.238 2486.68C275.809 2486.93 276.246 2487.28 276.551 2487.72C276.863 2488.16 277.02 2488.66 277.02 2489.21C277.02 2489.77 276.859 2490.27 276.539 2490.69C276.227 2491.1 275.777 2491.43 275.191 2491.66C274.613 2491.89 273.941 2492 273.176 2492H269.684V2482.07H271.898ZM271.898 2490.63H272.906C273.242 2490.63 273.637 2490.5 274.09 2490.25C274.527 2490 274.746 2489.65 274.746 2489.19C274.746 2488.19 274.133 2487.69 272.906 2487.69H271.898V2490.63ZM277.523 2492H279.621L279.609 2482.06H277.523V2492Z" fill="#F6EBC8"/>
<path d="M262.671 2483.64C262.015 2483.64 261.452 2483.81 260.984 2484.14C260.515 2484.46 260.163 2484.88 259.929 2485.39C259.695 2485.91 259.577 2486.46 259.577 2487.05C259.577 2487.64 259.695 2488.19 259.929 2488.71C260.163 2489.21 260.515 2489.63 260.984 2489.96C261.452 2490.28 262.015 2490.44 262.671 2490.44C263.32 2490.44 263.87 2490.28 264.324 2489.96C264.785 2489.64 265.128 2489.22 265.355 2488.7C265.589 2488.17 265.706 2487.62 265.706 2487.05C265.706 2486.47 265.589 2485.91 265.355 2485.39C265.128 2484.87 264.785 2484.45 264.324 2484.12C263.863 2483.8 263.312 2483.64 262.671 2483.64ZM261.019 2479.91C260.285 2480.15 259.882 2481 259.812 2482.45C259.843 2482.43 259.874 2482.41 259.906 2482.39C260.71 2481.95 261.624 2481.72 262.648 2481.72C263.671 2481.72 264.589 2481.95 265.402 2482.4C266.214 2482.86 266.847 2483.49 267.3 2484.31C267.753 2485.12 267.98 2486.05 267.98 2487.08C267.98 2488.09 267.753 2489 267.3 2489.81C266.847 2490.61 266.21 2491.24 265.39 2491.68C264.57 2492.12 263.64 2492.34 262.601 2492.34C261.585 2492.34 260.679 2492.11 259.882 2491.65C259.085 2491.2 258.464 2490.57 258.019 2489.76C257.581 2488.94 257.363 2488.02 257.363 2486.98C257.089 2483.71 257.316 2481.42 258.042 2480.11C258.769 2478.79 259.585 2478.06 260.492 2477.93C261.421 2477.79 262.476 2477.73 263.656 2477.73C264.843 2477.72 265.714 2477.2 266.269 2476.16L268.331 2475.91C267.558 2478.05 266.304 2479.15 264.57 2479.2C262.835 2479.26 261.652 2479.49 261.019 2479.91Z" fill="#F6EBC8"/>
<path d="M250.538 2482.07V2486.22H251.756C252.6 2486.22 253.307 2486.38 253.877 2486.68C254.448 2486.93 254.885 2487.28 255.19 2487.72C255.502 2488.16 255.659 2488.66 255.659 2489.21C255.659 2489.77 255.499 2490.27 255.178 2490.69C254.866 2491.1 254.417 2491.43 253.831 2491.66C253.252 2491.89 252.581 2492 251.815 2492H248.323V2482.07H250.538ZM250.538 2490.63H251.545C251.881 2490.63 252.276 2490.5 252.729 2490.25C253.167 2490 253.385 2489.65 253.385 2489.19C253.385 2488.19 252.772 2487.69 251.545 2487.69H250.538V2490.63Z" fill="#F6EBC8"/>
<path d="M237.021 2490.09H242.728V2483.75H239.412C239.248 2487.35 238.451 2489.46 237.021 2490.09ZM234.76 2490.14C236.189 2489.51 236.974 2486.82 237.115 2482.07H244.99V2490.14H246.138V2494.06H243.877V2492.12H235.849V2494.06H233.588V2490.14H234.76Z" fill="#F6EBC8"/>
<path d="M229.2 2490.79C228.872 2491.27 228.43 2491.64 227.876 2491.91C227.321 2492.16 226.708 2492.29 226.036 2492.29C225.177 2492.29 224.395 2492.06 223.692 2491.6C222.997 2491.14 222.45 2490.51 222.052 2489.7C221.653 2488.89 221.454 2487.98 221.454 2486.98C221.454 2486.01 221.657 2485.12 222.063 2484.32C222.477 2483.53 223.044 2482.9 223.762 2482.45C224.489 2482 225.294 2481.77 226.177 2481.77C227.536 2481.77 228.544 2482.27 229.2 2483.28V2482.06H231.321V2492H229.2V2490.79ZM226.493 2483.64C225.884 2483.64 225.356 2483.8 224.911 2484.12C224.473 2484.45 224.141 2484.87 223.915 2485.4C223.696 2485.93 223.587 2486.49 223.587 2487.08C223.587 2487.66 223.696 2488.21 223.915 2488.73C224.141 2489.25 224.473 2489.68 224.911 2490.01C225.356 2490.33 225.884 2490.49 226.493 2490.49C227.094 2490.49 227.61 2490.33 228.04 2490.01C228.469 2489.68 228.794 2489.25 229.012 2488.72C229.239 2488.19 229.352 2487.62 229.352 2487.03C229.352 2486.45 229.247 2485.9 229.036 2485.38C228.809 2484.86 228.481 2484.45 228.052 2484.12C227.622 2483.8 227.102 2483.64 226.493 2483.64Z" fill="#F6EBC8"/>
<path d="M211.77 2492V2482.07H215.262C216.301 2482.07 217.113 2482.3 217.699 2482.74C218.285 2483.19 218.578 2483.8 218.578 2484.57C218.578 2485.11 218.406 2485.57 218.062 2485.95C217.727 2486.33 217.27 2486.56 216.691 2486.66C217.582 2486.71 218.281 2486.99 218.789 2487.49C219.297 2487.99 219.551 2488.57 219.551 2489.23C219.551 2489.54 219.492 2489.84 219.375 2490.12C219.266 2490.41 219.09 2490.69 218.848 2490.95C218.605 2491.2 218.32 2491.4 217.992 2491.55C217.406 2491.85 216.566 2492 215.473 2492H211.77ZM213.773 2490.73H215.309C216.691 2490.81 217.383 2490.29 217.383 2489.15C217.383 2488.01 216.664 2487.44 215.227 2487.44H213.773V2490.73ZM213.773 2485.96H214.711C215.289 2485.96 215.746 2485.84 216.082 2485.6C216.402 2485.37 216.562 2485.04 216.562 2484.62C216.562 2484.26 216.395 2483.96 216.059 2483.73C215.723 2483.49 215.324 2483.38 214.863 2483.38H213.773V2485.96Z" fill="#F6EBC8"/>
<path d="M210.031 2491.5C208.882 2492.06 207.773 2492.34 206.702 2492.34C205.765 2492.34 204.921 2492.12 204.171 2491.67C203.421 2491.22 202.835 2490.6 202.413 2489.81C201.984 2489.01 201.769 2488.12 201.769 2487.12C201.769 2486.34 201.917 2485.61 202.214 2484.95C202.519 2484.28 202.925 2483.71 203.433 2483.23C203.948 2482.75 204.531 2482.38 205.179 2482.13C205.835 2481.88 206.511 2481.75 207.206 2481.75C208.238 2481.75 209.179 2482.01 210.031 2482.54V2485.04C209.226 2484.2 208.265 2483.79 207.148 2483.79C206.281 2483.79 205.538 2484.07 204.921 2484.63C204.312 2485.19 204.007 2485.98 204.007 2486.98C204.007 2487.66 204.128 2488.25 204.37 2488.75C204.613 2489.25 204.964 2489.64 205.425 2489.9C205.878 2490.16 206.413 2490.29 207.031 2490.29C208.077 2490.29 209.077 2489.85 210.031 2488.98V2491.5Z" fill="#F6EBC8"/>
<path d="M183.314 2482.06H185.834L188.857 2487.77L191.599 2482.06H193.978L186.724 2496.73H184.416L187.756 2490.05L183.314 2482.06Z" fill="#F6EBC8"/>
<path d="M167.29 2492.06L170.782 2481.28L174.544 2488.45L178.88 2481.28L182.231 2492.06H179.934L177.989 2485.47L174.45 2492.41L171.485 2485.45L169.61 2492.06H167.29Z" fill="#F6EBC8"/>
<path d="M151.23 2492.06L154.723 2481.28L158.484 2488.45L162.82 2481.28L166.172 2492.06H163.875L161.93 2485.47L158.391 2492.41L155.426 2485.45L153.551 2492.06H151.23Z" fill="#F6EBC8"/>
<path d="M147.323 2490.79C146.995 2491.27 146.554 2491.64 145.999 2491.91C145.445 2492.16 144.831 2492.29 144.159 2492.29C143.3 2492.29 142.519 2492.06 141.816 2491.6C141.12 2491.14 140.573 2490.51 140.175 2489.7C139.777 2488.89 139.577 2487.98 139.577 2486.98C139.577 2486.01 139.781 2485.12 140.187 2484.32C140.601 2483.53 141.167 2482.9 141.886 2482.45C142.613 2482 143.417 2481.77 144.3 2481.77C145.659 2481.77 146.667 2482.27 147.323 2483.28V2482.06H149.445V2492H147.323V2490.79ZM144.616 2483.64C144.007 2483.64 143.48 2483.8 143.034 2484.12C142.597 2484.45 142.265 2484.87 142.038 2485.4C141.82 2485.93 141.71 2486.49 141.71 2487.08C141.71 2487.66 141.82 2488.21 142.038 2488.73C142.265 2489.25 142.597 2489.68 143.034 2490.01C143.48 2490.33 144.007 2490.49 144.616 2490.49C145.218 2490.49 145.734 2490.33 146.163 2490.01C146.593 2489.68 146.917 2489.25 147.136 2488.72C147.363 2488.19 147.476 2487.62 147.476 2487.03C147.476 2486.45 147.37 2485.9 147.159 2485.38C146.933 2484.86 146.605 2484.45 146.175 2484.12C145.745 2483.8 145.226 2483.64 144.616 2483.64Z" fill="#F6EBC8"/>
<path d="M137.487 2483.83H133.456L133.467 2492H131.37V2482.06H137.452L137.487 2483.83Z" fill="#F6EBC8"/>
<path d="M118.071 2483.64C117.415 2483.64 116.852 2483.81 116.384 2484.14C115.915 2484.46 115.563 2484.88 115.329 2485.39C115.094 2485.91 114.977 2486.46 114.977 2487.05C114.977 2487.64 115.094 2488.19 115.329 2488.71C115.563 2489.21 115.915 2489.63 116.384 2489.96C116.852 2490.28 117.415 2490.44 118.071 2490.44C118.719 2490.44 119.27 2490.28 119.723 2489.96C120.184 2489.64 120.528 2489.22 120.755 2488.7C120.989 2488.17 121.106 2487.62 121.106 2487.05C121.106 2486.47 120.989 2485.91 120.755 2485.39C120.528 2484.87 120.184 2484.45 119.723 2484.12C119.262 2483.8 118.712 2483.64 118.071 2483.64ZM108.45 2482.12L110.536 2482.09V2485.84H112.868C112.977 2485.27 113.165 2484.75 113.43 2484.27C113.876 2483.47 114.501 2482.85 115.305 2482.4C116.11 2481.95 117.024 2481.72 118.048 2481.72C119.071 2481.72 119.989 2481.95 120.802 2482.4C121.614 2482.86 122.247 2483.49 122.7 2484.31C123.153 2485.12 123.38 2486.05 123.38 2487.08C123.38 2488.09 123.153 2489 122.7 2489.81C122.247 2490.61 121.61 2491.24 120.79 2491.68C119.969 2492.12 119.04 2492.34 118.001 2492.34C116.985 2492.34 116.079 2492.11 115.282 2491.65C114.485 2491.2 113.868 2490.57 113.43 2489.75C113.094 2489.14 112.884 2488.46 112.798 2487.72H110.548V2492H108.45V2482.12Z" fill="#F6EBC8"/>
<path d="M95.9766 2482.06H98.4961L101.52 2487.77L104.262 2482.06H106.641L99.3867 2496.73H97.0781L100.418 2490.05L95.9766 2482.06Z" fill="#F6EBC8"/>
<path d="M86.5852 2492V2482.07H90.0774C91.1165 2482.07 91.929 2482.3 92.5149 2482.74C93.1008 2483.19 93.3938 2483.8 93.3938 2484.57C93.3938 2485.11 93.2219 2485.57 92.8782 2485.95C92.5422 2486.33 92.0852 2486.56 91.5071 2486.66C92.3977 2486.71 93.0969 2486.99 93.6047 2487.49C94.1125 2487.99 94.3665 2488.57 94.3665 2489.23C94.3665 2489.54 94.3079 2489.84 94.1907 2490.12C94.0813 2490.41 93.9055 2490.69 93.6633 2490.95C93.4211 2491.2 93.136 2491.4 92.8079 2491.55C92.2219 2491.85 91.3821 2492 90.2883 2492H86.5852ZM88.5891 2490.73H90.1243C91.5071 2490.81 92.1985 2490.29 92.1985 2489.15C92.1985 2488.01 91.4797 2487.44 90.0422 2487.44H88.5891V2490.73ZM88.5891 2485.96H89.5266C90.1047 2485.96 90.5618 2485.84 90.8977 2485.6C91.218 2485.37 91.3782 2485.04 91.3782 2484.62C91.3782 2484.26 91.2102 2483.96 90.8743 2483.73C90.5383 2483.49 90.1399 2483.38 89.679 2483.38H88.5891V2485.96Z" fill="#F6EBC8"/>
<path d="M79.6665 2481.72C80.6899 2481.72 81.6079 2481.95 82.4204 2482.4C83.2329 2482.86 83.8657 2483.49 84.3188 2484.31C84.772 2485.12 84.9985 2486.05 84.9985 2487.08C84.9985 2488.09 84.772 2489 84.3188 2489.81C83.8657 2490.61 83.229 2491.24 82.4087 2491.68C81.5884 2492.12 80.6587 2492.34 79.6196 2492.34C78.604 2492.34 77.6978 2492.11 76.9009 2491.65C76.104 2491.2 75.4829 2490.57 75.0376 2489.76C74.6001 2488.94 74.3813 2488.02 74.3813 2486.98C74.3813 2485.98 74.604 2485.07 75.0493 2484.28C75.4946 2483.47 76.1196 2482.85 76.9243 2482.4C77.729 2481.95 78.6431 2481.72 79.6665 2481.72ZM79.6899 2483.64C79.0337 2483.64 78.4712 2483.81 78.0024 2484.14C77.5337 2484.46 77.1821 2484.88 76.9478 2485.39C76.7134 2485.91 76.5962 2486.46 76.5962 2487.05C76.5962 2487.64 76.7134 2488.19 76.9478 2488.71C77.1821 2489.21 77.5337 2489.63 78.0024 2489.96C78.4712 2490.28 79.0337 2490.44 79.6899 2490.44C80.3384 2490.44 80.8892 2490.28 81.3423 2489.96C81.8032 2489.64 82.147 2489.22 82.3735 2488.7C82.6079 2488.17 82.7251 2487.62 82.7251 2487.05C82.7251 2486.47 82.6079 2485.91 82.3735 2485.39C82.147 2484.87 81.8032 2484.45 81.3423 2484.12C80.8813 2483.8 80.3306 2483.64 79.6899 2483.64Z" fill="#F6EBC8"/>
<path d="M65.0603 2482.07H72.6423L72.6775 2483.84H69.947V2492H67.7908V2483.84H65.0251L65.0603 2482.07Z" fill="#F6EBC8"/>
<path d="M63.3562 2489.46C62.1921 2491.41 60.5984 2492.39 58.575 2492.39C57.8328 2492.39 57.1609 2492.27 56.5593 2492.02C55.95 2491.77 55.4265 2491.41 54.989 2490.95C54.5593 2490.48 54.2273 2489.92 53.9929 2489.27C53.7664 2488.61 53.6531 2487.9 53.6531 2487.12C53.6531 2486.33 53.7664 2485.59 53.9929 2484.92C54.2273 2484.24 54.5554 2483.67 54.9773 2483.2C55.407 2482.72 55.9187 2482.36 56.5125 2482.11C57.1062 2481.85 57.7625 2481.72 58.4812 2481.72C59.2859 2481.72 60.0164 2481.89 60.6726 2482.21C61.3289 2482.54 61.8718 2483 62.3015 2483.6C62.6453 2484.04 62.8875 2484.54 63.0281 2485.1C63.1687 2485.65 63.2625 2486.43 63.3093 2487.42H55.821C55.8445 2488.03 55.9773 2488.57 56.2195 2489.04C56.4695 2489.5 56.8015 2489.86 57.2156 2490.11C57.6375 2490.36 58.1218 2490.49 58.6687 2490.49C59.8796 2490.49 60.8718 2489.77 61.6453 2488.34L63.3562 2489.46ZM56.0085 2485.79H61.0593C60.9343 2485.08 60.6609 2484.54 60.239 2484.16C59.8171 2483.79 59.2781 2483.6 58.6218 2483.6C57.1921 2483.6 56.321 2484.33 56.0085 2485.79Z" fill="#F6EBC8"/>
<path d="M44.2148 2492V2482.07H47.707C48.7461 2482.07 49.5586 2482.3 50.1445 2482.74C50.7305 2483.19 51.0234 2483.8 51.0234 2484.57C51.0234 2485.11 50.8516 2485.57 50.5078 2485.95C50.1719 2486.33 49.7148 2486.56 49.1367 2486.66C50.0273 2486.71 50.7266 2486.99 51.2344 2487.49C51.7422 2487.99 51.9961 2488.57 51.9961 2489.23C51.9961 2489.54 51.9375 2489.84 51.8203 2490.12C51.7109 2490.41 51.5352 2490.69 51.293 2490.95C51.0508 2491.2 50.7656 2491.4 50.4375 2491.55C49.8516 2491.85 49.0117 2492 47.918 2492H44.2148ZM46.2188 2490.73H47.7539C49.1367 2490.81 49.8281 2490.29 49.8281 2489.15C49.8281 2488.01 49.1094 2487.44 47.6719 2487.44H46.2188V2490.73ZM46.2188 2485.96H47.1562C47.7344 2485.96 48.1914 2485.84 48.5273 2485.6C48.8477 2485.37 49.0078 2485.04 49.0078 2484.62C49.0078 2484.26 48.8398 2483.96 48.5039 2483.73C48.168 2483.49 47.7695 2483.38 47.3086 2483.38H46.2188V2485.96Z" fill="#F6EBC8"/>
<path d="M40.4016 2493.98V2492H32.6321V2482.1H34.7297V2490.09H39.2415V2482.1H41.3391L41.3274 2490.1H42.218V2493.98H40.4016Z" fill="#F6EBC8"/>
<path d="M414.422 2467.46C413.258 2469.41 411.664 2470.39 409.641 2470.39C408.898 2470.39 408.227 2470.27 407.625 2470.02C407.016 2469.77 406.492 2469.41 406.055 2468.95C405.625 2468.48 405.293 2467.92 405.059 2467.27C404.832 2466.61 404.719 2465.9 404.719 2465.12C404.719 2464.33 404.832 2463.59 405.059 2462.92C405.293 2462.24 405.621 2461.67 406.043 2461.2C406.473 2460.72 406.984 2460.36 407.578 2460.11C408.172 2459.85 408.828 2459.72 409.547 2459.72C410.352 2459.72 411.082 2459.89 411.738 2460.21C412.395 2460.54 412.938 2461 413.367 2461.6C413.711 2462.04 413.953 2462.54 414.094 2463.1C414.234 2463.65 414.328 2464.43 414.375 2465.42H406.887C406.91 2466.03 407.043 2466.57 407.285 2467.04C407.535 2467.5 407.867 2467.86 408.281 2468.11C408.703 2468.36 409.188 2468.49 409.734 2468.49C410.945 2468.49 411.938 2467.77 412.711 2466.34L414.422 2467.46ZM407.074 2463.79H412.125C412 2463.08 411.727 2462.54 411.305 2462.16C410.883 2461.79 410.344 2461.6 409.688 2461.6C408.258 2461.6 407.387 2462.33 407.074 2463.79Z" fill="#F6EBC8"/>
<path d="M395.445 2460.07H403.027L403.062 2461.84H400.331V2470H398.175V2461.84H395.409L395.445 2460.07Z" fill="#F6EBC8"/>
<path d="M390.741 2470.06V2463.8L383.229 2470.41V2460.09H385.467V2466.31L392.979 2459.59V2470.06H390.741Z" fill="#F6EBC8"/>
<path d="M375.01 2460.06V2463.68L378.455 2460.06H381.244L376.709 2464.48L381.631 2470H378.771L375.01 2465.46V2470H372.83V2465.46L369.068 2470H366.209L371.131 2464.48L366.595 2460.06H369.385L372.83 2463.68V2460.06H375.01Z" fill="#F6EBC8"/>
<path d="M359.524 2461.64C358.61 2461.64 357.896 2461.99 357.38 2462.68C356.864 2463.36 356.606 2464.16 356.606 2465.08C356.606 2465.66 356.716 2466.22 356.935 2466.74C357.153 2467.27 357.478 2467.69 357.907 2468.01C358.337 2468.33 358.853 2468.49 359.454 2468.49C360.079 2468.49 360.61 2468.32 361.048 2468C361.493 2467.67 361.825 2467.24 362.044 2466.71C362.263 2466.17 362.372 2465.6 362.372 2465.01C362.372 2464.44 362.263 2463.89 362.044 2463.38C361.833 2462.86 361.513 2462.44 361.083 2462.12C360.653 2461.8 360.134 2461.64 359.524 2461.64ZM354.626 2474.73V2460.05L356.747 2460.06V2461.28C357.474 2460.27 358.497 2459.77 359.817 2459.77C360.794 2459.77 361.634 2460.02 362.337 2460.53C363.048 2461.04 363.579 2461.7 363.931 2462.51C364.29 2463.32 364.47 2464.19 364.47 2465.1C364.47 2466.01 364.298 2466.86 363.954 2467.64C363.61 2468.43 363.091 2469.07 362.396 2469.55C361.708 2470.04 360.88 2470.28 359.911 2470.28C358.591 2470.28 357.536 2469.79 356.747 2468.79V2474.73H354.626Z" fill="#F6EBC8"/>
<path d="M352.922 2467.46C351.758 2469.41 350.164 2470.39 348.141 2470.39C347.398 2470.39 346.727 2470.27 346.125 2470.02C345.516 2469.77 344.992 2469.41 344.555 2468.95C344.125 2468.48 343.793 2467.92 343.559 2467.27C343.332 2466.61 343.219 2465.9 343.219 2465.12C343.219 2464.33 343.332 2463.59 343.559 2462.92C343.793 2462.24 344.121 2461.67 344.543 2461.2C344.973 2460.72 345.484 2460.36 346.078 2460.11C346.672 2459.85 347.328 2459.72 348.047 2459.72C348.852 2459.72 349.582 2459.89 350.238 2460.21C350.895 2460.54 351.438 2461 351.867 2461.6C352.211 2462.04 352.453 2462.54 352.594 2463.1C352.734 2463.65 352.828 2464.43 352.875 2465.42H345.387C345.41 2466.03 345.543 2466.57 345.785 2467.04C346.035 2467.5 346.367 2467.86 346.781 2468.11C347.203 2468.36 347.688 2468.49 348.234 2468.49C349.445 2468.49 350.438 2467.77 351.211 2466.34L352.922 2467.46ZM345.574 2463.79H350.625C350.5 2463.08 350.227 2462.54 349.805 2462.16C349.383 2461.79 348.844 2461.6 348.188 2461.6C346.758 2461.6 345.887 2462.33 345.574 2463.79Z" fill="#F6EBC8"/>
<path d="M332.374 2468.09H338.081V2461.75H334.765C334.601 2465.35 333.804 2467.46 332.374 2468.09ZM330.113 2468.14C331.542 2467.51 332.327 2464.82 332.468 2460.07H340.343V2468.14H341.491V2472.06H339.23V2470.12H331.202V2472.06H328.941V2468.14H330.113Z" fill="#F6EBC8"/>
<path d="M317.627 2468.09H323.334V2461.75H320.018C319.854 2465.35 319.057 2467.46 317.627 2468.09ZM315.366 2468.14C316.795 2467.51 317.581 2464.82 317.721 2460.07H325.596V2468.14H326.745V2472.06H324.483V2470.12H316.456V2472.06H314.194V2468.14H315.366Z" fill="#F6EBC8"/>
<path d="M307.146 2459.72C308.17 2459.72 309.088 2459.95 309.9 2460.4C310.713 2460.86 311.345 2461.49 311.799 2462.31C312.252 2463.12 312.478 2464.05 312.478 2465.08C312.478 2466.09 312.252 2467 311.799 2467.81C311.345 2468.61 310.709 2469.24 309.888 2469.68C309.068 2470.12 308.138 2470.34 307.099 2470.34C306.084 2470.34 305.177 2470.11 304.381 2469.65C303.584 2469.2 302.963 2468.57 302.517 2467.76C302.08 2466.94 301.861 2466.02 301.861 2464.98C301.861 2463.98 302.084 2463.07 302.529 2462.28C302.974 2461.47 303.599 2460.85 304.404 2460.4C305.209 2459.95 306.123 2459.72 307.146 2459.72ZM307.17 2461.64C306.513 2461.64 305.951 2461.81 305.482 2462.14C305.013 2462.46 304.662 2462.88 304.427 2463.39C304.193 2463.91 304.076 2464.46 304.076 2465.05C304.076 2465.64 304.193 2466.19 304.427 2466.71C304.662 2467.21 305.013 2467.63 305.482 2467.96C305.951 2468.28 306.513 2468.44 307.17 2468.44C307.818 2468.44 308.369 2468.28 308.822 2467.96C309.283 2467.64 309.627 2467.22 309.853 2466.7C310.088 2466.17 310.205 2465.62 310.205 2465.05C310.205 2464.47 310.088 2463.91 309.853 2463.39C309.627 2462.87 309.283 2462.45 308.822 2462.12C308.361 2461.8 307.81 2461.64 307.17 2461.64Z" fill="#F6EBC8"/>
<path d="M297.907 2462.01H293.396V2470H291.298V2460.1H299.993L300.005 2470H297.907V2462.01Z" fill="#F6EBC8"/>
<path d="M274.87 2460.07V2464.22H276.089C276.933 2464.22 277.64 2464.38 278.21 2464.68C278.781 2464.93 279.218 2465.28 279.523 2465.72C279.835 2466.16 279.991 2466.66 279.991 2467.21C279.991 2467.77 279.831 2468.27 279.511 2468.69C279.198 2469.1 278.749 2469.43 278.163 2469.66C277.585 2469.89 276.913 2470 276.148 2470H272.656V2460.07H274.87ZM274.87 2468.63H275.878C276.214 2468.63 276.609 2468.5 277.062 2468.25C277.499 2468 277.718 2467.65 277.718 2467.19C277.718 2466.19 277.105 2465.69 275.878 2465.69H274.87V2468.63ZM280.495 2470H282.593L282.581 2460.06H280.495V2470Z" fill="#F6EBC8"/>
<path d="M262.76 2470V2460.07H266.252C267.292 2460.07 268.104 2460.3 268.69 2460.74C269.276 2461.19 269.569 2461.8 269.569 2462.57C269.569 2463.11 269.397 2463.57 269.053 2463.95C268.717 2464.33 268.26 2464.56 267.682 2464.66C268.573 2464.71 269.272 2464.99 269.78 2465.49C270.288 2465.99 270.542 2466.57 270.542 2467.23C270.542 2467.54 270.483 2467.84 270.366 2468.12C270.256 2468.41 270.081 2468.69 269.838 2468.95C269.596 2469.2 269.311 2469.4 268.983 2469.55C268.397 2469.85 267.557 2470 266.463 2470H262.76ZM264.764 2468.73H266.299C267.682 2468.81 268.374 2468.29 268.374 2467.15C268.374 2466.01 267.655 2465.44 266.217 2465.44H264.764V2468.73ZM264.764 2463.96H265.702C266.28 2463.96 266.737 2463.84 267.073 2463.6C267.393 2463.37 267.553 2463.04 267.553 2462.62C267.553 2462.26 267.385 2461.96 267.049 2461.73C266.713 2461.49 266.315 2461.38 265.854 2461.38H264.764V2463.96Z" fill="#F6EBC8"/>
<path d="M251.911 2470.06V2463.8L244.399 2470.41V2460.09H246.637V2466.31L254.149 2459.59V2470.06H251.911Z" fill="#F6EBC8"/>
<path d="M239.695 2462.04H236.391V2465.68C236.391 2466.3 236.324 2466.89 236.191 2467.46C236.051 2468.01 235.832 2468.51 235.535 2468.96C235.238 2469.4 234.852 2469.75 234.375 2470.01C233.898 2470.26 233.34 2470.39 232.699 2470.39C232.551 2470.39 232.406 2470.38 232.266 2470.36V2468.27C232.359 2468.28 232.457 2468.29 232.559 2468.29C233.129 2468.29 233.531 2468.1 233.766 2467.73C234 2467.34 234.117 2466.71 234.117 2465.82L234.105 2460.09H241.957V2470H239.695V2462.04Z" fill="#F6EBC8"/>
<path d="M230.421 2469.5C229.273 2470.06 228.163 2470.34 227.093 2470.34C226.156 2470.34 225.312 2470.12 224.562 2469.67C223.812 2469.22 223.226 2468.6 222.804 2467.81C222.374 2467.01 222.159 2466.12 222.159 2465.12C222.159 2464.34 222.308 2463.61 222.605 2462.95C222.909 2462.28 223.316 2461.71 223.823 2461.23C224.339 2460.75 224.921 2460.38 225.57 2460.13C226.226 2459.88 226.902 2459.75 227.597 2459.75C228.628 2459.75 229.57 2460.01 230.421 2460.54V2463.04C229.616 2462.2 228.656 2461.79 227.538 2461.79C226.671 2461.79 225.929 2462.07 225.312 2462.63C224.702 2463.19 224.398 2463.98 224.398 2464.98C224.398 2465.66 224.519 2466.25 224.761 2466.75C225.003 2467.25 225.355 2467.64 225.816 2467.9C226.269 2468.16 226.804 2468.29 227.421 2468.29C228.468 2468.29 229.468 2467.85 230.421 2466.98V2469.5Z" fill="#F6EBC8"/>
<path d="M220.772 2467.46C219.608 2469.41 218.014 2470.39 215.991 2470.39C215.249 2470.39 214.577 2470.27 213.975 2470.02C213.366 2469.77 212.842 2469.41 212.405 2468.95C211.975 2468.48 211.643 2467.92 211.409 2467.27C211.182 2466.61 211.069 2465.9 211.069 2465.12C211.069 2464.33 211.182 2463.59 211.409 2462.92C211.643 2462.24 211.971 2461.67 212.393 2461.2C212.823 2460.72 213.334 2460.36 213.928 2460.11C214.522 2459.85 215.178 2459.72 215.897 2459.72C216.702 2459.72 217.432 2459.89 218.088 2460.21C218.745 2460.54 219.288 2461 219.717 2461.6C220.061 2462.04 220.303 2462.54 220.444 2463.1C220.584 2463.65 220.678 2464.43 220.725 2465.42H213.237C213.26 2466.03 213.393 2466.57 213.635 2467.04C213.885 2467.5 214.217 2467.86 214.631 2468.11C215.053 2468.36 215.538 2468.49 216.084 2468.49C217.295 2468.49 218.288 2467.77 219.061 2466.34L220.772 2467.46ZM213.424 2463.79H218.475C218.35 2463.08 218.077 2462.54 217.655 2462.16C217.233 2461.79 216.694 2461.6 216.038 2461.6C214.608 2461.6 213.737 2462.33 213.424 2463.79Z" fill="#F6EBC8"/>
<path d="M199.282 2472.84L201.591 2467.3L203.665 2468.05L200.829 2473.46L199.282 2472.84Z" fill="#F6EBC8"/>
<path d="M190.852 2460.07V2464.22H192.07C192.914 2464.22 193.621 2464.38 194.191 2464.68C194.762 2464.93 195.199 2465.28 195.504 2465.72C195.816 2466.16 195.973 2466.66 195.973 2467.21C195.973 2467.77 195.812 2468.27 195.492 2468.69C195.18 2469.1 194.73 2469.43 194.145 2469.66C193.566 2469.89 192.895 2470 192.129 2470H188.637V2460.07H190.852ZM190.852 2468.63H191.859C192.195 2468.63 192.59 2468.5 193.043 2468.25C193.48 2468 193.699 2467.65 193.699 2467.19C193.699 2466.19 193.086 2465.69 191.859 2465.69H190.852V2468.63ZM196.477 2470H198.574L198.562 2460.06H196.477V2470Z" fill="#F6EBC8"/>
<path d="M177.335 2468.09H183.042V2461.75H179.726C179.562 2465.35 178.765 2467.46 177.335 2468.09ZM175.073 2468.14C176.503 2467.51 177.288 2464.82 177.429 2460.07H185.304V2468.14H186.452V2472.06H184.191V2470.12H176.163V2472.06H173.902V2468.14H175.073Z" fill="#F6EBC8"/>
<path d="M169.514 2468.79C169.186 2469.27 168.745 2469.64 168.19 2469.91C167.635 2470.16 167.022 2470.29 166.35 2470.29C165.491 2470.29 164.709 2470.06 164.006 2469.6C163.311 2469.14 162.764 2468.51 162.366 2467.7C161.967 2466.89 161.768 2465.98 161.768 2464.98C161.768 2464.01 161.971 2463.12 162.377 2462.32C162.792 2461.53 163.358 2460.9 164.077 2460.45C164.803 2460 165.608 2459.77 166.491 2459.77C167.85 2459.77 168.858 2460.27 169.514 2461.28V2460.06H171.635V2470H169.514V2468.79ZM166.807 2461.64C166.198 2461.64 165.67 2461.8 165.225 2462.12C164.788 2462.45 164.456 2462.87 164.229 2463.4C164.01 2463.93 163.901 2464.49 163.901 2465.08C163.901 2465.66 164.01 2466.21 164.229 2466.73C164.456 2467.25 164.788 2467.68 165.225 2468.01C165.67 2468.33 166.198 2468.49 166.807 2468.49C167.409 2468.49 167.924 2468.33 168.354 2468.01C168.784 2467.68 169.108 2467.25 169.327 2466.72C169.553 2466.19 169.667 2465.62 169.667 2465.03C169.667 2464.45 169.561 2463.9 169.35 2463.38C169.124 2462.86 168.795 2462.45 168.366 2462.12C167.936 2461.8 167.417 2461.64 166.807 2461.64Z" fill="#F6EBC8"/>
<path d="M155.013 2461.64C154.099 2461.64 153.385 2461.99 152.869 2462.68C152.353 2463.36 152.095 2464.16 152.095 2465.08C152.095 2465.66 152.205 2466.22 152.424 2466.74C152.642 2467.27 152.967 2467.69 153.396 2468.01C153.826 2468.33 154.342 2468.49 154.943 2468.49C155.568 2468.49 156.099 2468.32 156.537 2468C156.982 2467.67 157.314 2467.24 157.533 2466.71C157.752 2466.17 157.861 2465.6 157.861 2465.01C157.861 2464.44 157.752 2463.89 157.533 2463.38C157.322 2462.86 157.002 2462.44 156.572 2462.12C156.142 2461.8 155.623 2461.64 155.013 2461.64ZM150.115 2474.73V2460.05L152.236 2460.06V2461.28C152.963 2460.27 153.986 2459.77 155.306 2459.77C156.283 2459.77 157.123 2460.02 157.826 2460.53C158.537 2461.04 159.068 2461.7 159.42 2462.51C159.779 2463.32 159.959 2464.19 159.959 2465.1C159.959 2466.01 159.787 2466.86 159.443 2467.64C159.099 2468.43 158.58 2469.07 157.885 2469.55C157.197 2470.04 156.369 2470.28 155.4 2470.28C154.08 2470.28 153.025 2469.79 152.236 2468.79V2474.73H150.115Z" fill="#F6EBC8"/>
<path d="M127.23 2470.06L130.723 2459.28L134.484 2466.45L138.82 2459.28L142.172 2470.06H139.875L137.93 2463.47L134.391 2470.41L131.426 2463.45L129.551 2470.06H127.23Z" fill="#F6EBC8"/>
<path d="M126.042 2467.46C124.878 2469.41 123.284 2470.39 121.261 2470.39C120.519 2470.39 119.847 2470.27 119.245 2470.02C118.636 2469.77 118.113 2469.41 117.675 2468.95C117.245 2468.48 116.913 2467.92 116.679 2467.27C116.452 2466.61 116.339 2465.9 116.339 2465.12C116.339 2464.33 116.452 2463.59 116.679 2462.92C116.913 2462.24 117.241 2461.67 117.663 2461.2C118.093 2460.72 118.605 2460.36 119.198 2460.11C119.792 2459.85 120.448 2459.72 121.167 2459.72C121.972 2459.72 122.702 2459.89 123.359 2460.21C124.015 2460.54 124.558 2461 124.988 2461.6C125.331 2462.04 125.573 2462.54 125.714 2463.1C125.855 2463.65 125.948 2464.43 125.995 2465.42H118.507C118.531 2466.03 118.663 2466.57 118.906 2467.04C119.156 2467.5 119.488 2467.86 119.902 2468.11C120.323 2468.36 120.808 2468.49 121.355 2468.49C122.566 2468.49 123.558 2467.77 124.331 2466.34L126.042 2467.46ZM118.695 2463.79H123.745C123.62 2463.08 123.347 2462.54 122.925 2462.16C122.503 2461.79 121.964 2461.6 121.308 2461.6C119.878 2461.6 119.007 2462.33 118.695 2463.79Z" fill="#F6EBC8"/>
<path d="M105.495 2468.09H111.202V2461.75H107.885C107.721 2465.35 106.924 2467.46 105.495 2468.09ZM103.233 2468.14C104.663 2467.51 105.448 2464.82 105.588 2460.07H113.463V2468.14H114.612V2472.06H112.35V2470.12H104.323V2472.06H102.061V2468.14H103.233Z" fill="#F6EBC8"/>
<path d="M89.6345 2460.06H92.1541L95.1775 2465.77L97.9197 2460.06H100.299L93.0447 2474.73H90.7361L94.0759 2468.05L89.6345 2460.06Z" fill="#F6EBC8"/>
<path d="M83.1258 2461.64C82.4696 2461.64 81.9071 2461.81 81.4383 2462.14C80.9696 2462.46 80.618 2462.88 80.3836 2463.39C80.1493 2463.91 80.0321 2464.46 80.0321 2465.05C80.0321 2465.64 80.1493 2466.19 80.3836 2466.71C80.618 2467.21 80.9696 2467.63 81.4383 2467.96C81.9071 2468.28 82.4696 2468.44 83.1258 2468.44C83.7743 2468.44 84.325 2468.28 84.7782 2467.96C85.2391 2467.64 85.5829 2467.22 85.8094 2466.7C86.0438 2466.17 86.161 2465.62 86.161 2465.05C86.161 2464.47 86.0438 2463.91 85.8094 2463.39C85.5829 2462.87 85.2391 2462.45 84.7782 2462.12C84.3172 2461.8 83.7664 2461.64 83.1258 2461.64ZM81.4735 2457.91C80.7391 2458.15 80.3368 2459 80.2664 2460.45C80.2977 2460.43 80.3289 2460.41 80.3602 2460.39C81.1649 2459.95 82.0789 2459.72 83.1024 2459.72C84.1258 2459.72 85.0438 2459.95 85.8563 2460.4C86.6688 2460.86 87.3016 2461.49 87.7547 2462.31C88.2079 2463.12 88.4344 2464.05 88.4344 2465.08C88.4344 2466.09 88.2079 2467 87.7547 2467.81C87.3016 2468.61 86.6649 2469.24 85.8446 2469.68C85.0243 2470.12 84.0946 2470.34 83.0555 2470.34C82.0399 2470.34 81.1336 2470.11 80.3368 2469.65C79.5399 2469.2 78.9188 2468.57 78.4735 2467.76C78.036 2466.94 77.8172 2466.02 77.8172 2464.98C77.5438 2461.71 77.7704 2459.42 78.4969 2458.11C79.2235 2456.79 80.0399 2456.06 80.9461 2455.93C81.8758 2455.79 82.9305 2455.73 84.1102 2455.73C85.2977 2455.72 86.1688 2455.2 86.7235 2454.16L88.786 2453.91C88.0125 2456.05 86.7586 2457.15 85.0243 2457.2C83.2899 2457.26 82.1063 2457.49 81.4735 2457.91Z" fill="#F6EBC8"/>
<path d="M67.261 2470.06V2463.8L59.7493 2470.41V2460.09H61.9875V2466.31L69.4993 2459.59V2470.06H67.261Z" fill="#F6EBC8"/>
<path d="M415.343 2448.06L418.835 2437.28L422.597 2444.45L426.933 2437.28L430.284 2448.06H427.988L426.042 2441.47L422.503 2448.41L419.538 2441.45L417.663 2448.06H415.343Z" fill="#F6EBC8"/>
<path d="M405.67 2438.07V2442.22H406.889C407.733 2442.22 408.44 2442.38 409.01 2442.68C409.581 2442.93 410.018 2443.28 410.323 2443.72C410.635 2444.16 410.792 2444.66 410.792 2445.21C410.792 2445.77 410.631 2446.27 410.311 2446.69C409.999 2447.1 409.549 2447.43 408.963 2447.66C408.385 2447.89 407.713 2448 406.948 2448H403.456V2438.07H405.67ZM405.67 2446.63H406.678C407.014 2446.63 407.409 2446.5 407.862 2446.25C408.299 2446 408.518 2445.65 408.518 2445.19C408.518 2444.19 407.905 2443.69 406.678 2443.69H405.67V2446.63ZM411.295 2448H413.393L413.381 2438.06H411.295V2448Z" fill="#F6EBC8"/>
<path d="M393.56 2448V2438.07H397.052C398.092 2438.07 398.904 2438.3 399.49 2438.74C400.076 2439.19 400.369 2439.8 400.369 2440.57C400.369 2441.11 400.197 2441.57 399.853 2441.95C399.517 2442.33 399.06 2442.56 398.482 2442.66C399.373 2442.71 400.072 2442.99 400.58 2443.49C401.088 2443.99 401.342 2444.57 401.342 2445.23C401.342 2445.54 401.283 2445.84 401.166 2446.12C401.056 2446.41 400.881 2446.69 400.638 2446.95C400.396 2447.2 400.111 2447.4 399.783 2447.55C399.197 2447.85 398.357 2448 397.263 2448H393.56ZM395.564 2446.73H397.099C398.482 2446.81 399.174 2446.29 399.174 2445.15C399.174 2444.01 398.455 2443.44 397.017 2443.44H395.564V2446.73ZM395.564 2441.96H396.502C397.08 2441.96 397.537 2441.84 397.873 2441.6C398.193 2441.37 398.353 2441.04 398.353 2440.62C398.353 2440.26 398.185 2439.96 397.849 2439.73C397.513 2439.49 397.115 2439.38 396.654 2439.38H395.564V2441.96Z" fill="#F6EBC8"/>
<path d="M389.021 2448.06V2441.8L381.509 2448.41V2438.09H383.747V2444.31L391.259 2437.59V2448.06H389.021Z" fill="#F6EBC8"/>
<path d="M379.723 2447.5C378.574 2448.06 377.465 2448.34 376.395 2448.34C375.457 2448.34 374.613 2448.12 373.863 2447.67C373.113 2447.22 372.527 2446.6 372.105 2445.81C371.676 2445.01 371.461 2444.12 371.461 2443.12C371.461 2442.34 371.609 2441.61 371.906 2440.95C372.211 2440.28 372.617 2439.71 373.125 2439.23C373.641 2438.75 374.223 2438.38 374.871 2438.13C375.527 2437.88 376.203 2437.75 376.898 2437.75C377.93 2437.75 378.871 2438.01 379.723 2438.54V2441.04C378.918 2440.2 377.957 2439.79 376.84 2439.79C375.973 2439.79 375.23 2440.07 374.613 2440.63C374.004 2441.19 373.699 2441.98 373.699 2442.98C373.699 2443.66 373.82 2444.25 374.062 2444.75C374.305 2445.25 374.656 2445.64 375.117 2445.9C375.57 2446.16 376.105 2446.29 376.723 2446.29C377.77 2446.29 378.77 2445.85 379.723 2444.98V2447.5Z" fill="#F6EBC8"/>
<path d="M367.355 2446.79C367.027 2447.27 366.585 2447.64 366.031 2447.91C365.476 2448.16 364.863 2448.29 364.191 2448.29C363.331 2448.29 362.55 2448.06 361.847 2447.6C361.152 2447.14 360.605 2446.51 360.206 2445.7C359.808 2444.89 359.609 2443.98 359.609 2442.98C359.609 2442.01 359.812 2441.12 360.218 2440.32C360.632 2439.53 361.198 2438.9 361.917 2438.45C362.644 2438 363.448 2437.77 364.331 2437.77C365.691 2437.77 366.698 2438.27 367.355 2439.28V2438.06H369.476V2448H367.355V2446.79ZM364.648 2439.64C364.038 2439.64 363.511 2439.8 363.066 2440.12C362.628 2440.45 362.296 2440.87 362.07 2441.4C361.851 2441.93 361.741 2442.49 361.741 2443.08C361.741 2443.66 361.851 2444.21 362.07 2444.73C362.296 2445.25 362.628 2445.68 363.066 2446.01C363.511 2446.33 364.038 2446.49 364.648 2446.49C365.249 2446.49 365.765 2446.33 366.195 2446.01C366.624 2445.68 366.948 2445.25 367.167 2444.72C367.394 2444.19 367.507 2443.62 367.507 2443.03C367.507 2442.45 367.402 2441.9 367.191 2441.38C366.964 2440.86 366.636 2440.45 366.206 2440.12C365.777 2439.8 365.257 2439.64 364.648 2439.64Z" fill="#F6EBC8"/>
<path d="M352.854 2439.64C351.94 2439.64 351.225 2439.99 350.709 2440.68C350.194 2441.36 349.936 2442.16 349.936 2443.08C349.936 2443.66 350.045 2444.22 350.264 2444.74C350.483 2445.27 350.807 2445.69 351.237 2446.01C351.667 2446.33 352.182 2446.49 352.784 2446.49C353.409 2446.49 353.94 2446.32 354.377 2446C354.823 2445.67 355.155 2445.24 355.374 2444.71C355.592 2444.17 355.702 2443.6 355.702 2443.01C355.702 2442.44 355.592 2441.89 355.374 2441.38C355.163 2440.86 354.842 2440.44 354.413 2440.12C353.983 2439.8 353.463 2439.64 352.854 2439.64ZM347.956 2452.73V2438.05L350.077 2438.06V2439.28C350.803 2438.27 351.827 2437.77 353.147 2437.77C354.124 2437.77 354.963 2438.02 355.667 2438.53C356.377 2439.04 356.909 2439.7 357.26 2440.51C357.62 2441.32 357.799 2442.19 357.799 2443.1C357.799 2444.01 357.627 2444.86 357.284 2445.64C356.94 2446.43 356.42 2447.07 355.725 2447.55C355.038 2448.04 354.209 2448.28 353.241 2448.28C351.92 2448.28 350.866 2447.79 350.077 2446.79V2452.73H347.956Z" fill="#F6EBC8"/>
<path d="M339.619 2438.06V2441.68L343.064 2438.06H345.853L341.318 2442.48L346.24 2448H343.381L339.619 2443.46V2448H337.498V2438.06H339.619Z" fill="#F6EBC8"/>
<path d="M322.852 2438.06V2441.68L326.297 2438.06H329.086L324.551 2442.48L329.473 2448H326.613L322.852 2443.46V2448H320.73V2438.06H322.852Z" fill="#F6EBC8"/>
<path d="M316.027 2448.06V2441.8L308.515 2448.41V2438.09H310.753V2444.31L318.265 2437.59V2448.06H316.027Z" fill="#F6EBC8"/>
<path d="M304.221 2443.72H299.709V2448H297.612V2438.1H299.698V2441.84H304.221V2438.1H306.307L306.319 2448H304.221V2443.72Z" fill="#F6EBC8"/>
<path d="M286.334 2446.09H292.041V2439.75H288.724C288.56 2443.35 287.763 2445.46 286.334 2446.09ZM284.072 2446.14C285.502 2445.51 286.287 2442.82 286.427 2438.07H294.302V2446.14H295.451V2450.06H293.189V2448.12H285.162V2450.06H282.9V2446.14H284.072Z" fill="#F6EBC8"/>
<path d="M274.458 2442.35H276.227C277.774 2442.22 278.548 2441.71 278.548 2440.82C278.548 2440.36 278.341 2440 277.927 2439.74C277.52 2439.47 276.973 2439.34 276.286 2439.34C275.184 2439.31 273.946 2439.37 272.571 2439.53V2438.34C274.204 2438.06 275.442 2437.94 276.286 2437.98C277.13 2438.01 277.868 2438.14 278.501 2438.36C279.134 2438.57 279.618 2438.89 279.954 2439.3C280.298 2439.71 280.469 2440.19 280.469 2440.73C280.469 2441.33 280.29 2441.8 279.93 2442.14C279.571 2442.48 279.001 2442.73 278.219 2442.87C280.024 2443.08 280.927 2443.89 280.927 2445.29C280.927 2445.91 280.7 2446.45 280.247 2446.9C279.794 2447.36 279.2 2447.71 278.466 2447.96C277.731 2448.21 276.958 2448.34 276.145 2448.35C275.333 2448.37 274.54 2448.32 273.766 2448.18C273.001 2448.04 272.552 2447.97 272.419 2447.96V2446.68C274.255 2446.93 275.544 2447.06 276.286 2447.06C277.083 2447.06 277.727 2446.91 278.219 2446.59C278.712 2446.28 278.958 2445.86 278.958 2445.33C278.958 2444.27 278.087 2443.68 276.344 2443.53H274.458V2442.35Z" fill="#F6EBC8"/>
<path d="M268.219 2446.79C267.891 2447.27 267.449 2447.64 266.895 2447.91C266.34 2448.16 265.727 2448.29 265.055 2448.29C264.195 2448.29 263.414 2448.06 262.711 2447.6C262.016 2447.14 261.469 2446.51 261.07 2445.7C260.672 2444.89 260.473 2443.98 260.473 2442.98C260.473 2442.01 260.676 2441.12 261.082 2440.32C261.496 2439.53 262.062 2438.9 262.781 2438.45C263.508 2438 264.312 2437.77 265.195 2437.77C266.555 2437.77 267.562 2438.27 268.219 2439.28V2438.06H270.34V2448H268.219V2446.79ZM265.512 2439.64C264.902 2439.64 264.375 2439.8 263.93 2440.12C263.492 2440.45 263.16 2440.87 262.934 2441.4C262.715 2441.93 262.605 2442.49 262.605 2443.08C262.605 2443.66 262.715 2444.21 262.934 2444.73C263.16 2445.25 263.492 2445.68 263.93 2446.01C264.375 2446.33 264.902 2446.49 265.512 2446.49C266.113 2446.49 266.629 2446.33 267.059 2446.01C267.488 2445.68 267.812 2445.25 268.031 2444.72C268.258 2444.19 268.371 2443.62 268.371 2443.03C268.371 2442.45 268.266 2441.9 268.055 2441.38C267.828 2440.86 267.5 2440.45 267.07 2440.12C266.641 2439.8 266.121 2439.64 265.512 2439.64Z" fill="#F6EBC8"/>
<path d="M253.718 2439.64C252.804 2439.64 252.089 2439.99 251.573 2440.68C251.058 2441.36 250.8 2442.16 250.8 2443.08C250.8 2443.66 250.909 2444.22 251.128 2444.74C251.347 2445.27 251.671 2445.69 252.101 2446.01C252.531 2446.33 253.046 2446.49 253.648 2446.49C254.273 2446.49 254.804 2446.32 255.241 2446C255.687 2445.67 256.019 2445.24 256.238 2444.71C256.456 2444.17 256.566 2443.6 256.566 2443.01C256.566 2442.44 256.456 2441.89 256.238 2441.38C256.027 2440.86 255.706 2440.44 255.277 2440.12C254.847 2439.8 254.327 2439.64 253.718 2439.64ZM248.82 2452.73V2438.05L250.941 2438.06V2439.28C251.667 2438.27 252.691 2437.77 254.011 2437.77C254.988 2437.77 255.827 2438.02 256.531 2438.53C257.241 2439.04 257.773 2439.7 258.124 2440.51C258.484 2441.32 258.663 2442.19 258.663 2443.1C258.663 2444.01 258.491 2444.86 258.148 2445.64C257.804 2446.43 257.284 2447.07 256.589 2447.55C255.902 2448.04 255.073 2448.28 254.105 2448.28C252.784 2448.28 251.73 2447.79 250.941 2446.79V2452.73H248.82Z" fill="#F6EBC8"/>
<path d="M244.409 2440.01H239.897V2448H237.799V2438.1H246.495L246.506 2448H244.409V2440.01Z" fill="#F6EBC8"/>
<path d="M224.278 2438.07V2442.22H225.497C226.341 2442.22 227.048 2442.38 227.618 2442.68C228.188 2442.93 228.626 2443.28 228.93 2443.72C229.243 2444.16 229.399 2444.66 229.399 2445.21C229.399 2445.77 229.239 2446.27 228.919 2446.69C228.606 2447.1 228.157 2447.43 227.571 2447.66C226.993 2447.89 226.321 2448 225.555 2448H222.063V2438.07H224.278ZM224.278 2446.63H225.286C225.622 2446.63 226.016 2446.5 226.469 2446.25C226.907 2446 227.126 2445.65 227.126 2445.19C227.126 2444.19 226.512 2443.69 225.286 2443.69H224.278V2446.63Z" fill="#F6EBC8"/>
<path d="M212.332 2438.07H219.914L219.949 2439.84H217.219V2448H215.062V2439.84H212.297L212.332 2438.07Z" fill="#F6EBC8"/>
<path d="M207.909 2446.79C207.581 2447.27 207.14 2447.64 206.585 2447.91C206.031 2448.16 205.417 2448.29 204.745 2448.29C203.886 2448.29 203.105 2448.06 202.402 2447.6C201.706 2447.14 201.159 2446.51 200.761 2445.7C200.363 2444.89 200.163 2443.98 200.163 2442.98C200.163 2442.01 200.366 2441.12 200.773 2440.32C201.187 2439.53 201.753 2438.9 202.472 2438.45C203.198 2438 204.003 2437.77 204.886 2437.77C206.245 2437.77 207.253 2438.27 207.909 2439.28V2438.06H210.031V2448H207.909V2446.79ZM205.202 2439.64C204.593 2439.64 204.066 2439.8 203.62 2440.12C203.183 2440.45 202.851 2440.87 202.624 2441.4C202.406 2441.93 202.296 2442.49 202.296 2443.08C202.296 2443.66 202.406 2444.21 202.624 2444.73C202.851 2445.25 203.183 2445.68 203.62 2446.01C204.066 2446.33 204.593 2446.49 205.202 2446.49C205.804 2446.49 206.32 2446.33 206.749 2446.01C207.179 2445.68 207.503 2445.25 207.722 2444.72C207.948 2444.19 208.062 2443.62 208.062 2443.03C208.062 2442.45 207.956 2441.9 207.745 2441.38C207.519 2440.86 207.191 2440.45 206.761 2440.12C206.331 2439.8 205.812 2439.64 205.202 2439.64Z" fill="#F6EBC8"/>
<path d="M195.6 2440.04H192.295V2443.68C192.295 2444.3 192.229 2444.89 192.096 2445.46C191.956 2446.01 191.737 2446.51 191.44 2446.96C191.143 2447.4 190.756 2447.75 190.28 2448.01C189.803 2448.26 189.245 2448.39 188.604 2448.39C188.456 2448.39 188.311 2448.38 188.17 2448.36V2446.27C188.264 2446.28 188.362 2446.29 188.463 2446.29C189.034 2446.29 189.436 2446.1 189.67 2445.73C189.905 2445.34 190.022 2444.71 190.022 2443.82L190.01 2438.09H197.862V2448H195.6V2440.04Z" fill="#F6EBC8"/>
<path d="M186.525 2445.46C185.361 2447.41 183.767 2448.39 181.744 2448.39C181.002 2448.39 180.33 2448.27 179.728 2448.02C179.119 2447.77 178.595 2447.41 178.158 2446.95C177.728 2446.48 177.396 2445.92 177.162 2445.27C176.935 2444.61 176.822 2443.9 176.822 2443.12C176.822 2442.33 176.935 2441.59 177.162 2440.92C177.396 2440.24 177.724 2439.67 178.146 2439.2C178.576 2438.72 179.088 2438.36 179.681 2438.11C180.275 2437.85 180.931 2437.72 181.65 2437.72C182.455 2437.72 183.185 2437.89 183.842 2438.21C184.498 2438.54 185.041 2439 185.47 2439.6C185.814 2440.04 186.056 2440.54 186.197 2441.1C186.338 2441.65 186.431 2442.43 186.478 2443.42H178.99C179.013 2444.03 179.146 2444.57 179.388 2445.04C179.638 2445.5 179.97 2445.86 180.385 2446.11C180.806 2446.36 181.291 2446.49 181.838 2446.49C183.049 2446.49 184.041 2445.77 184.814 2444.34L186.525 2445.46ZM179.177 2441.79H184.228C184.103 2441.08 183.83 2440.54 183.408 2440.16C182.986 2439.79 182.447 2439.6 181.791 2439.6C180.361 2439.6 179.49 2440.33 179.177 2441.79Z" fill="#F6EBC8"/>
<path d="M165.977 2446.09H171.684V2439.75H168.368C168.204 2443.35 167.407 2445.46 165.977 2446.09ZM163.716 2446.14C165.145 2445.51 165.93 2442.82 166.071 2438.07H173.946V2446.14H175.094V2450.06H172.833V2448.12H164.805V2450.06H162.544V2446.14H163.716Z" fill="#F6EBC8"/>
<path d="M160.676 2447.5C159.527 2448.06 158.418 2448.34 157.348 2448.34C156.41 2448.34 155.566 2448.12 154.816 2447.67C154.066 2447.22 153.48 2446.6 153.059 2445.81C152.629 2445.01 152.414 2444.12 152.414 2443.12C152.414 2442.34 152.562 2441.61 152.859 2440.95C153.164 2440.28 153.57 2439.71 154.078 2439.23C154.594 2438.75 155.176 2438.38 155.824 2438.13C156.48 2437.88 157.156 2437.75 157.852 2437.75C158.883 2437.75 159.824 2438.01 160.676 2438.54V2441.04C159.871 2440.2 158.91 2439.79 157.793 2439.79C156.926 2439.79 156.184 2440.07 155.566 2440.63C154.957 2441.19 154.652 2441.98 154.652 2442.98C154.652 2443.66 154.773 2444.25 155.016 2444.75C155.258 2445.25 155.609 2445.64 156.07 2445.9C156.523 2446.16 157.059 2446.29 157.676 2446.29C158.723 2446.29 159.723 2445.85 160.676 2444.98V2447.5Z" fill="#F6EBC8"/>
<path d="M129.846 2448.06L133.338 2437.28L137.1 2444.45L141.436 2437.28L144.788 2448.06H142.491L140.545 2441.47L137.006 2448.41L134.042 2441.45L132.167 2448.06H129.846Z" fill="#F6EBC8"/>
<path d="M125.658 2448.06V2441.8L118.146 2448.41V2438.09H120.385V2444.31L127.896 2437.59V2448.06H125.658Z" fill="#F6EBC8"/>
<path d="M108.485 2438.07H116.067L116.102 2439.84H113.372V2448H111.216V2439.84H108.45L108.485 2438.07Z" fill="#F6EBC8"/>
<path d="M101.402 2437.72C102.426 2437.72 103.344 2437.95 104.156 2438.4C104.969 2438.86 105.602 2439.49 106.055 2440.31C106.508 2441.12 106.734 2442.05 106.734 2443.08C106.734 2444.09 106.508 2445 106.055 2445.81C105.602 2446.61 104.965 2447.24 104.145 2447.68C103.324 2448.12 102.395 2448.34 101.355 2448.34C100.34 2448.34 99.4336 2448.11 98.6367 2447.65C97.8398 2447.2 97.2188 2446.57 96.7734 2445.76C96.3359 2444.94 96.1172 2444.02 96.1172 2442.98C96.1172 2441.98 96.3398 2441.07 96.7852 2440.28C97.2305 2439.47 97.8555 2438.85 98.6602 2438.4C99.4648 2437.95 100.379 2437.72 101.402 2437.72ZM101.426 2439.64C100.77 2439.64 100.207 2439.81 99.7383 2440.14C99.2695 2440.46 98.918 2440.88 98.6836 2441.39C98.4492 2441.91 98.332 2442.46 98.332 2443.05C98.332 2443.64 98.4492 2444.19 98.6836 2444.71C98.918 2445.21 99.2695 2445.63 99.7383 2445.96C100.207 2446.28 100.77 2446.44 101.426 2446.44C102.074 2446.44 102.625 2446.28 103.078 2445.96C103.539 2445.64 103.883 2445.22 104.109 2444.7C104.344 2444.17 104.461 2443.62 104.461 2443.05C104.461 2442.47 104.344 2441.91 104.109 2441.39C103.883 2440.87 103.539 2440.45 103.078 2440.12C102.617 2439.8 102.066 2439.64 101.426 2439.64Z" fill="#F6EBC8"/>
<path d="M84.3586 2448L88.3196 2442.69L84.886 2438.06H87.3704L89.7727 2441.18L91.9993 2438.06H94.5422L91.0618 2442.69L94.9758 2448H92.5032L89.6672 2444.25L86.9016 2448H84.3586Z" fill="#F6EBC8"/>
<path d="M68.6111 2438.07V2442.22H69.8298C70.6736 2442.22 71.3806 2442.38 71.9509 2442.68C72.5212 2442.93 72.9587 2443.28 73.2634 2443.72C73.5759 2444.16 73.7322 2444.66 73.7322 2445.21C73.7322 2445.77 73.572 2446.27 73.2517 2446.69C72.9392 2447.1 72.49 2447.43 71.9041 2447.66C71.3259 2447.89 70.6541 2448 69.8884 2448H66.3962V2438.07H68.6111ZM68.6111 2446.63H69.6189C69.9548 2446.63 70.3494 2446.5 70.8025 2446.25C71.24 2446 71.4587 2445.65 71.4587 2445.19C71.4587 2444.19 70.8455 2443.69 69.6189 2443.69H68.6111V2446.63ZM74.2361 2448H76.3337L76.322 2438.06H74.2361V2448Z" fill="#F6EBC8"/>
<path d="M49.8679 2448.06L53.3601 2437.28L57.1218 2444.45L61.4578 2437.28L64.8093 2448.06H62.5125L60.5671 2441.47L57.0281 2448.41L54.0632 2441.45L52.1882 2448.06H49.8679Z" fill="#F6EBC8"/>
<path d="M340.359 2363.22H354.627V2347.38H346.336C345.926 2356.38 343.934 2361.66 340.359 2363.22ZM334.705 2363.34C338.279 2361.78 340.242 2355.06 340.594 2343.19H360.281V2363.34H363.152V2373.16H357.498V2368.29H337.43V2373.16H331.775V2363.34H334.705Z" fill="#F6EBC8"/>
<path d="M314.156 2342.31C316.715 2342.31 319.01 2342.87 321.041 2344.01C323.072 2345.14 324.654 2346.73 325.787 2348.78C326.92 2350.81 327.486 2353.12 327.486 2355.7C327.486 2358.23 326.92 2360.51 325.787 2362.52C324.654 2364.53 323.062 2366.1 321.012 2367.21C318.961 2368.3 316.637 2368.85 314.039 2368.85C311.5 2368.85 309.234 2368.27 307.242 2367.12C305.25 2366.01 303.697 2364.44 302.584 2362.4C301.49 2360.35 300.943 2358.04 300.943 2355.46C300.943 2352.94 301.5 2350.69 302.613 2348.69C303.727 2346.68 305.289 2345.12 307.301 2344.01C309.312 2342.87 311.598 2342.31 314.156 2342.31ZM314.215 2347.11C312.574 2347.11 311.168 2347.52 309.996 2348.34C308.824 2349.14 307.945 2350.19 307.359 2351.48C306.773 2352.77 306.48 2354.15 306.48 2355.64C306.48 2357.1 306.773 2358.48 307.359 2359.77C307.945 2361.04 308.824 2362.08 309.996 2362.9C311.168 2363.7 312.574 2364.1 314.215 2364.1C315.836 2364.1 317.213 2363.7 318.346 2362.9C319.498 2362.1 320.357 2361.05 320.924 2359.74C321.51 2358.43 321.803 2357.06 321.803 2355.64C321.803 2354.17 321.51 2352.79 320.924 2351.48C320.357 2350.17 319.498 2349.11 318.346 2348.31C317.193 2347.51 315.816 2347.11 314.215 2347.11Z" fill="#F6EBC8"/>
<path d="M281.244 2343.16V2352.21L289.857 2343.16H296.83L285.492 2354.2L297.797 2368H290.648L281.244 2356.66V2368H275.941V2343.16H281.244Z" fill="#F6EBC8"/>
<path d="M255.41 2366.74C252.539 2368.15 249.766 2368.85 247.09 2368.85C244.746 2368.85 242.637 2368.29 240.762 2367.18C238.887 2366.05 237.422 2364.49 236.367 2362.52C235.293 2360.53 234.756 2358.29 234.756 2355.81C234.756 2353.84 235.127 2352.02 235.869 2350.36C236.631 2348.7 237.646 2347.28 238.916 2346.09C240.205 2344.88 241.66 2343.96 243.281 2343.33C244.922 2342.69 246.611 2342.37 248.35 2342.37C250.928 2342.37 253.281 2343.03 255.41 2344.36V2350.6C253.398 2348.51 250.996 2347.46 248.203 2347.46C246.035 2347.46 244.18 2348.17 242.637 2349.57C241.113 2350.98 240.352 2352.94 240.352 2355.46C240.352 2357.16 240.654 2358.63 241.26 2359.88C241.865 2361.13 242.744 2362.09 243.896 2362.76C245.029 2363.4 246.367 2363.72 247.91 2363.72C250.527 2363.72 253.027 2362.63 255.41 2360.44V2366.74Z" fill="#F6EBC8"/>
<path d="M230.789 2366.74C227.918 2368.15 225.145 2368.85 222.469 2368.85C220.125 2368.85 218.016 2368.29 216.141 2367.18C214.266 2366.05 212.801 2364.49 211.746 2362.52C210.672 2360.53 210.135 2358.29 210.135 2355.81C210.135 2353.84 210.506 2352.02 211.248 2350.36C212.01 2348.7 213.025 2347.28 214.295 2346.09C215.584 2344.88 217.039 2343.96 218.66 2343.33C220.301 2342.69 221.99 2342.37 223.729 2342.37C226.307 2342.37 228.66 2343.03 230.789 2344.36V2350.6C228.777 2348.51 226.375 2347.46 223.582 2347.46C221.414 2347.46 219.559 2348.17 218.016 2349.57C216.492 2350.98 215.73 2352.94 215.73 2355.46C215.73 2357.16 216.033 2358.63 216.639 2359.88C217.244 2361.13 218.123 2362.09 219.275 2362.76C220.408 2363.4 221.746 2363.72 223.289 2363.72C225.906 2363.72 228.406 2362.63 230.789 2360.44V2366.74Z" fill="#F6EBC8"/>
<path d="M206.666 2361.64C203.756 2366.53 199.771 2368.97 194.713 2368.97C192.857 2368.97 191.178 2368.66 189.674 2368.06C188.15 2367.43 186.842 2366.54 185.748 2365.36C184.674 2364.19 183.844 2362.79 183.258 2361.17C182.691 2359.53 182.408 2357.75 182.408 2355.81C182.408 2353.82 182.691 2351.98 183.258 2350.3C183.844 2348.61 184.664 2347.17 185.719 2346C186.793 2344.81 188.072 2343.9 189.557 2343.27C191.041 2342.63 192.682 2342.31 194.479 2342.31C196.49 2342.31 198.316 2342.72 199.957 2343.54C201.598 2344.34 202.955 2345.49 204.029 2346.99C204.889 2348.11 205.494 2349.36 205.846 2350.74C206.197 2352.13 206.432 2354.06 206.549 2356.54H187.828C187.887 2358.07 188.219 2359.42 188.824 2360.59C189.449 2361.76 190.279 2362.66 191.314 2363.28C192.369 2363.91 193.58 2364.22 194.947 2364.22C197.975 2364.22 200.455 2362.43 202.389 2358.86L206.666 2361.64ZM188.297 2352.47H200.924C200.611 2350.7 199.928 2349.34 198.873 2348.4C197.818 2347.46 196.471 2346.99 194.83 2346.99C191.256 2346.99 189.078 2348.82 188.297 2352.47Z" fill="#F6EBC8"/>
<path d="M166.137 2347.11C163.852 2347.11 162.064 2347.97 160.775 2349.69C159.486 2351.39 158.842 2353.39 158.842 2355.7C158.842 2357.16 159.115 2358.55 159.662 2359.86C160.209 2361.16 161.02 2362.22 162.094 2363.02C163.168 2363.82 164.457 2364.22 165.961 2364.22C167.523 2364.22 168.852 2363.81 169.945 2362.99C171.059 2362.17 171.889 2361.1 172.436 2359.77C172.982 2358.42 173.256 2357 173.256 2355.52C173.256 2354.09 172.982 2352.74 172.436 2351.45C171.908 2350.14 171.107 2349.09 170.033 2348.31C168.959 2347.51 167.66 2347.11 166.137 2347.11ZM153.891 2379.84V2343.13L159.193 2343.16V2346.2C161.01 2343.68 163.568 2342.42 166.869 2342.42C169.311 2342.42 171.41 2343.06 173.168 2344.33C174.945 2345.6 176.273 2347.25 177.152 2349.28C178.051 2351.31 178.5 2353.47 178.5 2355.75C178.5 2358.02 178.07 2360.14 177.211 2362.11C176.352 2364.08 175.053 2365.68 173.314 2366.89C171.596 2368.1 169.525 2368.7 167.104 2368.7C163.803 2368.7 161.166 2367.46 159.193 2364.98V2379.84H153.891Z" fill="#F6EBC8"/>
<path d="M125.52 2363.22H139.787V2347.38H131.496C131.086 2356.38 129.094 2361.66 125.52 2363.22ZM119.865 2363.34C123.439 2361.78 125.402 2355.06 125.754 2343.19H145.441V2363.34H148.312V2373.16H142.658V2368.29H122.59V2373.16H116.936V2363.34H119.865Z" fill="#F6EBC8"/>
<path d="M311.322 221V210.307L300.775 221H293.891L306.078 210.072C305.238 210.033 304.154 209.848 302.826 209.516C301.498 209.184 300.365 208.715 299.428 208.109C298.49 207.484 297.768 206.752 297.26 205.912C296.771 205.053 296.527 204.096 296.527 203.041C296.527 200.834 297.641 199.145 299.867 197.973C302.113 196.781 304.975 196.186 308.451 196.186H316.918V221H311.322ZM311.322 199.496H309.594C306.977 199.496 305.072 199.818 303.881 200.463C302.709 201.107 302.123 202.064 302.123 203.334C302.123 204.525 302.738 205.512 303.969 206.293C305.219 207.055 306.977 207.436 309.242 207.436H311.322V199.496Z" fill="#F6EBC8"/>
<path d="M253.742 221.146L262.473 194.193L271.877 212.123L282.717 194.193L291.096 221.146H285.354L280.49 204.682L271.643 222.025L264.23 204.623L259.543 221.146H253.742Z" fill="#F6EBC8"/>
<path d="M250.771 214.643C247.861 219.525 243.877 221.967 238.818 221.967C236.963 221.967 235.283 221.664 233.779 221.059C232.256 220.434 230.947 219.535 229.854 218.363C228.779 217.191 227.949 215.795 227.363 214.174C226.797 212.533 226.514 210.746 226.514 208.812C226.514 206.82 226.797 204.984 227.363 203.305C227.949 201.605 228.77 200.17 229.824 198.998C230.898 197.807 232.178 196.898 233.662 196.273C235.146 195.629 236.787 195.307 238.584 195.307C240.596 195.307 242.422 195.717 244.062 196.537C245.703 197.338 247.061 198.49 248.135 199.994C248.994 201.107 249.6 202.357 249.951 203.744C250.303 205.131 250.537 207.064 250.654 209.545H231.934C231.992 211.068 232.324 212.416 232.93 213.588C233.555 214.76 234.385 215.658 235.42 216.283C236.475 216.908 237.686 217.221 239.053 217.221C242.08 217.221 244.561 215.434 246.494 211.859L250.771 214.643ZM232.402 205.473H245.029C244.717 203.695 244.033 202.338 242.979 201.4C241.924 200.463 240.576 199.994 238.936 199.994C235.361 199.994 233.184 201.82 232.402 205.473Z" fill="#F6EBC8"/>
<path d="M210.242 200.111C207.957 200.111 206.17 200.971 204.881 202.689C203.592 204.389 202.947 206.391 202.947 208.695C202.947 210.16 203.221 211.547 203.768 212.855C204.314 214.164 205.125 215.219 206.199 216.02C207.273 216.82 208.562 217.221 210.066 217.221C211.629 217.221 212.957 216.811 214.051 215.99C215.164 215.17 215.994 214.096 216.541 212.768C217.088 211.42 217.361 210.004 217.361 208.52C217.361 207.094 217.088 205.736 216.541 204.447C216.014 203.139 215.213 202.094 214.139 201.312C213.064 200.512 211.766 200.111 210.242 200.111ZM197.996 232.836V196.127L203.299 196.156V199.203C205.115 196.684 207.674 195.424 210.975 195.424C213.416 195.424 215.516 196.059 217.273 197.328C219.051 198.598 220.379 200.248 221.258 202.279C222.156 204.311 222.605 206.469 222.605 208.754C222.605 211.02 222.176 213.139 221.316 215.111C220.457 217.084 219.158 218.676 217.42 219.887C215.701 221.098 213.631 221.703 211.209 221.703C207.908 221.703 205.271 220.463 203.299 217.982V232.836H197.996Z" fill="#F6EBC8"/>
<path d="M173.141 221V196.186H181.871C184.469 196.186 186.5 196.742 187.965 197.855C189.43 198.969 190.162 200.492 190.162 202.426C190.162 203.773 189.732 204.926 188.873 205.883C188.033 206.82 186.891 207.406 185.445 207.641C187.672 207.777 189.42 208.471 190.689 209.721C191.959 210.971 192.594 212.426 192.594 214.086C192.594 214.848 192.447 215.59 192.154 216.312C191.881 217.035 191.441 217.719 190.836 218.363C190.23 218.988 189.518 219.496 188.697 219.887C187.232 220.629 185.133 221 182.398 221H173.141ZM178.15 217.836H181.988C185.445 218.031 187.174 216.713 187.174 213.881C187.174 211.029 185.377 209.604 181.783 209.604H178.15V217.836ZM178.15 205.912H180.494C181.939 205.912 183.082 205.609 183.922 205.004C184.723 204.418 185.123 203.598 185.123 202.543C185.123 201.645 184.703 200.902 183.863 200.316C183.023 199.73 182.027 199.438 180.875 199.438H178.15V205.912Z" fill="#F6EBC8"/>
<mask id="mask0_68_2" style="mask-type:alpha" maskUnits="userSpaceOnUse" x="346" y="416" width="134" height="108">
<rect x="346" y="416" width="134" height="108" fill="#D9D9D9"/>
</mask>
<g mask="url(#mask0_68_2)">
<path d="M361.195 472.227L361.199 472.224C378.411 455.297 405.502 444.959 437.256 439.647C468.982 434.339 505.233 434.071 540.623 437.172C575.25 440.836 597.737 447.092 609.433 454.35C615.285 457.981 618.252 461.748 618.888 465.397C619.515 469 617.922 472.84 613.808 476.778C607.026 483.272 596.926 489.042 584.672 493.999C572.43 498.952 558.099 503.068 542.908 506.282C512.522 512.712 478.779 515.518 451.581 514.232C414.997 512.285 385.453 508.115 368.544 501.123C360.047 497.609 355.052 493.508 353.674 488.911C352.324 484.405 354.328 478.911 361.195 472.227Z" stroke="#FF9EA7" stroke-width="2"/>
</g>
<mask id="mask1_68_2" style="mask-type:alpha" maskUnits="userSpaceOnUse" x="0" y="723" width="64" height="108">
<rect y="723" width="64" height="108" fill="#D9D9D9"/>
</mask>
<g mask="url(#mask1_68_2)">
<path d="M-194.145 829.343L-194.144 829.338C-183.173 802.715 -160.539 781.879 -131.81 766.218C-103.088 750.56 -68.3512 740.117 -33.318 734.245C1.13454 729.315 25.4435 732.035 39.7275 739.033C46.8548 742.524 51.4183 747.045 53.5726 752.146C55.7212 757.234 55.534 763.041 52.8852 769.246C44.1046 789.815 20.9645 809.253 -6.82002 825.071C-34.5589 840.862 -66.7279 852.932 -93.2957 858.857C-129.11 866.549 -158.851 869.409 -177.376 865.137C-186.626 863.003 -192.873 859.14 -195.811 853.427C-198.749 847.714 -198.534 839.849 -194.145 829.343Z" stroke="#FF9EA7" stroke-width="2"/>
</g>
<mask id="mask2_68_2" style="mask-type:alpha" maskUnits="userSpaceOnUse" x="374" y="1092" width="106" height="217">
<rect x="374" y="1092" width="106" height="217" fill="#D9D9D9"/>
</mask>
<g mask="url(#mask2_68_2)">
<path d="M400.179 1213.93L400.18 1213.93C405.2 1175.31 420.772 1147.43 442.02 1128.33C463.274 1109.23 490.272 1098.85 518.231 1095.38C545.783 1093.24 566.178 1100.99 579.049 1113.71C591.927 1126.44 597.375 1144.23 594.855 1162.4C590.719 1192.21 574.523 1217.92 554.063 1237.41C533.6 1256.91 508.941 1270.11 488.004 1274.94C459.628 1281.03 435.648 1280.76 419.815 1271.57C404.128 1262.46 396.12 1244.38 400.179 1213.93Z" stroke="#FF9EA7" stroke-width="2"/>
</g>
<mask id="mask3_68_2" style="mask-type:alpha" maskUnits="userSpaceOnUse" x="341" y="2485" width="139" height="121">
<rect x="341" y="2485" width="139" height="121" fill="#5A6B47"/>
</mask>
<g mask="url(#mask3_68_2)">
<path d="M689.478 2585.49C687.453 2577.99 679.792 2570.33 667.584 2562.85C655.427 2555.4 638.962 2548.25 619.679 2541.66C581.119 2528.47 531.434 2517.6 482.766 2511.12C434.048 2504.64 393.923 2502.16 369.664 2505.65C363.608 2506.52 358.589 2507.76 354.692 2509.38C350.786 2511 348.097 2512.96 346.576 2515.23C345.08 2517.46 344.63 2520.11 345.445 2523.31C346.269 2526.55 348.382 2530.32 351.996 2534.67C359.201 2543.34 370.887 2551.84 385.958 2559.92C401.016 2568 419.392 2575.62 439.917 2582.55C480.967 2596.42 530.544 2607.52 579.206 2613.99C603.539 2617.23 623.117 2618.77 638.673 2618.81C654.241 2618.86 665.719 2617.41 673.885 2614.71C682.035 2612.02 686.777 2608.13 689.085 2603.33C691.409 2598.5 691.376 2592.53 689.478 2585.49Z" stroke="#FF9EA7" stroke-width="2"/>
</g>
<mask id="mask4_68_2" style="mask-type:alpha" maskUnits="userSpaceOnUse" x="0" y="2261" width="134" height="137">
<rect y="2261" width="134" height="137" fill="#D9D9D9"/>
</mask>
<g mask="url(#mask4_68_2)">
<path d="M99.917 2321.47C95.4165 2311.83 84.5107 2303.46 68.6451 2296.47C52.8164 2289.49 32.2279 2283.96 8.63507 2279.86C-38.5444 2271.66 -97.5777 2269.24 -154.198 2272.43C-210.877 2275.64 -256.738 2282.07 -283.029 2292.62C-296.226 2297.92 -304.164 2304.12 -306.36 2311.17C-308.522 2318.1 -305.253 2326.39 -294.559 2336.28C-273.26 2355.98 -232.041 2370.25 -181.802 2378.77C-131.622 2387.28 -72.6478 2390.02 -16.0346 2386.83C12.2754 2385.23 34.745 2382.52 52.26 2378.8C69.7859 2375.08 82.2877 2370.36 90.7088 2364.77C99.1042 2359.2 103.405 2352.8 104.651 2345.67C105.904 2338.5 104.096 2330.43 99.917 2321.47Z" stroke="#FF9EA7" stroke-width="2"/>
</g>
<mask id="mask5_68_2" style="mask-type:alpha" maskUnits="userSpaceOnUse" x="300" y="1794" width="180" height="166">
<rect x="300" y="1794" width="180" height="166" fill="#D9D9D9"/>
</mask>
<g mask="url(#mask5_68_2)">
<path d="M341.814 1908.82L341.815 1908.81C352.786 1882.19 375.42 1861.35 404.149 1845.69C432.871 1830.03 467.608 1819.59 502.641 1813.72C537.094 1808.79 561.403 1811.51 575.686 1818.51C582.814 1822 587.377 1826.52 589.532 1831.62C591.68 1836.71 591.493 1842.52 588.844 1848.72C580.064 1869.29 556.923 1888.73 529.139 1904.55C501.4 1920.34 469.231 1932.41 442.663 1938.33C406.849 1946.02 377.108 1948.88 358.583 1944.61C349.333 1942.48 343.086 1938.61 340.148 1932.9C337.21 1927.19 337.425 1919.32 341.814 1908.82Z" stroke="#FF9EA7" stroke-width="2"/>
</g>
<path d="M323 1924.92C330.105 1923.88 332.352 1921.65 332.984 1915C333.684 1921.03 335.455 1922.98 341.42 1923.49C334.893 1924.27 332.843 1926.54 331.436 1933.41C331.662 1925.99 329.765 1924.18 323 1924.92Z" fill="#FF9EA7"/>
<path d="M356 454.919C363.105 453.877 365.352 451.647 365.984 445C366.684 451.028 368.455 452.975 374.42 453.491C367.893 454.266 365.843 456.543 364.436 463.41C364.662 455.991 362.765 454.177 356 454.919Z" fill="#FF9EA7"/>
<path d="M379 1274.92C386.105 1273.88 388.352 1271.65 388.984 1265C389.684 1271.03 391.455 1272.98 397.42 1273.49C390.893 1274.27 388.843 1276.54 387.436 1283.41C387.662 1275.99 385.765 1274.18 379 1274.92Z" fill="#FF9EA7"/>
<path d="M58.3036 787.568C58.633 787.137 58.9228 786.663 59.1476 786.18C59.3499 786.651 59.6002 787.117 59.8789 787.54C60.2499 788.102 60.6915 788.621 61.1754 788.996C61.231 789.039 61.2879 789.08 61.3459 789.12C60.6323 789.541 60.0187 790.147 59.5442 790.795C59.3136 791.109 59.108 791.444 58.9358 791.786C58.7158 791.345 58.4336 790.926 58.1196 790.556C57.6742 790.031 57.1181 789.55 56.5083 789.227C57.1998 788.806 57.815 788.207 58.3036 787.568Z" stroke="#FF9EA7"/>
<path d="M66 2285.92C73.1055 2284.88 75.3517 2282.65 75.9844 2276C76.6845 2282.03 78.4546 2283.98 84.4202 2284.49C77.8929 2285.27 75.8433 2287.54 74.4358 2294.41C74.6622 2286.99 72.7647 2285.18 66 2285.92Z" fill="#FF9EA7"/>
</svg>
