<svg width="480" height="1337" viewBox="0 0 480 1337" fill="none" xmlns="http://www.w3.org/2000/svg">
<rect width="480" height="1337" fill="#5A6B47"/>
<path d="M49.6395 153.615C49.9789 154.5 50.4469 155.402 50.9852 156.207C51.5448 157.044 52.2005 157.808 52.9048 158.358C53.1017 158.512 53.3077 158.65 53.5187 158.771C52.3414 159.36 51.331 160.317 50.5692 161.368C50.1318 161.971 49.764 162.624 49.4871 163.279C49.1418 162.469 48.6369 161.671 48.0342 160.964C47.2548 160.05 46.2707 159.243 45.2205 158.779C46.3768 158.189 47.4109 157.23 48.2128 156.17C48.8113 155.378 49.3078 154.494 49.6395 153.615Z" stroke="#F6EBC8"/>
<path d="M96.3094 1240.01H91.7977V1248H89.7V1238.1H98.3953L98.407 1248H96.3094V1240.01ZM105.619 1239.64C104.705 1239.64 103.99 1239.99 103.474 1240.68C102.959 1241.36 102.701 1242.16 102.701 1243.08C102.701 1243.66 102.81 1244.22 103.029 1244.74C103.248 1245.27 103.572 1245.69 104.002 1246.01C104.431 1246.33 104.947 1246.49 105.548 1246.49C106.173 1246.49 106.705 1246.32 107.142 1246C107.587 1245.67 107.92 1245.24 108.138 1244.71C108.357 1244.17 108.466 1243.6 108.466 1243.01C108.466 1242.44 108.357 1241.89 108.138 1241.38C107.927 1240.86 107.607 1240.44 107.177 1240.12C106.748 1239.8 106.228 1239.64 105.619 1239.64ZM100.72 1252.73V1238.05L102.841 1238.06V1239.28C103.568 1238.27 104.591 1237.77 105.912 1237.77C106.888 1237.77 107.728 1238.02 108.431 1238.53C109.142 1239.04 109.673 1239.7 110.025 1240.51C110.384 1241.32 110.564 1242.19 110.564 1243.1C110.564 1244.01 110.392 1244.86 110.048 1245.64C109.705 1246.43 109.185 1247.07 108.49 1247.55C107.802 1248.04 106.974 1248.28 106.005 1248.28C104.685 1248.28 103.63 1247.79 102.841 1246.79V1252.73H100.72ZM120.026 1248.06V1241.8L112.514 1248.41V1238.09H114.752V1244.31L122.264 1237.59V1248.06H120.026ZM137.578 1240.01H133.066V1248H130.969V1238.1H139.664L139.676 1248H137.578V1240.01ZM146.817 1237.72C147.841 1237.72 148.759 1237.95 149.571 1238.4C150.384 1238.86 151.016 1239.49 151.47 1240.31C151.923 1241.12 152.149 1242.05 152.149 1243.08C152.149 1244.09 151.923 1245 151.47 1245.81C151.016 1246.61 150.38 1247.24 149.559 1247.68C148.739 1248.12 147.809 1248.34 146.77 1248.34C145.755 1248.34 144.848 1248.11 144.052 1247.65C143.255 1247.2 142.634 1246.57 142.188 1245.76C141.751 1244.94 141.532 1244.02 141.532 1242.98C141.532 1241.98 141.755 1241.07 142.2 1240.28C142.645 1239.47 143.27 1238.85 144.075 1238.4C144.88 1237.95 145.794 1237.72 146.817 1237.72ZM146.841 1239.64C146.184 1239.64 145.622 1239.81 145.153 1240.14C144.684 1240.46 144.333 1240.88 144.098 1241.39C143.864 1241.91 143.747 1242.46 143.747 1243.05C143.747 1243.64 143.864 1244.19 144.098 1244.71C144.333 1245.21 144.684 1245.63 145.153 1245.96C145.622 1246.28 146.184 1246.44 146.841 1246.44C147.489 1246.44 148.04 1246.28 148.493 1245.96C148.954 1245.64 149.298 1245.22 149.524 1244.7C149.759 1244.17 149.876 1243.62 149.876 1243.05C149.876 1242.47 149.759 1241.91 149.524 1241.39C149.298 1240.87 148.954 1240.45 148.493 1240.12C148.032 1239.8 147.481 1239.64 146.841 1239.64ZM157.298 1246.09H163.005V1239.75H159.689C159.525 1243.35 158.728 1245.46 157.298 1246.09ZM155.037 1246.14C156.466 1245.51 157.252 1242.82 157.392 1238.07H165.267V1246.14H166.416V1250.06H164.154V1248.12H156.127V1250.06H153.865V1246.14H155.037ZM174.694 1239.83H170.663L170.674 1248H168.577V1238.06H174.659L174.694 1239.83ZM181.87 1237.72C182.894 1237.72 183.812 1237.95 184.624 1238.4C185.437 1238.86 186.07 1239.49 186.523 1240.31C186.976 1241.12 187.202 1242.05 187.202 1243.08C187.202 1244.09 186.976 1245 186.523 1245.81C186.07 1246.61 185.433 1247.24 184.612 1247.68C183.792 1248.12 182.862 1248.34 181.823 1248.34C180.808 1248.34 179.902 1248.11 179.105 1247.65C178.308 1247.2 177.687 1246.57 177.241 1245.76C176.804 1244.94 176.585 1244.02 176.585 1242.98C176.585 1241.98 176.808 1241.07 177.253 1240.28C177.698 1239.47 178.323 1238.85 179.128 1238.4C179.933 1237.95 180.847 1237.72 181.87 1237.72ZM181.894 1239.64C181.237 1239.64 180.675 1239.81 180.206 1240.14C179.737 1240.46 179.386 1240.88 179.152 1241.39C178.917 1241.91 178.8 1242.46 178.8 1243.05C178.8 1243.64 178.917 1244.19 179.152 1244.71C179.386 1245.21 179.737 1245.63 180.206 1245.96C180.675 1246.28 181.237 1246.44 181.894 1246.44C182.542 1246.44 183.093 1246.28 183.546 1245.96C184.007 1245.64 184.351 1245.22 184.577 1244.7C184.812 1244.17 184.929 1243.62 184.929 1243.05C184.929 1242.47 184.812 1241.91 184.577 1241.39C184.351 1240.87 184.007 1240.45 183.546 1240.12C183.085 1239.8 182.534 1239.64 181.894 1239.64ZM188.953 1238.07H196.535L196.57 1239.84H193.84V1248H191.684V1239.84H188.918L188.953 1238.07ZM203.559 1237.72C204.583 1237.72 205.501 1237.95 206.313 1238.4C207.126 1238.86 207.759 1239.49 208.212 1240.31C208.665 1241.12 208.891 1242.05 208.891 1243.08C208.891 1244.09 208.665 1245 208.212 1245.81C207.759 1246.61 207.122 1247.24 206.302 1247.68C205.481 1248.12 204.552 1248.34 203.512 1248.34C202.497 1248.34 201.591 1248.11 200.794 1247.65C199.997 1247.2 199.376 1246.57 198.93 1245.76C198.493 1244.94 198.274 1244.02 198.274 1242.98C198.274 1241.98 198.497 1241.07 198.942 1240.28C199.387 1239.47 200.012 1238.85 200.817 1238.4C201.622 1237.95 202.536 1237.72 203.559 1237.72ZM203.583 1239.64C202.927 1239.64 202.364 1239.81 201.895 1240.14C201.427 1240.46 201.075 1240.88 200.841 1241.39C200.606 1241.91 200.489 1242.46 200.489 1243.05C200.489 1243.64 200.606 1244.19 200.841 1244.71C201.075 1245.21 201.427 1245.63 201.895 1245.96C202.364 1246.28 202.927 1246.44 203.583 1246.44C204.231 1246.44 204.782 1246.28 205.235 1245.96C205.696 1245.64 206.04 1245.22 206.266 1244.7C206.501 1244.17 206.618 1243.62 206.618 1243.05C206.618 1242.47 206.501 1241.91 206.266 1241.39C206.04 1240.87 205.696 1240.45 205.235 1240.12C204.774 1239.8 204.223 1239.64 203.583 1239.64ZM210.478 1248V1238.07H213.97C215.009 1238.07 215.822 1238.3 216.408 1238.74C216.994 1239.19 217.287 1239.8 217.287 1240.57C217.287 1241.11 217.115 1241.57 216.771 1241.95C216.435 1242.33 215.978 1242.56 215.4 1242.66C216.291 1242.71 216.99 1242.99 217.498 1243.49C218.005 1243.99 218.259 1244.57 218.259 1245.23C218.259 1245.54 218.201 1245.84 218.084 1246.12C217.974 1246.41 217.798 1246.69 217.556 1246.95C217.314 1247.2 217.029 1247.4 216.701 1247.55C216.115 1247.85 215.275 1248 214.181 1248H210.478ZM212.482 1246.73H214.017C215.4 1246.81 216.091 1246.29 216.091 1245.15C216.091 1244.01 215.373 1243.44 213.935 1243.44H212.482V1246.73ZM212.482 1241.96H213.42C213.998 1241.96 214.455 1241.84 214.791 1241.6C215.111 1241.37 215.271 1241.04 215.271 1240.62C215.271 1240.26 215.103 1239.96 214.767 1239.73C214.431 1239.49 214.033 1239.38 213.572 1239.38H212.482V1241.96ZM222.541 1238.06V1241.68L225.987 1238.06H228.776L224.241 1242.48L229.162 1248H226.303L222.541 1243.46V1248H220.42V1238.06H222.541ZM240.077 1245.46C238.913 1247.41 237.32 1248.39 235.296 1248.39C234.554 1248.39 233.882 1248.27 233.28 1248.02C232.671 1247.77 232.148 1247.41 231.71 1246.95C231.28 1246.48 230.948 1245.92 230.714 1245.27C230.488 1244.61 230.374 1243.9 230.374 1243.12C230.374 1242.33 230.488 1241.59 230.714 1240.92C230.948 1240.24 231.277 1239.67 231.698 1239.2C232.128 1238.72 232.64 1238.36 233.234 1238.11C233.827 1237.85 234.484 1237.72 235.202 1237.72C236.007 1237.72 236.738 1237.89 237.394 1238.21C238.05 1238.54 238.593 1239 239.023 1239.6C239.366 1240.04 239.609 1240.54 239.749 1241.1C239.89 1241.65 239.984 1242.43 240.03 1243.42H232.542C232.566 1244.03 232.698 1244.57 232.941 1245.04C233.191 1245.5 233.523 1245.86 233.937 1246.11C234.359 1246.36 234.843 1246.49 235.39 1246.49C236.601 1246.49 237.593 1245.77 238.366 1244.34L240.077 1245.46ZM232.73 1241.79H237.78C237.655 1241.08 237.382 1240.54 236.96 1240.16C236.538 1239.79 235.999 1239.6 235.343 1239.6C233.913 1239.6 233.042 1240.33 232.73 1241.79ZM254.63 1240.01H250.118V1248H248.02V1238.1H256.716L256.727 1248H254.63V1240.01ZM263.869 1237.72C264.892 1237.72 265.81 1237.95 266.623 1238.4C267.435 1238.86 268.068 1239.49 268.521 1240.31C268.974 1241.12 269.201 1242.05 269.201 1243.08C269.201 1244.09 268.974 1245 268.521 1245.81C268.068 1246.61 267.431 1247.24 266.611 1247.68C265.791 1248.12 264.861 1248.34 263.822 1248.34C262.806 1248.34 261.9 1248.11 261.103 1247.65C260.306 1247.2 259.685 1246.57 259.24 1245.76C258.802 1244.94 258.584 1244.02 258.584 1242.98C258.584 1241.98 258.806 1241.07 259.252 1240.28C259.697 1239.47 260.322 1238.85 261.127 1238.4C261.931 1237.95 262.845 1237.72 263.869 1237.72ZM263.892 1239.64C263.236 1239.64 262.673 1239.81 262.205 1240.14C261.736 1240.46 261.384 1240.88 261.15 1241.39C260.916 1241.91 260.798 1242.46 260.798 1243.05C260.798 1243.64 260.916 1244.19 261.15 1244.71C261.384 1245.21 261.736 1245.63 262.205 1245.96C262.673 1246.28 263.236 1246.44 263.892 1246.44C264.541 1246.44 265.091 1246.28 265.545 1245.96C266.005 1245.64 266.349 1245.22 266.576 1244.7C266.81 1244.17 266.927 1243.62 266.927 1243.05C266.927 1242.47 266.81 1241.91 266.576 1241.39C266.349 1240.87 266.005 1240.45 265.545 1240.12C265.084 1239.8 264.533 1239.64 263.892 1239.64ZM272.768 1242.35H274.537C276.084 1242.22 276.858 1241.71 276.858 1240.82C276.858 1240.36 276.651 1240 276.237 1239.74C275.83 1239.47 275.284 1239.34 274.596 1239.34C273.495 1239.31 272.256 1239.37 270.881 1239.53V1238.34C272.514 1238.06 273.752 1237.94 274.596 1237.98C275.44 1238.01 276.178 1238.14 276.811 1238.36C277.444 1238.57 277.928 1238.89 278.264 1239.3C278.608 1239.71 278.78 1240.19 278.78 1240.73C278.78 1241.33 278.6 1241.8 278.241 1242.14C277.881 1242.48 277.311 1242.73 276.53 1242.87C278.334 1243.08 279.237 1243.89 279.237 1245.29C279.237 1245.91 279.01 1246.45 278.557 1246.9C278.104 1247.36 277.51 1247.71 276.776 1247.96C276.041 1248.21 275.268 1248.34 274.455 1248.35C273.643 1248.38 272.85 1248.32 272.077 1248.18C271.311 1248.04 270.862 1247.97 270.729 1247.96V1246.68C272.565 1246.93 273.854 1247.06 274.596 1247.06C275.393 1247.06 276.037 1246.91 276.53 1246.59C277.022 1246.28 277.268 1245.86 277.268 1245.33C277.268 1244.27 276.397 1243.68 274.655 1243.54H272.768V1242.35ZM284.644 1246.09H290.351V1239.75H287.034C286.87 1243.35 286.073 1245.46 284.644 1246.09ZM282.382 1246.14C283.812 1245.51 284.597 1242.82 284.738 1238.07H292.613V1246.14H293.761V1250.06H291.499V1248.12H283.472V1250.06H281.21V1246.14H282.382ZM300.891 1239.64C299.977 1239.64 299.262 1239.99 298.746 1240.68C298.23 1241.36 297.973 1242.16 297.973 1243.08C297.973 1243.66 298.082 1244.22 298.301 1244.74C298.52 1245.27 298.844 1245.69 299.273 1246.01C299.703 1246.33 300.219 1246.49 300.82 1246.49C301.445 1246.49 301.977 1246.32 302.414 1246C302.859 1245.67 303.191 1245.24 303.41 1244.71C303.629 1244.17 303.738 1243.6 303.738 1243.01C303.738 1242.44 303.629 1241.89 303.41 1241.38C303.199 1240.86 302.879 1240.44 302.449 1240.12C302.02 1239.8 301.5 1239.64 300.891 1239.64ZM295.992 1252.73V1238.05L298.113 1238.06V1239.28C298.84 1238.27 299.863 1237.77 301.184 1237.77C302.16 1237.77 303 1238.02 303.703 1238.53C304.414 1239.04 304.945 1239.7 305.297 1240.51C305.656 1241.32 305.836 1242.19 305.836 1243.1C305.836 1244.01 305.664 1244.86 305.32 1245.64C304.977 1246.43 304.457 1247.07 303.762 1247.55C303.074 1248.04 302.246 1248.28 301.277 1248.28C299.957 1248.28 298.902 1247.79 298.113 1246.79V1252.73H295.992ZM315.391 1246.79C315.063 1247.27 314.622 1247.64 314.067 1247.91C313.513 1248.16 312.899 1248.29 312.227 1248.29C311.368 1248.29 310.587 1248.06 309.884 1247.6C309.188 1247.14 308.641 1246.51 308.243 1245.7C307.845 1244.89 307.645 1243.98 307.645 1242.98C307.645 1242.01 307.848 1241.12 308.255 1240.32C308.669 1239.53 309.235 1238.9 309.954 1238.45C310.68 1238 311.485 1237.77 312.368 1237.77C313.727 1237.77 314.735 1238.27 315.391 1239.28V1238.06H317.513V1248H315.391V1246.79ZM312.684 1239.64C312.075 1239.64 311.548 1239.8 311.102 1240.12C310.665 1240.45 310.333 1240.87 310.106 1241.4C309.888 1241.93 309.778 1242.49 309.778 1243.08C309.778 1243.66 309.888 1244.21 310.106 1244.73C310.333 1245.25 310.665 1245.68 311.102 1246.01C311.548 1246.33 312.075 1246.49 312.684 1246.49C313.286 1246.49 313.802 1246.33 314.231 1246.01C314.661 1245.68 314.985 1245.25 315.204 1244.72C315.43 1244.19 315.544 1243.62 315.544 1243.03C315.544 1242.45 315.438 1241.9 315.227 1241.38C315.001 1240.86 314.673 1240.45 314.243 1240.12C313.813 1239.8 313.294 1239.64 312.684 1239.64ZM319.65 1248V1238.07H323.142C324.181 1238.07 324.994 1238.3 325.58 1238.74C326.166 1239.19 326.459 1239.8 326.459 1240.57C326.459 1241.11 326.287 1241.57 325.943 1241.95C325.607 1242.33 325.15 1242.56 324.572 1242.66C325.462 1242.71 326.162 1242.99 326.67 1243.49C327.177 1243.99 327.431 1244.57 327.431 1245.23C327.431 1245.54 327.373 1245.84 327.255 1246.12C327.146 1246.41 326.97 1246.69 326.728 1246.95C326.486 1247.2 326.201 1247.4 325.873 1247.55C325.287 1247.85 324.447 1248 323.353 1248H319.65ZM321.654 1246.73H323.189C324.572 1246.81 325.263 1246.29 325.263 1245.15C325.263 1244.01 324.545 1243.44 323.107 1243.44H321.654V1246.73ZM321.654 1241.96H322.591C323.17 1241.96 323.627 1241.84 323.962 1241.6C324.283 1241.37 324.443 1241.04 324.443 1240.62C324.443 1240.26 324.275 1239.96 323.939 1239.73C323.603 1239.49 323.205 1239.38 322.744 1239.38H321.654V1241.96ZM336.963 1240.04H333.659V1243.68C333.659 1244.3 333.592 1244.89 333.459 1245.46C333.319 1246.01 333.1 1246.51 332.803 1246.96C332.506 1247.4 332.12 1247.75 331.643 1248.01C331.166 1248.26 330.608 1248.39 329.967 1248.39C329.819 1248.39 329.674 1248.38 329.534 1248.36V1246.27C329.627 1246.28 329.725 1246.29 329.827 1246.29C330.397 1246.29 330.799 1246.1 331.034 1245.73C331.268 1245.34 331.385 1244.71 331.385 1243.82L331.373 1238.09H339.225V1248H336.963V1240.04ZM350.984 1245.46C349.82 1247.41 348.226 1248.39 346.202 1248.39C345.46 1248.39 344.788 1248.27 344.187 1248.02C343.577 1247.77 343.054 1247.41 342.616 1246.95C342.187 1246.48 341.855 1245.92 341.62 1245.27C341.394 1244.61 341.28 1243.9 341.28 1243.12C341.28 1242.33 341.394 1241.59 341.62 1240.92C341.855 1240.24 342.183 1239.67 342.605 1239.2C343.034 1238.72 343.546 1238.36 344.14 1238.11C344.734 1237.85 345.39 1237.72 346.109 1237.72C346.913 1237.72 347.644 1237.89 348.3 1238.21C348.956 1238.54 349.499 1239 349.929 1239.6C350.273 1240.04 350.515 1240.54 350.655 1241.1C350.796 1241.65 350.89 1242.43 350.937 1243.42H343.448C343.472 1244.03 343.605 1244.57 343.847 1245.04C344.097 1245.5 344.429 1245.86 344.843 1246.11C345.265 1246.36 345.749 1246.49 346.296 1246.49C347.507 1246.49 348.499 1245.77 349.273 1244.34L350.984 1245.46ZM343.636 1241.79H348.687C348.562 1241.08 348.288 1240.54 347.866 1240.16C347.445 1239.79 346.905 1239.6 346.249 1239.6C344.82 1239.6 343.948 1240.33 343.636 1241.79ZM359.227 1243.72H354.715V1248H352.617V1238.1H354.703V1241.84H359.227V1238.1H361.312L361.324 1248H359.227V1243.72ZM371.032 1248.06V1241.8L363.52 1248.41V1238.09H365.759V1244.31L373.27 1237.59V1248.06H371.032ZM382.193 1248V1243.72L377.974 1248H375.22L380.095 1243.63C379.759 1243.61 379.326 1243.54 378.795 1243.41C378.263 1243.27 377.81 1243.09 377.435 1242.84C377.06 1242.59 376.771 1242.3 376.568 1241.96C376.373 1241.62 376.275 1241.24 376.275 1240.82C376.275 1239.93 376.72 1239.26 377.611 1238.79C378.509 1238.31 379.654 1238.07 381.045 1238.07H384.431V1248H382.193ZM382.193 1239.4H381.502C380.455 1239.4 379.693 1239.53 379.216 1239.79C378.748 1240.04 378.513 1240.43 378.513 1240.93C378.513 1241.41 378.759 1241.8 379.252 1242.12C379.752 1242.42 380.455 1242.57 381.361 1242.57H382.193V1239.4ZM40.2375 1273V1263.07H43.7297C44.7688 1263.07 45.5813 1263.3 46.1672 1263.74C46.7531 1264.19 47.0461 1264.8 47.0461 1265.57C47.0461 1266.11 46.8742 1266.57 46.5305 1266.95C46.1945 1267.33 45.7375 1267.56 45.1594 1267.66C46.05 1267.71 46.7492 1267.99 47.257 1268.49C47.7648 1268.99 48.0188 1269.57 48.0188 1270.23C48.0188 1270.54 47.9602 1270.84 47.843 1271.12C47.7336 1271.41 47.5578 1271.69 47.3156 1271.95C47.0734 1272.2 46.7883 1272.4 46.4602 1272.55C45.8742 1272.85 45.0344 1273 43.9406 1273H40.2375ZM42.2414 1271.73H43.7766C45.1594 1271.81 45.8508 1271.29 45.8508 1270.15C45.8508 1269.01 45.132 1268.44 43.6945 1268.44H42.2414V1271.73ZM42.2414 1266.96H43.1789C43.757 1266.96 44.2141 1266.84 44.55 1266.6C44.8703 1266.37 45.0305 1266.04 45.0305 1265.62C45.0305 1265.26 44.8625 1264.96 44.5266 1264.73C44.1906 1264.49 43.7922 1264.38 43.3313 1264.38H42.2414V1266.96ZM58.125 1272.5C56.9766 1273.06 55.8672 1273.34 54.7969 1273.34C53.8594 1273.34 53.0156 1273.12 52.2656 1272.67C51.5156 1272.22 50.9297 1271.6 50.5078 1270.81C50.0781 1270.01 49.8633 1269.12 49.8633 1268.12C49.8633 1267.34 50.0117 1266.61 50.3086 1265.95C50.6133 1265.28 51.0195 1264.71 51.5273 1264.23C52.043 1263.75 52.625 1263.38 53.2734 1263.13C53.9297 1262.88 54.6055 1262.75 55.3008 1262.75C56.332 1262.75 57.2734 1263.01 58.125 1263.54V1266.04C57.3203 1265.2 56.3594 1264.79 55.2422 1264.79C54.375 1264.79 53.6328 1265.07 53.0156 1265.63C52.4063 1266.19 52.1016 1266.98 52.1016 1267.98C52.1016 1268.66 52.2227 1269.25 52.4648 1269.75C52.707 1270.25 53.0586 1270.64 53.5195 1270.9C53.9727 1271.16 54.5078 1271.29 55.125 1271.29C56.1719 1271.29 57.1719 1270.85 58.125 1269.98V1272.5ZM66.5672 1265.01H62.0555V1273H59.9578V1263.1H68.6531L68.6648 1273H66.5672V1265.01ZM75.8063 1262.72C76.8297 1262.72 77.7477 1262.95 78.5602 1263.4C79.3727 1263.86 80.0055 1264.49 80.4586 1265.31C80.9117 1266.12 81.1383 1267.05 81.1383 1268.08C81.1383 1269.09 80.9117 1270 80.4586 1270.81C80.0055 1271.61 79.3688 1272.24 78.5484 1272.68C77.7281 1273.12 76.7984 1273.34 75.7594 1273.34C74.7438 1273.34 73.8375 1273.11 73.0406 1272.65C72.2438 1272.2 71.6227 1271.57 71.1773 1270.76C70.7398 1269.94 70.5211 1269.02 70.5211 1267.98C70.5211 1266.98 70.7438 1266.07 71.1891 1265.28C71.6344 1264.47 72.2594 1263.85 73.0641 1263.4C73.8688 1262.95 74.7828 1262.72 75.8063 1262.72ZM75.8297 1264.64C75.1734 1264.64 74.6109 1264.81 74.1422 1265.14C73.6734 1265.46 73.3219 1265.88 73.0875 1266.39C72.8531 1266.91 72.7359 1267.46 72.7359 1268.05C72.7359 1268.64 72.8531 1269.19 73.0875 1269.71C73.3219 1270.21 73.6734 1270.63 74.1422 1270.96C74.6109 1271.28 75.1734 1271.44 75.8297 1271.44C76.4781 1271.44 77.0289 1271.28 77.482 1270.96C77.943 1270.64 78.2867 1270.22 78.5133 1269.7C78.7477 1269.17 78.8648 1268.62 78.8648 1268.05C78.8648 1267.47 78.7477 1266.91 78.5133 1266.39C78.2867 1265.87 77.943 1265.45 77.482 1265.12C77.0211 1264.8 76.4703 1264.64 75.8297 1264.64ZM82.3734 1273.06L85.8656 1262.28L89.6273 1269.45L93.9633 1262.28L97.3148 1273.06H95.018L93.0727 1266.47L89.5336 1273.41L86.5688 1266.45L84.6938 1273.06H82.3734ZM105.488 1268.72H100.976V1273H98.8781V1263.1H100.964V1266.84H105.488V1263.1H107.573L107.585 1273H105.488V1268.72ZM117.293 1273.06V1266.8L109.781 1273.41V1263.09H112.02V1269.31L119.531 1262.59V1273.06H117.293ZM121.997 1263.07H129.579L129.614 1264.84H126.884V1273H124.727V1264.84H121.962L121.997 1263.07ZM140.974 1270.46C139.81 1272.41 138.216 1273.39 136.193 1273.39C135.451 1273.39 134.779 1273.27 134.177 1273.02C133.568 1272.77 133.045 1272.41 132.607 1271.95C132.177 1271.48 131.845 1270.92 131.611 1270.27C131.384 1269.61 131.271 1268.9 131.271 1268.12C131.271 1267.33 131.384 1266.59 131.611 1265.92C131.845 1265.24 132.173 1264.67 132.595 1264.2C133.025 1263.72 133.537 1263.36 134.13 1263.11C134.724 1262.85 135.38 1262.72 136.099 1262.72C136.904 1262.72 137.634 1262.89 138.291 1263.21C138.947 1263.54 139.49 1264 139.92 1264.6C140.263 1265.04 140.505 1265.54 140.646 1266.1C140.787 1266.65 140.88 1267.43 140.927 1268.42H133.439C133.463 1269.03 133.595 1269.57 133.838 1270.04C134.088 1270.5 134.42 1270.86 134.834 1271.11C135.255 1271.36 135.74 1271.49 136.287 1271.49C137.498 1271.49 138.49 1270.77 139.263 1269.34L140.974 1270.46ZM133.627 1266.79H138.677C138.552 1266.08 138.279 1265.54 137.857 1265.16C137.435 1264.79 136.896 1264.6 136.24 1264.6C134.81 1264.6 133.939 1265.33 133.627 1266.79ZM156.382 1273.06V1266.8L148.87 1273.41V1263.09H151.109V1269.31L158.62 1262.59V1273.06H156.382ZM169.031 1272.5C167.883 1273.06 166.773 1273.34 165.703 1273.34C164.766 1273.34 163.922 1273.12 163.172 1272.67C162.422 1272.22 161.836 1271.6 161.414 1270.81C160.984 1270.01 160.77 1269.12 160.77 1268.12C160.77 1267.34 160.918 1266.61 161.215 1265.95C161.52 1265.28 161.926 1264.71 162.434 1264.23C162.949 1263.75 163.531 1263.38 164.18 1263.13C164.836 1262.88 165.512 1262.75 166.207 1262.75C167.238 1262.75 168.18 1263.01 169.031 1263.54V1266.04C168.227 1265.2 167.266 1264.79 166.148 1264.79C165.281 1264.79 164.539 1265.07 163.922 1265.63C163.312 1266.19 163.008 1266.98 163.008 1267.98C163.008 1268.66 163.129 1269.25 163.371 1269.75C163.613 1270.25 163.965 1270.64 164.426 1270.9C164.879 1271.16 165.414 1271.29 166.031 1271.29C167.078 1271.29 168.078 1270.85 169.031 1269.98V1272.5ZM170.934 1263.07H178.516L178.552 1264.84H175.821V1273H173.665V1264.84H170.899L170.934 1263.07ZM185.541 1262.72C186.564 1262.72 187.482 1262.95 188.295 1263.4C189.107 1263.86 189.74 1264.49 190.193 1265.31C190.646 1266.12 190.873 1267.05 190.873 1268.08C190.873 1269.09 190.646 1270 190.193 1270.81C189.74 1271.61 189.103 1272.24 188.283 1272.68C187.463 1273.12 186.533 1273.34 185.494 1273.34C184.478 1273.34 183.572 1273.11 182.775 1272.65C181.978 1272.2 181.357 1271.57 180.912 1270.76C180.474 1269.94 180.255 1269.02 180.255 1267.98C180.255 1266.98 180.478 1266.07 180.923 1265.28C181.369 1264.47 181.994 1263.85 182.798 1263.4C183.603 1262.95 184.517 1262.72 185.541 1262.72ZM185.564 1264.64C184.908 1264.64 184.345 1264.81 183.877 1265.14C183.408 1265.46 183.056 1265.88 182.822 1266.39C182.588 1266.91 182.47 1267.46 182.47 1268.05C182.47 1268.64 182.588 1269.19 182.822 1269.71C183.056 1270.21 183.408 1270.63 183.877 1270.96C184.345 1271.28 184.908 1271.44 185.564 1271.44C186.213 1271.44 186.763 1271.28 187.216 1270.96C187.677 1270.64 188.021 1270.22 188.248 1269.7C188.482 1269.17 188.599 1268.62 188.599 1268.05C188.599 1267.47 188.482 1266.91 188.248 1266.39C188.021 1265.87 187.677 1265.45 187.216 1265.12C186.755 1264.8 186.205 1264.64 185.564 1264.64ZM197.522 1264.64C196.608 1264.64 195.893 1264.99 195.377 1265.68C194.862 1266.36 194.604 1267.16 194.604 1268.08C194.604 1268.66 194.713 1269.22 194.932 1269.74C195.151 1270.27 195.475 1270.69 195.905 1271.01C196.334 1271.33 196.85 1271.49 197.452 1271.49C198.077 1271.49 198.608 1271.32 199.045 1271C199.491 1270.67 199.823 1270.24 200.041 1269.71C200.26 1269.17 200.37 1268.6 200.37 1268.01C200.37 1267.44 200.26 1266.89 200.041 1266.38C199.83 1265.86 199.51 1265.44 199.08 1265.12C198.651 1264.8 198.131 1264.64 197.522 1264.64ZM192.623 1277.73V1263.05L194.745 1263.06V1264.28C195.471 1263.27 196.495 1262.77 197.815 1262.77C198.791 1262.77 199.631 1263.02 200.334 1263.53C201.045 1264.04 201.577 1264.7 201.928 1265.51C202.288 1266.32 202.467 1267.19 202.467 1268.1C202.467 1269.01 202.295 1269.86 201.952 1270.64C201.608 1271.43 201.088 1272.07 200.393 1272.55C199.705 1273.04 198.877 1273.28 197.909 1273.28C196.588 1273.28 195.534 1272.79 194.745 1271.79V1277.73H192.623ZM211.929 1273.06V1266.8L204.417 1273.41V1263.09H206.655V1269.31L214.167 1262.59V1273.06H211.929ZM226.266 1264.64C225.609 1264.64 225.047 1264.81 224.578 1265.14C224.109 1265.46 223.758 1265.88 223.523 1266.39C223.289 1266.91 223.172 1267.46 223.172 1268.05C223.172 1268.64 223.289 1269.19 223.523 1269.71C223.758 1270.21 224.109 1270.63 224.578 1270.96C225.047 1271.28 225.609 1271.44 226.266 1271.44C226.914 1271.44 227.465 1271.28 227.918 1270.96C228.379 1270.64 228.723 1270.22 228.949 1269.7C229.184 1269.17 229.301 1268.62 229.301 1268.05C229.301 1267.47 229.184 1266.91 228.949 1266.39C228.723 1265.87 228.379 1265.45 227.918 1265.12C227.457 1264.8 226.906 1264.64 226.266 1264.64ZM216.645 1263.12L218.73 1263.09V1266.84H221.062C221.172 1266.27 221.359 1265.75 221.625 1265.27C222.07 1264.47 222.695 1263.85 223.5 1263.4C224.305 1262.95 225.219 1262.72 226.242 1262.72C227.266 1262.72 228.184 1262.95 228.996 1263.4C229.809 1263.86 230.441 1264.49 230.895 1265.31C231.348 1266.12 231.574 1267.05 231.574 1268.08C231.574 1269.09 231.348 1270 230.895 1270.81C230.441 1271.61 229.805 1272.24 228.984 1272.68C228.164 1273.12 227.234 1273.34 226.195 1273.34C225.18 1273.34 224.273 1273.11 223.477 1272.65C222.68 1272.2 222.062 1271.57 221.625 1270.75C221.289 1270.14 221.078 1269.46 220.992 1268.72H218.742V1273H216.645V1263.12ZM244.463 1262.72C245.486 1262.72 246.404 1262.95 247.216 1263.4C248.029 1263.86 248.662 1264.49 249.115 1265.31C249.568 1266.12 249.795 1267.05 249.795 1268.08C249.795 1269.09 249.568 1270 249.115 1270.81C248.662 1271.61 248.025 1272.24 247.205 1272.68C246.384 1273.12 245.455 1273.34 244.416 1273.34C243.4 1273.34 242.494 1273.11 241.697 1272.65C240.9 1272.2 240.279 1271.57 239.834 1270.76C239.396 1269.94 239.177 1269.02 239.177 1267.98C239.177 1266.98 239.4 1266.07 239.845 1265.28C240.291 1264.47 240.916 1263.85 241.72 1263.4C242.525 1262.95 243.439 1262.72 244.463 1262.72ZM244.486 1264.64C243.83 1264.64 243.267 1264.81 242.798 1265.14C242.33 1265.46 241.978 1265.88 241.744 1266.39C241.509 1266.91 241.392 1267.46 241.392 1268.05C241.392 1268.64 241.509 1269.19 241.744 1269.71C241.978 1270.21 242.33 1270.63 242.798 1270.96C243.267 1271.28 243.83 1271.44 244.486 1271.44C245.134 1271.44 245.685 1271.28 246.138 1270.96C246.599 1270.64 246.943 1270.22 247.17 1269.7C247.404 1269.17 247.521 1268.62 247.521 1268.05C247.521 1267.47 247.404 1266.91 247.17 1266.39C246.943 1265.87 246.599 1265.45 246.138 1265.12C245.677 1264.8 245.127 1264.64 244.486 1264.64ZM264.394 1268.72H259.882V1273H257.784V1263.1H259.87V1266.84H264.394V1263.1H266.48L266.491 1273H264.394V1268.72ZM276.293 1271.79C275.965 1272.27 275.523 1272.64 274.969 1272.91C274.414 1273.16 273.801 1273.29 273.129 1273.29C272.27 1273.29 271.488 1273.06 270.785 1272.6C270.09 1272.14 269.543 1271.51 269.145 1270.7C268.746 1269.89 268.547 1268.98 268.547 1267.98C268.547 1267.01 268.75 1266.12 269.156 1265.32C269.57 1264.53 270.137 1263.9 270.855 1263.45C271.582 1263 272.387 1262.77 273.27 1262.77C274.629 1262.77 275.637 1263.27 276.293 1264.28V1263.06H278.414V1273H276.293V1271.79ZM273.586 1264.64C272.977 1264.64 272.449 1264.8 272.004 1265.12C271.566 1265.45 271.234 1265.87 271.008 1266.4C270.789 1266.93 270.68 1267.49 270.68 1268.08C270.68 1268.66 270.789 1269.21 271.008 1269.73C271.234 1270.25 271.566 1270.68 272.004 1271.01C272.449 1271.33 272.977 1271.49 273.586 1271.49C274.188 1271.49 274.703 1271.33 275.133 1271.01C275.562 1270.68 275.887 1270.25 276.105 1269.72C276.332 1269.19 276.445 1268.62 276.445 1268.03C276.445 1267.45 276.34 1266.9 276.129 1266.38C275.902 1265.86 275.574 1265.45 275.145 1265.12C274.715 1264.8 274.195 1264.64 273.586 1264.64ZM288.661 1272.5C287.512 1273.06 286.403 1273.34 285.333 1273.34C284.395 1273.34 283.552 1273.12 282.802 1272.67C282.052 1272.22 281.466 1271.6 281.044 1270.81C280.614 1270.01 280.399 1269.12 280.399 1268.12C280.399 1267.34 280.548 1266.61 280.845 1265.95C281.149 1265.28 281.555 1264.71 282.063 1264.23C282.579 1263.75 283.161 1263.38 283.809 1263.13C284.466 1262.88 285.141 1262.75 285.837 1262.75C286.868 1262.75 287.809 1263.01 288.661 1263.54V1266.04C287.856 1265.2 286.895 1264.79 285.778 1264.79C284.911 1264.79 284.169 1265.07 283.552 1265.63C282.942 1266.19 282.637 1266.98 282.637 1267.98C282.637 1268.66 282.759 1269.25 283.001 1269.75C283.243 1270.25 283.595 1270.64 284.055 1270.9C284.509 1271.16 285.044 1271.29 285.661 1271.29C286.708 1271.29 287.708 1270.85 288.661 1269.98V1272.5ZM288.806 1275.84L291.115 1270.3L293.189 1271.05L290.353 1276.46L288.806 1275.84ZM307.636 1268.72H303.124V1273H301.027V1263.1H303.112V1266.84H307.636V1263.1H309.722L309.734 1273H307.636V1268.72ZM319.535 1271.79C319.207 1272.27 318.766 1272.64 318.211 1272.91C317.656 1273.16 317.043 1273.29 316.371 1273.29C315.512 1273.29 314.73 1273.06 314.027 1272.6C313.332 1272.14 312.785 1271.51 312.387 1270.7C311.988 1269.89 311.789 1268.98 311.789 1267.98C311.789 1267.01 311.992 1266.12 312.398 1265.32C312.812 1264.53 313.379 1263.9 314.098 1263.45C314.824 1263 315.629 1262.77 316.512 1262.77C317.871 1262.77 318.879 1263.27 319.535 1264.28V1263.06H321.656V1273H319.535V1271.79ZM316.828 1264.64C316.219 1264.64 315.691 1264.8 315.246 1265.12C314.809 1265.45 314.477 1265.87 314.25 1266.4C314.031 1266.93 313.922 1267.49 313.922 1268.08C313.922 1268.66 314.031 1269.21 314.25 1269.73C314.477 1270.25 314.809 1270.68 315.246 1271.01C315.691 1271.33 316.219 1271.49 316.828 1271.49C317.43 1271.49 317.945 1271.33 318.375 1271.01C318.805 1270.68 319.129 1270.25 319.348 1269.72C319.574 1269.19 319.688 1268.62 319.688 1268.03C319.688 1267.45 319.582 1266.9 319.371 1266.38C319.145 1265.86 318.816 1265.45 318.387 1265.12C317.957 1264.8 317.438 1264.64 316.828 1264.64ZM339.18 1273H323.888V1263.1H325.985V1271.09H330.485V1263.1H332.595L332.583 1271.09H337.095V1263.1H339.192L339.18 1273ZM350.623 1270.46C349.459 1272.41 347.865 1273.39 345.841 1273.39C345.099 1273.39 344.427 1273.27 343.826 1273.02C343.216 1272.77 342.693 1272.41 342.255 1271.95C341.826 1271.48 341.494 1270.92 341.259 1270.27C341.033 1269.61 340.92 1268.9 340.92 1268.12C340.92 1267.33 341.033 1266.59 341.259 1265.92C341.494 1265.24 341.822 1264.67 342.244 1264.2C342.673 1263.72 343.185 1263.36 343.779 1263.11C344.373 1262.85 345.029 1262.72 345.748 1262.72C346.552 1262.72 347.283 1262.89 347.939 1263.21C348.595 1263.54 349.138 1264 349.568 1264.6C349.912 1265.04 350.154 1265.54 350.295 1266.1C350.435 1266.65 350.529 1267.43 350.576 1268.42H343.088C343.111 1269.03 343.244 1269.57 343.486 1270.04C343.736 1270.5 344.068 1270.86 344.482 1271.11C344.904 1271.36 345.388 1271.49 345.935 1271.49C347.146 1271.49 348.138 1270.77 348.912 1269.34L350.623 1270.46ZM343.275 1266.79H348.326C348.201 1266.08 347.927 1265.54 347.505 1265.16C347.084 1264.79 346.545 1264.6 345.888 1264.6C344.459 1264.6 343.588 1265.33 343.275 1266.79ZM351.811 1273.06L355.303 1262.28L359.065 1269.45L363.401 1262.28L366.752 1273.06H364.455L362.51 1266.47L358.971 1273.41L356.006 1266.45L354.131 1273.06H351.811ZM382.641 1272.5C381.492 1273.06 380.383 1273.34 379.312 1273.34C378.375 1273.34 377.531 1273.12 376.781 1272.67C376.031 1272.22 375.445 1271.6 375.023 1270.81C374.594 1270.01 374.379 1269.12 374.379 1268.12C374.379 1267.34 374.527 1266.61 374.824 1265.95C375.129 1265.28 375.535 1264.71 376.043 1264.23C376.559 1263.75 377.141 1263.38 377.789 1263.13C378.445 1262.88 379.121 1262.75 379.816 1262.75C380.848 1262.75 381.789 1263.01 382.641 1263.54V1266.04C381.836 1265.2 380.875 1264.79 379.758 1264.79C378.891 1264.79 378.148 1265.07 377.531 1265.63C376.922 1266.19 376.617 1266.98 376.617 1267.98C376.617 1268.66 376.738 1269.25 376.98 1269.75C377.223 1270.25 377.574 1270.64 378.035 1270.9C378.488 1271.16 379.023 1271.29 379.641 1271.29C380.688 1271.29 381.688 1270.85 382.641 1269.98V1272.5ZM390.689 1273V1263.07H394.181C395.22 1263.07 396.033 1263.3 396.619 1263.74C397.205 1264.19 397.498 1264.8 397.498 1265.57C397.498 1266.11 397.326 1266.57 396.982 1266.95C396.646 1267.33 396.189 1267.56 395.611 1267.66C396.502 1267.71 397.201 1267.99 397.709 1268.49C398.216 1268.99 398.47 1269.57 398.47 1270.23C398.47 1270.54 398.412 1270.84 398.295 1271.12C398.185 1271.41 398.009 1271.69 397.767 1271.95C397.525 1272.2 397.24 1272.4 396.912 1272.55C396.326 1272.85 395.486 1273 394.392 1273H390.689ZM392.693 1271.73H394.228C395.611 1271.81 396.302 1271.29 396.302 1270.15C396.302 1269.01 395.584 1268.44 394.146 1268.44H392.693V1271.73ZM392.693 1266.96H393.63C394.209 1266.96 394.666 1266.84 395.002 1266.6C395.322 1266.37 395.482 1266.04 395.482 1265.62C395.482 1265.26 395.314 1264.96 394.978 1264.73C394.642 1264.49 394.244 1264.38 393.783 1264.38H392.693V1266.96ZM408.12 1271.79C407.791 1272.27 407.35 1272.64 406.795 1272.91C406.241 1273.16 405.627 1273.29 404.955 1273.29C404.096 1273.29 403.315 1273.06 402.612 1272.6C401.916 1272.14 401.37 1271.51 400.971 1270.7C400.573 1269.89 400.373 1268.98 400.373 1267.98C400.373 1267.01 400.577 1266.12 400.983 1265.32C401.397 1264.53 401.963 1263.9 402.682 1263.45C403.409 1263 404.213 1262.77 405.096 1262.77C406.455 1262.77 407.463 1263.27 408.12 1264.28V1263.06H410.241V1273H408.12V1271.79ZM405.412 1264.64C404.803 1264.64 404.276 1264.8 403.83 1265.12C403.393 1265.45 403.061 1265.87 402.834 1266.4C402.616 1266.93 402.506 1267.49 402.506 1268.08C402.506 1268.66 402.616 1269.21 402.834 1269.73C403.061 1270.25 403.393 1270.68 403.83 1271.01C404.276 1271.33 404.803 1271.49 405.412 1271.49C406.014 1271.49 406.53 1271.33 406.959 1271.01C407.389 1270.68 407.713 1270.25 407.932 1269.72C408.159 1269.19 408.272 1268.62 408.272 1268.03C408.272 1267.45 408.166 1266.9 407.955 1266.38C407.729 1265.86 407.401 1265.45 406.971 1265.12C406.541 1264.8 406.022 1264.64 405.412 1264.64ZM412.027 1273.06L415.519 1262.28L419.28 1269.45L423.616 1262.28L426.968 1273.06H424.671L422.726 1266.47L419.187 1273.41L416.222 1266.45L414.347 1273.06H412.027ZM435.996 1273.06V1266.8L428.484 1273.41V1263.09H430.723V1269.31L438.234 1262.59V1273.06H435.996ZM63.0281 1292.35H64.7977C66.3445 1292.22 67.118 1291.71 67.118 1290.82C67.118 1290.36 66.9109 1290 66.4969 1289.74C66.0906 1289.47 65.5437 1289.34 64.8562 1289.34C63.7547 1289.31 62.5164 1289.37 61.1414 1289.53V1288.34C62.7742 1288.06 64.0125 1287.94 64.8562 1287.98C65.7 1288.01 66.4383 1288.14 67.0711 1288.36C67.7039 1288.57 68.1883 1288.89 68.5242 1289.3C68.868 1289.71 69.0398 1290.19 69.0398 1290.73C69.0398 1291.33 68.8602 1291.8 68.5008 1292.14C68.1414 1292.48 67.5711 1292.73 66.7898 1292.87C68.5945 1293.08 69.4969 1293.89 69.4969 1295.29C69.4969 1295.91 69.2703 1296.45 68.8172 1296.9C68.3641 1297.36 67.7703 1297.71 67.0359 1297.96C66.3016 1298.21 65.5281 1298.34 64.7156 1298.35C63.9031 1298.38 63.1102 1298.32 62.3367 1298.18C61.5711 1298.04 61.1219 1297.97 60.9891 1297.96V1296.68C62.825 1296.93 64.1141 1297.06 64.8562 1297.06C65.6531 1297.06 66.2977 1296.91 66.7898 1296.59C67.282 1296.28 67.5281 1295.86 67.5281 1295.33C67.5281 1294.27 66.657 1293.68 64.9148 1293.54H63.0281V1292.35ZM78.0445 1293.72H73.5328V1298H71.4352V1288.1H73.5211V1291.84H78.0445V1288.1H80.1305L80.1422 1298H78.0445V1293.72ZM89.9437 1296.79C89.6156 1297.27 89.1742 1297.64 88.6195 1297.91C88.0648 1298.16 87.4516 1298.29 86.7797 1298.29C85.9203 1298.29 85.1391 1298.06 84.4359 1297.6C83.7406 1297.14 83.1937 1296.51 82.7953 1295.7C82.3969 1294.89 82.1977 1293.98 82.1977 1292.98C82.1977 1292.01 82.4008 1291.12 82.807 1290.32C83.2211 1289.53 83.7875 1288.9 84.5062 1288.45C85.2328 1288 86.0375 1287.77 86.9203 1287.77C88.2797 1287.77 89.2875 1288.27 89.9437 1289.28V1288.06H92.0648V1298H89.9437V1296.79ZM87.2367 1289.64C86.6273 1289.64 86.1 1289.8 85.6547 1290.12C85.2172 1290.45 84.8852 1290.87 84.6586 1291.4C84.4398 1291.93 84.3305 1292.49 84.3305 1293.08C84.3305 1293.66 84.4398 1294.21 84.6586 1294.73C84.8852 1295.25 85.2172 1295.68 85.6547 1296.01C86.1 1296.33 86.6273 1296.49 87.2367 1296.49C87.8383 1296.49 88.3539 1296.33 88.7836 1296.01C89.2133 1295.68 89.5375 1295.25 89.7562 1294.72C89.9828 1294.19 90.0961 1293.62 90.0961 1293.03C90.0961 1292.45 89.9906 1291.9 89.7797 1291.38C89.5531 1290.86 89.225 1290.45 88.7953 1290.12C88.3656 1289.8 87.8461 1289.64 87.2367 1289.64ZM96.4875 1288.06V1291.68L99.9328 1288.06H102.722L98.1867 1292.48L103.109 1298H100.249L96.4875 1293.46V1298H94.3664V1288.06H96.4875ZM109.652 1287.72C110.676 1287.72 111.594 1287.95 112.406 1288.4C113.219 1288.86 113.852 1289.49 114.305 1290.31C114.758 1291.12 114.984 1292.05 114.984 1293.08C114.984 1294.09 114.758 1295 114.305 1295.81C113.852 1296.61 113.215 1297.24 112.395 1297.68C111.574 1298.12 110.645 1298.34 109.605 1298.34C108.59 1298.34 107.684 1298.11 106.887 1297.65C106.09 1297.2 105.469 1296.57 105.023 1295.76C104.586 1294.94 104.367 1294.02 104.367 1292.98C104.367 1291.98 104.59 1291.07 105.035 1290.28C105.48 1289.47 106.105 1288.85 106.91 1288.4C107.715 1287.95 108.629 1287.72 109.652 1287.72ZM109.676 1289.64C109.02 1289.64 108.457 1289.81 107.988 1290.14C107.52 1290.46 107.168 1290.88 106.934 1291.39C106.699 1291.91 106.582 1292.46 106.582 1293.05C106.582 1293.64 106.699 1294.19 106.934 1294.71C107.168 1295.21 107.52 1295.63 107.988 1295.96C108.457 1296.28 109.02 1296.44 109.676 1296.44C110.324 1296.44 110.875 1296.28 111.328 1295.96C111.789 1295.64 112.133 1295.22 112.359 1294.7C112.594 1294.17 112.711 1293.62 112.711 1293.05C112.711 1292.47 112.594 1291.91 112.359 1291.39C112.133 1290.87 111.789 1290.45 111.328 1290.12C110.867 1289.8 110.316 1289.64 109.676 1289.64ZM116.22 1298.06L119.712 1287.28L123.473 1294.45L127.809 1287.28L131.161 1298.06H128.864L126.919 1291.47L123.38 1298.41L120.415 1291.45L118.54 1298.06H116.22ZM140.74 1297.5C139.591 1298.06 138.482 1298.34 137.412 1298.34C136.474 1298.34 135.63 1298.12 134.88 1297.67C134.13 1297.22 133.545 1296.6 133.123 1295.81C132.693 1295.01 132.478 1294.12 132.478 1293.12C132.478 1292.34 132.627 1291.61 132.923 1290.95C133.228 1290.28 133.634 1289.71 134.142 1289.23C134.658 1288.75 135.24 1288.38 135.888 1288.13C136.545 1287.88 137.22 1287.75 137.916 1287.75C138.947 1287.75 139.888 1288.01 140.74 1288.54V1291.04C139.935 1290.2 138.974 1289.79 137.857 1289.79C136.99 1289.79 136.248 1290.07 135.63 1290.63C135.021 1291.19 134.716 1291.98 134.716 1292.98C134.716 1293.66 134.837 1294.25 135.08 1294.75C135.322 1295.25 135.673 1295.64 136.134 1295.9C136.587 1296.16 137.123 1296.29 137.74 1296.29C138.787 1296.29 139.787 1295.85 140.74 1294.98V1297.5ZM142.643 1288.07H150.225L150.26 1289.84H147.53V1298H145.373V1289.84H142.608L142.643 1288.07ZM152.257 1298V1288.07H155.749C156.788 1288.07 157.601 1288.3 158.187 1288.74C158.773 1289.19 159.066 1289.8 159.066 1290.57C159.066 1291.11 158.894 1291.57 158.55 1291.95C158.214 1292.33 157.757 1292.56 157.179 1292.66C158.07 1292.71 158.769 1292.99 159.277 1293.49C159.784 1293.99 160.038 1294.57 160.038 1295.23C160.038 1295.54 159.98 1295.84 159.862 1296.12C159.753 1296.41 159.577 1296.69 159.335 1296.95C159.093 1297.2 158.808 1297.4 158.48 1297.55C157.894 1297.85 157.054 1298 155.96 1298H152.257ZM154.261 1296.73H155.796C157.179 1296.81 157.87 1296.29 157.87 1295.15C157.87 1294.01 157.152 1293.44 155.714 1293.44H154.261V1296.73ZM154.261 1291.96H155.198C155.777 1291.96 156.234 1291.84 156.57 1291.6C156.89 1291.37 157.05 1291.04 157.05 1290.62C157.05 1290.26 156.882 1289.96 156.546 1289.73C156.21 1289.49 155.812 1289.38 155.351 1289.38H154.261V1291.96ZM171.398 1295.46C170.234 1297.41 168.641 1298.39 166.617 1298.39C165.875 1298.39 165.203 1298.27 164.602 1298.02C163.992 1297.77 163.469 1297.41 163.031 1296.95C162.602 1296.48 162.27 1295.92 162.035 1295.27C161.809 1294.61 161.695 1293.9 161.695 1293.12C161.695 1292.33 161.809 1291.59 162.035 1290.92C162.27 1290.24 162.598 1289.67 163.02 1289.2C163.449 1288.72 163.961 1288.36 164.555 1288.11C165.148 1287.85 165.805 1287.72 166.523 1287.72C167.328 1287.72 168.059 1287.89 168.715 1288.21C169.371 1288.54 169.914 1289 170.344 1289.6C170.688 1290.04 170.93 1290.54 171.07 1291.1C171.211 1291.65 171.305 1292.43 171.352 1293.42H163.863C163.887 1294.03 164.02 1294.57 164.262 1295.04C164.512 1295.5 164.844 1295.86 165.258 1296.11C165.68 1296.36 166.164 1296.49 166.711 1296.49C167.922 1296.49 168.914 1295.77 169.688 1294.34L171.398 1295.46ZM164.051 1291.79H169.102C168.977 1291.08 168.703 1290.54 168.281 1290.16C167.859 1289.79 167.32 1289.6 166.664 1289.6C165.234 1289.6 164.363 1290.33 164.051 1291.79ZM186.806 1298.06V1291.8L179.295 1298.41V1288.09H181.533V1294.31L189.045 1287.59V1298.06H186.806ZM204.359 1290.01H199.847V1298H197.749V1288.1H206.445L206.456 1298H204.359V1290.01ZM216.258 1296.79C215.93 1297.27 215.488 1297.64 214.934 1297.91C214.379 1298.16 213.766 1298.29 213.094 1298.29C212.234 1298.29 211.453 1298.06 210.75 1297.6C210.055 1297.14 209.508 1296.51 209.109 1295.7C208.711 1294.89 208.512 1293.98 208.512 1292.98C208.512 1292.01 208.715 1291.12 209.121 1290.32C209.535 1289.53 210.102 1288.9 210.82 1288.45C211.547 1288 212.352 1287.77 213.234 1287.77C214.594 1287.77 215.602 1288.27 216.258 1289.28V1288.06H218.379V1298H216.258V1296.79ZM213.551 1289.64C212.941 1289.64 212.414 1289.8 211.969 1290.12C211.531 1290.45 211.199 1290.87 210.973 1291.4C210.754 1291.93 210.645 1292.49 210.645 1293.08C210.645 1293.66 210.754 1294.21 210.973 1294.73C211.199 1295.25 211.531 1295.68 211.969 1296.01C212.414 1296.33 212.941 1296.49 213.551 1296.49C214.152 1296.49 214.668 1296.33 215.098 1296.01C215.527 1295.68 215.852 1295.25 216.07 1294.72C216.297 1294.19 216.41 1293.62 216.41 1293.03C216.41 1292.45 216.305 1291.9 216.094 1291.38C215.867 1290.86 215.539 1290.45 215.109 1290.12C214.68 1289.8 214.16 1289.64 213.551 1289.64ZM220.165 1298.06L223.657 1287.28L227.419 1294.45L231.755 1287.28L235.106 1298.06H232.809L230.864 1291.47L227.325 1298.41L224.36 1291.45L222.485 1298.06H220.165ZM243.197 1298V1293.72L238.978 1298H236.224L241.099 1293.63C240.763 1293.61 240.33 1293.54 239.798 1293.41C239.267 1293.27 238.814 1293.09 238.439 1292.84C238.064 1292.59 237.775 1292.3 237.572 1291.96C237.377 1291.62 237.279 1291.24 237.279 1290.82C237.279 1289.93 237.724 1289.26 238.615 1288.79C239.513 1288.31 240.658 1288.07 242.048 1288.07H245.435V1298H243.197ZM243.197 1289.4H242.505C241.459 1289.4 240.697 1289.53 240.22 1289.79C239.752 1290.04 239.517 1290.43 239.517 1290.93C239.517 1291.41 239.763 1291.8 240.255 1292.12C240.755 1292.42 241.459 1292.57 242.365 1292.57H243.197V1289.4ZM247.549 1288.07H255.131L255.166 1289.84H252.436V1298H250.28V1289.84H247.514L247.549 1288.07ZM263.866 1293.72H259.355V1298H257.257V1288.1H259.343V1291.84H263.866V1288.1H265.952L265.964 1298H263.866V1293.72ZM270.445 1288.07V1292.22H271.664C272.508 1292.22 273.215 1292.38 273.785 1292.68C274.355 1292.93 274.793 1293.28 275.098 1293.72C275.41 1294.16 275.566 1294.66 275.566 1295.21C275.566 1295.77 275.406 1296.27 275.086 1296.69C274.773 1297.1 274.324 1297.43 273.738 1297.66C273.16 1297.89 272.488 1298 271.723 1298H268.23V1288.07H270.445ZM270.445 1296.63H271.453C271.789 1296.63 272.184 1296.5 272.637 1296.25C273.074 1296 273.293 1295.65 273.293 1295.19C273.293 1294.19 272.68 1293.69 271.453 1293.69H270.445V1296.63ZM276.07 1298H278.168L278.156 1288.06H276.07V1298ZM279.884 1298L283.845 1292.69L280.411 1288.06H282.895L285.298 1291.18L287.524 1288.06H290.067L286.587 1292.69L290.501 1298H288.028L285.192 1294.25L282.427 1298H279.884ZM297.893 1298.06L301.385 1287.28L305.147 1294.45L309.483 1287.28L312.834 1298.06H310.537L308.592 1291.47L305.053 1298.41L302.088 1291.45L300.213 1298.06H297.893ZM319.296 1287.72C320.32 1287.72 321.237 1287.95 322.05 1288.4C322.862 1288.86 323.495 1289.49 323.948 1290.31C324.402 1291.12 324.628 1292.05 324.628 1293.08C324.628 1294.09 324.402 1295 323.948 1295.81C323.495 1296.61 322.859 1297.24 322.038 1297.68C321.218 1298.12 320.288 1298.34 319.249 1298.34C318.234 1298.34 317.327 1298.11 316.53 1297.65C315.734 1297.2 315.112 1296.57 314.667 1295.76C314.23 1294.94 314.011 1294.02 314.011 1292.98C314.011 1291.98 314.234 1291.07 314.679 1290.28C315.124 1289.47 315.749 1288.85 316.554 1288.4C317.359 1287.95 318.273 1287.72 319.296 1287.72ZM319.32 1289.64C318.663 1289.64 318.101 1289.81 317.632 1290.14C317.163 1290.46 316.812 1290.88 316.577 1291.39C316.343 1291.91 316.226 1292.46 316.226 1293.05C316.226 1293.64 316.343 1294.19 316.577 1294.71C316.812 1295.21 317.163 1295.63 317.632 1295.96C318.101 1296.28 318.663 1296.44 319.32 1296.44C319.968 1296.44 320.519 1296.28 320.972 1295.96C321.433 1295.64 321.777 1295.22 322.003 1294.7C322.237 1294.17 322.355 1293.62 322.355 1293.05C322.355 1292.47 322.237 1291.91 322.003 1291.39C321.777 1290.87 321.433 1290.45 320.972 1290.12C320.511 1289.8 319.96 1289.64 319.32 1289.64ZM325.863 1298.06L329.355 1287.28L333.117 1294.45L337.453 1287.28L340.805 1298.06H338.508L336.562 1291.47L333.023 1298.41L330.059 1291.45L328.184 1298.06H325.863ZM351.638 1295.46C350.473 1297.41 348.88 1298.39 346.856 1298.39C346.114 1298.39 345.442 1298.27 344.841 1298.02C344.231 1297.77 343.708 1297.41 343.27 1296.95C342.841 1296.48 342.509 1295.92 342.274 1295.27C342.048 1294.61 341.934 1293.9 341.934 1293.12C341.934 1292.33 342.048 1291.59 342.274 1290.92C342.509 1290.24 342.837 1289.67 343.259 1289.2C343.688 1288.72 344.2 1288.36 344.794 1288.11C345.388 1287.85 346.044 1287.72 346.763 1287.72C347.567 1287.72 348.298 1287.89 348.954 1288.21C349.61 1288.54 350.153 1289 350.583 1289.6C350.927 1290.04 351.169 1290.54 351.309 1291.1C351.45 1291.65 351.544 1292.43 351.591 1293.42H344.102C344.126 1294.03 344.259 1294.57 344.501 1295.04C344.751 1295.5 345.083 1295.86 345.497 1296.11C345.919 1296.36 346.403 1296.49 346.95 1296.49C348.161 1296.49 349.153 1295.77 349.927 1294.34L351.638 1295.46ZM344.29 1291.79H349.341C349.216 1291.08 348.942 1290.54 348.52 1290.16C348.098 1289.79 347.559 1289.6 346.903 1289.6C345.473 1289.6 344.602 1290.33 344.29 1291.79ZM359.88 1293.72H355.369V1298H353.271V1288.1H355.357V1291.84H359.88V1288.1H361.966L361.978 1298H359.88V1293.72ZM364.291 1288.07H371.873L371.909 1289.84H369.178V1298H367.022V1289.84H364.256L364.291 1288.07ZM381.558 1296.79C381.23 1297.27 380.788 1297.64 380.234 1297.91C379.679 1298.16 379.066 1298.29 378.394 1298.29C377.534 1298.29 376.753 1298.06 376.05 1297.6C375.355 1297.14 374.808 1296.51 374.409 1295.7C374.011 1294.89 373.812 1293.98 373.812 1292.98C373.812 1292.01 374.015 1291.12 374.421 1290.32C374.835 1289.53 375.402 1288.9 376.12 1288.45C376.847 1288 377.652 1287.77 378.534 1287.77C379.894 1287.77 380.902 1288.27 381.558 1289.28V1288.06H383.679V1298H381.558V1296.79ZM378.851 1289.64C378.241 1289.64 377.714 1289.8 377.269 1290.12C376.831 1290.45 376.499 1290.87 376.273 1291.4C376.054 1291.93 375.945 1292.49 375.945 1293.08C375.945 1293.66 376.054 1294.21 376.273 1294.73C376.499 1295.25 376.831 1295.68 377.269 1296.01C377.714 1296.33 378.241 1296.49 378.851 1296.49C379.452 1296.49 379.968 1296.33 380.398 1296.01C380.827 1295.68 381.152 1295.25 381.37 1294.72C381.597 1294.19 381.71 1293.62 381.71 1293.03C381.71 1292.45 381.605 1291.9 381.394 1291.38C381.167 1290.86 380.839 1290.45 380.409 1290.12C379.98 1289.8 379.46 1289.64 378.851 1289.64ZM385.23 1298L389.191 1292.69L385.758 1288.06H388.242L390.645 1291.18L392.871 1288.06H395.414L391.934 1292.69L395.848 1298H393.375L390.539 1294.25L387.773 1298H385.23ZM395.688 1300.84L397.997 1295.3L400.071 1296.05L397.235 1301.46L395.688 1300.84ZM415.467 1296.79C415.139 1297.27 414.698 1297.64 414.143 1297.91C413.588 1298.16 412.975 1298.29 412.303 1298.29C411.444 1298.29 410.662 1298.06 409.959 1297.6C409.264 1297.14 408.717 1296.51 408.319 1295.7C407.92 1294.89 407.721 1293.98 407.721 1292.98C407.721 1292.01 407.924 1291.12 408.33 1290.32C408.745 1289.53 409.311 1288.9 410.03 1288.45C410.756 1288 411.561 1287.77 412.444 1287.77C413.803 1287.77 414.811 1288.27 415.467 1289.28V1288.06H417.588V1298H415.467V1296.79ZM412.76 1289.64C412.151 1289.64 411.623 1289.8 411.178 1290.12C410.741 1290.45 410.409 1290.87 410.182 1291.4C409.963 1291.93 409.854 1292.49 409.854 1293.08C409.854 1293.66 409.963 1294.21 410.182 1294.73C410.409 1295.25 410.741 1295.68 411.178 1296.01C411.623 1296.33 412.151 1296.49 412.76 1296.49C413.362 1296.49 413.877 1296.33 414.307 1296.01C414.737 1295.68 415.061 1295.25 415.28 1294.72C415.506 1294.19 415.62 1293.62 415.62 1293.03C415.62 1292.45 415.514 1291.9 415.303 1291.38C415.077 1290.86 414.748 1290.45 414.319 1290.12C413.889 1289.8 413.37 1289.64 412.76 1289.64ZM70.1484 1313.07H77.7305L77.7656 1314.84H75.0352V1323H72.8789V1314.84H70.1133L70.1484 1313.07ZM87.4148 1321.79C87.0867 1322.27 86.6453 1322.64 86.0906 1322.91C85.5359 1323.16 84.9227 1323.29 84.2508 1323.29C83.3914 1323.29 82.6102 1323.06 81.907 1322.6C81.2117 1322.14 80.6648 1321.51 80.2664 1320.7C79.868 1319.89 79.6688 1318.98 79.6688 1317.98C79.6688 1317.01 79.8719 1316.12 80.2781 1315.32C80.6922 1314.53 81.2586 1313.9 81.9773 1313.45C82.7039 1313 83.5086 1312.77 84.3914 1312.77C85.7508 1312.77 86.7586 1313.27 87.4148 1314.28V1313.06H89.5359V1323H87.4148V1321.79ZM84.7078 1314.64C84.0984 1314.64 83.5711 1314.8 83.1258 1315.12C82.6883 1315.45 82.3563 1315.87 82.1297 1316.4C81.9109 1316.93 81.8016 1317.49 81.8016 1318.08C81.8016 1318.66 81.9109 1319.21 82.1297 1319.73C82.3563 1320.25 82.6883 1320.68 83.1258 1321.01C83.5711 1321.33 84.0984 1321.49 84.7078 1321.49C85.3094 1321.49 85.825 1321.33 86.2547 1321.01C86.6844 1320.68 87.0086 1320.25 87.2273 1319.72C87.4539 1319.19 87.5672 1318.62 87.5672 1318.03C87.5672 1317.45 87.4617 1316.9 87.2508 1316.38C87.0242 1315.86 86.6961 1315.45 86.2664 1315.12C85.8367 1314.8 85.3172 1314.64 84.7078 1314.64ZM93.9586 1313.06V1316.68L97.4039 1313.06H100.193L95.6578 1317.48L100.58 1323H97.7203L93.9586 1318.46V1323H91.8375V1313.06H93.9586ZM110.768 1313.06V1316.68L114.213 1313.06H117.002L112.467 1317.48L117.389 1323H114.53L110.768 1318.46V1323H108.588V1318.46L104.827 1323H101.967L106.889 1317.48L102.354 1313.06H105.143L108.588 1316.68V1313.06H110.768ZM128.304 1320.46C127.14 1322.41 125.546 1323.39 123.523 1323.39C122.78 1323.39 122.109 1323.27 121.507 1323.02C120.898 1322.77 120.374 1322.41 119.937 1321.95C119.507 1321.48 119.175 1320.92 118.941 1320.27C118.714 1319.61 118.601 1318.9 118.601 1318.12C118.601 1317.33 118.714 1316.59 118.941 1315.92C119.175 1315.24 119.503 1314.67 119.925 1314.2C120.355 1313.72 120.866 1313.36 121.46 1313.11C122.054 1312.85 122.71 1312.72 123.429 1312.72C124.234 1312.72 124.964 1312.89 125.62 1313.21C126.277 1313.54 126.82 1314 127.249 1314.6C127.593 1315.04 127.835 1315.54 127.976 1316.1C128.116 1316.65 128.21 1317.43 128.257 1318.42H120.769C120.792 1319.03 120.925 1319.57 121.167 1320.04C121.417 1320.5 121.749 1320.86 122.163 1321.11C122.585 1321.36 123.07 1321.49 123.616 1321.49C124.827 1321.49 125.82 1320.77 126.593 1319.34L128.304 1320.46ZM120.956 1316.79H126.007C125.882 1316.08 125.609 1315.54 125.187 1315.16C124.765 1314.79 124.226 1314.6 123.57 1314.6C122.14 1314.6 121.269 1315.33 120.956 1316.79ZM136.153 1323V1313.07H139.645C140.684 1313.07 141.497 1313.3 142.083 1313.74C142.669 1314.19 142.962 1314.8 142.962 1315.57C142.962 1316.11 142.79 1316.57 142.446 1316.95C142.11 1317.33 141.653 1317.56 141.075 1317.66C141.966 1317.71 142.665 1317.99 143.173 1318.49C143.68 1318.99 143.934 1319.57 143.934 1320.23C143.934 1320.54 143.876 1320.84 143.759 1321.12C143.649 1321.41 143.473 1321.69 143.231 1321.95C142.989 1322.2 142.704 1322.4 142.376 1322.55C141.79 1322.85 140.95 1323 139.856 1323H136.153ZM138.157 1321.73H139.692C141.075 1321.81 141.766 1321.29 141.766 1320.15C141.766 1319.01 141.048 1318.44 139.61 1318.44H138.157V1321.73ZM138.157 1316.96H139.095C139.673 1316.96 140.13 1316.84 140.466 1316.6C140.786 1316.37 140.946 1316.04 140.946 1315.62C140.946 1315.26 140.778 1314.96 140.442 1314.73C140.106 1314.49 139.708 1314.38 139.247 1314.38H138.157V1316.96ZM150.923 1312.72C151.947 1312.72 152.865 1312.95 153.677 1313.4C154.49 1313.86 155.123 1314.49 155.576 1315.31C156.029 1316.12 156.255 1317.05 156.255 1318.08C156.255 1319.09 156.029 1320 155.576 1320.81C155.123 1321.61 154.486 1322.24 153.666 1322.68C152.845 1323.12 151.916 1323.34 150.877 1323.34C149.861 1323.34 148.955 1323.11 148.158 1322.65C147.361 1322.2 146.74 1321.57 146.295 1320.76C145.857 1319.94 145.638 1319.02 145.638 1317.98C145.638 1316.98 145.861 1316.07 146.306 1315.28C146.752 1314.47 147.377 1313.85 148.181 1313.4C148.986 1312.95 149.9 1312.72 150.923 1312.72ZM150.947 1314.64C150.291 1314.64 149.728 1314.81 149.259 1315.14C148.791 1315.46 148.439 1315.88 148.205 1316.39C147.97 1316.91 147.853 1317.46 147.853 1318.05C147.853 1318.64 147.97 1319.19 148.205 1319.71C148.439 1320.21 148.791 1320.63 149.259 1320.96C149.728 1321.28 150.291 1321.44 150.947 1321.44C151.595 1321.44 152.146 1321.28 152.599 1320.96C153.06 1320.64 153.404 1320.22 153.63 1319.7C153.865 1319.17 153.982 1318.62 153.982 1318.05C153.982 1317.47 153.865 1316.91 153.63 1316.39C153.404 1315.87 153.06 1315.45 152.599 1315.12C152.138 1314.8 151.588 1314.64 150.947 1314.64ZM165.952 1322.5C164.803 1323.06 163.694 1323.34 162.623 1323.34C161.686 1323.34 160.842 1323.12 160.092 1322.67C159.342 1322.22 158.756 1321.6 158.334 1320.81C157.905 1320.01 157.69 1319.12 157.69 1318.12C157.69 1317.34 157.838 1316.61 158.135 1315.95C158.44 1315.28 158.846 1314.71 159.354 1314.23C159.87 1313.75 160.452 1313.38 161.1 1313.13C161.756 1312.88 162.432 1312.75 163.127 1312.75C164.159 1312.75 165.1 1313.01 165.952 1313.54V1316.04C165.147 1315.2 164.186 1314.79 163.069 1314.79C162.202 1314.79 161.459 1315.07 160.842 1315.63C160.233 1316.19 159.928 1316.98 159.928 1317.98C159.928 1318.66 160.049 1319.25 160.291 1319.75C160.534 1320.25 160.885 1320.64 161.346 1320.9C161.799 1321.16 162.334 1321.29 162.952 1321.29C163.998 1321.29 164.998 1320.85 165.952 1319.98V1322.5ZM174.394 1315.01H169.882V1323H167.784V1313.1H176.48L176.491 1323H174.394V1315.01ZM183.633 1312.72C184.656 1312.72 185.574 1312.95 186.387 1313.4C187.199 1313.86 187.832 1314.49 188.285 1315.31C188.738 1316.12 188.965 1317.05 188.965 1318.08C188.965 1319.09 188.738 1320 188.285 1320.81C187.832 1321.61 187.195 1322.24 186.375 1322.68C185.555 1323.12 184.625 1323.34 183.586 1323.34C182.57 1323.34 181.664 1323.11 180.867 1322.65C180.07 1322.2 179.449 1321.57 179.004 1320.76C178.566 1319.94 178.348 1319.02 178.348 1317.98C178.348 1316.98 178.57 1316.07 179.016 1315.28C179.461 1314.47 180.086 1313.85 180.891 1313.4C181.695 1312.95 182.609 1312.72 183.633 1312.72ZM183.656 1314.64C183 1314.64 182.438 1314.81 181.969 1315.14C181.5 1315.46 181.148 1315.88 180.914 1316.39C180.68 1316.91 180.562 1317.46 180.562 1318.05C180.562 1318.64 180.68 1319.19 180.914 1319.71C181.148 1320.21 181.5 1320.63 181.969 1320.96C182.438 1321.28 183 1321.44 183.656 1321.44C184.305 1321.44 184.855 1321.28 185.309 1320.96C185.77 1320.64 186.113 1320.22 186.34 1319.7C186.574 1319.17 186.691 1318.62 186.691 1318.05C186.691 1317.47 186.574 1316.91 186.34 1316.39C186.113 1315.87 185.77 1315.45 185.309 1315.12C184.848 1314.8 184.297 1314.64 183.656 1314.64ZM198.087 1315.04H194.782V1318.68C194.782 1319.3 194.716 1319.89 194.583 1320.46C194.442 1321.01 194.223 1321.51 193.927 1321.96C193.63 1322.4 193.243 1322.75 192.766 1323.01C192.29 1323.26 191.731 1323.39 191.091 1323.39C190.942 1323.39 190.798 1323.38 190.657 1323.36V1321.27C190.751 1321.28 190.848 1321.29 190.95 1321.29C191.52 1321.29 191.923 1321.1 192.157 1320.73C192.391 1320.34 192.509 1319.71 192.509 1318.82L192.497 1313.09H200.348V1323H198.087V1315.04ZM205.076 1313.07V1317.22H206.295C207.138 1317.22 207.845 1317.38 208.416 1317.68C208.986 1317.93 209.423 1318.28 209.728 1318.72C210.041 1319.16 210.197 1319.66 210.197 1320.21C210.197 1320.77 210.037 1321.27 209.716 1321.69C209.404 1322.1 208.955 1322.43 208.369 1322.66C207.791 1322.89 207.119 1323 206.353 1323H202.861V1313.07H205.076ZM205.076 1321.63H206.084C206.42 1321.63 206.814 1321.5 207.267 1321.25C207.705 1321 207.923 1320.65 207.923 1320.19C207.923 1319.19 207.31 1318.69 206.084 1318.69H205.076V1321.63ZM214.174 1317.35H215.944C217.491 1317.22 218.264 1316.71 218.264 1315.82C218.264 1315.36 218.057 1315 217.643 1314.74C217.237 1314.47 216.69 1314.34 216.002 1314.34C214.901 1314.31 213.663 1314.37 212.288 1314.53V1313.34C213.92 1313.06 215.159 1312.94 216.002 1312.98C216.846 1313.01 217.584 1313.14 218.217 1313.36C218.85 1313.57 219.334 1313.89 219.67 1314.3C220.014 1314.71 220.186 1315.19 220.186 1315.73C220.186 1316.33 220.006 1316.8 219.647 1317.14C219.288 1317.48 218.717 1317.73 217.936 1317.87C219.741 1318.08 220.643 1318.89 220.643 1320.29C220.643 1320.91 220.416 1321.45 219.963 1321.9C219.51 1322.36 218.916 1322.71 218.182 1322.96C217.448 1323.21 216.674 1323.34 215.862 1323.35C215.049 1323.38 214.256 1323.32 213.483 1323.18C212.717 1323.04 212.268 1322.97 212.135 1322.96V1321.68C213.971 1321.93 215.26 1322.06 216.002 1322.06C216.799 1322.06 217.444 1321.91 217.936 1321.59C218.428 1321.28 218.674 1320.86 218.674 1320.33C218.674 1319.27 217.803 1318.68 216.061 1318.54H214.174V1317.35ZM222.101 1313.06H224.62L227.644 1318.77L230.386 1313.06H232.765L225.511 1327.73H223.202L226.542 1321.05L222.101 1313.06ZM241.957 1323.06V1316.8L234.445 1323.41V1313.09H236.684V1319.31L244.195 1312.59V1323.06H241.957ZM236.367 1309.83C237.125 1311.85 238.211 1312.88 239.625 1312.91C241.047 1312.93 242.078 1311.91 242.719 1309.83H240.891C240.945 1310.85 240.555 1311.54 239.719 1311.9C238.891 1311.46 238.441 1310.77 238.371 1309.83H236.367ZM246.661 1313.07H254.243L254.278 1314.84H251.548V1323H249.391V1314.84H246.626L246.661 1313.07ZM265.638 1320.46C264.474 1322.41 262.88 1323.39 260.857 1323.39C260.115 1323.39 259.443 1323.27 258.841 1323.02C258.232 1322.77 257.709 1322.41 257.271 1321.95C256.841 1321.48 256.509 1320.92 256.275 1320.27C256.048 1319.61 255.935 1318.9 255.935 1318.12C255.935 1317.33 256.048 1316.59 256.275 1315.92C256.509 1315.24 256.837 1314.67 257.259 1314.2C257.689 1313.72 258.201 1313.36 258.795 1313.11C259.388 1312.85 260.045 1312.72 260.763 1312.72C261.568 1312.72 262.298 1312.89 262.955 1313.21C263.611 1313.54 264.154 1314 264.584 1314.6C264.927 1315.04 265.17 1315.54 265.31 1316.1C265.451 1316.65 265.545 1317.43 265.591 1318.42H258.103C258.127 1319.03 258.259 1319.57 258.502 1320.04C258.752 1320.5 259.084 1320.86 259.498 1321.11C259.92 1321.36 260.404 1321.49 260.951 1321.49C262.162 1321.49 263.154 1320.77 263.927 1319.34L265.638 1320.46ZM258.291 1316.79H263.341C263.216 1316.08 262.943 1315.54 262.521 1315.16C262.099 1314.79 261.56 1314.6 260.904 1314.6C259.474 1314.6 258.603 1315.33 258.291 1316.79ZM275.288 1322.5C274.139 1323.06 273.03 1323.34 271.959 1323.34C271.022 1323.34 270.178 1323.12 269.428 1322.67C268.678 1322.22 268.092 1321.6 267.67 1320.81C267.241 1320.01 267.026 1319.12 267.026 1318.12C267.026 1317.34 267.174 1316.61 267.471 1315.95C267.776 1315.28 268.182 1314.71 268.69 1314.23C269.205 1313.75 269.788 1313.38 270.436 1313.13C271.092 1312.88 271.768 1312.75 272.463 1312.75C273.495 1312.75 274.436 1313.01 275.288 1313.54V1316.04C274.483 1315.2 273.522 1314.79 272.405 1314.79C271.538 1314.79 270.795 1315.07 270.178 1315.63C269.569 1316.19 269.264 1316.98 269.264 1317.98C269.264 1318.66 269.385 1319.25 269.627 1319.75C269.87 1320.25 270.221 1320.64 270.682 1320.9C271.135 1321.16 271.67 1321.29 272.288 1321.29C273.334 1321.29 274.334 1320.85 275.288 1319.98V1322.5ZM279.359 1313.07V1317.22H280.577C281.421 1317.22 282.128 1317.38 282.698 1317.68C283.269 1317.93 283.706 1318.28 284.011 1318.72C284.323 1319.16 284.48 1319.66 284.48 1320.21C284.48 1320.77 284.32 1321.27 283.999 1321.69C283.687 1322.1 283.238 1322.43 282.652 1322.66C282.073 1322.89 281.402 1323 280.636 1323H277.144V1313.07H279.359ZM279.359 1321.63H280.366C280.702 1321.63 281.097 1321.5 281.55 1321.25C281.988 1321 282.206 1320.65 282.206 1320.19C282.206 1319.19 281.593 1318.69 280.366 1318.69H279.359V1321.63ZM308.173 1323H292.88V1313.1H294.977V1321.09H299.477V1313.1H301.587L301.575 1321.09H306.087V1313.1H308.184L308.173 1323ZM316.955 1315.01H312.443V1323H310.345V1313.1H319.041L319.052 1323H316.955V1315.01ZM328.854 1321.79C328.526 1322.27 328.084 1322.64 327.53 1322.91C326.975 1323.16 326.362 1323.29 325.69 1323.29C324.83 1323.29 324.049 1323.06 323.346 1322.6C322.651 1322.14 322.104 1321.51 321.705 1320.7C321.307 1319.89 321.108 1318.98 321.108 1317.98C321.108 1317.01 321.311 1316.12 321.717 1315.32C322.131 1314.53 322.698 1313.9 323.416 1313.45C324.143 1313 324.948 1312.77 325.83 1312.77C327.19 1312.77 328.198 1313.27 328.854 1314.28V1313.06H330.975V1323H328.854V1321.79ZM326.147 1314.64C325.538 1314.64 325.01 1314.8 324.565 1315.12C324.127 1315.45 323.795 1315.87 323.569 1316.4C323.35 1316.93 323.241 1317.49 323.241 1318.08C323.241 1318.66 323.35 1319.21 323.569 1319.73C323.795 1320.25 324.127 1320.68 324.565 1321.01C325.01 1321.33 325.538 1321.49 326.147 1321.49C326.748 1321.49 327.264 1321.33 327.694 1321.01C328.123 1320.68 328.448 1320.25 328.666 1319.72C328.893 1319.19 329.006 1318.62 329.006 1318.03C329.006 1317.45 328.901 1316.9 328.69 1316.38C328.463 1315.86 328.135 1315.45 327.705 1315.12C327.276 1314.8 326.756 1314.64 326.147 1314.64ZM338.175 1314.64C337.261 1314.64 336.546 1314.99 336.03 1315.68C335.515 1316.36 335.257 1317.16 335.257 1318.08C335.257 1318.66 335.366 1319.22 335.585 1319.74C335.804 1320.27 336.128 1320.69 336.558 1321.01C336.987 1321.33 337.503 1321.49 338.105 1321.49C338.73 1321.49 339.261 1321.32 339.698 1321C340.144 1320.67 340.476 1320.24 340.695 1319.71C340.913 1319.17 341.023 1318.6 341.023 1318.01C341.023 1317.44 340.913 1316.89 340.695 1316.38C340.484 1315.86 340.163 1315.44 339.734 1315.12C339.304 1314.8 338.784 1314.64 338.175 1314.64ZM333.277 1327.73V1313.05L335.398 1313.06V1314.28C336.124 1313.27 337.148 1312.77 338.468 1312.77C339.445 1312.77 340.284 1313.02 340.987 1313.53C341.698 1314.04 342.23 1314.7 342.581 1315.51C342.941 1316.32 343.12 1317.19 343.12 1318.1C343.12 1319.01 342.948 1319.86 342.605 1320.64C342.261 1321.43 341.741 1322.07 341.046 1322.55C340.359 1323.04 339.53 1323.28 338.562 1323.28C337.241 1323.28 336.187 1322.79 335.398 1321.79V1327.73H333.277ZM351.234 1314.83H347.203L347.215 1323H345.117V1313.06H351.199L351.234 1314.83ZM361.071 1321.79C360.743 1322.27 360.302 1322.64 359.747 1322.91C359.192 1323.16 358.579 1323.29 357.907 1323.29C357.048 1323.29 356.266 1323.06 355.563 1322.6C354.868 1322.14 354.321 1321.51 353.923 1320.7C353.524 1319.89 353.325 1318.98 353.325 1317.98C353.325 1317.01 353.528 1316.12 353.934 1315.32C354.348 1314.53 354.915 1313.9 355.634 1313.45C356.36 1313 357.165 1312.77 358.048 1312.77C359.407 1312.77 360.415 1313.27 361.071 1314.28V1313.06H363.192V1323H361.071V1321.79ZM358.364 1314.64C357.755 1314.64 357.227 1314.8 356.782 1315.12C356.345 1315.45 356.013 1315.87 355.786 1316.4C355.567 1316.93 355.458 1317.49 355.458 1318.08C355.458 1318.66 355.567 1319.21 355.786 1319.73C356.013 1320.25 356.345 1320.68 356.782 1321.01C357.227 1321.33 357.755 1321.49 358.364 1321.49C358.966 1321.49 359.481 1321.33 359.911 1321.01C360.341 1320.68 360.665 1320.25 360.884 1319.72C361.11 1319.19 361.223 1318.62 361.223 1318.03C361.223 1317.45 361.118 1316.9 360.907 1316.38C360.68 1315.86 360.352 1315.45 359.923 1315.12C359.493 1314.8 358.973 1314.64 358.364 1314.64ZM372.865 1315.04H369.56V1318.68C369.56 1319.3 369.494 1319.89 369.361 1320.46C369.22 1321.01 369.002 1321.51 368.705 1321.96C368.408 1322.4 368.021 1322.75 367.545 1323.01C367.068 1323.26 366.509 1323.39 365.869 1323.39C365.72 1323.39 365.576 1323.38 365.435 1323.36V1321.27C365.529 1321.28 365.627 1321.29 365.728 1321.29C366.298 1321.29 366.701 1321.1 366.935 1320.73C367.17 1320.34 367.287 1319.71 367.287 1318.82L367.275 1313.09H375.127V1323H372.865V1315.04ZM379.807 1313.06V1316.68L383.252 1313.06H386.041L381.506 1317.48L386.428 1323H383.569L379.807 1318.46V1323H377.686V1313.06H379.807ZM392.972 1312.72C393.995 1312.72 394.913 1312.95 395.726 1313.4C396.538 1313.86 397.171 1314.49 397.624 1315.31C398.077 1316.12 398.304 1317.05 398.304 1318.08C398.304 1319.09 398.077 1320 397.624 1320.81C397.171 1321.61 396.534 1322.24 395.714 1322.68C394.894 1323.12 393.964 1323.34 392.925 1323.34C391.909 1323.34 391.003 1323.11 390.206 1322.65C389.409 1322.2 388.788 1321.57 388.343 1320.76C387.905 1319.94 387.687 1319.02 387.687 1317.98C387.687 1316.98 387.909 1316.07 388.355 1315.28C388.8 1314.47 389.425 1313.85 390.23 1313.4C391.034 1312.95 391.948 1312.72 392.972 1312.72ZM392.995 1314.64C392.339 1314.64 391.777 1314.81 391.308 1315.14C390.839 1315.46 390.487 1315.88 390.253 1316.39C390.019 1316.91 389.902 1317.46 389.902 1318.05C389.902 1318.64 390.019 1319.19 390.253 1319.71C390.487 1320.21 390.839 1320.63 391.308 1320.96C391.777 1321.28 392.339 1321.44 392.995 1321.44C393.644 1321.44 394.195 1321.28 394.648 1320.96C395.109 1320.64 395.452 1320.22 395.679 1319.7C395.913 1319.17 396.03 1318.62 396.03 1318.05C396.03 1317.47 395.913 1316.91 395.679 1316.39C395.452 1315.87 395.109 1315.45 394.648 1315.12C394.187 1314.8 393.636 1314.64 392.995 1314.64ZM407.449 1323.06V1316.8L399.938 1323.41V1313.09H402.176V1319.31L409.688 1312.59V1323.06H407.449ZM401.859 1309.83C402.617 1311.85 403.703 1312.88 405.117 1312.91C406.539 1312.93 407.57 1311.91 408.211 1309.83H406.383C406.438 1310.85 406.047 1311.54 405.211 1311.9C404.383 1311.46 403.934 1310.77 403.863 1309.83H401.859Z" fill="#F6EBC8"/>
<path d="M60.1738 197.225H74.4414V181.375H66.1504C65.7402 190.379 63.748 195.662 60.1738 197.225ZM54.5195 197.342C58.0938 195.779 60.0566 189.061 60.4082 177.186H80.0957V197.342H82.9668V207.156H77.3125V202.293H57.2441V207.156H51.5898V197.342H54.5195ZM103.973 182.107H95.7109V191.189C95.7109 192.752 95.5449 194.236 95.2129 195.643C94.8613 197.029 94.3145 198.279 93.5723 199.393C92.8301 200.506 91.8633 201.385 90.6719 202.029C89.4805 202.654 88.084 202.967 86.4824 202.967C86.1113 202.967 85.75 202.947 85.3984 202.908V197.664C85.6328 197.703 85.877 197.723 86.1309 197.723C87.5566 197.723 88.5625 197.254 89.1484 196.316C89.7344 195.359 90.0273 193.768 90.0273 191.541L89.998 177.215H109.627V202H103.973V182.107ZM129.168 202V191.307L118.621 202H111.736L123.924 191.072C123.084 191.033 122 190.848 120.672 190.516C119.344 190.184 118.211 189.715 117.273 189.109C116.336 188.484 115.613 187.752 115.105 186.912C114.617 186.053 114.373 185.096 114.373 184.041C114.373 181.834 115.486 180.145 117.713 178.973C119.959 177.781 122.82 177.186 126.297 177.186H134.764V202H129.168ZM129.168 180.496H127.439C124.822 180.496 122.918 180.818 121.727 181.463C120.555 182.107 119.969 183.064 119.969 184.334C119.969 185.525 120.584 186.512 121.814 187.293C123.064 188.055 124.822 188.436 127.088 188.436H129.168V180.496ZM149.412 202V177.186H158.143C160.74 177.186 162.771 177.742 164.236 178.855C165.701 179.969 166.434 181.492 166.434 183.426C166.434 184.773 166.004 185.926 165.145 186.883C164.305 187.82 163.162 188.406 161.717 188.641C163.943 188.777 165.691 189.471 166.961 190.721C168.23 191.971 168.865 193.426 168.865 195.086C168.865 195.848 168.719 196.59 168.426 197.312C168.152 198.035 167.713 198.719 167.107 199.363C166.502 199.988 165.789 200.496 164.969 200.887C163.504 201.629 161.404 202 158.67 202H149.412ZM154.422 198.836H158.26C161.717 199.031 163.445 197.713 163.445 194.881C163.445 192.029 161.648 190.604 158.055 190.604H154.422V198.836ZM154.422 186.912H156.766C158.211 186.912 159.354 186.609 160.193 186.004C160.994 185.418 161.395 184.598 161.395 183.543C161.395 182.645 160.975 181.902 160.135 181.316C159.295 180.73 158.299 180.438 157.146 180.438H154.422V186.912ZM179.764 197.225H194.031V181.375H185.74C185.33 190.379 183.338 195.662 179.764 197.225ZM174.109 197.342C177.684 195.779 179.646 189.061 179.998 177.186H199.686V197.342H202.557V207.156H196.902V202.293H176.834V207.156H171.18V197.342H174.109ZM217.205 176.307C219.764 176.307 222.059 176.873 224.09 178.006C226.121 179.139 227.703 180.73 228.836 182.781C229.969 184.812 230.535 187.117 230.535 189.695C230.535 192.234 229.969 194.51 228.836 196.521C227.703 198.533 226.111 200.096 224.061 201.209C222.01 202.303 219.686 202.85 217.088 202.85C214.549 202.85 212.283 202.273 210.291 201.121C208.299 200.008 206.746 198.436 205.633 196.404C204.539 194.354 203.992 192.039 203.992 189.461C203.992 186.941 204.549 184.686 205.662 182.693C206.775 180.682 208.338 179.119 210.35 178.006C212.361 176.873 214.646 176.307 217.205 176.307ZM217.264 181.111C215.623 181.111 214.217 181.521 213.045 182.342C211.873 183.143 210.994 184.188 210.408 185.477C209.822 186.766 209.529 188.152 209.529 189.637C209.529 191.102 209.822 192.479 210.408 193.768C210.994 195.037 211.873 196.082 213.045 196.902C214.217 197.703 215.623 198.104 217.264 198.104C218.885 198.104 220.262 197.703 221.395 196.902C222.547 196.102 223.406 195.047 223.973 193.738C224.559 192.43 224.852 191.062 224.852 189.637C224.852 188.172 224.559 186.785 223.973 185.477C223.406 184.168 222.547 183.113 221.395 182.312C220.242 181.512 218.865 181.111 217.264 181.111ZM230.037 202L239.939 188.729L231.355 177.156H237.566L243.572 184.949L249.139 177.156H255.496L246.795 188.729L256.58 202H250.398L243.309 192.625L236.395 202H230.037ZM273.924 191.307H262.645V202H257.4V177.244H262.615V186.59H273.924V177.244H279.139L279.168 202H273.924V191.307ZM294.021 176.307C296.58 176.307 298.875 176.873 300.906 178.006C302.938 179.139 304.52 180.73 305.652 182.781C306.785 184.812 307.352 187.117 307.352 189.695C307.352 192.234 306.785 194.51 305.652 196.521C304.52 198.533 302.928 200.096 300.877 201.209C298.826 202.303 296.502 202.85 293.904 202.85C291.365 202.85 289.1 202.273 287.107 201.121C285.115 200.008 283.562 198.436 282.449 196.404C281.355 194.354 280.809 192.039 280.809 189.461C280.809 186.941 281.365 184.686 282.479 182.693C283.592 180.682 285.154 179.119 287.166 178.006C289.178 176.873 291.463 176.307 294.021 176.307ZM294.08 181.111C292.439 181.111 291.033 181.521 289.861 182.342C288.689 183.143 287.811 184.188 287.225 185.477C286.639 186.766 286.346 188.152 286.346 189.637C286.346 191.102 286.639 192.479 287.225 193.768C287.811 195.037 288.689 196.082 289.861 196.902C291.033 197.703 292.439 198.104 294.08 198.104C295.701 198.104 297.078 197.703 298.211 196.902C299.363 196.102 300.223 195.047 300.789 193.738C301.375 192.43 301.668 191.062 301.668 189.637C301.668 188.172 301.375 186.785 300.789 185.477C300.223 184.168 299.363 183.113 298.211 182.312C297.059 181.512 295.682 181.111 294.08 181.111ZM308.318 202V177.186H317.049C319.646 177.186 321.678 177.742 323.143 178.855C324.607 179.969 325.34 181.492 325.34 183.426C325.34 184.773 324.91 185.926 324.051 186.883C323.211 187.82 322.068 188.406 320.623 188.641C322.85 188.777 324.598 189.471 325.867 190.721C327.137 191.971 327.771 193.426 327.771 195.086C327.771 195.848 327.625 196.59 327.332 197.312C327.059 198.035 326.619 198.719 326.014 199.363C325.408 199.988 324.695 200.496 323.875 200.887C322.41 201.629 320.311 202 317.576 202H308.318ZM313.328 198.836H317.166C320.623 199.031 322.352 197.713 322.352 194.881C322.352 192.029 320.555 190.604 316.961 190.604H313.328V198.836ZM313.328 186.912H315.672C317.117 186.912 318.26 186.609 319.1 186.004C319.9 185.418 320.301 184.598 320.301 183.543C320.301 182.645 319.881 181.902 319.041 181.316C318.201 180.73 317.205 180.438 316.053 180.438H313.328V186.912ZM353.172 195.643C350.262 200.525 346.277 202.967 341.219 202.967C339.363 202.967 337.684 202.664 336.18 202.059C334.656 201.434 333.348 200.535 332.254 199.363C331.18 198.191 330.35 196.795 329.764 195.174C329.197 193.533 328.914 191.746 328.914 189.812C328.914 187.82 329.197 185.984 329.764 184.305C330.35 182.605 331.17 181.17 332.225 179.998C333.299 178.807 334.578 177.898 336.062 177.273C337.547 176.629 339.188 176.307 340.984 176.307C342.996 176.307 344.822 176.717 346.463 177.537C348.104 178.338 349.461 179.49 350.535 180.994C351.395 182.107 352 183.357 352.352 184.744C352.703 186.131 352.938 188.064 353.055 190.545H334.334C334.393 192.068 334.725 193.416 335.33 194.588C335.955 195.76 336.785 196.658 337.82 197.283C338.875 197.908 340.086 198.221 341.453 198.221C344.48 198.221 346.961 196.434 348.895 192.859L353.172 195.643ZM334.803 186.473H347.43C347.117 184.695 346.434 183.338 345.379 182.4C344.324 181.463 342.977 180.994 341.336 180.994C337.762 180.994 335.584 182.82 334.803 186.473ZM370.779 191.307H359.5V202H354.256V177.244H359.471V186.59H370.779V177.244H375.994L376.023 202H370.779V191.307ZM397.293 202.146V186.502L378.514 203.025V177.215H384.109V192.771L402.889 175.984V202.146H397.293ZM422.195 202V191.307L411.648 202H404.764L416.951 191.072C416.111 191.033 415.027 190.848 413.699 190.516C412.371 190.184 411.238 189.715 410.301 189.109C409.363 188.484 408.641 187.752 408.133 186.912C407.645 186.053 407.4 185.096 407.4 184.041C407.4 181.834 408.514 180.145 410.74 178.973C412.986 177.781 415.848 177.186 419.324 177.186H427.791V202H422.195ZM422.195 180.496H420.467C417.85 180.496 415.945 180.818 414.754 181.463C413.582 182.107 412.996 183.064 412.996 184.334C412.996 185.525 413.611 186.512 414.842 187.293C416.092 188.055 417.85 188.436 420.115 188.436H422.195V180.496Z" fill="#F6EBC8"/>
<mask id="mask0_68_102" style="mask-type:alpha" maskUnits="userSpaceOnUse" x="0" y="0" width="131" height="131">
<rect width="131" height="131" fill="#D9D9D9"/>
</mask>
<g mask="url(#mask0_68_102)">
<path d="M-37.7024 -43.3919C-11.045 -53.6888 17.8752 -53.7841 45.2397 -47.0881C71.7533 -39.2878 88.06 -24.7899 95.5672 -8.3253C102.961 7.89064 101.879 26.1387 93.4329 42.0477L93.0247 42.8032C78.5567 69.1967 54.2763 87.4672 28.2234 98.4056C2.16335 109.347 -25.5816 112.913 -46.8693 109.982C-75.5544 105.586 -97.8684 96.8079 -109.396 82.5878C-120.64 68.7174 -121.837 49.3626 -107.925 22.9963L-107.251 21.7353L-107.249 21.7325C-88.824 -12.5744 -64.3541 -33.0972 -37.7024 -43.3919Z" stroke="#FF9EA7" stroke-width="2"/>
</g>
<mask id="mask1_68_102" style="mask-type:alpha" maskUnits="userSpaceOnUse" x="360" y="0" width="120" height="184">
<rect x="360" width="120" height="184" fill="#D9D9D9"/>
</mask>
<g mask="url(#mask1_68_102)">
<path d="M519.929 92.9903C499.752 114.221 473.425 132.24 445.811 146.207L445.81 146.206C418.456 159.183 397.775 162.73 384.419 159.952C377.758 158.567 372.975 155.622 370.045 151.557C367.213 147.627 366.038 142.547 366.678 136.557L366.747 135.974C369.342 115.255 384.046 91.9968 403.422 70.8436C422.766 49.7256 446.613 30.8723 467.219 18.954C495.08 3.14406 518.987 -6.78216 535.231 -7.50589C543.332 -7.86682 549.344 -5.93191 553.053 -1.5145C556.652 2.77103 558.268 9.61126 557.232 19.6374L557.123 20.6175L557.123 20.622C554.088 47.3581 540.112 71.7529 519.929 92.9903Z" stroke="#FF9EA7" stroke-width="2"/>
</g>
<path d="M342 105.919C349.105 104.877 351.352 102.647 351.984 96C352.684 102.028 354.455 103.975 360.42 104.491C353.893 105.266 351.843 107.543 350.436 114.41C350.662 106.991 348.765 105.177 342 105.919Z" fill="#FF9EA7"/>
</svg>
