<svg width="480" height="138" viewBox="0 0 480 138" fill="none" xmlns="http://www.w3.org/2000/svg">
<path d="M0 0H480V138H0V0Z" fill="#F3B216"/>
<path d="M104.479 32.0195H93.1992V52H87.9551V27.2441H109.693L109.723 52H104.479V32.0195Z" fill="#F6EBC8"/>
<path d="M127.752 31.1113C125.467 31.1113 123.68 31.9707 122.391 33.6895C121.102 35.3887 120.457 37.3906 120.457 39.6953C120.457 41.1602 120.73 42.5469 121.277 43.8555C121.824 45.1641 122.635 46.2188 123.709 47.0195C124.783 47.8203 126.072 48.2207 127.576 48.2207C129.139 48.2207 130.467 47.8105 131.561 46.9902C132.674 46.1699 133.504 45.0957 134.051 43.7676C134.598 42.4199 134.871 41.0039 134.871 39.5195C134.871 38.0938 134.598 36.7363 134.051 35.4473C133.523 34.1387 132.723 33.0938 131.648 32.3125C130.574 31.5117 129.275 31.1113 127.752 31.1113ZM115.506 63.8359V27.127L120.809 27.1562V30.2031C122.625 27.6836 125.184 26.4238 128.484 26.4238C130.926 26.4238 133.025 27.0586 134.783 28.3281C136.561 29.5977 137.889 31.248 138.768 33.2793C139.666 35.3105 140.115 37.4688 140.115 39.7539C140.115 42.0195 139.686 44.1387 138.826 46.1113C137.967 48.084 136.668 49.6758 134.93 50.8867C133.211 52.0977 131.141 52.7031 128.719 52.7031C125.418 52.7031 122.781 51.4629 120.809 48.9824V63.8359H115.506Z" fill="#F6EBC8"/>
<path d="M163.77 52.1465V36.502L144.99 53.0254V27.2148H150.586V42.7715L169.365 25.9844V52.1465H163.77Z" fill="#F6EBC8"/>
<path d="M190.646 31.5801H180.568L180.598 52H175.354V27.1562H190.559L190.646 31.5801Z" fill="#F6EBC8"/>
<path d="M214.945 32.1074H206.684V41.1895C206.684 42.752 206.518 44.2363 206.186 45.6426C205.834 47.0293 205.287 48.2793 204.545 49.3926C203.803 50.5059 202.836 51.3848 201.645 52.0293C200.453 52.6543 199.057 52.9668 197.455 52.9668C197.084 52.9668 196.723 52.9473 196.371 52.9082V47.6641C196.605 47.7031 196.85 47.7227 197.104 47.7227C198.529 47.7227 199.535 47.2539 200.121 46.3164C200.707 45.3594 201 43.7676 201 41.541L200.971 27.2148H220.6V52H214.945V32.1074Z" fill="#F6EBC8"/>
<path d="M245.719 48.9824C244.898 50.1738 243.795 51.1016 242.408 51.7656C241.021 52.4102 239.488 52.7324 237.809 52.7324C235.66 52.7324 233.707 52.1562 231.949 51.0039C230.211 49.8516 228.844 48.2695 227.848 46.2578C226.852 44.2266 226.354 41.9609 226.354 39.4609C226.354 37.0195 226.861 34.8027 227.877 32.8105C228.912 30.8184 230.328 29.2559 232.125 28.123C233.941 26.9902 235.953 26.4238 238.16 26.4238C241.559 26.4238 244.078 27.6836 245.719 30.2031V27.1562H251.021V52H245.719V48.9824ZM238.951 31.1113C237.428 31.1113 236.109 31.5117 234.996 32.3125C233.902 33.1133 233.072 34.1777 232.506 35.5059C231.959 36.834 231.686 38.2305 231.686 39.6953C231.686 41.1406 231.959 42.5176 232.506 43.8262C233.072 45.1348 233.902 46.1992 234.996 47.0195C236.109 47.8203 237.428 48.2207 238.951 48.2207C240.455 48.2207 241.744 47.8203 242.818 47.0195C243.893 46.1992 244.703 45.125 245.25 43.7969C245.816 42.4688 246.1 41.0625 246.1 39.5781C246.1 38.1328 245.836 36.7559 245.309 35.4473C244.742 34.1582 243.922 33.1133 242.848 32.3125C241.773 31.5117 240.475 31.1113 238.951 31.1113Z" fill="#F6EBC8"/>
<path d="M294.832 52H256.6V27.2441H261.844V47.2246H273.094V27.2441H278.367L278.338 47.2246H289.617V27.2441H294.861L294.832 52Z" fill="#F6EBC8"/>
<path d="M319.16 48.9824C318.34 50.1738 317.236 51.1016 315.85 51.7656C314.463 52.4102 312.93 52.7324 311.25 52.7324C309.102 52.7324 307.148 52.1562 305.391 51.0039C303.652 49.8516 302.285 48.2695 301.289 46.2578C300.293 44.2266 299.795 41.9609 299.795 39.4609C299.795 37.0195 300.303 34.8027 301.318 32.8105C302.354 30.8184 303.77 29.2559 305.566 28.123C307.383 26.9902 309.395 26.4238 311.602 26.4238C315 26.4238 317.52 27.6836 319.16 30.2031V27.1562H324.463V52H319.16V48.9824ZM312.393 31.1113C310.869 31.1113 309.551 31.5117 308.438 32.3125C307.344 33.1133 306.514 34.1777 305.947 35.5059C305.4 36.834 305.127 38.2305 305.127 39.6953C305.127 41.1406 305.4 42.5176 305.947 43.8262C306.514 45.1348 307.344 46.1992 308.438 47.0195C309.551 47.8203 310.869 48.2207 312.393 48.2207C313.896 48.2207 315.186 47.8203 316.26 47.0195C317.334 46.1992 318.145 45.125 318.691 43.7969C319.258 42.4688 319.541 41.0625 319.541 39.5781C319.541 38.1328 319.277 36.7559 318.75 35.4473C318.184 34.1582 317.363 33.1133 316.289 32.3125C315.215 31.5117 313.916 31.1113 312.393 31.1113Z" fill="#F6EBC8"/>
<path d="M353.215 45.6426C350.305 50.5254 346.32 52.9668 341.262 52.9668C339.406 52.9668 337.727 52.6641 336.223 52.0586C334.699 51.4336 333.391 50.5352 332.297 49.3633C331.223 48.1914 330.393 46.7949 329.807 45.1738C329.24 43.5332 328.957 41.7461 328.957 39.8125C328.957 37.8203 329.24 35.9844 329.807 34.3047C330.393 32.6055 331.213 31.1699 332.268 29.998C333.342 28.8066 334.621 27.8984 336.105 27.2734C337.59 26.6289 339.23 26.3066 341.027 26.3066C343.039 26.3066 344.865 26.7168 346.506 27.5371C348.146 28.3379 349.504 29.4902 350.578 30.9941C351.438 32.1074 352.043 33.3574 352.395 34.7441C352.746 36.1309 352.98 38.0645 353.098 40.5449H334.377C334.436 42.0684 334.768 43.416 335.373 44.5879C335.998 45.7598 336.828 46.6582 337.863 47.2832C338.918 47.9082 340.129 48.2207 341.496 48.2207C344.523 48.2207 347.004 46.4336 348.938 42.8594L353.215 45.6426ZM334.846 36.4727H347.473C347.16 34.6953 346.477 33.3379 345.422 32.4004C344.367 31.4629 343.02 30.9941 341.379 30.9941C337.805 30.9941 335.627 32.8203 334.846 36.4727Z" fill="#F6EBC8"/>
<path d="M356.186 52.1465L364.916 25.1934L374.32 43.123L385.16 25.1934L393.539 52.1465H387.797L382.934 35.6816L374.086 53.0254L366.674 35.623L361.986 52.1465H356.186Z" fill="#F6EBC8"/>
<path d="M123.316 97.3066H112.037V108H106.793V83.2441H112.008V92.5898H123.316V83.2441H128.531L128.561 108H123.316V97.3066Z" fill="#F6EBC8"/>
<path d="M153.064 104.982C152.244 106.174 151.141 107.102 149.754 107.766C148.367 108.41 146.834 108.732 145.154 108.732C143.006 108.732 141.053 108.156 139.295 107.004C137.557 105.852 136.189 104.27 135.193 102.258C134.197 100.227 133.699 97.9609 133.699 95.4609C133.699 93.0195 134.207 90.8027 135.223 88.8105C136.258 86.8184 137.674 85.2559 139.471 84.123C141.287 82.9902 143.299 82.4238 145.506 82.4238C148.904 82.4238 151.424 83.6836 153.064 86.2031V83.1562H158.367V108H153.064V104.982ZM146.297 87.1113C144.773 87.1113 143.455 87.5117 142.342 88.3125C141.248 89.1133 140.418 90.1777 139.852 91.5059C139.305 92.834 139.031 94.2305 139.031 95.6953C139.031 97.1406 139.305 98.5176 139.852 99.8262C140.418 101.135 141.248 102.199 142.342 103.02C143.455 103.82 144.773 104.221 146.297 104.221C147.801 104.221 149.09 103.82 150.164 103.02C151.238 102.199 152.049 101.125 152.596 99.7969C153.162 98.4688 153.445 97.0625 153.445 95.5781C153.445 94.1328 153.182 92.7559 152.654 91.4473C152.088 90.1582 151.268 89.1133 150.193 88.3125C149.119 87.5117 147.82 87.1113 146.297 87.1113Z" fill="#F6EBC8"/>
<path d="M199.758 106.74C196.887 108.146 194.113 108.85 191.438 108.85C189.094 108.85 186.984 108.293 185.109 107.18C183.234 106.047 181.77 104.494 180.715 102.521C179.641 100.529 179.104 98.293 179.104 95.8125C179.104 93.8398 179.475 92.0234 180.217 90.3633C180.979 88.7031 181.994 87.2773 183.264 86.0859C184.553 84.875 186.008 83.957 187.629 83.332C189.27 82.6875 190.959 82.3652 192.697 82.3652C195.275 82.3652 197.629 83.0293 199.758 84.3574V90.5977C197.746 88.5078 195.344 87.4629 192.551 87.4629C190.383 87.4629 188.527 88.166 186.984 89.5723C185.461 90.9785 184.699 92.9414 184.699 95.4609C184.699 97.1602 185.002 98.6348 185.607 99.8848C186.213 101.135 187.092 102.092 188.244 102.756C189.377 103.4 190.715 103.723 192.258 103.723C194.875 103.723 197.375 102.629 199.758 100.441V106.74Z" fill="#F6EBC8"/>
<path d="M204.105 108V83.1855H212.836C215.434 83.1855 217.465 83.7422 218.93 84.8555C220.395 85.9688 221.127 87.4922 221.127 89.4258C221.127 90.7734 220.697 91.9258 219.838 92.8828C218.998 93.8203 217.855 94.4062 216.41 94.6406C218.637 94.7773 220.385 95.4707 221.654 96.7207C222.924 97.9707 223.559 99.4258 223.559 101.086C223.559 101.848 223.412 102.59 223.119 103.312C222.846 104.035 222.406 104.719 221.801 105.363C221.195 105.988 220.482 106.496 219.662 106.887C218.197 107.629 216.098 108 213.363 108H204.105ZM209.115 104.836H212.953C216.41 105.031 218.139 103.713 218.139 100.881C218.139 98.0293 216.342 96.6035 212.748 96.6035H209.115V104.836ZM209.115 92.9121H211.459C212.904 92.9121 214.047 92.6094 214.887 92.0039C215.688 91.418 216.088 90.5977 216.088 89.543C216.088 88.6445 215.668 87.9023 214.828 87.3164C213.988 86.7305 212.992 86.4375 211.84 86.4375H209.115V92.9121Z" fill="#F6EBC8"/>
<path d="M247.682 104.982C246.861 106.174 245.758 107.102 244.371 107.766C242.984 108.41 241.451 108.732 239.771 108.732C237.623 108.732 235.67 108.156 233.912 107.004C232.174 105.852 230.807 104.27 229.811 102.258C228.814 100.227 228.316 97.9609 228.316 95.4609C228.316 93.0195 228.824 90.8027 229.84 88.8105C230.875 86.8184 232.291 85.2559 234.088 84.123C235.904 82.9902 237.916 82.4238 240.123 82.4238C243.521 82.4238 246.041 83.6836 247.682 86.2031V83.1562H252.984V108H247.682V104.982ZM240.914 87.1113C239.391 87.1113 238.072 87.5117 236.959 88.3125C235.865 89.1133 235.035 90.1777 234.469 91.5059C233.922 92.834 233.648 94.2305 233.648 95.6953C233.648 97.1406 233.922 98.5176 234.469 99.8262C235.035 101.135 235.865 102.199 236.959 103.02C238.072 103.82 239.391 104.221 240.914 104.221C242.418 104.221 243.707 103.82 244.781 103.02C245.855 102.199 246.666 101.125 247.213 99.7969C247.779 98.4688 248.062 97.0625 248.062 95.5781C248.062 94.1328 247.799 92.7559 247.271 91.4473C246.705 90.1582 245.885 89.1133 244.811 88.3125C243.736 87.5117 242.438 87.1113 240.914 87.1113Z" fill="#F6EBC8"/>
<path d="M267.234 103.225H281.502V87.375H273.211C272.801 96.3789 270.809 101.662 267.234 103.225ZM261.58 103.342C265.154 101.779 267.117 95.0605 267.469 83.1855H287.156V103.342H290.027V113.156H284.373V108.293H264.305V113.156H258.65V103.342H261.58Z" fill="#F6EBC8"/>
<path d="M301.025 83.1855V93.5566H304.072C306.182 93.5566 307.949 93.9375 309.375 94.6992C310.801 95.3242 311.895 96.1934 312.656 97.3066C313.438 98.4004 313.828 99.6406 313.828 101.027C313.828 102.434 313.428 103.664 312.627 104.719C311.846 105.754 310.723 106.564 309.258 107.15C307.812 107.717 306.133 108 304.219 108H295.488V83.1855H301.025ZM301.025 104.572H303.545C304.385 104.572 305.371 104.26 306.504 103.635C307.598 103.01 308.145 102.121 308.145 100.969C308.145 98.4688 306.611 97.2188 303.545 97.2188H301.025V104.572Z" fill="#F6EBC8"/>
<path d="M331.359 87.1113C329.719 87.1113 328.312 87.5215 327.141 88.3418C325.969 89.1426 325.09 90.1875 324.504 91.4766C323.918 92.7656 323.625 94.1523 323.625 95.6367C323.625 97.1016 323.918 98.4785 324.504 99.7676C325.09 101.037 325.969 102.082 327.141 102.902C328.312 103.703 329.719 104.104 331.359 104.104C332.98 104.104 334.357 103.703 335.49 102.902C336.643 102.102 337.502 101.047 338.068 99.7383C338.654 98.4297 338.947 97.0625 338.947 95.6367C338.947 94.1719 338.654 92.7852 338.068 91.4766C337.502 90.168 336.643 89.1133 335.49 88.3125C334.338 87.5117 332.961 87.1113 331.359 87.1113ZM327.229 77.7656C325.393 78.3711 324.387 80.4902 324.211 84.123C324.289 84.084 324.367 84.0352 324.445 83.9766C326.457 82.8633 328.742 82.3066 331.301 82.3066C333.859 82.3066 336.154 82.873 338.186 84.0059C340.217 85.1387 341.799 86.7305 342.932 88.7812C344.064 90.8125 344.631 93.1172 344.631 95.6953C344.631 98.2344 344.064 100.51 342.932 102.521C341.799 104.533 340.207 106.096 338.156 107.209C336.105 108.303 333.781 108.85 331.184 108.85C328.645 108.85 326.379 108.273 324.387 107.121C322.395 106.008 320.842 104.436 319.729 102.404C318.635 100.354 318.088 98.0391 318.088 95.4609C317.404 87.2773 317.971 81.5449 319.787 78.2637C321.604 74.9629 323.645 73.1465 325.91 72.8145C328.234 72.4824 330.871 72.3164 333.82 72.3164C336.789 72.2969 338.967 70.9883 340.354 68.3906L345.51 67.7754C343.576 73.127 340.441 75.8711 336.105 76.0078C331.77 76.1445 328.811 76.7305 327.229 77.7656Z" fill="#F6EBC8"/>
<path d="M347.631 83.1562H353.93L361.488 97.4238L368.344 83.1562H374.291L356.156 119.836H350.385L358.734 103.137L347.631 83.1562Z" fill="#F6EBC8"/>
</svg>
