<svg width="435" height="160" viewBox="0 0 435 160" fill="none" xmlns="http://www.w3.org/2000/svg">
<path d="M417.992 133.902C412.252 139.217 406.122 140.926 399.611 140.671C393.04 140.413 386.081 138.157 378.729 135.48C377.543 135.049 376.347 134.606 375.142 134.16C368.926 131.86 362.467 129.471 355.899 128.02C348.033 126.282 339.923 125.867 331.716 128.557C321.703 131.839 315.41 137.254 309.282 142.526L309.025 142.748C302.817 148.088 296.723 153.256 286.922 156.25C264.897 162.978 248.338 153.859 231.128 143.023C229.931 142.269 228.73 141.507 227.525 140.742C211.475 130.55 194.52 119.784 172.142 120.732C153.593 121.519 140.369 128.067 127.317 134.587L127.044 134.723C114.081 141.199 101.255 147.606 83.3098 148.621C76.191 149.024 68.3292 150.039 60.4189 151.06C59.3069 151.204 58.1939 151.347 57.0819 151.49C48.035 152.646 39.0452 153.7 31.0284 153.782C22.9887 153.864 16.0754 152.963 11.1061 150.321C6.2306 147.728 3.14845 143.421 2.782 136.377C2.4606 130.199 3.46482 125.487 4.76581 120.713C5.00805 119.824 5.26156 118.93 5.51892 118.023C6.64219 114.062 7.83884 109.843 8.49218 104.646C9.06984 100.052 8.66509 96.7391 7.77343 94.0814C6.96373 91.6678 5.76268 89.8401 4.67477 88.1846C4.57383 88.031 4.47387 87.8789 4.37529 87.7279C3.20414 85.9345 2.21276 84.2867 1.78419 82.0775C1.35593 79.8702 1.47357 77.0004 2.74095 72.7881C5.48442 63.6698 11.3155 59.7641 17.1416 56.8428C18.1022 56.3612 19.082 55.8981 20.0538 55.4389C21.9876 54.525 23.8894 53.6263 25.5433 52.6264C28.077 51.0945 30.2465 49.2106 31.4232 46.3844C31.5832 45.9999 31.7408 45.6211 31.8961 45.248C34.0715 40.0189 35.7898 35.8885 37.5063 32.5753C39.3393 29.0372 41.1308 26.5122 43.3916 24.6396C47.9191 20.8893 54.5611 19.5506 68.0421 18.6545C86.705 17.414 99.2349 22.8463 111.211 28.0385C112.369 28.5406 113.522 29.0406 114.675 29.532C121.208 32.3162 127.758 34.8339 135.172 35.8469C142.602 36.8622 150.851 36.361 160.804 33.1834C164.982 31.8496 169.097 30.496 173.184 29.1512C185.509 25.0966 197.588 21.1226 210.416 18.0171C225.18 14.4429 235.47 19.002 246.109 24.1554C246.554 24.3709 247 24.5875 247.447 24.8047C257.68 29.7788 268.429 35.0036 283.616 33.224C298.664 31.4608 308.635 23.949 318.192 16.7496C318.653 16.4021 319.113 16.0553 319.573 15.71C329.579 8.19565 339.397 1.32046 354.631 1.34346C368.749 1.36476 383.19 2.97328 394.718 7.68821C406.217 12.391 414.721 20.1347 417.251 32.4323C418.563 38.8106 416.066 43.6644 413.227 48.8497C413.137 49.0142 413.047 49.1791 412.956 49.3444C410.221 54.3299 407.288 59.678 408.121 66.6652C409.168 75.4422 415.61 80.761 421.561 85.674C421.801 85.8726 422.041 86.0706 422.28 86.2682C428.551 91.4594 434.015 96.3289 433.755 104.49C433.551 110.877 432.085 115.915 429.462 120.492C426.826 125.089 422.997 129.267 417.992 133.902Z" stroke="#FF9EA7" stroke-width="2"/>
</svg>
