<svg width="202" height="16" viewBox="0 0 202 16" fill="none" xmlns="http://www.w3.org/2000/svg">
<path d="M7.21953 3.00781H2.70781V11H0.610153V1.09766H9.30547L9.31718 11H7.21953V3.00781ZM16.4586 0.722656C17.482 0.722656 18.4 0.949219 19.2125 1.40234C20.025 1.85547 20.6578 2.49219 21.1109 3.3125C21.5641 4.125 21.7906 5.04688 21.7906 6.07812C21.7906 7.09375 21.5641 8.00391 21.1109 8.80859C20.6578 9.61328 20.0211 10.2383 19.2008 10.6836C18.3805 11.1211 17.4508 11.3398 16.4117 11.3398C15.3961 11.3398 14.4898 11.1094 13.693 10.6484C12.8961 10.2031 12.275 9.57422 11.8297 8.76172C11.3922 7.94141 11.1734 7.01562 11.1734 5.98438C11.1734 4.97656 11.3961 4.07422 11.8414 3.27734C12.2867 2.47266 12.9117 1.84766 13.7164 1.40234C14.5211 0.949219 15.4352 0.722656 16.4586 0.722656ZM16.482 2.64453C15.8258 2.64453 15.2633 2.80859 14.7945 3.13672C14.3258 3.45703 13.9742 3.875 13.7398 4.39062C13.5055 4.90625 13.3883 5.46094 13.3883 6.05469C13.3883 6.64062 13.5055 7.19141 13.7398 7.70703C13.9742 8.21484 14.3258 8.63281 14.7945 8.96094C15.2633 9.28125 15.8258 9.44141 16.482 9.44141C17.1305 9.44141 17.6812 9.28125 18.1344 8.96094C18.5953 8.64062 18.9391 8.21875 19.1656 7.69531C19.4 7.17188 19.5172 6.625 19.5172 6.05469C19.5172 5.46875 19.4 4.91406 19.1656 4.39062C18.9391 3.86719 18.5953 3.44531 18.1344 3.125C17.6734 2.80469 17.1227 2.64453 16.482 2.64453ZM31.4867 10.4961C30.3383 11.0586 29.2289 11.3398 28.1586 11.3398C27.2211 11.3398 26.3773 11.1172 25.6273 10.6719C24.8773 10.2188 24.2914 9.59766 23.8695 8.80859C23.4398 8.01172 23.225 7.11719 23.225 6.125C23.225 5.33594 23.3734 4.60938 23.6703 3.94531C23.975 3.28125 24.3812 2.71094 24.8891 2.23438C25.4047 1.75 25.9867 1.38281 26.6352 1.13281C27.2914 0.875 27.9672 0.746094 28.6625 0.746094C29.6937 0.746094 30.6352 1.01172 31.4867 1.54297V4.03906C30.682 3.20312 29.7211 2.78516 28.6039 2.78516C27.7367 2.78516 26.9945 3.06641 26.3773 3.62891C25.768 4.19141 25.4633 4.97656 25.4633 5.98438C25.4633 6.66406 25.5844 7.25391 25.8266 7.75391C26.0687 8.25391 26.4203 8.63672 26.8812 8.90234C27.3344 9.16016 27.8695 9.28906 28.4867 9.28906C29.5336 9.28906 30.5336 8.85156 31.4867 7.97656V10.4961ZM32.8742 11.0586L36.3664 0.277344L40.1281 7.44922L44.4641 0.277344L47.8156 11.0586H45.5187L43.5734 4.47266L40.0344 11.4102L37.0695 4.44922L35.1945 11.0586H32.8742ZM54.2773 0.722656C55.3008 0.722656 56.2188 0.949219 57.0312 1.40234C57.8438 1.85547 58.4766 2.49219 58.9297 3.3125C59.3828 4.125 59.6094 5.04688 59.6094 6.07812C59.6094 7.09375 59.3828 8.00391 58.9297 8.80859C58.4766 9.61328 57.8398 10.2383 57.0195 10.6836C56.1992 11.1211 55.2695 11.3398 54.2305 11.3398C53.2148 11.3398 52.3086 11.1094 51.5117 10.6484C50.7148 10.2031 50.0938 9.57422 49.6484 8.76172C49.2109 7.94141 48.9922 7.01562 48.9922 5.98438C48.9922 4.97656 49.2148 4.07422 49.6602 3.27734C50.1055 2.47266 50.7305 1.84766 51.5352 1.40234C52.3398 0.949219 53.2539 0.722656 54.2773 0.722656ZM54.3008 2.64453C53.6445 2.64453 53.082 2.80859 52.6133 3.13672C52.1445 3.45703 51.793 3.875 51.5586 4.39062C51.3242 4.90625 51.207 5.46094 51.207 6.05469C51.207 6.64062 51.3242 7.19141 51.5586 7.70703C51.793 8.21484 52.1445 8.63281 52.6133 8.96094C53.082 9.28125 53.6445 9.44141 54.3008 9.44141C54.9492 9.44141 55.5 9.28125 55.9531 8.96094C56.4141 8.64062 56.7578 8.21875 56.9844 7.69531C57.2188 7.17188 57.3359 6.625 57.3359 6.05469C57.3359 5.46875 57.2188 4.91406 56.9844 4.39062C56.7578 3.86719 56.4141 3.44531 55.9531 3.125C55.4922 2.80469 54.9414 2.64453 54.3008 2.64453ZM61.3602 1.07422H68.9422L68.9773 2.84375H66.2469V11H64.0906V2.84375H61.325L61.3602 1.07422ZM76.0367 2.64453C75.1227 2.64453 74.4078 2.98828 73.8922 3.67578C73.3766 4.35547 73.1187 5.15625 73.1187 6.07812C73.1187 6.66406 73.2281 7.21875 73.4469 7.74219C73.6656 8.26562 73.9898 8.6875 74.4195 9.00781C74.8492 9.32812 75.3648 9.48828 75.9664 9.48828C76.5914 9.48828 77.1227 9.32422 77.5602 8.99609C78.0055 8.66797 78.3375 8.23828 78.5562 7.70703C78.775 7.16797 78.8844 6.60156 78.8844 6.00781C78.8844 5.4375 78.775 4.89453 78.5562 4.37891C78.3453 3.85547 78.025 3.4375 77.5953 3.125C77.1656 2.80469 76.6461 2.64453 76.0367 2.64453ZM71.1383 15.7344V1.05078L73.2594 1.0625V2.28125C73.9859 1.27344 75.0094 0.769531 76.3297 0.769531C77.3062 0.769531 78.1461 1.02344 78.8492 1.53125C79.5602 2.03906 80.0914 2.69922 80.443 3.51172C80.8023 4.32422 80.982 5.1875 80.982 6.10156C80.982 7.00781 80.8102 7.85547 80.4664 8.64453C80.1227 9.43359 79.6031 10.0703 78.9078 10.5547C78.2203 11.0391 77.3922 11.2812 76.4234 11.2812C75.1031 11.2812 74.0484 10.7852 73.2594 9.79297V15.7344H71.1383ZM92.2484 8.45703C91.0844 10.4102 89.4906 11.3867 87.4672 11.3867C86.725 11.3867 86.0531 11.2656 85.4516 11.0234C84.8422 10.7734 84.3188 10.4141 83.8813 9.94531C83.4516 9.47656 83.1195 8.91797 82.8852 8.26953C82.6586 7.61328 82.5453 6.89844 82.5453 6.125C82.5453 5.32812 82.6586 4.59375 82.8852 3.92188C83.1195 3.24219 83.4477 2.66797 83.8695 2.19922C84.2992 1.72266 84.8109 1.35938 85.4047 1.10938C85.9984 0.851562 86.6547 0.722656 87.3734 0.722656C88.1781 0.722656 88.9086 0.886719 89.5648 1.21484C90.2211 1.53516 90.7641 1.99609 91.1938 2.59766C91.5375 3.04297 91.7797 3.54297 91.9203 4.09766C92.0609 4.65234 92.1547 5.42578 92.2016 6.41797H84.7133C84.7367 7.02734 84.8695 7.56641 85.1117 8.03516C85.3617 8.50391 85.6938 8.86328 86.1078 9.11328C86.5297 9.36328 87.0141 9.48828 87.5609 9.48828C88.7719 9.48828 89.7641 8.77344 90.5375 7.34375L92.2484 8.45703ZM84.9008 4.78906H89.9516C89.8266 4.07812 89.5531 3.53516 89.1313 3.16016C88.7094 2.78516 88.1703 2.59766 87.5141 2.59766C86.0844 2.59766 85.2133 3.32812 84.9008 4.78906ZM93.9523 1.07422H101.534L101.57 2.84375H98.8391V11H96.6828V2.84375H93.9172L93.9523 1.07422ZM105.898 1.07422V5.22266H107.117C107.961 5.22266 108.668 5.375 109.238 5.67969C109.809 5.92969 110.246 6.27734 110.551 6.72266C110.863 7.16016 111.02 7.65625 111.02 8.21094C111.02 8.77344 110.859 9.26562 110.539 9.6875C110.227 10.1016 109.777 10.4258 109.191 10.6602C108.613 10.8867 107.941 11 107.176 11H103.684V1.07422H105.898ZM105.898 9.62891H106.906C107.242 9.62891 107.637 9.50391 108.09 9.25391C108.527 9.00391 108.746 8.64844 108.746 8.1875C108.746 7.1875 108.133 6.6875 106.906 6.6875H105.898V9.62891ZM126.029 6.72266H121.517V11H119.42V1.09766H121.505V4.83594H126.029V1.09766H128.115L128.127 11H126.029V6.72266ZM137.928 9.79297C137.6 10.2695 137.159 10.6406 136.604 10.9062C136.049 11.1641 135.436 11.293 134.764 11.293C133.905 11.293 133.123 11.0625 132.42 10.6016C131.725 10.1406 131.178 9.50781 130.78 8.70312C130.381 7.89062 130.182 6.98438 130.182 5.98438C130.182 5.00781 130.385 4.12109 130.791 3.32422C131.205 2.52734 131.772 1.90234 132.491 1.44922C133.217 0.996094 134.022 0.769531 134.905 0.769531C136.264 0.769531 137.272 1.27344 137.928 2.28125V1.0625H140.049V11H137.928V9.79297ZM135.221 2.64453C134.612 2.64453 134.084 2.80469 133.639 3.125C133.202 3.44531 132.87 3.87109 132.643 4.40234C132.424 4.93359 132.315 5.49219 132.315 6.07812C132.315 6.65625 132.424 7.20703 132.643 7.73047C132.87 8.25391 133.202 8.67969 133.639 9.00781C134.084 9.32812 134.612 9.48828 135.221 9.48828C135.823 9.48828 136.338 9.32812 136.768 9.00781C137.198 8.67969 137.522 8.25 137.741 7.71875C137.967 7.1875 138.08 6.625 138.08 6.03125C138.08 5.45312 137.975 4.90234 137.764 4.37891C137.537 3.86328 137.209 3.44531 136.78 3.125C136.35 2.80469 135.83 2.64453 135.221 2.64453ZM150.781 1.0625V4.68359L154.227 1.0625H157.016L152.48 5.48047L157.402 11H154.543L150.781 6.46484V11H148.66V1.0625H150.781ZM166.606 9.79297C166.278 10.2695 165.837 10.6406 165.282 10.9062C164.727 11.1641 164.114 11.293 163.442 11.293C162.583 11.293 161.802 11.0625 161.098 10.6016C160.403 10.1406 159.856 9.50781 159.458 8.70312C159.059 7.89062 158.86 6.98438 158.86 5.98438C158.86 5.00781 159.063 4.12109 159.47 3.32422C159.884 2.52734 160.45 1.90234 161.169 1.44922C161.895 0.996094 162.7 0.769531 163.583 0.769531C164.942 0.769531 165.95 1.27344 166.606 2.28125V1.0625H168.727V11H166.606V9.79297ZM163.899 2.64453C163.29 2.64453 162.763 2.80469 162.317 3.125C161.88 3.44531 161.548 3.87109 161.321 4.40234C161.102 4.93359 160.993 5.49219 160.993 6.07812C160.993 6.65625 161.102 7.20703 161.321 7.73047C161.548 8.25391 161.88 8.67969 162.317 9.00781C162.763 9.32812 163.29 9.48828 163.899 9.48828C164.501 9.48828 165.016 9.32812 165.446 9.00781C165.876 8.67969 166.2 8.25 166.419 7.71875C166.645 7.1875 166.759 6.625 166.759 6.03125C166.759 5.45312 166.653 4.90234 166.442 4.37891C166.216 3.86328 165.888 3.44531 165.458 3.125C165.028 2.80469 164.509 2.64453 163.899 2.64453ZM175.927 2.64453C175.013 2.64453 174.298 2.98828 173.783 3.67578C173.267 4.35547 173.009 5.15625 173.009 6.07812C173.009 6.66406 173.119 7.21875 173.337 7.74219C173.556 8.26562 173.88 8.6875 174.31 9.00781C174.74 9.32812 175.255 9.48828 175.857 9.48828C176.482 9.48828 177.013 9.32422 177.451 8.99609C177.896 8.66797 178.228 8.23828 178.447 7.70703C178.666 7.16797 178.775 6.60156 178.775 6.00781C178.775 5.4375 178.666 4.89453 178.447 4.37891C178.236 3.85547 177.916 3.4375 177.486 3.125C177.056 2.80469 176.537 2.64453 175.927 2.64453ZM171.029 15.7344V1.05078L173.15 1.0625V2.28125C173.877 1.27344 174.9 0.769531 176.22 0.769531C177.197 0.769531 178.037 1.02344 178.74 1.53125C179.451 2.03906 179.982 2.69922 180.334 3.51172C180.693 4.32422 180.873 5.1875 180.873 6.10156C180.873 7.00781 180.701 7.85547 180.357 8.64453C180.013 9.43359 179.494 10.0703 178.798 10.5547C178.111 11.0391 177.283 11.2812 176.314 11.2812C174.994 11.2812 173.939 10.7852 173.15 9.79297V15.7344H171.029ZM182.94 1.07422H190.522L190.557 2.84375H187.827V11H185.67V2.84375H182.905L182.94 1.07422ZM201.917 8.45703C200.753 10.4102 199.159 11.3867 197.136 11.3867C196.394 11.3867 195.722 11.2656 195.12 11.0234C194.511 10.7734 193.987 10.4141 193.55 9.94531C193.12 9.47656 192.788 8.91797 192.554 8.26953C192.327 7.61328 192.214 6.89844 192.214 6.125C192.214 5.32812 192.327 4.59375 192.554 3.92188C192.788 3.24219 193.116 2.66797 193.538 2.19922C193.968 1.72266 194.48 1.35938 195.073 1.10938C195.667 0.851562 196.323 0.722656 197.042 0.722656C197.847 0.722656 198.577 0.886719 199.234 1.21484C199.89 1.53516 200.433 1.99609 200.862 2.59766C201.206 3.04297 201.448 3.54297 201.589 4.09766C201.73 4.65234 201.823 5.42578 201.87 6.41797H194.382C194.405 7.02734 194.538 7.56641 194.78 8.03516C195.03 8.50391 195.362 8.86328 195.777 9.11328C196.198 9.36328 196.683 9.48828 197.23 9.48828C198.441 9.48828 199.433 8.77344 200.206 7.34375L201.917 8.45703ZM194.57 4.78906H199.62C199.495 4.07812 199.222 3.53516 198.8 3.16016C198.378 2.78516 197.839 2.59766 197.183 2.59766C195.753 2.59766 194.882 3.32812 194.57 4.78906Z" fill="#F6EBC8"/>
</svg>
